%TF.GenerationSoftware,KiCad,Pcbnew,7.0.10-7.0.10~ubuntu22.04.1*%
%TF.CreationDate,2024-02-22T18:41:36-08:00*%
%TF.ProjectId,INA129-Amplifier,494e4131-3239-42d4-916d-706c69666965,rev?*%
%TF.SameCoordinates,PX2bf7208PY9a4d770*%
%TF.FileFunction,AssemblyDrawing,Top*%
%FSLAX46Y46*%
G04 Gerber Fmt 4.6, Leading zero omitted, Abs format (unit mm)*
G04 Created by KiCad (PCBNEW 7.0.10-7.0.10~ubuntu22.04.1) date 2024-02-22 18:41:36*
%MOMM*%
%LPD*%
G01*
G04 APERTURE LIST*
%ADD10C,0.150000*%
%ADD11C,0.080000*%
%ADD12C,0.120000*%
%ADD13C,0.100000*%
G04 APERTURE END LIST*
D10*
X90337285Y171181D02*
X90337285Y1171181D01*
X90337285Y1171181D02*
X90670618Y456896D01*
X90670618Y456896D02*
X91003951Y1171181D01*
X91003951Y1171181D02*
X91003951Y171181D01*
X91622999Y171181D02*
X91527761Y218800D01*
X91527761Y218800D02*
X91480142Y266420D01*
X91480142Y266420D02*
X91432523Y361658D01*
X91432523Y361658D02*
X91432523Y647372D01*
X91432523Y647372D02*
X91480142Y742610D01*
X91480142Y742610D02*
X91527761Y790229D01*
X91527761Y790229D02*
X91622999Y837848D01*
X91622999Y837848D02*
X91765856Y837848D01*
X91765856Y837848D02*
X91861094Y790229D01*
X91861094Y790229D02*
X91908713Y742610D01*
X91908713Y742610D02*
X91956332Y647372D01*
X91956332Y647372D02*
X91956332Y361658D01*
X91956332Y361658D02*
X91908713Y266420D01*
X91908713Y266420D02*
X91861094Y218800D01*
X91861094Y218800D02*
X91765856Y171181D01*
X91765856Y171181D02*
X91622999Y171181D01*
X92813475Y837848D02*
X92813475Y171181D01*
X92384904Y837848D02*
X92384904Y314039D01*
X92384904Y314039D02*
X92432523Y218800D01*
X92432523Y218800D02*
X92527761Y171181D01*
X92527761Y171181D02*
X92670618Y171181D01*
X92670618Y171181D02*
X92765856Y218800D01*
X92765856Y218800D02*
X92813475Y266420D01*
X93289666Y837848D02*
X93289666Y171181D01*
X93289666Y742610D02*
X93337285Y790229D01*
X93337285Y790229D02*
X93432523Y837848D01*
X93432523Y837848D02*
X93575380Y837848D01*
X93575380Y837848D02*
X93670618Y790229D01*
X93670618Y790229D02*
X93718237Y694991D01*
X93718237Y694991D02*
X93718237Y171181D01*
X94051571Y837848D02*
X94432523Y837848D01*
X94194428Y1171181D02*
X94194428Y314039D01*
X94194428Y314039D02*
X94242047Y218800D01*
X94242047Y218800D02*
X94337285Y171181D01*
X94337285Y171181D02*
X94432523Y171181D01*
X94765857Y171181D02*
X94765857Y837848D01*
X94765857Y1171181D02*
X94718238Y1123562D01*
X94718238Y1123562D02*
X94765857Y1075943D01*
X94765857Y1075943D02*
X94813476Y1123562D01*
X94813476Y1123562D02*
X94765857Y1171181D01*
X94765857Y1171181D02*
X94765857Y1075943D01*
X95242047Y837848D02*
X95242047Y171181D01*
X95242047Y742610D02*
X95289666Y790229D01*
X95289666Y790229D02*
X95384904Y837848D01*
X95384904Y837848D02*
X95527761Y837848D01*
X95527761Y837848D02*
X95622999Y790229D01*
X95622999Y790229D02*
X95670618Y694991D01*
X95670618Y694991D02*
X95670618Y171181D01*
X96575380Y837848D02*
X96575380Y28324D01*
X96575380Y28324D02*
X96527761Y-66914D01*
X96527761Y-66914D02*
X96480142Y-114533D01*
X96480142Y-114533D02*
X96384904Y-162152D01*
X96384904Y-162152D02*
X96242047Y-162152D01*
X96242047Y-162152D02*
X96146809Y-114533D01*
X96575380Y218800D02*
X96480142Y171181D01*
X96480142Y171181D02*
X96289666Y171181D01*
X96289666Y171181D02*
X96194428Y218800D01*
X96194428Y218800D02*
X96146809Y266420D01*
X96146809Y266420D02*
X96099190Y361658D01*
X96099190Y361658D02*
X96099190Y647372D01*
X96099190Y647372D02*
X96146809Y742610D01*
X96146809Y742610D02*
X96194428Y790229D01*
X96194428Y790229D02*
X96289666Y837848D01*
X96289666Y837848D02*
X96480142Y837848D01*
X96480142Y837848D02*
X96575380Y790229D01*
X97051571Y171181D02*
X97051571Y1171181D01*
X97051571Y694991D02*
X97622999Y694991D01*
X97622999Y171181D02*
X97622999Y1171181D01*
X98242047Y171181D02*
X98146809Y218800D01*
X98146809Y218800D02*
X98099190Y266420D01*
X98099190Y266420D02*
X98051571Y361658D01*
X98051571Y361658D02*
X98051571Y647372D01*
X98051571Y647372D02*
X98099190Y742610D01*
X98099190Y742610D02*
X98146809Y790229D01*
X98146809Y790229D02*
X98242047Y837848D01*
X98242047Y837848D02*
X98384904Y837848D01*
X98384904Y837848D02*
X98480142Y790229D01*
X98480142Y790229D02*
X98527761Y742610D01*
X98527761Y742610D02*
X98575380Y647372D01*
X98575380Y647372D02*
X98575380Y361658D01*
X98575380Y361658D02*
X98527761Y266420D01*
X98527761Y266420D02*
X98480142Y218800D01*
X98480142Y218800D02*
X98384904Y171181D01*
X98384904Y171181D02*
X98242047Y171181D01*
X99146809Y171181D02*
X99051571Y218800D01*
X99051571Y218800D02*
X99003952Y314039D01*
X99003952Y314039D02*
X99003952Y1171181D01*
X99908714Y218800D02*
X99813476Y171181D01*
X99813476Y171181D02*
X99623000Y171181D01*
X99623000Y171181D02*
X99527762Y218800D01*
X99527762Y218800D02*
X99480143Y314039D01*
X99480143Y314039D02*
X99480143Y694991D01*
X99480143Y694991D02*
X99527762Y790229D01*
X99527762Y790229D02*
X99623000Y837848D01*
X99623000Y837848D02*
X99813476Y837848D01*
X99813476Y837848D02*
X99908714Y790229D01*
X99908714Y790229D02*
X99956333Y694991D01*
X99956333Y694991D02*
X99956333Y599753D01*
X99956333Y599753D02*
X99480143Y504515D01*
X94361095Y4371181D02*
X94361095Y5371181D01*
X94361095Y4894991D02*
X94932523Y4894991D01*
X94932523Y4371181D02*
X94932523Y5371181D01*
X95837285Y5037848D02*
X95837285Y4371181D01*
X95599190Y5418800D02*
X95361095Y4704515D01*
X95361095Y4704515D02*
X95980142Y4704515D01*
X90337285Y40811181D02*
X90337285Y41811181D01*
X90337285Y41811181D02*
X90670618Y41096896D01*
X90670618Y41096896D02*
X91003951Y41811181D01*
X91003951Y41811181D02*
X91003951Y40811181D01*
X91622999Y40811181D02*
X91527761Y40858800D01*
X91527761Y40858800D02*
X91480142Y40906420D01*
X91480142Y40906420D02*
X91432523Y41001658D01*
X91432523Y41001658D02*
X91432523Y41287372D01*
X91432523Y41287372D02*
X91480142Y41382610D01*
X91480142Y41382610D02*
X91527761Y41430229D01*
X91527761Y41430229D02*
X91622999Y41477848D01*
X91622999Y41477848D02*
X91765856Y41477848D01*
X91765856Y41477848D02*
X91861094Y41430229D01*
X91861094Y41430229D02*
X91908713Y41382610D01*
X91908713Y41382610D02*
X91956332Y41287372D01*
X91956332Y41287372D02*
X91956332Y41001658D01*
X91956332Y41001658D02*
X91908713Y40906420D01*
X91908713Y40906420D02*
X91861094Y40858800D01*
X91861094Y40858800D02*
X91765856Y40811181D01*
X91765856Y40811181D02*
X91622999Y40811181D01*
X92813475Y41477848D02*
X92813475Y40811181D01*
X92384904Y41477848D02*
X92384904Y40954039D01*
X92384904Y40954039D02*
X92432523Y40858800D01*
X92432523Y40858800D02*
X92527761Y40811181D01*
X92527761Y40811181D02*
X92670618Y40811181D01*
X92670618Y40811181D02*
X92765856Y40858800D01*
X92765856Y40858800D02*
X92813475Y40906420D01*
X93289666Y41477848D02*
X93289666Y40811181D01*
X93289666Y41382610D02*
X93337285Y41430229D01*
X93337285Y41430229D02*
X93432523Y41477848D01*
X93432523Y41477848D02*
X93575380Y41477848D01*
X93575380Y41477848D02*
X93670618Y41430229D01*
X93670618Y41430229D02*
X93718237Y41334991D01*
X93718237Y41334991D02*
X93718237Y40811181D01*
X94051571Y41477848D02*
X94432523Y41477848D01*
X94194428Y41811181D02*
X94194428Y40954039D01*
X94194428Y40954039D02*
X94242047Y40858800D01*
X94242047Y40858800D02*
X94337285Y40811181D01*
X94337285Y40811181D02*
X94432523Y40811181D01*
X94765857Y40811181D02*
X94765857Y41477848D01*
X94765857Y41811181D02*
X94718238Y41763562D01*
X94718238Y41763562D02*
X94765857Y41715943D01*
X94765857Y41715943D02*
X94813476Y41763562D01*
X94813476Y41763562D02*
X94765857Y41811181D01*
X94765857Y41811181D02*
X94765857Y41715943D01*
X95242047Y41477848D02*
X95242047Y40811181D01*
X95242047Y41382610D02*
X95289666Y41430229D01*
X95289666Y41430229D02*
X95384904Y41477848D01*
X95384904Y41477848D02*
X95527761Y41477848D01*
X95527761Y41477848D02*
X95622999Y41430229D01*
X95622999Y41430229D02*
X95670618Y41334991D01*
X95670618Y41334991D02*
X95670618Y40811181D01*
X96575380Y41477848D02*
X96575380Y40668324D01*
X96575380Y40668324D02*
X96527761Y40573086D01*
X96527761Y40573086D02*
X96480142Y40525467D01*
X96480142Y40525467D02*
X96384904Y40477848D01*
X96384904Y40477848D02*
X96242047Y40477848D01*
X96242047Y40477848D02*
X96146809Y40525467D01*
X96575380Y40858800D02*
X96480142Y40811181D01*
X96480142Y40811181D02*
X96289666Y40811181D01*
X96289666Y40811181D02*
X96194428Y40858800D01*
X96194428Y40858800D02*
X96146809Y40906420D01*
X96146809Y40906420D02*
X96099190Y41001658D01*
X96099190Y41001658D02*
X96099190Y41287372D01*
X96099190Y41287372D02*
X96146809Y41382610D01*
X96146809Y41382610D02*
X96194428Y41430229D01*
X96194428Y41430229D02*
X96289666Y41477848D01*
X96289666Y41477848D02*
X96480142Y41477848D01*
X96480142Y41477848D02*
X96575380Y41430229D01*
X97051571Y40811181D02*
X97051571Y41811181D01*
X97051571Y41334991D02*
X97622999Y41334991D01*
X97622999Y40811181D02*
X97622999Y41811181D01*
X98242047Y40811181D02*
X98146809Y40858800D01*
X98146809Y40858800D02*
X98099190Y40906420D01*
X98099190Y40906420D02*
X98051571Y41001658D01*
X98051571Y41001658D02*
X98051571Y41287372D01*
X98051571Y41287372D02*
X98099190Y41382610D01*
X98099190Y41382610D02*
X98146809Y41430229D01*
X98146809Y41430229D02*
X98242047Y41477848D01*
X98242047Y41477848D02*
X98384904Y41477848D01*
X98384904Y41477848D02*
X98480142Y41430229D01*
X98480142Y41430229D02*
X98527761Y41382610D01*
X98527761Y41382610D02*
X98575380Y41287372D01*
X98575380Y41287372D02*
X98575380Y41001658D01*
X98575380Y41001658D02*
X98527761Y40906420D01*
X98527761Y40906420D02*
X98480142Y40858800D01*
X98480142Y40858800D02*
X98384904Y40811181D01*
X98384904Y40811181D02*
X98242047Y40811181D01*
X99146809Y40811181D02*
X99051571Y40858800D01*
X99051571Y40858800D02*
X99003952Y40954039D01*
X99003952Y40954039D02*
X99003952Y41811181D01*
X99908714Y40858800D02*
X99813476Y40811181D01*
X99813476Y40811181D02*
X99623000Y40811181D01*
X99623000Y40811181D02*
X99527762Y40858800D01*
X99527762Y40858800D02*
X99480143Y40954039D01*
X99480143Y40954039D02*
X99480143Y41334991D01*
X99480143Y41334991D02*
X99527762Y41430229D01*
X99527762Y41430229D02*
X99623000Y41477848D01*
X99623000Y41477848D02*
X99813476Y41477848D01*
X99813476Y41477848D02*
X99908714Y41430229D01*
X99908714Y41430229D02*
X99956333Y41334991D01*
X99956333Y41334991D02*
X99956333Y41239753D01*
X99956333Y41239753D02*
X99480143Y41144515D01*
X94361095Y45011181D02*
X94361095Y46011181D01*
X94361095Y45534991D02*
X94932523Y45534991D01*
X94932523Y45011181D02*
X94932523Y46011181D01*
X95313476Y46011181D02*
X95932523Y46011181D01*
X95932523Y46011181D02*
X95599190Y45630229D01*
X95599190Y45630229D02*
X95742047Y45630229D01*
X95742047Y45630229D02*
X95837285Y45582610D01*
X95837285Y45582610D02*
X95884904Y45534991D01*
X95884904Y45534991D02*
X95932523Y45439753D01*
X95932523Y45439753D02*
X95932523Y45201658D01*
X95932523Y45201658D02*
X95884904Y45106420D01*
X95884904Y45106420D02*
X95837285Y45058800D01*
X95837285Y45058800D02*
X95742047Y45011181D01*
X95742047Y45011181D02*
X95456333Y45011181D01*
X95456333Y45011181D02*
X95361095Y45058800D01*
X95361095Y45058800D02*
X95313476Y45106420D01*
X-86715Y40811181D02*
X-86715Y41811181D01*
X-86715Y41811181D02*
X246618Y41096896D01*
X246618Y41096896D02*
X579951Y41811181D01*
X579951Y41811181D02*
X579951Y40811181D01*
X1198999Y40811181D02*
X1103761Y40858800D01*
X1103761Y40858800D02*
X1056142Y40906420D01*
X1056142Y40906420D02*
X1008523Y41001658D01*
X1008523Y41001658D02*
X1008523Y41287372D01*
X1008523Y41287372D02*
X1056142Y41382610D01*
X1056142Y41382610D02*
X1103761Y41430229D01*
X1103761Y41430229D02*
X1198999Y41477848D01*
X1198999Y41477848D02*
X1341856Y41477848D01*
X1341856Y41477848D02*
X1437094Y41430229D01*
X1437094Y41430229D02*
X1484713Y41382610D01*
X1484713Y41382610D02*
X1532332Y41287372D01*
X1532332Y41287372D02*
X1532332Y41001658D01*
X1532332Y41001658D02*
X1484713Y40906420D01*
X1484713Y40906420D02*
X1437094Y40858800D01*
X1437094Y40858800D02*
X1341856Y40811181D01*
X1341856Y40811181D02*
X1198999Y40811181D01*
X2389475Y41477848D02*
X2389475Y40811181D01*
X1960904Y41477848D02*
X1960904Y40954039D01*
X1960904Y40954039D02*
X2008523Y40858800D01*
X2008523Y40858800D02*
X2103761Y40811181D01*
X2103761Y40811181D02*
X2246618Y40811181D01*
X2246618Y40811181D02*
X2341856Y40858800D01*
X2341856Y40858800D02*
X2389475Y40906420D01*
X2865666Y41477848D02*
X2865666Y40811181D01*
X2865666Y41382610D02*
X2913285Y41430229D01*
X2913285Y41430229D02*
X3008523Y41477848D01*
X3008523Y41477848D02*
X3151380Y41477848D01*
X3151380Y41477848D02*
X3246618Y41430229D01*
X3246618Y41430229D02*
X3294237Y41334991D01*
X3294237Y41334991D02*
X3294237Y40811181D01*
X3627571Y41477848D02*
X4008523Y41477848D01*
X3770428Y41811181D02*
X3770428Y40954039D01*
X3770428Y40954039D02*
X3818047Y40858800D01*
X3818047Y40858800D02*
X3913285Y40811181D01*
X3913285Y40811181D02*
X4008523Y40811181D01*
X4341857Y40811181D02*
X4341857Y41477848D01*
X4341857Y41811181D02*
X4294238Y41763562D01*
X4294238Y41763562D02*
X4341857Y41715943D01*
X4341857Y41715943D02*
X4389476Y41763562D01*
X4389476Y41763562D02*
X4341857Y41811181D01*
X4341857Y41811181D02*
X4341857Y41715943D01*
X4818047Y41477848D02*
X4818047Y40811181D01*
X4818047Y41382610D02*
X4865666Y41430229D01*
X4865666Y41430229D02*
X4960904Y41477848D01*
X4960904Y41477848D02*
X5103761Y41477848D01*
X5103761Y41477848D02*
X5198999Y41430229D01*
X5198999Y41430229D02*
X5246618Y41334991D01*
X5246618Y41334991D02*
X5246618Y40811181D01*
X6151380Y41477848D02*
X6151380Y40668324D01*
X6151380Y40668324D02*
X6103761Y40573086D01*
X6103761Y40573086D02*
X6056142Y40525467D01*
X6056142Y40525467D02*
X5960904Y40477848D01*
X5960904Y40477848D02*
X5818047Y40477848D01*
X5818047Y40477848D02*
X5722809Y40525467D01*
X6151380Y40858800D02*
X6056142Y40811181D01*
X6056142Y40811181D02*
X5865666Y40811181D01*
X5865666Y40811181D02*
X5770428Y40858800D01*
X5770428Y40858800D02*
X5722809Y40906420D01*
X5722809Y40906420D02*
X5675190Y41001658D01*
X5675190Y41001658D02*
X5675190Y41287372D01*
X5675190Y41287372D02*
X5722809Y41382610D01*
X5722809Y41382610D02*
X5770428Y41430229D01*
X5770428Y41430229D02*
X5865666Y41477848D01*
X5865666Y41477848D02*
X6056142Y41477848D01*
X6056142Y41477848D02*
X6151380Y41430229D01*
X6627571Y40811181D02*
X6627571Y41811181D01*
X6627571Y41334991D02*
X7198999Y41334991D01*
X7198999Y40811181D02*
X7198999Y41811181D01*
X7818047Y40811181D02*
X7722809Y40858800D01*
X7722809Y40858800D02*
X7675190Y40906420D01*
X7675190Y40906420D02*
X7627571Y41001658D01*
X7627571Y41001658D02*
X7627571Y41287372D01*
X7627571Y41287372D02*
X7675190Y41382610D01*
X7675190Y41382610D02*
X7722809Y41430229D01*
X7722809Y41430229D02*
X7818047Y41477848D01*
X7818047Y41477848D02*
X7960904Y41477848D01*
X7960904Y41477848D02*
X8056142Y41430229D01*
X8056142Y41430229D02*
X8103761Y41382610D01*
X8103761Y41382610D02*
X8151380Y41287372D01*
X8151380Y41287372D02*
X8151380Y41001658D01*
X8151380Y41001658D02*
X8103761Y40906420D01*
X8103761Y40906420D02*
X8056142Y40858800D01*
X8056142Y40858800D02*
X7960904Y40811181D01*
X7960904Y40811181D02*
X7818047Y40811181D01*
X8722809Y40811181D02*
X8627571Y40858800D01*
X8627571Y40858800D02*
X8579952Y40954039D01*
X8579952Y40954039D02*
X8579952Y41811181D01*
X9484714Y40858800D02*
X9389476Y40811181D01*
X9389476Y40811181D02*
X9199000Y40811181D01*
X9199000Y40811181D02*
X9103762Y40858800D01*
X9103762Y40858800D02*
X9056143Y40954039D01*
X9056143Y40954039D02*
X9056143Y41334991D01*
X9056143Y41334991D02*
X9103762Y41430229D01*
X9103762Y41430229D02*
X9199000Y41477848D01*
X9199000Y41477848D02*
X9389476Y41477848D01*
X9389476Y41477848D02*
X9484714Y41430229D01*
X9484714Y41430229D02*
X9532333Y41334991D01*
X9532333Y41334991D02*
X9532333Y41239753D01*
X9532333Y41239753D02*
X9056143Y41144515D01*
X3937095Y45011181D02*
X3937095Y46011181D01*
X3937095Y45534991D02*
X4508523Y45534991D01*
X4508523Y45011181D02*
X4508523Y46011181D01*
X4937095Y45915943D02*
X4984714Y45963562D01*
X4984714Y45963562D02*
X5079952Y46011181D01*
X5079952Y46011181D02*
X5318047Y46011181D01*
X5318047Y46011181D02*
X5413285Y45963562D01*
X5413285Y45963562D02*
X5460904Y45915943D01*
X5460904Y45915943D02*
X5508523Y45820705D01*
X5508523Y45820705D02*
X5508523Y45725467D01*
X5508523Y45725467D02*
X5460904Y45582610D01*
X5460904Y45582610D02*
X4889476Y45011181D01*
X4889476Y45011181D02*
X5508523Y45011181D01*
X-86715Y171181D02*
X-86715Y1171181D01*
X-86715Y1171181D02*
X246618Y456896D01*
X246618Y456896D02*
X579951Y1171181D01*
X579951Y1171181D02*
X579951Y171181D01*
X1198999Y171181D02*
X1103761Y218800D01*
X1103761Y218800D02*
X1056142Y266420D01*
X1056142Y266420D02*
X1008523Y361658D01*
X1008523Y361658D02*
X1008523Y647372D01*
X1008523Y647372D02*
X1056142Y742610D01*
X1056142Y742610D02*
X1103761Y790229D01*
X1103761Y790229D02*
X1198999Y837848D01*
X1198999Y837848D02*
X1341856Y837848D01*
X1341856Y837848D02*
X1437094Y790229D01*
X1437094Y790229D02*
X1484713Y742610D01*
X1484713Y742610D02*
X1532332Y647372D01*
X1532332Y647372D02*
X1532332Y361658D01*
X1532332Y361658D02*
X1484713Y266420D01*
X1484713Y266420D02*
X1437094Y218800D01*
X1437094Y218800D02*
X1341856Y171181D01*
X1341856Y171181D02*
X1198999Y171181D01*
X2389475Y837848D02*
X2389475Y171181D01*
X1960904Y837848D02*
X1960904Y314039D01*
X1960904Y314039D02*
X2008523Y218800D01*
X2008523Y218800D02*
X2103761Y171181D01*
X2103761Y171181D02*
X2246618Y171181D01*
X2246618Y171181D02*
X2341856Y218800D01*
X2341856Y218800D02*
X2389475Y266420D01*
X2865666Y837848D02*
X2865666Y171181D01*
X2865666Y742610D02*
X2913285Y790229D01*
X2913285Y790229D02*
X3008523Y837848D01*
X3008523Y837848D02*
X3151380Y837848D01*
X3151380Y837848D02*
X3246618Y790229D01*
X3246618Y790229D02*
X3294237Y694991D01*
X3294237Y694991D02*
X3294237Y171181D01*
X3627571Y837848D02*
X4008523Y837848D01*
X3770428Y1171181D02*
X3770428Y314039D01*
X3770428Y314039D02*
X3818047Y218800D01*
X3818047Y218800D02*
X3913285Y171181D01*
X3913285Y171181D02*
X4008523Y171181D01*
X4341857Y171181D02*
X4341857Y837848D01*
X4341857Y1171181D02*
X4294238Y1123562D01*
X4294238Y1123562D02*
X4341857Y1075943D01*
X4341857Y1075943D02*
X4389476Y1123562D01*
X4389476Y1123562D02*
X4341857Y1171181D01*
X4341857Y1171181D02*
X4341857Y1075943D01*
X4818047Y837848D02*
X4818047Y171181D01*
X4818047Y742610D02*
X4865666Y790229D01*
X4865666Y790229D02*
X4960904Y837848D01*
X4960904Y837848D02*
X5103761Y837848D01*
X5103761Y837848D02*
X5198999Y790229D01*
X5198999Y790229D02*
X5246618Y694991D01*
X5246618Y694991D02*
X5246618Y171181D01*
X6151380Y837848D02*
X6151380Y28324D01*
X6151380Y28324D02*
X6103761Y-66914D01*
X6103761Y-66914D02*
X6056142Y-114533D01*
X6056142Y-114533D02*
X5960904Y-162152D01*
X5960904Y-162152D02*
X5818047Y-162152D01*
X5818047Y-162152D02*
X5722809Y-114533D01*
X6151380Y218800D02*
X6056142Y171181D01*
X6056142Y171181D02*
X5865666Y171181D01*
X5865666Y171181D02*
X5770428Y218800D01*
X5770428Y218800D02*
X5722809Y266420D01*
X5722809Y266420D02*
X5675190Y361658D01*
X5675190Y361658D02*
X5675190Y647372D01*
X5675190Y647372D02*
X5722809Y742610D01*
X5722809Y742610D02*
X5770428Y790229D01*
X5770428Y790229D02*
X5865666Y837848D01*
X5865666Y837848D02*
X6056142Y837848D01*
X6056142Y837848D02*
X6151380Y790229D01*
X6627571Y171181D02*
X6627571Y1171181D01*
X6627571Y694991D02*
X7198999Y694991D01*
X7198999Y171181D02*
X7198999Y1171181D01*
X7818047Y171181D02*
X7722809Y218800D01*
X7722809Y218800D02*
X7675190Y266420D01*
X7675190Y266420D02*
X7627571Y361658D01*
X7627571Y361658D02*
X7627571Y647372D01*
X7627571Y647372D02*
X7675190Y742610D01*
X7675190Y742610D02*
X7722809Y790229D01*
X7722809Y790229D02*
X7818047Y837848D01*
X7818047Y837848D02*
X7960904Y837848D01*
X7960904Y837848D02*
X8056142Y790229D01*
X8056142Y790229D02*
X8103761Y742610D01*
X8103761Y742610D02*
X8151380Y647372D01*
X8151380Y647372D02*
X8151380Y361658D01*
X8151380Y361658D02*
X8103761Y266420D01*
X8103761Y266420D02*
X8056142Y218800D01*
X8056142Y218800D02*
X7960904Y171181D01*
X7960904Y171181D02*
X7818047Y171181D01*
X8722809Y171181D02*
X8627571Y218800D01*
X8627571Y218800D02*
X8579952Y314039D01*
X8579952Y314039D02*
X8579952Y1171181D01*
X9484714Y218800D02*
X9389476Y171181D01*
X9389476Y171181D02*
X9199000Y171181D01*
X9199000Y171181D02*
X9103762Y218800D01*
X9103762Y218800D02*
X9056143Y314039D01*
X9056143Y314039D02*
X9056143Y694991D01*
X9056143Y694991D02*
X9103762Y790229D01*
X9103762Y790229D02*
X9199000Y837848D01*
X9199000Y837848D02*
X9389476Y837848D01*
X9389476Y837848D02*
X9484714Y790229D01*
X9484714Y790229D02*
X9532333Y694991D01*
X9532333Y694991D02*
X9532333Y599753D01*
X9532333Y599753D02*
X9056143Y504515D01*
X3937095Y4371181D02*
X3937095Y5371181D01*
X3937095Y4894991D02*
X4508523Y4894991D01*
X4508523Y4371181D02*
X4508523Y5371181D01*
X5508523Y4371181D02*
X4937095Y4371181D01*
X5222809Y4371181D02*
X5222809Y5371181D01*
X5222809Y5371181D02*
X5127571Y5228324D01*
X5127571Y5228324D02*
X5032333Y5133086D01*
X5032333Y5133086D02*
X4937095Y5085467D01*
X66492904Y31600420D02*
X66445285Y31552800D01*
X66445285Y31552800D02*
X66302428Y31505181D01*
X66302428Y31505181D02*
X66207190Y31505181D01*
X66207190Y31505181D02*
X66064333Y31552800D01*
X66064333Y31552800D02*
X65969095Y31648039D01*
X65969095Y31648039D02*
X65921476Y31743277D01*
X65921476Y31743277D02*
X65873857Y31933753D01*
X65873857Y31933753D02*
X65873857Y32076610D01*
X65873857Y32076610D02*
X65921476Y32267086D01*
X65921476Y32267086D02*
X65969095Y32362324D01*
X65969095Y32362324D02*
X66064333Y32457562D01*
X66064333Y32457562D02*
X66207190Y32505181D01*
X66207190Y32505181D02*
X66302428Y32505181D01*
X66302428Y32505181D02*
X66445285Y32457562D01*
X66445285Y32457562D02*
X66492904Y32409943D01*
X67064333Y31505181D02*
X66969095Y31552800D01*
X66969095Y31552800D02*
X66921476Y31600420D01*
X66921476Y31600420D02*
X66873857Y31695658D01*
X66873857Y31695658D02*
X66873857Y31981372D01*
X66873857Y31981372D02*
X66921476Y32076610D01*
X66921476Y32076610D02*
X66969095Y32124229D01*
X66969095Y32124229D02*
X67064333Y32171848D01*
X67064333Y32171848D02*
X67207190Y32171848D01*
X67207190Y32171848D02*
X67302428Y32124229D01*
X67302428Y32124229D02*
X67350047Y32076610D01*
X67350047Y32076610D02*
X67397666Y31981372D01*
X67397666Y31981372D02*
X67397666Y31695658D01*
X67397666Y31695658D02*
X67350047Y31600420D01*
X67350047Y31600420D02*
X67302428Y31552800D01*
X67302428Y31552800D02*
X67207190Y31505181D01*
X67207190Y31505181D02*
X67064333Y31505181D01*
X67826238Y32171848D02*
X67826238Y31505181D01*
X67826238Y32076610D02*
X67873857Y32124229D01*
X67873857Y32124229D02*
X67969095Y32171848D01*
X67969095Y32171848D02*
X68111952Y32171848D01*
X68111952Y32171848D02*
X68207190Y32124229D01*
X68207190Y32124229D02*
X68254809Y32028991D01*
X68254809Y32028991D02*
X68254809Y31505181D01*
X68731000Y32171848D02*
X68731000Y31505181D01*
X68731000Y32076610D02*
X68778619Y32124229D01*
X68778619Y32124229D02*
X68873857Y32171848D01*
X68873857Y32171848D02*
X69016714Y32171848D01*
X69016714Y32171848D02*
X69111952Y32124229D01*
X69111952Y32124229D02*
X69159571Y32028991D01*
X69159571Y32028991D02*
X69159571Y31505181D01*
X69397667Y31409943D02*
X70159571Y31409943D01*
X70588143Y32505181D02*
X70683381Y32505181D01*
X70683381Y32505181D02*
X70778619Y32457562D01*
X70778619Y32457562D02*
X70826238Y32409943D01*
X70826238Y32409943D02*
X70873857Y32314705D01*
X70873857Y32314705D02*
X70921476Y32124229D01*
X70921476Y32124229D02*
X70921476Y31886134D01*
X70921476Y31886134D02*
X70873857Y31695658D01*
X70873857Y31695658D02*
X70826238Y31600420D01*
X70826238Y31600420D02*
X70778619Y31552800D01*
X70778619Y31552800D02*
X70683381Y31505181D01*
X70683381Y31505181D02*
X70588143Y31505181D01*
X70588143Y31505181D02*
X70492905Y31552800D01*
X70492905Y31552800D02*
X70445286Y31600420D01*
X70445286Y31600420D02*
X70397667Y31695658D01*
X70397667Y31695658D02*
X70350048Y31886134D01*
X70350048Y31886134D02*
X70350048Y32124229D01*
X70350048Y32124229D02*
X70397667Y32314705D01*
X70397667Y32314705D02*
X70445286Y32409943D01*
X70445286Y32409943D02*
X70492905Y32457562D01*
X70492905Y32457562D02*
X70588143Y32505181D01*
X71873857Y31505181D02*
X71302429Y31505181D01*
X71588143Y31505181D02*
X71588143Y32505181D01*
X71588143Y32505181D02*
X71492905Y32362324D01*
X71492905Y32362324D02*
X71397667Y32267086D01*
X71397667Y32267086D02*
X71302429Y32219467D01*
X72207191Y31505181D02*
X72731000Y32171848D01*
X72207191Y32171848D02*
X72731000Y31505181D01*
X73302429Y32505181D02*
X73397667Y32505181D01*
X73397667Y32505181D02*
X73492905Y32457562D01*
X73492905Y32457562D02*
X73540524Y32409943D01*
X73540524Y32409943D02*
X73588143Y32314705D01*
X73588143Y32314705D02*
X73635762Y32124229D01*
X73635762Y32124229D02*
X73635762Y31886134D01*
X73635762Y31886134D02*
X73588143Y31695658D01*
X73588143Y31695658D02*
X73540524Y31600420D01*
X73540524Y31600420D02*
X73492905Y31552800D01*
X73492905Y31552800D02*
X73397667Y31505181D01*
X73397667Y31505181D02*
X73302429Y31505181D01*
X73302429Y31505181D02*
X73207191Y31552800D01*
X73207191Y31552800D02*
X73159572Y31600420D01*
X73159572Y31600420D02*
X73111953Y31695658D01*
X73111953Y31695658D02*
X73064334Y31886134D01*
X73064334Y31886134D02*
X73064334Y32124229D01*
X73064334Y32124229D02*
X73111953Y32314705D01*
X73111953Y32314705D02*
X73159572Y32409943D01*
X73159572Y32409943D02*
X73207191Y32457562D01*
X73207191Y32457562D02*
X73302429Y32505181D01*
X74588143Y31505181D02*
X74016715Y31505181D01*
X74302429Y31505181D02*
X74302429Y32505181D01*
X74302429Y32505181D02*
X74207191Y32362324D01*
X74207191Y32362324D02*
X74111953Y32267086D01*
X74111953Y32267086D02*
X74016715Y32219467D01*
X69685819Y33956667D02*
X70400104Y33956667D01*
X70400104Y33956667D02*
X70542961Y33909048D01*
X70542961Y33909048D02*
X70638200Y33813810D01*
X70638200Y33813810D02*
X70685819Y33670953D01*
X70685819Y33670953D02*
X70685819Y33575715D01*
X70685819Y34480477D02*
X70685819Y34670953D01*
X70685819Y34670953D02*
X70638200Y34766191D01*
X70638200Y34766191D02*
X70590580Y34813810D01*
X70590580Y34813810D02*
X70447723Y34909048D01*
X70447723Y34909048D02*
X70257247Y34956667D01*
X70257247Y34956667D02*
X69876295Y34956667D01*
X69876295Y34956667D02*
X69781057Y34909048D01*
X69781057Y34909048D02*
X69733438Y34861429D01*
X69733438Y34861429D02*
X69685819Y34766191D01*
X69685819Y34766191D02*
X69685819Y34575715D01*
X69685819Y34575715D02*
X69733438Y34480477D01*
X69733438Y34480477D02*
X69781057Y34432858D01*
X69781057Y34432858D02*
X69876295Y34385239D01*
X69876295Y34385239D02*
X70114390Y34385239D01*
X70114390Y34385239D02*
X70209628Y34432858D01*
X70209628Y34432858D02*
X70257247Y34480477D01*
X70257247Y34480477D02*
X70304866Y34575715D01*
X70304866Y34575715D02*
X70304866Y34766191D01*
X70304866Y34766191D02*
X70257247Y34861429D01*
X70257247Y34861429D02*
X70209628Y34909048D01*
X70209628Y34909048D02*
X70114390Y34956667D01*
X57856904Y16360420D02*
X57809285Y16312800D01*
X57809285Y16312800D02*
X57666428Y16265181D01*
X57666428Y16265181D02*
X57571190Y16265181D01*
X57571190Y16265181D02*
X57428333Y16312800D01*
X57428333Y16312800D02*
X57333095Y16408039D01*
X57333095Y16408039D02*
X57285476Y16503277D01*
X57285476Y16503277D02*
X57237857Y16693753D01*
X57237857Y16693753D02*
X57237857Y16836610D01*
X57237857Y16836610D02*
X57285476Y17027086D01*
X57285476Y17027086D02*
X57333095Y17122324D01*
X57333095Y17122324D02*
X57428333Y17217562D01*
X57428333Y17217562D02*
X57571190Y17265181D01*
X57571190Y17265181D02*
X57666428Y17265181D01*
X57666428Y17265181D02*
X57809285Y17217562D01*
X57809285Y17217562D02*
X57856904Y17169943D01*
X58428333Y16265181D02*
X58333095Y16312800D01*
X58333095Y16312800D02*
X58285476Y16360420D01*
X58285476Y16360420D02*
X58237857Y16455658D01*
X58237857Y16455658D02*
X58237857Y16741372D01*
X58237857Y16741372D02*
X58285476Y16836610D01*
X58285476Y16836610D02*
X58333095Y16884229D01*
X58333095Y16884229D02*
X58428333Y16931848D01*
X58428333Y16931848D02*
X58571190Y16931848D01*
X58571190Y16931848D02*
X58666428Y16884229D01*
X58666428Y16884229D02*
X58714047Y16836610D01*
X58714047Y16836610D02*
X58761666Y16741372D01*
X58761666Y16741372D02*
X58761666Y16455658D01*
X58761666Y16455658D02*
X58714047Y16360420D01*
X58714047Y16360420D02*
X58666428Y16312800D01*
X58666428Y16312800D02*
X58571190Y16265181D01*
X58571190Y16265181D02*
X58428333Y16265181D01*
X59190238Y16931848D02*
X59190238Y16265181D01*
X59190238Y16836610D02*
X59237857Y16884229D01*
X59237857Y16884229D02*
X59333095Y16931848D01*
X59333095Y16931848D02*
X59475952Y16931848D01*
X59475952Y16931848D02*
X59571190Y16884229D01*
X59571190Y16884229D02*
X59618809Y16788991D01*
X59618809Y16788991D02*
X59618809Y16265181D01*
X60095000Y16931848D02*
X60095000Y16265181D01*
X60095000Y16836610D02*
X60142619Y16884229D01*
X60142619Y16884229D02*
X60237857Y16931848D01*
X60237857Y16931848D02*
X60380714Y16931848D01*
X60380714Y16931848D02*
X60475952Y16884229D01*
X60475952Y16884229D02*
X60523571Y16788991D01*
X60523571Y16788991D02*
X60523571Y16265181D01*
X60761667Y16169943D02*
X61523571Y16169943D01*
X61952143Y17265181D02*
X62047381Y17265181D01*
X62047381Y17265181D02*
X62142619Y17217562D01*
X62142619Y17217562D02*
X62190238Y17169943D01*
X62190238Y17169943D02*
X62237857Y17074705D01*
X62237857Y17074705D02*
X62285476Y16884229D01*
X62285476Y16884229D02*
X62285476Y16646134D01*
X62285476Y16646134D02*
X62237857Y16455658D01*
X62237857Y16455658D02*
X62190238Y16360420D01*
X62190238Y16360420D02*
X62142619Y16312800D01*
X62142619Y16312800D02*
X62047381Y16265181D01*
X62047381Y16265181D02*
X61952143Y16265181D01*
X61952143Y16265181D02*
X61856905Y16312800D01*
X61856905Y16312800D02*
X61809286Y16360420D01*
X61809286Y16360420D02*
X61761667Y16455658D01*
X61761667Y16455658D02*
X61714048Y16646134D01*
X61714048Y16646134D02*
X61714048Y16884229D01*
X61714048Y16884229D02*
X61761667Y17074705D01*
X61761667Y17074705D02*
X61809286Y17169943D01*
X61809286Y17169943D02*
X61856905Y17217562D01*
X61856905Y17217562D02*
X61952143Y17265181D01*
X63237857Y16265181D02*
X62666429Y16265181D01*
X62952143Y16265181D02*
X62952143Y17265181D01*
X62952143Y17265181D02*
X62856905Y17122324D01*
X62856905Y17122324D02*
X62761667Y17027086D01*
X62761667Y17027086D02*
X62666429Y16979467D01*
X63571191Y16265181D02*
X64095000Y16931848D01*
X63571191Y16931848D02*
X64095000Y16265181D01*
X64666429Y17265181D02*
X64761667Y17265181D01*
X64761667Y17265181D02*
X64856905Y17217562D01*
X64856905Y17217562D02*
X64904524Y17169943D01*
X64904524Y17169943D02*
X64952143Y17074705D01*
X64952143Y17074705D02*
X64999762Y16884229D01*
X64999762Y16884229D02*
X64999762Y16646134D01*
X64999762Y16646134D02*
X64952143Y16455658D01*
X64952143Y16455658D02*
X64904524Y16360420D01*
X64904524Y16360420D02*
X64856905Y16312800D01*
X64856905Y16312800D02*
X64761667Y16265181D01*
X64761667Y16265181D02*
X64666429Y16265181D01*
X64666429Y16265181D02*
X64571191Y16312800D01*
X64571191Y16312800D02*
X64523572Y16360420D01*
X64523572Y16360420D02*
X64475953Y16455658D01*
X64475953Y16455658D02*
X64428334Y16646134D01*
X64428334Y16646134D02*
X64428334Y16884229D01*
X64428334Y16884229D02*
X64475953Y17074705D01*
X64475953Y17074705D02*
X64523572Y17169943D01*
X64523572Y17169943D02*
X64571191Y17217562D01*
X64571191Y17217562D02*
X64666429Y17265181D01*
X65952143Y16265181D02*
X65380715Y16265181D01*
X65666429Y16265181D02*
X65666429Y17265181D01*
X65666429Y17265181D02*
X65571191Y17122324D01*
X65571191Y17122324D02*
X65475953Y17027086D01*
X65475953Y17027086D02*
X65380715Y16979467D01*
X61049819Y18716667D02*
X61764104Y18716667D01*
X61764104Y18716667D02*
X61906961Y18669048D01*
X61906961Y18669048D02*
X62002200Y18573810D01*
X62002200Y18573810D02*
X62049819Y18430953D01*
X62049819Y18430953D02*
X62049819Y18335715D01*
X61478390Y19335715D02*
X61430771Y19240477D01*
X61430771Y19240477D02*
X61383152Y19192858D01*
X61383152Y19192858D02*
X61287914Y19145239D01*
X61287914Y19145239D02*
X61240295Y19145239D01*
X61240295Y19145239D02*
X61145057Y19192858D01*
X61145057Y19192858D02*
X61097438Y19240477D01*
X61097438Y19240477D02*
X61049819Y19335715D01*
X61049819Y19335715D02*
X61049819Y19526191D01*
X61049819Y19526191D02*
X61097438Y19621429D01*
X61097438Y19621429D02*
X61145057Y19669048D01*
X61145057Y19669048D02*
X61240295Y19716667D01*
X61240295Y19716667D02*
X61287914Y19716667D01*
X61287914Y19716667D02*
X61383152Y19669048D01*
X61383152Y19669048D02*
X61430771Y19621429D01*
X61430771Y19621429D02*
X61478390Y19526191D01*
X61478390Y19526191D02*
X61478390Y19335715D01*
X61478390Y19335715D02*
X61526009Y19240477D01*
X61526009Y19240477D02*
X61573628Y19192858D01*
X61573628Y19192858D02*
X61668866Y19145239D01*
X61668866Y19145239D02*
X61859342Y19145239D01*
X61859342Y19145239D02*
X61954580Y19192858D01*
X61954580Y19192858D02*
X62002200Y19240477D01*
X62002200Y19240477D02*
X62049819Y19335715D01*
X62049819Y19335715D02*
X62049819Y19526191D01*
X62049819Y19526191D02*
X62002200Y19621429D01*
X62002200Y19621429D02*
X61954580Y19669048D01*
X61954580Y19669048D02*
X61859342Y19716667D01*
X61859342Y19716667D02*
X61668866Y19716667D01*
X61668866Y19716667D02*
X61573628Y19669048D01*
X61573628Y19669048D02*
X61526009Y19621429D01*
X61526009Y19621429D02*
X61478390Y19526191D01*
X82243819Y19470762D02*
X82243819Y18899334D01*
X82243819Y19185048D02*
X81243819Y19185048D01*
X81243819Y19185048D02*
X81386676Y19089810D01*
X81386676Y19089810D02*
X81481914Y18994572D01*
X81481914Y18994572D02*
X81529533Y18899334D01*
X81243819Y20089810D02*
X81243819Y20185048D01*
X81243819Y20185048D02*
X81291438Y20280286D01*
X81291438Y20280286D02*
X81339057Y20327905D01*
X81339057Y20327905D02*
X81434295Y20375524D01*
X81434295Y20375524D02*
X81624771Y20423143D01*
X81624771Y20423143D02*
X81862866Y20423143D01*
X81862866Y20423143D02*
X82053342Y20375524D01*
X82053342Y20375524D02*
X82148580Y20327905D01*
X82148580Y20327905D02*
X82196200Y20280286D01*
X82196200Y20280286D02*
X82243819Y20185048D01*
X82243819Y20185048D02*
X82243819Y20089810D01*
X82243819Y20089810D02*
X82196200Y19994572D01*
X82196200Y19994572D02*
X82148580Y19946953D01*
X82148580Y19946953D02*
X82053342Y19899334D01*
X82053342Y19899334D02*
X81862866Y19851715D01*
X81862866Y19851715D02*
X81624771Y19851715D01*
X81624771Y19851715D02*
X81434295Y19899334D01*
X81434295Y19899334D02*
X81339057Y19946953D01*
X81339057Y19946953D02*
X81291438Y19994572D01*
X81291438Y19994572D02*
X81243819Y20089810D01*
X82243819Y20851715D02*
X81243819Y20851715D01*
X81862866Y20946953D02*
X82243819Y21232667D01*
X81577152Y21232667D02*
X81958104Y20851715D01*
D11*
X83666149Y19744572D02*
X83428054Y19577906D01*
X83666149Y19458858D02*
X83166149Y19458858D01*
X83166149Y19458858D02*
X83166149Y19649334D01*
X83166149Y19649334D02*
X83189959Y19696953D01*
X83189959Y19696953D02*
X83213768Y19720763D01*
X83213768Y19720763D02*
X83261387Y19744572D01*
X83261387Y19744572D02*
X83332816Y19744572D01*
X83332816Y19744572D02*
X83380435Y19720763D01*
X83380435Y19720763D02*
X83404244Y19696953D01*
X83404244Y19696953D02*
X83428054Y19649334D01*
X83428054Y19649334D02*
X83428054Y19458858D01*
X83666149Y20220763D02*
X83666149Y19935049D01*
X83666149Y20077906D02*
X83166149Y20077906D01*
X83166149Y20077906D02*
X83237578Y20030287D01*
X83237578Y20030287D02*
X83285197Y19982668D01*
X83285197Y19982668D02*
X83309006Y19935049D01*
X83332816Y20649334D02*
X83666149Y20649334D01*
X83142340Y20530286D02*
X83499482Y20411239D01*
X83499482Y20411239D02*
X83499482Y20720762D01*
D10*
X83859761Y25325181D02*
X83288333Y25325181D01*
X83574047Y25325181D02*
X83574047Y26325181D01*
X83574047Y26325181D02*
X83478809Y26182324D01*
X83478809Y26182324D02*
X83383571Y26087086D01*
X83383571Y26087086D02*
X83288333Y26039467D01*
X84478809Y26325181D02*
X84574047Y26325181D01*
X84574047Y26325181D02*
X84669285Y26277562D01*
X84669285Y26277562D02*
X84716904Y26229943D01*
X84716904Y26229943D02*
X84764523Y26134705D01*
X84764523Y26134705D02*
X84812142Y25944229D01*
X84812142Y25944229D02*
X84812142Y25706134D01*
X84812142Y25706134D02*
X84764523Y25515658D01*
X84764523Y25515658D02*
X84716904Y25420420D01*
X84716904Y25420420D02*
X84669285Y25372800D01*
X84669285Y25372800D02*
X84574047Y25325181D01*
X84574047Y25325181D02*
X84478809Y25325181D01*
X84478809Y25325181D02*
X84383571Y25372800D01*
X84383571Y25372800D02*
X84335952Y25420420D01*
X84335952Y25420420D02*
X84288333Y25515658D01*
X84288333Y25515658D02*
X84240714Y25706134D01*
X84240714Y25706134D02*
X84240714Y25944229D01*
X84240714Y25944229D02*
X84288333Y26134705D01*
X84288333Y26134705D02*
X84335952Y26229943D01*
X84335952Y26229943D02*
X84383571Y26277562D01*
X84383571Y26277562D02*
X84478809Y26325181D01*
X85240714Y25325181D02*
X85240714Y26325181D01*
X85335952Y25706134D02*
X85621666Y25325181D01*
X85621666Y25991848D02*
X85240714Y25610896D01*
D11*
X84133571Y23902851D02*
X83966905Y24140946D01*
X83847857Y23902851D02*
X83847857Y24402851D01*
X83847857Y24402851D02*
X84038333Y24402851D01*
X84038333Y24402851D02*
X84085952Y24379041D01*
X84085952Y24379041D02*
X84109762Y24355232D01*
X84109762Y24355232D02*
X84133571Y24307613D01*
X84133571Y24307613D02*
X84133571Y24236184D01*
X84133571Y24236184D02*
X84109762Y24188565D01*
X84109762Y24188565D02*
X84085952Y24164756D01*
X84085952Y24164756D02*
X84038333Y24140946D01*
X84038333Y24140946D02*
X83847857Y24140946D01*
X84609762Y23902851D02*
X84324048Y23902851D01*
X84466905Y23902851D02*
X84466905Y24402851D01*
X84466905Y24402851D02*
X84419286Y24331422D01*
X84419286Y24331422D02*
X84371667Y24283803D01*
X84371667Y24283803D02*
X84324048Y24259994D01*
X84776428Y24402851D02*
X85085952Y24402851D01*
X85085952Y24402851D02*
X84919285Y24212375D01*
X84919285Y24212375D02*
X84990714Y24212375D01*
X84990714Y24212375D02*
X85038333Y24188565D01*
X85038333Y24188565D02*
X85062142Y24164756D01*
X85062142Y24164756D02*
X85085952Y24117137D01*
X85085952Y24117137D02*
X85085952Y23998089D01*
X85085952Y23998089D02*
X85062142Y23950470D01*
X85062142Y23950470D02*
X85038333Y23926660D01*
X85038333Y23926660D02*
X84990714Y23902851D01*
X84990714Y23902851D02*
X84847857Y23902851D01*
X84847857Y23902851D02*
X84800238Y23926660D01*
X84800238Y23926660D02*
X84776428Y23950470D01*
D10*
X73097523Y19049181D02*
X72621333Y19049181D01*
X72621333Y19049181D02*
X72621333Y20049181D01*
X73430857Y19049181D02*
X73430857Y20049181D01*
X73430857Y20049181D02*
X73764190Y19334896D01*
X73764190Y19334896D02*
X74097523Y20049181D01*
X74097523Y20049181D02*
X74097523Y19049181D01*
X74478476Y20049181D02*
X75097523Y20049181D01*
X75097523Y20049181D02*
X74764190Y19668229D01*
X74764190Y19668229D02*
X74907047Y19668229D01*
X74907047Y19668229D02*
X75002285Y19620610D01*
X75002285Y19620610D02*
X75049904Y19572991D01*
X75049904Y19572991D02*
X75097523Y19477753D01*
X75097523Y19477753D02*
X75097523Y19239658D01*
X75097523Y19239658D02*
X75049904Y19144420D01*
X75049904Y19144420D02*
X75002285Y19096800D01*
X75002285Y19096800D02*
X74907047Y19049181D01*
X74907047Y19049181D02*
X74621333Y19049181D01*
X74621333Y19049181D02*
X74526095Y19096800D01*
X74526095Y19096800D02*
X74478476Y19144420D01*
X76002285Y20049181D02*
X75526095Y20049181D01*
X75526095Y20049181D02*
X75478476Y19572991D01*
X75478476Y19572991D02*
X75526095Y19620610D01*
X75526095Y19620610D02*
X75621333Y19668229D01*
X75621333Y19668229D02*
X75859428Y19668229D01*
X75859428Y19668229D02*
X75954666Y19620610D01*
X75954666Y19620610D02*
X76002285Y19572991D01*
X76002285Y19572991D02*
X76049904Y19477753D01*
X76049904Y19477753D02*
X76049904Y19239658D01*
X76049904Y19239658D02*
X76002285Y19144420D01*
X76002285Y19144420D02*
X75954666Y19096800D01*
X75954666Y19096800D02*
X75859428Y19049181D01*
X75859428Y19049181D02*
X75621333Y19049181D01*
X75621333Y19049181D02*
X75526095Y19096800D01*
X75526095Y19096800D02*
X75478476Y19144420D01*
X76621333Y19620610D02*
X76526095Y19668229D01*
X76526095Y19668229D02*
X76478476Y19715848D01*
X76478476Y19715848D02*
X76430857Y19811086D01*
X76430857Y19811086D02*
X76430857Y19858705D01*
X76430857Y19858705D02*
X76478476Y19953943D01*
X76478476Y19953943D02*
X76526095Y20001562D01*
X76526095Y20001562D02*
X76621333Y20049181D01*
X76621333Y20049181D02*
X76811809Y20049181D01*
X76811809Y20049181D02*
X76907047Y20001562D01*
X76907047Y20001562D02*
X76954666Y19953943D01*
X76954666Y19953943D02*
X77002285Y19858705D01*
X77002285Y19858705D02*
X77002285Y19811086D01*
X77002285Y19811086D02*
X76954666Y19715848D01*
X76954666Y19715848D02*
X76907047Y19668229D01*
X76907047Y19668229D02*
X76811809Y19620610D01*
X76811809Y19620610D02*
X76621333Y19620610D01*
X76621333Y19620610D02*
X76526095Y19572991D01*
X76526095Y19572991D02*
X76478476Y19525372D01*
X76478476Y19525372D02*
X76430857Y19430134D01*
X76430857Y19430134D02*
X76430857Y19239658D01*
X76430857Y19239658D02*
X76478476Y19144420D01*
X76478476Y19144420D02*
X76526095Y19096800D01*
X76526095Y19096800D02*
X76621333Y19049181D01*
X76621333Y19049181D02*
X76811809Y19049181D01*
X76811809Y19049181D02*
X76907047Y19096800D01*
X76907047Y19096800D02*
X76954666Y19144420D01*
X76954666Y19144420D02*
X77002285Y19239658D01*
X77002285Y19239658D02*
X77002285Y19430134D01*
X77002285Y19430134D02*
X76954666Y19525372D01*
X76954666Y19525372D02*
X76907047Y19572991D01*
X76907047Y19572991D02*
X76811809Y19620610D01*
X74026095Y26189181D02*
X74026095Y25379658D01*
X74026095Y25379658D02*
X74073714Y25284420D01*
X74073714Y25284420D02*
X74121333Y25236800D01*
X74121333Y25236800D02*
X74216571Y25189181D01*
X74216571Y25189181D02*
X74407047Y25189181D01*
X74407047Y25189181D02*
X74502285Y25236800D01*
X74502285Y25236800D02*
X74549904Y25284420D01*
X74549904Y25284420D02*
X74597523Y25379658D01*
X74597523Y25379658D02*
X74597523Y26189181D01*
X74978476Y26189181D02*
X75597523Y26189181D01*
X75597523Y26189181D02*
X75264190Y25808229D01*
X75264190Y25808229D02*
X75407047Y25808229D01*
X75407047Y25808229D02*
X75502285Y25760610D01*
X75502285Y25760610D02*
X75549904Y25712991D01*
X75549904Y25712991D02*
X75597523Y25617753D01*
X75597523Y25617753D02*
X75597523Y25379658D01*
X75597523Y25379658D02*
X75549904Y25284420D01*
X75549904Y25284420D02*
X75502285Y25236800D01*
X75502285Y25236800D02*
X75407047Y25189181D01*
X75407047Y25189181D02*
X75121333Y25189181D01*
X75121333Y25189181D02*
X75026095Y25236800D01*
X75026095Y25236800D02*
X74978476Y25284420D01*
X40403048Y19557181D02*
X40403048Y20557181D01*
X40879238Y19557181D02*
X40879238Y20557181D01*
X40879238Y20557181D02*
X41450666Y19557181D01*
X41450666Y19557181D02*
X41450666Y20557181D01*
X41879238Y19842896D02*
X42355428Y19842896D01*
X41784000Y19557181D02*
X42117333Y20557181D01*
X42117333Y20557181D02*
X42450666Y19557181D01*
X43307809Y19557181D02*
X42736381Y19557181D01*
X43022095Y19557181D02*
X43022095Y20557181D01*
X43022095Y20557181D02*
X42926857Y20414324D01*
X42926857Y20414324D02*
X42831619Y20319086D01*
X42831619Y20319086D02*
X42736381Y20271467D01*
X43688762Y20461943D02*
X43736381Y20509562D01*
X43736381Y20509562D02*
X43831619Y20557181D01*
X43831619Y20557181D02*
X44069714Y20557181D01*
X44069714Y20557181D02*
X44164952Y20509562D01*
X44164952Y20509562D02*
X44212571Y20461943D01*
X44212571Y20461943D02*
X44260190Y20366705D01*
X44260190Y20366705D02*
X44260190Y20271467D01*
X44260190Y20271467D02*
X44212571Y20128610D01*
X44212571Y20128610D02*
X43641143Y19557181D01*
X43641143Y19557181D02*
X44260190Y19557181D01*
X44736381Y19557181D02*
X44926857Y19557181D01*
X44926857Y19557181D02*
X45022095Y19604800D01*
X45022095Y19604800D02*
X45069714Y19652420D01*
X45069714Y19652420D02*
X45164952Y19795277D01*
X45164952Y19795277D02*
X45212571Y19985753D01*
X45212571Y19985753D02*
X45212571Y20366705D01*
X45212571Y20366705D02*
X45164952Y20461943D01*
X45164952Y20461943D02*
X45117333Y20509562D01*
X45117333Y20509562D02*
X45022095Y20557181D01*
X45022095Y20557181D02*
X44831619Y20557181D01*
X44831619Y20557181D02*
X44736381Y20509562D01*
X44736381Y20509562D02*
X44688762Y20461943D01*
X44688762Y20461943D02*
X44641143Y20366705D01*
X44641143Y20366705D02*
X44641143Y20128610D01*
X44641143Y20128610D02*
X44688762Y20033372D01*
X44688762Y20033372D02*
X44736381Y19985753D01*
X44736381Y19985753D02*
X44831619Y19938134D01*
X44831619Y19938134D02*
X45022095Y19938134D01*
X45022095Y19938134D02*
X45117333Y19985753D01*
X45117333Y19985753D02*
X45164952Y20033372D01*
X45164952Y20033372D02*
X45212571Y20128610D01*
X42022095Y26697181D02*
X42022095Y25887658D01*
X42022095Y25887658D02*
X42069714Y25792420D01*
X42069714Y25792420D02*
X42117333Y25744800D01*
X42117333Y25744800D02*
X42212571Y25697181D01*
X42212571Y25697181D02*
X42403047Y25697181D01*
X42403047Y25697181D02*
X42498285Y25744800D01*
X42498285Y25744800D02*
X42545904Y25792420D01*
X42545904Y25792420D02*
X42593523Y25887658D01*
X42593523Y25887658D02*
X42593523Y26697181D01*
X43593523Y25697181D02*
X43022095Y25697181D01*
X43307809Y25697181D02*
X43307809Y26697181D01*
X43307809Y26697181D02*
X43212571Y26554324D01*
X43212571Y26554324D02*
X43117333Y26459086D01*
X43117333Y26459086D02*
X43022095Y26411467D01*
X64817856Y2731562D02*
X64722618Y2779181D01*
X64722618Y2779181D02*
X64579761Y2779181D01*
X64579761Y2779181D02*
X64436904Y2731562D01*
X64436904Y2731562D02*
X64341666Y2636324D01*
X64341666Y2636324D02*
X64294047Y2541086D01*
X64294047Y2541086D02*
X64246428Y2350610D01*
X64246428Y2350610D02*
X64246428Y2207753D01*
X64246428Y2207753D02*
X64294047Y2017277D01*
X64294047Y2017277D02*
X64341666Y1922039D01*
X64341666Y1922039D02*
X64436904Y1826800D01*
X64436904Y1826800D02*
X64579761Y1779181D01*
X64579761Y1779181D02*
X64674999Y1779181D01*
X64674999Y1779181D02*
X64817856Y1826800D01*
X64817856Y1826800D02*
X64865475Y1874420D01*
X64865475Y1874420D02*
X64865475Y2207753D01*
X64865475Y2207753D02*
X64674999Y2207753D01*
X65294047Y1779181D02*
X65294047Y2445848D01*
X65294047Y2255372D02*
X65341666Y2350610D01*
X65341666Y2350610D02*
X65389285Y2398229D01*
X65389285Y2398229D02*
X65484523Y2445848D01*
X65484523Y2445848D02*
X65579761Y2445848D01*
X66055952Y1779181D02*
X65960714Y1826800D01*
X65960714Y1826800D02*
X65913095Y1874420D01*
X65913095Y1874420D02*
X65865476Y1969658D01*
X65865476Y1969658D02*
X65865476Y2255372D01*
X65865476Y2255372D02*
X65913095Y2350610D01*
X65913095Y2350610D02*
X65960714Y2398229D01*
X65960714Y2398229D02*
X66055952Y2445848D01*
X66055952Y2445848D02*
X66198809Y2445848D01*
X66198809Y2445848D02*
X66294047Y2398229D01*
X66294047Y2398229D02*
X66341666Y2350610D01*
X66341666Y2350610D02*
X66389285Y2255372D01*
X66389285Y2255372D02*
X66389285Y1969658D01*
X66389285Y1969658D02*
X66341666Y1874420D01*
X66341666Y1874420D02*
X66294047Y1826800D01*
X66294047Y1826800D02*
X66198809Y1779181D01*
X66198809Y1779181D02*
X66055952Y1779181D01*
X67246428Y2445848D02*
X67246428Y1779181D01*
X66817857Y2445848D02*
X66817857Y1922039D01*
X66817857Y1922039D02*
X66865476Y1826800D01*
X66865476Y1826800D02*
X66960714Y1779181D01*
X66960714Y1779181D02*
X67103571Y1779181D01*
X67103571Y1779181D02*
X67198809Y1826800D01*
X67198809Y1826800D02*
X67246428Y1874420D01*
X67722619Y2445848D02*
X67722619Y1779181D01*
X67722619Y2350610D02*
X67770238Y2398229D01*
X67770238Y2398229D02*
X67865476Y2445848D01*
X67865476Y2445848D02*
X68008333Y2445848D01*
X68008333Y2445848D02*
X68103571Y2398229D01*
X68103571Y2398229D02*
X68151190Y2302991D01*
X68151190Y2302991D02*
X68151190Y1779181D01*
X69055952Y1779181D02*
X69055952Y2779181D01*
X69055952Y1826800D02*
X68960714Y1779181D01*
X68960714Y1779181D02*
X68770238Y1779181D01*
X68770238Y1779181D02*
X68675000Y1826800D01*
X68675000Y1826800D02*
X68627381Y1874420D01*
X68627381Y1874420D02*
X68579762Y1969658D01*
X68579762Y1969658D02*
X68579762Y2255372D01*
X68579762Y2255372D02*
X68627381Y2350610D01*
X68627381Y2350610D02*
X68675000Y2398229D01*
X68675000Y2398229D02*
X68770238Y2445848D01*
X68770238Y2445848D02*
X68960714Y2445848D01*
X68960714Y2445848D02*
X69055952Y2398229D01*
X63889286Y2325181D02*
X64460714Y2325181D01*
X64175000Y1325181D02*
X64175000Y2325181D01*
X64794048Y1325181D02*
X64794048Y2325181D01*
X64794048Y2325181D02*
X65175000Y2325181D01*
X65175000Y2325181D02*
X65270238Y2277562D01*
X65270238Y2277562D02*
X65317857Y2229943D01*
X65317857Y2229943D02*
X65365476Y2134705D01*
X65365476Y2134705D02*
X65365476Y1991848D01*
X65365476Y1991848D02*
X65317857Y1896610D01*
X65317857Y1896610D02*
X65270238Y1848991D01*
X65270238Y1848991D02*
X65175000Y1801372D01*
X65175000Y1801372D02*
X64794048Y1801372D01*
X66317857Y2277562D02*
X66222619Y2325181D01*
X66222619Y2325181D02*
X66079762Y2325181D01*
X66079762Y2325181D02*
X65936905Y2277562D01*
X65936905Y2277562D02*
X65841667Y2182324D01*
X65841667Y2182324D02*
X65794048Y2087086D01*
X65794048Y2087086D02*
X65746429Y1896610D01*
X65746429Y1896610D02*
X65746429Y1753753D01*
X65746429Y1753753D02*
X65794048Y1563277D01*
X65794048Y1563277D02*
X65841667Y1468039D01*
X65841667Y1468039D02*
X65936905Y1372800D01*
X65936905Y1372800D02*
X66079762Y1325181D01*
X66079762Y1325181D02*
X66175000Y1325181D01*
X66175000Y1325181D02*
X66317857Y1372800D01*
X66317857Y1372800D02*
X66365476Y1420420D01*
X66365476Y1420420D02*
X66365476Y1753753D01*
X66365476Y1753753D02*
X66175000Y1753753D01*
X66794048Y1325181D02*
X66794048Y2325181D01*
X66794048Y2325181D02*
X67365476Y1325181D01*
X67365476Y1325181D02*
X67365476Y2325181D01*
X67841667Y1325181D02*
X67841667Y2325181D01*
X67841667Y2325181D02*
X68079762Y2325181D01*
X68079762Y2325181D02*
X68222619Y2277562D01*
X68222619Y2277562D02*
X68317857Y2182324D01*
X68317857Y2182324D02*
X68365476Y2087086D01*
X68365476Y2087086D02*
X68413095Y1896610D01*
X68413095Y1896610D02*
X68413095Y1753753D01*
X68413095Y1753753D02*
X68365476Y1563277D01*
X68365476Y1563277D02*
X68317857Y1468039D01*
X68317857Y1468039D02*
X68222619Y1372800D01*
X68222619Y1372800D02*
X68079762Y1325181D01*
X68079762Y1325181D02*
X67841667Y1325181D01*
X69365476Y1325181D02*
X68794048Y1325181D01*
X69079762Y1325181D02*
X69079762Y2325181D01*
X69079762Y2325181D02*
X68984524Y2182324D01*
X68984524Y2182324D02*
X68889286Y2087086D01*
X68889286Y2087086D02*
X68794048Y2039467D01*
X60269904Y9292420D02*
X60222285Y9244800D01*
X60222285Y9244800D02*
X60079428Y9197181D01*
X60079428Y9197181D02*
X59984190Y9197181D01*
X59984190Y9197181D02*
X59841333Y9244800D01*
X59841333Y9244800D02*
X59746095Y9340039D01*
X59746095Y9340039D02*
X59698476Y9435277D01*
X59698476Y9435277D02*
X59650857Y9625753D01*
X59650857Y9625753D02*
X59650857Y9768610D01*
X59650857Y9768610D02*
X59698476Y9959086D01*
X59698476Y9959086D02*
X59746095Y10054324D01*
X59746095Y10054324D02*
X59841333Y10149562D01*
X59841333Y10149562D02*
X59984190Y10197181D01*
X59984190Y10197181D02*
X60079428Y10197181D01*
X60079428Y10197181D02*
X60222285Y10149562D01*
X60222285Y10149562D02*
X60269904Y10101943D01*
X60841333Y9197181D02*
X60746095Y9244800D01*
X60746095Y9244800D02*
X60698476Y9292420D01*
X60698476Y9292420D02*
X60650857Y9387658D01*
X60650857Y9387658D02*
X60650857Y9673372D01*
X60650857Y9673372D02*
X60698476Y9768610D01*
X60698476Y9768610D02*
X60746095Y9816229D01*
X60746095Y9816229D02*
X60841333Y9863848D01*
X60841333Y9863848D02*
X60984190Y9863848D01*
X60984190Y9863848D02*
X61079428Y9816229D01*
X61079428Y9816229D02*
X61127047Y9768610D01*
X61127047Y9768610D02*
X61174666Y9673372D01*
X61174666Y9673372D02*
X61174666Y9387658D01*
X61174666Y9387658D02*
X61127047Y9292420D01*
X61127047Y9292420D02*
X61079428Y9244800D01*
X61079428Y9244800D02*
X60984190Y9197181D01*
X60984190Y9197181D02*
X60841333Y9197181D01*
X61603238Y9863848D02*
X61603238Y9197181D01*
X61603238Y9768610D02*
X61650857Y9816229D01*
X61650857Y9816229D02*
X61746095Y9863848D01*
X61746095Y9863848D02*
X61888952Y9863848D01*
X61888952Y9863848D02*
X61984190Y9816229D01*
X61984190Y9816229D02*
X62031809Y9720991D01*
X62031809Y9720991D02*
X62031809Y9197181D01*
X62508000Y9863848D02*
X62508000Y9197181D01*
X62508000Y9768610D02*
X62555619Y9816229D01*
X62555619Y9816229D02*
X62650857Y9863848D01*
X62650857Y9863848D02*
X62793714Y9863848D01*
X62793714Y9863848D02*
X62888952Y9816229D01*
X62888952Y9816229D02*
X62936571Y9720991D01*
X62936571Y9720991D02*
X62936571Y9197181D01*
X63174667Y9101943D02*
X63936571Y9101943D01*
X64365143Y10197181D02*
X64460381Y10197181D01*
X64460381Y10197181D02*
X64555619Y10149562D01*
X64555619Y10149562D02*
X64603238Y10101943D01*
X64603238Y10101943D02*
X64650857Y10006705D01*
X64650857Y10006705D02*
X64698476Y9816229D01*
X64698476Y9816229D02*
X64698476Y9578134D01*
X64698476Y9578134D02*
X64650857Y9387658D01*
X64650857Y9387658D02*
X64603238Y9292420D01*
X64603238Y9292420D02*
X64555619Y9244800D01*
X64555619Y9244800D02*
X64460381Y9197181D01*
X64460381Y9197181D02*
X64365143Y9197181D01*
X64365143Y9197181D02*
X64269905Y9244800D01*
X64269905Y9244800D02*
X64222286Y9292420D01*
X64222286Y9292420D02*
X64174667Y9387658D01*
X64174667Y9387658D02*
X64127048Y9578134D01*
X64127048Y9578134D02*
X64127048Y9816229D01*
X64127048Y9816229D02*
X64174667Y10006705D01*
X64174667Y10006705D02*
X64222286Y10101943D01*
X64222286Y10101943D02*
X64269905Y10149562D01*
X64269905Y10149562D02*
X64365143Y10197181D01*
X65650857Y9197181D02*
X65079429Y9197181D01*
X65365143Y9197181D02*
X65365143Y10197181D01*
X65365143Y10197181D02*
X65269905Y10054324D01*
X65269905Y10054324D02*
X65174667Y9959086D01*
X65174667Y9959086D02*
X65079429Y9911467D01*
X65984191Y9197181D02*
X66508000Y9863848D01*
X65984191Y9863848D02*
X66508000Y9197181D01*
X67079429Y10197181D02*
X67174667Y10197181D01*
X67174667Y10197181D02*
X67269905Y10149562D01*
X67269905Y10149562D02*
X67317524Y10101943D01*
X67317524Y10101943D02*
X67365143Y10006705D01*
X67365143Y10006705D02*
X67412762Y9816229D01*
X67412762Y9816229D02*
X67412762Y9578134D01*
X67412762Y9578134D02*
X67365143Y9387658D01*
X67365143Y9387658D02*
X67317524Y9292420D01*
X67317524Y9292420D02*
X67269905Y9244800D01*
X67269905Y9244800D02*
X67174667Y9197181D01*
X67174667Y9197181D02*
X67079429Y9197181D01*
X67079429Y9197181D02*
X66984191Y9244800D01*
X66984191Y9244800D02*
X66936572Y9292420D01*
X66936572Y9292420D02*
X66888953Y9387658D01*
X66888953Y9387658D02*
X66841334Y9578134D01*
X66841334Y9578134D02*
X66841334Y9816229D01*
X66841334Y9816229D02*
X66888953Y10006705D01*
X66888953Y10006705D02*
X66936572Y10101943D01*
X66936572Y10101943D02*
X66984191Y10149562D01*
X66984191Y10149562D02*
X67079429Y10197181D01*
X67793715Y10101943D02*
X67841334Y10149562D01*
X67841334Y10149562D02*
X67936572Y10197181D01*
X67936572Y10197181D02*
X68174667Y10197181D01*
X68174667Y10197181D02*
X68269905Y10149562D01*
X68269905Y10149562D02*
X68317524Y10101943D01*
X68317524Y10101943D02*
X68365143Y10006705D01*
X68365143Y10006705D02*
X68365143Y9911467D01*
X68365143Y9911467D02*
X68317524Y9768610D01*
X68317524Y9768610D02*
X67746096Y9197181D01*
X67746096Y9197181D02*
X68365143Y9197181D01*
X64685666Y10451181D02*
X64685666Y9736896D01*
X64685666Y9736896D02*
X64638047Y9594039D01*
X64638047Y9594039D02*
X64542809Y9498800D01*
X64542809Y9498800D02*
X64399952Y9451181D01*
X64399952Y9451181D02*
X64304714Y9451181D01*
X65638047Y10451181D02*
X65161857Y10451181D01*
X65161857Y10451181D02*
X65114238Y9974991D01*
X65114238Y9974991D02*
X65161857Y10022610D01*
X65161857Y10022610D02*
X65257095Y10070229D01*
X65257095Y10070229D02*
X65495190Y10070229D01*
X65495190Y10070229D02*
X65590428Y10022610D01*
X65590428Y10022610D02*
X65638047Y9974991D01*
X65638047Y9974991D02*
X65685666Y9879753D01*
X65685666Y9879753D02*
X65685666Y9641658D01*
X65685666Y9641658D02*
X65638047Y9546420D01*
X65638047Y9546420D02*
X65590428Y9498800D01*
X65590428Y9498800D02*
X65495190Y9451181D01*
X65495190Y9451181D02*
X65257095Y9451181D01*
X65257095Y9451181D02*
X65161857Y9498800D01*
X65161857Y9498800D02*
X65114238Y9546420D01*
X41092714Y8367181D02*
X41664142Y8367181D01*
X41378428Y7367181D02*
X41378428Y8367181D01*
X41997476Y7367181D02*
X41997476Y8367181D01*
X41997476Y8367181D02*
X42378428Y8367181D01*
X42378428Y8367181D02*
X42473666Y8319562D01*
X42473666Y8319562D02*
X42521285Y8271943D01*
X42521285Y8271943D02*
X42568904Y8176705D01*
X42568904Y8176705D02*
X42568904Y8033848D01*
X42568904Y8033848D02*
X42521285Y7938610D01*
X42521285Y7938610D02*
X42473666Y7890991D01*
X42473666Y7890991D02*
X42378428Y7843372D01*
X42378428Y7843372D02*
X41997476Y7843372D01*
X42997476Y7367181D02*
X42997476Y8367181D01*
X42997476Y8367181D02*
X43568904Y7367181D01*
X43568904Y7367181D02*
X43568904Y8367181D01*
X44092714Y7367181D02*
X44283190Y7367181D01*
X44283190Y7367181D02*
X44378428Y7414800D01*
X44378428Y7414800D02*
X44426047Y7462420D01*
X44426047Y7462420D02*
X44521285Y7605277D01*
X44521285Y7605277D02*
X44568904Y7795753D01*
X44568904Y7795753D02*
X44568904Y8176705D01*
X44568904Y8176705D02*
X44521285Y8271943D01*
X44521285Y8271943D02*
X44473666Y8319562D01*
X44473666Y8319562D02*
X44378428Y8367181D01*
X44378428Y8367181D02*
X44187952Y8367181D01*
X44187952Y8367181D02*
X44092714Y8319562D01*
X44092714Y8319562D02*
X44045095Y8271943D01*
X44045095Y8271943D02*
X43997476Y8176705D01*
X43997476Y8176705D02*
X43997476Y7938610D01*
X43997476Y7938610D02*
X44045095Y7843372D01*
X44045095Y7843372D02*
X44092714Y7795753D01*
X44092714Y7795753D02*
X44187952Y7748134D01*
X44187952Y7748134D02*
X44378428Y7748134D01*
X44378428Y7748134D02*
X44473666Y7795753D01*
X44473666Y7795753D02*
X44521285Y7843372D01*
X44521285Y7843372D02*
X44568904Y7938610D01*
X44854619Y8367181D02*
X45187952Y7367181D01*
X45187952Y7367181D02*
X45521285Y8367181D01*
X40521286Y7911181D02*
X41092714Y7911181D01*
X40807000Y6911181D02*
X40807000Y7911181D01*
X41426048Y6911181D02*
X41426048Y7911181D01*
X41426048Y7911181D02*
X41807000Y7911181D01*
X41807000Y7911181D02*
X41902238Y7863562D01*
X41902238Y7863562D02*
X41949857Y7815943D01*
X41949857Y7815943D02*
X41997476Y7720705D01*
X41997476Y7720705D02*
X41997476Y7577848D01*
X41997476Y7577848D02*
X41949857Y7482610D01*
X41949857Y7482610D02*
X41902238Y7434991D01*
X41902238Y7434991D02*
X41807000Y7387372D01*
X41807000Y7387372D02*
X41426048Y7387372D01*
X42426048Y7292134D02*
X43187953Y7292134D01*
X43711762Y6911181D02*
X43902238Y6911181D01*
X43902238Y6911181D02*
X43997476Y6958800D01*
X43997476Y6958800D02*
X44045095Y7006420D01*
X44045095Y7006420D02*
X44140333Y7149277D01*
X44140333Y7149277D02*
X44187952Y7339753D01*
X44187952Y7339753D02*
X44187952Y7720705D01*
X44187952Y7720705D02*
X44140333Y7815943D01*
X44140333Y7815943D02*
X44092714Y7863562D01*
X44092714Y7863562D02*
X43997476Y7911181D01*
X43997476Y7911181D02*
X43807000Y7911181D01*
X43807000Y7911181D02*
X43711762Y7863562D01*
X43711762Y7863562D02*
X43664143Y7815943D01*
X43664143Y7815943D02*
X43616524Y7720705D01*
X43616524Y7720705D02*
X43616524Y7482610D01*
X43616524Y7482610D02*
X43664143Y7387372D01*
X43664143Y7387372D02*
X43711762Y7339753D01*
X43711762Y7339753D02*
X43807000Y7292134D01*
X43807000Y7292134D02*
X43997476Y7292134D01*
X43997476Y7292134D02*
X44092714Y7339753D01*
X44092714Y7339753D02*
X44140333Y7387372D01*
X44140333Y7387372D02*
X44187952Y7482610D01*
X44473667Y7911181D02*
X44807000Y6911181D01*
X44807000Y6911181D02*
X45140333Y7911181D01*
X45997476Y6911181D02*
X45426048Y6911181D01*
X45711762Y6911181D02*
X45711762Y7911181D01*
X45711762Y7911181D02*
X45616524Y7768324D01*
X45616524Y7768324D02*
X45521286Y7673086D01*
X45521286Y7673086D02*
X45426048Y7625467D01*
X58388524Y37323181D02*
X58959952Y37323181D01*
X58674238Y36323181D02*
X58674238Y37323181D01*
X59293286Y36323181D02*
X59293286Y37323181D01*
X59293286Y37323181D02*
X59674238Y37323181D01*
X59674238Y37323181D02*
X59769476Y37275562D01*
X59769476Y37275562D02*
X59817095Y37227943D01*
X59817095Y37227943D02*
X59864714Y37132705D01*
X59864714Y37132705D02*
X59864714Y36989848D01*
X59864714Y36989848D02*
X59817095Y36894610D01*
X59817095Y36894610D02*
X59769476Y36846991D01*
X59769476Y36846991D02*
X59674238Y36799372D01*
X59674238Y36799372D02*
X59293286Y36799372D01*
X60293286Y36323181D02*
X60293286Y37323181D01*
X60293286Y37323181D02*
X60674238Y37323181D01*
X60674238Y37323181D02*
X60769476Y37275562D01*
X60769476Y37275562D02*
X60817095Y37227943D01*
X60817095Y37227943D02*
X60864714Y37132705D01*
X60864714Y37132705D02*
X60864714Y36989848D01*
X60864714Y36989848D02*
X60817095Y36894610D01*
X60817095Y36894610D02*
X60769476Y36846991D01*
X60769476Y36846991D02*
X60674238Y36799372D01*
X60674238Y36799372D02*
X60293286Y36799372D01*
X61340905Y36323181D02*
X61531381Y36323181D01*
X61531381Y36323181D02*
X61626619Y36370800D01*
X61626619Y36370800D02*
X61674238Y36418420D01*
X61674238Y36418420D02*
X61769476Y36561277D01*
X61769476Y36561277D02*
X61817095Y36751753D01*
X61817095Y36751753D02*
X61817095Y37132705D01*
X61817095Y37132705D02*
X61769476Y37227943D01*
X61769476Y37227943D02*
X61721857Y37275562D01*
X61721857Y37275562D02*
X61626619Y37323181D01*
X61626619Y37323181D02*
X61436143Y37323181D01*
X61436143Y37323181D02*
X61340905Y37275562D01*
X61340905Y37275562D02*
X61293286Y37227943D01*
X61293286Y37227943D02*
X61245667Y37132705D01*
X61245667Y37132705D02*
X61245667Y36894610D01*
X61245667Y36894610D02*
X61293286Y36799372D01*
X61293286Y36799372D02*
X61340905Y36751753D01*
X61340905Y36751753D02*
X61436143Y36704134D01*
X61436143Y36704134D02*
X61626619Y36704134D01*
X61626619Y36704134D02*
X61721857Y36751753D01*
X61721857Y36751753D02*
X61769476Y36799372D01*
X61769476Y36799372D02*
X61817095Y36894610D01*
X62102810Y37323181D02*
X62436143Y36323181D01*
X62436143Y36323181D02*
X62769476Y37323181D01*
X57793286Y43979181D02*
X58364714Y43979181D01*
X58079000Y42979181D02*
X58079000Y43979181D01*
X58698048Y42979181D02*
X58698048Y43979181D01*
X58698048Y43979181D02*
X59079000Y43979181D01*
X59079000Y43979181D02*
X59174238Y43931562D01*
X59174238Y43931562D02*
X59221857Y43883943D01*
X59221857Y43883943D02*
X59269476Y43788705D01*
X59269476Y43788705D02*
X59269476Y43645848D01*
X59269476Y43645848D02*
X59221857Y43550610D01*
X59221857Y43550610D02*
X59174238Y43502991D01*
X59174238Y43502991D02*
X59079000Y43455372D01*
X59079000Y43455372D02*
X58698048Y43455372D01*
X59698048Y43360134D02*
X60459953Y43360134D01*
X60079000Y42979181D02*
X60079000Y43741086D01*
X60983762Y42979181D02*
X61174238Y42979181D01*
X61174238Y42979181D02*
X61269476Y43026800D01*
X61269476Y43026800D02*
X61317095Y43074420D01*
X61317095Y43074420D02*
X61412333Y43217277D01*
X61412333Y43217277D02*
X61459952Y43407753D01*
X61459952Y43407753D02*
X61459952Y43788705D01*
X61459952Y43788705D02*
X61412333Y43883943D01*
X61412333Y43883943D02*
X61364714Y43931562D01*
X61364714Y43931562D02*
X61269476Y43979181D01*
X61269476Y43979181D02*
X61079000Y43979181D01*
X61079000Y43979181D02*
X60983762Y43931562D01*
X60983762Y43931562D02*
X60936143Y43883943D01*
X60936143Y43883943D02*
X60888524Y43788705D01*
X60888524Y43788705D02*
X60888524Y43550610D01*
X60888524Y43550610D02*
X60936143Y43455372D01*
X60936143Y43455372D02*
X60983762Y43407753D01*
X60983762Y43407753D02*
X61079000Y43360134D01*
X61079000Y43360134D02*
X61269476Y43360134D01*
X61269476Y43360134D02*
X61364714Y43407753D01*
X61364714Y43407753D02*
X61412333Y43455372D01*
X61412333Y43455372D02*
X61459952Y43550610D01*
X61745667Y43979181D02*
X62079000Y42979181D01*
X62079000Y42979181D02*
X62412333Y43979181D01*
X63269476Y42979181D02*
X62698048Y42979181D01*
X62983762Y42979181D02*
X62983762Y43979181D01*
X62983762Y43979181D02*
X62888524Y43836324D01*
X62888524Y43836324D02*
X62793286Y43741086D01*
X62793286Y43741086D02*
X62698048Y43693467D01*
X57714236Y28210991D02*
X57857093Y28163372D01*
X57857093Y28163372D02*
X57904712Y28115753D01*
X57904712Y28115753D02*
X57952331Y28020515D01*
X57952331Y28020515D02*
X57952331Y27877658D01*
X57952331Y27877658D02*
X57904712Y27782420D01*
X57904712Y27782420D02*
X57857093Y27734800D01*
X57857093Y27734800D02*
X57761855Y27687181D01*
X57761855Y27687181D02*
X57380903Y27687181D01*
X57380903Y27687181D02*
X57380903Y28687181D01*
X57380903Y28687181D02*
X57714236Y28687181D01*
X57714236Y28687181D02*
X57809474Y28639562D01*
X57809474Y28639562D02*
X57857093Y28591943D01*
X57857093Y28591943D02*
X57904712Y28496705D01*
X57904712Y28496705D02*
X57904712Y28401467D01*
X57904712Y28401467D02*
X57857093Y28306229D01*
X57857093Y28306229D02*
X57809474Y28258610D01*
X57809474Y28258610D02*
X57714236Y28210991D01*
X57714236Y28210991D02*
X57380903Y28210991D01*
X58809474Y28353848D02*
X58809474Y27687181D01*
X58380903Y28353848D02*
X58380903Y27830039D01*
X58380903Y27830039D02*
X58428522Y27734800D01*
X58428522Y27734800D02*
X58523760Y27687181D01*
X58523760Y27687181D02*
X58666617Y27687181D01*
X58666617Y27687181D02*
X58761855Y27734800D01*
X58761855Y27734800D02*
X58809474Y27782420D01*
X59142808Y28353848D02*
X59523760Y28353848D01*
X59285665Y27687181D02*
X59285665Y28544324D01*
X59285665Y28544324D02*
X59333284Y28639562D01*
X59333284Y28639562D02*
X59428522Y28687181D01*
X59428522Y28687181D02*
X59523760Y28687181D01*
X59714237Y28353848D02*
X60095189Y28353848D01*
X59857094Y27687181D02*
X59857094Y28544324D01*
X59857094Y28544324D02*
X59904713Y28639562D01*
X59904713Y28639562D02*
X59999951Y28687181D01*
X59999951Y28687181D02*
X60095189Y28687181D01*
X60809475Y27734800D02*
X60714237Y27687181D01*
X60714237Y27687181D02*
X60523761Y27687181D01*
X60523761Y27687181D02*
X60428523Y27734800D01*
X60428523Y27734800D02*
X60380904Y27830039D01*
X60380904Y27830039D02*
X60380904Y28210991D01*
X60380904Y28210991D02*
X60428523Y28306229D01*
X60428523Y28306229D02*
X60523761Y28353848D01*
X60523761Y28353848D02*
X60714237Y28353848D01*
X60714237Y28353848D02*
X60809475Y28306229D01*
X60809475Y28306229D02*
X60857094Y28210991D01*
X60857094Y28210991D02*
X60857094Y28115753D01*
X60857094Y28115753D02*
X60380904Y28020515D01*
X61285666Y27687181D02*
X61285666Y28353848D01*
X61285666Y28163372D02*
X61333285Y28258610D01*
X61333285Y28258610D02*
X61380904Y28306229D01*
X61380904Y28306229D02*
X61476142Y28353848D01*
X61476142Y28353848D02*
X61571380Y28353848D01*
X62285666Y27734800D02*
X62190428Y27687181D01*
X62190428Y27687181D02*
X61999952Y27687181D01*
X61999952Y27687181D02*
X61904714Y27734800D01*
X61904714Y27734800D02*
X61857095Y27830039D01*
X61857095Y27830039D02*
X61857095Y28210991D01*
X61857095Y28210991D02*
X61904714Y28306229D01*
X61904714Y28306229D02*
X61999952Y28353848D01*
X61999952Y28353848D02*
X62190428Y28353848D01*
X62190428Y28353848D02*
X62285666Y28306229D01*
X62285666Y28306229D02*
X62333285Y28210991D01*
X62333285Y28210991D02*
X62333285Y28115753D01*
X62333285Y28115753D02*
X61857095Y28020515D01*
X63190428Y27687181D02*
X63190428Y28687181D01*
X63190428Y27734800D02*
X63095190Y27687181D01*
X63095190Y27687181D02*
X62904714Y27687181D01*
X62904714Y27687181D02*
X62809476Y27734800D01*
X62809476Y27734800D02*
X62761857Y27782420D01*
X62761857Y27782420D02*
X62714238Y27877658D01*
X62714238Y27877658D02*
X62714238Y28163372D01*
X62714238Y28163372D02*
X62761857Y28258610D01*
X62761857Y28258610D02*
X62809476Y28306229D01*
X62809476Y28306229D02*
X62904714Y28353848D01*
X62904714Y28353848D02*
X63095190Y28353848D01*
X63095190Y28353848D02*
X63190428Y28306229D01*
X63428524Y27591943D02*
X64190428Y27591943D01*
X64619000Y28687181D02*
X64809476Y28687181D01*
X64809476Y28687181D02*
X64904714Y28639562D01*
X64904714Y28639562D02*
X64999952Y28544324D01*
X64999952Y28544324D02*
X65047571Y28353848D01*
X65047571Y28353848D02*
X65047571Y28020515D01*
X65047571Y28020515D02*
X64999952Y27830039D01*
X64999952Y27830039D02*
X64904714Y27734800D01*
X64904714Y27734800D02*
X64809476Y27687181D01*
X64809476Y27687181D02*
X64619000Y27687181D01*
X64619000Y27687181D02*
X64523762Y27734800D01*
X64523762Y27734800D02*
X64428524Y27830039D01*
X64428524Y27830039D02*
X64380905Y28020515D01*
X64380905Y28020515D02*
X64380905Y28353848D01*
X64380905Y28353848D02*
X64428524Y28544324D01*
X64428524Y28544324D02*
X64523762Y28639562D01*
X64523762Y28639562D02*
X64619000Y28687181D01*
X65904714Y28353848D02*
X65904714Y27687181D01*
X65476143Y28353848D02*
X65476143Y27830039D01*
X65476143Y27830039D02*
X65523762Y27734800D01*
X65523762Y27734800D02*
X65619000Y27687181D01*
X65619000Y27687181D02*
X65761857Y27687181D01*
X65761857Y27687181D02*
X65857095Y27734800D01*
X65857095Y27734800D02*
X65904714Y27782420D01*
X66238048Y28353848D02*
X66619000Y28353848D01*
X66380905Y28687181D02*
X66380905Y27830039D01*
X66380905Y27830039D02*
X66428524Y27734800D01*
X66428524Y27734800D02*
X66523762Y27687181D01*
X66523762Y27687181D02*
X66619000Y27687181D01*
X66952334Y28353848D02*
X66952334Y27353848D01*
X66952334Y28306229D02*
X67047572Y28353848D01*
X67047572Y28353848D02*
X67238048Y28353848D01*
X67238048Y28353848D02*
X67333286Y28306229D01*
X67333286Y28306229D02*
X67380905Y28258610D01*
X67380905Y28258610D02*
X67428524Y28163372D01*
X67428524Y28163372D02*
X67428524Y27877658D01*
X67428524Y27877658D02*
X67380905Y27782420D01*
X67380905Y27782420D02*
X67333286Y27734800D01*
X67333286Y27734800D02*
X67238048Y27687181D01*
X67238048Y27687181D02*
X67047572Y27687181D01*
X67047572Y27687181D02*
X66952334Y27734800D01*
X68285667Y28353848D02*
X68285667Y27687181D01*
X67857096Y28353848D02*
X67857096Y27830039D01*
X67857096Y27830039D02*
X67904715Y27734800D01*
X67904715Y27734800D02*
X67999953Y27687181D01*
X67999953Y27687181D02*
X68142810Y27687181D01*
X68142810Y27687181D02*
X68238048Y27734800D01*
X68238048Y27734800D02*
X68285667Y27782420D01*
X68619001Y28353848D02*
X68999953Y28353848D01*
X68761858Y28687181D02*
X68761858Y27830039D01*
X68761858Y27830039D02*
X68809477Y27734800D01*
X68809477Y27734800D02*
X68904715Y27687181D01*
X68904715Y27687181D02*
X68999953Y27687181D01*
X52753095Y31787181D02*
X53324523Y31787181D01*
X53038809Y30787181D02*
X53038809Y31787181D01*
X53657857Y30787181D02*
X53657857Y31787181D01*
X53657857Y31787181D02*
X54038809Y31787181D01*
X54038809Y31787181D02*
X54134047Y31739562D01*
X54134047Y31739562D02*
X54181666Y31691943D01*
X54181666Y31691943D02*
X54229285Y31596705D01*
X54229285Y31596705D02*
X54229285Y31453848D01*
X54229285Y31453848D02*
X54181666Y31358610D01*
X54181666Y31358610D02*
X54134047Y31310991D01*
X54134047Y31310991D02*
X54038809Y31263372D01*
X54038809Y31263372D02*
X53657857Y31263372D01*
X54991190Y31310991D02*
X55134047Y31263372D01*
X55134047Y31263372D02*
X55181666Y31215753D01*
X55181666Y31215753D02*
X55229285Y31120515D01*
X55229285Y31120515D02*
X55229285Y30977658D01*
X55229285Y30977658D02*
X55181666Y30882420D01*
X55181666Y30882420D02*
X55134047Y30834800D01*
X55134047Y30834800D02*
X55038809Y30787181D01*
X55038809Y30787181D02*
X54657857Y30787181D01*
X54657857Y30787181D02*
X54657857Y31787181D01*
X54657857Y31787181D02*
X54991190Y31787181D01*
X54991190Y31787181D02*
X55086428Y31739562D01*
X55086428Y31739562D02*
X55134047Y31691943D01*
X55134047Y31691943D02*
X55181666Y31596705D01*
X55181666Y31596705D02*
X55181666Y31501467D01*
X55181666Y31501467D02*
X55134047Y31406229D01*
X55134047Y31406229D02*
X55086428Y31358610D01*
X55086428Y31358610D02*
X54991190Y31310991D01*
X54991190Y31310991D02*
X54657857Y31310991D01*
X56086428Y31453848D02*
X56086428Y30787181D01*
X55657857Y31453848D02*
X55657857Y30930039D01*
X55657857Y30930039D02*
X55705476Y30834800D01*
X55705476Y30834800D02*
X55800714Y30787181D01*
X55800714Y30787181D02*
X55943571Y30787181D01*
X55943571Y30787181D02*
X56038809Y30834800D01*
X56038809Y30834800D02*
X56086428Y30882420D01*
X56419762Y31453848D02*
X56800714Y31453848D01*
X56562619Y30787181D02*
X56562619Y31644324D01*
X56562619Y31644324D02*
X56610238Y31739562D01*
X56610238Y31739562D02*
X56705476Y31787181D01*
X56705476Y31787181D02*
X56800714Y31787181D01*
X57324524Y31787181D02*
X57515000Y31787181D01*
X57515000Y31787181D02*
X57610238Y31739562D01*
X57610238Y31739562D02*
X57705476Y31644324D01*
X57705476Y31644324D02*
X57753095Y31453848D01*
X57753095Y31453848D02*
X57753095Y31120515D01*
X57753095Y31120515D02*
X57705476Y30930039D01*
X57705476Y30930039D02*
X57610238Y30834800D01*
X57610238Y30834800D02*
X57515000Y30787181D01*
X57515000Y30787181D02*
X57324524Y30787181D01*
X57324524Y30787181D02*
X57229286Y30834800D01*
X57229286Y30834800D02*
X57134048Y30930039D01*
X57134048Y30930039D02*
X57086429Y31120515D01*
X57086429Y31120515D02*
X57086429Y31453848D01*
X57086429Y31453848D02*
X57134048Y31644324D01*
X57134048Y31644324D02*
X57229286Y31739562D01*
X57229286Y31739562D02*
X57324524Y31787181D01*
X58610238Y31453848D02*
X58610238Y30787181D01*
X58181667Y31453848D02*
X58181667Y30930039D01*
X58181667Y30930039D02*
X58229286Y30834800D01*
X58229286Y30834800D02*
X58324524Y30787181D01*
X58324524Y30787181D02*
X58467381Y30787181D01*
X58467381Y30787181D02*
X58562619Y30834800D01*
X58562619Y30834800D02*
X58610238Y30882420D01*
X58943572Y31453848D02*
X59324524Y31453848D01*
X59086429Y31787181D02*
X59086429Y30930039D01*
X59086429Y30930039D02*
X59134048Y30834800D01*
X59134048Y30834800D02*
X59229286Y30787181D01*
X59229286Y30787181D02*
X59324524Y30787181D01*
X60181667Y30787181D02*
X59610239Y30787181D01*
X59895953Y30787181D02*
X59895953Y31787181D01*
X59895953Y31787181D02*
X59800715Y31644324D01*
X59800715Y31644324D02*
X59705477Y31549086D01*
X59705477Y31549086D02*
X59610239Y31501467D01*
X87890009Y17015170D02*
X87937628Y17158027D01*
X87937628Y17158027D02*
X87985247Y17205646D01*
X87985247Y17205646D02*
X88080485Y17253265D01*
X88080485Y17253265D02*
X88223342Y17253265D01*
X88223342Y17253265D02*
X88318580Y17205646D01*
X88318580Y17205646D02*
X88366200Y17158027D01*
X88366200Y17158027D02*
X88413819Y17062789D01*
X88413819Y17062789D02*
X88413819Y16681837D01*
X88413819Y16681837D02*
X87413819Y16681837D01*
X87413819Y16681837D02*
X87413819Y17015170D01*
X87413819Y17015170D02*
X87461438Y17110408D01*
X87461438Y17110408D02*
X87509057Y17158027D01*
X87509057Y17158027D02*
X87604295Y17205646D01*
X87604295Y17205646D02*
X87699533Y17205646D01*
X87699533Y17205646D02*
X87794771Y17158027D01*
X87794771Y17158027D02*
X87842390Y17110408D01*
X87842390Y17110408D02*
X87890009Y17015170D01*
X87890009Y17015170D02*
X87890009Y16681837D01*
X87747152Y18110408D02*
X88413819Y18110408D01*
X87747152Y17681837D02*
X88270961Y17681837D01*
X88270961Y17681837D02*
X88366200Y17729456D01*
X88366200Y17729456D02*
X88413819Y17824694D01*
X88413819Y17824694D02*
X88413819Y17967551D01*
X88413819Y17967551D02*
X88366200Y18062789D01*
X88366200Y18062789D02*
X88318580Y18110408D01*
X87747152Y18443742D02*
X87747152Y18824694D01*
X88413819Y18586599D02*
X87556676Y18586599D01*
X87556676Y18586599D02*
X87461438Y18634218D01*
X87461438Y18634218D02*
X87413819Y18729456D01*
X87413819Y18729456D02*
X87413819Y18824694D01*
X87747152Y19015171D02*
X87747152Y19396123D01*
X88413819Y19158028D02*
X87556676Y19158028D01*
X87556676Y19158028D02*
X87461438Y19205647D01*
X87461438Y19205647D02*
X87413819Y19300885D01*
X87413819Y19300885D02*
X87413819Y19396123D01*
X88366200Y20110409D02*
X88413819Y20015171D01*
X88413819Y20015171D02*
X88413819Y19824695D01*
X88413819Y19824695D02*
X88366200Y19729457D01*
X88366200Y19729457D02*
X88270961Y19681838D01*
X88270961Y19681838D02*
X87890009Y19681838D01*
X87890009Y19681838D02*
X87794771Y19729457D01*
X87794771Y19729457D02*
X87747152Y19824695D01*
X87747152Y19824695D02*
X87747152Y20015171D01*
X87747152Y20015171D02*
X87794771Y20110409D01*
X87794771Y20110409D02*
X87890009Y20158028D01*
X87890009Y20158028D02*
X87985247Y20158028D01*
X87985247Y20158028D02*
X88080485Y19681838D01*
X88413819Y20586600D02*
X87747152Y20586600D01*
X87937628Y20586600D02*
X87842390Y20634219D01*
X87842390Y20634219D02*
X87794771Y20681838D01*
X87794771Y20681838D02*
X87747152Y20777076D01*
X87747152Y20777076D02*
X87747152Y20872314D01*
X88366200Y21586600D02*
X88413819Y21491362D01*
X88413819Y21491362D02*
X88413819Y21300886D01*
X88413819Y21300886D02*
X88366200Y21205648D01*
X88366200Y21205648D02*
X88270961Y21158029D01*
X88270961Y21158029D02*
X87890009Y21158029D01*
X87890009Y21158029D02*
X87794771Y21205648D01*
X87794771Y21205648D02*
X87747152Y21300886D01*
X87747152Y21300886D02*
X87747152Y21491362D01*
X87747152Y21491362D02*
X87794771Y21586600D01*
X87794771Y21586600D02*
X87890009Y21634219D01*
X87890009Y21634219D02*
X87985247Y21634219D01*
X87985247Y21634219D02*
X88080485Y21158029D01*
X87890009Y22396124D02*
X87937628Y22538981D01*
X87937628Y22538981D02*
X87985247Y22586600D01*
X87985247Y22586600D02*
X88080485Y22634219D01*
X88080485Y22634219D02*
X88223342Y22634219D01*
X88223342Y22634219D02*
X88318580Y22586600D01*
X88318580Y22586600D02*
X88366200Y22538981D01*
X88366200Y22538981D02*
X88413819Y22443743D01*
X88413819Y22443743D02*
X88413819Y22062791D01*
X88413819Y22062791D02*
X87413819Y22062791D01*
X87413819Y22062791D02*
X87413819Y22396124D01*
X87413819Y22396124D02*
X87461438Y22491362D01*
X87461438Y22491362D02*
X87509057Y22538981D01*
X87509057Y22538981D02*
X87604295Y22586600D01*
X87604295Y22586600D02*
X87699533Y22586600D01*
X87699533Y22586600D02*
X87794771Y22538981D01*
X87794771Y22538981D02*
X87842390Y22491362D01*
X87842390Y22491362D02*
X87890009Y22396124D01*
X87890009Y22396124D02*
X87890009Y22062791D01*
X88413819Y23062791D02*
X87747152Y23062791D01*
X87413819Y23062791D02*
X87461438Y23015172D01*
X87461438Y23015172D02*
X87509057Y23062791D01*
X87509057Y23062791D02*
X87461438Y23110410D01*
X87461438Y23110410D02*
X87413819Y23062791D01*
X87413819Y23062791D02*
X87509057Y23062791D01*
X88413819Y23967552D02*
X87890009Y23967552D01*
X87890009Y23967552D02*
X87794771Y23919933D01*
X87794771Y23919933D02*
X87747152Y23824695D01*
X87747152Y23824695D02*
X87747152Y23634219D01*
X87747152Y23634219D02*
X87794771Y23538981D01*
X88366200Y23967552D02*
X88413819Y23872314D01*
X88413819Y23872314D02*
X88413819Y23634219D01*
X88413819Y23634219D02*
X88366200Y23538981D01*
X88366200Y23538981D02*
X88270961Y23491362D01*
X88270961Y23491362D02*
X88175723Y23491362D01*
X88175723Y23491362D02*
X88080485Y23538981D01*
X88080485Y23538981D02*
X88032866Y23634219D01*
X88032866Y23634219D02*
X88032866Y23872314D01*
X88032866Y23872314D02*
X87985247Y23967552D01*
X88366200Y24396124D02*
X88413819Y24491362D01*
X88413819Y24491362D02*
X88413819Y24681838D01*
X88413819Y24681838D02*
X88366200Y24777076D01*
X88366200Y24777076D02*
X88270961Y24824695D01*
X88270961Y24824695D02*
X88223342Y24824695D01*
X88223342Y24824695D02*
X88128104Y24777076D01*
X88128104Y24777076D02*
X88080485Y24681838D01*
X88080485Y24681838D02*
X88080485Y24538981D01*
X88080485Y24538981D02*
X88032866Y24443743D01*
X88032866Y24443743D02*
X87937628Y24396124D01*
X87937628Y24396124D02*
X87890009Y24396124D01*
X87890009Y24396124D02*
X87794771Y24443743D01*
X87794771Y24443743D02*
X87747152Y24538981D01*
X87747152Y24538981D02*
X87747152Y24681838D01*
X87747152Y24681838D02*
X87794771Y24777076D01*
X88413819Y25681838D02*
X87413819Y25681838D01*
X88366200Y25681838D02*
X88413819Y25586600D01*
X88413819Y25586600D02*
X88413819Y25396124D01*
X88413819Y25396124D02*
X88366200Y25300886D01*
X88366200Y25300886D02*
X88318580Y25253267D01*
X88318580Y25253267D02*
X88223342Y25205648D01*
X88223342Y25205648D02*
X87937628Y25205648D01*
X87937628Y25205648D02*
X87842390Y25253267D01*
X87842390Y25253267D02*
X87794771Y25300886D01*
X87794771Y25300886D02*
X87747152Y25396124D01*
X87747152Y25396124D02*
X87747152Y25586600D01*
X87747152Y25586600D02*
X87794771Y25681838D01*
X88413819Y26586600D02*
X87413819Y26586600D01*
X88366200Y26586600D02*
X88413819Y26491362D01*
X88413819Y26491362D02*
X88413819Y26300886D01*
X88413819Y26300886D02*
X88366200Y26205648D01*
X88366200Y26205648D02*
X88318580Y26158029D01*
X88318580Y26158029D02*
X88223342Y26110410D01*
X88223342Y26110410D02*
X87937628Y26110410D01*
X87937628Y26110410D02*
X87842390Y26158029D01*
X87842390Y26158029D02*
X87794771Y26205648D01*
X87794771Y26205648D02*
X87747152Y26300886D01*
X87747152Y26300886D02*
X87747152Y26491362D01*
X87747152Y26491362D02*
X87794771Y26586600D01*
X87413819Y27253267D02*
X87413819Y27443743D01*
X87413819Y27443743D02*
X87461438Y27538981D01*
X87461438Y27538981D02*
X87556676Y27634219D01*
X87556676Y27634219D02*
X87747152Y27681838D01*
X87747152Y27681838D02*
X88080485Y27681838D01*
X88080485Y27681838D02*
X88270961Y27634219D01*
X88270961Y27634219D02*
X88366200Y27538981D01*
X88366200Y27538981D02*
X88413819Y27443743D01*
X88413819Y27443743D02*
X88413819Y27253267D01*
X88413819Y27253267D02*
X88366200Y27158029D01*
X88366200Y27158029D02*
X88270961Y27062791D01*
X88270961Y27062791D02*
X88080485Y27015172D01*
X88080485Y27015172D02*
X87747152Y27015172D01*
X87747152Y27015172D02*
X87556676Y27062791D01*
X87556676Y27062791D02*
X87461438Y27158029D01*
X87461438Y27158029D02*
X87413819Y27253267D01*
X87747152Y28538981D02*
X88413819Y28538981D01*
X87747152Y28110410D02*
X88270961Y28110410D01*
X88270961Y28110410D02*
X88366200Y28158029D01*
X88366200Y28158029D02*
X88413819Y28253267D01*
X88413819Y28253267D02*
X88413819Y28396124D01*
X88413819Y28396124D02*
X88366200Y28491362D01*
X88366200Y28491362D02*
X88318580Y28538981D01*
X87747152Y28872315D02*
X87747152Y29253267D01*
X87413819Y29015172D02*
X88270961Y29015172D01*
X88270961Y29015172D02*
X88366200Y29062791D01*
X88366200Y29062791D02*
X88413819Y29158029D01*
X88413819Y29158029D02*
X88413819Y29253267D01*
X87747152Y29586601D02*
X88747152Y29586601D01*
X87794771Y29586601D02*
X87747152Y29681839D01*
X87747152Y29681839D02*
X87747152Y29872315D01*
X87747152Y29872315D02*
X87794771Y29967553D01*
X87794771Y29967553D02*
X87842390Y30015172D01*
X87842390Y30015172D02*
X87937628Y30062791D01*
X87937628Y30062791D02*
X88223342Y30062791D01*
X88223342Y30062791D02*
X88318580Y30015172D01*
X88318580Y30015172D02*
X88366200Y29967553D01*
X88366200Y29967553D02*
X88413819Y29872315D01*
X88413819Y29872315D02*
X88413819Y29681839D01*
X88413819Y29681839D02*
X88366200Y29586601D01*
X87747152Y30919934D02*
X88413819Y30919934D01*
X87747152Y30491363D02*
X88270961Y30491363D01*
X88270961Y30491363D02*
X88366200Y30538982D01*
X88366200Y30538982D02*
X88413819Y30634220D01*
X88413819Y30634220D02*
X88413819Y30777077D01*
X88413819Y30777077D02*
X88366200Y30872315D01*
X88366200Y30872315D02*
X88318580Y30919934D01*
X87747152Y31253268D02*
X87747152Y31634220D01*
X87413819Y31396125D02*
X88270961Y31396125D01*
X88270961Y31396125D02*
X88366200Y31443744D01*
X88366200Y31443744D02*
X88413819Y31538982D01*
X88413819Y31538982D02*
X88413819Y31634220D01*
X80843952Y35215181D02*
X81415380Y35215181D01*
X81129666Y34215181D02*
X81129666Y35215181D01*
X81748714Y34215181D02*
X81748714Y35215181D01*
X81748714Y35215181D02*
X82129666Y35215181D01*
X82129666Y35215181D02*
X82224904Y35167562D01*
X82224904Y35167562D02*
X82272523Y35119943D01*
X82272523Y35119943D02*
X82320142Y35024705D01*
X82320142Y35024705D02*
X82320142Y34881848D01*
X82320142Y34881848D02*
X82272523Y34786610D01*
X82272523Y34786610D02*
X82224904Y34738991D01*
X82224904Y34738991D02*
X82129666Y34691372D01*
X82129666Y34691372D02*
X81748714Y34691372D01*
X83082047Y34738991D02*
X83224904Y34691372D01*
X83224904Y34691372D02*
X83272523Y34643753D01*
X83272523Y34643753D02*
X83320142Y34548515D01*
X83320142Y34548515D02*
X83320142Y34405658D01*
X83320142Y34405658D02*
X83272523Y34310420D01*
X83272523Y34310420D02*
X83224904Y34262800D01*
X83224904Y34262800D02*
X83129666Y34215181D01*
X83129666Y34215181D02*
X82748714Y34215181D01*
X82748714Y34215181D02*
X82748714Y35215181D01*
X82748714Y35215181D02*
X83082047Y35215181D01*
X83082047Y35215181D02*
X83177285Y35167562D01*
X83177285Y35167562D02*
X83224904Y35119943D01*
X83224904Y35119943D02*
X83272523Y35024705D01*
X83272523Y35024705D02*
X83272523Y34929467D01*
X83272523Y34929467D02*
X83224904Y34834229D01*
X83224904Y34834229D02*
X83177285Y34786610D01*
X83177285Y34786610D02*
X83082047Y34738991D01*
X83082047Y34738991D02*
X82748714Y34738991D01*
X83748714Y34215181D02*
X83748714Y34881848D01*
X83748714Y35215181D02*
X83701095Y35167562D01*
X83701095Y35167562D02*
X83748714Y35119943D01*
X83748714Y35119943D02*
X83796333Y35167562D01*
X83796333Y35167562D02*
X83748714Y35215181D01*
X83748714Y35215181D02*
X83748714Y35119943D01*
X84653475Y34215181D02*
X84653475Y34738991D01*
X84653475Y34738991D02*
X84605856Y34834229D01*
X84605856Y34834229D02*
X84510618Y34881848D01*
X84510618Y34881848D02*
X84320142Y34881848D01*
X84320142Y34881848D02*
X84224904Y34834229D01*
X84653475Y34262800D02*
X84558237Y34215181D01*
X84558237Y34215181D02*
X84320142Y34215181D01*
X84320142Y34215181D02*
X84224904Y34262800D01*
X84224904Y34262800D02*
X84177285Y34358039D01*
X84177285Y34358039D02*
X84177285Y34453277D01*
X84177285Y34453277D02*
X84224904Y34548515D01*
X84224904Y34548515D02*
X84320142Y34596134D01*
X84320142Y34596134D02*
X84558237Y34596134D01*
X84558237Y34596134D02*
X84653475Y34643753D01*
X85082047Y34262800D02*
X85177285Y34215181D01*
X85177285Y34215181D02*
X85367761Y34215181D01*
X85367761Y34215181D02*
X85462999Y34262800D01*
X85462999Y34262800D02*
X85510618Y34358039D01*
X85510618Y34358039D02*
X85510618Y34405658D01*
X85510618Y34405658D02*
X85462999Y34500896D01*
X85462999Y34500896D02*
X85367761Y34548515D01*
X85367761Y34548515D02*
X85224904Y34548515D01*
X85224904Y34548515D02*
X85129666Y34596134D01*
X85129666Y34596134D02*
X85082047Y34691372D01*
X85082047Y34691372D02*
X85082047Y34738991D01*
X85082047Y34738991D02*
X85129666Y34834229D01*
X85129666Y34834229D02*
X85224904Y34881848D01*
X85224904Y34881848D02*
X85367761Y34881848D01*
X85367761Y34881848D02*
X85462999Y34834229D01*
X86129666Y35215181D02*
X86320142Y35215181D01*
X86320142Y35215181D02*
X86415380Y35167562D01*
X86415380Y35167562D02*
X86510618Y35072324D01*
X86510618Y35072324D02*
X86558237Y34881848D01*
X86558237Y34881848D02*
X86558237Y34548515D01*
X86558237Y34548515D02*
X86510618Y34358039D01*
X86510618Y34358039D02*
X86415380Y34262800D01*
X86415380Y34262800D02*
X86320142Y34215181D01*
X86320142Y34215181D02*
X86129666Y34215181D01*
X86129666Y34215181D02*
X86034428Y34262800D01*
X86034428Y34262800D02*
X85939190Y34358039D01*
X85939190Y34358039D02*
X85891571Y34548515D01*
X85891571Y34548515D02*
X85891571Y34881848D01*
X85891571Y34881848D02*
X85939190Y35072324D01*
X85939190Y35072324D02*
X86034428Y35167562D01*
X86034428Y35167562D02*
X86129666Y35215181D01*
X87415380Y34881848D02*
X87415380Y34215181D01*
X86986809Y34881848D02*
X86986809Y34358039D01*
X86986809Y34358039D02*
X87034428Y34262800D01*
X87034428Y34262800D02*
X87129666Y34215181D01*
X87129666Y34215181D02*
X87272523Y34215181D01*
X87272523Y34215181D02*
X87367761Y34262800D01*
X87367761Y34262800D02*
X87415380Y34310420D01*
X87748714Y34881848D02*
X88129666Y34881848D01*
X87891571Y35215181D02*
X87891571Y34358039D01*
X87891571Y34358039D02*
X87939190Y34262800D01*
X87939190Y34262800D02*
X88034428Y34215181D01*
X88034428Y34215181D02*
X88129666Y34215181D01*
X88986809Y34215181D02*
X88415381Y34215181D01*
X88701095Y34215181D02*
X88701095Y35215181D01*
X88701095Y35215181D02*
X88605857Y35072324D01*
X88605857Y35072324D02*
X88510619Y34977086D01*
X88510619Y34977086D02*
X88415381Y34929467D01*
X47518047Y21528896D02*
X47994237Y21528896D01*
X47422809Y21243181D02*
X47756142Y22243181D01*
X47756142Y22243181D02*
X48089475Y21243181D01*
X48422809Y21243181D02*
X48422809Y21909848D01*
X48422809Y21814610D02*
X48470428Y21862229D01*
X48470428Y21862229D02*
X48565666Y21909848D01*
X48565666Y21909848D02*
X48708523Y21909848D01*
X48708523Y21909848D02*
X48803761Y21862229D01*
X48803761Y21862229D02*
X48851380Y21766991D01*
X48851380Y21766991D02*
X48851380Y21243181D01*
X48851380Y21766991D02*
X48898999Y21862229D01*
X48898999Y21862229D02*
X48994237Y21909848D01*
X48994237Y21909848D02*
X49137094Y21909848D01*
X49137094Y21909848D02*
X49232333Y21862229D01*
X49232333Y21862229D02*
X49279952Y21766991D01*
X49279952Y21766991D02*
X49279952Y21243181D01*
X49756142Y21909848D02*
X49756142Y20909848D01*
X49756142Y21862229D02*
X49851380Y21909848D01*
X49851380Y21909848D02*
X50041856Y21909848D01*
X50041856Y21909848D02*
X50137094Y21862229D01*
X50137094Y21862229D02*
X50184713Y21814610D01*
X50184713Y21814610D02*
X50232332Y21719372D01*
X50232332Y21719372D02*
X50232332Y21433658D01*
X50232332Y21433658D02*
X50184713Y21338420D01*
X50184713Y21338420D02*
X50137094Y21290800D01*
X50137094Y21290800D02*
X50041856Y21243181D01*
X50041856Y21243181D02*
X49851380Y21243181D01*
X49851380Y21243181D02*
X49756142Y21290800D01*
X50803761Y21243181D02*
X50708523Y21290800D01*
X50708523Y21290800D02*
X50660904Y21386039D01*
X50660904Y21386039D02*
X50660904Y22243181D01*
X51184714Y21243181D02*
X51184714Y21909848D01*
X51184714Y22243181D02*
X51137095Y22195562D01*
X51137095Y22195562D02*
X51184714Y22147943D01*
X51184714Y22147943D02*
X51232333Y22195562D01*
X51232333Y22195562D02*
X51184714Y22243181D01*
X51184714Y22243181D02*
X51184714Y22147943D01*
X51518047Y21909848D02*
X51898999Y21909848D01*
X51660904Y21243181D02*
X51660904Y22100324D01*
X51660904Y22100324D02*
X51708523Y22195562D01*
X51708523Y22195562D02*
X51803761Y22243181D01*
X51803761Y22243181D02*
X51898999Y22243181D01*
X52232333Y21243181D02*
X52232333Y21909848D01*
X52232333Y22243181D02*
X52184714Y22195562D01*
X52184714Y22195562D02*
X52232333Y22147943D01*
X52232333Y22147943D02*
X52279952Y22195562D01*
X52279952Y22195562D02*
X52232333Y22243181D01*
X52232333Y22243181D02*
X52232333Y22147943D01*
X53089475Y21290800D02*
X52994237Y21243181D01*
X52994237Y21243181D02*
X52803761Y21243181D01*
X52803761Y21243181D02*
X52708523Y21290800D01*
X52708523Y21290800D02*
X52660904Y21386039D01*
X52660904Y21386039D02*
X52660904Y21766991D01*
X52660904Y21766991D02*
X52708523Y21862229D01*
X52708523Y21862229D02*
X52803761Y21909848D01*
X52803761Y21909848D02*
X52994237Y21909848D01*
X52994237Y21909848D02*
X53089475Y21862229D01*
X53089475Y21862229D02*
X53137094Y21766991D01*
X53137094Y21766991D02*
X53137094Y21671753D01*
X53137094Y21671753D02*
X52660904Y21576515D01*
X53565666Y21243181D02*
X53565666Y21909848D01*
X53565666Y21719372D02*
X53613285Y21814610D01*
X53613285Y21814610D02*
X53660904Y21862229D01*
X53660904Y21862229D02*
X53756142Y21909848D01*
X53756142Y21909848D02*
X53851380Y21909848D01*
X54375190Y22243181D02*
X54565666Y22243181D01*
X54565666Y22243181D02*
X54660904Y22195562D01*
X54660904Y22195562D02*
X54756142Y22100324D01*
X54756142Y22100324D02*
X54803761Y21909848D01*
X54803761Y21909848D02*
X54803761Y21576515D01*
X54803761Y21576515D02*
X54756142Y21386039D01*
X54756142Y21386039D02*
X54660904Y21290800D01*
X54660904Y21290800D02*
X54565666Y21243181D01*
X54565666Y21243181D02*
X54375190Y21243181D01*
X54375190Y21243181D02*
X54279952Y21290800D01*
X54279952Y21290800D02*
X54184714Y21386039D01*
X54184714Y21386039D02*
X54137095Y21576515D01*
X54137095Y21576515D02*
X54137095Y21909848D01*
X54137095Y21909848D02*
X54184714Y22100324D01*
X54184714Y22100324D02*
X54279952Y22195562D01*
X54279952Y22195562D02*
X54375190Y22243181D01*
X55660904Y21909848D02*
X55660904Y21243181D01*
X55232333Y21909848D02*
X55232333Y21386039D01*
X55232333Y21386039D02*
X55279952Y21290800D01*
X55279952Y21290800D02*
X55375190Y21243181D01*
X55375190Y21243181D02*
X55518047Y21243181D01*
X55518047Y21243181D02*
X55613285Y21290800D01*
X55613285Y21290800D02*
X55660904Y21338420D01*
X55994238Y21909848D02*
X56375190Y21909848D01*
X56137095Y22243181D02*
X56137095Y21386039D01*
X56137095Y21386039D02*
X56184714Y21290800D01*
X56184714Y21290800D02*
X56279952Y21243181D01*
X56279952Y21243181D02*
X56375190Y21243181D01*
X55055000Y25185181D02*
X55626428Y25185181D01*
X55340714Y24185181D02*
X55340714Y25185181D01*
X55959762Y24185181D02*
X55959762Y25185181D01*
X55959762Y25185181D02*
X56340714Y25185181D01*
X56340714Y25185181D02*
X56435952Y25137562D01*
X56435952Y25137562D02*
X56483571Y25089943D01*
X56483571Y25089943D02*
X56531190Y24994705D01*
X56531190Y24994705D02*
X56531190Y24851848D01*
X56531190Y24851848D02*
X56483571Y24756610D01*
X56483571Y24756610D02*
X56435952Y24708991D01*
X56435952Y24708991D02*
X56340714Y24661372D01*
X56340714Y24661372D02*
X55959762Y24661372D01*
X57531190Y24185181D02*
X57197857Y24661372D01*
X56959762Y24185181D02*
X56959762Y25185181D01*
X56959762Y25185181D02*
X57340714Y25185181D01*
X57340714Y25185181D02*
X57435952Y25137562D01*
X57435952Y25137562D02*
X57483571Y25089943D01*
X57483571Y25089943D02*
X57531190Y24994705D01*
X57531190Y24994705D02*
X57531190Y24851848D01*
X57531190Y24851848D02*
X57483571Y24756610D01*
X57483571Y24756610D02*
X57435952Y24708991D01*
X57435952Y24708991D02*
X57340714Y24661372D01*
X57340714Y24661372D02*
X56959762Y24661372D01*
X58388333Y24185181D02*
X58388333Y24708991D01*
X58388333Y24708991D02*
X58340714Y24804229D01*
X58340714Y24804229D02*
X58245476Y24851848D01*
X58245476Y24851848D02*
X58055000Y24851848D01*
X58055000Y24851848D02*
X57959762Y24804229D01*
X58388333Y24232800D02*
X58293095Y24185181D01*
X58293095Y24185181D02*
X58055000Y24185181D01*
X58055000Y24185181D02*
X57959762Y24232800D01*
X57959762Y24232800D02*
X57912143Y24328039D01*
X57912143Y24328039D02*
X57912143Y24423277D01*
X57912143Y24423277D02*
X57959762Y24518515D01*
X57959762Y24518515D02*
X58055000Y24566134D01*
X58055000Y24566134D02*
X58293095Y24566134D01*
X58293095Y24566134D02*
X58388333Y24613753D01*
X58769286Y24851848D02*
X58959762Y24185181D01*
X58959762Y24185181D02*
X59150238Y24661372D01*
X59150238Y24661372D02*
X59340714Y24185181D01*
X59340714Y24185181D02*
X59531190Y24851848D01*
X60102619Y25185181D02*
X60293095Y25185181D01*
X60293095Y25185181D02*
X60388333Y25137562D01*
X60388333Y25137562D02*
X60483571Y25042324D01*
X60483571Y25042324D02*
X60531190Y24851848D01*
X60531190Y24851848D02*
X60531190Y24518515D01*
X60531190Y24518515D02*
X60483571Y24328039D01*
X60483571Y24328039D02*
X60388333Y24232800D01*
X60388333Y24232800D02*
X60293095Y24185181D01*
X60293095Y24185181D02*
X60102619Y24185181D01*
X60102619Y24185181D02*
X60007381Y24232800D01*
X60007381Y24232800D02*
X59912143Y24328039D01*
X59912143Y24328039D02*
X59864524Y24518515D01*
X59864524Y24518515D02*
X59864524Y24851848D01*
X59864524Y24851848D02*
X59912143Y25042324D01*
X59912143Y25042324D02*
X60007381Y25137562D01*
X60007381Y25137562D02*
X60102619Y25185181D01*
X61388333Y24851848D02*
X61388333Y24185181D01*
X60959762Y24851848D02*
X60959762Y24328039D01*
X60959762Y24328039D02*
X61007381Y24232800D01*
X61007381Y24232800D02*
X61102619Y24185181D01*
X61102619Y24185181D02*
X61245476Y24185181D01*
X61245476Y24185181D02*
X61340714Y24232800D01*
X61340714Y24232800D02*
X61388333Y24280420D01*
X61721667Y24851848D02*
X62102619Y24851848D01*
X61864524Y25185181D02*
X61864524Y24328039D01*
X61864524Y24328039D02*
X61912143Y24232800D01*
X61912143Y24232800D02*
X62007381Y24185181D01*
X62007381Y24185181D02*
X62102619Y24185181D01*
X62959762Y24185181D02*
X62388334Y24185181D01*
X62674048Y24185181D02*
X62674048Y25185181D01*
X62674048Y25185181D02*
X62578810Y25042324D01*
X62578810Y25042324D02*
X62483572Y24947086D01*
X62483572Y24947086D02*
X62388334Y24899467D01*
X1897666Y28179181D02*
X2230999Y27179181D01*
X2230999Y27179181D02*
X2564332Y28179181D01*
X2897666Y27560134D02*
X3659571Y27560134D01*
X4897666Y27702991D02*
X5230999Y27702991D01*
X5373856Y27179181D02*
X4897666Y27179181D01*
X4897666Y27179181D02*
X4897666Y28179181D01*
X4897666Y28179181D02*
X5373856Y28179181D01*
X5945285Y27179181D02*
X5850047Y27226800D01*
X5850047Y27226800D02*
X5802428Y27322039D01*
X5802428Y27322039D02*
X5802428Y28179181D01*
X6707190Y27226800D02*
X6611952Y27179181D01*
X6611952Y27179181D02*
X6421476Y27179181D01*
X6421476Y27179181D02*
X6326238Y27226800D01*
X6326238Y27226800D02*
X6278619Y27322039D01*
X6278619Y27322039D02*
X6278619Y27702991D01*
X6278619Y27702991D02*
X6326238Y27798229D01*
X6326238Y27798229D02*
X6421476Y27845848D01*
X6421476Y27845848D02*
X6611952Y27845848D01*
X6611952Y27845848D02*
X6707190Y27798229D01*
X6707190Y27798229D02*
X6754809Y27702991D01*
X6754809Y27702991D02*
X6754809Y27607753D01*
X6754809Y27607753D02*
X6278619Y27512515D01*
X7611952Y27226800D02*
X7516714Y27179181D01*
X7516714Y27179181D02*
X7326238Y27179181D01*
X7326238Y27179181D02*
X7231000Y27226800D01*
X7231000Y27226800D02*
X7183381Y27274420D01*
X7183381Y27274420D02*
X7135762Y27369658D01*
X7135762Y27369658D02*
X7135762Y27655372D01*
X7135762Y27655372D02*
X7183381Y27750610D01*
X7183381Y27750610D02*
X7231000Y27798229D01*
X7231000Y27798229D02*
X7326238Y27845848D01*
X7326238Y27845848D02*
X7516714Y27845848D01*
X7516714Y27845848D02*
X7611952Y27798229D01*
X7897667Y27845848D02*
X8278619Y27845848D01*
X8040524Y28179181D02*
X8040524Y27322039D01*
X8040524Y27322039D02*
X8088143Y27226800D01*
X8088143Y27226800D02*
X8183381Y27179181D01*
X8183381Y27179181D02*
X8278619Y27179181D01*
X8611953Y27179181D02*
X8611953Y27845848D01*
X8611953Y27655372D02*
X8659572Y27750610D01*
X8659572Y27750610D02*
X8707191Y27798229D01*
X8707191Y27798229D02*
X8802429Y27845848D01*
X8802429Y27845848D02*
X8897667Y27845848D01*
X9373858Y27179181D02*
X9278620Y27226800D01*
X9278620Y27226800D02*
X9231001Y27274420D01*
X9231001Y27274420D02*
X9183382Y27369658D01*
X9183382Y27369658D02*
X9183382Y27655372D01*
X9183382Y27655372D02*
X9231001Y27750610D01*
X9231001Y27750610D02*
X9278620Y27798229D01*
X9278620Y27798229D02*
X9373858Y27845848D01*
X9373858Y27845848D02*
X9516715Y27845848D01*
X9516715Y27845848D02*
X9611953Y27798229D01*
X9611953Y27798229D02*
X9659572Y27750610D01*
X9659572Y27750610D02*
X9707191Y27655372D01*
X9707191Y27655372D02*
X9707191Y27369658D01*
X9707191Y27369658D02*
X9659572Y27274420D01*
X9659572Y27274420D02*
X9611953Y27226800D01*
X9611953Y27226800D02*
X9516715Y27179181D01*
X9516715Y27179181D02*
X9373858Y27179181D01*
X10564334Y27179181D02*
X10564334Y28179181D01*
X10564334Y27226800D02*
X10469096Y27179181D01*
X10469096Y27179181D02*
X10278620Y27179181D01*
X10278620Y27179181D02*
X10183382Y27226800D01*
X10183382Y27226800D02*
X10135763Y27274420D01*
X10135763Y27274420D02*
X10088144Y27369658D01*
X10088144Y27369658D02*
X10088144Y27655372D01*
X10088144Y27655372D02*
X10135763Y27750610D01*
X10135763Y27750610D02*
X10183382Y27798229D01*
X10183382Y27798229D02*
X10278620Y27845848D01*
X10278620Y27845848D02*
X10469096Y27845848D01*
X10469096Y27845848D02*
X10564334Y27798229D01*
X11421477Y27226800D02*
X11326239Y27179181D01*
X11326239Y27179181D02*
X11135763Y27179181D01*
X11135763Y27179181D02*
X11040525Y27226800D01*
X11040525Y27226800D02*
X10992906Y27322039D01*
X10992906Y27322039D02*
X10992906Y27702991D01*
X10992906Y27702991D02*
X11040525Y27798229D01*
X11040525Y27798229D02*
X11135763Y27845848D01*
X11135763Y27845848D02*
X11326239Y27845848D01*
X11326239Y27845848D02*
X11421477Y27798229D01*
X11421477Y27798229D02*
X11469096Y27702991D01*
X11469096Y27702991D02*
X11469096Y27607753D01*
X11469096Y27607753D02*
X10992906Y27512515D01*
X841667Y34835181D02*
X1413095Y34835181D01*
X1127381Y33835181D02*
X1127381Y34835181D01*
X1746429Y33835181D02*
X1746429Y34835181D01*
X1746429Y34835181D02*
X2127381Y34835181D01*
X2127381Y34835181D02*
X2222619Y34787562D01*
X2222619Y34787562D02*
X2270238Y34739943D01*
X2270238Y34739943D02*
X2317857Y34644705D01*
X2317857Y34644705D02*
X2317857Y34501848D01*
X2317857Y34501848D02*
X2270238Y34406610D01*
X2270238Y34406610D02*
X2222619Y34358991D01*
X2222619Y34358991D02*
X2127381Y34311372D01*
X2127381Y34311372D02*
X1746429Y34311372D01*
X2746429Y34358991D02*
X3079762Y34358991D01*
X3222619Y33835181D02*
X2746429Y33835181D01*
X2746429Y33835181D02*
X2746429Y34835181D01*
X2746429Y34835181D02*
X3222619Y34835181D01*
X3651191Y34216134D02*
X4413096Y34216134D01*
X5413095Y33835181D02*
X4841667Y33835181D01*
X5127381Y33835181D02*
X5127381Y34835181D01*
X5127381Y34835181D02*
X5032143Y34692324D01*
X5032143Y34692324D02*
X4936905Y34597086D01*
X4936905Y34597086D02*
X4841667Y34549467D01*
X1897666Y19035181D02*
X2230999Y18035181D01*
X2230999Y18035181D02*
X2564332Y19035181D01*
X2897666Y18416134D02*
X3659571Y18416134D01*
X3278618Y18035181D02*
X3278618Y18797086D01*
X4897666Y18558991D02*
X5230999Y18558991D01*
X5373856Y18035181D02*
X4897666Y18035181D01*
X4897666Y18035181D02*
X4897666Y19035181D01*
X4897666Y19035181D02*
X5373856Y19035181D01*
X5945285Y18035181D02*
X5850047Y18082800D01*
X5850047Y18082800D02*
X5802428Y18178039D01*
X5802428Y18178039D02*
X5802428Y19035181D01*
X6707190Y18082800D02*
X6611952Y18035181D01*
X6611952Y18035181D02*
X6421476Y18035181D01*
X6421476Y18035181D02*
X6326238Y18082800D01*
X6326238Y18082800D02*
X6278619Y18178039D01*
X6278619Y18178039D02*
X6278619Y18558991D01*
X6278619Y18558991D02*
X6326238Y18654229D01*
X6326238Y18654229D02*
X6421476Y18701848D01*
X6421476Y18701848D02*
X6611952Y18701848D01*
X6611952Y18701848D02*
X6707190Y18654229D01*
X6707190Y18654229D02*
X6754809Y18558991D01*
X6754809Y18558991D02*
X6754809Y18463753D01*
X6754809Y18463753D02*
X6278619Y18368515D01*
X7611952Y18082800D02*
X7516714Y18035181D01*
X7516714Y18035181D02*
X7326238Y18035181D01*
X7326238Y18035181D02*
X7231000Y18082800D01*
X7231000Y18082800D02*
X7183381Y18130420D01*
X7183381Y18130420D02*
X7135762Y18225658D01*
X7135762Y18225658D02*
X7135762Y18511372D01*
X7135762Y18511372D02*
X7183381Y18606610D01*
X7183381Y18606610D02*
X7231000Y18654229D01*
X7231000Y18654229D02*
X7326238Y18701848D01*
X7326238Y18701848D02*
X7516714Y18701848D01*
X7516714Y18701848D02*
X7611952Y18654229D01*
X7897667Y18701848D02*
X8278619Y18701848D01*
X8040524Y19035181D02*
X8040524Y18178039D01*
X8040524Y18178039D02*
X8088143Y18082800D01*
X8088143Y18082800D02*
X8183381Y18035181D01*
X8183381Y18035181D02*
X8278619Y18035181D01*
X8611953Y18035181D02*
X8611953Y18701848D01*
X8611953Y18511372D02*
X8659572Y18606610D01*
X8659572Y18606610D02*
X8707191Y18654229D01*
X8707191Y18654229D02*
X8802429Y18701848D01*
X8802429Y18701848D02*
X8897667Y18701848D01*
X9373858Y18035181D02*
X9278620Y18082800D01*
X9278620Y18082800D02*
X9231001Y18130420D01*
X9231001Y18130420D02*
X9183382Y18225658D01*
X9183382Y18225658D02*
X9183382Y18511372D01*
X9183382Y18511372D02*
X9231001Y18606610D01*
X9231001Y18606610D02*
X9278620Y18654229D01*
X9278620Y18654229D02*
X9373858Y18701848D01*
X9373858Y18701848D02*
X9516715Y18701848D01*
X9516715Y18701848D02*
X9611953Y18654229D01*
X9611953Y18654229D02*
X9659572Y18606610D01*
X9659572Y18606610D02*
X9707191Y18511372D01*
X9707191Y18511372D02*
X9707191Y18225658D01*
X9707191Y18225658D02*
X9659572Y18130420D01*
X9659572Y18130420D02*
X9611953Y18082800D01*
X9611953Y18082800D02*
X9516715Y18035181D01*
X9516715Y18035181D02*
X9373858Y18035181D01*
X10564334Y18035181D02*
X10564334Y19035181D01*
X10564334Y18082800D02*
X10469096Y18035181D01*
X10469096Y18035181D02*
X10278620Y18035181D01*
X10278620Y18035181D02*
X10183382Y18082800D01*
X10183382Y18082800D02*
X10135763Y18130420D01*
X10135763Y18130420D02*
X10088144Y18225658D01*
X10088144Y18225658D02*
X10088144Y18511372D01*
X10088144Y18511372D02*
X10135763Y18606610D01*
X10135763Y18606610D02*
X10183382Y18654229D01*
X10183382Y18654229D02*
X10278620Y18701848D01*
X10278620Y18701848D02*
X10469096Y18701848D01*
X10469096Y18701848D02*
X10564334Y18654229D01*
X11421477Y18082800D02*
X11326239Y18035181D01*
X11326239Y18035181D02*
X11135763Y18035181D01*
X11135763Y18035181D02*
X11040525Y18082800D01*
X11040525Y18082800D02*
X10992906Y18178039D01*
X10992906Y18178039D02*
X10992906Y18558991D01*
X10992906Y18558991D02*
X11040525Y18654229D01*
X11040525Y18654229D02*
X11135763Y18701848D01*
X11135763Y18701848D02*
X11326239Y18701848D01*
X11326239Y18701848D02*
X11421477Y18654229D01*
X11421477Y18654229D02*
X11469096Y18558991D01*
X11469096Y18558991D02*
X11469096Y18463753D01*
X11469096Y18463753D02*
X10992906Y18368515D01*
X841667Y17563181D02*
X1413095Y17563181D01*
X1127381Y16563181D02*
X1127381Y17563181D01*
X1746429Y16563181D02*
X1746429Y17563181D01*
X1746429Y17563181D02*
X2127381Y17563181D01*
X2127381Y17563181D02*
X2222619Y17515562D01*
X2222619Y17515562D02*
X2270238Y17467943D01*
X2270238Y17467943D02*
X2317857Y17372705D01*
X2317857Y17372705D02*
X2317857Y17229848D01*
X2317857Y17229848D02*
X2270238Y17134610D01*
X2270238Y17134610D02*
X2222619Y17086991D01*
X2222619Y17086991D02*
X2127381Y17039372D01*
X2127381Y17039372D02*
X1746429Y17039372D01*
X2746429Y17086991D02*
X3079762Y17086991D01*
X3222619Y16563181D02*
X2746429Y16563181D01*
X2746429Y16563181D02*
X2746429Y17563181D01*
X2746429Y17563181D02*
X3222619Y17563181D01*
X3651191Y16944134D02*
X4413096Y16944134D01*
X4032143Y16563181D02*
X4032143Y17325086D01*
X5413095Y16563181D02*
X4841667Y16563181D01*
X5127381Y16563181D02*
X5127381Y17563181D01*
X5127381Y17563181D02*
X5032143Y17420324D01*
X5032143Y17420324D02*
X4936905Y17325086D01*
X4936905Y17325086D02*
X4841667Y17277467D01*
X20566238Y21621848D02*
X20566238Y20955181D01*
X20328143Y22002800D02*
X20090048Y21288515D01*
X20090048Y21288515D02*
X20709095Y21288515D01*
X20994810Y21955181D02*
X21661476Y21955181D01*
X21661476Y21955181D02*
X21232905Y20955181D01*
X22042429Y21050420D02*
X22090048Y21002800D01*
X22090048Y21002800D02*
X22042429Y20955181D01*
X22042429Y20955181D02*
X21994810Y21002800D01*
X21994810Y21002800D02*
X22042429Y21050420D01*
X22042429Y21050420D02*
X22042429Y20955181D01*
X22947190Y21621848D02*
X22947190Y20955181D01*
X22709095Y22002800D02*
X22471000Y21288515D01*
X22471000Y21288515D02*
X23090047Y21288515D01*
X23471000Y20955181D02*
X23471000Y21955181D01*
X23566238Y21336134D02*
X23851952Y20955181D01*
X23851952Y21621848D02*
X23471000Y21240896D01*
X21804333Y23675181D02*
X21471000Y24151372D01*
X21232905Y23675181D02*
X21232905Y24675181D01*
X21232905Y24675181D02*
X21613857Y24675181D01*
X21613857Y24675181D02*
X21709095Y24627562D01*
X21709095Y24627562D02*
X21756714Y24579943D01*
X21756714Y24579943D02*
X21804333Y24484705D01*
X21804333Y24484705D02*
X21804333Y24341848D01*
X21804333Y24341848D02*
X21756714Y24246610D01*
X21756714Y24246610D02*
X21709095Y24198991D01*
X21709095Y24198991D02*
X21613857Y24151372D01*
X21613857Y24151372D02*
X21232905Y24151372D01*
X22185286Y24579943D02*
X22232905Y24627562D01*
X22232905Y24627562D02*
X22328143Y24675181D01*
X22328143Y24675181D02*
X22566238Y24675181D01*
X22566238Y24675181D02*
X22661476Y24627562D01*
X22661476Y24627562D02*
X22709095Y24579943D01*
X22709095Y24579943D02*
X22756714Y24484705D01*
X22756714Y24484705D02*
X22756714Y24389467D01*
X22756714Y24389467D02*
X22709095Y24246610D01*
X22709095Y24246610D02*
X22137667Y23675181D01*
X22137667Y23675181D02*
X22756714Y23675181D01*
X20566238Y25685848D02*
X20566238Y25019181D01*
X20328143Y26066800D02*
X20090048Y25352515D01*
X20090048Y25352515D02*
X20709095Y25352515D01*
X20994810Y26019181D02*
X21661476Y26019181D01*
X21661476Y26019181D02*
X21232905Y25019181D01*
X22042429Y25114420D02*
X22090048Y25066800D01*
X22090048Y25066800D02*
X22042429Y25019181D01*
X22042429Y25019181D02*
X21994810Y25066800D01*
X21994810Y25066800D02*
X22042429Y25114420D01*
X22042429Y25114420D02*
X22042429Y25019181D01*
X22947190Y25685848D02*
X22947190Y25019181D01*
X22709095Y26066800D02*
X22471000Y25352515D01*
X22471000Y25352515D02*
X23090047Y25352515D01*
X23471000Y25019181D02*
X23471000Y26019181D01*
X23566238Y25400134D02*
X23851952Y25019181D01*
X23851952Y25685848D02*
X23471000Y25304896D01*
X21804333Y27739181D02*
X21471000Y28215372D01*
X21232905Y27739181D02*
X21232905Y28739181D01*
X21232905Y28739181D02*
X21613857Y28739181D01*
X21613857Y28739181D02*
X21709095Y28691562D01*
X21709095Y28691562D02*
X21756714Y28643943D01*
X21756714Y28643943D02*
X21804333Y28548705D01*
X21804333Y28548705D02*
X21804333Y28405848D01*
X21804333Y28405848D02*
X21756714Y28310610D01*
X21756714Y28310610D02*
X21709095Y28262991D01*
X21709095Y28262991D02*
X21613857Y28215372D01*
X21613857Y28215372D02*
X21232905Y28215372D01*
X22137667Y28739181D02*
X22756714Y28739181D01*
X22756714Y28739181D02*
X22423381Y28358229D01*
X22423381Y28358229D02*
X22566238Y28358229D01*
X22566238Y28358229D02*
X22661476Y28310610D01*
X22661476Y28310610D02*
X22709095Y28262991D01*
X22709095Y28262991D02*
X22756714Y28167753D01*
X22756714Y28167753D02*
X22756714Y27929658D01*
X22756714Y27929658D02*
X22709095Y27834420D01*
X22709095Y27834420D02*
X22661476Y27786800D01*
X22661476Y27786800D02*
X22566238Y27739181D01*
X22566238Y27739181D02*
X22280524Y27739181D01*
X22280524Y27739181D02*
X22185286Y27786800D01*
X22185286Y27786800D02*
X22137667Y27834420D01*
X27833819Y11374572D02*
X27833819Y10803144D01*
X27833819Y11088858D02*
X26833819Y11088858D01*
X26833819Y11088858D02*
X26976676Y10993620D01*
X26976676Y10993620D02*
X27071914Y10898382D01*
X27071914Y10898382D02*
X27119533Y10803144D01*
X26833819Y11993620D02*
X26833819Y12088858D01*
X26833819Y12088858D02*
X26881438Y12184096D01*
X26881438Y12184096D02*
X26929057Y12231715D01*
X26929057Y12231715D02*
X27024295Y12279334D01*
X27024295Y12279334D02*
X27214771Y12326953D01*
X27214771Y12326953D02*
X27452866Y12326953D01*
X27452866Y12326953D02*
X27643342Y12279334D01*
X27643342Y12279334D02*
X27738580Y12231715D01*
X27738580Y12231715D02*
X27786200Y12184096D01*
X27786200Y12184096D02*
X27833819Y12088858D01*
X27833819Y12088858D02*
X27833819Y11993620D01*
X27833819Y11993620D02*
X27786200Y11898382D01*
X27786200Y11898382D02*
X27738580Y11850763D01*
X27738580Y11850763D02*
X27643342Y11803144D01*
X27643342Y11803144D02*
X27452866Y11755525D01*
X27452866Y11755525D02*
X27214771Y11755525D01*
X27214771Y11755525D02*
X27024295Y11803144D01*
X27024295Y11803144D02*
X26929057Y11850763D01*
X26929057Y11850763D02*
X26881438Y11898382D01*
X26881438Y11898382D02*
X26833819Y11993620D01*
X26833819Y12946001D02*
X26833819Y13041239D01*
X26833819Y13041239D02*
X26881438Y13136477D01*
X26881438Y13136477D02*
X26929057Y13184096D01*
X26929057Y13184096D02*
X27024295Y13231715D01*
X27024295Y13231715D02*
X27214771Y13279334D01*
X27214771Y13279334D02*
X27452866Y13279334D01*
X27452866Y13279334D02*
X27643342Y13231715D01*
X27643342Y13231715D02*
X27738580Y13184096D01*
X27738580Y13184096D02*
X27786200Y13136477D01*
X27786200Y13136477D02*
X27833819Y13041239D01*
X27833819Y13041239D02*
X27833819Y12946001D01*
X27833819Y12946001D02*
X27786200Y12850763D01*
X27786200Y12850763D02*
X27738580Y12803144D01*
X27738580Y12803144D02*
X27643342Y12755525D01*
X27643342Y12755525D02*
X27452866Y12707906D01*
X27452866Y12707906D02*
X27214771Y12707906D01*
X27214771Y12707906D02*
X27024295Y12755525D01*
X27024295Y12755525D02*
X26929057Y12803144D01*
X26929057Y12803144D02*
X26881438Y12850763D01*
X26881438Y12850763D02*
X26833819Y12946001D01*
X27833819Y13707906D02*
X26833819Y13707906D01*
X27452866Y13803144D02*
X27833819Y14088858D01*
X27167152Y14088858D02*
X27548104Y13707906D01*
X30553819Y12279334D02*
X30077628Y11946001D01*
X30553819Y11707906D02*
X29553819Y11707906D01*
X29553819Y11707906D02*
X29553819Y12088858D01*
X29553819Y12088858D02*
X29601438Y12184096D01*
X29601438Y12184096D02*
X29649057Y12231715D01*
X29649057Y12231715D02*
X29744295Y12279334D01*
X29744295Y12279334D02*
X29887152Y12279334D01*
X29887152Y12279334D02*
X29982390Y12231715D01*
X29982390Y12231715D02*
X30030009Y12184096D01*
X30030009Y12184096D02*
X30077628Y12088858D01*
X30077628Y12088858D02*
X30077628Y11707906D01*
X29553819Y13184096D02*
X29553819Y12707906D01*
X29553819Y12707906D02*
X30030009Y12660287D01*
X30030009Y12660287D02*
X29982390Y12707906D01*
X29982390Y12707906D02*
X29934771Y12803144D01*
X29934771Y12803144D02*
X29934771Y13041239D01*
X29934771Y13041239D02*
X29982390Y13136477D01*
X29982390Y13136477D02*
X30030009Y13184096D01*
X30030009Y13184096D02*
X30125247Y13231715D01*
X30125247Y13231715D02*
X30363342Y13231715D01*
X30363342Y13231715D02*
X30458580Y13184096D01*
X30458580Y13184096D02*
X30506200Y13136477D01*
X30506200Y13136477D02*
X30553819Y13041239D01*
X30553819Y13041239D02*
X30553819Y12803144D01*
X30553819Y12803144D02*
X30506200Y12707906D01*
X30506200Y12707906D02*
X30458580Y12660287D01*
X27833819Y38806572D02*
X27833819Y38235144D01*
X27833819Y38520858D02*
X26833819Y38520858D01*
X26833819Y38520858D02*
X26976676Y38425620D01*
X26976676Y38425620D02*
X27071914Y38330382D01*
X27071914Y38330382D02*
X27119533Y38235144D01*
X26833819Y39425620D02*
X26833819Y39520858D01*
X26833819Y39520858D02*
X26881438Y39616096D01*
X26881438Y39616096D02*
X26929057Y39663715D01*
X26929057Y39663715D02*
X27024295Y39711334D01*
X27024295Y39711334D02*
X27214771Y39758953D01*
X27214771Y39758953D02*
X27452866Y39758953D01*
X27452866Y39758953D02*
X27643342Y39711334D01*
X27643342Y39711334D02*
X27738580Y39663715D01*
X27738580Y39663715D02*
X27786200Y39616096D01*
X27786200Y39616096D02*
X27833819Y39520858D01*
X27833819Y39520858D02*
X27833819Y39425620D01*
X27833819Y39425620D02*
X27786200Y39330382D01*
X27786200Y39330382D02*
X27738580Y39282763D01*
X27738580Y39282763D02*
X27643342Y39235144D01*
X27643342Y39235144D02*
X27452866Y39187525D01*
X27452866Y39187525D02*
X27214771Y39187525D01*
X27214771Y39187525D02*
X27024295Y39235144D01*
X27024295Y39235144D02*
X26929057Y39282763D01*
X26929057Y39282763D02*
X26881438Y39330382D01*
X26881438Y39330382D02*
X26833819Y39425620D01*
X26833819Y40378001D02*
X26833819Y40473239D01*
X26833819Y40473239D02*
X26881438Y40568477D01*
X26881438Y40568477D02*
X26929057Y40616096D01*
X26929057Y40616096D02*
X27024295Y40663715D01*
X27024295Y40663715D02*
X27214771Y40711334D01*
X27214771Y40711334D02*
X27452866Y40711334D01*
X27452866Y40711334D02*
X27643342Y40663715D01*
X27643342Y40663715D02*
X27738580Y40616096D01*
X27738580Y40616096D02*
X27786200Y40568477D01*
X27786200Y40568477D02*
X27833819Y40473239D01*
X27833819Y40473239D02*
X27833819Y40378001D01*
X27833819Y40378001D02*
X27786200Y40282763D01*
X27786200Y40282763D02*
X27738580Y40235144D01*
X27738580Y40235144D02*
X27643342Y40187525D01*
X27643342Y40187525D02*
X27452866Y40139906D01*
X27452866Y40139906D02*
X27214771Y40139906D01*
X27214771Y40139906D02*
X27024295Y40187525D01*
X27024295Y40187525D02*
X26929057Y40235144D01*
X26929057Y40235144D02*
X26881438Y40282763D01*
X26881438Y40282763D02*
X26833819Y40378001D01*
X27833819Y41139906D02*
X26833819Y41139906D01*
X27452866Y41235144D02*
X27833819Y41520858D01*
X27167152Y41520858D02*
X27548104Y41139906D01*
X30553819Y39711334D02*
X30077628Y39378001D01*
X30553819Y39139906D02*
X29553819Y39139906D01*
X29553819Y39139906D02*
X29553819Y39520858D01*
X29553819Y39520858D02*
X29601438Y39616096D01*
X29601438Y39616096D02*
X29649057Y39663715D01*
X29649057Y39663715D02*
X29744295Y39711334D01*
X29744295Y39711334D02*
X29887152Y39711334D01*
X29887152Y39711334D02*
X29982390Y39663715D01*
X29982390Y39663715D02*
X30030009Y39616096D01*
X30030009Y39616096D02*
X30077628Y39520858D01*
X30077628Y39520858D02*
X30077628Y39139906D01*
X29553819Y40568477D02*
X29553819Y40378001D01*
X29553819Y40378001D02*
X29601438Y40282763D01*
X29601438Y40282763D02*
X29649057Y40235144D01*
X29649057Y40235144D02*
X29791914Y40139906D01*
X29791914Y40139906D02*
X29982390Y40092287D01*
X29982390Y40092287D02*
X30363342Y40092287D01*
X30363342Y40092287D02*
X30458580Y40139906D01*
X30458580Y40139906D02*
X30506200Y40187525D01*
X30506200Y40187525D02*
X30553819Y40282763D01*
X30553819Y40282763D02*
X30553819Y40473239D01*
X30553819Y40473239D02*
X30506200Y40568477D01*
X30506200Y40568477D02*
X30458580Y40616096D01*
X30458580Y40616096D02*
X30363342Y40663715D01*
X30363342Y40663715D02*
X30125247Y40663715D01*
X30125247Y40663715D02*
X30030009Y40616096D01*
X30030009Y40616096D02*
X29982390Y40568477D01*
X29982390Y40568477D02*
X29934771Y40473239D01*
X29934771Y40473239D02*
X29934771Y40282763D01*
X29934771Y40282763D02*
X29982390Y40187525D01*
X29982390Y40187525D02*
X30030009Y40139906D01*
X30030009Y40139906D02*
X30125247Y40092287D01*
X42560904Y33131181D02*
X42084714Y33131181D01*
X42084714Y33131181D02*
X42037095Y32654991D01*
X42037095Y32654991D02*
X42084714Y32702610D01*
X42084714Y32702610D02*
X42179952Y32750229D01*
X42179952Y32750229D02*
X42418047Y32750229D01*
X42418047Y32750229D02*
X42513285Y32702610D01*
X42513285Y32702610D02*
X42560904Y32654991D01*
X42560904Y32654991D02*
X42608523Y32559753D01*
X42608523Y32559753D02*
X42608523Y32321658D01*
X42608523Y32321658D02*
X42560904Y32226420D01*
X42560904Y32226420D02*
X42513285Y32178800D01*
X42513285Y32178800D02*
X42418047Y32131181D01*
X42418047Y32131181D02*
X42179952Y32131181D01*
X42179952Y32131181D02*
X42084714Y32178800D01*
X42084714Y32178800D02*
X42037095Y32226420D01*
X43465666Y33131181D02*
X43275190Y33131181D01*
X43275190Y33131181D02*
X43179952Y33083562D01*
X43179952Y33083562D02*
X43132333Y33035943D01*
X43132333Y33035943D02*
X43037095Y32893086D01*
X43037095Y32893086D02*
X42989476Y32702610D01*
X42989476Y32702610D02*
X42989476Y32321658D01*
X42989476Y32321658D02*
X43037095Y32226420D01*
X43037095Y32226420D02*
X43084714Y32178800D01*
X43084714Y32178800D02*
X43179952Y32131181D01*
X43179952Y32131181D02*
X43370428Y32131181D01*
X43370428Y32131181D02*
X43465666Y32178800D01*
X43465666Y32178800D02*
X43513285Y32226420D01*
X43513285Y32226420D02*
X43560904Y32321658D01*
X43560904Y32321658D02*
X43560904Y32559753D01*
X43560904Y32559753D02*
X43513285Y32654991D01*
X43513285Y32654991D02*
X43465666Y32702610D01*
X43465666Y32702610D02*
X43370428Y32750229D01*
X43370428Y32750229D02*
X43179952Y32750229D01*
X43179952Y32750229D02*
X43084714Y32702610D01*
X43084714Y32702610D02*
X43037095Y32654991D01*
X43037095Y32654991D02*
X42989476Y32559753D01*
X42156142Y34851181D02*
X41822809Y35327372D01*
X41584714Y34851181D02*
X41584714Y35851181D01*
X41584714Y35851181D02*
X41965666Y35851181D01*
X41965666Y35851181D02*
X42060904Y35803562D01*
X42060904Y35803562D02*
X42108523Y35755943D01*
X42108523Y35755943D02*
X42156142Y35660705D01*
X42156142Y35660705D02*
X42156142Y35517848D01*
X42156142Y35517848D02*
X42108523Y35422610D01*
X42108523Y35422610D02*
X42060904Y35374991D01*
X42060904Y35374991D02*
X41965666Y35327372D01*
X41965666Y35327372D02*
X41584714Y35327372D01*
X43108523Y34851181D02*
X42537095Y34851181D01*
X42822809Y34851181D02*
X42822809Y35851181D01*
X42822809Y35851181D02*
X42727571Y35708324D01*
X42727571Y35708324D02*
X42632333Y35613086D01*
X42632333Y35613086D02*
X42537095Y35565467D01*
X43727571Y35851181D02*
X43822809Y35851181D01*
X43822809Y35851181D02*
X43918047Y35803562D01*
X43918047Y35803562D02*
X43965666Y35755943D01*
X43965666Y35755943D02*
X44013285Y35660705D01*
X44013285Y35660705D02*
X44060904Y35470229D01*
X44060904Y35470229D02*
X44060904Y35232134D01*
X44060904Y35232134D02*
X44013285Y35041658D01*
X44013285Y35041658D02*
X43965666Y34946420D01*
X43965666Y34946420D02*
X43918047Y34898800D01*
X43918047Y34898800D02*
X43822809Y34851181D01*
X43822809Y34851181D02*
X43727571Y34851181D01*
X43727571Y34851181D02*
X43632333Y34898800D01*
X43632333Y34898800D02*
X43584714Y34946420D01*
X43584714Y34946420D02*
X43537095Y35041658D01*
X43537095Y35041658D02*
X43489476Y35232134D01*
X43489476Y35232134D02*
X43489476Y35470229D01*
X43489476Y35470229D02*
X43537095Y35660705D01*
X43537095Y35660705D02*
X43584714Y35755943D01*
X43584714Y35755943D02*
X43632333Y35803562D01*
X43632333Y35803562D02*
X43727571Y35851181D01*
X74735057Y9207715D02*
X74687438Y9255334D01*
X74687438Y9255334D02*
X74639819Y9350572D01*
X74639819Y9350572D02*
X74639819Y9588667D01*
X74639819Y9588667D02*
X74687438Y9683905D01*
X74687438Y9683905D02*
X74735057Y9731524D01*
X74735057Y9731524D02*
X74830295Y9779143D01*
X74830295Y9779143D02*
X74925533Y9779143D01*
X74925533Y9779143D02*
X75068390Y9731524D01*
X75068390Y9731524D02*
X75639819Y9160096D01*
X75639819Y9160096D02*
X75639819Y9779143D01*
X74735057Y10160096D02*
X74687438Y10207715D01*
X74687438Y10207715D02*
X74639819Y10302953D01*
X74639819Y10302953D02*
X74639819Y10541048D01*
X74639819Y10541048D02*
X74687438Y10636286D01*
X74687438Y10636286D02*
X74735057Y10683905D01*
X74735057Y10683905D02*
X74830295Y10731524D01*
X74830295Y10731524D02*
X74925533Y10731524D01*
X74925533Y10731524D02*
X75068390Y10683905D01*
X75068390Y10683905D02*
X75639819Y10112477D01*
X75639819Y10112477D02*
X75639819Y10731524D01*
X74639819Y11350572D02*
X74639819Y11445810D01*
X74639819Y11445810D02*
X74687438Y11541048D01*
X74687438Y11541048D02*
X74735057Y11588667D01*
X74735057Y11588667D02*
X74830295Y11636286D01*
X74830295Y11636286D02*
X75020771Y11683905D01*
X75020771Y11683905D02*
X75258866Y11683905D01*
X75258866Y11683905D02*
X75449342Y11636286D01*
X75449342Y11636286D02*
X75544580Y11588667D01*
X75544580Y11588667D02*
X75592200Y11541048D01*
X75592200Y11541048D02*
X75639819Y11445810D01*
X75639819Y11445810D02*
X75639819Y11350572D01*
X75639819Y11350572D02*
X75592200Y11255334D01*
X75592200Y11255334D02*
X75544580Y11207715D01*
X75544580Y11207715D02*
X75449342Y11160096D01*
X75449342Y11160096D02*
X75258866Y11112477D01*
X75258866Y11112477D02*
X75020771Y11112477D01*
X75020771Y11112477D02*
X74830295Y11160096D01*
X74830295Y11160096D02*
X74735057Y11207715D01*
X74735057Y11207715D02*
X74687438Y11255334D01*
X74687438Y11255334D02*
X74639819Y11350572D01*
X74639819Y12302953D02*
X74639819Y12398191D01*
X74639819Y12398191D02*
X74687438Y12493429D01*
X74687438Y12493429D02*
X74735057Y12541048D01*
X74735057Y12541048D02*
X74830295Y12588667D01*
X74830295Y12588667D02*
X75020771Y12636286D01*
X75020771Y12636286D02*
X75258866Y12636286D01*
X75258866Y12636286D02*
X75449342Y12588667D01*
X75449342Y12588667D02*
X75544580Y12541048D01*
X75544580Y12541048D02*
X75592200Y12493429D01*
X75592200Y12493429D02*
X75639819Y12398191D01*
X75639819Y12398191D02*
X75639819Y12302953D01*
X75639819Y12302953D02*
X75592200Y12207715D01*
X75592200Y12207715D02*
X75544580Y12160096D01*
X75544580Y12160096D02*
X75449342Y12112477D01*
X75449342Y12112477D02*
X75258866Y12064858D01*
X75258866Y12064858D02*
X75020771Y12064858D01*
X75020771Y12064858D02*
X74830295Y12112477D01*
X74830295Y12112477D02*
X74735057Y12160096D01*
X74735057Y12160096D02*
X74687438Y12207715D01*
X74687438Y12207715D02*
X74639819Y12302953D01*
D11*
X77062149Y10600572D02*
X76824054Y10433906D01*
X77062149Y10314858D02*
X76562149Y10314858D01*
X76562149Y10314858D02*
X76562149Y10505334D01*
X76562149Y10505334D02*
X76585959Y10552953D01*
X76585959Y10552953D02*
X76609768Y10576763D01*
X76609768Y10576763D02*
X76657387Y10600572D01*
X76657387Y10600572D02*
X76728816Y10600572D01*
X76728816Y10600572D02*
X76776435Y10576763D01*
X76776435Y10576763D02*
X76800244Y10552953D01*
X76800244Y10552953D02*
X76824054Y10505334D01*
X76824054Y10505334D02*
X76824054Y10314858D01*
X77062149Y11076763D02*
X77062149Y10791049D01*
X77062149Y10933906D02*
X76562149Y10933906D01*
X76562149Y10933906D02*
X76633578Y10886287D01*
X76633578Y10886287D02*
X76681197Y10838668D01*
X76681197Y10838668D02*
X76705006Y10791049D01*
X76609768Y11267239D02*
X76585959Y11291048D01*
X76585959Y11291048D02*
X76562149Y11338667D01*
X76562149Y11338667D02*
X76562149Y11457715D01*
X76562149Y11457715D02*
X76585959Y11505334D01*
X76585959Y11505334D02*
X76609768Y11529143D01*
X76609768Y11529143D02*
X76657387Y11552953D01*
X76657387Y11552953D02*
X76705006Y11552953D01*
X76705006Y11552953D02*
X76776435Y11529143D01*
X76776435Y11529143D02*
X77062149Y11243429D01*
X77062149Y11243429D02*
X77062149Y11552953D01*
D10*
X75639819Y18919362D02*
X75639819Y18347934D01*
X75639819Y18633648D02*
X74639819Y18633648D01*
X74639819Y18633648D02*
X74782676Y18538410D01*
X74782676Y18538410D02*
X74877914Y18443172D01*
X74877914Y18443172D02*
X74925533Y18347934D01*
X74639819Y19538410D02*
X74639819Y19633648D01*
X74639819Y19633648D02*
X74687438Y19728886D01*
X74687438Y19728886D02*
X74735057Y19776505D01*
X74735057Y19776505D02*
X74830295Y19824124D01*
X74830295Y19824124D02*
X75020771Y19871743D01*
X75020771Y19871743D02*
X75258866Y19871743D01*
X75258866Y19871743D02*
X75449342Y19824124D01*
X75449342Y19824124D02*
X75544580Y19776505D01*
X75544580Y19776505D02*
X75592200Y19728886D01*
X75592200Y19728886D02*
X75639819Y19633648D01*
X75639819Y19633648D02*
X75639819Y19538410D01*
X75639819Y19538410D02*
X75592200Y19443172D01*
X75592200Y19443172D02*
X75544580Y19395553D01*
X75544580Y19395553D02*
X75449342Y19347934D01*
X75449342Y19347934D02*
X75258866Y19300315D01*
X75258866Y19300315D02*
X75020771Y19300315D01*
X75020771Y19300315D02*
X74830295Y19347934D01*
X74830295Y19347934D02*
X74735057Y19395553D01*
X74735057Y19395553D02*
X74687438Y19443172D01*
X74687438Y19443172D02*
X74639819Y19538410D01*
X75639819Y20300315D02*
X74639819Y20300315D01*
X75258866Y20395553D02*
X75639819Y20681267D01*
X74973152Y20681267D02*
X75354104Y20300315D01*
D11*
X77062149Y17712572D02*
X76824054Y17545906D01*
X77062149Y17426858D02*
X76562149Y17426858D01*
X76562149Y17426858D02*
X76562149Y17617334D01*
X76562149Y17617334D02*
X76585959Y17664953D01*
X76585959Y17664953D02*
X76609768Y17688763D01*
X76609768Y17688763D02*
X76657387Y17712572D01*
X76657387Y17712572D02*
X76728816Y17712572D01*
X76728816Y17712572D02*
X76776435Y17688763D01*
X76776435Y17688763D02*
X76800244Y17664953D01*
X76800244Y17664953D02*
X76824054Y17617334D01*
X76824054Y17617334D02*
X76824054Y17426858D01*
X77062149Y18188763D02*
X77062149Y17903049D01*
X77062149Y18045906D02*
X76562149Y18045906D01*
X76562149Y18045906D02*
X76633578Y17998287D01*
X76633578Y17998287D02*
X76681197Y17950668D01*
X76681197Y17950668D02*
X76705006Y17903049D01*
X77062149Y18664953D02*
X77062149Y18379239D01*
X77062149Y18522096D02*
X76562149Y18522096D01*
X76562149Y18522096D02*
X76633578Y18474477D01*
X76633578Y18474477D02*
X76681197Y18426858D01*
X76681197Y18426858D02*
X76705006Y18379239D01*
D10*
X32203819Y11374572D02*
X32203819Y10803144D01*
X32203819Y11088858D02*
X31203819Y11088858D01*
X31203819Y11088858D02*
X31346676Y10993620D01*
X31346676Y10993620D02*
X31441914Y10898382D01*
X31441914Y10898382D02*
X31489533Y10803144D01*
X31203819Y11993620D02*
X31203819Y12088858D01*
X31203819Y12088858D02*
X31251438Y12184096D01*
X31251438Y12184096D02*
X31299057Y12231715D01*
X31299057Y12231715D02*
X31394295Y12279334D01*
X31394295Y12279334D02*
X31584771Y12326953D01*
X31584771Y12326953D02*
X31822866Y12326953D01*
X31822866Y12326953D02*
X32013342Y12279334D01*
X32013342Y12279334D02*
X32108580Y12231715D01*
X32108580Y12231715D02*
X32156200Y12184096D01*
X32156200Y12184096D02*
X32203819Y12088858D01*
X32203819Y12088858D02*
X32203819Y11993620D01*
X32203819Y11993620D02*
X32156200Y11898382D01*
X32156200Y11898382D02*
X32108580Y11850763D01*
X32108580Y11850763D02*
X32013342Y11803144D01*
X32013342Y11803144D02*
X31822866Y11755525D01*
X31822866Y11755525D02*
X31584771Y11755525D01*
X31584771Y11755525D02*
X31394295Y11803144D01*
X31394295Y11803144D02*
X31299057Y11850763D01*
X31299057Y11850763D02*
X31251438Y11898382D01*
X31251438Y11898382D02*
X31203819Y11993620D01*
X31203819Y12946001D02*
X31203819Y13041239D01*
X31203819Y13041239D02*
X31251438Y13136477D01*
X31251438Y13136477D02*
X31299057Y13184096D01*
X31299057Y13184096D02*
X31394295Y13231715D01*
X31394295Y13231715D02*
X31584771Y13279334D01*
X31584771Y13279334D02*
X31822866Y13279334D01*
X31822866Y13279334D02*
X32013342Y13231715D01*
X32013342Y13231715D02*
X32108580Y13184096D01*
X32108580Y13184096D02*
X32156200Y13136477D01*
X32156200Y13136477D02*
X32203819Y13041239D01*
X32203819Y13041239D02*
X32203819Y12946001D01*
X32203819Y12946001D02*
X32156200Y12850763D01*
X32156200Y12850763D02*
X32108580Y12803144D01*
X32108580Y12803144D02*
X32013342Y12755525D01*
X32013342Y12755525D02*
X31822866Y12707906D01*
X31822866Y12707906D02*
X31584771Y12707906D01*
X31584771Y12707906D02*
X31394295Y12755525D01*
X31394295Y12755525D02*
X31299057Y12803144D01*
X31299057Y12803144D02*
X31251438Y12850763D01*
X31251438Y12850763D02*
X31203819Y12946001D01*
X32203819Y13707906D02*
X31203819Y13707906D01*
X31822866Y13803144D02*
X32203819Y14088858D01*
X31537152Y14088858D02*
X31918104Y13707906D01*
D11*
X30326149Y12362667D02*
X30088054Y12196001D01*
X30326149Y12076953D02*
X29826149Y12076953D01*
X29826149Y12076953D02*
X29826149Y12267429D01*
X29826149Y12267429D02*
X29849959Y12315048D01*
X29849959Y12315048D02*
X29873768Y12338858D01*
X29873768Y12338858D02*
X29921387Y12362667D01*
X29921387Y12362667D02*
X29992816Y12362667D01*
X29992816Y12362667D02*
X30040435Y12338858D01*
X30040435Y12338858D02*
X30064244Y12315048D01*
X30064244Y12315048D02*
X30088054Y12267429D01*
X30088054Y12267429D02*
X30088054Y12076953D01*
X30040435Y12648382D02*
X30016625Y12600763D01*
X30016625Y12600763D02*
X29992816Y12576953D01*
X29992816Y12576953D02*
X29945197Y12553144D01*
X29945197Y12553144D02*
X29921387Y12553144D01*
X29921387Y12553144D02*
X29873768Y12576953D01*
X29873768Y12576953D02*
X29849959Y12600763D01*
X29849959Y12600763D02*
X29826149Y12648382D01*
X29826149Y12648382D02*
X29826149Y12743620D01*
X29826149Y12743620D02*
X29849959Y12791239D01*
X29849959Y12791239D02*
X29873768Y12815048D01*
X29873768Y12815048D02*
X29921387Y12838858D01*
X29921387Y12838858D02*
X29945197Y12838858D01*
X29945197Y12838858D02*
X29992816Y12815048D01*
X29992816Y12815048D02*
X30016625Y12791239D01*
X30016625Y12791239D02*
X30040435Y12743620D01*
X30040435Y12743620D02*
X30040435Y12648382D01*
X30040435Y12648382D02*
X30064244Y12600763D01*
X30064244Y12600763D02*
X30088054Y12576953D01*
X30088054Y12576953D02*
X30135673Y12553144D01*
X30135673Y12553144D02*
X30230911Y12553144D01*
X30230911Y12553144D02*
X30278530Y12576953D01*
X30278530Y12576953D02*
X30302340Y12600763D01*
X30302340Y12600763D02*
X30326149Y12648382D01*
X30326149Y12648382D02*
X30326149Y12743620D01*
X30326149Y12743620D02*
X30302340Y12791239D01*
X30302340Y12791239D02*
X30278530Y12815048D01*
X30278530Y12815048D02*
X30230911Y12838858D01*
X30230911Y12838858D02*
X30135673Y12838858D01*
X30135673Y12838858D02*
X30088054Y12815048D01*
X30088054Y12815048D02*
X30064244Y12791239D01*
X30064244Y12791239D02*
X30040435Y12743620D01*
D10*
X28903819Y38806572D02*
X28903819Y38235144D01*
X28903819Y38520858D02*
X27903819Y38520858D01*
X27903819Y38520858D02*
X28046676Y38425620D01*
X28046676Y38425620D02*
X28141914Y38330382D01*
X28141914Y38330382D02*
X28189533Y38235144D01*
X27903819Y39425620D02*
X27903819Y39520858D01*
X27903819Y39520858D02*
X27951438Y39616096D01*
X27951438Y39616096D02*
X27999057Y39663715D01*
X27999057Y39663715D02*
X28094295Y39711334D01*
X28094295Y39711334D02*
X28284771Y39758953D01*
X28284771Y39758953D02*
X28522866Y39758953D01*
X28522866Y39758953D02*
X28713342Y39711334D01*
X28713342Y39711334D02*
X28808580Y39663715D01*
X28808580Y39663715D02*
X28856200Y39616096D01*
X28856200Y39616096D02*
X28903819Y39520858D01*
X28903819Y39520858D02*
X28903819Y39425620D01*
X28903819Y39425620D02*
X28856200Y39330382D01*
X28856200Y39330382D02*
X28808580Y39282763D01*
X28808580Y39282763D02*
X28713342Y39235144D01*
X28713342Y39235144D02*
X28522866Y39187525D01*
X28522866Y39187525D02*
X28284771Y39187525D01*
X28284771Y39187525D02*
X28094295Y39235144D01*
X28094295Y39235144D02*
X27999057Y39282763D01*
X27999057Y39282763D02*
X27951438Y39330382D01*
X27951438Y39330382D02*
X27903819Y39425620D01*
X27903819Y40378001D02*
X27903819Y40473239D01*
X27903819Y40473239D02*
X27951438Y40568477D01*
X27951438Y40568477D02*
X27999057Y40616096D01*
X27999057Y40616096D02*
X28094295Y40663715D01*
X28094295Y40663715D02*
X28284771Y40711334D01*
X28284771Y40711334D02*
X28522866Y40711334D01*
X28522866Y40711334D02*
X28713342Y40663715D01*
X28713342Y40663715D02*
X28808580Y40616096D01*
X28808580Y40616096D02*
X28856200Y40568477D01*
X28856200Y40568477D02*
X28903819Y40473239D01*
X28903819Y40473239D02*
X28903819Y40378001D01*
X28903819Y40378001D02*
X28856200Y40282763D01*
X28856200Y40282763D02*
X28808580Y40235144D01*
X28808580Y40235144D02*
X28713342Y40187525D01*
X28713342Y40187525D02*
X28522866Y40139906D01*
X28522866Y40139906D02*
X28284771Y40139906D01*
X28284771Y40139906D02*
X28094295Y40187525D01*
X28094295Y40187525D02*
X27999057Y40235144D01*
X27999057Y40235144D02*
X27951438Y40282763D01*
X27951438Y40282763D02*
X27903819Y40378001D01*
X28903819Y41139906D02*
X27903819Y41139906D01*
X28522866Y41235144D02*
X28903819Y41520858D01*
X28237152Y41520858D02*
X28618104Y41139906D01*
D11*
X30326149Y39794667D02*
X30088054Y39628001D01*
X30326149Y39508953D02*
X29826149Y39508953D01*
X29826149Y39508953D02*
X29826149Y39699429D01*
X29826149Y39699429D02*
X29849959Y39747048D01*
X29849959Y39747048D02*
X29873768Y39770858D01*
X29873768Y39770858D02*
X29921387Y39794667D01*
X29921387Y39794667D02*
X29992816Y39794667D01*
X29992816Y39794667D02*
X30040435Y39770858D01*
X30040435Y39770858D02*
X30064244Y39747048D01*
X30064244Y39747048D02*
X30088054Y39699429D01*
X30088054Y39699429D02*
X30088054Y39508953D01*
X30326149Y40032763D02*
X30326149Y40128001D01*
X30326149Y40128001D02*
X30302340Y40175620D01*
X30302340Y40175620D02*
X30278530Y40199429D01*
X30278530Y40199429D02*
X30207101Y40247048D01*
X30207101Y40247048D02*
X30111863Y40270858D01*
X30111863Y40270858D02*
X29921387Y40270858D01*
X29921387Y40270858D02*
X29873768Y40247048D01*
X29873768Y40247048D02*
X29849959Y40223239D01*
X29849959Y40223239D02*
X29826149Y40175620D01*
X29826149Y40175620D02*
X29826149Y40080382D01*
X29826149Y40080382D02*
X29849959Y40032763D01*
X29849959Y40032763D02*
X29873768Y40008953D01*
X29873768Y40008953D02*
X29921387Y39985144D01*
X29921387Y39985144D02*
X30040435Y39985144D01*
X30040435Y39985144D02*
X30088054Y40008953D01*
X30088054Y40008953D02*
X30111863Y40032763D01*
X30111863Y40032763D02*
X30135673Y40080382D01*
X30135673Y40080382D02*
X30135673Y40175620D01*
X30135673Y40175620D02*
X30111863Y40223239D01*
X30111863Y40223239D02*
X30088054Y40247048D01*
X30088054Y40247048D02*
X30040435Y40270858D01*
D10*
X20566238Y26755848D02*
X20566238Y26089181D01*
X20328143Y27136800D02*
X20090048Y26422515D01*
X20090048Y26422515D02*
X20709095Y26422515D01*
X20994810Y27089181D02*
X21661476Y27089181D01*
X21661476Y27089181D02*
X21232905Y26089181D01*
X22042429Y26184420D02*
X22090048Y26136800D01*
X22090048Y26136800D02*
X22042429Y26089181D01*
X22042429Y26089181D02*
X21994810Y26136800D01*
X21994810Y26136800D02*
X22042429Y26184420D01*
X22042429Y26184420D02*
X22042429Y26089181D01*
X22947190Y26755848D02*
X22947190Y26089181D01*
X22709095Y27136800D02*
X22471000Y26422515D01*
X22471000Y26422515D02*
X23090047Y26422515D01*
X23471000Y26089181D02*
X23471000Y27089181D01*
X23566238Y26470134D02*
X23851952Y26089181D01*
X23851952Y26755848D02*
X23471000Y26374896D01*
D11*
X21887666Y27966851D02*
X21721000Y28204946D01*
X21601952Y27966851D02*
X21601952Y28466851D01*
X21601952Y28466851D02*
X21792428Y28466851D01*
X21792428Y28466851D02*
X21840047Y28443041D01*
X21840047Y28443041D02*
X21863857Y28419232D01*
X21863857Y28419232D02*
X21887666Y28371613D01*
X21887666Y28371613D02*
X21887666Y28300184D01*
X21887666Y28300184D02*
X21863857Y28252565D01*
X21863857Y28252565D02*
X21840047Y28228756D01*
X21840047Y28228756D02*
X21792428Y28204946D01*
X21792428Y28204946D02*
X21601952Y28204946D01*
X22316238Y28300184D02*
X22316238Y27966851D01*
X22197190Y28490660D02*
X22078143Y28133518D01*
X22078143Y28133518D02*
X22387666Y28133518D01*
D10*
X20566238Y22691848D02*
X20566238Y22025181D01*
X20328143Y23072800D02*
X20090048Y22358515D01*
X20090048Y22358515D02*
X20709095Y22358515D01*
X20994810Y23025181D02*
X21661476Y23025181D01*
X21661476Y23025181D02*
X21232905Y22025181D01*
X22042429Y22120420D02*
X22090048Y22072800D01*
X22090048Y22072800D02*
X22042429Y22025181D01*
X22042429Y22025181D02*
X21994810Y22072800D01*
X21994810Y22072800D02*
X22042429Y22120420D01*
X22042429Y22120420D02*
X22042429Y22025181D01*
X22947190Y22691848D02*
X22947190Y22025181D01*
X22709095Y23072800D02*
X22471000Y22358515D01*
X22471000Y22358515D02*
X23090047Y22358515D01*
X23471000Y22025181D02*
X23471000Y23025181D01*
X23566238Y22406134D02*
X23851952Y22025181D01*
X23851952Y22691848D02*
X23471000Y22310896D01*
D11*
X21887666Y23902851D02*
X21721000Y24140946D01*
X21601952Y23902851D02*
X21601952Y24402851D01*
X21601952Y24402851D02*
X21792428Y24402851D01*
X21792428Y24402851D02*
X21840047Y24379041D01*
X21840047Y24379041D02*
X21863857Y24355232D01*
X21863857Y24355232D02*
X21887666Y24307613D01*
X21887666Y24307613D02*
X21887666Y24236184D01*
X21887666Y24236184D02*
X21863857Y24188565D01*
X21863857Y24188565D02*
X21840047Y24164756D01*
X21840047Y24164756D02*
X21792428Y24140946D01*
X21792428Y24140946D02*
X21601952Y24140946D01*
X22363857Y23902851D02*
X22078143Y23902851D01*
X22221000Y23902851D02*
X22221000Y24402851D01*
X22221000Y24402851D02*
X22173381Y24331422D01*
X22173381Y24331422D02*
X22125762Y24283803D01*
X22125762Y24283803D02*
X22078143Y24259994D01*
D10*
X42560904Y34201181D02*
X42084714Y34201181D01*
X42084714Y34201181D02*
X42037095Y33724991D01*
X42037095Y33724991D02*
X42084714Y33772610D01*
X42084714Y33772610D02*
X42179952Y33820229D01*
X42179952Y33820229D02*
X42418047Y33820229D01*
X42418047Y33820229D02*
X42513285Y33772610D01*
X42513285Y33772610D02*
X42560904Y33724991D01*
X42560904Y33724991D02*
X42608523Y33629753D01*
X42608523Y33629753D02*
X42608523Y33391658D01*
X42608523Y33391658D02*
X42560904Y33296420D01*
X42560904Y33296420D02*
X42513285Y33248800D01*
X42513285Y33248800D02*
X42418047Y33201181D01*
X42418047Y33201181D02*
X42179952Y33201181D01*
X42179952Y33201181D02*
X42084714Y33248800D01*
X42084714Y33248800D02*
X42037095Y33296420D01*
X43465666Y34201181D02*
X43275190Y34201181D01*
X43275190Y34201181D02*
X43179952Y34153562D01*
X43179952Y34153562D02*
X43132333Y34105943D01*
X43132333Y34105943D02*
X43037095Y33963086D01*
X43037095Y33963086D02*
X42989476Y33772610D01*
X42989476Y33772610D02*
X42989476Y33391658D01*
X42989476Y33391658D02*
X43037095Y33296420D01*
X43037095Y33296420D02*
X43084714Y33248800D01*
X43084714Y33248800D02*
X43179952Y33201181D01*
X43179952Y33201181D02*
X43370428Y33201181D01*
X43370428Y33201181D02*
X43465666Y33248800D01*
X43465666Y33248800D02*
X43513285Y33296420D01*
X43513285Y33296420D02*
X43560904Y33391658D01*
X43560904Y33391658D02*
X43560904Y33629753D01*
X43560904Y33629753D02*
X43513285Y33724991D01*
X43513285Y33724991D02*
X43465666Y33772610D01*
X43465666Y33772610D02*
X43370428Y33820229D01*
X43370428Y33820229D02*
X43179952Y33820229D01*
X43179952Y33820229D02*
X43084714Y33772610D01*
X43084714Y33772610D02*
X43037095Y33724991D01*
X43037095Y33724991D02*
X42989476Y33629753D01*
D11*
X42715666Y35078851D02*
X42549000Y35316946D01*
X42429952Y35078851D02*
X42429952Y35578851D01*
X42429952Y35578851D02*
X42620428Y35578851D01*
X42620428Y35578851D02*
X42668047Y35555041D01*
X42668047Y35555041D02*
X42691857Y35531232D01*
X42691857Y35531232D02*
X42715666Y35483613D01*
X42715666Y35483613D02*
X42715666Y35412184D01*
X42715666Y35412184D02*
X42691857Y35364565D01*
X42691857Y35364565D02*
X42668047Y35340756D01*
X42668047Y35340756D02*
X42620428Y35316946D01*
X42620428Y35316946D02*
X42429952Y35316946D01*
X42882333Y35578851D02*
X43215666Y35578851D01*
X43215666Y35578851D02*
X43001381Y35078851D01*
D10*
X97045580Y32842905D02*
X97093200Y32795286D01*
X97093200Y32795286D02*
X97140819Y32652429D01*
X97140819Y32652429D02*
X97140819Y32557191D01*
X97140819Y32557191D02*
X97093200Y32414334D01*
X97093200Y32414334D02*
X96997961Y32319096D01*
X96997961Y32319096D02*
X96902723Y32271477D01*
X96902723Y32271477D02*
X96712247Y32223858D01*
X96712247Y32223858D02*
X96569390Y32223858D01*
X96569390Y32223858D02*
X96378914Y32271477D01*
X96378914Y32271477D02*
X96283676Y32319096D01*
X96283676Y32319096D02*
X96188438Y32414334D01*
X96188438Y32414334D02*
X96140819Y32557191D01*
X96140819Y32557191D02*
X96140819Y32652429D01*
X96140819Y32652429D02*
X96188438Y32795286D01*
X96188438Y32795286D02*
X96236057Y32842905D01*
X97140819Y33414334D02*
X97093200Y33319096D01*
X97093200Y33319096D02*
X97045580Y33271477D01*
X97045580Y33271477D02*
X96950342Y33223858D01*
X96950342Y33223858D02*
X96664628Y33223858D01*
X96664628Y33223858D02*
X96569390Y33271477D01*
X96569390Y33271477D02*
X96521771Y33319096D01*
X96521771Y33319096D02*
X96474152Y33414334D01*
X96474152Y33414334D02*
X96474152Y33557191D01*
X96474152Y33557191D02*
X96521771Y33652429D01*
X96521771Y33652429D02*
X96569390Y33700048D01*
X96569390Y33700048D02*
X96664628Y33747667D01*
X96664628Y33747667D02*
X96950342Y33747667D01*
X96950342Y33747667D02*
X97045580Y33700048D01*
X97045580Y33700048D02*
X97093200Y33652429D01*
X97093200Y33652429D02*
X97140819Y33557191D01*
X97140819Y33557191D02*
X97140819Y33414334D01*
X96474152Y34176239D02*
X97140819Y34176239D01*
X96569390Y34176239D02*
X96521771Y34223858D01*
X96521771Y34223858D02*
X96474152Y34319096D01*
X96474152Y34319096D02*
X96474152Y34461953D01*
X96474152Y34461953D02*
X96521771Y34557191D01*
X96521771Y34557191D02*
X96617009Y34604810D01*
X96617009Y34604810D02*
X97140819Y34604810D01*
X96474152Y35081001D02*
X97140819Y35081001D01*
X96569390Y35081001D02*
X96521771Y35128620D01*
X96521771Y35128620D02*
X96474152Y35223858D01*
X96474152Y35223858D02*
X96474152Y35366715D01*
X96474152Y35366715D02*
X96521771Y35461953D01*
X96521771Y35461953D02*
X96617009Y35509572D01*
X96617009Y35509572D02*
X97140819Y35509572D01*
X97236057Y35747667D02*
X97236057Y36509572D01*
X96140819Y36938144D02*
X96140819Y37033382D01*
X96140819Y37033382D02*
X96188438Y37128620D01*
X96188438Y37128620D02*
X96236057Y37176239D01*
X96236057Y37176239D02*
X96331295Y37223858D01*
X96331295Y37223858D02*
X96521771Y37271477D01*
X96521771Y37271477D02*
X96759866Y37271477D01*
X96759866Y37271477D02*
X96950342Y37223858D01*
X96950342Y37223858D02*
X97045580Y37176239D01*
X97045580Y37176239D02*
X97093200Y37128620D01*
X97093200Y37128620D02*
X97140819Y37033382D01*
X97140819Y37033382D02*
X97140819Y36938144D01*
X97140819Y36938144D02*
X97093200Y36842906D01*
X97093200Y36842906D02*
X97045580Y36795287D01*
X97045580Y36795287D02*
X96950342Y36747668D01*
X96950342Y36747668D02*
X96759866Y36700049D01*
X96759866Y36700049D02*
X96521771Y36700049D01*
X96521771Y36700049D02*
X96331295Y36747668D01*
X96331295Y36747668D02*
X96236057Y36795287D01*
X96236057Y36795287D02*
X96188438Y36842906D01*
X96188438Y36842906D02*
X96140819Y36938144D01*
X97140819Y38223858D02*
X97140819Y37652430D01*
X97140819Y37938144D02*
X96140819Y37938144D01*
X96140819Y37938144D02*
X96283676Y37842906D01*
X96283676Y37842906D02*
X96378914Y37747668D01*
X96378914Y37747668D02*
X96426533Y37652430D01*
X97140819Y38557192D02*
X96474152Y39081001D01*
X96474152Y38557192D02*
X97140819Y39081001D01*
X96140819Y39652430D02*
X96140819Y39747668D01*
X96140819Y39747668D02*
X96188438Y39842906D01*
X96188438Y39842906D02*
X96236057Y39890525D01*
X96236057Y39890525D02*
X96331295Y39938144D01*
X96331295Y39938144D02*
X96521771Y39985763D01*
X96521771Y39985763D02*
X96759866Y39985763D01*
X96759866Y39985763D02*
X96950342Y39938144D01*
X96950342Y39938144D02*
X97045580Y39890525D01*
X97045580Y39890525D02*
X97093200Y39842906D01*
X97093200Y39842906D02*
X97140819Y39747668D01*
X97140819Y39747668D02*
X97140819Y39652430D01*
X97140819Y39652430D02*
X97093200Y39557192D01*
X97093200Y39557192D02*
X97045580Y39509573D01*
X97045580Y39509573D02*
X96950342Y39461954D01*
X96950342Y39461954D02*
X96759866Y39414335D01*
X96759866Y39414335D02*
X96521771Y39414335D01*
X96521771Y39414335D02*
X96331295Y39461954D01*
X96331295Y39461954D02*
X96236057Y39509573D01*
X96236057Y39509573D02*
X96188438Y39557192D01*
X96188438Y39557192D02*
X96140819Y39652430D01*
X96236057Y40366716D02*
X96188438Y40414335D01*
X96188438Y40414335D02*
X96140819Y40509573D01*
X96140819Y40509573D02*
X96140819Y40747668D01*
X96140819Y40747668D02*
X96188438Y40842906D01*
X96188438Y40842906D02*
X96236057Y40890525D01*
X96236057Y40890525D02*
X96331295Y40938144D01*
X96331295Y40938144D02*
X96426533Y40938144D01*
X96426533Y40938144D02*
X96569390Y40890525D01*
X96569390Y40890525D02*
X97140819Y40319097D01*
X97140819Y40319097D02*
X97140819Y40938144D01*
X92752666Y37126181D02*
X92752666Y36411896D01*
X92752666Y36411896D02*
X92705047Y36269039D01*
X92705047Y36269039D02*
X92609809Y36173800D01*
X92609809Y36173800D02*
X92466952Y36126181D01*
X92466952Y36126181D02*
X92371714Y36126181D01*
X93133619Y37126181D02*
X93800285Y37126181D01*
X93800285Y37126181D02*
X93371714Y36126181D01*
X97045580Y22931905D02*
X97093200Y22884286D01*
X97093200Y22884286D02*
X97140819Y22741429D01*
X97140819Y22741429D02*
X97140819Y22646191D01*
X97140819Y22646191D02*
X97093200Y22503334D01*
X97093200Y22503334D02*
X96997961Y22408096D01*
X96997961Y22408096D02*
X96902723Y22360477D01*
X96902723Y22360477D02*
X96712247Y22312858D01*
X96712247Y22312858D02*
X96569390Y22312858D01*
X96569390Y22312858D02*
X96378914Y22360477D01*
X96378914Y22360477D02*
X96283676Y22408096D01*
X96283676Y22408096D02*
X96188438Y22503334D01*
X96188438Y22503334D02*
X96140819Y22646191D01*
X96140819Y22646191D02*
X96140819Y22741429D01*
X96140819Y22741429D02*
X96188438Y22884286D01*
X96188438Y22884286D02*
X96236057Y22931905D01*
X97140819Y23503334D02*
X97093200Y23408096D01*
X97093200Y23408096D02*
X97045580Y23360477D01*
X97045580Y23360477D02*
X96950342Y23312858D01*
X96950342Y23312858D02*
X96664628Y23312858D01*
X96664628Y23312858D02*
X96569390Y23360477D01*
X96569390Y23360477D02*
X96521771Y23408096D01*
X96521771Y23408096D02*
X96474152Y23503334D01*
X96474152Y23503334D02*
X96474152Y23646191D01*
X96474152Y23646191D02*
X96521771Y23741429D01*
X96521771Y23741429D02*
X96569390Y23789048D01*
X96569390Y23789048D02*
X96664628Y23836667D01*
X96664628Y23836667D02*
X96950342Y23836667D01*
X96950342Y23836667D02*
X97045580Y23789048D01*
X97045580Y23789048D02*
X97093200Y23741429D01*
X97093200Y23741429D02*
X97140819Y23646191D01*
X97140819Y23646191D02*
X97140819Y23503334D01*
X96474152Y24265239D02*
X97140819Y24265239D01*
X96569390Y24265239D02*
X96521771Y24312858D01*
X96521771Y24312858D02*
X96474152Y24408096D01*
X96474152Y24408096D02*
X96474152Y24550953D01*
X96474152Y24550953D02*
X96521771Y24646191D01*
X96521771Y24646191D02*
X96617009Y24693810D01*
X96617009Y24693810D02*
X97140819Y24693810D01*
X96474152Y25170001D02*
X97140819Y25170001D01*
X96569390Y25170001D02*
X96521771Y25217620D01*
X96521771Y25217620D02*
X96474152Y25312858D01*
X96474152Y25312858D02*
X96474152Y25455715D01*
X96474152Y25455715D02*
X96521771Y25550953D01*
X96521771Y25550953D02*
X96617009Y25598572D01*
X96617009Y25598572D02*
X97140819Y25598572D01*
X97236057Y25836667D02*
X97236057Y26598572D01*
X96140819Y27027144D02*
X96140819Y27122382D01*
X96140819Y27122382D02*
X96188438Y27217620D01*
X96188438Y27217620D02*
X96236057Y27265239D01*
X96236057Y27265239D02*
X96331295Y27312858D01*
X96331295Y27312858D02*
X96521771Y27360477D01*
X96521771Y27360477D02*
X96759866Y27360477D01*
X96759866Y27360477D02*
X96950342Y27312858D01*
X96950342Y27312858D02*
X97045580Y27265239D01*
X97045580Y27265239D02*
X97093200Y27217620D01*
X97093200Y27217620D02*
X97140819Y27122382D01*
X97140819Y27122382D02*
X97140819Y27027144D01*
X97140819Y27027144D02*
X97093200Y26931906D01*
X97093200Y26931906D02*
X97045580Y26884287D01*
X97045580Y26884287D02*
X96950342Y26836668D01*
X96950342Y26836668D02*
X96759866Y26789049D01*
X96759866Y26789049D02*
X96521771Y26789049D01*
X96521771Y26789049D02*
X96331295Y26836668D01*
X96331295Y26836668D02*
X96236057Y26884287D01*
X96236057Y26884287D02*
X96188438Y26931906D01*
X96188438Y26931906D02*
X96140819Y27027144D01*
X97140819Y28312858D02*
X97140819Y27741430D01*
X97140819Y28027144D02*
X96140819Y28027144D01*
X96140819Y28027144D02*
X96283676Y27931906D01*
X96283676Y27931906D02*
X96378914Y27836668D01*
X96378914Y27836668D02*
X96426533Y27741430D01*
X97140819Y28646192D02*
X96474152Y29170001D01*
X96474152Y28646192D02*
X97140819Y29170001D01*
X96140819Y29741430D02*
X96140819Y29836668D01*
X96140819Y29836668D02*
X96188438Y29931906D01*
X96188438Y29931906D02*
X96236057Y29979525D01*
X96236057Y29979525D02*
X96331295Y30027144D01*
X96331295Y30027144D02*
X96521771Y30074763D01*
X96521771Y30074763D02*
X96759866Y30074763D01*
X96759866Y30074763D02*
X96950342Y30027144D01*
X96950342Y30027144D02*
X97045580Y29979525D01*
X97045580Y29979525D02*
X97093200Y29931906D01*
X97093200Y29931906D02*
X97140819Y29836668D01*
X97140819Y29836668D02*
X97140819Y29741430D01*
X97140819Y29741430D02*
X97093200Y29646192D01*
X97093200Y29646192D02*
X97045580Y29598573D01*
X97045580Y29598573D02*
X96950342Y29550954D01*
X96950342Y29550954D02*
X96759866Y29503335D01*
X96759866Y29503335D02*
X96521771Y29503335D01*
X96521771Y29503335D02*
X96331295Y29550954D01*
X96331295Y29550954D02*
X96236057Y29598573D01*
X96236057Y29598573D02*
X96188438Y29646192D01*
X96188438Y29646192D02*
X96140819Y29741430D01*
X96236057Y30455716D02*
X96188438Y30503335D01*
X96188438Y30503335D02*
X96140819Y30598573D01*
X96140819Y30598573D02*
X96140819Y30836668D01*
X96140819Y30836668D02*
X96188438Y30931906D01*
X96188438Y30931906D02*
X96236057Y30979525D01*
X96236057Y30979525D02*
X96331295Y31027144D01*
X96331295Y31027144D02*
X96426533Y31027144D01*
X96426533Y31027144D02*
X96569390Y30979525D01*
X96569390Y30979525D02*
X97140819Y30408097D01*
X97140819Y30408097D02*
X97140819Y31027144D01*
X92752666Y27215181D02*
X92752666Y26500896D01*
X92752666Y26500896D02*
X92705047Y26358039D01*
X92705047Y26358039D02*
X92609809Y26262800D01*
X92609809Y26262800D02*
X92466952Y26215181D01*
X92466952Y26215181D02*
X92371714Y26215181D01*
X93657428Y27215181D02*
X93466952Y27215181D01*
X93466952Y27215181D02*
X93371714Y27167562D01*
X93371714Y27167562D02*
X93324095Y27119943D01*
X93324095Y27119943D02*
X93228857Y26977086D01*
X93228857Y26977086D02*
X93181238Y26786610D01*
X93181238Y26786610D02*
X93181238Y26405658D01*
X93181238Y26405658D02*
X93228857Y26310420D01*
X93228857Y26310420D02*
X93276476Y26262800D01*
X93276476Y26262800D02*
X93371714Y26215181D01*
X93371714Y26215181D02*
X93562190Y26215181D01*
X93562190Y26215181D02*
X93657428Y26262800D01*
X93657428Y26262800D02*
X93705047Y26310420D01*
X93705047Y26310420D02*
X93752666Y26405658D01*
X93752666Y26405658D02*
X93752666Y26643753D01*
X93752666Y26643753D02*
X93705047Y26738991D01*
X93705047Y26738991D02*
X93657428Y26786610D01*
X93657428Y26786610D02*
X93562190Y26834229D01*
X93562190Y26834229D02*
X93371714Y26834229D01*
X93371714Y26834229D02*
X93276476Y26786610D01*
X93276476Y26786610D02*
X93228857Y26738991D01*
X93228857Y26738991D02*
X93181238Y26643753D01*
X46680904Y5692420D02*
X46633285Y5644800D01*
X46633285Y5644800D02*
X46490428Y5597181D01*
X46490428Y5597181D02*
X46395190Y5597181D01*
X46395190Y5597181D02*
X46252333Y5644800D01*
X46252333Y5644800D02*
X46157095Y5740039D01*
X46157095Y5740039D02*
X46109476Y5835277D01*
X46109476Y5835277D02*
X46061857Y6025753D01*
X46061857Y6025753D02*
X46061857Y6168610D01*
X46061857Y6168610D02*
X46109476Y6359086D01*
X46109476Y6359086D02*
X46157095Y6454324D01*
X46157095Y6454324D02*
X46252333Y6549562D01*
X46252333Y6549562D02*
X46395190Y6597181D01*
X46395190Y6597181D02*
X46490428Y6597181D01*
X46490428Y6597181D02*
X46633285Y6549562D01*
X46633285Y6549562D02*
X46680904Y6501943D01*
X47252333Y5597181D02*
X47157095Y5644800D01*
X47157095Y5644800D02*
X47109476Y5692420D01*
X47109476Y5692420D02*
X47061857Y5787658D01*
X47061857Y5787658D02*
X47061857Y6073372D01*
X47061857Y6073372D02*
X47109476Y6168610D01*
X47109476Y6168610D02*
X47157095Y6216229D01*
X47157095Y6216229D02*
X47252333Y6263848D01*
X47252333Y6263848D02*
X47395190Y6263848D01*
X47395190Y6263848D02*
X47490428Y6216229D01*
X47490428Y6216229D02*
X47538047Y6168610D01*
X47538047Y6168610D02*
X47585666Y6073372D01*
X47585666Y6073372D02*
X47585666Y5787658D01*
X47585666Y5787658D02*
X47538047Y5692420D01*
X47538047Y5692420D02*
X47490428Y5644800D01*
X47490428Y5644800D02*
X47395190Y5597181D01*
X47395190Y5597181D02*
X47252333Y5597181D01*
X48014238Y6263848D02*
X48014238Y5597181D01*
X48014238Y6168610D02*
X48061857Y6216229D01*
X48061857Y6216229D02*
X48157095Y6263848D01*
X48157095Y6263848D02*
X48299952Y6263848D01*
X48299952Y6263848D02*
X48395190Y6216229D01*
X48395190Y6216229D02*
X48442809Y6120991D01*
X48442809Y6120991D02*
X48442809Y5597181D01*
X48919000Y6263848D02*
X48919000Y5597181D01*
X48919000Y6168610D02*
X48966619Y6216229D01*
X48966619Y6216229D02*
X49061857Y6263848D01*
X49061857Y6263848D02*
X49204714Y6263848D01*
X49204714Y6263848D02*
X49299952Y6216229D01*
X49299952Y6216229D02*
X49347571Y6120991D01*
X49347571Y6120991D02*
X49347571Y5597181D01*
X49585667Y5501943D02*
X50347571Y5501943D01*
X50776143Y6597181D02*
X50871381Y6597181D01*
X50871381Y6597181D02*
X50966619Y6549562D01*
X50966619Y6549562D02*
X51014238Y6501943D01*
X51014238Y6501943D02*
X51061857Y6406705D01*
X51061857Y6406705D02*
X51109476Y6216229D01*
X51109476Y6216229D02*
X51109476Y5978134D01*
X51109476Y5978134D02*
X51061857Y5787658D01*
X51061857Y5787658D02*
X51014238Y5692420D01*
X51014238Y5692420D02*
X50966619Y5644800D01*
X50966619Y5644800D02*
X50871381Y5597181D01*
X50871381Y5597181D02*
X50776143Y5597181D01*
X50776143Y5597181D02*
X50680905Y5644800D01*
X50680905Y5644800D02*
X50633286Y5692420D01*
X50633286Y5692420D02*
X50585667Y5787658D01*
X50585667Y5787658D02*
X50538048Y5978134D01*
X50538048Y5978134D02*
X50538048Y6216229D01*
X50538048Y6216229D02*
X50585667Y6406705D01*
X50585667Y6406705D02*
X50633286Y6501943D01*
X50633286Y6501943D02*
X50680905Y6549562D01*
X50680905Y6549562D02*
X50776143Y6597181D01*
X52061857Y5597181D02*
X51490429Y5597181D01*
X51776143Y5597181D02*
X51776143Y6597181D01*
X51776143Y6597181D02*
X51680905Y6454324D01*
X51680905Y6454324D02*
X51585667Y6359086D01*
X51585667Y6359086D02*
X51490429Y6311467D01*
X52395191Y5597181D02*
X52919000Y6263848D01*
X52395191Y6263848D02*
X52919000Y5597181D01*
X53490429Y6597181D02*
X53585667Y6597181D01*
X53585667Y6597181D02*
X53680905Y6549562D01*
X53680905Y6549562D02*
X53728524Y6501943D01*
X53728524Y6501943D02*
X53776143Y6406705D01*
X53776143Y6406705D02*
X53823762Y6216229D01*
X53823762Y6216229D02*
X53823762Y5978134D01*
X53823762Y5978134D02*
X53776143Y5787658D01*
X53776143Y5787658D02*
X53728524Y5692420D01*
X53728524Y5692420D02*
X53680905Y5644800D01*
X53680905Y5644800D02*
X53585667Y5597181D01*
X53585667Y5597181D02*
X53490429Y5597181D01*
X53490429Y5597181D02*
X53395191Y5644800D01*
X53395191Y5644800D02*
X53347572Y5692420D01*
X53347572Y5692420D02*
X53299953Y5787658D01*
X53299953Y5787658D02*
X53252334Y5978134D01*
X53252334Y5978134D02*
X53252334Y6216229D01*
X53252334Y6216229D02*
X53299953Y6406705D01*
X53299953Y6406705D02*
X53347572Y6501943D01*
X53347572Y6501943D02*
X53395191Y6549562D01*
X53395191Y6549562D02*
X53490429Y6597181D01*
X54204715Y6501943D02*
X54252334Y6549562D01*
X54252334Y6549562D02*
X54347572Y6597181D01*
X54347572Y6597181D02*
X54585667Y6597181D01*
X54585667Y6597181D02*
X54680905Y6549562D01*
X54680905Y6549562D02*
X54728524Y6501943D01*
X54728524Y6501943D02*
X54776143Y6406705D01*
X54776143Y6406705D02*
X54776143Y6311467D01*
X54776143Y6311467D02*
X54728524Y6168610D01*
X54728524Y6168610D02*
X54157096Y5597181D01*
X54157096Y5597181D02*
X54776143Y5597181D01*
X49873819Y9318667D02*
X50588104Y9318667D01*
X50588104Y9318667D02*
X50730961Y9271048D01*
X50730961Y9271048D02*
X50826200Y9175810D01*
X50826200Y9175810D02*
X50873819Y9032953D01*
X50873819Y9032953D02*
X50873819Y8937715D01*
X50207152Y10223429D02*
X50873819Y10223429D01*
X49826200Y9985334D02*
X50540485Y9747239D01*
X50540485Y9747239D02*
X50540485Y10366286D01*
X49728904Y36939420D02*
X49681285Y36891800D01*
X49681285Y36891800D02*
X49538428Y36844181D01*
X49538428Y36844181D02*
X49443190Y36844181D01*
X49443190Y36844181D02*
X49300333Y36891800D01*
X49300333Y36891800D02*
X49205095Y36987039D01*
X49205095Y36987039D02*
X49157476Y37082277D01*
X49157476Y37082277D02*
X49109857Y37272753D01*
X49109857Y37272753D02*
X49109857Y37415610D01*
X49109857Y37415610D02*
X49157476Y37606086D01*
X49157476Y37606086D02*
X49205095Y37701324D01*
X49205095Y37701324D02*
X49300333Y37796562D01*
X49300333Y37796562D02*
X49443190Y37844181D01*
X49443190Y37844181D02*
X49538428Y37844181D01*
X49538428Y37844181D02*
X49681285Y37796562D01*
X49681285Y37796562D02*
X49728904Y37748943D01*
X50300333Y36844181D02*
X50205095Y36891800D01*
X50205095Y36891800D02*
X50157476Y36939420D01*
X50157476Y36939420D02*
X50109857Y37034658D01*
X50109857Y37034658D02*
X50109857Y37320372D01*
X50109857Y37320372D02*
X50157476Y37415610D01*
X50157476Y37415610D02*
X50205095Y37463229D01*
X50205095Y37463229D02*
X50300333Y37510848D01*
X50300333Y37510848D02*
X50443190Y37510848D01*
X50443190Y37510848D02*
X50538428Y37463229D01*
X50538428Y37463229D02*
X50586047Y37415610D01*
X50586047Y37415610D02*
X50633666Y37320372D01*
X50633666Y37320372D02*
X50633666Y37034658D01*
X50633666Y37034658D02*
X50586047Y36939420D01*
X50586047Y36939420D02*
X50538428Y36891800D01*
X50538428Y36891800D02*
X50443190Y36844181D01*
X50443190Y36844181D02*
X50300333Y36844181D01*
X51062238Y37510848D02*
X51062238Y36844181D01*
X51062238Y37415610D02*
X51109857Y37463229D01*
X51109857Y37463229D02*
X51205095Y37510848D01*
X51205095Y37510848D02*
X51347952Y37510848D01*
X51347952Y37510848D02*
X51443190Y37463229D01*
X51443190Y37463229D02*
X51490809Y37367991D01*
X51490809Y37367991D02*
X51490809Y36844181D01*
X51967000Y37510848D02*
X51967000Y36844181D01*
X51967000Y37415610D02*
X52014619Y37463229D01*
X52014619Y37463229D02*
X52109857Y37510848D01*
X52109857Y37510848D02*
X52252714Y37510848D01*
X52252714Y37510848D02*
X52347952Y37463229D01*
X52347952Y37463229D02*
X52395571Y37367991D01*
X52395571Y37367991D02*
X52395571Y36844181D01*
X52633667Y36748943D02*
X53395571Y36748943D01*
X53824143Y37844181D02*
X53919381Y37844181D01*
X53919381Y37844181D02*
X54014619Y37796562D01*
X54014619Y37796562D02*
X54062238Y37748943D01*
X54062238Y37748943D02*
X54109857Y37653705D01*
X54109857Y37653705D02*
X54157476Y37463229D01*
X54157476Y37463229D02*
X54157476Y37225134D01*
X54157476Y37225134D02*
X54109857Y37034658D01*
X54109857Y37034658D02*
X54062238Y36939420D01*
X54062238Y36939420D02*
X54014619Y36891800D01*
X54014619Y36891800D02*
X53919381Y36844181D01*
X53919381Y36844181D02*
X53824143Y36844181D01*
X53824143Y36844181D02*
X53728905Y36891800D01*
X53728905Y36891800D02*
X53681286Y36939420D01*
X53681286Y36939420D02*
X53633667Y37034658D01*
X53633667Y37034658D02*
X53586048Y37225134D01*
X53586048Y37225134D02*
X53586048Y37463229D01*
X53586048Y37463229D02*
X53633667Y37653705D01*
X53633667Y37653705D02*
X53681286Y37748943D01*
X53681286Y37748943D02*
X53728905Y37796562D01*
X53728905Y37796562D02*
X53824143Y37844181D01*
X55109857Y36844181D02*
X54538429Y36844181D01*
X54824143Y36844181D02*
X54824143Y37844181D01*
X54824143Y37844181D02*
X54728905Y37701324D01*
X54728905Y37701324D02*
X54633667Y37606086D01*
X54633667Y37606086D02*
X54538429Y37558467D01*
X55443191Y36844181D02*
X55967000Y37510848D01*
X55443191Y37510848D02*
X55967000Y36844181D01*
X56538429Y37844181D02*
X56633667Y37844181D01*
X56633667Y37844181D02*
X56728905Y37796562D01*
X56728905Y37796562D02*
X56776524Y37748943D01*
X56776524Y37748943D02*
X56824143Y37653705D01*
X56824143Y37653705D02*
X56871762Y37463229D01*
X56871762Y37463229D02*
X56871762Y37225134D01*
X56871762Y37225134D02*
X56824143Y37034658D01*
X56824143Y37034658D02*
X56776524Y36939420D01*
X56776524Y36939420D02*
X56728905Y36891800D01*
X56728905Y36891800D02*
X56633667Y36844181D01*
X56633667Y36844181D02*
X56538429Y36844181D01*
X56538429Y36844181D02*
X56443191Y36891800D01*
X56443191Y36891800D02*
X56395572Y36939420D01*
X56395572Y36939420D02*
X56347953Y37034658D01*
X56347953Y37034658D02*
X56300334Y37225134D01*
X56300334Y37225134D02*
X56300334Y37463229D01*
X56300334Y37463229D02*
X56347953Y37653705D01*
X56347953Y37653705D02*
X56395572Y37748943D01*
X56395572Y37748943D02*
X56443191Y37796562D01*
X56443191Y37796562D02*
X56538429Y37844181D01*
X57252715Y37748943D02*
X57300334Y37796562D01*
X57300334Y37796562D02*
X57395572Y37844181D01*
X57395572Y37844181D02*
X57633667Y37844181D01*
X57633667Y37844181D02*
X57728905Y37796562D01*
X57728905Y37796562D02*
X57776524Y37748943D01*
X57776524Y37748943D02*
X57824143Y37653705D01*
X57824143Y37653705D02*
X57824143Y37558467D01*
X57824143Y37558467D02*
X57776524Y37415610D01*
X57776524Y37415610D02*
X57205096Y36844181D01*
X57205096Y36844181D02*
X57824143Y36844181D01*
X52921819Y40565667D02*
X53636104Y40565667D01*
X53636104Y40565667D02*
X53778961Y40518048D01*
X53778961Y40518048D02*
X53874200Y40422810D01*
X53874200Y40422810D02*
X53921819Y40279953D01*
X53921819Y40279953D02*
X53921819Y40184715D01*
X52921819Y40946620D02*
X52921819Y41565667D01*
X52921819Y41565667D02*
X53302771Y41232334D01*
X53302771Y41232334D02*
X53302771Y41375191D01*
X53302771Y41375191D02*
X53350390Y41470429D01*
X53350390Y41470429D02*
X53398009Y41518048D01*
X53398009Y41518048D02*
X53493247Y41565667D01*
X53493247Y41565667D02*
X53731342Y41565667D01*
X53731342Y41565667D02*
X53826580Y41518048D01*
X53826580Y41518048D02*
X53874200Y41470429D01*
X53874200Y41470429D02*
X53921819Y41375191D01*
X53921819Y41375191D02*
X53921819Y41089477D01*
X53921819Y41089477D02*
X53874200Y40994239D01*
X53874200Y40994239D02*
X53826580Y40946620D01*
X11628904Y12555420D02*
X11581285Y12507800D01*
X11581285Y12507800D02*
X11438428Y12460181D01*
X11438428Y12460181D02*
X11343190Y12460181D01*
X11343190Y12460181D02*
X11200333Y12507800D01*
X11200333Y12507800D02*
X11105095Y12603039D01*
X11105095Y12603039D02*
X11057476Y12698277D01*
X11057476Y12698277D02*
X11009857Y12888753D01*
X11009857Y12888753D02*
X11009857Y13031610D01*
X11009857Y13031610D02*
X11057476Y13222086D01*
X11057476Y13222086D02*
X11105095Y13317324D01*
X11105095Y13317324D02*
X11200333Y13412562D01*
X11200333Y13412562D02*
X11343190Y13460181D01*
X11343190Y13460181D02*
X11438428Y13460181D01*
X11438428Y13460181D02*
X11581285Y13412562D01*
X11581285Y13412562D02*
X11628904Y13364943D01*
X12200333Y12460181D02*
X12105095Y12507800D01*
X12105095Y12507800D02*
X12057476Y12555420D01*
X12057476Y12555420D02*
X12009857Y12650658D01*
X12009857Y12650658D02*
X12009857Y12936372D01*
X12009857Y12936372D02*
X12057476Y13031610D01*
X12057476Y13031610D02*
X12105095Y13079229D01*
X12105095Y13079229D02*
X12200333Y13126848D01*
X12200333Y13126848D02*
X12343190Y13126848D01*
X12343190Y13126848D02*
X12438428Y13079229D01*
X12438428Y13079229D02*
X12486047Y13031610D01*
X12486047Y13031610D02*
X12533666Y12936372D01*
X12533666Y12936372D02*
X12533666Y12650658D01*
X12533666Y12650658D02*
X12486047Y12555420D01*
X12486047Y12555420D02*
X12438428Y12507800D01*
X12438428Y12507800D02*
X12343190Y12460181D01*
X12343190Y12460181D02*
X12200333Y12460181D01*
X12962238Y13126848D02*
X12962238Y12460181D01*
X12962238Y13031610D02*
X13009857Y13079229D01*
X13009857Y13079229D02*
X13105095Y13126848D01*
X13105095Y13126848D02*
X13247952Y13126848D01*
X13247952Y13126848D02*
X13343190Y13079229D01*
X13343190Y13079229D02*
X13390809Y12983991D01*
X13390809Y12983991D02*
X13390809Y12460181D01*
X13867000Y13126848D02*
X13867000Y12460181D01*
X13867000Y13031610D02*
X13914619Y13079229D01*
X13914619Y13079229D02*
X14009857Y13126848D01*
X14009857Y13126848D02*
X14152714Y13126848D01*
X14152714Y13126848D02*
X14247952Y13079229D01*
X14247952Y13079229D02*
X14295571Y12983991D01*
X14295571Y12983991D02*
X14295571Y12460181D01*
X14533667Y12364943D02*
X15295571Y12364943D01*
X15724143Y13460181D02*
X15819381Y13460181D01*
X15819381Y13460181D02*
X15914619Y13412562D01*
X15914619Y13412562D02*
X15962238Y13364943D01*
X15962238Y13364943D02*
X16009857Y13269705D01*
X16009857Y13269705D02*
X16057476Y13079229D01*
X16057476Y13079229D02*
X16057476Y12841134D01*
X16057476Y12841134D02*
X16009857Y12650658D01*
X16009857Y12650658D02*
X15962238Y12555420D01*
X15962238Y12555420D02*
X15914619Y12507800D01*
X15914619Y12507800D02*
X15819381Y12460181D01*
X15819381Y12460181D02*
X15724143Y12460181D01*
X15724143Y12460181D02*
X15628905Y12507800D01*
X15628905Y12507800D02*
X15581286Y12555420D01*
X15581286Y12555420D02*
X15533667Y12650658D01*
X15533667Y12650658D02*
X15486048Y12841134D01*
X15486048Y12841134D02*
X15486048Y13079229D01*
X15486048Y13079229D02*
X15533667Y13269705D01*
X15533667Y13269705D02*
X15581286Y13364943D01*
X15581286Y13364943D02*
X15628905Y13412562D01*
X15628905Y13412562D02*
X15724143Y13460181D01*
X17009857Y12460181D02*
X16438429Y12460181D01*
X16724143Y12460181D02*
X16724143Y13460181D01*
X16724143Y13460181D02*
X16628905Y13317324D01*
X16628905Y13317324D02*
X16533667Y13222086D01*
X16533667Y13222086D02*
X16438429Y13174467D01*
X17343191Y12460181D02*
X17867000Y13126848D01*
X17343191Y13126848D02*
X17867000Y12460181D01*
X18438429Y13460181D02*
X18533667Y13460181D01*
X18533667Y13460181D02*
X18628905Y13412562D01*
X18628905Y13412562D02*
X18676524Y13364943D01*
X18676524Y13364943D02*
X18724143Y13269705D01*
X18724143Y13269705D02*
X18771762Y13079229D01*
X18771762Y13079229D02*
X18771762Y12841134D01*
X18771762Y12841134D02*
X18724143Y12650658D01*
X18724143Y12650658D02*
X18676524Y12555420D01*
X18676524Y12555420D02*
X18628905Y12507800D01*
X18628905Y12507800D02*
X18533667Y12460181D01*
X18533667Y12460181D02*
X18438429Y12460181D01*
X18438429Y12460181D02*
X18343191Y12507800D01*
X18343191Y12507800D02*
X18295572Y12555420D01*
X18295572Y12555420D02*
X18247953Y12650658D01*
X18247953Y12650658D02*
X18200334Y12841134D01*
X18200334Y12841134D02*
X18200334Y13079229D01*
X18200334Y13079229D02*
X18247953Y13269705D01*
X18247953Y13269705D02*
X18295572Y13364943D01*
X18295572Y13364943D02*
X18343191Y13412562D01*
X18343191Y13412562D02*
X18438429Y13460181D01*
X19152715Y13364943D02*
X19200334Y13412562D01*
X19200334Y13412562D02*
X19295572Y13460181D01*
X19295572Y13460181D02*
X19533667Y13460181D01*
X19533667Y13460181D02*
X19628905Y13412562D01*
X19628905Y13412562D02*
X19676524Y13364943D01*
X19676524Y13364943D02*
X19724143Y13269705D01*
X19724143Y13269705D02*
X19724143Y13174467D01*
X19724143Y13174467D02*
X19676524Y13031610D01*
X19676524Y13031610D02*
X19105096Y12460181D01*
X19105096Y12460181D02*
X19724143Y12460181D01*
X14821819Y16181667D02*
X15536104Y16181667D01*
X15536104Y16181667D02*
X15678961Y16134048D01*
X15678961Y16134048D02*
X15774200Y16038810D01*
X15774200Y16038810D02*
X15821819Y15895953D01*
X15821819Y15895953D02*
X15821819Y15800715D01*
X15821819Y17181667D02*
X15821819Y16610239D01*
X15821819Y16895953D02*
X14821819Y16895953D01*
X14821819Y16895953D02*
X14964676Y16800715D01*
X14964676Y16800715D02*
X15059914Y16705477D01*
X15059914Y16705477D02*
X15107533Y16610239D01*
X11628904Y31859420D02*
X11581285Y31811800D01*
X11581285Y31811800D02*
X11438428Y31764181D01*
X11438428Y31764181D02*
X11343190Y31764181D01*
X11343190Y31764181D02*
X11200333Y31811800D01*
X11200333Y31811800D02*
X11105095Y31907039D01*
X11105095Y31907039D02*
X11057476Y32002277D01*
X11057476Y32002277D02*
X11009857Y32192753D01*
X11009857Y32192753D02*
X11009857Y32335610D01*
X11009857Y32335610D02*
X11057476Y32526086D01*
X11057476Y32526086D02*
X11105095Y32621324D01*
X11105095Y32621324D02*
X11200333Y32716562D01*
X11200333Y32716562D02*
X11343190Y32764181D01*
X11343190Y32764181D02*
X11438428Y32764181D01*
X11438428Y32764181D02*
X11581285Y32716562D01*
X11581285Y32716562D02*
X11628904Y32668943D01*
X12200333Y31764181D02*
X12105095Y31811800D01*
X12105095Y31811800D02*
X12057476Y31859420D01*
X12057476Y31859420D02*
X12009857Y31954658D01*
X12009857Y31954658D02*
X12009857Y32240372D01*
X12009857Y32240372D02*
X12057476Y32335610D01*
X12057476Y32335610D02*
X12105095Y32383229D01*
X12105095Y32383229D02*
X12200333Y32430848D01*
X12200333Y32430848D02*
X12343190Y32430848D01*
X12343190Y32430848D02*
X12438428Y32383229D01*
X12438428Y32383229D02*
X12486047Y32335610D01*
X12486047Y32335610D02*
X12533666Y32240372D01*
X12533666Y32240372D02*
X12533666Y31954658D01*
X12533666Y31954658D02*
X12486047Y31859420D01*
X12486047Y31859420D02*
X12438428Y31811800D01*
X12438428Y31811800D02*
X12343190Y31764181D01*
X12343190Y31764181D02*
X12200333Y31764181D01*
X12962238Y32430848D02*
X12962238Y31764181D01*
X12962238Y32335610D02*
X13009857Y32383229D01*
X13009857Y32383229D02*
X13105095Y32430848D01*
X13105095Y32430848D02*
X13247952Y32430848D01*
X13247952Y32430848D02*
X13343190Y32383229D01*
X13343190Y32383229D02*
X13390809Y32287991D01*
X13390809Y32287991D02*
X13390809Y31764181D01*
X13867000Y32430848D02*
X13867000Y31764181D01*
X13867000Y32335610D02*
X13914619Y32383229D01*
X13914619Y32383229D02*
X14009857Y32430848D01*
X14009857Y32430848D02*
X14152714Y32430848D01*
X14152714Y32430848D02*
X14247952Y32383229D01*
X14247952Y32383229D02*
X14295571Y32287991D01*
X14295571Y32287991D02*
X14295571Y31764181D01*
X14533667Y31668943D02*
X15295571Y31668943D01*
X15724143Y32764181D02*
X15819381Y32764181D01*
X15819381Y32764181D02*
X15914619Y32716562D01*
X15914619Y32716562D02*
X15962238Y32668943D01*
X15962238Y32668943D02*
X16009857Y32573705D01*
X16009857Y32573705D02*
X16057476Y32383229D01*
X16057476Y32383229D02*
X16057476Y32145134D01*
X16057476Y32145134D02*
X16009857Y31954658D01*
X16009857Y31954658D02*
X15962238Y31859420D01*
X15962238Y31859420D02*
X15914619Y31811800D01*
X15914619Y31811800D02*
X15819381Y31764181D01*
X15819381Y31764181D02*
X15724143Y31764181D01*
X15724143Y31764181D02*
X15628905Y31811800D01*
X15628905Y31811800D02*
X15581286Y31859420D01*
X15581286Y31859420D02*
X15533667Y31954658D01*
X15533667Y31954658D02*
X15486048Y32145134D01*
X15486048Y32145134D02*
X15486048Y32383229D01*
X15486048Y32383229D02*
X15533667Y32573705D01*
X15533667Y32573705D02*
X15581286Y32668943D01*
X15581286Y32668943D02*
X15628905Y32716562D01*
X15628905Y32716562D02*
X15724143Y32764181D01*
X17009857Y31764181D02*
X16438429Y31764181D01*
X16724143Y31764181D02*
X16724143Y32764181D01*
X16724143Y32764181D02*
X16628905Y32621324D01*
X16628905Y32621324D02*
X16533667Y32526086D01*
X16533667Y32526086D02*
X16438429Y32478467D01*
X17343191Y31764181D02*
X17867000Y32430848D01*
X17343191Y32430848D02*
X17867000Y31764181D01*
X18438429Y32764181D02*
X18533667Y32764181D01*
X18533667Y32764181D02*
X18628905Y32716562D01*
X18628905Y32716562D02*
X18676524Y32668943D01*
X18676524Y32668943D02*
X18724143Y32573705D01*
X18724143Y32573705D02*
X18771762Y32383229D01*
X18771762Y32383229D02*
X18771762Y32145134D01*
X18771762Y32145134D02*
X18724143Y31954658D01*
X18724143Y31954658D02*
X18676524Y31859420D01*
X18676524Y31859420D02*
X18628905Y31811800D01*
X18628905Y31811800D02*
X18533667Y31764181D01*
X18533667Y31764181D02*
X18438429Y31764181D01*
X18438429Y31764181D02*
X18343191Y31811800D01*
X18343191Y31811800D02*
X18295572Y31859420D01*
X18295572Y31859420D02*
X18247953Y31954658D01*
X18247953Y31954658D02*
X18200334Y32145134D01*
X18200334Y32145134D02*
X18200334Y32383229D01*
X18200334Y32383229D02*
X18247953Y32573705D01*
X18247953Y32573705D02*
X18295572Y32668943D01*
X18295572Y32668943D02*
X18343191Y32716562D01*
X18343191Y32716562D02*
X18438429Y32764181D01*
X19152715Y32668943D02*
X19200334Y32716562D01*
X19200334Y32716562D02*
X19295572Y32764181D01*
X19295572Y32764181D02*
X19533667Y32764181D01*
X19533667Y32764181D02*
X19628905Y32716562D01*
X19628905Y32716562D02*
X19676524Y32668943D01*
X19676524Y32668943D02*
X19724143Y32573705D01*
X19724143Y32573705D02*
X19724143Y32478467D01*
X19724143Y32478467D02*
X19676524Y32335610D01*
X19676524Y32335610D02*
X19105096Y31764181D01*
X19105096Y31764181D02*
X19724143Y31764181D01*
X14821819Y35485667D02*
X15536104Y35485667D01*
X15536104Y35485667D02*
X15678961Y35438048D01*
X15678961Y35438048D02*
X15774200Y35342810D01*
X15774200Y35342810D02*
X15821819Y35199953D01*
X15821819Y35199953D02*
X15821819Y35104715D01*
X14917057Y35914239D02*
X14869438Y35961858D01*
X14869438Y35961858D02*
X14821819Y36057096D01*
X14821819Y36057096D02*
X14821819Y36295191D01*
X14821819Y36295191D02*
X14869438Y36390429D01*
X14869438Y36390429D02*
X14917057Y36438048D01*
X14917057Y36438048D02*
X15012295Y36485667D01*
X15012295Y36485667D02*
X15107533Y36485667D01*
X15107533Y36485667D02*
X15250390Y36438048D01*
X15250390Y36438048D02*
X15821819Y35866620D01*
X15821819Y35866620D02*
X15821819Y36485667D01*
X86097819Y14721715D02*
X86097819Y14816953D01*
X86097819Y14816953D02*
X86145438Y14912191D01*
X86145438Y14912191D02*
X86193057Y14959810D01*
X86193057Y14959810D02*
X86288295Y15007429D01*
X86288295Y15007429D02*
X86478771Y15055048D01*
X86478771Y15055048D02*
X86716866Y15055048D01*
X86716866Y15055048D02*
X86907342Y15007429D01*
X86907342Y15007429D02*
X87002580Y14959810D01*
X87002580Y14959810D02*
X87050200Y14912191D01*
X87050200Y14912191D02*
X87097819Y14816953D01*
X87097819Y14816953D02*
X87097819Y14721715D01*
X87097819Y14721715D02*
X87050200Y14626477D01*
X87050200Y14626477D02*
X87002580Y14578858D01*
X87002580Y14578858D02*
X86907342Y14531239D01*
X86907342Y14531239D02*
X86716866Y14483620D01*
X86716866Y14483620D02*
X86478771Y14483620D01*
X86478771Y14483620D02*
X86288295Y14531239D01*
X86288295Y14531239D02*
X86193057Y14578858D01*
X86193057Y14578858D02*
X86145438Y14626477D01*
X86145438Y14626477D02*
X86097819Y14721715D01*
X87002580Y15483620D02*
X87050200Y15531239D01*
X87050200Y15531239D02*
X87097819Y15483620D01*
X87097819Y15483620D02*
X87050200Y15436001D01*
X87050200Y15436001D02*
X87002580Y15483620D01*
X87002580Y15483620D02*
X87097819Y15483620D01*
X87097819Y16483619D02*
X87097819Y15912191D01*
X87097819Y16197905D02*
X86097819Y16197905D01*
X86097819Y16197905D02*
X86240676Y16102667D01*
X86240676Y16102667D02*
X86335914Y16007429D01*
X86335914Y16007429D02*
X86383533Y15912191D01*
X86431152Y17340762D02*
X87097819Y17340762D01*
X86431152Y16912191D02*
X86954961Y16912191D01*
X86954961Y16912191D02*
X87050200Y16959810D01*
X87050200Y16959810D02*
X87097819Y17055048D01*
X87097819Y17055048D02*
X87097819Y17197905D01*
X87097819Y17197905D02*
X87050200Y17293143D01*
X87050200Y17293143D02*
X87002580Y17340762D01*
D11*
X85142530Y15614572D02*
X85166340Y15590763D01*
X85166340Y15590763D02*
X85190149Y15519334D01*
X85190149Y15519334D02*
X85190149Y15471715D01*
X85190149Y15471715D02*
X85166340Y15400287D01*
X85166340Y15400287D02*
X85118720Y15352668D01*
X85118720Y15352668D02*
X85071101Y15328858D01*
X85071101Y15328858D02*
X84975863Y15305049D01*
X84975863Y15305049D02*
X84904435Y15305049D01*
X84904435Y15305049D02*
X84809197Y15328858D01*
X84809197Y15328858D02*
X84761578Y15352668D01*
X84761578Y15352668D02*
X84713959Y15400287D01*
X84713959Y15400287D02*
X84690149Y15471715D01*
X84690149Y15471715D02*
X84690149Y15519334D01*
X84690149Y15519334D02*
X84713959Y15590763D01*
X84713959Y15590763D02*
X84737768Y15614572D01*
X85190149Y16090763D02*
X85190149Y15805049D01*
X85190149Y15947906D02*
X84690149Y15947906D01*
X84690149Y15947906D02*
X84761578Y15900287D01*
X84761578Y15900287D02*
X84809197Y15852668D01*
X84809197Y15852668D02*
X84833006Y15805049D01*
X84690149Y16400286D02*
X84690149Y16447905D01*
X84690149Y16447905D02*
X84713959Y16495524D01*
X84713959Y16495524D02*
X84737768Y16519334D01*
X84737768Y16519334D02*
X84785387Y16543143D01*
X84785387Y16543143D02*
X84880625Y16566953D01*
X84880625Y16566953D02*
X84999673Y16566953D01*
X84999673Y16566953D02*
X85094911Y16543143D01*
X85094911Y16543143D02*
X85142530Y16519334D01*
X85142530Y16519334D02*
X85166340Y16495524D01*
X85166340Y16495524D02*
X85190149Y16447905D01*
X85190149Y16447905D02*
X85190149Y16400286D01*
X85190149Y16400286D02*
X85166340Y16352667D01*
X85166340Y16352667D02*
X85142530Y16328858D01*
X85142530Y16328858D02*
X85094911Y16305048D01*
X85094911Y16305048D02*
X84999673Y16281239D01*
X84999673Y16281239D02*
X84880625Y16281239D01*
X84880625Y16281239D02*
X84785387Y16305048D01*
X84785387Y16305048D02*
X84737768Y16328858D01*
X84737768Y16328858D02*
X84713959Y16352667D01*
X84713959Y16352667D02*
X84690149Y16400286D01*
D10*
X67497819Y14744315D02*
X67497819Y14839553D01*
X67497819Y14839553D02*
X67545438Y14934791D01*
X67545438Y14934791D02*
X67593057Y14982410D01*
X67593057Y14982410D02*
X67688295Y15030029D01*
X67688295Y15030029D02*
X67878771Y15077648D01*
X67878771Y15077648D02*
X68116866Y15077648D01*
X68116866Y15077648D02*
X68307342Y15030029D01*
X68307342Y15030029D02*
X68402580Y14982410D01*
X68402580Y14982410D02*
X68450200Y14934791D01*
X68450200Y14934791D02*
X68497819Y14839553D01*
X68497819Y14839553D02*
X68497819Y14744315D01*
X68497819Y14744315D02*
X68450200Y14649077D01*
X68450200Y14649077D02*
X68402580Y14601458D01*
X68402580Y14601458D02*
X68307342Y14553839D01*
X68307342Y14553839D02*
X68116866Y14506220D01*
X68116866Y14506220D02*
X67878771Y14506220D01*
X67878771Y14506220D02*
X67688295Y14553839D01*
X67688295Y14553839D02*
X67593057Y14601458D01*
X67593057Y14601458D02*
X67545438Y14649077D01*
X67545438Y14649077D02*
X67497819Y14744315D01*
X68402580Y15506220D02*
X68450200Y15553839D01*
X68450200Y15553839D02*
X68497819Y15506220D01*
X68497819Y15506220D02*
X68450200Y15458601D01*
X68450200Y15458601D02*
X68402580Y15506220D01*
X68402580Y15506220D02*
X68497819Y15506220D01*
X68497819Y16506219D02*
X68497819Y15934791D01*
X68497819Y16220505D02*
X67497819Y16220505D01*
X67497819Y16220505D02*
X67640676Y16125267D01*
X67640676Y16125267D02*
X67735914Y16030029D01*
X67735914Y16030029D02*
X67783533Y15934791D01*
X67831152Y17363362D02*
X68497819Y17363362D01*
X67831152Y16934791D02*
X68354961Y16934791D01*
X68354961Y16934791D02*
X68450200Y16982410D01*
X68450200Y16982410D02*
X68497819Y17077648D01*
X68497819Y17077648D02*
X68497819Y17220505D01*
X68497819Y17220505D02*
X68450200Y17315743D01*
X68450200Y17315743D02*
X68402580Y17363362D01*
D11*
X69902530Y15875267D02*
X69926340Y15851458D01*
X69926340Y15851458D02*
X69950149Y15780029D01*
X69950149Y15780029D02*
X69950149Y15732410D01*
X69950149Y15732410D02*
X69926340Y15660982D01*
X69926340Y15660982D02*
X69878720Y15613363D01*
X69878720Y15613363D02*
X69831101Y15589553D01*
X69831101Y15589553D02*
X69735863Y15565744D01*
X69735863Y15565744D02*
X69664435Y15565744D01*
X69664435Y15565744D02*
X69569197Y15589553D01*
X69569197Y15589553D02*
X69521578Y15613363D01*
X69521578Y15613363D02*
X69473959Y15660982D01*
X69473959Y15660982D02*
X69450149Y15732410D01*
X69450149Y15732410D02*
X69450149Y15780029D01*
X69450149Y15780029D02*
X69473959Y15851458D01*
X69473959Y15851458D02*
X69497768Y15875267D01*
X69664435Y16160982D02*
X69640625Y16113363D01*
X69640625Y16113363D02*
X69616816Y16089553D01*
X69616816Y16089553D02*
X69569197Y16065744D01*
X69569197Y16065744D02*
X69545387Y16065744D01*
X69545387Y16065744D02*
X69497768Y16089553D01*
X69497768Y16089553D02*
X69473959Y16113363D01*
X69473959Y16113363D02*
X69450149Y16160982D01*
X69450149Y16160982D02*
X69450149Y16256220D01*
X69450149Y16256220D02*
X69473959Y16303839D01*
X69473959Y16303839D02*
X69497768Y16327648D01*
X69497768Y16327648D02*
X69545387Y16351458D01*
X69545387Y16351458D02*
X69569197Y16351458D01*
X69569197Y16351458D02*
X69616816Y16327648D01*
X69616816Y16327648D02*
X69640625Y16303839D01*
X69640625Y16303839D02*
X69664435Y16256220D01*
X69664435Y16256220D02*
X69664435Y16160982D01*
X69664435Y16160982D02*
X69688244Y16113363D01*
X69688244Y16113363D02*
X69712054Y16089553D01*
X69712054Y16089553D02*
X69759673Y16065744D01*
X69759673Y16065744D02*
X69854911Y16065744D01*
X69854911Y16065744D02*
X69902530Y16089553D01*
X69902530Y16089553D02*
X69926340Y16113363D01*
X69926340Y16113363D02*
X69950149Y16160982D01*
X69950149Y16160982D02*
X69950149Y16256220D01*
X69950149Y16256220D02*
X69926340Y16303839D01*
X69926340Y16303839D02*
X69902530Y16327648D01*
X69902530Y16327648D02*
X69854911Y16351458D01*
X69854911Y16351458D02*
X69759673Y16351458D01*
X69759673Y16351458D02*
X69712054Y16327648D01*
X69712054Y16327648D02*
X69688244Y16303839D01*
X69688244Y16303839D02*
X69664435Y16256220D01*
D10*
X85723819Y15309143D02*
X85723819Y14737715D01*
X85723819Y15023429D02*
X84723819Y15023429D01*
X84723819Y15023429D02*
X84866676Y14928191D01*
X84866676Y14928191D02*
X84961914Y14832953D01*
X84961914Y14832953D02*
X85009533Y14737715D01*
X84723819Y15928191D02*
X84723819Y16023429D01*
X84723819Y16023429D02*
X84771438Y16118667D01*
X84771438Y16118667D02*
X84819057Y16166286D01*
X84819057Y16166286D02*
X84914295Y16213905D01*
X84914295Y16213905D02*
X85104771Y16261524D01*
X85104771Y16261524D02*
X85342866Y16261524D01*
X85342866Y16261524D02*
X85533342Y16213905D01*
X85533342Y16213905D02*
X85628580Y16166286D01*
X85628580Y16166286D02*
X85676200Y16118667D01*
X85676200Y16118667D02*
X85723819Y16023429D01*
X85723819Y16023429D02*
X85723819Y15928191D01*
X85723819Y15928191D02*
X85676200Y15832953D01*
X85676200Y15832953D02*
X85628580Y15785334D01*
X85628580Y15785334D02*
X85533342Y15737715D01*
X85533342Y15737715D02*
X85342866Y15690096D01*
X85342866Y15690096D02*
X85104771Y15690096D01*
X85104771Y15690096D02*
X84914295Y15737715D01*
X84914295Y15737715D02*
X84819057Y15785334D01*
X84819057Y15785334D02*
X84771438Y15832953D01*
X84771438Y15832953D02*
X84723819Y15928191D01*
X85057152Y17118667D02*
X85723819Y17118667D01*
X85057152Y16690096D02*
X85580961Y16690096D01*
X85580961Y16690096D02*
X85676200Y16737715D01*
X85676200Y16737715D02*
X85723819Y16832953D01*
X85723819Y16832953D02*
X85723819Y16975810D01*
X85723819Y16975810D02*
X85676200Y17071048D01*
X85676200Y17071048D02*
X85628580Y17118667D01*
D12*
X88806664Y15818668D02*
X88844760Y15780572D01*
X88844760Y15780572D02*
X88882855Y15666287D01*
X88882855Y15666287D02*
X88882855Y15590096D01*
X88882855Y15590096D02*
X88844760Y15475810D01*
X88844760Y15475810D02*
X88768569Y15399620D01*
X88768569Y15399620D02*
X88692379Y15361525D01*
X88692379Y15361525D02*
X88539998Y15323429D01*
X88539998Y15323429D02*
X88425712Y15323429D01*
X88425712Y15323429D02*
X88273331Y15361525D01*
X88273331Y15361525D02*
X88197140Y15399620D01*
X88197140Y15399620D02*
X88120950Y15475810D01*
X88120950Y15475810D02*
X88082855Y15590096D01*
X88082855Y15590096D02*
X88082855Y15666287D01*
X88082855Y15666287D02*
X88120950Y15780572D01*
X88120950Y15780572D02*
X88159045Y15818668D01*
X88882855Y16199620D02*
X88882855Y16352001D01*
X88882855Y16352001D02*
X88844760Y16428191D01*
X88844760Y16428191D02*
X88806664Y16466287D01*
X88806664Y16466287D02*
X88692379Y16542477D01*
X88692379Y16542477D02*
X88539998Y16580572D01*
X88539998Y16580572D02*
X88235236Y16580572D01*
X88235236Y16580572D02*
X88159045Y16542477D01*
X88159045Y16542477D02*
X88120950Y16504382D01*
X88120950Y16504382D02*
X88082855Y16428191D01*
X88082855Y16428191D02*
X88082855Y16275810D01*
X88082855Y16275810D02*
X88120950Y16199620D01*
X88120950Y16199620D02*
X88159045Y16161525D01*
X88159045Y16161525D02*
X88235236Y16123429D01*
X88235236Y16123429D02*
X88425712Y16123429D01*
X88425712Y16123429D02*
X88501902Y16161525D01*
X88501902Y16161525D02*
X88539998Y16199620D01*
X88539998Y16199620D02*
X88578093Y16275810D01*
X88578093Y16275810D02*
X88578093Y16428191D01*
X88578093Y16428191D02*
X88539998Y16504382D01*
X88539998Y16504382D02*
X88501902Y16542477D01*
X88501902Y16542477D02*
X88425712Y16580572D01*
D10*
X76983819Y15343143D02*
X76983819Y14771715D01*
X76983819Y15057429D02*
X75983819Y15057429D01*
X75983819Y15057429D02*
X76126676Y14962191D01*
X76126676Y14962191D02*
X76221914Y14866953D01*
X76221914Y14866953D02*
X76269533Y14771715D01*
X75983819Y15962191D02*
X75983819Y16057429D01*
X75983819Y16057429D02*
X76031438Y16152667D01*
X76031438Y16152667D02*
X76079057Y16200286D01*
X76079057Y16200286D02*
X76174295Y16247905D01*
X76174295Y16247905D02*
X76364771Y16295524D01*
X76364771Y16295524D02*
X76602866Y16295524D01*
X76602866Y16295524D02*
X76793342Y16247905D01*
X76793342Y16247905D02*
X76888580Y16200286D01*
X76888580Y16200286D02*
X76936200Y16152667D01*
X76936200Y16152667D02*
X76983819Y16057429D01*
X76983819Y16057429D02*
X76983819Y15962191D01*
X76983819Y15962191D02*
X76936200Y15866953D01*
X76936200Y15866953D02*
X76888580Y15819334D01*
X76888580Y15819334D02*
X76793342Y15771715D01*
X76793342Y15771715D02*
X76602866Y15724096D01*
X76602866Y15724096D02*
X76364771Y15724096D01*
X76364771Y15724096D02*
X76174295Y15771715D01*
X76174295Y15771715D02*
X76079057Y15819334D01*
X76079057Y15819334D02*
X76031438Y15866953D01*
X76031438Y15866953D02*
X75983819Y15962191D01*
X76317152Y17152667D02*
X76983819Y17152667D01*
X76317152Y16724096D02*
X76840961Y16724096D01*
X76840961Y16724096D02*
X76936200Y16771715D01*
X76936200Y16771715D02*
X76983819Y16866953D01*
X76983819Y16866953D02*
X76983819Y17009810D01*
X76983819Y17009810D02*
X76936200Y17105048D01*
X76936200Y17105048D02*
X76888580Y17152667D01*
D12*
X75090664Y15825268D02*
X75128760Y15787172D01*
X75128760Y15787172D02*
X75166855Y15672887D01*
X75166855Y15672887D02*
X75166855Y15596696D01*
X75166855Y15596696D02*
X75128760Y15482410D01*
X75128760Y15482410D02*
X75052569Y15406220D01*
X75052569Y15406220D02*
X74976379Y15368125D01*
X74976379Y15368125D02*
X74823998Y15330029D01*
X74823998Y15330029D02*
X74709712Y15330029D01*
X74709712Y15330029D02*
X74557331Y15368125D01*
X74557331Y15368125D02*
X74481140Y15406220D01*
X74481140Y15406220D02*
X74404950Y15482410D01*
X74404950Y15482410D02*
X74366855Y15596696D01*
X74366855Y15596696D02*
X74366855Y15672887D01*
X74366855Y15672887D02*
X74404950Y15787172D01*
X74404950Y15787172D02*
X74443045Y15825268D01*
X74366855Y16091934D02*
X74366855Y16625268D01*
X74366855Y16625268D02*
X75166855Y16282410D01*
D10*
X64952714Y21275181D02*
X65047952Y21275181D01*
X65047952Y21275181D02*
X65143190Y21227562D01*
X65143190Y21227562D02*
X65190809Y21179943D01*
X65190809Y21179943D02*
X65238428Y21084705D01*
X65238428Y21084705D02*
X65286047Y20894229D01*
X65286047Y20894229D02*
X65286047Y20656134D01*
X65286047Y20656134D02*
X65238428Y20465658D01*
X65238428Y20465658D02*
X65190809Y20370420D01*
X65190809Y20370420D02*
X65143190Y20322800D01*
X65143190Y20322800D02*
X65047952Y20275181D01*
X65047952Y20275181D02*
X64952714Y20275181D01*
X64952714Y20275181D02*
X64857476Y20322800D01*
X64857476Y20322800D02*
X64809857Y20370420D01*
X64809857Y20370420D02*
X64762238Y20465658D01*
X64762238Y20465658D02*
X64714619Y20656134D01*
X64714619Y20656134D02*
X64714619Y20894229D01*
X64714619Y20894229D02*
X64762238Y21084705D01*
X64762238Y21084705D02*
X64809857Y21179943D01*
X64809857Y21179943D02*
X64857476Y21227562D01*
X64857476Y21227562D02*
X64952714Y21275181D01*
X65714619Y20370420D02*
X65762238Y20322800D01*
X65762238Y20322800D02*
X65714619Y20275181D01*
X65714619Y20275181D02*
X65667000Y20322800D01*
X65667000Y20322800D02*
X65714619Y20370420D01*
X65714619Y20370420D02*
X65714619Y20275181D01*
X66714618Y20275181D02*
X66143190Y20275181D01*
X66428904Y20275181D02*
X66428904Y21275181D01*
X66428904Y21275181D02*
X66333666Y21132324D01*
X66333666Y21132324D02*
X66238428Y21037086D01*
X66238428Y21037086D02*
X66143190Y20989467D01*
X67571761Y20941848D02*
X67571761Y20275181D01*
X67143190Y20941848D02*
X67143190Y20418039D01*
X67143190Y20418039D02*
X67190809Y20322800D01*
X67190809Y20322800D02*
X67286047Y20275181D01*
X67286047Y20275181D02*
X67428904Y20275181D01*
X67428904Y20275181D02*
X67524142Y20322800D01*
X67524142Y20322800D02*
X67571761Y20370420D01*
D11*
X65845571Y18870470D02*
X65821762Y18846660D01*
X65821762Y18846660D02*
X65750333Y18822851D01*
X65750333Y18822851D02*
X65702714Y18822851D01*
X65702714Y18822851D02*
X65631286Y18846660D01*
X65631286Y18846660D02*
X65583667Y18894280D01*
X65583667Y18894280D02*
X65559857Y18941899D01*
X65559857Y18941899D02*
X65536048Y19037137D01*
X65536048Y19037137D02*
X65536048Y19108565D01*
X65536048Y19108565D02*
X65559857Y19203803D01*
X65559857Y19203803D02*
X65583667Y19251422D01*
X65583667Y19251422D02*
X65631286Y19299041D01*
X65631286Y19299041D02*
X65702714Y19322851D01*
X65702714Y19322851D02*
X65750333Y19322851D01*
X65750333Y19322851D02*
X65821762Y19299041D01*
X65821762Y19299041D02*
X65845571Y19275232D01*
X66321762Y18822851D02*
X66036048Y18822851D01*
X66178905Y18822851D02*
X66178905Y19322851D01*
X66178905Y19322851D02*
X66131286Y19251422D01*
X66131286Y19251422D02*
X66083667Y19203803D01*
X66083667Y19203803D02*
X66036048Y19179994D01*
X66512238Y19275232D02*
X66536047Y19299041D01*
X66536047Y19299041D02*
X66583666Y19322851D01*
X66583666Y19322851D02*
X66702714Y19322851D01*
X66702714Y19322851D02*
X66750333Y19299041D01*
X66750333Y19299041D02*
X66774142Y19275232D01*
X66774142Y19275232D02*
X66797952Y19227613D01*
X66797952Y19227613D02*
X66797952Y19179994D01*
X66797952Y19179994D02*
X66774142Y19108565D01*
X66774142Y19108565D02*
X66488428Y18822851D01*
X66488428Y18822851D02*
X66797952Y18822851D01*
D10*
X73588714Y34991181D02*
X73683952Y34991181D01*
X73683952Y34991181D02*
X73779190Y34943562D01*
X73779190Y34943562D02*
X73826809Y34895943D01*
X73826809Y34895943D02*
X73874428Y34800705D01*
X73874428Y34800705D02*
X73922047Y34610229D01*
X73922047Y34610229D02*
X73922047Y34372134D01*
X73922047Y34372134D02*
X73874428Y34181658D01*
X73874428Y34181658D02*
X73826809Y34086420D01*
X73826809Y34086420D02*
X73779190Y34038800D01*
X73779190Y34038800D02*
X73683952Y33991181D01*
X73683952Y33991181D02*
X73588714Y33991181D01*
X73588714Y33991181D02*
X73493476Y34038800D01*
X73493476Y34038800D02*
X73445857Y34086420D01*
X73445857Y34086420D02*
X73398238Y34181658D01*
X73398238Y34181658D02*
X73350619Y34372134D01*
X73350619Y34372134D02*
X73350619Y34610229D01*
X73350619Y34610229D02*
X73398238Y34800705D01*
X73398238Y34800705D02*
X73445857Y34895943D01*
X73445857Y34895943D02*
X73493476Y34943562D01*
X73493476Y34943562D02*
X73588714Y34991181D01*
X74350619Y34086420D02*
X74398238Y34038800D01*
X74398238Y34038800D02*
X74350619Y33991181D01*
X74350619Y33991181D02*
X74303000Y34038800D01*
X74303000Y34038800D02*
X74350619Y34086420D01*
X74350619Y34086420D02*
X74350619Y33991181D01*
X75350618Y33991181D02*
X74779190Y33991181D01*
X75064904Y33991181D02*
X75064904Y34991181D01*
X75064904Y34991181D02*
X74969666Y34848324D01*
X74969666Y34848324D02*
X74874428Y34753086D01*
X74874428Y34753086D02*
X74779190Y34705467D01*
X76207761Y34657848D02*
X76207761Y33991181D01*
X75779190Y34657848D02*
X75779190Y34134039D01*
X75779190Y34134039D02*
X75826809Y34038800D01*
X75826809Y34038800D02*
X75922047Y33991181D01*
X75922047Y33991181D02*
X76064904Y33991181D01*
X76064904Y33991181D02*
X76160142Y34038800D01*
X76160142Y34038800D02*
X76207761Y34086420D01*
D11*
X74481571Y32586470D02*
X74457762Y32562660D01*
X74457762Y32562660D02*
X74386333Y32538851D01*
X74386333Y32538851D02*
X74338714Y32538851D01*
X74338714Y32538851D02*
X74267286Y32562660D01*
X74267286Y32562660D02*
X74219667Y32610280D01*
X74219667Y32610280D02*
X74195857Y32657899D01*
X74195857Y32657899D02*
X74172048Y32753137D01*
X74172048Y32753137D02*
X74172048Y32824565D01*
X74172048Y32824565D02*
X74195857Y32919803D01*
X74195857Y32919803D02*
X74219667Y32967422D01*
X74219667Y32967422D02*
X74267286Y33015041D01*
X74267286Y33015041D02*
X74338714Y33038851D01*
X74338714Y33038851D02*
X74386333Y33038851D01*
X74386333Y33038851D02*
X74457762Y33015041D01*
X74457762Y33015041D02*
X74481571Y32991232D01*
X74957762Y32538851D02*
X74672048Y32538851D01*
X74814905Y32538851D02*
X74814905Y33038851D01*
X74814905Y33038851D02*
X74767286Y32967422D01*
X74767286Y32967422D02*
X74719667Y32919803D01*
X74719667Y32919803D02*
X74672048Y32895994D01*
X75433952Y32538851D02*
X75148238Y32538851D01*
X75291095Y32538851D02*
X75291095Y33038851D01*
X75291095Y33038851D02*
X75243476Y32967422D01*
X75243476Y32967422D02*
X75195857Y32919803D01*
X75195857Y32919803D02*
X75148238Y32895994D01*
D10*
X40060714Y14359181D02*
X40155952Y14359181D01*
X40155952Y14359181D02*
X40251190Y14311562D01*
X40251190Y14311562D02*
X40298809Y14263943D01*
X40298809Y14263943D02*
X40346428Y14168705D01*
X40346428Y14168705D02*
X40394047Y13978229D01*
X40394047Y13978229D02*
X40394047Y13740134D01*
X40394047Y13740134D02*
X40346428Y13549658D01*
X40346428Y13549658D02*
X40298809Y13454420D01*
X40298809Y13454420D02*
X40251190Y13406800D01*
X40251190Y13406800D02*
X40155952Y13359181D01*
X40155952Y13359181D02*
X40060714Y13359181D01*
X40060714Y13359181D02*
X39965476Y13406800D01*
X39965476Y13406800D02*
X39917857Y13454420D01*
X39917857Y13454420D02*
X39870238Y13549658D01*
X39870238Y13549658D02*
X39822619Y13740134D01*
X39822619Y13740134D02*
X39822619Y13978229D01*
X39822619Y13978229D02*
X39870238Y14168705D01*
X39870238Y14168705D02*
X39917857Y14263943D01*
X39917857Y14263943D02*
X39965476Y14311562D01*
X39965476Y14311562D02*
X40060714Y14359181D01*
X40822619Y13454420D02*
X40870238Y13406800D01*
X40870238Y13406800D02*
X40822619Y13359181D01*
X40822619Y13359181D02*
X40775000Y13406800D01*
X40775000Y13406800D02*
X40822619Y13454420D01*
X40822619Y13454420D02*
X40822619Y13359181D01*
X41822618Y13359181D02*
X41251190Y13359181D01*
X41536904Y13359181D02*
X41536904Y14359181D01*
X41536904Y14359181D02*
X41441666Y14216324D01*
X41441666Y14216324D02*
X41346428Y14121086D01*
X41346428Y14121086D02*
X41251190Y14073467D01*
X42679761Y14025848D02*
X42679761Y13359181D01*
X42251190Y14025848D02*
X42251190Y13502039D01*
X42251190Y13502039D02*
X42298809Y13406800D01*
X42298809Y13406800D02*
X42394047Y13359181D01*
X42394047Y13359181D02*
X42536904Y13359181D01*
X42536904Y13359181D02*
X42632142Y13406800D01*
X42632142Y13406800D02*
X42679761Y13454420D01*
D11*
X41191666Y15314470D02*
X41167857Y15290660D01*
X41167857Y15290660D02*
X41096428Y15266851D01*
X41096428Y15266851D02*
X41048809Y15266851D01*
X41048809Y15266851D02*
X40977381Y15290660D01*
X40977381Y15290660D02*
X40929762Y15338280D01*
X40929762Y15338280D02*
X40905952Y15385899D01*
X40905952Y15385899D02*
X40882143Y15481137D01*
X40882143Y15481137D02*
X40882143Y15552565D01*
X40882143Y15552565D02*
X40905952Y15647803D01*
X40905952Y15647803D02*
X40929762Y15695422D01*
X40929762Y15695422D02*
X40977381Y15743041D01*
X40977381Y15743041D02*
X41048809Y15766851D01*
X41048809Y15766851D02*
X41096428Y15766851D01*
X41096428Y15766851D02*
X41167857Y15743041D01*
X41167857Y15743041D02*
X41191666Y15719232D01*
X41620238Y15600184D02*
X41620238Y15266851D01*
X41501190Y15790660D02*
X41382143Y15433518D01*
X41382143Y15433518D02*
X41691666Y15433518D01*
D10*
X42097819Y16311715D02*
X42097819Y16406953D01*
X42097819Y16406953D02*
X42145438Y16502191D01*
X42145438Y16502191D02*
X42193057Y16549810D01*
X42193057Y16549810D02*
X42288295Y16597429D01*
X42288295Y16597429D02*
X42478771Y16645048D01*
X42478771Y16645048D02*
X42716866Y16645048D01*
X42716866Y16645048D02*
X42907342Y16597429D01*
X42907342Y16597429D02*
X43002580Y16549810D01*
X43002580Y16549810D02*
X43050200Y16502191D01*
X43050200Y16502191D02*
X43097819Y16406953D01*
X43097819Y16406953D02*
X43097819Y16311715D01*
X43097819Y16311715D02*
X43050200Y16216477D01*
X43050200Y16216477D02*
X43002580Y16168858D01*
X43002580Y16168858D02*
X42907342Y16121239D01*
X42907342Y16121239D02*
X42716866Y16073620D01*
X42716866Y16073620D02*
X42478771Y16073620D01*
X42478771Y16073620D02*
X42288295Y16121239D01*
X42288295Y16121239D02*
X42193057Y16168858D01*
X42193057Y16168858D02*
X42145438Y16216477D01*
X42145438Y16216477D02*
X42097819Y16311715D01*
X43002580Y17073620D02*
X43050200Y17121239D01*
X43050200Y17121239D02*
X43097819Y17073620D01*
X43097819Y17073620D02*
X43050200Y17026001D01*
X43050200Y17026001D02*
X43002580Y17073620D01*
X43002580Y17073620D02*
X43097819Y17073620D01*
X43097819Y18073619D02*
X43097819Y17502191D01*
X43097819Y17787905D02*
X42097819Y17787905D01*
X42097819Y17787905D02*
X42240676Y17692667D01*
X42240676Y17692667D02*
X42335914Y17597429D01*
X42335914Y17597429D02*
X42383533Y17502191D01*
X42431152Y18930762D02*
X43097819Y18930762D01*
X42431152Y18502191D02*
X42954961Y18502191D01*
X42954961Y18502191D02*
X43050200Y18549810D01*
X43050200Y18549810D02*
X43097819Y18645048D01*
X43097819Y18645048D02*
X43097819Y18787905D01*
X43097819Y18787905D02*
X43050200Y18883143D01*
X43050200Y18883143D02*
X43002580Y18930762D01*
D11*
X44502530Y17442667D02*
X44526340Y17418858D01*
X44526340Y17418858D02*
X44550149Y17347429D01*
X44550149Y17347429D02*
X44550149Y17299810D01*
X44550149Y17299810D02*
X44526340Y17228382D01*
X44526340Y17228382D02*
X44478720Y17180763D01*
X44478720Y17180763D02*
X44431101Y17156953D01*
X44431101Y17156953D02*
X44335863Y17133144D01*
X44335863Y17133144D02*
X44264435Y17133144D01*
X44264435Y17133144D02*
X44169197Y17156953D01*
X44169197Y17156953D02*
X44121578Y17180763D01*
X44121578Y17180763D02*
X44073959Y17228382D01*
X44073959Y17228382D02*
X44050149Y17299810D01*
X44050149Y17299810D02*
X44050149Y17347429D01*
X44050149Y17347429D02*
X44073959Y17418858D01*
X44073959Y17418858D02*
X44097768Y17442667D01*
X44050149Y17609334D02*
X44050149Y17918858D01*
X44050149Y17918858D02*
X44240625Y17752191D01*
X44240625Y17752191D02*
X44240625Y17823620D01*
X44240625Y17823620D02*
X44264435Y17871239D01*
X44264435Y17871239D02*
X44288244Y17895048D01*
X44288244Y17895048D02*
X44335863Y17918858D01*
X44335863Y17918858D02*
X44454911Y17918858D01*
X44454911Y17918858D02*
X44502530Y17895048D01*
X44502530Y17895048D02*
X44526340Y17871239D01*
X44526340Y17871239D02*
X44550149Y17823620D01*
X44550149Y17823620D02*
X44550149Y17680763D01*
X44550149Y17680763D02*
X44526340Y17633144D01*
X44526340Y17633144D02*
X44502530Y17609334D01*
D13*
%TO.C,J9*%
X71501000Y35560000D02*
X71501000Y33020000D01*
X68961000Y33020000D02*
X68961000Y34925000D01*
X68961000Y34925000D02*
X69596000Y35560000D01*
X69596000Y35560000D02*
X71501000Y35560000D01*
X71501000Y33020000D02*
X68961000Y33020000D01*
%TO.C,J8*%
X62865000Y20320000D02*
X62865000Y17780000D01*
X60325000Y17780000D02*
X60325000Y19685000D01*
X60325000Y19685000D02*
X60960000Y20320000D01*
X60960000Y20320000D02*
X62865000Y20320000D01*
X62865000Y17780000D02*
X60325000Y17780000D01*
%TO.C,R14*%
X82814000Y21066000D02*
X84064000Y21066000D01*
X82814000Y19066000D02*
X82814000Y21066000D01*
X84064000Y19066000D02*
X82814000Y19066000D01*
X84064000Y21066000D02*
X84064000Y19066000D01*
%TO.C,R13*%
X85455000Y24755000D02*
X85455000Y23505000D01*
X83455000Y24755000D02*
X85455000Y24755000D01*
X83455000Y23505000D02*
X83455000Y24755000D01*
X85455000Y23505000D02*
X83455000Y23505000D01*
%TO.C,U3*%
X71613000Y29724000D02*
X72613000Y30724000D01*
X77963000Y20564000D02*
X71613000Y20564000D01*
X72613000Y30724000D02*
X77963000Y30724000D01*
X71613000Y20564000D02*
X71613000Y29724000D01*
X77963000Y30724000D02*
X77963000Y20564000D01*
%TO.C,U1*%
X39609000Y30232000D02*
X40609000Y31232000D01*
X45959000Y21072000D02*
X39609000Y21072000D01*
X40609000Y31232000D02*
X45959000Y31232000D01*
X39609000Y21072000D02*
X39609000Y30232000D01*
X45959000Y31232000D02*
X45959000Y21072000D01*
%TO.C,J5*%
X67559000Y11176000D02*
X67559000Y8636000D01*
X63114000Y8636000D02*
X62479000Y9271000D01*
X67559000Y8636000D02*
X63114000Y8636000D01*
X62479000Y9271000D02*
X62479000Y11176000D01*
X62479000Y11176000D02*
X67559000Y11176000D01*
%TO.C,R2*%
X26471000Y22530000D02*
X26471000Y25730000D01*
X17471000Y25730000D02*
X17471000Y22530000D01*
X26471000Y25730000D02*
X17471000Y25730000D01*
X17471000Y22530000D02*
X26471000Y22530000D01*
X28321000Y24130000D02*
X26471000Y24130000D01*
X15621000Y24130000D02*
X17471000Y24130000D01*
%TO.C,R3*%
X26471000Y26594000D02*
X26471000Y29794000D01*
X17471000Y29794000D02*
X17471000Y26594000D01*
X26471000Y29794000D02*
X17471000Y29794000D01*
X17471000Y26594000D02*
X26471000Y26594000D01*
X28321000Y28194000D02*
X26471000Y28194000D01*
X15621000Y28194000D02*
X17471000Y28194000D01*
%TO.C,R5*%
X30099000Y18796000D02*
X30099000Y16946000D01*
X30099000Y6096000D02*
X30099000Y7946000D01*
X28499000Y16946000D02*
X28499000Y7946000D01*
X31699000Y7946000D02*
X31699000Y16946000D01*
X31699000Y16946000D02*
X28499000Y16946000D01*
X28499000Y7946000D02*
X31699000Y7946000D01*
%TO.C,R6*%
X28499000Y35378000D02*
X31699000Y35378000D01*
X31699000Y44378000D02*
X28499000Y44378000D01*
X31699000Y35378000D02*
X31699000Y44378000D01*
X28499000Y44378000D02*
X28499000Y35378000D01*
X30099000Y33528000D02*
X30099000Y35378000D01*
X30099000Y46228000D02*
X30099000Y44378000D01*
%TO.C,R10*%
X47299000Y33706000D02*
X47299000Y36906000D01*
X38299000Y36906000D02*
X38299000Y33706000D01*
X47299000Y36906000D02*
X38299000Y36906000D01*
X38299000Y33706000D02*
X47299000Y33706000D01*
X49149000Y35306000D02*
X47299000Y35306000D01*
X36449000Y35306000D02*
X38299000Y35306000D01*
%TO.C,R12*%
X76210000Y11922000D02*
X77460000Y11922000D01*
X76210000Y9922000D02*
X76210000Y11922000D01*
X77460000Y9922000D02*
X76210000Y9922000D01*
X77460000Y11922000D02*
X77460000Y9922000D01*
%TO.C,R11*%
X76210000Y19034000D02*
X77460000Y19034000D01*
X76210000Y17034000D02*
X76210000Y19034000D01*
X77460000Y17034000D02*
X76210000Y17034000D01*
X77460000Y19034000D02*
X77460000Y17034000D01*
%TO.C,R8*%
X29474000Y11446000D02*
X29474000Y13446000D01*
X29474000Y13446000D02*
X30724000Y13446000D01*
X30724000Y13446000D02*
X30724000Y11446000D01*
X30724000Y11446000D02*
X29474000Y11446000D01*
%TO.C,R9*%
X30724000Y40878000D02*
X30724000Y38878000D01*
X30724000Y38878000D02*
X29474000Y38878000D01*
X29474000Y38878000D02*
X29474000Y40878000D01*
X29474000Y40878000D02*
X30724000Y40878000D01*
%TO.C,R4*%
X20971000Y27569000D02*
X20971000Y28819000D01*
X22971000Y27569000D02*
X20971000Y27569000D01*
X22971000Y28819000D02*
X22971000Y27569000D01*
X20971000Y28819000D02*
X22971000Y28819000D01*
%TO.C,R1*%
X20971000Y23505000D02*
X20971000Y24755000D01*
X22971000Y23505000D02*
X20971000Y23505000D01*
X22971000Y24755000D02*
X22971000Y23505000D01*
X20971000Y24755000D02*
X22971000Y24755000D01*
%TO.C,R7*%
X41799000Y34681000D02*
X41799000Y35931000D01*
X43799000Y34681000D02*
X41799000Y34681000D01*
X43799000Y35931000D02*
X43799000Y34681000D01*
X41799000Y35931000D02*
X43799000Y35931000D01*
%TO.C,J7*%
X95626000Y37851000D02*
X95626000Y35311000D01*
X91181000Y35311000D02*
X90546000Y35946000D01*
X95626000Y35311000D02*
X91181000Y35311000D01*
X90546000Y35946000D02*
X90546000Y37851000D01*
X90546000Y37851000D02*
X95626000Y37851000D01*
%TO.C,J6*%
X95626000Y27940000D02*
X95626000Y25400000D01*
X91181000Y25400000D02*
X90546000Y26035000D01*
X95626000Y25400000D02*
X91181000Y25400000D01*
X90546000Y26035000D02*
X90546000Y27940000D01*
X90546000Y27940000D02*
X95626000Y27940000D01*
%TO.C,J4*%
X51689000Y12192000D02*
X51689000Y7112000D01*
X49784000Y12192000D02*
X51689000Y12192000D01*
X49149000Y7112000D02*
X49149000Y11557000D01*
X49149000Y11557000D02*
X49784000Y12192000D01*
X51689000Y7112000D02*
X49149000Y7112000D01*
%TO.C,J3*%
X54737000Y38359000D02*
X52197000Y38359000D01*
X52197000Y42804000D02*
X52832000Y43439000D01*
X52197000Y38359000D02*
X52197000Y42804000D01*
X52832000Y43439000D02*
X54737000Y43439000D01*
X54737000Y43439000D02*
X54737000Y38359000D01*
%TO.C,J1*%
X16637000Y13975000D02*
X14097000Y13975000D01*
X14097000Y18420000D02*
X14732000Y19055000D01*
X14097000Y13975000D02*
X14097000Y18420000D01*
X14732000Y19055000D02*
X16637000Y19055000D01*
X16637000Y19055000D02*
X16637000Y13975000D01*
%TO.C,J2*%
X16637000Y33279000D02*
X14097000Y33279000D01*
X14097000Y37724000D02*
X14732000Y38359000D01*
X14097000Y33279000D02*
X14097000Y37724000D01*
X14732000Y38359000D02*
X16637000Y38359000D01*
X16637000Y38359000D02*
X16637000Y33279000D01*
%TO.C,C10*%
X84338000Y14936000D02*
X84338000Y16936000D01*
X85588000Y14936000D02*
X84338000Y14936000D01*
X85588000Y16936000D02*
X85588000Y14936000D01*
X84338000Y16936000D02*
X85588000Y16936000D01*
%TO.C,C8*%
X70348000Y16958600D02*
X70348000Y14958600D01*
X69098000Y16958600D02*
X70348000Y16958600D01*
X69098000Y14958600D02*
X69098000Y16958600D01*
X70348000Y14958600D02*
X69098000Y14958600D01*
%TO.C,C9*%
X89586500Y17454554D02*
X89186500Y17454554D01*
X89386500Y17654554D02*
X89386500Y17254554D01*
X90519000Y15952000D02*
G75*
G03*
X86519000Y15952000I-2000000J0D01*
G01*
X86519000Y15952000D02*
G75*
G03*
X90519000Y15952000I2000000J0D01*
G01*
%TO.C,C7*%
X72211500Y14483446D02*
X72611500Y14483446D01*
X72411500Y14283446D02*
X72411500Y14683446D01*
X75279000Y15986000D02*
G75*
G03*
X71279000Y15986000I-2000000J0D01*
G01*
X71279000Y15986000D02*
G75*
G03*
X75279000Y15986000I2000000J0D01*
G01*
%TO.C,C12*%
X67167000Y18425000D02*
X65167000Y18425000D01*
X67167000Y19675000D02*
X67167000Y18425000D01*
X65167000Y19675000D02*
X67167000Y19675000D01*
X65167000Y18425000D02*
X65167000Y19675000D01*
%TO.C,C11*%
X75803000Y32141000D02*
X73803000Y32141000D01*
X75803000Y33391000D02*
X75803000Y32141000D01*
X73803000Y33391000D02*
X75803000Y33391000D01*
X73803000Y32141000D02*
X73803000Y33391000D01*
%TO.C,C4*%
X40275000Y16119000D02*
X42275000Y16119000D01*
X40275000Y14869000D02*
X40275000Y16119000D01*
X42275000Y14869000D02*
X40275000Y14869000D01*
X42275000Y16119000D02*
X42275000Y14869000D01*
%TO.C,C3*%
X44948000Y18526000D02*
X44948000Y16526000D01*
X43698000Y18526000D02*
X44948000Y18526000D01*
X43698000Y16526000D02*
X43698000Y18526000D01*
X44948000Y16526000D02*
X43698000Y16526000D01*
%TD*%
M02*
