M48
; DRILL file {KiCad 7.0.10-7.0.10~ubuntu22.04.1} date Thu 22 Feb 2024 06:41:09 PM PST
; FORMAT={-:-/ absolute / metric / decimal}
; #@! TF.CreationDate,2024-02-22T18:41:09-08:00
; #@! TF.GenerationSoftware,Kicad,Pcbnew,7.0.10-7.0.10~ubuntu22.04.1
; #@! TF.FileFunction,Plated,1,2,PTH
FMAT,2
METRIC
; #@! TA.AperFunction,Plated,PTH,ComponentDrill
T1C0.600
; #@! TA.AperFunction,Plated,PTH,ComponentDrill
T2C0.800
; #@! TA.AperFunction,Plated,PTH,ComponentDrill
T3C1.000
%
G90
G05
T1
X73.279Y16.986
X73.279Y14.986
X88.519Y16.952
X88.519Y14.952
T2
X15.621Y28.194
X15.621Y24.13
X28.321Y28.194
X28.321Y24.13
X30.099Y46.228
X30.099Y33.528
X30.099Y18.796
X30.099Y6.096
X36.449Y35.306
X49.149Y35.306
T3
X15.367Y37.089
X15.367Y34.549
X15.367Y17.785
X15.367Y15.245
X38.974Y29.962
X38.974Y27.422
X38.974Y24.882
X38.974Y22.342
X46.594Y29.962
X46.594Y27.422
X46.594Y24.882
X46.594Y22.342
X50.419Y10.922
X50.419Y8.382
X53.467Y42.169
X53.467Y39.629
X61.595Y19.05
X63.749Y9.906
X66.289Y9.906
X70.231Y34.29
X70.978Y29.454
X70.978Y26.914
X70.978Y24.374
X70.978Y21.834
X78.598Y29.454
X78.598Y26.914
X78.598Y24.374
X78.598Y21.834
X91.816Y36.581
X91.816Y26.67
X94.356Y36.581
X94.356Y26.67
M30
