%TF.GenerationSoftware,KiCad,Pcbnew,7.0.10-7.0.10~ubuntu22.04.1*%
%TF.CreationDate,2024-02-22T18:41:36-08:00*%
%TF.ProjectId,INA129-Amplifier,494e4131-3239-42d4-916d-706c69666965,rev?*%
%TF.SameCoordinates,PX2bf7208PY9a4d770*%
%TF.FileFunction,Legend,Top*%
%TF.FilePolarity,Positive*%
%FSLAX46Y46*%
G04 Gerber Fmt 4.6, Leading zero omitted, Abs format (unit mm)*
G04 Created by KiCad (PCBNEW 7.0.10-7.0.10~ubuntu22.04.1) date 2024-02-22 18:41:36*
%MOMM*%
%LPD*%
G01*
G04 APERTURE LIST*
%ADD10C,0.150000*%
%ADD11C,0.120000*%
G04 APERTURE END LIST*
D10*
X94361095Y8571181D02*
X94361095Y9571181D01*
X94361095Y9094991D02*
X94932523Y9094991D01*
X94932523Y8571181D02*
X94932523Y9571181D01*
X95837285Y9237848D02*
X95837285Y8571181D01*
X95599190Y9618800D02*
X95361095Y8904515D01*
X95361095Y8904515D02*
X95980142Y8904515D01*
X89789095Y47551181D02*
X89789095Y48551181D01*
X89789095Y48074991D02*
X90360523Y48074991D01*
X90360523Y47551181D02*
X90360523Y48551181D01*
X90741476Y48551181D02*
X91360523Y48551181D01*
X91360523Y48551181D02*
X91027190Y48170229D01*
X91027190Y48170229D02*
X91170047Y48170229D01*
X91170047Y48170229D02*
X91265285Y48122610D01*
X91265285Y48122610D02*
X91312904Y48074991D01*
X91312904Y48074991D02*
X91360523Y47979753D01*
X91360523Y47979753D02*
X91360523Y47741658D01*
X91360523Y47741658D02*
X91312904Y47646420D01*
X91312904Y47646420D02*
X91265285Y47598800D01*
X91265285Y47598800D02*
X91170047Y47551181D01*
X91170047Y47551181D02*
X90884333Y47551181D01*
X90884333Y47551181D02*
X90789095Y47598800D01*
X90789095Y47598800D02*
X90741476Y47646420D01*
X8001095Y47551181D02*
X8001095Y48551181D01*
X8001095Y48074991D02*
X8572523Y48074991D01*
X8572523Y47551181D02*
X8572523Y48551181D01*
X9001095Y48455943D02*
X9048714Y48503562D01*
X9048714Y48503562D02*
X9143952Y48551181D01*
X9143952Y48551181D02*
X9382047Y48551181D01*
X9382047Y48551181D02*
X9477285Y48503562D01*
X9477285Y48503562D02*
X9524904Y48455943D01*
X9524904Y48455943D02*
X9572523Y48360705D01*
X9572523Y48360705D02*
X9572523Y48265467D01*
X9572523Y48265467D02*
X9524904Y48122610D01*
X9524904Y48122610D02*
X8953476Y47551181D01*
X8953476Y47551181D02*
X9572523Y47551181D01*
X3937095Y8571181D02*
X3937095Y9571181D01*
X3937095Y9094991D02*
X4508523Y9094991D01*
X4508523Y8571181D02*
X4508523Y9571181D01*
X5508523Y8571181D02*
X4937095Y8571181D01*
X5222809Y8571181D02*
X5222809Y9571181D01*
X5222809Y9571181D02*
X5127571Y9428324D01*
X5127571Y9428324D02*
X5032333Y9333086D01*
X5032333Y9333086D02*
X4937095Y9285467D01*
X69897666Y37165181D02*
X69897666Y36450896D01*
X69897666Y36450896D02*
X69850047Y36308039D01*
X69850047Y36308039D02*
X69754809Y36212800D01*
X69754809Y36212800D02*
X69611952Y36165181D01*
X69611952Y36165181D02*
X69516714Y36165181D01*
X70421476Y36165181D02*
X70611952Y36165181D01*
X70611952Y36165181D02*
X70707190Y36212800D01*
X70707190Y36212800D02*
X70754809Y36260420D01*
X70754809Y36260420D02*
X70850047Y36403277D01*
X70850047Y36403277D02*
X70897666Y36593753D01*
X70897666Y36593753D02*
X70897666Y36974705D01*
X70897666Y36974705D02*
X70850047Y37069943D01*
X70850047Y37069943D02*
X70802428Y37117562D01*
X70802428Y37117562D02*
X70707190Y37165181D01*
X70707190Y37165181D02*
X70516714Y37165181D01*
X70516714Y37165181D02*
X70421476Y37117562D01*
X70421476Y37117562D02*
X70373857Y37069943D01*
X70373857Y37069943D02*
X70326238Y36974705D01*
X70326238Y36974705D02*
X70326238Y36736610D01*
X70326238Y36736610D02*
X70373857Y36641372D01*
X70373857Y36641372D02*
X70421476Y36593753D01*
X70421476Y36593753D02*
X70516714Y36546134D01*
X70516714Y36546134D02*
X70707190Y36546134D01*
X70707190Y36546134D02*
X70802428Y36593753D01*
X70802428Y36593753D02*
X70850047Y36641372D01*
X70850047Y36641372D02*
X70897666Y36736610D01*
X61261666Y21925181D02*
X61261666Y21210896D01*
X61261666Y21210896D02*
X61214047Y21068039D01*
X61214047Y21068039D02*
X61118809Y20972800D01*
X61118809Y20972800D02*
X60975952Y20925181D01*
X60975952Y20925181D02*
X60880714Y20925181D01*
X61880714Y21496610D02*
X61785476Y21544229D01*
X61785476Y21544229D02*
X61737857Y21591848D01*
X61737857Y21591848D02*
X61690238Y21687086D01*
X61690238Y21687086D02*
X61690238Y21734705D01*
X61690238Y21734705D02*
X61737857Y21829943D01*
X61737857Y21829943D02*
X61785476Y21877562D01*
X61785476Y21877562D02*
X61880714Y21925181D01*
X61880714Y21925181D02*
X62071190Y21925181D01*
X62071190Y21925181D02*
X62166428Y21877562D01*
X62166428Y21877562D02*
X62214047Y21829943D01*
X62214047Y21829943D02*
X62261666Y21734705D01*
X62261666Y21734705D02*
X62261666Y21687086D01*
X62261666Y21687086D02*
X62214047Y21591848D01*
X62214047Y21591848D02*
X62166428Y21544229D01*
X62166428Y21544229D02*
X62071190Y21496610D01*
X62071190Y21496610D02*
X61880714Y21496610D01*
X61880714Y21496610D02*
X61785476Y21448991D01*
X61785476Y21448991D02*
X61737857Y21401372D01*
X61737857Y21401372D02*
X61690238Y21306134D01*
X61690238Y21306134D02*
X61690238Y21115658D01*
X61690238Y21115658D02*
X61737857Y21020420D01*
X61737857Y21020420D02*
X61785476Y20972800D01*
X61785476Y20972800D02*
X61880714Y20925181D01*
X61880714Y20925181D02*
X62071190Y20925181D01*
X62071190Y20925181D02*
X62166428Y20972800D01*
X62166428Y20972800D02*
X62214047Y21020420D01*
X62214047Y21020420D02*
X62261666Y21115658D01*
X62261666Y21115658D02*
X62261666Y21306134D01*
X62261666Y21306134D02*
X62214047Y21401372D01*
X62214047Y21401372D02*
X62166428Y21448991D01*
X62166428Y21448991D02*
X62071190Y21496610D01*
X85336142Y20627181D02*
X85002809Y21103372D01*
X84764714Y20627181D02*
X84764714Y21627181D01*
X84764714Y21627181D02*
X85145666Y21627181D01*
X85145666Y21627181D02*
X85240904Y21579562D01*
X85240904Y21579562D02*
X85288523Y21531943D01*
X85288523Y21531943D02*
X85336142Y21436705D01*
X85336142Y21436705D02*
X85336142Y21293848D01*
X85336142Y21293848D02*
X85288523Y21198610D01*
X85288523Y21198610D02*
X85240904Y21150991D01*
X85240904Y21150991D02*
X85145666Y21103372D01*
X85145666Y21103372D02*
X84764714Y21103372D01*
X86288523Y20627181D02*
X85717095Y20627181D01*
X86002809Y20627181D02*
X86002809Y21627181D01*
X86002809Y21627181D02*
X85907571Y21484324D01*
X85907571Y21484324D02*
X85812333Y21389086D01*
X85812333Y21389086D02*
X85717095Y21341467D01*
X87145666Y21293848D02*
X87145666Y20627181D01*
X86907571Y21674800D02*
X86669476Y20960515D01*
X86669476Y20960515D02*
X87288523Y20960515D01*
X87368142Y23675181D02*
X87034809Y24151372D01*
X86796714Y23675181D02*
X86796714Y24675181D01*
X86796714Y24675181D02*
X87177666Y24675181D01*
X87177666Y24675181D02*
X87272904Y24627562D01*
X87272904Y24627562D02*
X87320523Y24579943D01*
X87320523Y24579943D02*
X87368142Y24484705D01*
X87368142Y24484705D02*
X87368142Y24341848D01*
X87368142Y24341848D02*
X87320523Y24246610D01*
X87320523Y24246610D02*
X87272904Y24198991D01*
X87272904Y24198991D02*
X87177666Y24151372D01*
X87177666Y24151372D02*
X86796714Y24151372D01*
X88320523Y23675181D02*
X87749095Y23675181D01*
X88034809Y23675181D02*
X88034809Y24675181D01*
X88034809Y24675181D02*
X87939571Y24532324D01*
X87939571Y24532324D02*
X87844333Y24437086D01*
X87844333Y24437086D02*
X87749095Y24389467D01*
X88653857Y24675181D02*
X89272904Y24675181D01*
X89272904Y24675181D02*
X88939571Y24294229D01*
X88939571Y24294229D02*
X89082428Y24294229D01*
X89082428Y24294229D02*
X89177666Y24246610D01*
X89177666Y24246610D02*
X89225285Y24198991D01*
X89225285Y24198991D02*
X89272904Y24103753D01*
X89272904Y24103753D02*
X89272904Y23865658D01*
X89272904Y23865658D02*
X89225285Y23770420D01*
X89225285Y23770420D02*
X89177666Y23722800D01*
X89177666Y23722800D02*
X89082428Y23675181D01*
X89082428Y23675181D02*
X88796714Y23675181D01*
X88796714Y23675181D02*
X88701476Y23722800D01*
X88701476Y23722800D02*
X88653857Y23770420D01*
X69977095Y32329181D02*
X69977095Y31519658D01*
X69977095Y31519658D02*
X70024714Y31424420D01*
X70024714Y31424420D02*
X70072333Y31376800D01*
X70072333Y31376800D02*
X70167571Y31329181D01*
X70167571Y31329181D02*
X70358047Y31329181D01*
X70358047Y31329181D02*
X70453285Y31376800D01*
X70453285Y31376800D02*
X70500904Y31424420D01*
X70500904Y31424420D02*
X70548523Y31519658D01*
X70548523Y31519658D02*
X70548523Y32329181D01*
X70929476Y32329181D02*
X71548523Y32329181D01*
X71548523Y32329181D02*
X71215190Y31948229D01*
X71215190Y31948229D02*
X71358047Y31948229D01*
X71358047Y31948229D02*
X71453285Y31900610D01*
X71453285Y31900610D02*
X71500904Y31852991D01*
X71500904Y31852991D02*
X71548523Y31757753D01*
X71548523Y31757753D02*
X71548523Y31519658D01*
X71548523Y31519658D02*
X71500904Y31424420D01*
X71500904Y31424420D02*
X71453285Y31376800D01*
X71453285Y31376800D02*
X71358047Y31329181D01*
X71358047Y31329181D02*
X71072333Y31329181D01*
X71072333Y31329181D02*
X70977095Y31376800D01*
X70977095Y31376800D02*
X70929476Y31424420D01*
X42022095Y32837181D02*
X42022095Y32027658D01*
X42022095Y32027658D02*
X42069714Y31932420D01*
X42069714Y31932420D02*
X42117333Y31884800D01*
X42117333Y31884800D02*
X42212571Y31837181D01*
X42212571Y31837181D02*
X42403047Y31837181D01*
X42403047Y31837181D02*
X42498285Y31884800D01*
X42498285Y31884800D02*
X42545904Y31932420D01*
X42545904Y31932420D02*
X42593523Y32027658D01*
X42593523Y32027658D02*
X42593523Y32837181D01*
X43593523Y31837181D02*
X43022095Y31837181D01*
X43307809Y31837181D02*
X43307809Y32837181D01*
X43307809Y32837181D02*
X43212571Y32694324D01*
X43212571Y32694324D02*
X43117333Y32599086D01*
X43117333Y32599086D02*
X43022095Y32551467D01*
X63889286Y2323181D02*
X64460714Y2323181D01*
X64175000Y1323181D02*
X64175000Y2323181D01*
X64794048Y1323181D02*
X64794048Y2323181D01*
X64794048Y2323181D02*
X65175000Y2323181D01*
X65175000Y2323181D02*
X65270238Y2275562D01*
X65270238Y2275562D02*
X65317857Y2227943D01*
X65317857Y2227943D02*
X65365476Y2132705D01*
X65365476Y2132705D02*
X65365476Y1989848D01*
X65365476Y1989848D02*
X65317857Y1894610D01*
X65317857Y1894610D02*
X65270238Y1846991D01*
X65270238Y1846991D02*
X65175000Y1799372D01*
X65175000Y1799372D02*
X64794048Y1799372D01*
X66317857Y2275562D02*
X66222619Y2323181D01*
X66222619Y2323181D02*
X66079762Y2323181D01*
X66079762Y2323181D02*
X65936905Y2275562D01*
X65936905Y2275562D02*
X65841667Y2180324D01*
X65841667Y2180324D02*
X65794048Y2085086D01*
X65794048Y2085086D02*
X65746429Y1894610D01*
X65746429Y1894610D02*
X65746429Y1751753D01*
X65746429Y1751753D02*
X65794048Y1561277D01*
X65794048Y1561277D02*
X65841667Y1466039D01*
X65841667Y1466039D02*
X65936905Y1370800D01*
X65936905Y1370800D02*
X66079762Y1323181D01*
X66079762Y1323181D02*
X66175000Y1323181D01*
X66175000Y1323181D02*
X66317857Y1370800D01*
X66317857Y1370800D02*
X66365476Y1418420D01*
X66365476Y1418420D02*
X66365476Y1751753D01*
X66365476Y1751753D02*
X66175000Y1751753D01*
X66794048Y1323181D02*
X66794048Y2323181D01*
X66794048Y2323181D02*
X67365476Y1323181D01*
X67365476Y1323181D02*
X67365476Y2323181D01*
X67841667Y1323181D02*
X67841667Y2323181D01*
X67841667Y2323181D02*
X68079762Y2323181D01*
X68079762Y2323181D02*
X68222619Y2275562D01*
X68222619Y2275562D02*
X68317857Y2180324D01*
X68317857Y2180324D02*
X68365476Y2085086D01*
X68365476Y2085086D02*
X68413095Y1894610D01*
X68413095Y1894610D02*
X68413095Y1751753D01*
X68413095Y1751753D02*
X68365476Y1561277D01*
X68365476Y1561277D02*
X68317857Y1466039D01*
X68317857Y1466039D02*
X68222619Y1370800D01*
X68222619Y1370800D02*
X68079762Y1323181D01*
X68079762Y1323181D02*
X67841667Y1323181D01*
X69365476Y1323181D02*
X68794048Y1323181D01*
X69079762Y1323181D02*
X69079762Y2323181D01*
X69079762Y2323181D02*
X68984524Y2180324D01*
X68984524Y2180324D02*
X68889286Y2085086D01*
X68889286Y2085086D02*
X68794048Y2037467D01*
X68754666Y10197181D02*
X68754666Y9482896D01*
X68754666Y9482896D02*
X68707047Y9340039D01*
X68707047Y9340039D02*
X68611809Y9244800D01*
X68611809Y9244800D02*
X68468952Y9197181D01*
X68468952Y9197181D02*
X68373714Y9197181D01*
X69707047Y10197181D02*
X69230857Y10197181D01*
X69230857Y10197181D02*
X69183238Y9720991D01*
X69183238Y9720991D02*
X69230857Y9768610D01*
X69230857Y9768610D02*
X69326095Y9816229D01*
X69326095Y9816229D02*
X69564190Y9816229D01*
X69564190Y9816229D02*
X69659428Y9768610D01*
X69659428Y9768610D02*
X69707047Y9720991D01*
X69707047Y9720991D02*
X69754666Y9625753D01*
X69754666Y9625753D02*
X69754666Y9387658D01*
X69754666Y9387658D02*
X69707047Y9292420D01*
X69707047Y9292420D02*
X69659428Y9244800D01*
X69659428Y9244800D02*
X69564190Y9197181D01*
X69564190Y9197181D02*
X69326095Y9197181D01*
X69326095Y9197181D02*
X69230857Y9244800D01*
X69230857Y9244800D02*
X69183238Y9292420D01*
X40521286Y8059181D02*
X41092714Y8059181D01*
X40807000Y7059181D02*
X40807000Y8059181D01*
X41426048Y7059181D02*
X41426048Y8059181D01*
X41426048Y8059181D02*
X41807000Y8059181D01*
X41807000Y8059181D02*
X41902238Y8011562D01*
X41902238Y8011562D02*
X41949857Y7963943D01*
X41949857Y7963943D02*
X41997476Y7868705D01*
X41997476Y7868705D02*
X41997476Y7725848D01*
X41997476Y7725848D02*
X41949857Y7630610D01*
X41949857Y7630610D02*
X41902238Y7582991D01*
X41902238Y7582991D02*
X41807000Y7535372D01*
X41807000Y7535372D02*
X41426048Y7535372D01*
X42426048Y7440134D02*
X43187953Y7440134D01*
X43711762Y7059181D02*
X43902238Y7059181D01*
X43902238Y7059181D02*
X43997476Y7106800D01*
X43997476Y7106800D02*
X44045095Y7154420D01*
X44045095Y7154420D02*
X44140333Y7297277D01*
X44140333Y7297277D02*
X44187952Y7487753D01*
X44187952Y7487753D02*
X44187952Y7868705D01*
X44187952Y7868705D02*
X44140333Y7963943D01*
X44140333Y7963943D02*
X44092714Y8011562D01*
X44092714Y8011562D02*
X43997476Y8059181D01*
X43997476Y8059181D02*
X43807000Y8059181D01*
X43807000Y8059181D02*
X43711762Y8011562D01*
X43711762Y8011562D02*
X43664143Y7963943D01*
X43664143Y7963943D02*
X43616524Y7868705D01*
X43616524Y7868705D02*
X43616524Y7630610D01*
X43616524Y7630610D02*
X43664143Y7535372D01*
X43664143Y7535372D02*
X43711762Y7487753D01*
X43711762Y7487753D02*
X43807000Y7440134D01*
X43807000Y7440134D02*
X43997476Y7440134D01*
X43997476Y7440134D02*
X44092714Y7487753D01*
X44092714Y7487753D02*
X44140333Y7535372D01*
X44140333Y7535372D02*
X44187952Y7630610D01*
X44473667Y8059181D02*
X44807000Y7059181D01*
X44807000Y7059181D02*
X45140333Y8059181D01*
X45997476Y7059181D02*
X45426048Y7059181D01*
X45711762Y7059181D02*
X45711762Y8059181D01*
X45711762Y8059181D02*
X45616524Y7916324D01*
X45616524Y7916324D02*
X45521286Y7821086D01*
X45521286Y7821086D02*
X45426048Y7773467D01*
X57793286Y43977181D02*
X58364714Y43977181D01*
X58079000Y42977181D02*
X58079000Y43977181D01*
X58698048Y42977181D02*
X58698048Y43977181D01*
X58698048Y43977181D02*
X59079000Y43977181D01*
X59079000Y43977181D02*
X59174238Y43929562D01*
X59174238Y43929562D02*
X59221857Y43881943D01*
X59221857Y43881943D02*
X59269476Y43786705D01*
X59269476Y43786705D02*
X59269476Y43643848D01*
X59269476Y43643848D02*
X59221857Y43548610D01*
X59221857Y43548610D02*
X59174238Y43500991D01*
X59174238Y43500991D02*
X59079000Y43453372D01*
X59079000Y43453372D02*
X58698048Y43453372D01*
X59698048Y43358134D02*
X60459953Y43358134D01*
X60079000Y42977181D02*
X60079000Y43739086D01*
X60983762Y42977181D02*
X61174238Y42977181D01*
X61174238Y42977181D02*
X61269476Y43024800D01*
X61269476Y43024800D02*
X61317095Y43072420D01*
X61317095Y43072420D02*
X61412333Y43215277D01*
X61412333Y43215277D02*
X61459952Y43405753D01*
X61459952Y43405753D02*
X61459952Y43786705D01*
X61459952Y43786705D02*
X61412333Y43881943D01*
X61412333Y43881943D02*
X61364714Y43929562D01*
X61364714Y43929562D02*
X61269476Y43977181D01*
X61269476Y43977181D02*
X61079000Y43977181D01*
X61079000Y43977181D02*
X60983762Y43929562D01*
X60983762Y43929562D02*
X60936143Y43881943D01*
X60936143Y43881943D02*
X60888524Y43786705D01*
X60888524Y43786705D02*
X60888524Y43548610D01*
X60888524Y43548610D02*
X60936143Y43453372D01*
X60936143Y43453372D02*
X60983762Y43405753D01*
X60983762Y43405753D02*
X61079000Y43358134D01*
X61079000Y43358134D02*
X61269476Y43358134D01*
X61269476Y43358134D02*
X61364714Y43405753D01*
X61364714Y43405753D02*
X61412333Y43453372D01*
X61412333Y43453372D02*
X61459952Y43548610D01*
X61745667Y43977181D02*
X62079000Y42977181D01*
X62079000Y42977181D02*
X62412333Y43977181D01*
X63269476Y42977181D02*
X62698048Y42977181D01*
X62983762Y42977181D02*
X62983762Y43977181D01*
X62983762Y43977181D02*
X62888524Y43834324D01*
X62888524Y43834324D02*
X62793286Y43739086D01*
X62793286Y43739086D02*
X62698048Y43691467D01*
X52753095Y31785181D02*
X53324523Y31785181D01*
X53038809Y30785181D02*
X53038809Y31785181D01*
X53657857Y30785181D02*
X53657857Y31785181D01*
X53657857Y31785181D02*
X54038809Y31785181D01*
X54038809Y31785181D02*
X54134047Y31737562D01*
X54134047Y31737562D02*
X54181666Y31689943D01*
X54181666Y31689943D02*
X54229285Y31594705D01*
X54229285Y31594705D02*
X54229285Y31451848D01*
X54229285Y31451848D02*
X54181666Y31356610D01*
X54181666Y31356610D02*
X54134047Y31308991D01*
X54134047Y31308991D02*
X54038809Y31261372D01*
X54038809Y31261372D02*
X53657857Y31261372D01*
X54991190Y31308991D02*
X55134047Y31261372D01*
X55134047Y31261372D02*
X55181666Y31213753D01*
X55181666Y31213753D02*
X55229285Y31118515D01*
X55229285Y31118515D02*
X55229285Y30975658D01*
X55229285Y30975658D02*
X55181666Y30880420D01*
X55181666Y30880420D02*
X55134047Y30832800D01*
X55134047Y30832800D02*
X55038809Y30785181D01*
X55038809Y30785181D02*
X54657857Y30785181D01*
X54657857Y30785181D02*
X54657857Y31785181D01*
X54657857Y31785181D02*
X54991190Y31785181D01*
X54991190Y31785181D02*
X55086428Y31737562D01*
X55086428Y31737562D02*
X55134047Y31689943D01*
X55134047Y31689943D02*
X55181666Y31594705D01*
X55181666Y31594705D02*
X55181666Y31499467D01*
X55181666Y31499467D02*
X55134047Y31404229D01*
X55134047Y31404229D02*
X55086428Y31356610D01*
X55086428Y31356610D02*
X54991190Y31308991D01*
X54991190Y31308991D02*
X54657857Y31308991D01*
X56086428Y31451848D02*
X56086428Y30785181D01*
X55657857Y31451848D02*
X55657857Y30928039D01*
X55657857Y30928039D02*
X55705476Y30832800D01*
X55705476Y30832800D02*
X55800714Y30785181D01*
X55800714Y30785181D02*
X55943571Y30785181D01*
X55943571Y30785181D02*
X56038809Y30832800D01*
X56038809Y30832800D02*
X56086428Y30880420D01*
X56419762Y31451848D02*
X56800714Y31451848D01*
X56562619Y30785181D02*
X56562619Y31642324D01*
X56562619Y31642324D02*
X56610238Y31737562D01*
X56610238Y31737562D02*
X56705476Y31785181D01*
X56705476Y31785181D02*
X56800714Y31785181D01*
X57324524Y31785181D02*
X57515000Y31785181D01*
X57515000Y31785181D02*
X57610238Y31737562D01*
X57610238Y31737562D02*
X57705476Y31642324D01*
X57705476Y31642324D02*
X57753095Y31451848D01*
X57753095Y31451848D02*
X57753095Y31118515D01*
X57753095Y31118515D02*
X57705476Y30928039D01*
X57705476Y30928039D02*
X57610238Y30832800D01*
X57610238Y30832800D02*
X57515000Y30785181D01*
X57515000Y30785181D02*
X57324524Y30785181D01*
X57324524Y30785181D02*
X57229286Y30832800D01*
X57229286Y30832800D02*
X57134048Y30928039D01*
X57134048Y30928039D02*
X57086429Y31118515D01*
X57086429Y31118515D02*
X57086429Y31451848D01*
X57086429Y31451848D02*
X57134048Y31642324D01*
X57134048Y31642324D02*
X57229286Y31737562D01*
X57229286Y31737562D02*
X57324524Y31785181D01*
X58610238Y31451848D02*
X58610238Y30785181D01*
X58181667Y31451848D02*
X58181667Y30928039D01*
X58181667Y30928039D02*
X58229286Y30832800D01*
X58229286Y30832800D02*
X58324524Y30785181D01*
X58324524Y30785181D02*
X58467381Y30785181D01*
X58467381Y30785181D02*
X58562619Y30832800D01*
X58562619Y30832800D02*
X58610238Y30880420D01*
X58943572Y31451848D02*
X59324524Y31451848D01*
X59086429Y31785181D02*
X59086429Y30928039D01*
X59086429Y30928039D02*
X59134048Y30832800D01*
X59134048Y30832800D02*
X59229286Y30785181D01*
X59229286Y30785181D02*
X59324524Y30785181D01*
X60181667Y30785181D02*
X59610239Y30785181D01*
X59895953Y30785181D02*
X59895953Y31785181D01*
X59895953Y31785181D02*
X59800715Y31642324D01*
X59800715Y31642324D02*
X59705477Y31547086D01*
X59705477Y31547086D02*
X59610239Y31499467D01*
X80843952Y35213181D02*
X81415380Y35213181D01*
X81129666Y34213181D02*
X81129666Y35213181D01*
X81748714Y34213181D02*
X81748714Y35213181D01*
X81748714Y35213181D02*
X82129666Y35213181D01*
X82129666Y35213181D02*
X82224904Y35165562D01*
X82224904Y35165562D02*
X82272523Y35117943D01*
X82272523Y35117943D02*
X82320142Y35022705D01*
X82320142Y35022705D02*
X82320142Y34879848D01*
X82320142Y34879848D02*
X82272523Y34784610D01*
X82272523Y34784610D02*
X82224904Y34736991D01*
X82224904Y34736991D02*
X82129666Y34689372D01*
X82129666Y34689372D02*
X81748714Y34689372D01*
X83082047Y34736991D02*
X83224904Y34689372D01*
X83224904Y34689372D02*
X83272523Y34641753D01*
X83272523Y34641753D02*
X83320142Y34546515D01*
X83320142Y34546515D02*
X83320142Y34403658D01*
X83320142Y34403658D02*
X83272523Y34308420D01*
X83272523Y34308420D02*
X83224904Y34260800D01*
X83224904Y34260800D02*
X83129666Y34213181D01*
X83129666Y34213181D02*
X82748714Y34213181D01*
X82748714Y34213181D02*
X82748714Y35213181D01*
X82748714Y35213181D02*
X83082047Y35213181D01*
X83082047Y35213181D02*
X83177285Y35165562D01*
X83177285Y35165562D02*
X83224904Y35117943D01*
X83224904Y35117943D02*
X83272523Y35022705D01*
X83272523Y35022705D02*
X83272523Y34927467D01*
X83272523Y34927467D02*
X83224904Y34832229D01*
X83224904Y34832229D02*
X83177285Y34784610D01*
X83177285Y34784610D02*
X83082047Y34736991D01*
X83082047Y34736991D02*
X82748714Y34736991D01*
X83748714Y34213181D02*
X83748714Y34879848D01*
X83748714Y35213181D02*
X83701095Y35165562D01*
X83701095Y35165562D02*
X83748714Y35117943D01*
X83748714Y35117943D02*
X83796333Y35165562D01*
X83796333Y35165562D02*
X83748714Y35213181D01*
X83748714Y35213181D02*
X83748714Y35117943D01*
X84653475Y34213181D02*
X84653475Y34736991D01*
X84653475Y34736991D02*
X84605856Y34832229D01*
X84605856Y34832229D02*
X84510618Y34879848D01*
X84510618Y34879848D02*
X84320142Y34879848D01*
X84320142Y34879848D02*
X84224904Y34832229D01*
X84653475Y34260800D02*
X84558237Y34213181D01*
X84558237Y34213181D02*
X84320142Y34213181D01*
X84320142Y34213181D02*
X84224904Y34260800D01*
X84224904Y34260800D02*
X84177285Y34356039D01*
X84177285Y34356039D02*
X84177285Y34451277D01*
X84177285Y34451277D02*
X84224904Y34546515D01*
X84224904Y34546515D02*
X84320142Y34594134D01*
X84320142Y34594134D02*
X84558237Y34594134D01*
X84558237Y34594134D02*
X84653475Y34641753D01*
X85082047Y34260800D02*
X85177285Y34213181D01*
X85177285Y34213181D02*
X85367761Y34213181D01*
X85367761Y34213181D02*
X85462999Y34260800D01*
X85462999Y34260800D02*
X85510618Y34356039D01*
X85510618Y34356039D02*
X85510618Y34403658D01*
X85510618Y34403658D02*
X85462999Y34498896D01*
X85462999Y34498896D02*
X85367761Y34546515D01*
X85367761Y34546515D02*
X85224904Y34546515D01*
X85224904Y34546515D02*
X85129666Y34594134D01*
X85129666Y34594134D02*
X85082047Y34689372D01*
X85082047Y34689372D02*
X85082047Y34736991D01*
X85082047Y34736991D02*
X85129666Y34832229D01*
X85129666Y34832229D02*
X85224904Y34879848D01*
X85224904Y34879848D02*
X85367761Y34879848D01*
X85367761Y34879848D02*
X85462999Y34832229D01*
X86129666Y35213181D02*
X86320142Y35213181D01*
X86320142Y35213181D02*
X86415380Y35165562D01*
X86415380Y35165562D02*
X86510618Y35070324D01*
X86510618Y35070324D02*
X86558237Y34879848D01*
X86558237Y34879848D02*
X86558237Y34546515D01*
X86558237Y34546515D02*
X86510618Y34356039D01*
X86510618Y34356039D02*
X86415380Y34260800D01*
X86415380Y34260800D02*
X86320142Y34213181D01*
X86320142Y34213181D02*
X86129666Y34213181D01*
X86129666Y34213181D02*
X86034428Y34260800D01*
X86034428Y34260800D02*
X85939190Y34356039D01*
X85939190Y34356039D02*
X85891571Y34546515D01*
X85891571Y34546515D02*
X85891571Y34879848D01*
X85891571Y34879848D02*
X85939190Y35070324D01*
X85939190Y35070324D02*
X86034428Y35165562D01*
X86034428Y35165562D02*
X86129666Y35213181D01*
X87415380Y34879848D02*
X87415380Y34213181D01*
X86986809Y34879848D02*
X86986809Y34356039D01*
X86986809Y34356039D02*
X87034428Y34260800D01*
X87034428Y34260800D02*
X87129666Y34213181D01*
X87129666Y34213181D02*
X87272523Y34213181D01*
X87272523Y34213181D02*
X87367761Y34260800D01*
X87367761Y34260800D02*
X87415380Y34308420D01*
X87748714Y34879848D02*
X88129666Y34879848D01*
X87891571Y35213181D02*
X87891571Y34356039D01*
X87891571Y34356039D02*
X87939190Y34260800D01*
X87939190Y34260800D02*
X88034428Y34213181D01*
X88034428Y34213181D02*
X88129666Y34213181D01*
X88986809Y34213181D02*
X88415381Y34213181D01*
X88701095Y34213181D02*
X88701095Y35213181D01*
X88701095Y35213181D02*
X88605857Y35070324D01*
X88605857Y35070324D02*
X88510619Y34975086D01*
X88510619Y34975086D02*
X88415381Y34927467D01*
X55055000Y25183181D02*
X55626428Y25183181D01*
X55340714Y24183181D02*
X55340714Y25183181D01*
X55959762Y24183181D02*
X55959762Y25183181D01*
X55959762Y25183181D02*
X56340714Y25183181D01*
X56340714Y25183181D02*
X56435952Y25135562D01*
X56435952Y25135562D02*
X56483571Y25087943D01*
X56483571Y25087943D02*
X56531190Y24992705D01*
X56531190Y24992705D02*
X56531190Y24849848D01*
X56531190Y24849848D02*
X56483571Y24754610D01*
X56483571Y24754610D02*
X56435952Y24706991D01*
X56435952Y24706991D02*
X56340714Y24659372D01*
X56340714Y24659372D02*
X55959762Y24659372D01*
X57531190Y24183181D02*
X57197857Y24659372D01*
X56959762Y24183181D02*
X56959762Y25183181D01*
X56959762Y25183181D02*
X57340714Y25183181D01*
X57340714Y25183181D02*
X57435952Y25135562D01*
X57435952Y25135562D02*
X57483571Y25087943D01*
X57483571Y25087943D02*
X57531190Y24992705D01*
X57531190Y24992705D02*
X57531190Y24849848D01*
X57531190Y24849848D02*
X57483571Y24754610D01*
X57483571Y24754610D02*
X57435952Y24706991D01*
X57435952Y24706991D02*
X57340714Y24659372D01*
X57340714Y24659372D02*
X56959762Y24659372D01*
X58388333Y24183181D02*
X58388333Y24706991D01*
X58388333Y24706991D02*
X58340714Y24802229D01*
X58340714Y24802229D02*
X58245476Y24849848D01*
X58245476Y24849848D02*
X58055000Y24849848D01*
X58055000Y24849848D02*
X57959762Y24802229D01*
X58388333Y24230800D02*
X58293095Y24183181D01*
X58293095Y24183181D02*
X58055000Y24183181D01*
X58055000Y24183181D02*
X57959762Y24230800D01*
X57959762Y24230800D02*
X57912143Y24326039D01*
X57912143Y24326039D02*
X57912143Y24421277D01*
X57912143Y24421277D02*
X57959762Y24516515D01*
X57959762Y24516515D02*
X58055000Y24564134D01*
X58055000Y24564134D02*
X58293095Y24564134D01*
X58293095Y24564134D02*
X58388333Y24611753D01*
X58769286Y24849848D02*
X58959762Y24183181D01*
X58959762Y24183181D02*
X59150238Y24659372D01*
X59150238Y24659372D02*
X59340714Y24183181D01*
X59340714Y24183181D02*
X59531190Y24849848D01*
X60102619Y25183181D02*
X60293095Y25183181D01*
X60293095Y25183181D02*
X60388333Y25135562D01*
X60388333Y25135562D02*
X60483571Y25040324D01*
X60483571Y25040324D02*
X60531190Y24849848D01*
X60531190Y24849848D02*
X60531190Y24516515D01*
X60531190Y24516515D02*
X60483571Y24326039D01*
X60483571Y24326039D02*
X60388333Y24230800D01*
X60388333Y24230800D02*
X60293095Y24183181D01*
X60293095Y24183181D02*
X60102619Y24183181D01*
X60102619Y24183181D02*
X60007381Y24230800D01*
X60007381Y24230800D02*
X59912143Y24326039D01*
X59912143Y24326039D02*
X59864524Y24516515D01*
X59864524Y24516515D02*
X59864524Y24849848D01*
X59864524Y24849848D02*
X59912143Y25040324D01*
X59912143Y25040324D02*
X60007381Y25135562D01*
X60007381Y25135562D02*
X60102619Y25183181D01*
X61388333Y24849848D02*
X61388333Y24183181D01*
X60959762Y24849848D02*
X60959762Y24326039D01*
X60959762Y24326039D02*
X61007381Y24230800D01*
X61007381Y24230800D02*
X61102619Y24183181D01*
X61102619Y24183181D02*
X61245476Y24183181D01*
X61245476Y24183181D02*
X61340714Y24230800D01*
X61340714Y24230800D02*
X61388333Y24278420D01*
X61721667Y24849848D02*
X62102619Y24849848D01*
X61864524Y25183181D02*
X61864524Y24326039D01*
X61864524Y24326039D02*
X61912143Y24230800D01*
X61912143Y24230800D02*
X62007381Y24183181D01*
X62007381Y24183181D02*
X62102619Y24183181D01*
X62959762Y24183181D02*
X62388334Y24183181D01*
X62674048Y24183181D02*
X62674048Y25183181D01*
X62674048Y25183181D02*
X62578810Y25040324D01*
X62578810Y25040324D02*
X62483572Y24945086D01*
X62483572Y24945086D02*
X62388334Y24897467D01*
X841667Y34833181D02*
X1413095Y34833181D01*
X1127381Y33833181D02*
X1127381Y34833181D01*
X1746429Y33833181D02*
X1746429Y34833181D01*
X1746429Y34833181D02*
X2127381Y34833181D01*
X2127381Y34833181D02*
X2222619Y34785562D01*
X2222619Y34785562D02*
X2270238Y34737943D01*
X2270238Y34737943D02*
X2317857Y34642705D01*
X2317857Y34642705D02*
X2317857Y34499848D01*
X2317857Y34499848D02*
X2270238Y34404610D01*
X2270238Y34404610D02*
X2222619Y34356991D01*
X2222619Y34356991D02*
X2127381Y34309372D01*
X2127381Y34309372D02*
X1746429Y34309372D01*
X2746429Y34356991D02*
X3079762Y34356991D01*
X3222619Y33833181D02*
X2746429Y33833181D01*
X2746429Y33833181D02*
X2746429Y34833181D01*
X2746429Y34833181D02*
X3222619Y34833181D01*
X3651191Y34214134D02*
X4413096Y34214134D01*
X5413095Y33833181D02*
X4841667Y33833181D01*
X5127381Y33833181D02*
X5127381Y34833181D01*
X5127381Y34833181D02*
X5032143Y34690324D01*
X5032143Y34690324D02*
X4936905Y34595086D01*
X4936905Y34595086D02*
X4841667Y34547467D01*
X841667Y17561181D02*
X1413095Y17561181D01*
X1127381Y16561181D02*
X1127381Y17561181D01*
X1746429Y16561181D02*
X1746429Y17561181D01*
X1746429Y17561181D02*
X2127381Y17561181D01*
X2127381Y17561181D02*
X2222619Y17513562D01*
X2222619Y17513562D02*
X2270238Y17465943D01*
X2270238Y17465943D02*
X2317857Y17370705D01*
X2317857Y17370705D02*
X2317857Y17227848D01*
X2317857Y17227848D02*
X2270238Y17132610D01*
X2270238Y17132610D02*
X2222619Y17084991D01*
X2222619Y17084991D02*
X2127381Y17037372D01*
X2127381Y17037372D02*
X1746429Y17037372D01*
X2746429Y17084991D02*
X3079762Y17084991D01*
X3222619Y16561181D02*
X2746429Y16561181D01*
X2746429Y16561181D02*
X2746429Y17561181D01*
X2746429Y17561181D02*
X3222619Y17561181D01*
X3651191Y16942134D02*
X4413096Y16942134D01*
X4032143Y16561181D02*
X4032143Y17323086D01*
X5413095Y16561181D02*
X4841667Y16561181D01*
X5127381Y16561181D02*
X5127381Y17561181D01*
X5127381Y17561181D02*
X5032143Y17418324D01*
X5032143Y17418324D02*
X4936905Y17323086D01*
X4936905Y17323086D02*
X4841667Y17275467D01*
X78732142Y9451181D02*
X78398809Y9927372D01*
X78160714Y9451181D02*
X78160714Y10451181D01*
X78160714Y10451181D02*
X78541666Y10451181D01*
X78541666Y10451181D02*
X78636904Y10403562D01*
X78636904Y10403562D02*
X78684523Y10355943D01*
X78684523Y10355943D02*
X78732142Y10260705D01*
X78732142Y10260705D02*
X78732142Y10117848D01*
X78732142Y10117848D02*
X78684523Y10022610D01*
X78684523Y10022610D02*
X78636904Y9974991D01*
X78636904Y9974991D02*
X78541666Y9927372D01*
X78541666Y9927372D02*
X78160714Y9927372D01*
X79684523Y9451181D02*
X79113095Y9451181D01*
X79398809Y9451181D02*
X79398809Y10451181D01*
X79398809Y10451181D02*
X79303571Y10308324D01*
X79303571Y10308324D02*
X79208333Y10213086D01*
X79208333Y10213086D02*
X79113095Y10165467D01*
X80065476Y10355943D02*
X80113095Y10403562D01*
X80113095Y10403562D02*
X80208333Y10451181D01*
X80208333Y10451181D02*
X80446428Y10451181D01*
X80446428Y10451181D02*
X80541666Y10403562D01*
X80541666Y10403562D02*
X80589285Y10355943D01*
X80589285Y10355943D02*
X80636904Y10260705D01*
X80636904Y10260705D02*
X80636904Y10165467D01*
X80636904Y10165467D02*
X80589285Y10022610D01*
X80589285Y10022610D02*
X80017857Y9451181D01*
X80017857Y9451181D02*
X80636904Y9451181D01*
X78732142Y17579181D02*
X78398809Y18055372D01*
X78160714Y17579181D02*
X78160714Y18579181D01*
X78160714Y18579181D02*
X78541666Y18579181D01*
X78541666Y18579181D02*
X78636904Y18531562D01*
X78636904Y18531562D02*
X78684523Y18483943D01*
X78684523Y18483943D02*
X78732142Y18388705D01*
X78732142Y18388705D02*
X78732142Y18245848D01*
X78732142Y18245848D02*
X78684523Y18150610D01*
X78684523Y18150610D02*
X78636904Y18102991D01*
X78636904Y18102991D02*
X78541666Y18055372D01*
X78541666Y18055372D02*
X78160714Y18055372D01*
X79684523Y17579181D02*
X79113095Y17579181D01*
X79398809Y17579181D02*
X79398809Y18579181D01*
X79398809Y18579181D02*
X79303571Y18436324D01*
X79303571Y18436324D02*
X79208333Y18341086D01*
X79208333Y18341086D02*
X79113095Y18293467D01*
X80636904Y17579181D02*
X80065476Y17579181D01*
X80351190Y17579181D02*
X80351190Y18579181D01*
X80351190Y18579181D02*
X80255952Y18436324D01*
X80255952Y18436324D02*
X80160714Y18341086D01*
X80160714Y18341086D02*
X80065476Y18293467D01*
X32980333Y11991181D02*
X32647000Y12467372D01*
X32408905Y11991181D02*
X32408905Y12991181D01*
X32408905Y12991181D02*
X32789857Y12991181D01*
X32789857Y12991181D02*
X32885095Y12943562D01*
X32885095Y12943562D02*
X32932714Y12895943D01*
X32932714Y12895943D02*
X32980333Y12800705D01*
X32980333Y12800705D02*
X32980333Y12657848D01*
X32980333Y12657848D02*
X32932714Y12562610D01*
X32932714Y12562610D02*
X32885095Y12514991D01*
X32885095Y12514991D02*
X32789857Y12467372D01*
X32789857Y12467372D02*
X32408905Y12467372D01*
X33551762Y12562610D02*
X33456524Y12610229D01*
X33456524Y12610229D02*
X33408905Y12657848D01*
X33408905Y12657848D02*
X33361286Y12753086D01*
X33361286Y12753086D02*
X33361286Y12800705D01*
X33361286Y12800705D02*
X33408905Y12895943D01*
X33408905Y12895943D02*
X33456524Y12943562D01*
X33456524Y12943562D02*
X33551762Y12991181D01*
X33551762Y12991181D02*
X33742238Y12991181D01*
X33742238Y12991181D02*
X33837476Y12943562D01*
X33837476Y12943562D02*
X33885095Y12895943D01*
X33885095Y12895943D02*
X33932714Y12800705D01*
X33932714Y12800705D02*
X33932714Y12753086D01*
X33932714Y12753086D02*
X33885095Y12657848D01*
X33885095Y12657848D02*
X33837476Y12610229D01*
X33837476Y12610229D02*
X33742238Y12562610D01*
X33742238Y12562610D02*
X33551762Y12562610D01*
X33551762Y12562610D02*
X33456524Y12514991D01*
X33456524Y12514991D02*
X33408905Y12467372D01*
X33408905Y12467372D02*
X33361286Y12372134D01*
X33361286Y12372134D02*
X33361286Y12181658D01*
X33361286Y12181658D02*
X33408905Y12086420D01*
X33408905Y12086420D02*
X33456524Y12038800D01*
X33456524Y12038800D02*
X33551762Y11991181D01*
X33551762Y11991181D02*
X33742238Y11991181D01*
X33742238Y11991181D02*
X33837476Y12038800D01*
X33837476Y12038800D02*
X33885095Y12086420D01*
X33885095Y12086420D02*
X33932714Y12181658D01*
X33932714Y12181658D02*
X33932714Y12372134D01*
X33932714Y12372134D02*
X33885095Y12467372D01*
X33885095Y12467372D02*
X33837476Y12514991D01*
X33837476Y12514991D02*
X33742238Y12562610D01*
X32980333Y39423181D02*
X32647000Y39899372D01*
X32408905Y39423181D02*
X32408905Y40423181D01*
X32408905Y40423181D02*
X32789857Y40423181D01*
X32789857Y40423181D02*
X32885095Y40375562D01*
X32885095Y40375562D02*
X32932714Y40327943D01*
X32932714Y40327943D02*
X32980333Y40232705D01*
X32980333Y40232705D02*
X32980333Y40089848D01*
X32980333Y40089848D02*
X32932714Y39994610D01*
X32932714Y39994610D02*
X32885095Y39946991D01*
X32885095Y39946991D02*
X32789857Y39899372D01*
X32789857Y39899372D02*
X32408905Y39899372D01*
X33456524Y39423181D02*
X33647000Y39423181D01*
X33647000Y39423181D02*
X33742238Y39470800D01*
X33742238Y39470800D02*
X33789857Y39518420D01*
X33789857Y39518420D02*
X33885095Y39661277D01*
X33885095Y39661277D02*
X33932714Y39851753D01*
X33932714Y39851753D02*
X33932714Y40232705D01*
X33932714Y40232705D02*
X33885095Y40327943D01*
X33885095Y40327943D02*
X33837476Y40375562D01*
X33837476Y40375562D02*
X33742238Y40423181D01*
X33742238Y40423181D02*
X33551762Y40423181D01*
X33551762Y40423181D02*
X33456524Y40375562D01*
X33456524Y40375562D02*
X33408905Y40327943D01*
X33408905Y40327943D02*
X33361286Y40232705D01*
X33361286Y40232705D02*
X33361286Y39994610D01*
X33361286Y39994610D02*
X33408905Y39899372D01*
X33408905Y39899372D02*
X33456524Y39851753D01*
X33456524Y39851753D02*
X33551762Y39804134D01*
X33551762Y39804134D02*
X33742238Y39804134D01*
X33742238Y39804134D02*
X33837476Y39851753D01*
X33837476Y39851753D02*
X33885095Y39899372D01*
X33885095Y39899372D02*
X33932714Y39994610D01*
X21804333Y30279181D02*
X21471000Y30755372D01*
X21232905Y30279181D02*
X21232905Y31279181D01*
X21232905Y31279181D02*
X21613857Y31279181D01*
X21613857Y31279181D02*
X21709095Y31231562D01*
X21709095Y31231562D02*
X21756714Y31183943D01*
X21756714Y31183943D02*
X21804333Y31088705D01*
X21804333Y31088705D02*
X21804333Y30945848D01*
X21804333Y30945848D02*
X21756714Y30850610D01*
X21756714Y30850610D02*
X21709095Y30802991D01*
X21709095Y30802991D02*
X21613857Y30755372D01*
X21613857Y30755372D02*
X21232905Y30755372D01*
X22661476Y30945848D02*
X22661476Y30279181D01*
X22423381Y31326800D02*
X22185286Y30612515D01*
X22185286Y30612515D02*
X22804333Y30612515D01*
X21804333Y21135181D02*
X21471000Y21611372D01*
X21232905Y21135181D02*
X21232905Y22135181D01*
X21232905Y22135181D02*
X21613857Y22135181D01*
X21613857Y22135181D02*
X21709095Y22087562D01*
X21709095Y22087562D02*
X21756714Y22039943D01*
X21756714Y22039943D02*
X21804333Y21944705D01*
X21804333Y21944705D02*
X21804333Y21801848D01*
X21804333Y21801848D02*
X21756714Y21706610D01*
X21756714Y21706610D02*
X21709095Y21658991D01*
X21709095Y21658991D02*
X21613857Y21611372D01*
X21613857Y21611372D02*
X21232905Y21611372D01*
X22756714Y21135181D02*
X22185286Y21135181D01*
X22471000Y21135181D02*
X22471000Y22135181D01*
X22471000Y22135181D02*
X22375762Y21992324D01*
X22375762Y21992324D02*
X22280524Y21897086D01*
X22280524Y21897086D02*
X22185286Y21849467D01*
X42632333Y37391181D02*
X42299000Y37867372D01*
X42060905Y37391181D02*
X42060905Y38391181D01*
X42060905Y38391181D02*
X42441857Y38391181D01*
X42441857Y38391181D02*
X42537095Y38343562D01*
X42537095Y38343562D02*
X42584714Y38295943D01*
X42584714Y38295943D02*
X42632333Y38200705D01*
X42632333Y38200705D02*
X42632333Y38057848D01*
X42632333Y38057848D02*
X42584714Y37962610D01*
X42584714Y37962610D02*
X42537095Y37914991D01*
X42537095Y37914991D02*
X42441857Y37867372D01*
X42441857Y37867372D02*
X42060905Y37867372D01*
X42965667Y38391181D02*
X43632333Y38391181D01*
X43632333Y38391181D02*
X43203762Y37391181D01*
X92757666Y39915181D02*
X92757666Y39200896D01*
X92757666Y39200896D02*
X92710047Y39058039D01*
X92710047Y39058039D02*
X92614809Y38962800D01*
X92614809Y38962800D02*
X92471952Y38915181D01*
X92471952Y38915181D02*
X92376714Y38915181D01*
X93138619Y39915181D02*
X93805285Y39915181D01*
X93805285Y39915181D02*
X93376714Y38915181D01*
X90974666Y29755181D02*
X90974666Y29040896D01*
X90974666Y29040896D02*
X90927047Y28898039D01*
X90927047Y28898039D02*
X90831809Y28802800D01*
X90831809Y28802800D02*
X90688952Y28755181D01*
X90688952Y28755181D02*
X90593714Y28755181D01*
X91879428Y29755181D02*
X91688952Y29755181D01*
X91688952Y29755181D02*
X91593714Y29707562D01*
X91593714Y29707562D02*
X91546095Y29659943D01*
X91546095Y29659943D02*
X91450857Y29517086D01*
X91450857Y29517086D02*
X91403238Y29326610D01*
X91403238Y29326610D02*
X91403238Y28945658D01*
X91403238Y28945658D02*
X91450857Y28850420D01*
X91450857Y28850420D02*
X91498476Y28802800D01*
X91498476Y28802800D02*
X91593714Y28755181D01*
X91593714Y28755181D02*
X91784190Y28755181D01*
X91784190Y28755181D02*
X91879428Y28802800D01*
X91879428Y28802800D02*
X91927047Y28850420D01*
X91927047Y28850420D02*
X91974666Y28945658D01*
X91974666Y28945658D02*
X91974666Y29183753D01*
X91974666Y29183753D02*
X91927047Y29278991D01*
X91927047Y29278991D02*
X91879428Y29326610D01*
X91879428Y29326610D02*
X91784190Y29374229D01*
X91784190Y29374229D02*
X91593714Y29374229D01*
X91593714Y29374229D02*
X91498476Y29326610D01*
X91498476Y29326610D02*
X91450857Y29278991D01*
X91450857Y29278991D02*
X91403238Y29183753D01*
X53133666Y10192181D02*
X53133666Y9477896D01*
X53133666Y9477896D02*
X53086047Y9335039D01*
X53086047Y9335039D02*
X52990809Y9239800D01*
X52990809Y9239800D02*
X52847952Y9192181D01*
X52847952Y9192181D02*
X52752714Y9192181D01*
X54038428Y9858848D02*
X54038428Y9192181D01*
X53800333Y10239800D02*
X53562238Y9525515D01*
X53562238Y9525515D02*
X54181285Y9525515D01*
X56181666Y42206181D02*
X56181666Y41491896D01*
X56181666Y41491896D02*
X56134047Y41349039D01*
X56134047Y41349039D02*
X56038809Y41253800D01*
X56038809Y41253800D02*
X55895952Y41206181D01*
X55895952Y41206181D02*
X55800714Y41206181D01*
X56562619Y42206181D02*
X57181666Y42206181D01*
X57181666Y42206181D02*
X56848333Y41825229D01*
X56848333Y41825229D02*
X56991190Y41825229D01*
X56991190Y41825229D02*
X57086428Y41777610D01*
X57086428Y41777610D02*
X57134047Y41729991D01*
X57134047Y41729991D02*
X57181666Y41634753D01*
X57181666Y41634753D02*
X57181666Y41396658D01*
X57181666Y41396658D02*
X57134047Y41301420D01*
X57134047Y41301420D02*
X57086428Y41253800D01*
X57086428Y41253800D02*
X56991190Y41206181D01*
X56991190Y41206181D02*
X56705476Y41206181D01*
X56705476Y41206181D02*
X56610238Y41253800D01*
X56610238Y41253800D02*
X56562619Y41301420D01*
X18081666Y17055181D02*
X18081666Y16340896D01*
X18081666Y16340896D02*
X18034047Y16198039D01*
X18034047Y16198039D02*
X17938809Y16102800D01*
X17938809Y16102800D02*
X17795952Y16055181D01*
X17795952Y16055181D02*
X17700714Y16055181D01*
X19081666Y16055181D02*
X18510238Y16055181D01*
X18795952Y16055181D02*
X18795952Y17055181D01*
X18795952Y17055181D02*
X18700714Y16912324D01*
X18700714Y16912324D02*
X18605476Y16817086D01*
X18605476Y16817086D02*
X18510238Y16769467D01*
X18081666Y36359181D02*
X18081666Y35644896D01*
X18081666Y35644896D02*
X18034047Y35502039D01*
X18034047Y35502039D02*
X17938809Y35406800D01*
X17938809Y35406800D02*
X17795952Y35359181D01*
X17795952Y35359181D02*
X17700714Y35359181D01*
X18510238Y36263943D02*
X18557857Y36311562D01*
X18557857Y36311562D02*
X18653095Y36359181D01*
X18653095Y36359181D02*
X18891190Y36359181D01*
X18891190Y36359181D02*
X18986428Y36311562D01*
X18986428Y36311562D02*
X19034047Y36263943D01*
X19034047Y36263943D02*
X19081666Y36168705D01*
X19081666Y36168705D02*
X19081666Y36073467D01*
X19081666Y36073467D02*
X19034047Y35930610D01*
X19034047Y35930610D02*
X18462619Y35359181D01*
X18462619Y35359181D02*
X19081666Y35359181D01*
X86320333Y13102420D02*
X86272714Y13054800D01*
X86272714Y13054800D02*
X86129857Y13007181D01*
X86129857Y13007181D02*
X86034619Y13007181D01*
X86034619Y13007181D02*
X85891762Y13054800D01*
X85891762Y13054800D02*
X85796524Y13150039D01*
X85796524Y13150039D02*
X85748905Y13245277D01*
X85748905Y13245277D02*
X85701286Y13435753D01*
X85701286Y13435753D02*
X85701286Y13578610D01*
X85701286Y13578610D02*
X85748905Y13769086D01*
X85748905Y13769086D02*
X85796524Y13864324D01*
X85796524Y13864324D02*
X85891762Y13959562D01*
X85891762Y13959562D02*
X86034619Y14007181D01*
X86034619Y14007181D02*
X86129857Y14007181D01*
X86129857Y14007181D02*
X86272714Y13959562D01*
X86272714Y13959562D02*
X86320333Y13911943D01*
X86796524Y13007181D02*
X86987000Y13007181D01*
X86987000Y13007181D02*
X87082238Y13054800D01*
X87082238Y13054800D02*
X87129857Y13102420D01*
X87129857Y13102420D02*
X87225095Y13245277D01*
X87225095Y13245277D02*
X87272714Y13435753D01*
X87272714Y13435753D02*
X87272714Y13816705D01*
X87272714Y13816705D02*
X87225095Y13911943D01*
X87225095Y13911943D02*
X87177476Y13959562D01*
X87177476Y13959562D02*
X87082238Y14007181D01*
X87082238Y14007181D02*
X86891762Y14007181D01*
X86891762Y14007181D02*
X86796524Y13959562D01*
X86796524Y13959562D02*
X86748905Y13911943D01*
X86748905Y13911943D02*
X86701286Y13816705D01*
X86701286Y13816705D02*
X86701286Y13578610D01*
X86701286Y13578610D02*
X86748905Y13483372D01*
X86748905Y13483372D02*
X86796524Y13435753D01*
X86796524Y13435753D02*
X86891762Y13388134D01*
X86891762Y13388134D02*
X87082238Y13388134D01*
X87082238Y13388134D02*
X87177476Y13435753D01*
X87177476Y13435753D02*
X87225095Y13483372D01*
X87225095Y13483372D02*
X87272714Y13578610D01*
X71080333Y18182420D02*
X71032714Y18134800D01*
X71032714Y18134800D02*
X70889857Y18087181D01*
X70889857Y18087181D02*
X70794619Y18087181D01*
X70794619Y18087181D02*
X70651762Y18134800D01*
X70651762Y18134800D02*
X70556524Y18230039D01*
X70556524Y18230039D02*
X70508905Y18325277D01*
X70508905Y18325277D02*
X70461286Y18515753D01*
X70461286Y18515753D02*
X70461286Y18658610D01*
X70461286Y18658610D02*
X70508905Y18849086D01*
X70508905Y18849086D02*
X70556524Y18944324D01*
X70556524Y18944324D02*
X70651762Y19039562D01*
X70651762Y19039562D02*
X70794619Y19087181D01*
X70794619Y19087181D02*
X70889857Y19087181D01*
X70889857Y19087181D02*
X71032714Y19039562D01*
X71032714Y19039562D02*
X71080333Y18991943D01*
X71413667Y19087181D02*
X72080333Y19087181D01*
X72080333Y19087181D02*
X71651762Y18087181D01*
X65524142Y20722420D02*
X65476523Y20674800D01*
X65476523Y20674800D02*
X65333666Y20627181D01*
X65333666Y20627181D02*
X65238428Y20627181D01*
X65238428Y20627181D02*
X65095571Y20674800D01*
X65095571Y20674800D02*
X65000333Y20770039D01*
X65000333Y20770039D02*
X64952714Y20865277D01*
X64952714Y20865277D02*
X64905095Y21055753D01*
X64905095Y21055753D02*
X64905095Y21198610D01*
X64905095Y21198610D02*
X64952714Y21389086D01*
X64952714Y21389086D02*
X65000333Y21484324D01*
X65000333Y21484324D02*
X65095571Y21579562D01*
X65095571Y21579562D02*
X65238428Y21627181D01*
X65238428Y21627181D02*
X65333666Y21627181D01*
X65333666Y21627181D02*
X65476523Y21579562D01*
X65476523Y21579562D02*
X65524142Y21531943D01*
X66476523Y20627181D02*
X65905095Y20627181D01*
X66190809Y20627181D02*
X66190809Y21627181D01*
X66190809Y21627181D02*
X66095571Y21484324D01*
X66095571Y21484324D02*
X66000333Y21389086D01*
X66000333Y21389086D02*
X65905095Y21341467D01*
X66857476Y21531943D02*
X66905095Y21579562D01*
X66905095Y21579562D02*
X67000333Y21627181D01*
X67000333Y21627181D02*
X67238428Y21627181D01*
X67238428Y21627181D02*
X67333666Y21579562D01*
X67333666Y21579562D02*
X67381285Y21531943D01*
X67381285Y21531943D02*
X67428904Y21436705D01*
X67428904Y21436705D02*
X67428904Y21341467D01*
X67428904Y21341467D02*
X67381285Y21198610D01*
X67381285Y21198610D02*
X66809857Y20627181D01*
X66809857Y20627181D02*
X67428904Y20627181D01*
X77208142Y32406420D02*
X77160523Y32358800D01*
X77160523Y32358800D02*
X77017666Y32311181D01*
X77017666Y32311181D02*
X76922428Y32311181D01*
X76922428Y32311181D02*
X76779571Y32358800D01*
X76779571Y32358800D02*
X76684333Y32454039D01*
X76684333Y32454039D02*
X76636714Y32549277D01*
X76636714Y32549277D02*
X76589095Y32739753D01*
X76589095Y32739753D02*
X76589095Y32882610D01*
X76589095Y32882610D02*
X76636714Y33073086D01*
X76636714Y33073086D02*
X76684333Y33168324D01*
X76684333Y33168324D02*
X76779571Y33263562D01*
X76779571Y33263562D02*
X76922428Y33311181D01*
X76922428Y33311181D02*
X77017666Y33311181D01*
X77017666Y33311181D02*
X77160523Y33263562D01*
X77160523Y33263562D02*
X77208142Y33215943D01*
X78160523Y32311181D02*
X77589095Y32311181D01*
X77874809Y32311181D02*
X77874809Y33311181D01*
X77874809Y33311181D02*
X77779571Y33168324D01*
X77779571Y33168324D02*
X77684333Y33073086D01*
X77684333Y33073086D02*
X77589095Y33025467D01*
X79112904Y32311181D02*
X78541476Y32311181D01*
X78827190Y32311181D02*
X78827190Y33311181D01*
X78827190Y33311181D02*
X78731952Y33168324D01*
X78731952Y33168324D02*
X78636714Y33073086D01*
X78636714Y33073086D02*
X78541476Y33025467D01*
X38060333Y15134420D02*
X38012714Y15086800D01*
X38012714Y15086800D02*
X37869857Y15039181D01*
X37869857Y15039181D02*
X37774619Y15039181D01*
X37774619Y15039181D02*
X37631762Y15086800D01*
X37631762Y15086800D02*
X37536524Y15182039D01*
X37536524Y15182039D02*
X37488905Y15277277D01*
X37488905Y15277277D02*
X37441286Y15467753D01*
X37441286Y15467753D02*
X37441286Y15610610D01*
X37441286Y15610610D02*
X37488905Y15801086D01*
X37488905Y15801086D02*
X37536524Y15896324D01*
X37536524Y15896324D02*
X37631762Y15991562D01*
X37631762Y15991562D02*
X37774619Y16039181D01*
X37774619Y16039181D02*
X37869857Y16039181D01*
X37869857Y16039181D02*
X38012714Y15991562D01*
X38012714Y15991562D02*
X38060333Y15943943D01*
X38917476Y15705848D02*
X38917476Y15039181D01*
X38679381Y16086800D02*
X38441286Y15372515D01*
X38441286Y15372515D02*
X39060333Y15372515D01*
X46696333Y17166420D02*
X46648714Y17118800D01*
X46648714Y17118800D02*
X46505857Y17071181D01*
X46505857Y17071181D02*
X46410619Y17071181D01*
X46410619Y17071181D02*
X46267762Y17118800D01*
X46267762Y17118800D02*
X46172524Y17214039D01*
X46172524Y17214039D02*
X46124905Y17309277D01*
X46124905Y17309277D02*
X46077286Y17499753D01*
X46077286Y17499753D02*
X46077286Y17642610D01*
X46077286Y17642610D02*
X46124905Y17833086D01*
X46124905Y17833086D02*
X46172524Y17928324D01*
X46172524Y17928324D02*
X46267762Y18023562D01*
X46267762Y18023562D02*
X46410619Y18071181D01*
X46410619Y18071181D02*
X46505857Y18071181D01*
X46505857Y18071181D02*
X46648714Y18023562D01*
X46648714Y18023562D02*
X46696333Y17975943D01*
X47029667Y18071181D02*
X47648714Y18071181D01*
X47648714Y18071181D02*
X47315381Y17690229D01*
X47315381Y17690229D02*
X47458238Y17690229D01*
X47458238Y17690229D02*
X47553476Y17642610D01*
X47553476Y17642610D02*
X47601095Y17594991D01*
X47601095Y17594991D02*
X47648714Y17499753D01*
X47648714Y17499753D02*
X47648714Y17261658D01*
X47648714Y17261658D02*
X47601095Y17166420D01*
X47601095Y17166420D02*
X47553476Y17118800D01*
X47553476Y17118800D02*
X47458238Y17071181D01*
X47458238Y17071181D02*
X47172524Y17071181D01*
X47172524Y17071181D02*
X47077286Y17118800D01*
X47077286Y17118800D02*
X47029667Y17166420D01*
D11*
%TO.C,J9*%
X68901000Y35620000D02*
X70231000Y35620000D01*
X68901000Y33020000D02*
X71561000Y33020000D01*
X68901000Y32960000D02*
X71561000Y32960000D01*
X71561000Y33020000D02*
X71561000Y32960000D01*
X68901000Y33020000D02*
X68901000Y32960000D01*
X68901000Y34290000D02*
X68901000Y35620000D01*
%TO.C,J8*%
X60265000Y20380000D02*
X61595000Y20380000D01*
X60265000Y17780000D02*
X62925000Y17780000D01*
X60265000Y17720000D02*
X62925000Y17720000D01*
X62925000Y17780000D02*
X62925000Y17720000D01*
X60265000Y17780000D02*
X60265000Y17720000D01*
X60265000Y19050000D02*
X60265000Y20380000D01*
%TO.C,R14*%
X84174000Y20293064D02*
X84174000Y19838936D01*
X82704000Y20293064D02*
X82704000Y19838936D01*
%TO.C,R13*%
X84682064Y23395000D02*
X84227936Y23395000D01*
X84682064Y24865000D02*
X84227936Y24865000D01*
%TO.C,U3*%
X72538000Y30784000D02*
X72538000Y20504000D01*
X77038000Y30784000D02*
X75788000Y30784000D01*
X72538000Y20504000D02*
X77038000Y20504000D01*
X77038000Y20504000D02*
X77038000Y30784000D01*
X73788000Y30784000D02*
X72538000Y30784000D01*
X73788000Y30784000D02*
G75*
G03*
X75788000Y30784000I1000000J0D01*
G01*
%TO.C,U1*%
X40534000Y31292000D02*
X40534000Y21012000D01*
X45034000Y31292000D02*
X43784000Y31292000D01*
X40534000Y21012000D02*
X45034000Y21012000D01*
X45034000Y21012000D02*
X45034000Y31292000D01*
X41784000Y31292000D02*
X40534000Y31292000D01*
X41784000Y31292000D02*
G75*
G03*
X43784000Y31292000I1000000J0D01*
G01*
%TO.C,TPGND1*%
X68925000Y5334000D02*
G75*
G03*
X64425000Y5334000I-2250000J0D01*
G01*
X64425000Y5334000D02*
G75*
G03*
X68925000Y5334000I2250000J0D01*
G01*
%TO.C,J5*%
X63749000Y8576000D02*
X62419000Y8576000D01*
X67619000Y8576000D02*
X67619000Y11236000D01*
X65019000Y8576000D02*
X67619000Y8576000D01*
X65019000Y8576000D02*
X65019000Y11236000D01*
X62419000Y8576000D02*
X62419000Y9906000D01*
X65019000Y11236000D02*
X67619000Y11236000D01*
%TO.C,TP-9V1*%
X45557000Y10922000D02*
G75*
G03*
X41057000Y10922000I-2250000J0D01*
G01*
X41057000Y10922000D02*
G75*
G03*
X45557000Y10922000I2250000J0D01*
G01*
%TO.C,TP+9V1*%
X62829000Y39878000D02*
G75*
G03*
X58329000Y39878000I-2250000J0D01*
G01*
X58329000Y39878000D02*
G75*
G03*
X62829000Y39878000I2250000J0D01*
G01*
%TO.C,TPBufOut1*%
X65369000Y31242000D02*
G75*
G03*
X60869000Y31242000I-2250000J0D01*
G01*
X60869000Y31242000D02*
G75*
G03*
X65369000Y31242000I2250000J0D01*
G01*
%TO.C,TPBiasOut1*%
X87213000Y31242000D02*
G75*
G03*
X82713000Y31242000I-2250000J0D01*
G01*
X82713000Y31242000D02*
G75*
G03*
X87213000Y31242000I2250000J0D01*
G01*
%TO.C,TPRawOut1*%
X54149000Y24798000D02*
G75*
G03*
X49649000Y24798000I-2250000J0D01*
G01*
X49649000Y24798000D02*
G75*
G03*
X54149000Y24798000I2250000J0D01*
G01*
%TO.C,TPE-1*%
X8981000Y30734000D02*
G75*
G03*
X4481000Y30734000I-2250000J0D01*
G01*
X4481000Y30734000D02*
G75*
G03*
X8981000Y30734000I2250000J0D01*
G01*
%TO.C,TPE+1*%
X8981000Y21590000D02*
G75*
G03*
X4481000Y21590000I-2250000J0D01*
G01*
X4481000Y21590000D02*
G75*
G03*
X8981000Y21590000I2250000J0D01*
G01*
%TO.C,R2*%
X17351000Y25850000D02*
X17351000Y22410000D01*
X16661000Y24130000D02*
X17351000Y24130000D01*
X27281000Y24130000D02*
X26591000Y24130000D01*
X26591000Y22410000D02*
X26591000Y25850000D01*
X17351000Y22410000D02*
X26591000Y22410000D01*
X26591000Y25850000D02*
X17351000Y25850000D01*
%TO.C,R3*%
X17351000Y29914000D02*
X17351000Y26474000D01*
X16661000Y28194000D02*
X17351000Y28194000D01*
X27281000Y28194000D02*
X26591000Y28194000D01*
X26591000Y26474000D02*
X26591000Y29914000D01*
X17351000Y26474000D02*
X26591000Y26474000D01*
X26591000Y29914000D02*
X17351000Y29914000D01*
%TO.C,R5*%
X31819000Y7826000D02*
X31819000Y17066000D01*
X28379000Y17066000D02*
X28379000Y7826000D01*
X28379000Y7826000D02*
X31819000Y7826000D01*
X30099000Y7136000D02*
X30099000Y7826000D01*
X30099000Y17756000D02*
X30099000Y17066000D01*
X31819000Y17066000D02*
X28379000Y17066000D01*
%TO.C,R6*%
X31819000Y44498000D02*
X28379000Y44498000D01*
X30099000Y45188000D02*
X30099000Y44498000D01*
X30099000Y34568000D02*
X30099000Y35258000D01*
X28379000Y35258000D02*
X31819000Y35258000D01*
X28379000Y44498000D02*
X28379000Y35258000D01*
X31819000Y35258000D02*
X31819000Y44498000D01*
%TO.C,R10*%
X38179000Y37026000D02*
X38179000Y33586000D01*
X37489000Y35306000D02*
X38179000Y35306000D01*
X48109000Y35306000D02*
X47419000Y35306000D01*
X47419000Y33586000D02*
X47419000Y37026000D01*
X38179000Y33586000D02*
X47419000Y33586000D01*
X47419000Y37026000D02*
X38179000Y37026000D01*
%TO.C,R12*%
X77570000Y11149064D02*
X77570000Y10694936D01*
X76100000Y11149064D02*
X76100000Y10694936D01*
%TO.C,R11*%
X77570000Y18261064D02*
X77570000Y17806936D01*
X76100000Y18261064D02*
X76100000Y17806936D01*
%TO.C,R8*%
X30834000Y12218936D02*
X30834000Y12673064D01*
X29364000Y12218936D02*
X29364000Y12673064D01*
%TO.C,R9*%
X29364000Y40105064D02*
X29364000Y39650936D01*
X30834000Y40105064D02*
X30834000Y39650936D01*
%TO.C,R4*%
X21743936Y28929000D02*
X22198064Y28929000D01*
X21743936Y27459000D02*
X22198064Y27459000D01*
%TO.C,R1*%
X21743936Y24865000D02*
X22198064Y24865000D01*
X21743936Y23395000D02*
X22198064Y23395000D01*
%TO.C,R7*%
X42571936Y36041000D02*
X43026064Y36041000D01*
X42571936Y34571000D02*
X43026064Y34571000D01*
%TO.C,J7*%
X91816000Y35251000D02*
X90486000Y35251000D01*
X95686000Y35251000D02*
X95686000Y37911000D01*
X93086000Y35251000D02*
X95686000Y35251000D01*
X93086000Y35251000D02*
X93086000Y37911000D01*
X90486000Y35251000D02*
X90486000Y36581000D01*
X93086000Y37911000D02*
X95686000Y37911000D01*
%TO.C,J6*%
X91816000Y25340000D02*
X90486000Y25340000D01*
X95686000Y25340000D02*
X95686000Y28000000D01*
X93086000Y25340000D02*
X95686000Y25340000D01*
X93086000Y25340000D02*
X93086000Y28000000D01*
X90486000Y25340000D02*
X90486000Y26670000D01*
X93086000Y28000000D02*
X95686000Y28000000D01*
%TO.C,J4*%
X51749000Y9652000D02*
X51749000Y7052000D01*
X49089000Y12252000D02*
X50419000Y12252000D01*
X49089000Y9652000D02*
X51749000Y9652000D01*
X49089000Y9652000D02*
X49089000Y7052000D01*
X49089000Y7052000D02*
X51749000Y7052000D01*
X49089000Y10922000D02*
X49089000Y12252000D01*
%TO.C,J3*%
X52137000Y42169000D02*
X52137000Y43499000D01*
X52137000Y38299000D02*
X54797000Y38299000D01*
X52137000Y40899000D02*
X52137000Y38299000D01*
X52137000Y40899000D02*
X54797000Y40899000D01*
X52137000Y43499000D02*
X53467000Y43499000D01*
X54797000Y40899000D02*
X54797000Y38299000D01*
%TO.C,J1*%
X14037000Y17785000D02*
X14037000Y19115000D01*
X14037000Y13915000D02*
X16697000Y13915000D01*
X14037000Y16515000D02*
X14037000Y13915000D01*
X14037000Y16515000D02*
X16697000Y16515000D01*
X14037000Y19115000D02*
X15367000Y19115000D01*
X16697000Y16515000D02*
X16697000Y13915000D01*
%TO.C,J2*%
X14037000Y37089000D02*
X14037000Y38419000D01*
X14037000Y33219000D02*
X16697000Y33219000D01*
X14037000Y35819000D02*
X14037000Y33219000D01*
X14037000Y35819000D02*
X16697000Y35819000D01*
X14037000Y38419000D02*
X15367000Y38419000D01*
X16697000Y35819000D02*
X16697000Y33219000D01*
%TO.C,C10*%
X85698000Y15674748D02*
X85698000Y16197252D01*
X84228000Y15674748D02*
X84228000Y16197252D01*
%TO.C,C8*%
X68988000Y16219852D02*
X68988000Y15697348D01*
X70458000Y16219852D02*
X70458000Y15697348D01*
%TO.C,C9*%
X87679000Y15632000D02*
X86463000Y15632000D01*
X89870000Y14351000D02*
X89359000Y14351000D01*
X90035000Y14511000D02*
X89359000Y14511000D01*
X87679000Y14191000D02*
X87377000Y14191000D01*
X89915000Y14391000D02*
X89359000Y14391000D01*
X89997000Y14471000D02*
X89359000Y14471000D01*
X87679000Y14511000D02*
X87003000Y14511000D01*
X87679000Y15672000D02*
X86457000Y15672000D01*
X87679000Y15031000D02*
X86649000Y15031000D01*
X87679000Y15352000D02*
X86525000Y15352000D01*
X90553000Y15512000D02*
X89359000Y15512000D01*
X89056000Y13911000D02*
X87982000Y13911000D01*
X88889000Y13871000D02*
X88149000Y13871000D01*
X90598000Y15872000D02*
X86440000Y15872000D01*
X90590000Y15752000D02*
X89359000Y15752000D01*
X90459000Y15191000D02*
X89359000Y15191000D01*
X89459000Y14071000D02*
X87579000Y14071000D01*
X89957000Y14431000D02*
X89359000Y14431000D01*
X90199000Y14711000D02*
X89359000Y14711000D01*
X90487000Y15272000D02*
X89359000Y15272000D01*
X87679000Y15191000D02*
X86579000Y15191000D01*
X90473000Y15231000D02*
X89359000Y15231000D01*
X90596000Y15832000D02*
X86442000Y15832000D01*
X90599000Y15912000D02*
X86439000Y15912000D01*
X90586000Y15712000D02*
X89359000Y15712000D01*
X90370000Y14991000D02*
X89359000Y14991000D01*
X87679000Y14471000D02*
X87041000Y14471000D01*
X90389000Y15031000D02*
X89359000Y15031000D01*
X87679000Y15472000D02*
X86494000Y15472000D01*
X87679000Y14871000D02*
X86734000Y14871000D01*
X89773000Y14271000D02*
X89359000Y14271000D01*
X90254000Y14791000D02*
X89359000Y14791000D01*
X87679000Y14751000D02*
X86811000Y14751000D01*
X87679000Y15592000D02*
X86469000Y15592000D01*
X87679000Y15392000D02*
X86514000Y15392000D01*
X87679000Y14911000D02*
X86711000Y14911000D01*
X87679000Y15432000D02*
X86503000Y15432000D01*
X87679000Y15312000D02*
X86537000Y15312000D01*
X87679000Y14431000D02*
X87081000Y14431000D01*
X87679000Y15231000D02*
X86565000Y15231000D01*
X87679000Y15111000D02*
X86612000Y15111000D01*
X87679000Y14231000D02*
X87319000Y14231000D01*
X89823000Y14311000D02*
X89359000Y14311000D01*
X90071000Y14551000D02*
X89359000Y14551000D01*
X87679000Y14591000D02*
X86932000Y14591000D01*
X87679000Y14271000D02*
X87265000Y14271000D01*
X89532000Y14111000D02*
X87506000Y14111000D01*
X90138000Y14631000D02*
X89359000Y14631000D01*
X87679000Y14831000D02*
X86759000Y14831000D01*
X90279000Y14831000D02*
X89359000Y14831000D01*
X89719000Y14231000D02*
X89359000Y14231000D01*
X90349000Y14951000D02*
X89359000Y14951000D01*
X90408000Y15071000D02*
X89359000Y15071000D01*
X87679000Y14791000D02*
X86784000Y14791000D01*
X90443000Y15151000D02*
X89359000Y15151000D01*
X87679000Y14311000D02*
X87215000Y14311000D01*
X87679000Y15512000D02*
X86485000Y15512000D01*
X87679000Y14711000D02*
X86839000Y14711000D01*
X89714000Y18221801D02*
X89714000Y17821801D01*
X90575000Y15632000D02*
X89359000Y15632000D01*
X89287000Y13991000D02*
X87751000Y13991000D01*
X90501000Y15312000D02*
X89359000Y15312000D01*
X89914000Y18021801D02*
X89514000Y18021801D01*
X87679000Y14991000D02*
X86668000Y14991000D01*
X90327000Y14911000D02*
X89359000Y14911000D01*
X90561000Y15552000D02*
X89359000Y15552000D01*
X87679000Y14391000D02*
X87123000Y14391000D01*
X90304000Y14871000D02*
X89359000Y14871000D01*
X90106000Y14591000D02*
X89359000Y14591000D01*
X87679000Y15151000D02*
X86595000Y15151000D01*
X87679000Y14631000D02*
X86900000Y14631000D01*
X90513000Y15352000D02*
X89359000Y15352000D01*
X87679000Y15552000D02*
X86477000Y15552000D01*
X90426000Y15111000D02*
X89359000Y15111000D01*
X90593000Y15792000D02*
X86445000Y15792000D01*
X87679000Y15272000D02*
X86551000Y15272000D01*
X87679000Y14951000D02*
X86689000Y14951000D01*
X87679000Y14671000D02*
X86869000Y14671000D01*
X87679000Y14151000D02*
X87439000Y14151000D01*
X89599000Y14151000D02*
X89359000Y14151000D01*
X87679000Y15071000D02*
X86630000Y15071000D01*
X90599000Y15952000D02*
X86439000Y15952000D01*
X90227000Y14751000D02*
X89359000Y14751000D01*
X89183000Y13951000D02*
X87855000Y13951000D01*
X87679000Y15712000D02*
X86452000Y15712000D01*
X87679000Y14551000D02*
X86967000Y14551000D01*
X89378000Y14031000D02*
X87660000Y14031000D01*
X87679000Y15752000D02*
X86448000Y15752000D01*
X90535000Y15432000D02*
X89359000Y15432000D01*
X87679000Y14351000D02*
X87168000Y14351000D01*
X90569000Y15592000D02*
X89359000Y15592000D01*
X89661000Y14191000D02*
X89359000Y14191000D01*
X90544000Y15472000D02*
X89359000Y15472000D01*
X90169000Y14671000D02*
X89359000Y14671000D01*
X90524000Y15392000D02*
X89359000Y15392000D01*
X90581000Y15672000D02*
X89359000Y15672000D01*
X90639000Y15952000D02*
G75*
G03*
X86399000Y15952000I-2120000J0D01*
G01*
X86399000Y15952000D02*
G75*
G03*
X90639000Y15952000I2120000J0D01*
G01*
%TO.C,C7*%
X74119000Y16306000D02*
X75335000Y16306000D01*
X71928000Y17587000D02*
X72439000Y17587000D01*
X71763000Y17427000D02*
X72439000Y17427000D01*
X74119000Y17747000D02*
X74421000Y17747000D01*
X71883000Y17547000D02*
X72439000Y17547000D01*
X71801000Y17467000D02*
X72439000Y17467000D01*
X74119000Y17427000D02*
X74795000Y17427000D01*
X74119000Y16266000D02*
X75341000Y16266000D01*
X74119000Y16907000D02*
X75149000Y16907000D01*
X74119000Y16586000D02*
X75273000Y16586000D01*
X71245000Y16426000D02*
X72439000Y16426000D01*
X72742000Y18027000D02*
X73816000Y18027000D01*
X72909000Y18067000D02*
X73649000Y18067000D01*
X71200000Y16066000D02*
X75358000Y16066000D01*
X71208000Y16186000D02*
X72439000Y16186000D01*
X71339000Y16747000D02*
X72439000Y16747000D01*
X72339000Y17867000D02*
X74219000Y17867000D01*
X71841000Y17507000D02*
X72439000Y17507000D01*
X71599000Y17227000D02*
X72439000Y17227000D01*
X71311000Y16666000D02*
X72439000Y16666000D01*
X74119000Y16747000D02*
X75219000Y16747000D01*
X71325000Y16707000D02*
X72439000Y16707000D01*
X71202000Y16106000D02*
X75356000Y16106000D01*
X71199000Y16026000D02*
X75359000Y16026000D01*
X71212000Y16226000D02*
X72439000Y16226000D01*
X71428000Y16947000D02*
X72439000Y16947000D01*
X74119000Y17467000D02*
X74757000Y17467000D01*
X71409000Y16907000D02*
X72439000Y16907000D01*
X74119000Y16466000D02*
X75304000Y16466000D01*
X74119000Y17067000D02*
X75064000Y17067000D01*
X72025000Y17667000D02*
X72439000Y17667000D01*
X71544000Y17147000D02*
X72439000Y17147000D01*
X74119000Y17187000D02*
X74987000Y17187000D01*
X74119000Y16346000D02*
X75329000Y16346000D01*
X74119000Y16546000D02*
X75284000Y16546000D01*
X74119000Y17027000D02*
X75087000Y17027000D01*
X74119000Y16506000D02*
X75295000Y16506000D01*
X74119000Y16626000D02*
X75261000Y16626000D01*
X74119000Y17507000D02*
X74717000Y17507000D01*
X74119000Y16707000D02*
X75233000Y16707000D01*
X74119000Y16827000D02*
X75186000Y16827000D01*
X74119000Y17707000D02*
X74479000Y17707000D01*
X71975000Y17627000D02*
X72439000Y17627000D01*
X71727000Y17387000D02*
X72439000Y17387000D01*
X74119000Y17347000D02*
X74866000Y17347000D01*
X74119000Y17667000D02*
X74533000Y17667000D01*
X72266000Y17827000D02*
X74292000Y17827000D01*
X71660000Y17307000D02*
X72439000Y17307000D01*
X74119000Y17107000D02*
X75039000Y17107000D01*
X71519000Y17107000D02*
X72439000Y17107000D01*
X72079000Y17707000D02*
X72439000Y17707000D01*
X71449000Y16987000D02*
X72439000Y16987000D01*
X71390000Y16867000D02*
X72439000Y16867000D01*
X74119000Y17147000D02*
X75014000Y17147000D01*
X71355000Y16787000D02*
X72439000Y16787000D01*
X74119000Y17627000D02*
X74583000Y17627000D01*
X74119000Y16426000D02*
X75313000Y16426000D01*
X74119000Y17227000D02*
X74959000Y17227000D01*
X72084000Y13716199D02*
X72084000Y14116199D01*
X71223000Y16306000D02*
X72439000Y16306000D01*
X72511000Y17947000D02*
X74047000Y17947000D01*
X71297000Y16626000D02*
X72439000Y16626000D01*
X71884000Y13916199D02*
X72284000Y13916199D01*
X74119000Y16947000D02*
X75130000Y16947000D01*
X71471000Y17027000D02*
X72439000Y17027000D01*
X71237000Y16386000D02*
X72439000Y16386000D01*
X74119000Y17547000D02*
X74675000Y17547000D01*
X71494000Y17067000D02*
X72439000Y17067000D01*
X71692000Y17347000D02*
X72439000Y17347000D01*
X74119000Y16787000D02*
X75203000Y16787000D01*
X74119000Y17307000D02*
X74898000Y17307000D01*
X71285000Y16586000D02*
X72439000Y16586000D01*
X74119000Y16386000D02*
X75321000Y16386000D01*
X71372000Y16827000D02*
X72439000Y16827000D01*
X71205000Y16146000D02*
X75353000Y16146000D01*
X74119000Y16666000D02*
X75247000Y16666000D01*
X74119000Y16987000D02*
X75109000Y16987000D01*
X74119000Y17267000D02*
X74929000Y17267000D01*
X74119000Y17787000D02*
X74359000Y17787000D01*
X72199000Y17787000D02*
X72439000Y17787000D01*
X74119000Y16867000D02*
X75168000Y16867000D01*
X71199000Y15986000D02*
X75359000Y15986000D01*
X71571000Y17187000D02*
X72439000Y17187000D01*
X72615000Y17987000D02*
X73943000Y17987000D01*
X74119000Y16226000D02*
X75346000Y16226000D01*
X74119000Y17387000D02*
X74831000Y17387000D01*
X72420000Y17907000D02*
X74138000Y17907000D01*
X74119000Y16186000D02*
X75350000Y16186000D01*
X71263000Y16506000D02*
X72439000Y16506000D01*
X74119000Y17587000D02*
X74630000Y17587000D01*
X71229000Y16346000D02*
X72439000Y16346000D01*
X72137000Y17747000D02*
X72439000Y17747000D01*
X71254000Y16466000D02*
X72439000Y16466000D01*
X71629000Y17267000D02*
X72439000Y17267000D01*
X71274000Y16546000D02*
X72439000Y16546000D01*
X71217000Y16266000D02*
X72439000Y16266000D01*
X75399000Y15986000D02*
G75*
G03*
X71159000Y15986000I-2120000J0D01*
G01*
X71159000Y15986000D02*
G75*
G03*
X75399000Y15986000I2120000J0D01*
G01*
%TO.C,C12*%
X66428252Y19785000D02*
X65905748Y19785000D01*
X66428252Y18315000D02*
X65905748Y18315000D01*
%TO.C,C11*%
X75064252Y33501000D02*
X74541748Y33501000D01*
X75064252Y32031000D02*
X74541748Y32031000D01*
%TO.C,C4*%
X41013748Y14759000D02*
X41536252Y14759000D01*
X41013748Y16229000D02*
X41536252Y16229000D01*
%TO.C,C3*%
X43588000Y17787252D02*
X43588000Y17264748D01*
X45058000Y17787252D02*
X45058000Y17264748D01*
%TD*%
M02*
