%TF.GenerationSoftware,KiCad,Pcbnew,8.0.0-8.0.0-1~ubuntu22.04.1*%
%TF.CreationDate,2024-03-07T15:00:58-08:00*%
%TF.ProjectId,INAAmplifierRev2,494e4141-6d70-46c6-9966-696572526576,rev?*%
%TF.SameCoordinates,PX2bf7208PY9a4d770*%
%TF.FileFunction,Legend,Top*%
%TF.FilePolarity,Positive*%
%FSLAX46Y46*%
G04 Gerber Fmt 4.6, Leading zero omitted, Abs format (unit mm)*
G04 Created by KiCad (PCBNEW 8.0.0-8.0.0-1~ubuntu22.04.1) date 2024-03-07 15:00:58*
%MOMM*%
%LPD*%
G01*
G04 APERTURE LIST*
G04 Aperture macros list*
%AMRoundRect*
0 Rectangle with rounded corners*
0 $1 Rounding radius*
0 $2 $3 $4 $5 $6 $7 $8 $9 X,Y pos of 4 corners*
0 Add a 4 corners polygon primitive as box body*
4,1,4,$2,$3,$4,$5,$6,$7,$8,$9,$2,$3,0*
0 Add four circle primitives for the rounded corners*
1,1,$1+$1,$2,$3*
1,1,$1+$1,$4,$5*
1,1,$1+$1,$6,$7*
1,1,$1+$1,$8,$9*
0 Add four rect primitives between the rounded corners*
20,1,$1+$1,$2,$3,$4,$5,0*
20,1,$1+$1,$4,$5,$6,$7,0*
20,1,$1+$1,$6,$7,$8,$9,0*
20,1,$1+$1,$8,$9,$2,$3,0*%
G04 Aperture macros list end*
%ADD10C,0.150000*%
%ADD11C,0.152400*%
%ADD12C,0.300000*%
%ADD13C,0.127000*%
%ADD14C,0.120000*%
%ADD15R,1.700000X1.700000*%
%ADD16O,1.700000X1.700000*%
%ADD17R,2.400000X1.600000*%
%ADD18O,2.400000X1.600000*%
%ADD19RoundRect,0.250000X0.625000X-0.400000X0.625000X0.400000X-0.625000X0.400000X-0.625000X-0.400000X0*%
%ADD20R,1.200000X1.200000*%
%ADD21C,1.200000*%
%ADD22RoundRect,0.250000X-0.625000X0.400000X-0.625000X-0.400000X0.625000X-0.400000X0.625000X0.400000X0*%
%ADD23RoundRect,0.250000X0.400000X0.625000X-0.400000X0.625000X-0.400000X-0.625000X0.400000X-0.625000X0*%
%ADD24C,3.200000*%
%ADD25C,4.000000*%
%ADD26RoundRect,0.250000X-0.650000X0.412500X-0.650000X-0.412500X0.650000X-0.412500X0.650000X0.412500X0*%
%ADD27C,1.600000*%
%ADD28O,1.600000X1.600000*%
%ADD29RoundRect,0.250000X-0.412500X-0.650000X0.412500X-0.650000X0.412500X0.650000X-0.412500X0.650000X0*%
%ADD30C,1.400000*%
%ADD31O,1.400000X1.400000*%
%ADD32R,1.600000X1.600000*%
%ADD33C,2.500000*%
%ADD34RoundRect,0.250000X-0.400000X-0.625000X0.400000X-0.625000X0.400000X0.625000X-0.400000X0.625000X0*%
%ADD35RoundRect,0.250000X0.650000X-0.412500X0.650000X0.412500X-0.650000X0.412500X-0.650000X-0.412500X0*%
%ADD36RoundRect,0.250001X0.462499X0.624999X-0.462499X0.624999X-0.462499X-0.624999X0.462499X-0.624999X0*%
%ADD37C,1.800000*%
%ADD38RoundRect,0.250000X0.412500X0.650000X-0.412500X0.650000X-0.412500X-0.650000X0.412500X-0.650000X0*%
%ADD39RoundRect,0.250001X-0.462499X-0.624999X0.462499X-0.624999X0.462499X0.624999X-0.462499X0.624999X0*%
G04 APERTURE END LIST*
D10*
X41000000Y7000000D02*
X38500000Y5500000D01*
X38500000Y5500000D02*
X38500000Y8500000D01*
X41000000Y8500000D02*
X41000000Y7000000D01*
X41000000Y7000000D02*
X42000000Y7000000D01*
X38500000Y8500000D02*
X41000000Y7000000D01*
X41000000Y7000000D02*
X41000000Y5500000D01*
X41000000Y5500000D02*
X41000000Y7000000D01*
X38500000Y7000000D02*
X37500000Y7000000D01*
X38500000Y46500000D02*
X37500000Y46500000D01*
X41000000Y46500000D02*
X42000000Y46500000D01*
X38500000Y45000000D02*
X38500000Y46500000D01*
X38500000Y48000000D02*
X38500000Y46500000D01*
X38500000Y46500000D02*
X38500000Y48000000D01*
X38500000Y46500000D02*
X41000000Y48000000D01*
X41000000Y45000000D02*
X38500000Y46500000D01*
X41000000Y48000000D02*
X41000000Y45000000D01*
X92710000Y7112000D02*
G75*
G02*
X92202000Y7112000I-254000J0D01*
G01*
X92202000Y7112000D02*
G75*
G02*
X92710000Y7112000I254000J0D01*
G01*
X84074000Y7112000D02*
G75*
G02*
X83566000Y7112000I-254000J0D01*
G01*
X83566000Y7112000D02*
G75*
G02*
X84074000Y7112000I254000J0D01*
G01*
X84074000Y1524000D02*
G75*
G02*
X83566000Y1524000I-254000J0D01*
G01*
X83566000Y1524000D02*
G75*
G02*
X84074000Y1524000I254000J0D01*
G01*
X83820000Y7112000D02*
X83820000Y1524000D01*
X83820000Y1524000D02*
X92456000Y1524000D01*
X92710000Y1524000D02*
G75*
G02*
X92202000Y1524000I-254000J0D01*
G01*
X92202000Y1524000D02*
G75*
G02*
X92710000Y1524000I254000J0D01*
G01*
D11*
X41928142Y43739083D02*
X42508714Y43739083D01*
X42218428Y43448798D02*
X42218428Y44029369D01*
X42907857Y43448798D02*
X43053000Y43448798D01*
X43053000Y43448798D02*
X43125571Y43485083D01*
X43125571Y43485083D02*
X43161857Y43521369D01*
X43161857Y43521369D02*
X43234428Y43630226D01*
X43234428Y43630226D02*
X43270714Y43775369D01*
X43270714Y43775369D02*
X43270714Y44065655D01*
X43270714Y44065655D02*
X43234428Y44138226D01*
X43234428Y44138226D02*
X43198143Y44174512D01*
X43198143Y44174512D02*
X43125571Y44210798D01*
X43125571Y44210798D02*
X42980428Y44210798D01*
X42980428Y44210798D02*
X42907857Y44174512D01*
X42907857Y44174512D02*
X42871571Y44138226D01*
X42871571Y44138226D02*
X42835285Y44065655D01*
X42835285Y44065655D02*
X42835285Y43884226D01*
X42835285Y43884226D02*
X42871571Y43811655D01*
X42871571Y43811655D02*
X42907857Y43775369D01*
X42907857Y43775369D02*
X42980428Y43739083D01*
X42980428Y43739083D02*
X43125571Y43739083D01*
X43125571Y43739083D02*
X43198143Y43775369D01*
X43198143Y43775369D02*
X43234428Y43811655D01*
X43234428Y43811655D02*
X43270714Y43884226D01*
X43488428Y44210798D02*
X43742428Y43448798D01*
X43742428Y43448798D02*
X43996428Y44210798D01*
X44830999Y43448798D02*
X44830999Y44210798D01*
X45193856Y43956798D02*
X45193856Y43448798D01*
X45193856Y43884226D02*
X45230142Y43920512D01*
X45230142Y43920512D02*
X45302713Y43956798D01*
X45302713Y43956798D02*
X45411570Y43956798D01*
X45411570Y43956798D02*
X45484142Y43920512D01*
X45484142Y43920512D02*
X45520428Y43847941D01*
X45520428Y43847941D02*
X45520428Y43448798D01*
X46209857Y43448798D02*
X46209857Y44210798D01*
X46209857Y43485083D02*
X46137285Y43448798D01*
X46137285Y43448798D02*
X45992142Y43448798D01*
X45992142Y43448798D02*
X45919571Y43485083D01*
X45919571Y43485083D02*
X45883285Y43521369D01*
X45883285Y43521369D02*
X45846999Y43593941D01*
X45846999Y43593941D02*
X45846999Y43811655D01*
X45846999Y43811655D02*
X45883285Y43884226D01*
X45883285Y43884226D02*
X45919571Y43920512D01*
X45919571Y43920512D02*
X45992142Y43956798D01*
X45992142Y43956798D02*
X46137285Y43956798D01*
X46137285Y43956798D02*
X46209857Y43920512D01*
X46572714Y43448798D02*
X46572714Y43956798D01*
X46572714Y44210798D02*
X46536428Y44174512D01*
X46536428Y44174512D02*
X46572714Y44138226D01*
X46572714Y44138226D02*
X46609000Y44174512D01*
X46609000Y44174512D02*
X46572714Y44210798D01*
X46572714Y44210798D02*
X46572714Y44138226D01*
X47262143Y43485083D02*
X47189571Y43448798D01*
X47189571Y43448798D02*
X47044428Y43448798D01*
X47044428Y43448798D02*
X46971857Y43485083D01*
X46971857Y43485083D02*
X46935571Y43521369D01*
X46935571Y43521369D02*
X46899285Y43593941D01*
X46899285Y43593941D02*
X46899285Y43811655D01*
X46899285Y43811655D02*
X46935571Y43884226D01*
X46935571Y43884226D02*
X46971857Y43920512D01*
X46971857Y43920512D02*
X47044428Y43956798D01*
X47044428Y43956798D02*
X47189571Y43956798D01*
X47189571Y43956798D02*
X47262143Y43920512D01*
X47915286Y43448798D02*
X47915286Y43847941D01*
X47915286Y43847941D02*
X47879000Y43920512D01*
X47879000Y43920512D02*
X47806428Y43956798D01*
X47806428Y43956798D02*
X47661286Y43956798D01*
X47661286Y43956798D02*
X47588714Y43920512D01*
X47915286Y43485083D02*
X47842714Y43448798D01*
X47842714Y43448798D02*
X47661286Y43448798D01*
X47661286Y43448798D02*
X47588714Y43485083D01*
X47588714Y43485083D02*
X47552428Y43557655D01*
X47552428Y43557655D02*
X47552428Y43630226D01*
X47552428Y43630226D02*
X47588714Y43702798D01*
X47588714Y43702798D02*
X47661286Y43739083D01*
X47661286Y43739083D02*
X47842714Y43739083D01*
X47842714Y43739083D02*
X47915286Y43775369D01*
X48169286Y43956798D02*
X48459572Y43956798D01*
X48278143Y44210798D02*
X48278143Y43557655D01*
X48278143Y43557655D02*
X48314429Y43485083D01*
X48314429Y43485083D02*
X48387000Y43448798D01*
X48387000Y43448798D02*
X48459572Y43448798D01*
X48822429Y43448798D02*
X48749858Y43485083D01*
X48749858Y43485083D02*
X48713572Y43521369D01*
X48713572Y43521369D02*
X48677286Y43593941D01*
X48677286Y43593941D02*
X48677286Y43811655D01*
X48677286Y43811655D02*
X48713572Y43884226D01*
X48713572Y43884226D02*
X48749858Y43920512D01*
X48749858Y43920512D02*
X48822429Y43956798D01*
X48822429Y43956798D02*
X48931286Y43956798D01*
X48931286Y43956798D02*
X49003858Y43920512D01*
X49003858Y43920512D02*
X49040144Y43884226D01*
X49040144Y43884226D02*
X49076429Y43811655D01*
X49076429Y43811655D02*
X49076429Y43593941D01*
X49076429Y43593941D02*
X49040144Y43521369D01*
X49040144Y43521369D02*
X49003858Y43485083D01*
X49003858Y43485083D02*
X48931286Y43448798D01*
X48931286Y43448798D02*
X48822429Y43448798D01*
X49403001Y43448798D02*
X49403001Y43956798D01*
X49403001Y43811655D02*
X49439287Y43884226D01*
X49439287Y43884226D02*
X49475573Y43920512D01*
X49475573Y43920512D02*
X49548144Y43956798D01*
X49548144Y43956798D02*
X49620715Y43956798D01*
X81307691Y32504323D02*
X81416548Y32468037D01*
X81416548Y32468037D02*
X81452834Y32431751D01*
X81452834Y32431751D02*
X81489120Y32359180D01*
X81489120Y32359180D02*
X81489120Y32250323D01*
X81489120Y32250323D02*
X81452834Y32177751D01*
X81452834Y32177751D02*
X81416548Y32141465D01*
X81416548Y32141465D02*
X81343977Y32105180D01*
X81343977Y32105180D02*
X81053691Y32105180D01*
X81053691Y32105180D02*
X81053691Y32867180D01*
X81053691Y32867180D02*
X81307691Y32867180D01*
X81307691Y32867180D02*
X81380263Y32830894D01*
X81380263Y32830894D02*
X81416548Y32794608D01*
X81416548Y32794608D02*
X81452834Y32722037D01*
X81452834Y32722037D02*
X81452834Y32649465D01*
X81452834Y32649465D02*
X81416548Y32576894D01*
X81416548Y32576894D02*
X81380263Y32540608D01*
X81380263Y32540608D02*
X81307691Y32504323D01*
X81307691Y32504323D02*
X81053691Y32504323D01*
X82142263Y32613180D02*
X82142263Y32105180D01*
X81815691Y32613180D02*
X81815691Y32214037D01*
X81815691Y32214037D02*
X81851977Y32141465D01*
X81851977Y32141465D02*
X81924548Y32105180D01*
X81924548Y32105180D02*
X82033405Y32105180D01*
X82033405Y32105180D02*
X82105977Y32141465D01*
X82105977Y32141465D02*
X82142263Y32177751D01*
X82396263Y32613180D02*
X82686549Y32613180D01*
X82505120Y32105180D02*
X82505120Y32758323D01*
X82505120Y32758323D02*
X82541406Y32830894D01*
X82541406Y32830894D02*
X82613977Y32867180D01*
X82613977Y32867180D02*
X82686549Y32867180D01*
X82831692Y32613180D02*
X83121978Y32613180D01*
X82940549Y32105180D02*
X82940549Y32758323D01*
X82940549Y32758323D02*
X82976835Y32830894D01*
X82976835Y32830894D02*
X83049406Y32867180D01*
X83049406Y32867180D02*
X83121978Y32867180D01*
X83666264Y32141465D02*
X83593692Y32105180D01*
X83593692Y32105180D02*
X83448550Y32105180D01*
X83448550Y32105180D02*
X83375978Y32141465D01*
X83375978Y32141465D02*
X83339692Y32214037D01*
X83339692Y32214037D02*
X83339692Y32504323D01*
X83339692Y32504323D02*
X83375978Y32576894D01*
X83375978Y32576894D02*
X83448550Y32613180D01*
X83448550Y32613180D02*
X83593692Y32613180D01*
X83593692Y32613180D02*
X83666264Y32576894D01*
X83666264Y32576894D02*
X83702550Y32504323D01*
X83702550Y32504323D02*
X83702550Y32431751D01*
X83702550Y32431751D02*
X83339692Y32359180D01*
X84029121Y32105180D02*
X84029121Y32613180D01*
X84029121Y32468037D02*
X84065407Y32540608D01*
X84065407Y32540608D02*
X84101693Y32576894D01*
X84101693Y32576894D02*
X84174264Y32613180D01*
X84174264Y32613180D02*
X84246835Y32613180D01*
X84791121Y32141465D02*
X84718549Y32105180D01*
X84718549Y32105180D02*
X84573407Y32105180D01*
X84573407Y32105180D02*
X84500835Y32141465D01*
X84500835Y32141465D02*
X84464549Y32214037D01*
X84464549Y32214037D02*
X84464549Y32504323D01*
X84464549Y32504323D02*
X84500835Y32576894D01*
X84500835Y32576894D02*
X84573407Y32613180D01*
X84573407Y32613180D02*
X84718549Y32613180D01*
X84718549Y32613180D02*
X84791121Y32576894D01*
X84791121Y32576894D02*
X84827407Y32504323D01*
X84827407Y32504323D02*
X84827407Y32431751D01*
X84827407Y32431751D02*
X84464549Y32359180D01*
X85480550Y32105180D02*
X85480550Y32867180D01*
X85480550Y32141465D02*
X85407978Y32105180D01*
X85407978Y32105180D02*
X85262835Y32105180D01*
X85262835Y32105180D02*
X85190264Y32141465D01*
X85190264Y32141465D02*
X85153978Y32177751D01*
X85153978Y32177751D02*
X85117692Y32250323D01*
X85117692Y32250323D02*
X85117692Y32468037D01*
X85117692Y32468037D02*
X85153978Y32540608D01*
X85153978Y32540608D02*
X85190264Y32576894D01*
X85190264Y32576894D02*
X85262835Y32613180D01*
X85262835Y32613180D02*
X85407978Y32613180D01*
X85407978Y32613180D02*
X85480550Y32576894D01*
X86423978Y32105180D02*
X86423978Y32867180D01*
X86423978Y32867180D02*
X86605407Y32867180D01*
X86605407Y32867180D02*
X86714264Y32830894D01*
X86714264Y32830894D02*
X86786835Y32758323D01*
X86786835Y32758323D02*
X86823121Y32685751D01*
X86823121Y32685751D02*
X86859407Y32540608D01*
X86859407Y32540608D02*
X86859407Y32431751D01*
X86859407Y32431751D02*
X86823121Y32286608D01*
X86823121Y32286608D02*
X86786835Y32214037D01*
X86786835Y32214037D02*
X86714264Y32141465D01*
X86714264Y32141465D02*
X86605407Y32105180D01*
X86605407Y32105180D02*
X86423978Y32105180D01*
X87621407Y32177751D02*
X87585121Y32141465D01*
X87585121Y32141465D02*
X87476264Y32105180D01*
X87476264Y32105180D02*
X87403692Y32105180D01*
X87403692Y32105180D02*
X87294835Y32141465D01*
X87294835Y32141465D02*
X87222264Y32214037D01*
X87222264Y32214037D02*
X87185978Y32286608D01*
X87185978Y32286608D02*
X87149692Y32431751D01*
X87149692Y32431751D02*
X87149692Y32540608D01*
X87149692Y32540608D02*
X87185978Y32685751D01*
X87185978Y32685751D02*
X87222264Y32758323D01*
X87222264Y32758323D02*
X87294835Y32830894D01*
X87294835Y32830894D02*
X87403692Y32867180D01*
X87403692Y32867180D02*
X87476264Y32867180D01*
X87476264Y32867180D02*
X87585121Y32830894D01*
X87585121Y32830894D02*
X87621407Y32794608D01*
X88782549Y32504323D02*
X88891406Y32468037D01*
X88891406Y32468037D02*
X88927692Y32431751D01*
X88927692Y32431751D02*
X88963978Y32359180D01*
X88963978Y32359180D02*
X88963978Y32250323D01*
X88963978Y32250323D02*
X88927692Y32177751D01*
X88927692Y32177751D02*
X88891406Y32141465D01*
X88891406Y32141465D02*
X88818835Y32105180D01*
X88818835Y32105180D02*
X88528549Y32105180D01*
X88528549Y32105180D02*
X88528549Y32867180D01*
X88528549Y32867180D02*
X88782549Y32867180D01*
X88782549Y32867180D02*
X88855121Y32830894D01*
X88855121Y32830894D02*
X88891406Y32794608D01*
X88891406Y32794608D02*
X88927692Y32722037D01*
X88927692Y32722037D02*
X88927692Y32649465D01*
X88927692Y32649465D02*
X88891406Y32576894D01*
X88891406Y32576894D02*
X88855121Y32540608D01*
X88855121Y32540608D02*
X88782549Y32504323D01*
X88782549Y32504323D02*
X88528549Y32504323D01*
X89290549Y32105180D02*
X89290549Y32613180D01*
X89290549Y32867180D02*
X89254263Y32830894D01*
X89254263Y32830894D02*
X89290549Y32794608D01*
X89290549Y32794608D02*
X89326835Y32830894D01*
X89326835Y32830894D02*
X89290549Y32867180D01*
X89290549Y32867180D02*
X89290549Y32794608D01*
X89979978Y32105180D02*
X89979978Y32504323D01*
X89979978Y32504323D02*
X89943692Y32576894D01*
X89943692Y32576894D02*
X89871120Y32613180D01*
X89871120Y32613180D02*
X89725978Y32613180D01*
X89725978Y32613180D02*
X89653406Y32576894D01*
X89979978Y32141465D02*
X89907406Y32105180D01*
X89907406Y32105180D02*
X89725978Y32105180D01*
X89725978Y32105180D02*
X89653406Y32141465D01*
X89653406Y32141465D02*
X89617120Y32214037D01*
X89617120Y32214037D02*
X89617120Y32286608D01*
X89617120Y32286608D02*
X89653406Y32359180D01*
X89653406Y32359180D02*
X89725978Y32395465D01*
X89725978Y32395465D02*
X89907406Y32395465D01*
X89907406Y32395465D02*
X89979978Y32431751D01*
X90306549Y32141465D02*
X90379121Y32105180D01*
X90379121Y32105180D02*
X90524264Y32105180D01*
X90524264Y32105180D02*
X90596835Y32141465D01*
X90596835Y32141465D02*
X90633121Y32214037D01*
X90633121Y32214037D02*
X90633121Y32250323D01*
X90633121Y32250323D02*
X90596835Y32322894D01*
X90596835Y32322894D02*
X90524264Y32359180D01*
X90524264Y32359180D02*
X90415407Y32359180D01*
X90415407Y32359180D02*
X90342835Y32395465D01*
X90342835Y32395465D02*
X90306549Y32468037D01*
X90306549Y32468037D02*
X90306549Y32504323D01*
X90306549Y32504323D02*
X90342835Y32576894D01*
X90342835Y32576894D02*
X90415407Y32613180D01*
X90415407Y32613180D02*
X90524264Y32613180D01*
X90524264Y32613180D02*
X90596835Y32576894D01*
X4971142Y11847410D02*
X4971142Y12609410D01*
X4971142Y12609410D02*
X5261428Y12609410D01*
X5261428Y12609410D02*
X5333999Y12573124D01*
X5333999Y12573124D02*
X5370285Y12536838D01*
X5370285Y12536838D02*
X5406571Y12464267D01*
X5406571Y12464267D02*
X5406571Y12355410D01*
X5406571Y12355410D02*
X5370285Y12282838D01*
X5370285Y12282838D02*
X5333999Y12246553D01*
X5333999Y12246553D02*
X5261428Y12210267D01*
X5261428Y12210267D02*
X4971142Y12210267D01*
X5841999Y11847410D02*
X5769428Y11883695D01*
X5769428Y11883695D02*
X5733142Y11919981D01*
X5733142Y11919981D02*
X5696856Y11992553D01*
X5696856Y11992553D02*
X5696856Y12210267D01*
X5696856Y12210267D02*
X5733142Y12282838D01*
X5733142Y12282838D02*
X5769428Y12319124D01*
X5769428Y12319124D02*
X5841999Y12355410D01*
X5841999Y12355410D02*
X5950856Y12355410D01*
X5950856Y12355410D02*
X6023428Y12319124D01*
X6023428Y12319124D02*
X6059714Y12282838D01*
X6059714Y12282838D02*
X6095999Y12210267D01*
X6095999Y12210267D02*
X6095999Y11992553D01*
X6095999Y11992553D02*
X6059714Y11919981D01*
X6059714Y11919981D02*
X6023428Y11883695D01*
X6023428Y11883695D02*
X5950856Y11847410D01*
X5950856Y11847410D02*
X5841999Y11847410D01*
X6386285Y11883695D02*
X6458857Y11847410D01*
X6458857Y11847410D02*
X6604000Y11847410D01*
X6604000Y11847410D02*
X6676571Y11883695D01*
X6676571Y11883695D02*
X6712857Y11956267D01*
X6712857Y11956267D02*
X6712857Y11992553D01*
X6712857Y11992553D02*
X6676571Y12065124D01*
X6676571Y12065124D02*
X6604000Y12101410D01*
X6604000Y12101410D02*
X6495143Y12101410D01*
X6495143Y12101410D02*
X6422571Y12137695D01*
X6422571Y12137695D02*
X6386285Y12210267D01*
X6386285Y12210267D02*
X6386285Y12246553D01*
X6386285Y12246553D02*
X6422571Y12319124D01*
X6422571Y12319124D02*
X6495143Y12355410D01*
X6495143Y12355410D02*
X6604000Y12355410D01*
X6604000Y12355410D02*
X6676571Y12319124D01*
X7039428Y11847410D02*
X7039428Y12355410D01*
X7039428Y12609410D02*
X7003142Y12573124D01*
X7003142Y12573124D02*
X7039428Y12536838D01*
X7039428Y12536838D02*
X7075714Y12573124D01*
X7075714Y12573124D02*
X7039428Y12609410D01*
X7039428Y12609410D02*
X7039428Y12536838D01*
X7293428Y12355410D02*
X7583714Y12355410D01*
X7402285Y12609410D02*
X7402285Y11956267D01*
X7402285Y11956267D02*
X7438571Y11883695D01*
X7438571Y11883695D02*
X7511142Y11847410D01*
X7511142Y11847410D02*
X7583714Y11847410D01*
X7837714Y11847410D02*
X7837714Y12355410D01*
X7837714Y12609410D02*
X7801428Y12573124D01*
X7801428Y12573124D02*
X7837714Y12536838D01*
X7837714Y12536838D02*
X7874000Y12573124D01*
X7874000Y12573124D02*
X7837714Y12609410D01*
X7837714Y12609410D02*
X7837714Y12536838D01*
X8128000Y12355410D02*
X8309428Y11847410D01*
X8309428Y11847410D02*
X8490857Y12355410D01*
X9071428Y11883695D02*
X8998856Y11847410D01*
X8998856Y11847410D02*
X8853714Y11847410D01*
X8853714Y11847410D02*
X8781142Y11883695D01*
X8781142Y11883695D02*
X8744856Y11956267D01*
X8744856Y11956267D02*
X8744856Y12246553D01*
X8744856Y12246553D02*
X8781142Y12319124D01*
X8781142Y12319124D02*
X8853714Y12355410D01*
X8853714Y12355410D02*
X8998856Y12355410D01*
X8998856Y12355410D02*
X9071428Y12319124D01*
X9071428Y12319124D02*
X9107714Y12246553D01*
X9107714Y12246553D02*
X9107714Y12173981D01*
X9107714Y12173981D02*
X8744856Y12101410D01*
X10014856Y11847410D02*
X10014856Y12609410D01*
X10014856Y12609410D02*
X10305142Y12609410D01*
X10305142Y12609410D02*
X10377713Y12573124D01*
X10377713Y12573124D02*
X10413999Y12536838D01*
X10413999Y12536838D02*
X10450285Y12464267D01*
X10450285Y12464267D02*
X10450285Y12355410D01*
X10450285Y12355410D02*
X10413999Y12282838D01*
X10413999Y12282838D02*
X10377713Y12246553D01*
X10377713Y12246553D02*
X10305142Y12210267D01*
X10305142Y12210267D02*
X10014856Y12210267D01*
X10776856Y11847410D02*
X10776856Y12355410D01*
X10776856Y12210267D02*
X10813142Y12282838D01*
X10813142Y12282838D02*
X10849428Y12319124D01*
X10849428Y12319124D02*
X10921999Y12355410D01*
X10921999Y12355410D02*
X10994570Y12355410D01*
X11357427Y11847410D02*
X11284856Y11883695D01*
X11284856Y11883695D02*
X11248570Y11919981D01*
X11248570Y11919981D02*
X11212284Y11992553D01*
X11212284Y11992553D02*
X11212284Y12210267D01*
X11212284Y12210267D02*
X11248570Y12282838D01*
X11248570Y12282838D02*
X11284856Y12319124D01*
X11284856Y12319124D02*
X11357427Y12355410D01*
X11357427Y12355410D02*
X11466284Y12355410D01*
X11466284Y12355410D02*
X11538856Y12319124D01*
X11538856Y12319124D02*
X11575142Y12282838D01*
X11575142Y12282838D02*
X11611427Y12210267D01*
X11611427Y12210267D02*
X11611427Y11992553D01*
X11611427Y11992553D02*
X11575142Y11919981D01*
X11575142Y11919981D02*
X11538856Y11883695D01*
X11538856Y11883695D02*
X11466284Y11847410D01*
X11466284Y11847410D02*
X11357427Y11847410D01*
X11937999Y11847410D02*
X11937999Y12609410D01*
X11937999Y12319124D02*
X12010571Y12355410D01*
X12010571Y12355410D02*
X12155713Y12355410D01*
X12155713Y12355410D02*
X12228285Y12319124D01*
X12228285Y12319124D02*
X12264571Y12282838D01*
X12264571Y12282838D02*
X12300856Y12210267D01*
X12300856Y12210267D02*
X12300856Y11992553D01*
X12300856Y11992553D02*
X12264571Y11919981D01*
X12264571Y11919981D02*
X12228285Y11883695D01*
X12228285Y11883695D02*
X12155713Y11847410D01*
X12155713Y11847410D02*
X12010571Y11847410D01*
X12010571Y11847410D02*
X11937999Y11883695D01*
X12917714Y11883695D02*
X12845142Y11847410D01*
X12845142Y11847410D02*
X12700000Y11847410D01*
X12700000Y11847410D02*
X12627428Y11883695D01*
X12627428Y11883695D02*
X12591142Y11956267D01*
X12591142Y11956267D02*
X12591142Y12246553D01*
X12591142Y12246553D02*
X12627428Y12319124D01*
X12627428Y12319124D02*
X12700000Y12355410D01*
X12700000Y12355410D02*
X12845142Y12355410D01*
X12845142Y12355410D02*
X12917714Y12319124D01*
X12917714Y12319124D02*
X12954000Y12246553D01*
X12954000Y12246553D02*
X12954000Y12173981D01*
X12954000Y12173981D02*
X12591142Y12101410D01*
X13861142Y11847410D02*
X13861142Y12609410D01*
X14223999Y12355410D02*
X14223999Y11847410D01*
X14223999Y12282838D02*
X14260285Y12319124D01*
X14260285Y12319124D02*
X14332856Y12355410D01*
X14332856Y12355410D02*
X14441713Y12355410D01*
X14441713Y12355410D02*
X14514285Y12319124D01*
X14514285Y12319124D02*
X14550571Y12246553D01*
X14550571Y12246553D02*
X14550571Y11847410D01*
X14913428Y12355410D02*
X14913428Y11593410D01*
X14913428Y12319124D02*
X14986000Y12355410D01*
X14986000Y12355410D02*
X15131142Y12355410D01*
X15131142Y12355410D02*
X15203714Y12319124D01*
X15203714Y12319124D02*
X15240000Y12282838D01*
X15240000Y12282838D02*
X15276285Y12210267D01*
X15276285Y12210267D02*
X15276285Y11992553D01*
X15276285Y11992553D02*
X15240000Y11919981D01*
X15240000Y11919981D02*
X15203714Y11883695D01*
X15203714Y11883695D02*
X15131142Y11847410D01*
X15131142Y11847410D02*
X14986000Y11847410D01*
X14986000Y11847410D02*
X14913428Y11883695D01*
X15929429Y12355410D02*
X15929429Y11847410D01*
X15602857Y12355410D02*
X15602857Y11956267D01*
X15602857Y11956267D02*
X15639143Y11883695D01*
X15639143Y11883695D02*
X15711714Y11847410D01*
X15711714Y11847410D02*
X15820571Y11847410D01*
X15820571Y11847410D02*
X15893143Y11883695D01*
X15893143Y11883695D02*
X15929429Y11919981D01*
X16183429Y12355410D02*
X16473715Y12355410D01*
X16292286Y12609410D02*
X16292286Y11956267D01*
X16292286Y11956267D02*
X16328572Y11883695D01*
X16328572Y11883695D02*
X16401143Y11847410D01*
X16401143Y11847410D02*
X16473715Y11847410D01*
X19739428Y44577124D02*
X19666857Y44613410D01*
X19666857Y44613410D02*
X19557999Y44613410D01*
X19557999Y44613410D02*
X19449142Y44577124D01*
X19449142Y44577124D02*
X19376571Y44504553D01*
X19376571Y44504553D02*
X19340285Y44431981D01*
X19340285Y44431981D02*
X19303999Y44286838D01*
X19303999Y44286838D02*
X19303999Y44177981D01*
X19303999Y44177981D02*
X19340285Y44032838D01*
X19340285Y44032838D02*
X19376571Y43960267D01*
X19376571Y43960267D02*
X19449142Y43887695D01*
X19449142Y43887695D02*
X19557999Y43851410D01*
X19557999Y43851410D02*
X19630571Y43851410D01*
X19630571Y43851410D02*
X19739428Y43887695D01*
X19739428Y43887695D02*
X19775714Y43923981D01*
X19775714Y43923981D02*
X19775714Y44177981D01*
X19775714Y44177981D02*
X19630571Y44177981D01*
X20102285Y43851410D02*
X20102285Y44613410D01*
X20102285Y44613410D02*
X20537714Y43851410D01*
X20537714Y43851410D02*
X20537714Y44613410D01*
X20900571Y43851410D02*
X20900571Y44613410D01*
X20900571Y44613410D02*
X21082000Y44613410D01*
X21082000Y44613410D02*
X21190857Y44577124D01*
X21190857Y44577124D02*
X21263428Y44504553D01*
X21263428Y44504553D02*
X21299714Y44431981D01*
X21299714Y44431981D02*
X21336000Y44286838D01*
X21336000Y44286838D02*
X21336000Y44177981D01*
X21336000Y44177981D02*
X21299714Y44032838D01*
X21299714Y44032838D02*
X21263428Y43960267D01*
X21263428Y43960267D02*
X21190857Y43887695D01*
X21190857Y43887695D02*
X21082000Y43851410D01*
X21082000Y43851410D02*
X20900571Y43851410D01*
D12*
X13476653Y834172D02*
X12976653Y1548458D01*
X12619510Y834172D02*
X12619510Y2334172D01*
X12619510Y2334172D02*
X13190939Y2334172D01*
X13190939Y2334172D02*
X13333796Y2262743D01*
X13333796Y2262743D02*
X13405225Y2191315D01*
X13405225Y2191315D02*
X13476653Y2048458D01*
X13476653Y2048458D02*
X13476653Y1834172D01*
X13476653Y1834172D02*
X13405225Y1691315D01*
X13405225Y1691315D02*
X13333796Y1619886D01*
X13333796Y1619886D02*
X13190939Y1548458D01*
X13190939Y1548458D02*
X12619510Y1548458D01*
X14690939Y905600D02*
X14548082Y834172D01*
X14548082Y834172D02*
X14262368Y834172D01*
X14262368Y834172D02*
X14119510Y905600D01*
X14119510Y905600D02*
X14048082Y1048458D01*
X14048082Y1048458D02*
X14048082Y1619886D01*
X14048082Y1619886D02*
X14119510Y1762743D01*
X14119510Y1762743D02*
X14262368Y1834172D01*
X14262368Y1834172D02*
X14548082Y1834172D01*
X14548082Y1834172D02*
X14690939Y1762743D01*
X14690939Y1762743D02*
X14762368Y1619886D01*
X14762368Y1619886D02*
X14762368Y1477029D01*
X14762368Y1477029D02*
X14048082Y1334172D01*
X15262367Y1834172D02*
X15619510Y834172D01*
X15619510Y834172D02*
X15976653Y1834172D01*
X16548081Y834172D02*
X16548081Y1834172D01*
X16548081Y2334172D02*
X16476653Y2262743D01*
X16476653Y2262743D02*
X16548081Y2191315D01*
X16548081Y2191315D02*
X16619510Y2262743D01*
X16619510Y2262743D02*
X16548081Y2334172D01*
X16548081Y2334172D02*
X16548081Y2191315D01*
X17190939Y905600D02*
X17333796Y834172D01*
X17333796Y834172D02*
X17619510Y834172D01*
X17619510Y834172D02*
X17762367Y905600D01*
X17762367Y905600D02*
X17833796Y1048458D01*
X17833796Y1048458D02*
X17833796Y1119886D01*
X17833796Y1119886D02*
X17762367Y1262743D01*
X17762367Y1262743D02*
X17619510Y1334172D01*
X17619510Y1334172D02*
X17405225Y1334172D01*
X17405225Y1334172D02*
X17262367Y1405600D01*
X17262367Y1405600D02*
X17190939Y1548458D01*
X17190939Y1548458D02*
X17190939Y1619886D01*
X17190939Y1619886D02*
X17262367Y1762743D01*
X17262367Y1762743D02*
X17405225Y1834172D01*
X17405225Y1834172D02*
X17619510Y1834172D01*
X17619510Y1834172D02*
X17762367Y1762743D01*
X18476653Y834172D02*
X18476653Y1834172D01*
X18476653Y2334172D02*
X18405225Y2262743D01*
X18405225Y2262743D02*
X18476653Y2191315D01*
X18476653Y2191315D02*
X18548082Y2262743D01*
X18548082Y2262743D02*
X18476653Y2334172D01*
X18476653Y2334172D02*
X18476653Y2191315D01*
X19405225Y834172D02*
X19262368Y905600D01*
X19262368Y905600D02*
X19190939Y977029D01*
X19190939Y977029D02*
X19119511Y1119886D01*
X19119511Y1119886D02*
X19119511Y1548458D01*
X19119511Y1548458D02*
X19190939Y1691315D01*
X19190939Y1691315D02*
X19262368Y1762743D01*
X19262368Y1762743D02*
X19405225Y1834172D01*
X19405225Y1834172D02*
X19619511Y1834172D01*
X19619511Y1834172D02*
X19762368Y1762743D01*
X19762368Y1762743D02*
X19833797Y1691315D01*
X19833797Y1691315D02*
X19905225Y1548458D01*
X19905225Y1548458D02*
X19905225Y1119886D01*
X19905225Y1119886D02*
X19833797Y977029D01*
X19833797Y977029D02*
X19762368Y905600D01*
X19762368Y905600D02*
X19619511Y834172D01*
X19619511Y834172D02*
X19405225Y834172D01*
X20548082Y1834172D02*
X20548082Y834172D01*
X20548082Y1691315D02*
X20619511Y1762743D01*
X20619511Y1762743D02*
X20762368Y1834172D01*
X20762368Y1834172D02*
X20976654Y1834172D01*
X20976654Y1834172D02*
X21119511Y1762743D01*
X21119511Y1762743D02*
X21190940Y1619886D01*
X21190940Y1619886D02*
X21190940Y834172D01*
X22976654Y2191315D02*
X23048082Y2262743D01*
X23048082Y2262743D02*
X23190940Y2334172D01*
X23190940Y2334172D02*
X23548082Y2334172D01*
X23548082Y2334172D02*
X23690940Y2262743D01*
X23690940Y2262743D02*
X23762368Y2191315D01*
X23762368Y2191315D02*
X23833797Y2048458D01*
X23833797Y2048458D02*
X23833797Y1905600D01*
X23833797Y1905600D02*
X23762368Y1691315D01*
X23762368Y1691315D02*
X22905225Y834172D01*
X22905225Y834172D02*
X23833797Y834172D01*
D13*
X85536409Y2538259D02*
X86008123Y2538259D01*
X86008123Y2538259D02*
X85754123Y2247973D01*
X85754123Y2247973D02*
X85862980Y2247973D01*
X85862980Y2247973D02*
X85935552Y2211687D01*
X85935552Y2211687D02*
X85971837Y2175402D01*
X85971837Y2175402D02*
X86008123Y2102830D01*
X86008123Y2102830D02*
X86008123Y1921402D01*
X86008123Y1921402D02*
X85971837Y1848830D01*
X85971837Y1848830D02*
X85935552Y1812544D01*
X85935552Y1812544D02*
X85862980Y1776259D01*
X85862980Y1776259D02*
X85645266Y1776259D01*
X85645266Y1776259D02*
X85572694Y1812544D01*
X85572694Y1812544D02*
X85536409Y1848830D01*
X86334694Y1848830D02*
X86370980Y1812544D01*
X86370980Y1812544D02*
X86334694Y1776259D01*
X86334694Y1776259D02*
X86298408Y1812544D01*
X86298408Y1812544D02*
X86334694Y1848830D01*
X86334694Y1848830D02*
X86334694Y1776259D01*
X87060408Y2538259D02*
X86697551Y2538259D01*
X86697551Y2538259D02*
X86661265Y2175402D01*
X86661265Y2175402D02*
X86697551Y2211687D01*
X86697551Y2211687D02*
X86770123Y2247973D01*
X86770123Y2247973D02*
X86951551Y2247973D01*
X86951551Y2247973D02*
X87024123Y2211687D01*
X87024123Y2211687D02*
X87060408Y2175402D01*
X87060408Y2175402D02*
X87096694Y2102830D01*
X87096694Y2102830D02*
X87096694Y1921402D01*
X87096694Y1921402D02*
X87060408Y1848830D01*
X87060408Y1848830D02*
X87024123Y1812544D01*
X87024123Y1812544D02*
X86951551Y1776259D01*
X86951551Y1776259D02*
X86770123Y1776259D01*
X86770123Y1776259D02*
X86697551Y1812544D01*
X86697551Y1812544D02*
X86661265Y1848830D01*
X87749837Y2538259D02*
X87604694Y2538259D01*
X87604694Y2538259D02*
X87532122Y2501973D01*
X87532122Y2501973D02*
X87495837Y2465687D01*
X87495837Y2465687D02*
X87423265Y2356830D01*
X87423265Y2356830D02*
X87386979Y2211687D01*
X87386979Y2211687D02*
X87386979Y1921402D01*
X87386979Y1921402D02*
X87423265Y1848830D01*
X87423265Y1848830D02*
X87459551Y1812544D01*
X87459551Y1812544D02*
X87532122Y1776259D01*
X87532122Y1776259D02*
X87677265Y1776259D01*
X87677265Y1776259D02*
X87749837Y1812544D01*
X87749837Y1812544D02*
X87786122Y1848830D01*
X87786122Y1848830D02*
X87822408Y1921402D01*
X87822408Y1921402D02*
X87822408Y2102830D01*
X87822408Y2102830D02*
X87786122Y2175402D01*
X87786122Y2175402D02*
X87749837Y2211687D01*
X87749837Y2211687D02*
X87677265Y2247973D01*
X87677265Y2247973D02*
X87532122Y2247973D01*
X87532122Y2247973D02*
X87459551Y2211687D01*
X87459551Y2211687D02*
X87423265Y2175402D01*
X87423265Y2175402D02*
X87386979Y2102830D01*
X88729550Y1776259D02*
X88729550Y2284259D01*
X88729550Y2538259D02*
X88693264Y2501973D01*
X88693264Y2501973D02*
X88729550Y2465687D01*
X88729550Y2465687D02*
X88765836Y2501973D01*
X88765836Y2501973D02*
X88729550Y2538259D01*
X88729550Y2538259D02*
X88729550Y2465687D01*
X89092407Y2284259D02*
X89092407Y1776259D01*
X89092407Y2211687D02*
X89128693Y2247973D01*
X89128693Y2247973D02*
X89201264Y2284259D01*
X89201264Y2284259D02*
X89310121Y2284259D01*
X89310121Y2284259D02*
X89382693Y2247973D01*
X89382693Y2247973D02*
X89418979Y2175402D01*
X89418979Y2175402D02*
X89418979Y1776259D01*
X89781836Y1848830D02*
X89818122Y1812544D01*
X89818122Y1812544D02*
X89781836Y1776259D01*
X89781836Y1776259D02*
X89745550Y1812544D01*
X89745550Y1812544D02*
X89781836Y1848830D01*
X89781836Y1848830D02*
X89781836Y1776259D01*
D11*
X41075428Y12573124D02*
X41002857Y12609410D01*
X41002857Y12609410D02*
X40893999Y12609410D01*
X40893999Y12609410D02*
X40785142Y12573124D01*
X40785142Y12573124D02*
X40712571Y12500553D01*
X40712571Y12500553D02*
X40676285Y12427981D01*
X40676285Y12427981D02*
X40639999Y12282838D01*
X40639999Y12282838D02*
X40639999Y12173981D01*
X40639999Y12173981D02*
X40676285Y12028838D01*
X40676285Y12028838D02*
X40712571Y11956267D01*
X40712571Y11956267D02*
X40785142Y11883695D01*
X40785142Y11883695D02*
X40893999Y11847410D01*
X40893999Y11847410D02*
X40966571Y11847410D01*
X40966571Y11847410D02*
X41075428Y11883695D01*
X41075428Y11883695D02*
X41111714Y11919981D01*
X41111714Y11919981D02*
X41111714Y12173981D01*
X41111714Y12173981D02*
X40966571Y12173981D01*
X41438285Y11847410D02*
X41438285Y12609410D01*
X41438285Y12609410D02*
X41873714Y11847410D01*
X41873714Y11847410D02*
X41873714Y12609410D01*
X42236571Y11847410D02*
X42236571Y12609410D01*
X42236571Y12609410D02*
X42418000Y12609410D01*
X42418000Y12609410D02*
X42526857Y12573124D01*
X42526857Y12573124D02*
X42599428Y12500553D01*
X42599428Y12500553D02*
X42635714Y12427981D01*
X42635714Y12427981D02*
X42672000Y12282838D01*
X42672000Y12282838D02*
X42672000Y12173981D01*
X42672000Y12173981D02*
X42635714Y12028838D01*
X42635714Y12028838D02*
X42599428Y11956267D01*
X42599428Y11956267D02*
X42526857Y11883695D01*
X42526857Y11883695D02*
X42418000Y11847410D01*
X42418000Y11847410D02*
X42236571Y11847410D01*
D10*
X91860588Y21192506D02*
X91765350Y21240125D01*
X91765350Y21240125D02*
X91622493Y21240125D01*
X91622493Y21240125D02*
X91479636Y21192506D01*
X91479636Y21192506D02*
X91384398Y21097268D01*
X91384398Y21097268D02*
X91336779Y21002030D01*
X91336779Y21002030D02*
X91289160Y20811554D01*
X91289160Y20811554D02*
X91289160Y20668697D01*
X91289160Y20668697D02*
X91336779Y20478221D01*
X91336779Y20478221D02*
X91384398Y20382983D01*
X91384398Y20382983D02*
X91479636Y20287744D01*
X91479636Y20287744D02*
X91622493Y20240125D01*
X91622493Y20240125D02*
X91717731Y20240125D01*
X91717731Y20240125D02*
X91860588Y20287744D01*
X91860588Y20287744D02*
X91908207Y20335364D01*
X91908207Y20335364D02*
X91908207Y20668697D01*
X91908207Y20668697D02*
X91717731Y20668697D01*
X92336779Y20240125D02*
X92336779Y21240125D01*
X92336779Y21240125D02*
X92908207Y20240125D01*
X92908207Y20240125D02*
X92908207Y21240125D01*
X93384398Y20240125D02*
X93384398Y21240125D01*
X93384398Y21240125D02*
X93622493Y21240125D01*
X93622493Y21240125D02*
X93765350Y21192506D01*
X93765350Y21192506D02*
X93860588Y21097268D01*
X93860588Y21097268D02*
X93908207Y21002030D01*
X93908207Y21002030D02*
X93955826Y20811554D01*
X93955826Y20811554D02*
X93955826Y20668697D01*
X93955826Y20668697D02*
X93908207Y20478221D01*
X93908207Y20478221D02*
X93860588Y20382983D01*
X93860588Y20382983D02*
X93765350Y20287744D01*
X93765350Y20287744D02*
X93622493Y20240125D01*
X93622493Y20240125D02*
X93384398Y20240125D01*
X91336779Y19011134D02*
X92098684Y19011134D01*
X92622493Y18630181D02*
X92812969Y18630181D01*
X92812969Y18630181D02*
X92908207Y18677800D01*
X92908207Y18677800D02*
X92955826Y18725420D01*
X92955826Y18725420D02*
X93051064Y18868277D01*
X93051064Y18868277D02*
X93098683Y19058753D01*
X93098683Y19058753D02*
X93098683Y19439705D01*
X93098683Y19439705D02*
X93051064Y19534943D01*
X93051064Y19534943D02*
X93003445Y19582562D01*
X93003445Y19582562D02*
X92908207Y19630181D01*
X92908207Y19630181D02*
X92717731Y19630181D01*
X92717731Y19630181D02*
X92622493Y19582562D01*
X92622493Y19582562D02*
X92574874Y19534943D01*
X92574874Y19534943D02*
X92527255Y19439705D01*
X92527255Y19439705D02*
X92527255Y19201610D01*
X92527255Y19201610D02*
X92574874Y19106372D01*
X92574874Y19106372D02*
X92622493Y19058753D01*
X92622493Y19058753D02*
X92717731Y19011134D01*
X92717731Y19011134D02*
X92908207Y19011134D01*
X92908207Y19011134D02*
X93003445Y19058753D01*
X93003445Y19058753D02*
X93051064Y19106372D01*
X93051064Y19106372D02*
X93098683Y19201610D01*
X93384398Y19630181D02*
X93717731Y18630181D01*
X93717731Y18630181D02*
X94051064Y19630181D01*
D11*
X77143428Y17653124D02*
X77070857Y17689410D01*
X77070857Y17689410D02*
X76961999Y17689410D01*
X76961999Y17689410D02*
X76853142Y17653124D01*
X76853142Y17653124D02*
X76780571Y17580553D01*
X76780571Y17580553D02*
X76744285Y17507981D01*
X76744285Y17507981D02*
X76707999Y17362838D01*
X76707999Y17362838D02*
X76707999Y17253981D01*
X76707999Y17253981D02*
X76744285Y17108838D01*
X76744285Y17108838D02*
X76780571Y17036267D01*
X76780571Y17036267D02*
X76853142Y16963695D01*
X76853142Y16963695D02*
X76961999Y16927410D01*
X76961999Y16927410D02*
X77034571Y16927410D01*
X77034571Y16927410D02*
X77143428Y16963695D01*
X77143428Y16963695D02*
X77179714Y16999981D01*
X77179714Y16999981D02*
X77179714Y17253981D01*
X77179714Y17253981D02*
X77034571Y17253981D01*
X77506285Y16927410D02*
X77506285Y17689410D01*
X77506285Y17689410D02*
X77941714Y16927410D01*
X77941714Y16927410D02*
X77941714Y17689410D01*
X78304571Y16927410D02*
X78304571Y17689410D01*
X78304571Y17689410D02*
X78486000Y17689410D01*
X78486000Y17689410D02*
X78594857Y17653124D01*
X78594857Y17653124D02*
X78667428Y17580553D01*
X78667428Y17580553D02*
X78703714Y17507981D01*
X78703714Y17507981D02*
X78740000Y17362838D01*
X78740000Y17362838D02*
X78740000Y17253981D01*
X78740000Y17253981D02*
X78703714Y17108838D01*
X78703714Y17108838D02*
X78667428Y17036267D01*
X78667428Y17036267D02*
X78594857Y16963695D01*
X78594857Y16963695D02*
X78486000Y16927410D01*
X78486000Y16927410D02*
X78304571Y16927410D01*
X91367428Y14097124D02*
X91294857Y14133410D01*
X91294857Y14133410D02*
X91185999Y14133410D01*
X91185999Y14133410D02*
X91077142Y14097124D01*
X91077142Y14097124D02*
X91004571Y14024553D01*
X91004571Y14024553D02*
X90968285Y13951981D01*
X90968285Y13951981D02*
X90931999Y13806838D01*
X90931999Y13806838D02*
X90931999Y13697981D01*
X90931999Y13697981D02*
X90968285Y13552838D01*
X90968285Y13552838D02*
X91004571Y13480267D01*
X91004571Y13480267D02*
X91077142Y13407695D01*
X91077142Y13407695D02*
X91185999Y13371410D01*
X91185999Y13371410D02*
X91258571Y13371410D01*
X91258571Y13371410D02*
X91367428Y13407695D01*
X91367428Y13407695D02*
X91403714Y13443981D01*
X91403714Y13443981D02*
X91403714Y13697981D01*
X91403714Y13697981D02*
X91258571Y13697981D01*
X91730285Y13371410D02*
X91730285Y14133410D01*
X91730285Y14133410D02*
X92165714Y13371410D01*
X92165714Y13371410D02*
X92165714Y14133410D01*
X92528571Y13371410D02*
X92528571Y14133410D01*
X92528571Y14133410D02*
X92710000Y14133410D01*
X92710000Y14133410D02*
X92818857Y14097124D01*
X92818857Y14097124D02*
X92891428Y14024553D01*
X92891428Y14024553D02*
X92927714Y13951981D01*
X92927714Y13951981D02*
X92964000Y13806838D01*
X92964000Y13806838D02*
X92964000Y13697981D01*
X92964000Y13697981D02*
X92927714Y13552838D01*
X92927714Y13552838D02*
X92891428Y13480267D01*
X92891428Y13480267D02*
X92818857Y13407695D01*
X92818857Y13407695D02*
X92710000Y13371410D01*
X92710000Y13371410D02*
X92528571Y13371410D01*
D13*
X84072258Y5939877D02*
X84072258Y6375306D01*
X84072258Y6157591D02*
X84834258Y6157591D01*
X84834258Y6157591D02*
X84725401Y6230163D01*
X84725401Y6230163D02*
X84652829Y6302734D01*
X84652829Y6302734D02*
X84616544Y6375306D01*
X84144829Y5613306D02*
X84108544Y5577020D01*
X84108544Y5577020D02*
X84072258Y5613306D01*
X84072258Y5613306D02*
X84108544Y5649592D01*
X84108544Y5649592D02*
X84144829Y5613306D01*
X84144829Y5613306D02*
X84072258Y5613306D01*
X84834258Y4923877D02*
X84834258Y5069020D01*
X84834258Y5069020D02*
X84797972Y5141592D01*
X84797972Y5141592D02*
X84761686Y5177877D01*
X84761686Y5177877D02*
X84652829Y5250449D01*
X84652829Y5250449D02*
X84507686Y5286735D01*
X84507686Y5286735D02*
X84217401Y5286735D01*
X84217401Y5286735D02*
X84144829Y5250449D01*
X84144829Y5250449D02*
X84108544Y5214163D01*
X84108544Y5214163D02*
X84072258Y5141592D01*
X84072258Y5141592D02*
X84072258Y4996449D01*
X84072258Y4996449D02*
X84108544Y4923877D01*
X84108544Y4923877D02*
X84144829Y4887592D01*
X84144829Y4887592D02*
X84217401Y4851306D01*
X84217401Y4851306D02*
X84398829Y4851306D01*
X84398829Y4851306D02*
X84471401Y4887592D01*
X84471401Y4887592D02*
X84507686Y4923877D01*
X84507686Y4923877D02*
X84543972Y4996449D01*
X84543972Y4996449D02*
X84543972Y5141592D01*
X84543972Y5141592D02*
X84507686Y5214163D01*
X84507686Y5214163D02*
X84471401Y5250449D01*
X84471401Y5250449D02*
X84398829Y5286735D01*
X84072258Y3944164D02*
X84580258Y3944164D01*
X84834258Y3944164D02*
X84797972Y3980450D01*
X84797972Y3980450D02*
X84761686Y3944164D01*
X84761686Y3944164D02*
X84797972Y3907878D01*
X84797972Y3907878D02*
X84834258Y3944164D01*
X84834258Y3944164D02*
X84761686Y3944164D01*
X84580258Y3581307D02*
X84072258Y3581307D01*
X84507686Y3581307D02*
X84543972Y3545021D01*
X84543972Y3545021D02*
X84580258Y3472450D01*
X84580258Y3472450D02*
X84580258Y3363593D01*
X84580258Y3363593D02*
X84543972Y3291021D01*
X84543972Y3291021D02*
X84471401Y3254735D01*
X84471401Y3254735D02*
X84072258Y3254735D01*
X84144829Y2891878D02*
X84108544Y2855592D01*
X84108544Y2855592D02*
X84072258Y2891878D01*
X84072258Y2891878D02*
X84108544Y2928164D01*
X84108544Y2928164D02*
X84144829Y2891878D01*
X84144829Y2891878D02*
X84072258Y2891878D01*
D11*
X42436142Y4115083D02*
X43016714Y4115083D01*
X43415857Y3824798D02*
X43561000Y3824798D01*
X43561000Y3824798D02*
X43633571Y3861083D01*
X43633571Y3861083D02*
X43669857Y3897369D01*
X43669857Y3897369D02*
X43742428Y4006226D01*
X43742428Y4006226D02*
X43778714Y4151369D01*
X43778714Y4151369D02*
X43778714Y4441655D01*
X43778714Y4441655D02*
X43742428Y4514226D01*
X43742428Y4514226D02*
X43706143Y4550512D01*
X43706143Y4550512D02*
X43633571Y4586798D01*
X43633571Y4586798D02*
X43488428Y4586798D01*
X43488428Y4586798D02*
X43415857Y4550512D01*
X43415857Y4550512D02*
X43379571Y4514226D01*
X43379571Y4514226D02*
X43343285Y4441655D01*
X43343285Y4441655D02*
X43343285Y4260226D01*
X43343285Y4260226D02*
X43379571Y4187655D01*
X43379571Y4187655D02*
X43415857Y4151369D01*
X43415857Y4151369D02*
X43488428Y4115083D01*
X43488428Y4115083D02*
X43633571Y4115083D01*
X43633571Y4115083D02*
X43706143Y4151369D01*
X43706143Y4151369D02*
X43742428Y4187655D01*
X43742428Y4187655D02*
X43778714Y4260226D01*
X43996428Y4586798D02*
X44250428Y3824798D01*
X44250428Y3824798D02*
X44504428Y4586798D01*
X45338999Y3824798D02*
X45338999Y4586798D01*
X45701856Y4332798D02*
X45701856Y3824798D01*
X45701856Y4260226D02*
X45738142Y4296512D01*
X45738142Y4296512D02*
X45810713Y4332798D01*
X45810713Y4332798D02*
X45919570Y4332798D01*
X45919570Y4332798D02*
X45992142Y4296512D01*
X45992142Y4296512D02*
X46028428Y4223941D01*
X46028428Y4223941D02*
X46028428Y3824798D01*
X46717857Y3824798D02*
X46717857Y4586798D01*
X46717857Y3861083D02*
X46645285Y3824798D01*
X46645285Y3824798D02*
X46500142Y3824798D01*
X46500142Y3824798D02*
X46427571Y3861083D01*
X46427571Y3861083D02*
X46391285Y3897369D01*
X46391285Y3897369D02*
X46354999Y3969941D01*
X46354999Y3969941D02*
X46354999Y4187655D01*
X46354999Y4187655D02*
X46391285Y4260226D01*
X46391285Y4260226D02*
X46427571Y4296512D01*
X46427571Y4296512D02*
X46500142Y4332798D01*
X46500142Y4332798D02*
X46645285Y4332798D01*
X46645285Y4332798D02*
X46717857Y4296512D01*
X47080714Y3824798D02*
X47080714Y4332798D01*
X47080714Y4586798D02*
X47044428Y4550512D01*
X47044428Y4550512D02*
X47080714Y4514226D01*
X47080714Y4514226D02*
X47117000Y4550512D01*
X47117000Y4550512D02*
X47080714Y4586798D01*
X47080714Y4586798D02*
X47080714Y4514226D01*
X47770143Y3861083D02*
X47697571Y3824798D01*
X47697571Y3824798D02*
X47552428Y3824798D01*
X47552428Y3824798D02*
X47479857Y3861083D01*
X47479857Y3861083D02*
X47443571Y3897369D01*
X47443571Y3897369D02*
X47407285Y3969941D01*
X47407285Y3969941D02*
X47407285Y4187655D01*
X47407285Y4187655D02*
X47443571Y4260226D01*
X47443571Y4260226D02*
X47479857Y4296512D01*
X47479857Y4296512D02*
X47552428Y4332798D01*
X47552428Y4332798D02*
X47697571Y4332798D01*
X47697571Y4332798D02*
X47770143Y4296512D01*
X48423286Y3824798D02*
X48423286Y4223941D01*
X48423286Y4223941D02*
X48387000Y4296512D01*
X48387000Y4296512D02*
X48314428Y4332798D01*
X48314428Y4332798D02*
X48169286Y4332798D01*
X48169286Y4332798D02*
X48096714Y4296512D01*
X48423286Y3861083D02*
X48350714Y3824798D01*
X48350714Y3824798D02*
X48169286Y3824798D01*
X48169286Y3824798D02*
X48096714Y3861083D01*
X48096714Y3861083D02*
X48060428Y3933655D01*
X48060428Y3933655D02*
X48060428Y4006226D01*
X48060428Y4006226D02*
X48096714Y4078798D01*
X48096714Y4078798D02*
X48169286Y4115083D01*
X48169286Y4115083D02*
X48350714Y4115083D01*
X48350714Y4115083D02*
X48423286Y4151369D01*
X48677286Y4332798D02*
X48967572Y4332798D01*
X48786143Y4586798D02*
X48786143Y3933655D01*
X48786143Y3933655D02*
X48822429Y3861083D01*
X48822429Y3861083D02*
X48895000Y3824798D01*
X48895000Y3824798D02*
X48967572Y3824798D01*
X49330429Y3824798D02*
X49257858Y3861083D01*
X49257858Y3861083D02*
X49221572Y3897369D01*
X49221572Y3897369D02*
X49185286Y3969941D01*
X49185286Y3969941D02*
X49185286Y4187655D01*
X49185286Y4187655D02*
X49221572Y4260226D01*
X49221572Y4260226D02*
X49257858Y4296512D01*
X49257858Y4296512D02*
X49330429Y4332798D01*
X49330429Y4332798D02*
X49439286Y4332798D01*
X49439286Y4332798D02*
X49511858Y4296512D01*
X49511858Y4296512D02*
X49548144Y4260226D01*
X49548144Y4260226D02*
X49584429Y4187655D01*
X49584429Y4187655D02*
X49584429Y3969941D01*
X49584429Y3969941D02*
X49548144Y3897369D01*
X49548144Y3897369D02*
X49511858Y3861083D01*
X49511858Y3861083D02*
X49439286Y3824798D01*
X49439286Y3824798D02*
X49330429Y3824798D01*
X49911001Y3824798D02*
X49911001Y4332798D01*
X49911001Y4187655D02*
X49947287Y4260226D01*
X49947287Y4260226D02*
X49983573Y4296512D01*
X49983573Y4296512D02*
X50056144Y4332798D01*
X50056144Y4332798D02*
X50128715Y4332798D01*
X63391142Y45665695D02*
X63971714Y45665695D01*
X63681428Y45375410D02*
X63681428Y45955981D01*
X64370857Y45375410D02*
X64516000Y45375410D01*
X64516000Y45375410D02*
X64588571Y45411695D01*
X64588571Y45411695D02*
X64624857Y45447981D01*
X64624857Y45447981D02*
X64697428Y45556838D01*
X64697428Y45556838D02*
X64733714Y45701981D01*
X64733714Y45701981D02*
X64733714Y45992267D01*
X64733714Y45992267D02*
X64697428Y46064838D01*
X64697428Y46064838D02*
X64661143Y46101124D01*
X64661143Y46101124D02*
X64588571Y46137410D01*
X64588571Y46137410D02*
X64443428Y46137410D01*
X64443428Y46137410D02*
X64370857Y46101124D01*
X64370857Y46101124D02*
X64334571Y46064838D01*
X64334571Y46064838D02*
X64298285Y45992267D01*
X64298285Y45992267D02*
X64298285Y45810838D01*
X64298285Y45810838D02*
X64334571Y45738267D01*
X64334571Y45738267D02*
X64370857Y45701981D01*
X64370857Y45701981D02*
X64443428Y45665695D01*
X64443428Y45665695D02*
X64588571Y45665695D01*
X64588571Y45665695D02*
X64661143Y45701981D01*
X64661143Y45701981D02*
X64697428Y45738267D01*
X64697428Y45738267D02*
X64733714Y45810838D01*
X64951428Y46137410D02*
X65205428Y45375410D01*
X65205428Y45375410D02*
X65459428Y46137410D01*
X66257713Y45411695D02*
X66366571Y45375410D01*
X66366571Y45375410D02*
X66547999Y45375410D01*
X66547999Y45375410D02*
X66620571Y45411695D01*
X66620571Y45411695D02*
X66656856Y45447981D01*
X66656856Y45447981D02*
X66693142Y45520553D01*
X66693142Y45520553D02*
X66693142Y45593124D01*
X66693142Y45593124D02*
X66656856Y45665695D01*
X66656856Y45665695D02*
X66620571Y45701981D01*
X66620571Y45701981D02*
X66547999Y45738267D01*
X66547999Y45738267D02*
X66402856Y45774553D01*
X66402856Y45774553D02*
X66330285Y45810838D01*
X66330285Y45810838D02*
X66293999Y45847124D01*
X66293999Y45847124D02*
X66257713Y45919695D01*
X66257713Y45919695D02*
X66257713Y45992267D01*
X66257713Y45992267D02*
X66293999Y46064838D01*
X66293999Y46064838D02*
X66330285Y46101124D01*
X66330285Y46101124D02*
X66402856Y46137410D01*
X66402856Y46137410D02*
X66584285Y46137410D01*
X66584285Y46137410D02*
X66693142Y46101124D01*
X67346285Y45883410D02*
X67346285Y45375410D01*
X67019713Y45883410D02*
X67019713Y45484267D01*
X67019713Y45484267D02*
X67055999Y45411695D01*
X67055999Y45411695D02*
X67128570Y45375410D01*
X67128570Y45375410D02*
X67237427Y45375410D01*
X67237427Y45375410D02*
X67309999Y45411695D01*
X67309999Y45411695D02*
X67346285Y45447981D01*
X67709142Y45883410D02*
X67709142Y45121410D01*
X67709142Y45847124D02*
X67781714Y45883410D01*
X67781714Y45883410D02*
X67926856Y45883410D01*
X67926856Y45883410D02*
X67999428Y45847124D01*
X67999428Y45847124D02*
X68035714Y45810838D01*
X68035714Y45810838D02*
X68071999Y45738267D01*
X68071999Y45738267D02*
X68071999Y45520553D01*
X68071999Y45520553D02*
X68035714Y45447981D01*
X68035714Y45447981D02*
X67999428Y45411695D01*
X67999428Y45411695D02*
X67926856Y45375410D01*
X67926856Y45375410D02*
X67781714Y45375410D01*
X67781714Y45375410D02*
X67709142Y45411695D01*
X68398571Y45883410D02*
X68398571Y45121410D01*
X68398571Y45847124D02*
X68471143Y45883410D01*
X68471143Y45883410D02*
X68616285Y45883410D01*
X68616285Y45883410D02*
X68688857Y45847124D01*
X68688857Y45847124D02*
X68725143Y45810838D01*
X68725143Y45810838D02*
X68761428Y45738267D01*
X68761428Y45738267D02*
X68761428Y45520553D01*
X68761428Y45520553D02*
X68725143Y45447981D01*
X68725143Y45447981D02*
X68688857Y45411695D01*
X68688857Y45411695D02*
X68616285Y45375410D01*
X68616285Y45375410D02*
X68471143Y45375410D01*
X68471143Y45375410D02*
X68398571Y45411695D01*
X69196857Y45375410D02*
X69124286Y45411695D01*
X69124286Y45411695D02*
X69088000Y45484267D01*
X69088000Y45484267D02*
X69088000Y46137410D01*
X69414572Y45883410D02*
X69596000Y45375410D01*
X69777429Y45883410D02*
X69596000Y45375410D01*
X69596000Y45375410D02*
X69523429Y45193981D01*
X69523429Y45193981D02*
X69487143Y45157695D01*
X69487143Y45157695D02*
X69414572Y45121410D01*
D13*
X90688980Y6703859D02*
X90688980Y7465859D01*
X90688980Y7465859D02*
X90942980Y6921573D01*
X90942980Y6921573D02*
X91196980Y7465859D01*
X91196980Y7465859D02*
X91196980Y6703859D01*
X91487266Y7465859D02*
X91958980Y7465859D01*
X91958980Y7465859D02*
X91704980Y7175573D01*
X91704980Y7175573D02*
X91813837Y7175573D01*
X91813837Y7175573D02*
X91886409Y7139287D01*
X91886409Y7139287D02*
X91922694Y7103002D01*
X91922694Y7103002D02*
X91958980Y7030430D01*
X91958980Y7030430D02*
X91958980Y6849002D01*
X91958980Y6849002D02*
X91922694Y6776430D01*
X91922694Y6776430D02*
X91886409Y6740144D01*
X91886409Y6740144D02*
X91813837Y6703859D01*
X91813837Y6703859D02*
X91596123Y6703859D01*
X91596123Y6703859D02*
X91523551Y6740144D01*
X91523551Y6740144D02*
X91487266Y6776430D01*
D11*
X63391142Y6041695D02*
X63971714Y6041695D01*
X64370857Y5751410D02*
X64516000Y5751410D01*
X64516000Y5751410D02*
X64588571Y5787695D01*
X64588571Y5787695D02*
X64624857Y5823981D01*
X64624857Y5823981D02*
X64697428Y5932838D01*
X64697428Y5932838D02*
X64733714Y6077981D01*
X64733714Y6077981D02*
X64733714Y6368267D01*
X64733714Y6368267D02*
X64697428Y6440838D01*
X64697428Y6440838D02*
X64661143Y6477124D01*
X64661143Y6477124D02*
X64588571Y6513410D01*
X64588571Y6513410D02*
X64443428Y6513410D01*
X64443428Y6513410D02*
X64370857Y6477124D01*
X64370857Y6477124D02*
X64334571Y6440838D01*
X64334571Y6440838D02*
X64298285Y6368267D01*
X64298285Y6368267D02*
X64298285Y6186838D01*
X64298285Y6186838D02*
X64334571Y6114267D01*
X64334571Y6114267D02*
X64370857Y6077981D01*
X64370857Y6077981D02*
X64443428Y6041695D01*
X64443428Y6041695D02*
X64588571Y6041695D01*
X64588571Y6041695D02*
X64661143Y6077981D01*
X64661143Y6077981D02*
X64697428Y6114267D01*
X64697428Y6114267D02*
X64733714Y6186838D01*
X64951428Y6513410D02*
X65205428Y5751410D01*
X65205428Y5751410D02*
X65459428Y6513410D01*
X66257713Y5787695D02*
X66366571Y5751410D01*
X66366571Y5751410D02*
X66547999Y5751410D01*
X66547999Y5751410D02*
X66620571Y5787695D01*
X66620571Y5787695D02*
X66656856Y5823981D01*
X66656856Y5823981D02*
X66693142Y5896553D01*
X66693142Y5896553D02*
X66693142Y5969124D01*
X66693142Y5969124D02*
X66656856Y6041695D01*
X66656856Y6041695D02*
X66620571Y6077981D01*
X66620571Y6077981D02*
X66547999Y6114267D01*
X66547999Y6114267D02*
X66402856Y6150553D01*
X66402856Y6150553D02*
X66330285Y6186838D01*
X66330285Y6186838D02*
X66293999Y6223124D01*
X66293999Y6223124D02*
X66257713Y6295695D01*
X66257713Y6295695D02*
X66257713Y6368267D01*
X66257713Y6368267D02*
X66293999Y6440838D01*
X66293999Y6440838D02*
X66330285Y6477124D01*
X66330285Y6477124D02*
X66402856Y6513410D01*
X66402856Y6513410D02*
X66584285Y6513410D01*
X66584285Y6513410D02*
X66693142Y6477124D01*
X67346285Y6259410D02*
X67346285Y5751410D01*
X67019713Y6259410D02*
X67019713Y5860267D01*
X67019713Y5860267D02*
X67055999Y5787695D01*
X67055999Y5787695D02*
X67128570Y5751410D01*
X67128570Y5751410D02*
X67237427Y5751410D01*
X67237427Y5751410D02*
X67309999Y5787695D01*
X67309999Y5787695D02*
X67346285Y5823981D01*
X67709142Y6259410D02*
X67709142Y5497410D01*
X67709142Y6223124D02*
X67781714Y6259410D01*
X67781714Y6259410D02*
X67926856Y6259410D01*
X67926856Y6259410D02*
X67999428Y6223124D01*
X67999428Y6223124D02*
X68035714Y6186838D01*
X68035714Y6186838D02*
X68071999Y6114267D01*
X68071999Y6114267D02*
X68071999Y5896553D01*
X68071999Y5896553D02*
X68035714Y5823981D01*
X68035714Y5823981D02*
X67999428Y5787695D01*
X67999428Y5787695D02*
X67926856Y5751410D01*
X67926856Y5751410D02*
X67781714Y5751410D01*
X67781714Y5751410D02*
X67709142Y5787695D01*
X68398571Y6259410D02*
X68398571Y5497410D01*
X68398571Y6223124D02*
X68471143Y6259410D01*
X68471143Y6259410D02*
X68616285Y6259410D01*
X68616285Y6259410D02*
X68688857Y6223124D01*
X68688857Y6223124D02*
X68725143Y6186838D01*
X68725143Y6186838D02*
X68761428Y6114267D01*
X68761428Y6114267D02*
X68761428Y5896553D01*
X68761428Y5896553D02*
X68725143Y5823981D01*
X68725143Y5823981D02*
X68688857Y5787695D01*
X68688857Y5787695D02*
X68616285Y5751410D01*
X68616285Y5751410D02*
X68471143Y5751410D01*
X68471143Y5751410D02*
X68398571Y5787695D01*
X69196857Y5751410D02*
X69124286Y5787695D01*
X69124286Y5787695D02*
X69088000Y5860267D01*
X69088000Y5860267D02*
X69088000Y6513410D01*
X69414572Y6259410D02*
X69596000Y5751410D01*
X69777429Y6259410D02*
X69596000Y5751410D01*
X69596000Y5751410D02*
X69523429Y5569981D01*
X69523429Y5569981D02*
X69487143Y5533695D01*
X69487143Y5533695D02*
X69414572Y5497410D01*
X4263570Y39279410D02*
X4263570Y40041410D01*
X4263570Y40041410D02*
X4698999Y39279410D01*
X4698999Y39279410D02*
X4698999Y40041410D01*
X5352142Y39315695D02*
X5279570Y39279410D01*
X5279570Y39279410D02*
X5134428Y39279410D01*
X5134428Y39279410D02*
X5061856Y39315695D01*
X5061856Y39315695D02*
X5025570Y39388267D01*
X5025570Y39388267D02*
X5025570Y39678553D01*
X5025570Y39678553D02*
X5061856Y39751124D01*
X5061856Y39751124D02*
X5134428Y39787410D01*
X5134428Y39787410D02*
X5279570Y39787410D01*
X5279570Y39787410D02*
X5352142Y39751124D01*
X5352142Y39751124D02*
X5388428Y39678553D01*
X5388428Y39678553D02*
X5388428Y39605981D01*
X5388428Y39605981D02*
X5025570Y39533410D01*
X6041571Y39787410D02*
X6041571Y39170553D01*
X6041571Y39170553D02*
X6005285Y39097981D01*
X6005285Y39097981D02*
X5968999Y39061695D01*
X5968999Y39061695D02*
X5896428Y39025410D01*
X5896428Y39025410D02*
X5787571Y39025410D01*
X5787571Y39025410D02*
X5714999Y39061695D01*
X6041571Y39315695D02*
X5968999Y39279410D01*
X5968999Y39279410D02*
X5823856Y39279410D01*
X5823856Y39279410D02*
X5751285Y39315695D01*
X5751285Y39315695D02*
X5714999Y39351981D01*
X5714999Y39351981D02*
X5678713Y39424553D01*
X5678713Y39424553D02*
X5678713Y39642267D01*
X5678713Y39642267D02*
X5714999Y39714838D01*
X5714999Y39714838D02*
X5751285Y39751124D01*
X5751285Y39751124D02*
X5823856Y39787410D01*
X5823856Y39787410D02*
X5968999Y39787410D01*
X5968999Y39787410D02*
X6041571Y39751124D01*
X6731000Y39279410D02*
X6731000Y39678553D01*
X6731000Y39678553D02*
X6694714Y39751124D01*
X6694714Y39751124D02*
X6622142Y39787410D01*
X6622142Y39787410D02*
X6477000Y39787410D01*
X6477000Y39787410D02*
X6404428Y39751124D01*
X6731000Y39315695D02*
X6658428Y39279410D01*
X6658428Y39279410D02*
X6477000Y39279410D01*
X6477000Y39279410D02*
X6404428Y39315695D01*
X6404428Y39315695D02*
X6368142Y39388267D01*
X6368142Y39388267D02*
X6368142Y39460838D01*
X6368142Y39460838D02*
X6404428Y39533410D01*
X6404428Y39533410D02*
X6477000Y39569695D01*
X6477000Y39569695D02*
X6658428Y39569695D01*
X6658428Y39569695D02*
X6731000Y39605981D01*
X6985000Y39787410D02*
X7275286Y39787410D01*
X7093857Y40041410D02*
X7093857Y39388267D01*
X7093857Y39388267D02*
X7130143Y39315695D01*
X7130143Y39315695D02*
X7202714Y39279410D01*
X7202714Y39279410D02*
X7275286Y39279410D01*
X7529286Y39279410D02*
X7529286Y39787410D01*
X7529286Y40041410D02*
X7493000Y40005124D01*
X7493000Y40005124D02*
X7529286Y39968838D01*
X7529286Y39968838D02*
X7565572Y40005124D01*
X7565572Y40005124D02*
X7529286Y40041410D01*
X7529286Y40041410D02*
X7529286Y39968838D01*
X7819572Y39787410D02*
X8001000Y39279410D01*
X8001000Y39279410D02*
X8182429Y39787410D01*
X8763000Y39315695D02*
X8690428Y39279410D01*
X8690428Y39279410D02*
X8545286Y39279410D01*
X8545286Y39279410D02*
X8472714Y39315695D01*
X8472714Y39315695D02*
X8436428Y39388267D01*
X8436428Y39388267D02*
X8436428Y39678553D01*
X8436428Y39678553D02*
X8472714Y39751124D01*
X8472714Y39751124D02*
X8545286Y39787410D01*
X8545286Y39787410D02*
X8690428Y39787410D01*
X8690428Y39787410D02*
X8763000Y39751124D01*
X8763000Y39751124D02*
X8799286Y39678553D01*
X8799286Y39678553D02*
X8799286Y39605981D01*
X8799286Y39605981D02*
X8436428Y39533410D01*
X9706428Y39279410D02*
X9706428Y40041410D01*
X9706428Y40041410D02*
X9996714Y40041410D01*
X9996714Y40041410D02*
X10069285Y40005124D01*
X10069285Y40005124D02*
X10105571Y39968838D01*
X10105571Y39968838D02*
X10141857Y39896267D01*
X10141857Y39896267D02*
X10141857Y39787410D01*
X10141857Y39787410D02*
X10105571Y39714838D01*
X10105571Y39714838D02*
X10069285Y39678553D01*
X10069285Y39678553D02*
X9996714Y39642267D01*
X9996714Y39642267D02*
X9706428Y39642267D01*
X10468428Y39279410D02*
X10468428Y39787410D01*
X10468428Y39642267D02*
X10504714Y39714838D01*
X10504714Y39714838D02*
X10541000Y39751124D01*
X10541000Y39751124D02*
X10613571Y39787410D01*
X10613571Y39787410D02*
X10686142Y39787410D01*
X11048999Y39279410D02*
X10976428Y39315695D01*
X10976428Y39315695D02*
X10940142Y39351981D01*
X10940142Y39351981D02*
X10903856Y39424553D01*
X10903856Y39424553D02*
X10903856Y39642267D01*
X10903856Y39642267D02*
X10940142Y39714838D01*
X10940142Y39714838D02*
X10976428Y39751124D01*
X10976428Y39751124D02*
X11048999Y39787410D01*
X11048999Y39787410D02*
X11157856Y39787410D01*
X11157856Y39787410D02*
X11230428Y39751124D01*
X11230428Y39751124D02*
X11266714Y39714838D01*
X11266714Y39714838D02*
X11302999Y39642267D01*
X11302999Y39642267D02*
X11302999Y39424553D01*
X11302999Y39424553D02*
X11266714Y39351981D01*
X11266714Y39351981D02*
X11230428Y39315695D01*
X11230428Y39315695D02*
X11157856Y39279410D01*
X11157856Y39279410D02*
X11048999Y39279410D01*
X11629571Y39279410D02*
X11629571Y40041410D01*
X11629571Y39751124D02*
X11702143Y39787410D01*
X11702143Y39787410D02*
X11847285Y39787410D01*
X11847285Y39787410D02*
X11919857Y39751124D01*
X11919857Y39751124D02*
X11956143Y39714838D01*
X11956143Y39714838D02*
X11992428Y39642267D01*
X11992428Y39642267D02*
X11992428Y39424553D01*
X11992428Y39424553D02*
X11956143Y39351981D01*
X11956143Y39351981D02*
X11919857Y39315695D01*
X11919857Y39315695D02*
X11847285Y39279410D01*
X11847285Y39279410D02*
X11702143Y39279410D01*
X11702143Y39279410D02*
X11629571Y39315695D01*
X12609286Y39315695D02*
X12536714Y39279410D01*
X12536714Y39279410D02*
X12391572Y39279410D01*
X12391572Y39279410D02*
X12319000Y39315695D01*
X12319000Y39315695D02*
X12282714Y39388267D01*
X12282714Y39388267D02*
X12282714Y39678553D01*
X12282714Y39678553D02*
X12319000Y39751124D01*
X12319000Y39751124D02*
X12391572Y39787410D01*
X12391572Y39787410D02*
X12536714Y39787410D01*
X12536714Y39787410D02*
X12609286Y39751124D01*
X12609286Y39751124D02*
X12645572Y39678553D01*
X12645572Y39678553D02*
X12645572Y39605981D01*
X12645572Y39605981D02*
X12282714Y39533410D01*
X13552714Y39279410D02*
X13552714Y40041410D01*
X13915571Y39787410D02*
X13915571Y39279410D01*
X13915571Y39714838D02*
X13951857Y39751124D01*
X13951857Y39751124D02*
X14024428Y39787410D01*
X14024428Y39787410D02*
X14133285Y39787410D01*
X14133285Y39787410D02*
X14205857Y39751124D01*
X14205857Y39751124D02*
X14242143Y39678553D01*
X14242143Y39678553D02*
X14242143Y39279410D01*
X14605000Y39787410D02*
X14605000Y39025410D01*
X14605000Y39751124D02*
X14677572Y39787410D01*
X14677572Y39787410D02*
X14822714Y39787410D01*
X14822714Y39787410D02*
X14895286Y39751124D01*
X14895286Y39751124D02*
X14931572Y39714838D01*
X14931572Y39714838D02*
X14967857Y39642267D01*
X14967857Y39642267D02*
X14967857Y39424553D01*
X14967857Y39424553D02*
X14931572Y39351981D01*
X14931572Y39351981D02*
X14895286Y39315695D01*
X14895286Y39315695D02*
X14822714Y39279410D01*
X14822714Y39279410D02*
X14677572Y39279410D01*
X14677572Y39279410D02*
X14605000Y39315695D01*
X15621001Y39787410D02*
X15621001Y39279410D01*
X15294429Y39787410D02*
X15294429Y39388267D01*
X15294429Y39388267D02*
X15330715Y39315695D01*
X15330715Y39315695D02*
X15403286Y39279410D01*
X15403286Y39279410D02*
X15512143Y39279410D01*
X15512143Y39279410D02*
X15584715Y39315695D01*
X15584715Y39315695D02*
X15621001Y39351981D01*
X15875001Y39787410D02*
X16165287Y39787410D01*
X15983858Y40041410D02*
X15983858Y39388267D01*
X15983858Y39388267D02*
X16020144Y39315695D01*
X16020144Y39315695D02*
X16092715Y39279410D01*
X16092715Y39279410D02*
X16165287Y39279410D01*
X72825426Y42907981D02*
X72789140Y42871695D01*
X72789140Y42871695D02*
X72680283Y42835410D01*
X72680283Y42835410D02*
X72607711Y42835410D01*
X72607711Y42835410D02*
X72498854Y42871695D01*
X72498854Y42871695D02*
X72426283Y42944267D01*
X72426283Y42944267D02*
X72389997Y43016838D01*
X72389997Y43016838D02*
X72353711Y43161981D01*
X72353711Y43161981D02*
X72353711Y43270838D01*
X72353711Y43270838D02*
X72389997Y43415981D01*
X72389997Y43415981D02*
X72426283Y43488553D01*
X72426283Y43488553D02*
X72498854Y43561124D01*
X72498854Y43561124D02*
X72607711Y43597410D01*
X72607711Y43597410D02*
X72680283Y43597410D01*
X72680283Y43597410D02*
X72789140Y43561124D01*
X72789140Y43561124D02*
X72825426Y43524838D01*
X73260854Y42835410D02*
X73188283Y42871695D01*
X73188283Y42871695D02*
X73151997Y42907981D01*
X73151997Y42907981D02*
X73115711Y42980553D01*
X73115711Y42980553D02*
X73115711Y43198267D01*
X73115711Y43198267D02*
X73151997Y43270838D01*
X73151997Y43270838D02*
X73188283Y43307124D01*
X73188283Y43307124D02*
X73260854Y43343410D01*
X73260854Y43343410D02*
X73369711Y43343410D01*
X73369711Y43343410D02*
X73442283Y43307124D01*
X73442283Y43307124D02*
X73478569Y43270838D01*
X73478569Y43270838D02*
X73514854Y43198267D01*
X73514854Y43198267D02*
X73514854Y42980553D01*
X73514854Y42980553D02*
X73478569Y42907981D01*
X73478569Y42907981D02*
X73442283Y42871695D01*
X73442283Y42871695D02*
X73369711Y42835410D01*
X73369711Y42835410D02*
X73260854Y42835410D01*
X73841426Y43343410D02*
X73841426Y42835410D01*
X73841426Y43270838D02*
X73877712Y43307124D01*
X73877712Y43307124D02*
X73950283Y43343410D01*
X73950283Y43343410D02*
X74059140Y43343410D01*
X74059140Y43343410D02*
X74131712Y43307124D01*
X74131712Y43307124D02*
X74167998Y43234553D01*
X74167998Y43234553D02*
X74167998Y42835410D01*
X74857427Y42835410D02*
X74857427Y43597410D01*
X74857427Y42871695D02*
X74784855Y42835410D01*
X74784855Y42835410D02*
X74639712Y42835410D01*
X74639712Y42835410D02*
X74567141Y42871695D01*
X74567141Y42871695D02*
X74530855Y42907981D01*
X74530855Y42907981D02*
X74494569Y42980553D01*
X74494569Y42980553D02*
X74494569Y43198267D01*
X74494569Y43198267D02*
X74530855Y43270838D01*
X74530855Y43270838D02*
X74567141Y43307124D01*
X74567141Y43307124D02*
X74639712Y43343410D01*
X74639712Y43343410D02*
X74784855Y43343410D01*
X74784855Y43343410D02*
X74857427Y43307124D01*
X75220284Y42835410D02*
X75220284Y43343410D01*
X75220284Y43597410D02*
X75183998Y43561124D01*
X75183998Y43561124D02*
X75220284Y43524838D01*
X75220284Y43524838D02*
X75256570Y43561124D01*
X75256570Y43561124D02*
X75220284Y43597410D01*
X75220284Y43597410D02*
X75220284Y43524838D01*
X75474284Y43343410D02*
X75764570Y43343410D01*
X75583141Y43597410D02*
X75583141Y42944267D01*
X75583141Y42944267D02*
X75619427Y42871695D01*
X75619427Y42871695D02*
X75691998Y42835410D01*
X75691998Y42835410D02*
X75764570Y42835410D01*
X76018570Y42835410D02*
X76018570Y43343410D01*
X76018570Y43597410D02*
X75982284Y43561124D01*
X75982284Y43561124D02*
X76018570Y43524838D01*
X76018570Y43524838D02*
X76054856Y43561124D01*
X76054856Y43561124D02*
X76018570Y43597410D01*
X76018570Y43597410D02*
X76018570Y43524838D01*
X76490284Y42835410D02*
X76417713Y42871695D01*
X76417713Y42871695D02*
X76381427Y42907981D01*
X76381427Y42907981D02*
X76345141Y42980553D01*
X76345141Y42980553D02*
X76345141Y43198267D01*
X76345141Y43198267D02*
X76381427Y43270838D01*
X76381427Y43270838D02*
X76417713Y43307124D01*
X76417713Y43307124D02*
X76490284Y43343410D01*
X76490284Y43343410D02*
X76599141Y43343410D01*
X76599141Y43343410D02*
X76671713Y43307124D01*
X76671713Y43307124D02*
X76707999Y43270838D01*
X76707999Y43270838D02*
X76744284Y43198267D01*
X76744284Y43198267D02*
X76744284Y42980553D01*
X76744284Y42980553D02*
X76707999Y42907981D01*
X76707999Y42907981D02*
X76671713Y42871695D01*
X76671713Y42871695D02*
X76599141Y42835410D01*
X76599141Y42835410D02*
X76490284Y42835410D01*
X77070856Y43343410D02*
X77070856Y42835410D01*
X77070856Y43270838D02*
X77107142Y43307124D01*
X77107142Y43307124D02*
X77179713Y43343410D01*
X77179713Y43343410D02*
X77288570Y43343410D01*
X77288570Y43343410D02*
X77361142Y43307124D01*
X77361142Y43307124D02*
X77397428Y43234553D01*
X77397428Y43234553D02*
X77397428Y42835410D01*
X78050571Y42871695D02*
X77977999Y42835410D01*
X77977999Y42835410D02*
X77832857Y42835410D01*
X77832857Y42835410D02*
X77760285Y42871695D01*
X77760285Y42871695D02*
X77723999Y42944267D01*
X77723999Y42944267D02*
X77723999Y43234553D01*
X77723999Y43234553D02*
X77760285Y43307124D01*
X77760285Y43307124D02*
X77832857Y43343410D01*
X77832857Y43343410D02*
X77977999Y43343410D01*
X77977999Y43343410D02*
X78050571Y43307124D01*
X78050571Y43307124D02*
X78086857Y43234553D01*
X78086857Y43234553D02*
X78086857Y43161981D01*
X78086857Y43161981D02*
X77723999Y43089410D01*
X78740000Y42835410D02*
X78740000Y43597410D01*
X78740000Y42871695D02*
X78667428Y42835410D01*
X78667428Y42835410D02*
X78522285Y42835410D01*
X78522285Y42835410D02*
X78449714Y42871695D01*
X78449714Y42871695D02*
X78413428Y42907981D01*
X78413428Y42907981D02*
X78377142Y42980553D01*
X78377142Y42980553D02*
X78377142Y43198267D01*
X78377142Y43198267D02*
X78413428Y43270838D01*
X78413428Y43270838D02*
X78449714Y43307124D01*
X78449714Y43307124D02*
X78522285Y43343410D01*
X78522285Y43343410D02*
X78667428Y43343410D01*
X78667428Y43343410D02*
X78740000Y43307124D01*
X79828571Y43597410D02*
X79973714Y43597410D01*
X79973714Y43597410D02*
X80046285Y43561124D01*
X80046285Y43561124D02*
X80118857Y43488553D01*
X80118857Y43488553D02*
X80155142Y43343410D01*
X80155142Y43343410D02*
X80155142Y43089410D01*
X80155142Y43089410D02*
X80118857Y42944267D01*
X80118857Y42944267D02*
X80046285Y42871695D01*
X80046285Y42871695D02*
X79973714Y42835410D01*
X79973714Y42835410D02*
X79828571Y42835410D01*
X79828571Y42835410D02*
X79756000Y42871695D01*
X79756000Y42871695D02*
X79683428Y42944267D01*
X79683428Y42944267D02*
X79647142Y43089410D01*
X79647142Y43089410D02*
X79647142Y43343410D01*
X79647142Y43343410D02*
X79683428Y43488553D01*
X79683428Y43488553D02*
X79756000Y43561124D01*
X79756000Y43561124D02*
X79828571Y43597410D01*
X80808286Y43343410D02*
X80808286Y42835410D01*
X80481714Y43343410D02*
X80481714Y42944267D01*
X80481714Y42944267D02*
X80518000Y42871695D01*
X80518000Y42871695D02*
X80590571Y42835410D01*
X80590571Y42835410D02*
X80699428Y42835410D01*
X80699428Y42835410D02*
X80772000Y42871695D01*
X80772000Y42871695D02*
X80808286Y42907981D01*
X81062286Y43343410D02*
X81352572Y43343410D01*
X81171143Y43597410D02*
X81171143Y42944267D01*
X81171143Y42944267D02*
X81207429Y42871695D01*
X81207429Y42871695D02*
X81280000Y42835410D01*
X81280000Y42835410D02*
X81352572Y42835410D01*
X81606572Y43343410D02*
X81606572Y42581410D01*
X81606572Y43307124D02*
X81679144Y43343410D01*
X81679144Y43343410D02*
X81824286Y43343410D01*
X81824286Y43343410D02*
X81896858Y43307124D01*
X81896858Y43307124D02*
X81933144Y43270838D01*
X81933144Y43270838D02*
X81969429Y43198267D01*
X81969429Y43198267D02*
X81969429Y42980553D01*
X81969429Y42980553D02*
X81933144Y42907981D01*
X81933144Y42907981D02*
X81896858Y42871695D01*
X81896858Y42871695D02*
X81824286Y42835410D01*
X81824286Y42835410D02*
X81679144Y42835410D01*
X81679144Y42835410D02*
X81606572Y42871695D01*
X82622573Y43343410D02*
X82622573Y42835410D01*
X82296001Y43343410D02*
X82296001Y42944267D01*
X82296001Y42944267D02*
X82332287Y42871695D01*
X82332287Y42871695D02*
X82404858Y42835410D01*
X82404858Y42835410D02*
X82513715Y42835410D01*
X82513715Y42835410D02*
X82586287Y42871695D01*
X82586287Y42871695D02*
X82622573Y42907981D01*
X82876573Y43343410D02*
X83166859Y43343410D01*
X82985430Y43597410D02*
X82985430Y42944267D01*
X82985430Y42944267D02*
X83021716Y42871695D01*
X83021716Y42871695D02*
X83094287Y42835410D01*
X83094287Y42835410D02*
X83166859Y42835410D01*
X19739428Y6477124D02*
X19666857Y6513410D01*
X19666857Y6513410D02*
X19557999Y6513410D01*
X19557999Y6513410D02*
X19449142Y6477124D01*
X19449142Y6477124D02*
X19376571Y6404553D01*
X19376571Y6404553D02*
X19340285Y6331981D01*
X19340285Y6331981D02*
X19303999Y6186838D01*
X19303999Y6186838D02*
X19303999Y6077981D01*
X19303999Y6077981D02*
X19340285Y5932838D01*
X19340285Y5932838D02*
X19376571Y5860267D01*
X19376571Y5860267D02*
X19449142Y5787695D01*
X19449142Y5787695D02*
X19557999Y5751410D01*
X19557999Y5751410D02*
X19630571Y5751410D01*
X19630571Y5751410D02*
X19739428Y5787695D01*
X19739428Y5787695D02*
X19775714Y5823981D01*
X19775714Y5823981D02*
X19775714Y6077981D01*
X19775714Y6077981D02*
X19630571Y6077981D01*
X20102285Y5751410D02*
X20102285Y6513410D01*
X20102285Y6513410D02*
X20537714Y5751410D01*
X20537714Y5751410D02*
X20537714Y6513410D01*
X20900571Y5751410D02*
X20900571Y6513410D01*
X20900571Y6513410D02*
X21082000Y6513410D01*
X21082000Y6513410D02*
X21190857Y6477124D01*
X21190857Y6477124D02*
X21263428Y6404553D01*
X21263428Y6404553D02*
X21299714Y6331981D01*
X21299714Y6331981D02*
X21336000Y6186838D01*
X21336000Y6186838D02*
X21336000Y6077981D01*
X21336000Y6077981D02*
X21299714Y5932838D01*
X21299714Y5932838D02*
X21263428Y5860267D01*
X21263428Y5860267D02*
X21190857Y5787695D01*
X21190857Y5787695D02*
X21082000Y5751410D01*
X21082000Y5751410D02*
X20900571Y5751410D01*
D10*
X91336779Y28621078D02*
X92098684Y28621078D01*
X91717731Y28240125D02*
X91717731Y29002030D01*
X92622493Y28240125D02*
X92812969Y28240125D01*
X92812969Y28240125D02*
X92908207Y28287744D01*
X92908207Y28287744D02*
X92955826Y28335364D01*
X92955826Y28335364D02*
X93051064Y28478221D01*
X93051064Y28478221D02*
X93098683Y28668697D01*
X93098683Y28668697D02*
X93098683Y29049649D01*
X93098683Y29049649D02*
X93051064Y29144887D01*
X93051064Y29144887D02*
X93003445Y29192506D01*
X93003445Y29192506D02*
X92908207Y29240125D01*
X92908207Y29240125D02*
X92717731Y29240125D01*
X92717731Y29240125D02*
X92622493Y29192506D01*
X92622493Y29192506D02*
X92574874Y29144887D01*
X92574874Y29144887D02*
X92527255Y29049649D01*
X92527255Y29049649D02*
X92527255Y28811554D01*
X92527255Y28811554D02*
X92574874Y28716316D01*
X92574874Y28716316D02*
X92622493Y28668697D01*
X92622493Y28668697D02*
X92717731Y28621078D01*
X92717731Y28621078D02*
X92908207Y28621078D01*
X92908207Y28621078D02*
X93003445Y28668697D01*
X93003445Y28668697D02*
X93051064Y28716316D01*
X93051064Y28716316D02*
X93098683Y28811554D01*
X91860588Y27582562D02*
X91765350Y27630181D01*
X91765350Y27630181D02*
X91622493Y27630181D01*
X91622493Y27630181D02*
X91479636Y27582562D01*
X91479636Y27582562D02*
X91384398Y27487324D01*
X91384398Y27487324D02*
X91336779Y27392086D01*
X91336779Y27392086D02*
X91289160Y27201610D01*
X91289160Y27201610D02*
X91289160Y27058753D01*
X91289160Y27058753D02*
X91336779Y26868277D01*
X91336779Y26868277D02*
X91384398Y26773039D01*
X91384398Y26773039D02*
X91479636Y26677800D01*
X91479636Y26677800D02*
X91622493Y26630181D01*
X91622493Y26630181D02*
X91717731Y26630181D01*
X91717731Y26630181D02*
X91860588Y26677800D01*
X91860588Y26677800D02*
X91908207Y26725420D01*
X91908207Y26725420D02*
X91908207Y27058753D01*
X91908207Y27058753D02*
X91717731Y27058753D01*
X92336779Y26630181D02*
X92336779Y27630181D01*
X92336779Y27630181D02*
X92908207Y26630181D01*
X92908207Y26630181D02*
X92908207Y27630181D01*
X93384398Y26630181D02*
X93384398Y27630181D01*
X93384398Y27630181D02*
X93622493Y27630181D01*
X93622493Y27630181D02*
X93765350Y27582562D01*
X93765350Y27582562D02*
X93860588Y27487324D01*
X93860588Y27487324D02*
X93908207Y27392086D01*
X93908207Y27392086D02*
X93955826Y27201610D01*
X93955826Y27201610D02*
X93955826Y27058753D01*
X93955826Y27058753D02*
X93908207Y26868277D01*
X93908207Y26868277D02*
X93860588Y26773039D01*
X93860588Y26773039D02*
X93765350Y26677800D01*
X93765350Y26677800D02*
X93622493Y26630181D01*
X93622493Y26630181D02*
X93384398Y26630181D01*
X95190476Y24045181D02*
X95190476Y23330896D01*
X95190476Y23330896D02*
X95142857Y23188039D01*
X95142857Y23188039D02*
X95047619Y23092800D01*
X95047619Y23092800D02*
X94904762Y23045181D01*
X94904762Y23045181D02*
X94809524Y23045181D01*
X96190476Y23045181D02*
X95619048Y23045181D01*
X95904762Y23045181D02*
X95904762Y24045181D01*
X95904762Y24045181D02*
X95809524Y23902324D01*
X95809524Y23902324D02*
X95714286Y23807086D01*
X95714286Y23807086D02*
X95619048Y23759467D01*
X97095238Y24045181D02*
X96619048Y24045181D01*
X96619048Y24045181D02*
X96571429Y23568991D01*
X96571429Y23568991D02*
X96619048Y23616610D01*
X96619048Y23616610D02*
X96714286Y23664229D01*
X96714286Y23664229D02*
X96952381Y23664229D01*
X96952381Y23664229D02*
X97047619Y23616610D01*
X97047619Y23616610D02*
X97095238Y23568991D01*
X97095238Y23568991D02*
X97142857Y23473753D01*
X97142857Y23473753D02*
X97142857Y23235658D01*
X97142857Y23235658D02*
X97095238Y23140420D01*
X97095238Y23140420D02*
X97047619Y23092800D01*
X97047619Y23092800D02*
X96952381Y23045181D01*
X96952381Y23045181D02*
X96714286Y23045181D01*
X96714286Y23045181D02*
X96619048Y23092800D01*
X96619048Y23092800D02*
X96571429Y23140420D01*
X65913095Y32930181D02*
X65913095Y32120658D01*
X65913095Y32120658D02*
X65960714Y32025420D01*
X65960714Y32025420D02*
X66008333Y31977800D01*
X66008333Y31977800D02*
X66103571Y31930181D01*
X66103571Y31930181D02*
X66294047Y31930181D01*
X66294047Y31930181D02*
X66389285Y31977800D01*
X66389285Y31977800D02*
X66436904Y32025420D01*
X66436904Y32025420D02*
X66484523Y32120658D01*
X66484523Y32120658D02*
X66484523Y32930181D01*
X66913095Y32834943D02*
X66960714Y32882562D01*
X66960714Y32882562D02*
X67055952Y32930181D01*
X67055952Y32930181D02*
X67294047Y32930181D01*
X67294047Y32930181D02*
X67389285Y32882562D01*
X67389285Y32882562D02*
X67436904Y32834943D01*
X67436904Y32834943D02*
X67484523Y32739705D01*
X67484523Y32739705D02*
X67484523Y32644467D01*
X67484523Y32644467D02*
X67436904Y32501610D01*
X67436904Y32501610D02*
X66865476Y31930181D01*
X66865476Y31930181D02*
X67484523Y31930181D01*
X23975139Y15535839D02*
X23641806Y16012030D01*
X23403711Y15535839D02*
X23403711Y16535839D01*
X23403711Y16535839D02*
X23784663Y16535839D01*
X23784663Y16535839D02*
X23879901Y16488220D01*
X23879901Y16488220D02*
X23927520Y16440601D01*
X23927520Y16440601D02*
X23975139Y16345363D01*
X23975139Y16345363D02*
X23975139Y16202506D01*
X23975139Y16202506D02*
X23927520Y16107268D01*
X23927520Y16107268D02*
X23879901Y16059649D01*
X23879901Y16059649D02*
X23784663Y16012030D01*
X23784663Y16012030D02*
X23403711Y16012030D01*
X24546568Y16107268D02*
X24451330Y16154887D01*
X24451330Y16154887D02*
X24403711Y16202506D01*
X24403711Y16202506D02*
X24356092Y16297744D01*
X24356092Y16297744D02*
X24356092Y16345363D01*
X24356092Y16345363D02*
X24403711Y16440601D01*
X24403711Y16440601D02*
X24451330Y16488220D01*
X24451330Y16488220D02*
X24546568Y16535839D01*
X24546568Y16535839D02*
X24737044Y16535839D01*
X24737044Y16535839D02*
X24832282Y16488220D01*
X24832282Y16488220D02*
X24879901Y16440601D01*
X24879901Y16440601D02*
X24927520Y16345363D01*
X24927520Y16345363D02*
X24927520Y16297744D01*
X24927520Y16297744D02*
X24879901Y16202506D01*
X24879901Y16202506D02*
X24832282Y16154887D01*
X24832282Y16154887D02*
X24737044Y16107268D01*
X24737044Y16107268D02*
X24546568Y16107268D01*
X24546568Y16107268D02*
X24451330Y16059649D01*
X24451330Y16059649D02*
X24403711Y16012030D01*
X24403711Y16012030D02*
X24356092Y15916792D01*
X24356092Y15916792D02*
X24356092Y15726316D01*
X24356092Y15726316D02*
X24403711Y15631078D01*
X24403711Y15631078D02*
X24451330Y15583458D01*
X24451330Y15583458D02*
X24546568Y15535839D01*
X24546568Y15535839D02*
X24737044Y15535839D01*
X24737044Y15535839D02*
X24832282Y15583458D01*
X24832282Y15583458D02*
X24879901Y15631078D01*
X24879901Y15631078D02*
X24927520Y15726316D01*
X24927520Y15726316D02*
X24927520Y15916792D01*
X24927520Y15916792D02*
X24879901Y16012030D01*
X24879901Y16012030D02*
X24832282Y16059649D01*
X24832282Y16059649D02*
X24737044Y16107268D01*
X46886063Y21003880D02*
X46838444Y20956260D01*
X46838444Y20956260D02*
X46695587Y20908641D01*
X46695587Y20908641D02*
X46600349Y20908641D01*
X46600349Y20908641D02*
X46457492Y20956260D01*
X46457492Y20956260D02*
X46362254Y21051499D01*
X46362254Y21051499D02*
X46314635Y21146737D01*
X46314635Y21146737D02*
X46267016Y21337213D01*
X46267016Y21337213D02*
X46267016Y21480070D01*
X46267016Y21480070D02*
X46314635Y21670546D01*
X46314635Y21670546D02*
X46362254Y21765784D01*
X46362254Y21765784D02*
X46457492Y21861022D01*
X46457492Y21861022D02*
X46600349Y21908641D01*
X46600349Y21908641D02*
X46695587Y21908641D01*
X46695587Y21908641D02*
X46838444Y21861022D01*
X46838444Y21861022D02*
X46886063Y21813403D01*
X47790825Y21908641D02*
X47314635Y21908641D01*
X47314635Y21908641D02*
X47267016Y21432451D01*
X47267016Y21432451D02*
X47314635Y21480070D01*
X47314635Y21480070D02*
X47409873Y21527689D01*
X47409873Y21527689D02*
X47647968Y21527689D01*
X47647968Y21527689D02*
X47743206Y21480070D01*
X47743206Y21480070D02*
X47790825Y21432451D01*
X47790825Y21432451D02*
X47838444Y21337213D01*
X47838444Y21337213D02*
X47838444Y21099118D01*
X47838444Y21099118D02*
X47790825Y21003880D01*
X47790825Y21003880D02*
X47743206Y20956260D01*
X47743206Y20956260D02*
X47647968Y20908641D01*
X47647968Y20908641D02*
X47409873Y20908641D01*
X47409873Y20908641D02*
X47314635Y20956260D01*
X47314635Y20956260D02*
X47267016Y21003880D01*
D13*
X62502143Y33817089D02*
X62248143Y34179946D01*
X62066714Y33817089D02*
X62066714Y34579089D01*
X62066714Y34579089D02*
X62357000Y34579089D01*
X62357000Y34579089D02*
X62429571Y34542803D01*
X62429571Y34542803D02*
X62465857Y34506517D01*
X62465857Y34506517D02*
X62502143Y34433946D01*
X62502143Y34433946D02*
X62502143Y34325089D01*
X62502143Y34325089D02*
X62465857Y34252517D01*
X62465857Y34252517D02*
X62429571Y34216232D01*
X62429571Y34216232D02*
X62357000Y34179946D01*
X62357000Y34179946D02*
X62066714Y34179946D01*
X63227857Y33817089D02*
X62792428Y33817089D01*
X63010143Y33817089D02*
X63010143Y34579089D01*
X63010143Y34579089D02*
X62937571Y34470232D01*
X62937571Y34470232D02*
X62865000Y34397660D01*
X62865000Y34397660D02*
X62792428Y34361374D01*
X63917285Y34579089D02*
X63554428Y34579089D01*
X63554428Y34579089D02*
X63518142Y34216232D01*
X63518142Y34216232D02*
X63554428Y34252517D01*
X63554428Y34252517D02*
X63627000Y34288803D01*
X63627000Y34288803D02*
X63808428Y34288803D01*
X63808428Y34288803D02*
X63881000Y34252517D01*
X63881000Y34252517D02*
X63917285Y34216232D01*
X63917285Y34216232D02*
X63953571Y34143660D01*
X63953571Y34143660D02*
X63953571Y33962232D01*
X63953571Y33962232D02*
X63917285Y33889660D01*
X63917285Y33889660D02*
X63881000Y33853374D01*
X63881000Y33853374D02*
X63808428Y33817089D01*
X63808428Y33817089D02*
X63627000Y33817089D01*
X63627000Y33817089D02*
X63554428Y33853374D01*
X63554428Y33853374D02*
X63518142Y33889660D01*
D10*
X51427142Y47170181D02*
X51093809Y47646372D01*
X50855714Y47170181D02*
X50855714Y48170181D01*
X50855714Y48170181D02*
X51236666Y48170181D01*
X51236666Y48170181D02*
X51331904Y48122562D01*
X51331904Y48122562D02*
X51379523Y48074943D01*
X51379523Y48074943D02*
X51427142Y47979705D01*
X51427142Y47979705D02*
X51427142Y47836848D01*
X51427142Y47836848D02*
X51379523Y47741610D01*
X51379523Y47741610D02*
X51331904Y47693991D01*
X51331904Y47693991D02*
X51236666Y47646372D01*
X51236666Y47646372D02*
X50855714Y47646372D01*
X52379523Y47170181D02*
X51808095Y47170181D01*
X52093809Y47170181D02*
X52093809Y48170181D01*
X52093809Y48170181D02*
X51998571Y48027324D01*
X51998571Y48027324D02*
X51903333Y47932086D01*
X51903333Y47932086D02*
X51808095Y47884467D01*
X53236666Y48170181D02*
X53046190Y48170181D01*
X53046190Y48170181D02*
X52950952Y48122562D01*
X52950952Y48122562D02*
X52903333Y48074943D01*
X52903333Y48074943D02*
X52808095Y47932086D01*
X52808095Y47932086D02*
X52760476Y47741610D01*
X52760476Y47741610D02*
X52760476Y47360658D01*
X52760476Y47360658D02*
X52808095Y47265420D01*
X52808095Y47265420D02*
X52855714Y47217800D01*
X52855714Y47217800D02*
X52950952Y47170181D01*
X52950952Y47170181D02*
X53141428Y47170181D01*
X53141428Y47170181D02*
X53236666Y47217800D01*
X53236666Y47217800D02*
X53284285Y47265420D01*
X53284285Y47265420D02*
X53331904Y47360658D01*
X53331904Y47360658D02*
X53331904Y47598753D01*
X53331904Y47598753D02*
X53284285Y47693991D01*
X53284285Y47693991D02*
X53236666Y47741610D01*
X53236666Y47741610D02*
X53141428Y47789229D01*
X53141428Y47789229D02*
X52950952Y47789229D01*
X52950952Y47789229D02*
X52855714Y47741610D01*
X52855714Y47741610D02*
X52808095Y47693991D01*
X52808095Y47693991D02*
X52760476Y47598753D01*
X3937095Y8571181D02*
X3937095Y9571181D01*
X3937095Y9094991D02*
X4508523Y9094991D01*
X4508523Y8571181D02*
X4508523Y9571181D01*
X5508523Y8571181D02*
X4937095Y8571181D01*
X5222809Y8571181D02*
X5222809Y9571181D01*
X5222809Y9571181D02*
X5127571Y9428324D01*
X5127571Y9428324D02*
X5032333Y9333086D01*
X5032333Y9333086D02*
X4937095Y9285467D01*
X76462286Y2069181D02*
X77033714Y2069181D01*
X76748000Y1069181D02*
X76748000Y2069181D01*
X77367048Y1069181D02*
X77367048Y2069181D01*
X77367048Y2069181D02*
X77748000Y2069181D01*
X77748000Y2069181D02*
X77843238Y2021562D01*
X77843238Y2021562D02*
X77890857Y1973943D01*
X77890857Y1973943D02*
X77938476Y1878705D01*
X77938476Y1878705D02*
X77938476Y1735848D01*
X77938476Y1735848D02*
X77890857Y1640610D01*
X77890857Y1640610D02*
X77843238Y1592991D01*
X77843238Y1592991D02*
X77748000Y1545372D01*
X77748000Y1545372D02*
X77367048Y1545372D01*
X78890857Y2021562D02*
X78795619Y2069181D01*
X78795619Y2069181D02*
X78652762Y2069181D01*
X78652762Y2069181D02*
X78509905Y2021562D01*
X78509905Y2021562D02*
X78414667Y1926324D01*
X78414667Y1926324D02*
X78367048Y1831086D01*
X78367048Y1831086D02*
X78319429Y1640610D01*
X78319429Y1640610D02*
X78319429Y1497753D01*
X78319429Y1497753D02*
X78367048Y1307277D01*
X78367048Y1307277D02*
X78414667Y1212039D01*
X78414667Y1212039D02*
X78509905Y1116800D01*
X78509905Y1116800D02*
X78652762Y1069181D01*
X78652762Y1069181D02*
X78748000Y1069181D01*
X78748000Y1069181D02*
X78890857Y1116800D01*
X78890857Y1116800D02*
X78938476Y1164420D01*
X78938476Y1164420D02*
X78938476Y1497753D01*
X78938476Y1497753D02*
X78748000Y1497753D01*
X79367048Y1069181D02*
X79367048Y2069181D01*
X79367048Y2069181D02*
X79938476Y1069181D01*
X79938476Y1069181D02*
X79938476Y2069181D01*
X80414667Y1069181D02*
X80414667Y2069181D01*
X80414667Y2069181D02*
X80652762Y2069181D01*
X80652762Y2069181D02*
X80795619Y2021562D01*
X80795619Y2021562D02*
X80890857Y1926324D01*
X80890857Y1926324D02*
X80938476Y1831086D01*
X80938476Y1831086D02*
X80986095Y1640610D01*
X80986095Y1640610D02*
X80986095Y1497753D01*
X80986095Y1497753D02*
X80938476Y1307277D01*
X80938476Y1307277D02*
X80890857Y1212039D01*
X80890857Y1212039D02*
X80795619Y1116800D01*
X80795619Y1116800D02*
X80652762Y1069181D01*
X80652762Y1069181D02*
X80414667Y1069181D01*
X81938476Y1069181D02*
X81367048Y1069181D01*
X81652762Y1069181D02*
X81652762Y2069181D01*
X81652762Y2069181D02*
X81557524Y1926324D01*
X81557524Y1926324D02*
X81462286Y1831086D01*
X81462286Y1831086D02*
X81367048Y1783467D01*
X68953142Y18944420D02*
X68905523Y18896800D01*
X68905523Y18896800D02*
X68762666Y18849181D01*
X68762666Y18849181D02*
X68667428Y18849181D01*
X68667428Y18849181D02*
X68524571Y18896800D01*
X68524571Y18896800D02*
X68429333Y18992039D01*
X68429333Y18992039D02*
X68381714Y19087277D01*
X68381714Y19087277D02*
X68334095Y19277753D01*
X68334095Y19277753D02*
X68334095Y19420610D01*
X68334095Y19420610D02*
X68381714Y19611086D01*
X68381714Y19611086D02*
X68429333Y19706324D01*
X68429333Y19706324D02*
X68524571Y19801562D01*
X68524571Y19801562D02*
X68667428Y19849181D01*
X68667428Y19849181D02*
X68762666Y19849181D01*
X68762666Y19849181D02*
X68905523Y19801562D01*
X68905523Y19801562D02*
X68953142Y19753943D01*
X69905523Y18849181D02*
X69334095Y18849181D01*
X69619809Y18849181D02*
X69619809Y19849181D01*
X69619809Y19849181D02*
X69524571Y19706324D01*
X69524571Y19706324D02*
X69429333Y19611086D01*
X69429333Y19611086D02*
X69334095Y19563467D01*
X70857904Y18849181D02*
X70286476Y18849181D01*
X70572190Y18849181D02*
X70572190Y19849181D01*
X70572190Y19849181D02*
X70476952Y19706324D01*
X70476952Y19706324D02*
X70381714Y19611086D01*
X70381714Y19611086D02*
X70286476Y19563467D01*
X84116666Y43090181D02*
X84116666Y42375896D01*
X84116666Y42375896D02*
X84069047Y42233039D01*
X84069047Y42233039D02*
X83973809Y42137800D01*
X83973809Y42137800D02*
X83830952Y42090181D01*
X83830952Y42090181D02*
X83735714Y42090181D01*
X85021428Y43090181D02*
X84830952Y43090181D01*
X84830952Y43090181D02*
X84735714Y43042562D01*
X84735714Y43042562D02*
X84688095Y42994943D01*
X84688095Y42994943D02*
X84592857Y42852086D01*
X84592857Y42852086D02*
X84545238Y42661610D01*
X84545238Y42661610D02*
X84545238Y42280658D01*
X84545238Y42280658D02*
X84592857Y42185420D01*
X84592857Y42185420D02*
X84640476Y42137800D01*
X84640476Y42137800D02*
X84735714Y42090181D01*
X84735714Y42090181D02*
X84926190Y42090181D01*
X84926190Y42090181D02*
X85021428Y42137800D01*
X85021428Y42137800D02*
X85069047Y42185420D01*
X85069047Y42185420D02*
X85116666Y42280658D01*
X85116666Y42280658D02*
X85116666Y42518753D01*
X85116666Y42518753D02*
X85069047Y42613991D01*
X85069047Y42613991D02*
X85021428Y42661610D01*
X85021428Y42661610D02*
X84926190Y42709229D01*
X84926190Y42709229D02*
X84735714Y42709229D01*
X84735714Y42709229D02*
X84640476Y42661610D01*
X84640476Y42661610D02*
X84592857Y42613991D01*
X84592857Y42613991D02*
X84545238Y42518753D01*
X89789095Y47551181D02*
X89789095Y48551181D01*
X89789095Y48074991D02*
X90360523Y48074991D01*
X90360523Y47551181D02*
X90360523Y48551181D01*
X90741476Y48551181D02*
X91360523Y48551181D01*
X91360523Y48551181D02*
X91027190Y48170229D01*
X91027190Y48170229D02*
X91170047Y48170229D01*
X91170047Y48170229D02*
X91265285Y48122610D01*
X91265285Y48122610D02*
X91312904Y48074991D01*
X91312904Y48074991D02*
X91360523Y47979753D01*
X91360523Y47979753D02*
X91360523Y47741658D01*
X91360523Y47741658D02*
X91312904Y47646420D01*
X91312904Y47646420D02*
X91265285Y47598800D01*
X91265285Y47598800D02*
X91170047Y47551181D01*
X91170047Y47551181D02*
X90884333Y47551181D01*
X90884333Y47551181D02*
X90789095Y47598800D01*
X90789095Y47598800D02*
X90741476Y47646420D01*
X88090476Y20645181D02*
X88090476Y19930896D01*
X88090476Y19930896D02*
X88042857Y19788039D01*
X88042857Y19788039D02*
X87947619Y19692800D01*
X87947619Y19692800D02*
X87804762Y19645181D01*
X87804762Y19645181D02*
X87709524Y19645181D01*
X89090476Y19645181D02*
X88519048Y19645181D01*
X88804762Y19645181D02*
X88804762Y20645181D01*
X88804762Y20645181D02*
X88709524Y20502324D01*
X88709524Y20502324D02*
X88614286Y20407086D01*
X88614286Y20407086D02*
X88519048Y20359467D01*
X89947619Y20311848D02*
X89947619Y19645181D01*
X89709524Y20692800D02*
X89471429Y19978515D01*
X89471429Y19978515D02*
X90090476Y19978515D01*
X714667Y34833181D02*
X1286095Y34833181D01*
X1000381Y33833181D02*
X1000381Y34833181D01*
X1619429Y33833181D02*
X1619429Y34833181D01*
X1619429Y34833181D02*
X2000381Y34833181D01*
X2000381Y34833181D02*
X2095619Y34785562D01*
X2095619Y34785562D02*
X2143238Y34737943D01*
X2143238Y34737943D02*
X2190857Y34642705D01*
X2190857Y34642705D02*
X2190857Y34499848D01*
X2190857Y34499848D02*
X2143238Y34404610D01*
X2143238Y34404610D02*
X2095619Y34356991D01*
X2095619Y34356991D02*
X2000381Y34309372D01*
X2000381Y34309372D02*
X1619429Y34309372D01*
X2619429Y34356991D02*
X2952762Y34356991D01*
X3095619Y33833181D02*
X2619429Y33833181D01*
X2619429Y33833181D02*
X2619429Y34833181D01*
X2619429Y34833181D02*
X3095619Y34833181D01*
X3524191Y34214134D02*
X4286096Y34214134D01*
X5286095Y33833181D02*
X4714667Y33833181D01*
X5000381Y33833181D02*
X5000381Y34833181D01*
X5000381Y34833181D02*
X4905143Y34690324D01*
X4905143Y34690324D02*
X4809905Y34595086D01*
X4809905Y34595086D02*
X4714667Y34547467D01*
X50357142Y26088181D02*
X50023809Y26564372D01*
X49785714Y26088181D02*
X49785714Y27088181D01*
X49785714Y27088181D02*
X50166666Y27088181D01*
X50166666Y27088181D02*
X50261904Y27040562D01*
X50261904Y27040562D02*
X50309523Y26992943D01*
X50309523Y26992943D02*
X50357142Y26897705D01*
X50357142Y26897705D02*
X50357142Y26754848D01*
X50357142Y26754848D02*
X50309523Y26659610D01*
X50309523Y26659610D02*
X50261904Y26611991D01*
X50261904Y26611991D02*
X50166666Y26564372D01*
X50166666Y26564372D02*
X49785714Y26564372D01*
X51309523Y26088181D02*
X50738095Y26088181D01*
X51023809Y26088181D02*
X51023809Y27088181D01*
X51023809Y27088181D02*
X50928571Y26945324D01*
X50928571Y26945324D02*
X50833333Y26850086D01*
X50833333Y26850086D02*
X50738095Y26802467D01*
X51642857Y27088181D02*
X52261904Y27088181D01*
X52261904Y27088181D02*
X51928571Y26707229D01*
X51928571Y26707229D02*
X52071428Y26707229D01*
X52071428Y26707229D02*
X52166666Y26659610D01*
X52166666Y26659610D02*
X52214285Y26611991D01*
X52214285Y26611991D02*
X52261904Y26516753D01*
X52261904Y26516753D02*
X52261904Y26278658D01*
X52261904Y26278658D02*
X52214285Y26183420D01*
X52214285Y26183420D02*
X52166666Y26135800D01*
X52166666Y26135800D02*
X52071428Y26088181D01*
X52071428Y26088181D02*
X51785714Y26088181D01*
X51785714Y26088181D02*
X51690476Y26135800D01*
X51690476Y26135800D02*
X51642857Y26183420D01*
X8001095Y47551181D02*
X8001095Y48551181D01*
X8001095Y48074991D02*
X8572523Y48074991D01*
X8572523Y47551181D02*
X8572523Y48551181D01*
X9001095Y48455943D02*
X9048714Y48503562D01*
X9048714Y48503562D02*
X9143952Y48551181D01*
X9143952Y48551181D02*
X9382047Y48551181D01*
X9382047Y48551181D02*
X9477285Y48503562D01*
X9477285Y48503562D02*
X9524904Y48455943D01*
X9524904Y48455943D02*
X9572523Y48360705D01*
X9572523Y48360705D02*
X9572523Y48265467D01*
X9572523Y48265467D02*
X9524904Y48122610D01*
X9524904Y48122610D02*
X8953476Y47551181D01*
X8953476Y47551181D02*
X9572523Y47551181D01*
D13*
X56406143Y35214089D02*
X56152143Y35576946D01*
X55970714Y35214089D02*
X55970714Y35976089D01*
X55970714Y35976089D02*
X56261000Y35976089D01*
X56261000Y35976089D02*
X56333571Y35939803D01*
X56333571Y35939803D02*
X56369857Y35903517D01*
X56369857Y35903517D02*
X56406143Y35830946D01*
X56406143Y35830946D02*
X56406143Y35722089D01*
X56406143Y35722089D02*
X56369857Y35649517D01*
X56369857Y35649517D02*
X56333571Y35613232D01*
X56333571Y35613232D02*
X56261000Y35576946D01*
X56261000Y35576946D02*
X55970714Y35576946D01*
X57131857Y35214089D02*
X56696428Y35214089D01*
X56914143Y35214089D02*
X56914143Y35976089D01*
X56914143Y35976089D02*
X56841571Y35867232D01*
X56841571Y35867232D02*
X56769000Y35794660D01*
X56769000Y35794660D02*
X56696428Y35758374D01*
X57785000Y35722089D02*
X57785000Y35214089D01*
X57603571Y36012374D02*
X57422142Y35468089D01*
X57422142Y35468089D02*
X57893857Y35468089D01*
D10*
X51057734Y35327421D02*
X51010115Y35279801D01*
X51010115Y35279801D02*
X50867258Y35232182D01*
X50867258Y35232182D02*
X50772020Y35232182D01*
X50772020Y35232182D02*
X50629163Y35279801D01*
X50629163Y35279801D02*
X50533925Y35375040D01*
X50533925Y35375040D02*
X50486306Y35470278D01*
X50486306Y35470278D02*
X50438687Y35660754D01*
X50438687Y35660754D02*
X50438687Y35803611D01*
X50438687Y35803611D02*
X50486306Y35994087D01*
X50486306Y35994087D02*
X50533925Y36089325D01*
X50533925Y36089325D02*
X50629163Y36184563D01*
X50629163Y36184563D02*
X50772020Y36232182D01*
X50772020Y36232182D02*
X50867258Y36232182D01*
X50867258Y36232182D02*
X51010115Y36184563D01*
X51010115Y36184563D02*
X51057734Y36136944D01*
X51629163Y35803611D02*
X51533925Y35851230D01*
X51533925Y35851230D02*
X51486306Y35898849D01*
X51486306Y35898849D02*
X51438687Y35994087D01*
X51438687Y35994087D02*
X51438687Y36041706D01*
X51438687Y36041706D02*
X51486306Y36136944D01*
X51486306Y36136944D02*
X51533925Y36184563D01*
X51533925Y36184563D02*
X51629163Y36232182D01*
X51629163Y36232182D02*
X51819639Y36232182D01*
X51819639Y36232182D02*
X51914877Y36184563D01*
X51914877Y36184563D02*
X51962496Y36136944D01*
X51962496Y36136944D02*
X52010115Y36041706D01*
X52010115Y36041706D02*
X52010115Y35994087D01*
X52010115Y35994087D02*
X51962496Y35898849D01*
X51962496Y35898849D02*
X51914877Y35851230D01*
X51914877Y35851230D02*
X51819639Y35803611D01*
X51819639Y35803611D02*
X51629163Y35803611D01*
X51629163Y35803611D02*
X51533925Y35755992D01*
X51533925Y35755992D02*
X51486306Y35708373D01*
X51486306Y35708373D02*
X51438687Y35613135D01*
X51438687Y35613135D02*
X51438687Y35422659D01*
X51438687Y35422659D02*
X51486306Y35327421D01*
X51486306Y35327421D02*
X51533925Y35279801D01*
X51533925Y35279801D02*
X51629163Y35232182D01*
X51629163Y35232182D02*
X51819639Y35232182D01*
X51819639Y35232182D02*
X51914877Y35279801D01*
X51914877Y35279801D02*
X51962496Y35327421D01*
X51962496Y35327421D02*
X52010115Y35422659D01*
X52010115Y35422659D02*
X52010115Y35613135D01*
X52010115Y35613135D02*
X51962496Y35708373D01*
X51962496Y35708373D02*
X51914877Y35755992D01*
X51914877Y35755992D02*
X51819639Y35803611D01*
X59356666Y9435181D02*
X59356666Y8720896D01*
X59356666Y8720896D02*
X59309047Y8578039D01*
X59309047Y8578039D02*
X59213809Y8482800D01*
X59213809Y8482800D02*
X59070952Y8435181D01*
X59070952Y8435181D02*
X58975714Y8435181D01*
X59975714Y9006610D02*
X59880476Y9054229D01*
X59880476Y9054229D02*
X59832857Y9101848D01*
X59832857Y9101848D02*
X59785238Y9197086D01*
X59785238Y9197086D02*
X59785238Y9244705D01*
X59785238Y9244705D02*
X59832857Y9339943D01*
X59832857Y9339943D02*
X59880476Y9387562D01*
X59880476Y9387562D02*
X59975714Y9435181D01*
X59975714Y9435181D02*
X60166190Y9435181D01*
X60166190Y9435181D02*
X60261428Y9387562D01*
X60261428Y9387562D02*
X60309047Y9339943D01*
X60309047Y9339943D02*
X60356666Y9244705D01*
X60356666Y9244705D02*
X60356666Y9197086D01*
X60356666Y9197086D02*
X60309047Y9101848D01*
X60309047Y9101848D02*
X60261428Y9054229D01*
X60261428Y9054229D02*
X60166190Y9006610D01*
X60166190Y9006610D02*
X59975714Y9006610D01*
X59975714Y9006610D02*
X59880476Y8958991D01*
X59880476Y8958991D02*
X59832857Y8911372D01*
X59832857Y8911372D02*
X59785238Y8816134D01*
X59785238Y8816134D02*
X59785238Y8625658D01*
X59785238Y8625658D02*
X59832857Y8530420D01*
X59832857Y8530420D02*
X59880476Y8482800D01*
X59880476Y8482800D02*
X59975714Y8435181D01*
X59975714Y8435181D02*
X60166190Y8435181D01*
X60166190Y8435181D02*
X60261428Y8482800D01*
X60261428Y8482800D02*
X60309047Y8530420D01*
X60309047Y8530420D02*
X60356666Y8625658D01*
X60356666Y8625658D02*
X60356666Y8816134D01*
X60356666Y8816134D02*
X60309047Y8911372D01*
X60309047Y8911372D02*
X60261428Y8958991D01*
X60261428Y8958991D02*
X60166190Y9006610D01*
X83177142Y24532420D02*
X83129523Y24484800D01*
X83129523Y24484800D02*
X82986666Y24437181D01*
X82986666Y24437181D02*
X82891428Y24437181D01*
X82891428Y24437181D02*
X82748571Y24484800D01*
X82748571Y24484800D02*
X82653333Y24580039D01*
X82653333Y24580039D02*
X82605714Y24675277D01*
X82605714Y24675277D02*
X82558095Y24865753D01*
X82558095Y24865753D02*
X82558095Y25008610D01*
X82558095Y25008610D02*
X82605714Y25199086D01*
X82605714Y25199086D02*
X82653333Y25294324D01*
X82653333Y25294324D02*
X82748571Y25389562D01*
X82748571Y25389562D02*
X82891428Y25437181D01*
X82891428Y25437181D02*
X82986666Y25437181D01*
X82986666Y25437181D02*
X83129523Y25389562D01*
X83129523Y25389562D02*
X83177142Y25341943D01*
X84129523Y24437181D02*
X83558095Y24437181D01*
X83843809Y24437181D02*
X83843809Y25437181D01*
X83843809Y25437181D02*
X83748571Y25294324D01*
X83748571Y25294324D02*
X83653333Y25199086D01*
X83653333Y25199086D02*
X83558095Y25151467D01*
X84462857Y25437181D02*
X85081904Y25437181D01*
X85081904Y25437181D02*
X84748571Y25056229D01*
X84748571Y25056229D02*
X84891428Y25056229D01*
X84891428Y25056229D02*
X84986666Y25008610D01*
X84986666Y25008610D02*
X85034285Y24960991D01*
X85034285Y24960991D02*
X85081904Y24865753D01*
X85081904Y24865753D02*
X85081904Y24627658D01*
X85081904Y24627658D02*
X85034285Y24532420D01*
X85034285Y24532420D02*
X84986666Y24484800D01*
X84986666Y24484800D02*
X84891428Y24437181D01*
X84891428Y24437181D02*
X84605714Y24437181D01*
X84605714Y24437181D02*
X84510476Y24484800D01*
X84510476Y24484800D02*
X84462857Y24532420D01*
X30973095Y32710181D02*
X30973095Y31900658D01*
X30973095Y31900658D02*
X31020714Y31805420D01*
X31020714Y31805420D02*
X31068333Y31757800D01*
X31068333Y31757800D02*
X31163571Y31710181D01*
X31163571Y31710181D02*
X31354047Y31710181D01*
X31354047Y31710181D02*
X31449285Y31757800D01*
X31449285Y31757800D02*
X31496904Y31805420D01*
X31496904Y31805420D02*
X31544523Y31900658D01*
X31544523Y31900658D02*
X31544523Y32710181D01*
X32544523Y31710181D02*
X31973095Y31710181D01*
X32258809Y31710181D02*
X32258809Y32710181D01*
X32258809Y32710181D02*
X32163571Y32567324D01*
X32163571Y32567324D02*
X32068333Y32472086D01*
X32068333Y32472086D02*
X31973095Y32424467D01*
X78914666Y32598181D02*
X78914666Y31883896D01*
X78914666Y31883896D02*
X78867047Y31741039D01*
X78867047Y31741039D02*
X78771809Y31645800D01*
X78771809Y31645800D02*
X78628952Y31598181D01*
X78628952Y31598181D02*
X78533714Y31598181D01*
X79819428Y32264848D02*
X79819428Y31598181D01*
X79581333Y32645800D02*
X79343238Y31931515D01*
X79343238Y31931515D02*
X79962285Y31931515D01*
X53357142Y29517181D02*
X53023809Y29993372D01*
X52785714Y29517181D02*
X52785714Y30517181D01*
X52785714Y30517181D02*
X53166666Y30517181D01*
X53166666Y30517181D02*
X53261904Y30469562D01*
X53261904Y30469562D02*
X53309523Y30421943D01*
X53309523Y30421943D02*
X53357142Y30326705D01*
X53357142Y30326705D02*
X53357142Y30183848D01*
X53357142Y30183848D02*
X53309523Y30088610D01*
X53309523Y30088610D02*
X53261904Y30040991D01*
X53261904Y30040991D02*
X53166666Y29993372D01*
X53166666Y29993372D02*
X52785714Y29993372D01*
X54309523Y29517181D02*
X53738095Y29517181D01*
X54023809Y29517181D02*
X54023809Y30517181D01*
X54023809Y30517181D02*
X53928571Y30374324D01*
X53928571Y30374324D02*
X53833333Y30279086D01*
X53833333Y30279086D02*
X53738095Y30231467D01*
X55261904Y29517181D02*
X54690476Y29517181D01*
X54976190Y29517181D02*
X54976190Y30517181D01*
X54976190Y30517181D02*
X54880952Y30374324D01*
X54880952Y30374324D02*
X54785714Y30279086D01*
X54785714Y30279086D02*
X54690476Y30231467D01*
X30313333Y17420420D02*
X30265714Y17372800D01*
X30265714Y17372800D02*
X30122857Y17325181D01*
X30122857Y17325181D02*
X30027619Y17325181D01*
X30027619Y17325181D02*
X29884762Y17372800D01*
X29884762Y17372800D02*
X29789524Y17468039D01*
X29789524Y17468039D02*
X29741905Y17563277D01*
X29741905Y17563277D02*
X29694286Y17753753D01*
X29694286Y17753753D02*
X29694286Y17896610D01*
X29694286Y17896610D02*
X29741905Y18087086D01*
X29741905Y18087086D02*
X29789524Y18182324D01*
X29789524Y18182324D02*
X29884762Y18277562D01*
X29884762Y18277562D02*
X30027619Y18325181D01*
X30027619Y18325181D02*
X30122857Y18325181D01*
X30122857Y18325181D02*
X30265714Y18277562D01*
X30265714Y18277562D02*
X30313333Y18229943D01*
X31170476Y17991848D02*
X31170476Y17325181D01*
X30932381Y18372800D02*
X30694286Y17658515D01*
X30694286Y17658515D02*
X31313333Y17658515D01*
X70786666Y43090181D02*
X70786666Y42375896D01*
X70786666Y42375896D02*
X70739047Y42233039D01*
X70739047Y42233039D02*
X70643809Y42137800D01*
X70643809Y42137800D02*
X70500952Y42090181D01*
X70500952Y42090181D02*
X70405714Y42090181D01*
X71739047Y43090181D02*
X71262857Y43090181D01*
X71262857Y43090181D02*
X71215238Y42613991D01*
X71215238Y42613991D02*
X71262857Y42661610D01*
X71262857Y42661610D02*
X71358095Y42709229D01*
X71358095Y42709229D02*
X71596190Y42709229D01*
X71596190Y42709229D02*
X71691428Y42661610D01*
X71691428Y42661610D02*
X71739047Y42613991D01*
X71739047Y42613991D02*
X71786666Y42518753D01*
X71786666Y42518753D02*
X71786666Y42280658D01*
X71786666Y42280658D02*
X71739047Y42185420D01*
X71739047Y42185420D02*
X71691428Y42137800D01*
X71691428Y42137800D02*
X71596190Y42090181D01*
X71596190Y42090181D02*
X71358095Y42090181D01*
X71358095Y42090181D02*
X71262857Y42137800D01*
X71262857Y42137800D02*
X71215238Y42185420D01*
X13803333Y23675181D02*
X13470000Y24151372D01*
X13231905Y23675181D02*
X13231905Y24675181D01*
X13231905Y24675181D02*
X13612857Y24675181D01*
X13612857Y24675181D02*
X13708095Y24627562D01*
X13708095Y24627562D02*
X13755714Y24579943D01*
X13755714Y24579943D02*
X13803333Y24484705D01*
X13803333Y24484705D02*
X13803333Y24341848D01*
X13803333Y24341848D02*
X13755714Y24246610D01*
X13755714Y24246610D02*
X13708095Y24198991D01*
X13708095Y24198991D02*
X13612857Y24151372D01*
X13612857Y24151372D02*
X13231905Y24151372D01*
X14755714Y23675181D02*
X14184286Y23675181D01*
X14470000Y23675181D02*
X14470000Y24675181D01*
X14470000Y24675181D02*
X14374762Y24532324D01*
X14374762Y24532324D02*
X14279524Y24437086D01*
X14279524Y24437086D02*
X14184286Y24389467D01*
X94361095Y8571181D02*
X94361095Y9571181D01*
X94361095Y9094991D02*
X94932523Y9094991D01*
X94932523Y8571181D02*
X94932523Y9571181D01*
X95837285Y9237848D02*
X95837285Y8571181D01*
X95599190Y9618800D02*
X95361095Y8904515D01*
X95361095Y8904515D02*
X95980142Y8904515D01*
X38568333Y32025420D02*
X38520714Y31977800D01*
X38520714Y31977800D02*
X38377857Y31930181D01*
X38377857Y31930181D02*
X38282619Y31930181D01*
X38282619Y31930181D02*
X38139762Y31977800D01*
X38139762Y31977800D02*
X38044524Y32073039D01*
X38044524Y32073039D02*
X37996905Y32168277D01*
X37996905Y32168277D02*
X37949286Y32358753D01*
X37949286Y32358753D02*
X37949286Y32501610D01*
X37949286Y32501610D02*
X37996905Y32692086D01*
X37996905Y32692086D02*
X38044524Y32787324D01*
X38044524Y32787324D02*
X38139762Y32882562D01*
X38139762Y32882562D02*
X38282619Y32930181D01*
X38282619Y32930181D02*
X38377857Y32930181D01*
X38377857Y32930181D02*
X38520714Y32882562D01*
X38520714Y32882562D02*
X38568333Y32834943D01*
X38901667Y32930181D02*
X39520714Y32930181D01*
X39520714Y32930181D02*
X39187381Y32549229D01*
X39187381Y32549229D02*
X39330238Y32549229D01*
X39330238Y32549229D02*
X39425476Y32501610D01*
X39425476Y32501610D02*
X39473095Y32453991D01*
X39473095Y32453991D02*
X39520714Y32358753D01*
X39520714Y32358753D02*
X39520714Y32120658D01*
X39520714Y32120658D02*
X39473095Y32025420D01*
X39473095Y32025420D02*
X39425476Y31977800D01*
X39425476Y31977800D02*
X39330238Y31930181D01*
X39330238Y31930181D02*
X39044524Y31930181D01*
X39044524Y31930181D02*
X38949286Y31977800D01*
X38949286Y31977800D02*
X38901667Y32025420D01*
X40846475Y17817181D02*
X40846475Y17102896D01*
X40846475Y17102896D02*
X40798856Y16960039D01*
X40798856Y16960039D02*
X40703618Y16864800D01*
X40703618Y16864800D02*
X40560761Y16817181D01*
X40560761Y16817181D02*
X40465523Y16817181D01*
X41846475Y16817181D02*
X41275047Y16817181D01*
X41560761Y16817181D02*
X41560761Y17817181D01*
X41560761Y17817181D02*
X41465523Y17674324D01*
X41465523Y17674324D02*
X41370285Y17579086D01*
X41370285Y17579086D02*
X41275047Y17531467D01*
X42227428Y17721943D02*
X42275047Y17769562D01*
X42275047Y17769562D02*
X42370285Y17817181D01*
X42370285Y17817181D02*
X42608380Y17817181D01*
X42608380Y17817181D02*
X42703618Y17769562D01*
X42703618Y17769562D02*
X42751237Y17721943D01*
X42751237Y17721943D02*
X42798856Y17626705D01*
X42798856Y17626705D02*
X42798856Y17531467D01*
X42798856Y17531467D02*
X42751237Y17388610D01*
X42751237Y17388610D02*
X42179809Y16817181D01*
X42179809Y16817181D02*
X42798856Y16817181D01*
X45108952Y7673181D02*
X44632762Y7673181D01*
X44632762Y7673181D02*
X44632762Y8673181D01*
X45442286Y8196991D02*
X45775619Y8196991D01*
X45918476Y7673181D02*
X45442286Y7673181D01*
X45442286Y7673181D02*
X45442286Y8673181D01*
X45442286Y8673181D02*
X45918476Y8673181D01*
X46347048Y7673181D02*
X46347048Y8673181D01*
X46347048Y8673181D02*
X46585143Y8673181D01*
X46585143Y8673181D02*
X46728000Y8625562D01*
X46728000Y8625562D02*
X46823238Y8530324D01*
X46823238Y8530324D02*
X46870857Y8435086D01*
X46870857Y8435086D02*
X46918476Y8244610D01*
X46918476Y8244610D02*
X46918476Y8101753D01*
X46918476Y8101753D02*
X46870857Y7911277D01*
X46870857Y7911277D02*
X46823238Y7816039D01*
X46823238Y7816039D02*
X46728000Y7720800D01*
X46728000Y7720800D02*
X46585143Y7673181D01*
X46585143Y7673181D02*
X46347048Y7673181D01*
X47299429Y8577943D02*
X47347048Y8625562D01*
X47347048Y8625562D02*
X47442286Y8673181D01*
X47442286Y8673181D02*
X47680381Y8673181D01*
X47680381Y8673181D02*
X47775619Y8625562D01*
X47775619Y8625562D02*
X47823238Y8577943D01*
X47823238Y8577943D02*
X47870857Y8482705D01*
X47870857Y8482705D02*
X47870857Y8387467D01*
X47870857Y8387467D02*
X47823238Y8244610D01*
X47823238Y8244610D02*
X47251810Y7673181D01*
X47251810Y7673181D02*
X47870857Y7673181D01*
X43618199Y25140420D02*
X43570580Y25092800D01*
X43570580Y25092800D02*
X43427723Y25045181D01*
X43427723Y25045181D02*
X43332485Y25045181D01*
X43332485Y25045181D02*
X43189628Y25092800D01*
X43189628Y25092800D02*
X43094390Y25188039D01*
X43094390Y25188039D02*
X43046771Y25283277D01*
X43046771Y25283277D02*
X42999152Y25473753D01*
X42999152Y25473753D02*
X42999152Y25616610D01*
X42999152Y25616610D02*
X43046771Y25807086D01*
X43046771Y25807086D02*
X43094390Y25902324D01*
X43094390Y25902324D02*
X43189628Y25997562D01*
X43189628Y25997562D02*
X43332485Y26045181D01*
X43332485Y26045181D02*
X43427723Y26045181D01*
X43427723Y26045181D02*
X43570580Y25997562D01*
X43570580Y25997562D02*
X43618199Y25949943D01*
X44570580Y25045181D02*
X43999152Y25045181D01*
X44284866Y25045181D02*
X44284866Y26045181D01*
X44284866Y26045181D02*
X44189628Y25902324D01*
X44189628Y25902324D02*
X44094390Y25807086D01*
X44094390Y25807086D02*
X43999152Y25759467D01*
X45427723Y25711848D02*
X45427723Y25045181D01*
X45189628Y26092800D02*
X44951533Y25378515D01*
X44951533Y25378515D02*
X45570580Y25378515D01*
X31583333Y35655181D02*
X31250000Y36131372D01*
X31011905Y35655181D02*
X31011905Y36655181D01*
X31011905Y36655181D02*
X31392857Y36655181D01*
X31392857Y36655181D02*
X31488095Y36607562D01*
X31488095Y36607562D02*
X31535714Y36559943D01*
X31535714Y36559943D02*
X31583333Y36464705D01*
X31583333Y36464705D02*
X31583333Y36321848D01*
X31583333Y36321848D02*
X31535714Y36226610D01*
X31535714Y36226610D02*
X31488095Y36178991D01*
X31488095Y36178991D02*
X31392857Y36131372D01*
X31392857Y36131372D02*
X31011905Y36131372D01*
X31916667Y36655181D02*
X32583333Y36655181D01*
X32583333Y36655181D02*
X32154762Y35655181D01*
X51057733Y41677420D02*
X51010114Y41629800D01*
X51010114Y41629800D02*
X50867257Y41582181D01*
X50867257Y41582181D02*
X50772019Y41582181D01*
X50772019Y41582181D02*
X50629162Y41629800D01*
X50629162Y41629800D02*
X50533924Y41725039D01*
X50533924Y41725039D02*
X50486305Y41820277D01*
X50486305Y41820277D02*
X50438686Y42010753D01*
X50438686Y42010753D02*
X50438686Y42153610D01*
X50438686Y42153610D02*
X50486305Y42344086D01*
X50486305Y42344086D02*
X50533924Y42439324D01*
X50533924Y42439324D02*
X50629162Y42534562D01*
X50629162Y42534562D02*
X50772019Y42582181D01*
X50772019Y42582181D02*
X50867257Y42582181D01*
X50867257Y42582181D02*
X51010114Y42534562D01*
X51010114Y42534562D02*
X51057733Y42486943D01*
X51391067Y42582181D02*
X52057733Y42582181D01*
X52057733Y42582181D02*
X51629162Y41582181D01*
X59351666Y48805181D02*
X59351666Y48090896D01*
X59351666Y48090896D02*
X59304047Y47948039D01*
X59304047Y47948039D02*
X59208809Y47852800D01*
X59208809Y47852800D02*
X59065952Y47805181D01*
X59065952Y47805181D02*
X58970714Y47805181D01*
X59732619Y48805181D02*
X60399285Y48805181D01*
X60399285Y48805181D02*
X59970714Y47805181D01*
X10461666Y20865181D02*
X10461666Y20150896D01*
X10461666Y20150896D02*
X10414047Y20008039D01*
X10414047Y20008039D02*
X10318809Y19912800D01*
X10318809Y19912800D02*
X10175952Y19865181D01*
X10175952Y19865181D02*
X10080714Y19865181D01*
X11461666Y19865181D02*
X10890238Y19865181D01*
X11175952Y19865181D02*
X11175952Y20865181D01*
X11175952Y20865181D02*
X11080714Y20722324D01*
X11080714Y20722324D02*
X10985476Y20627086D01*
X10985476Y20627086D02*
X10890238Y20579467D01*
X15541666Y9435181D02*
X15541666Y8720896D01*
X15541666Y8720896D02*
X15494047Y8578039D01*
X15494047Y8578039D02*
X15398809Y8482800D01*
X15398809Y8482800D02*
X15255952Y8435181D01*
X15255952Y8435181D02*
X15160714Y8435181D01*
X15922619Y9435181D02*
X16541666Y9435181D01*
X16541666Y9435181D02*
X16208333Y9054229D01*
X16208333Y9054229D02*
X16351190Y9054229D01*
X16351190Y9054229D02*
X16446428Y9006610D01*
X16446428Y9006610D02*
X16494047Y8958991D01*
X16494047Y8958991D02*
X16541666Y8863753D01*
X16541666Y8863753D02*
X16541666Y8625658D01*
X16541666Y8625658D02*
X16494047Y8530420D01*
X16494047Y8530420D02*
X16446428Y8482800D01*
X16446428Y8482800D02*
X16351190Y8435181D01*
X16351190Y8435181D02*
X16065476Y8435181D01*
X16065476Y8435181D02*
X15970238Y8482800D01*
X15970238Y8482800D02*
X15922619Y8530420D01*
X56269286Y17055181D02*
X56840714Y17055181D01*
X56555000Y16055181D02*
X56555000Y17055181D01*
X57174048Y16055181D02*
X57174048Y17055181D01*
X57174048Y17055181D02*
X57555000Y17055181D01*
X57555000Y17055181D02*
X57650238Y17007562D01*
X57650238Y17007562D02*
X57697857Y16959943D01*
X57697857Y16959943D02*
X57745476Y16864705D01*
X57745476Y16864705D02*
X57745476Y16721848D01*
X57745476Y16721848D02*
X57697857Y16626610D01*
X57697857Y16626610D02*
X57650238Y16578991D01*
X57650238Y16578991D02*
X57555000Y16531372D01*
X57555000Y16531372D02*
X57174048Y16531372D01*
X58174048Y16436134D02*
X58935953Y16436134D01*
X59459762Y16055181D02*
X59650238Y16055181D01*
X59650238Y16055181D02*
X59745476Y16102800D01*
X59745476Y16102800D02*
X59793095Y16150420D01*
X59793095Y16150420D02*
X59888333Y16293277D01*
X59888333Y16293277D02*
X59935952Y16483753D01*
X59935952Y16483753D02*
X59935952Y16864705D01*
X59935952Y16864705D02*
X59888333Y16959943D01*
X59888333Y16959943D02*
X59840714Y17007562D01*
X59840714Y17007562D02*
X59745476Y17055181D01*
X59745476Y17055181D02*
X59555000Y17055181D01*
X59555000Y17055181D02*
X59459762Y17007562D01*
X59459762Y17007562D02*
X59412143Y16959943D01*
X59412143Y16959943D02*
X59364524Y16864705D01*
X59364524Y16864705D02*
X59364524Y16626610D01*
X59364524Y16626610D02*
X59412143Y16531372D01*
X59412143Y16531372D02*
X59459762Y16483753D01*
X59459762Y16483753D02*
X59555000Y16436134D01*
X59555000Y16436134D02*
X59745476Y16436134D01*
X59745476Y16436134D02*
X59840714Y16483753D01*
X59840714Y16483753D02*
X59888333Y16531372D01*
X59888333Y16531372D02*
X59935952Y16626610D01*
X60221667Y17055181D02*
X60555000Y16055181D01*
X60555000Y16055181D02*
X60888333Y17055181D01*
X61745476Y16055181D02*
X61174048Y16055181D01*
X61459762Y16055181D02*
X61459762Y17055181D01*
X61459762Y17055181D02*
X61364524Y16912324D01*
X61364524Y16912324D02*
X61269286Y16817086D01*
X61269286Y16817086D02*
X61174048Y16769467D01*
X78097142Y23421181D02*
X77763809Y23897372D01*
X77525714Y23421181D02*
X77525714Y24421181D01*
X77525714Y24421181D02*
X77906666Y24421181D01*
X77906666Y24421181D02*
X78001904Y24373562D01*
X78001904Y24373562D02*
X78049523Y24325943D01*
X78049523Y24325943D02*
X78097142Y24230705D01*
X78097142Y24230705D02*
X78097142Y24087848D01*
X78097142Y24087848D02*
X78049523Y23992610D01*
X78049523Y23992610D02*
X78001904Y23944991D01*
X78001904Y23944991D02*
X77906666Y23897372D01*
X77906666Y23897372D02*
X77525714Y23897372D01*
X79049523Y23421181D02*
X78478095Y23421181D01*
X78763809Y23421181D02*
X78763809Y24421181D01*
X78763809Y24421181D02*
X78668571Y24278324D01*
X78668571Y24278324D02*
X78573333Y24183086D01*
X78573333Y24183086D02*
X78478095Y24135467D01*
X79430476Y24325943D02*
X79478095Y24373562D01*
X79478095Y24373562D02*
X79573333Y24421181D01*
X79573333Y24421181D02*
X79811428Y24421181D01*
X79811428Y24421181D02*
X79906666Y24373562D01*
X79906666Y24373562D02*
X79954285Y24325943D01*
X79954285Y24325943D02*
X80001904Y24230705D01*
X80001904Y24230705D02*
X80001904Y24135467D01*
X80001904Y24135467D02*
X79954285Y23992610D01*
X79954285Y23992610D02*
X79382857Y23421181D01*
X79382857Y23421181D02*
X80001904Y23421181D01*
X73358476Y20147181D02*
X73358476Y19432896D01*
X73358476Y19432896D02*
X73310857Y19290039D01*
X73310857Y19290039D02*
X73215619Y19194800D01*
X73215619Y19194800D02*
X73072762Y19147181D01*
X73072762Y19147181D02*
X72977524Y19147181D01*
X74358476Y19147181D02*
X73787048Y19147181D01*
X74072762Y19147181D02*
X74072762Y20147181D01*
X74072762Y20147181D02*
X73977524Y20004324D01*
X73977524Y20004324D02*
X73882286Y19909086D01*
X73882286Y19909086D02*
X73787048Y19861467D01*
X75310857Y19147181D02*
X74739429Y19147181D01*
X75025143Y19147181D02*
X75025143Y20147181D01*
X75025143Y20147181D02*
X74929905Y20004324D01*
X74929905Y20004324D02*
X74834667Y19909086D01*
X74834667Y19909086D02*
X74739429Y19861467D01*
X65738476Y38435181D02*
X65738476Y37720896D01*
X65738476Y37720896D02*
X65690857Y37578039D01*
X65690857Y37578039D02*
X65595619Y37482800D01*
X65595619Y37482800D02*
X65452762Y37435181D01*
X65452762Y37435181D02*
X65357524Y37435181D01*
X66738476Y37435181D02*
X66167048Y37435181D01*
X66452762Y37435181D02*
X66452762Y38435181D01*
X66452762Y38435181D02*
X66357524Y38292324D01*
X66357524Y38292324D02*
X66262286Y38197086D01*
X66262286Y38197086D02*
X66167048Y38149467D01*
X67357524Y38435181D02*
X67452762Y38435181D01*
X67452762Y38435181D02*
X67548000Y38387562D01*
X67548000Y38387562D02*
X67595619Y38339943D01*
X67595619Y38339943D02*
X67643238Y38244705D01*
X67643238Y38244705D02*
X67690857Y38054229D01*
X67690857Y38054229D02*
X67690857Y37816134D01*
X67690857Y37816134D02*
X67643238Y37625658D01*
X67643238Y37625658D02*
X67595619Y37530420D01*
X67595619Y37530420D02*
X67548000Y37482800D01*
X67548000Y37482800D02*
X67452762Y37435181D01*
X67452762Y37435181D02*
X67357524Y37435181D01*
X67357524Y37435181D02*
X67262286Y37482800D01*
X67262286Y37482800D02*
X67214667Y37530420D01*
X67214667Y37530420D02*
X67167048Y37625658D01*
X67167048Y37625658D02*
X67119429Y37816134D01*
X67119429Y37816134D02*
X67119429Y38054229D01*
X67119429Y38054229D02*
X67167048Y38244705D01*
X67167048Y38244705D02*
X67214667Y38339943D01*
X67214667Y38339943D02*
X67262286Y38387562D01*
X67262286Y38387562D02*
X67357524Y38435181D01*
X13382666Y38137181D02*
X13382666Y37422896D01*
X13382666Y37422896D02*
X13335047Y37280039D01*
X13335047Y37280039D02*
X13239809Y37184800D01*
X13239809Y37184800D02*
X13096952Y37137181D01*
X13096952Y37137181D02*
X13001714Y37137181D01*
X13811238Y38041943D02*
X13858857Y38089562D01*
X13858857Y38089562D02*
X13954095Y38137181D01*
X13954095Y38137181D02*
X14192190Y38137181D01*
X14192190Y38137181D02*
X14287428Y38089562D01*
X14287428Y38089562D02*
X14335047Y38041943D01*
X14335047Y38041943D02*
X14382666Y37946705D01*
X14382666Y37946705D02*
X14382666Y37851467D01*
X14382666Y37851467D02*
X14335047Y37708610D01*
X14335047Y37708610D02*
X13763619Y37137181D01*
X13763619Y37137181D02*
X14382666Y37137181D01*
X13803333Y28120181D02*
X13470000Y28596372D01*
X13231905Y28120181D02*
X13231905Y29120181D01*
X13231905Y29120181D02*
X13612857Y29120181D01*
X13612857Y29120181D02*
X13708095Y29072562D01*
X13708095Y29072562D02*
X13755714Y29024943D01*
X13755714Y29024943D02*
X13803333Y28929705D01*
X13803333Y28929705D02*
X13803333Y28786848D01*
X13803333Y28786848D02*
X13755714Y28691610D01*
X13755714Y28691610D02*
X13708095Y28643991D01*
X13708095Y28643991D02*
X13612857Y28596372D01*
X13612857Y28596372D02*
X13231905Y28596372D01*
X14660476Y28786848D02*
X14660476Y28120181D01*
X14422381Y29167800D02*
X14184286Y28453515D01*
X14184286Y28453515D02*
X14803333Y28453515D01*
X72001142Y34565420D02*
X71953523Y34517800D01*
X71953523Y34517800D02*
X71810666Y34470181D01*
X71810666Y34470181D02*
X71715428Y34470181D01*
X71715428Y34470181D02*
X71572571Y34517800D01*
X71572571Y34517800D02*
X71477333Y34613039D01*
X71477333Y34613039D02*
X71429714Y34708277D01*
X71429714Y34708277D02*
X71382095Y34898753D01*
X71382095Y34898753D02*
X71382095Y35041610D01*
X71382095Y35041610D02*
X71429714Y35232086D01*
X71429714Y35232086D02*
X71477333Y35327324D01*
X71477333Y35327324D02*
X71572571Y35422562D01*
X71572571Y35422562D02*
X71715428Y35470181D01*
X71715428Y35470181D02*
X71810666Y35470181D01*
X71810666Y35470181D02*
X71953523Y35422562D01*
X71953523Y35422562D02*
X72001142Y35374943D01*
X72953523Y34470181D02*
X72382095Y34470181D01*
X72667809Y34470181D02*
X72667809Y35470181D01*
X72667809Y35470181D02*
X72572571Y35327324D01*
X72572571Y35327324D02*
X72477333Y35232086D01*
X72477333Y35232086D02*
X72382095Y35184467D01*
X73572571Y35470181D02*
X73667809Y35470181D01*
X73667809Y35470181D02*
X73763047Y35422562D01*
X73763047Y35422562D02*
X73810666Y35374943D01*
X73810666Y35374943D02*
X73858285Y35279705D01*
X73858285Y35279705D02*
X73905904Y35089229D01*
X73905904Y35089229D02*
X73905904Y34851134D01*
X73905904Y34851134D02*
X73858285Y34660658D01*
X73858285Y34660658D02*
X73810666Y34565420D01*
X73810666Y34565420D02*
X73763047Y34517800D01*
X73763047Y34517800D02*
X73667809Y34470181D01*
X73667809Y34470181D02*
X73572571Y34470181D01*
X73572571Y34470181D02*
X73477333Y34517800D01*
X73477333Y34517800D02*
X73429714Y34565420D01*
X73429714Y34565420D02*
X73382095Y34660658D01*
X73382095Y34660658D02*
X73334476Y34851134D01*
X73334476Y34851134D02*
X73334476Y35089229D01*
X73334476Y35089229D02*
X73382095Y35279705D01*
X73382095Y35279705D02*
X73429714Y35374943D01*
X73429714Y35374943D02*
X73477333Y35422562D01*
X73477333Y35422562D02*
X73572571Y35470181D01*
X95190476Y31875181D02*
X95190476Y31160896D01*
X95190476Y31160896D02*
X95142857Y31018039D01*
X95142857Y31018039D02*
X95047619Y30922800D01*
X95047619Y30922800D02*
X94904762Y30875181D01*
X94904762Y30875181D02*
X94809524Y30875181D01*
X96190476Y30875181D02*
X95619048Y30875181D01*
X95904762Y30875181D02*
X95904762Y31875181D01*
X95904762Y31875181D02*
X95809524Y31732324D01*
X95809524Y31732324D02*
X95714286Y31637086D01*
X95714286Y31637086D02*
X95619048Y31589467D01*
X96523810Y31875181D02*
X97142857Y31875181D01*
X97142857Y31875181D02*
X96809524Y31494229D01*
X96809524Y31494229D02*
X96952381Y31494229D01*
X96952381Y31494229D02*
X97047619Y31446610D01*
X97047619Y31446610D02*
X97095238Y31398991D01*
X97095238Y31398991D02*
X97142857Y31303753D01*
X97142857Y31303753D02*
X97142857Y31065658D01*
X97142857Y31065658D02*
X97095238Y30970420D01*
X97095238Y30970420D02*
X97047619Y30922800D01*
X97047619Y30922800D02*
X96952381Y30875181D01*
X96952381Y30875181D02*
X96666667Y30875181D01*
X96666667Y30875181D02*
X96571429Y30922800D01*
X96571429Y30922800D02*
X96523810Y30970420D01*
X45108952Y47085181D02*
X44632762Y47085181D01*
X44632762Y47085181D02*
X44632762Y48085181D01*
X45442286Y47608991D02*
X45775619Y47608991D01*
X45918476Y47085181D02*
X45442286Y47085181D01*
X45442286Y47085181D02*
X45442286Y48085181D01*
X45442286Y48085181D02*
X45918476Y48085181D01*
X46347048Y47085181D02*
X46347048Y48085181D01*
X46347048Y48085181D02*
X46585143Y48085181D01*
X46585143Y48085181D02*
X46728000Y48037562D01*
X46728000Y48037562D02*
X46823238Y47942324D01*
X46823238Y47942324D02*
X46870857Y47847086D01*
X46870857Y47847086D02*
X46918476Y47656610D01*
X46918476Y47656610D02*
X46918476Y47513753D01*
X46918476Y47513753D02*
X46870857Y47323277D01*
X46870857Y47323277D02*
X46823238Y47228039D01*
X46823238Y47228039D02*
X46728000Y47132800D01*
X46728000Y47132800D02*
X46585143Y47085181D01*
X46585143Y47085181D02*
X46347048Y47085181D01*
X47870857Y47085181D02*
X47299429Y47085181D01*
X47585143Y47085181D02*
X47585143Y48085181D01*
X47585143Y48085181D02*
X47489905Y47942324D01*
X47489905Y47942324D02*
X47394667Y47847086D01*
X47394667Y47847086D02*
X47299429Y47799467D01*
X44029333Y30140420D02*
X43981714Y30092800D01*
X43981714Y30092800D02*
X43838857Y30045181D01*
X43838857Y30045181D02*
X43743619Y30045181D01*
X43743619Y30045181D02*
X43600762Y30092800D01*
X43600762Y30092800D02*
X43505524Y30188039D01*
X43505524Y30188039D02*
X43457905Y30283277D01*
X43457905Y30283277D02*
X43410286Y30473753D01*
X43410286Y30473753D02*
X43410286Y30616610D01*
X43410286Y30616610D02*
X43457905Y30807086D01*
X43457905Y30807086D02*
X43505524Y30902324D01*
X43505524Y30902324D02*
X43600762Y30997562D01*
X43600762Y30997562D02*
X43743619Y31045181D01*
X43743619Y31045181D02*
X43838857Y31045181D01*
X43838857Y31045181D02*
X43981714Y30997562D01*
X43981714Y30997562D02*
X44029333Y30949943D01*
X44886476Y31045181D02*
X44696000Y31045181D01*
X44696000Y31045181D02*
X44600762Y30997562D01*
X44600762Y30997562D02*
X44553143Y30949943D01*
X44553143Y30949943D02*
X44457905Y30807086D01*
X44457905Y30807086D02*
X44410286Y30616610D01*
X44410286Y30616610D02*
X44410286Y30235658D01*
X44410286Y30235658D02*
X44457905Y30140420D01*
X44457905Y30140420D02*
X44505524Y30092800D01*
X44505524Y30092800D02*
X44600762Y30045181D01*
X44600762Y30045181D02*
X44791238Y30045181D01*
X44791238Y30045181D02*
X44886476Y30092800D01*
X44886476Y30092800D02*
X44934095Y30140420D01*
X44934095Y30140420D02*
X44981714Y30235658D01*
X44981714Y30235658D02*
X44981714Y30473753D01*
X44981714Y30473753D02*
X44934095Y30568991D01*
X44934095Y30568991D02*
X44886476Y30616610D01*
X44886476Y30616610D02*
X44791238Y30664229D01*
X44791238Y30664229D02*
X44600762Y30664229D01*
X44600762Y30664229D02*
X44505524Y30616610D01*
X44505524Y30616610D02*
X44457905Y30568991D01*
X44457905Y30568991D02*
X44410286Y30473753D01*
X51427142Y7673181D02*
X51093809Y8149372D01*
X50855714Y7673181D02*
X50855714Y8673181D01*
X50855714Y8673181D02*
X51236666Y8673181D01*
X51236666Y8673181D02*
X51331904Y8625562D01*
X51331904Y8625562D02*
X51379523Y8577943D01*
X51379523Y8577943D02*
X51427142Y8482705D01*
X51427142Y8482705D02*
X51427142Y8339848D01*
X51427142Y8339848D02*
X51379523Y8244610D01*
X51379523Y8244610D02*
X51331904Y8196991D01*
X51331904Y8196991D02*
X51236666Y8149372D01*
X51236666Y8149372D02*
X50855714Y8149372D01*
X52379523Y7673181D02*
X51808095Y7673181D01*
X52093809Y7673181D02*
X52093809Y8673181D01*
X52093809Y8673181D02*
X51998571Y8530324D01*
X51998571Y8530324D02*
X51903333Y8435086D01*
X51903333Y8435086D02*
X51808095Y8387467D01*
X52712857Y8673181D02*
X53379523Y8673181D01*
X53379523Y8673181D02*
X52950952Y7673181D01*
X714667Y17307181D02*
X1286095Y17307181D01*
X1000381Y16307181D02*
X1000381Y17307181D01*
X1619429Y16307181D02*
X1619429Y17307181D01*
X1619429Y17307181D02*
X2000381Y17307181D01*
X2000381Y17307181D02*
X2095619Y17259562D01*
X2095619Y17259562D02*
X2143238Y17211943D01*
X2143238Y17211943D02*
X2190857Y17116705D01*
X2190857Y17116705D02*
X2190857Y16973848D01*
X2190857Y16973848D02*
X2143238Y16878610D01*
X2143238Y16878610D02*
X2095619Y16830991D01*
X2095619Y16830991D02*
X2000381Y16783372D01*
X2000381Y16783372D02*
X1619429Y16783372D01*
X2619429Y16830991D02*
X2952762Y16830991D01*
X3095619Y16307181D02*
X2619429Y16307181D01*
X2619429Y16307181D02*
X2619429Y17307181D01*
X2619429Y17307181D02*
X3095619Y17307181D01*
X3524191Y16688134D02*
X4286096Y16688134D01*
X3905143Y16307181D02*
X3905143Y17069086D01*
X5286095Y16307181D02*
X4714667Y16307181D01*
X5000381Y16307181D02*
X5000381Y17307181D01*
X5000381Y17307181D02*
X4905143Y17164324D01*
X4905143Y17164324D02*
X4809905Y17069086D01*
X4809905Y17069086D02*
X4714667Y17021467D01*
X23932492Y42890626D02*
X23599159Y43366817D01*
X23361064Y42890626D02*
X23361064Y43890626D01*
X23361064Y43890626D02*
X23742016Y43890626D01*
X23742016Y43890626D02*
X23837254Y43843007D01*
X23837254Y43843007D02*
X23884873Y43795388D01*
X23884873Y43795388D02*
X23932492Y43700150D01*
X23932492Y43700150D02*
X23932492Y43557293D01*
X23932492Y43557293D02*
X23884873Y43462055D01*
X23884873Y43462055D02*
X23837254Y43414436D01*
X23837254Y43414436D02*
X23742016Y43366817D01*
X23742016Y43366817D02*
X23361064Y43366817D01*
X24408683Y42890626D02*
X24599159Y42890626D01*
X24599159Y42890626D02*
X24694397Y42938245D01*
X24694397Y42938245D02*
X24742016Y42985865D01*
X24742016Y42985865D02*
X24837254Y43128722D01*
X24837254Y43128722D02*
X24884873Y43319198D01*
X24884873Y43319198D02*
X24884873Y43700150D01*
X24884873Y43700150D02*
X24837254Y43795388D01*
X24837254Y43795388D02*
X24789635Y43843007D01*
X24789635Y43843007D02*
X24694397Y43890626D01*
X24694397Y43890626D02*
X24503921Y43890626D01*
X24503921Y43890626D02*
X24408683Y43843007D01*
X24408683Y43843007D02*
X24361064Y43795388D01*
X24361064Y43795388D02*
X24313445Y43700150D01*
X24313445Y43700150D02*
X24313445Y43462055D01*
X24313445Y43462055D02*
X24361064Y43366817D01*
X24361064Y43366817D02*
X24408683Y43319198D01*
X24408683Y43319198D02*
X24503921Y43271579D01*
X24503921Y43271579D02*
X24694397Y43271579D01*
X24694397Y43271579D02*
X24789635Y43319198D01*
X24789635Y43319198D02*
X24837254Y43366817D01*
X24837254Y43366817D02*
X24884873Y43462055D01*
X15414666Y47281181D02*
X15414666Y46566896D01*
X15414666Y46566896D02*
X15367047Y46424039D01*
X15367047Y46424039D02*
X15271809Y46328800D01*
X15271809Y46328800D02*
X15128952Y46281181D01*
X15128952Y46281181D02*
X15033714Y46281181D01*
X15938476Y46281181D02*
X16128952Y46281181D01*
X16128952Y46281181D02*
X16224190Y46328800D01*
X16224190Y46328800D02*
X16271809Y46376420D01*
X16271809Y46376420D02*
X16367047Y46519277D01*
X16367047Y46519277D02*
X16414666Y46709753D01*
X16414666Y46709753D02*
X16414666Y47090705D01*
X16414666Y47090705D02*
X16367047Y47185943D01*
X16367047Y47185943D02*
X16319428Y47233562D01*
X16319428Y47233562D02*
X16224190Y47281181D01*
X16224190Y47281181D02*
X16033714Y47281181D01*
X16033714Y47281181D02*
X15938476Y47233562D01*
X15938476Y47233562D02*
X15890857Y47185943D01*
X15890857Y47185943D02*
X15843238Y47090705D01*
X15843238Y47090705D02*
X15843238Y46852610D01*
X15843238Y46852610D02*
X15890857Y46757372D01*
X15890857Y46757372D02*
X15938476Y46709753D01*
X15938476Y46709753D02*
X16033714Y46662134D01*
X16033714Y46662134D02*
X16224190Y46662134D01*
X16224190Y46662134D02*
X16319428Y46709753D01*
X16319428Y46709753D02*
X16367047Y46757372D01*
X16367047Y46757372D02*
X16414666Y46852610D01*
D14*
%TO.C,J15*%
X94670000Y22605000D02*
X96000000Y22605000D01*
X94670000Y21275000D02*
X94670000Y22605000D01*
X94670000Y20005000D02*
X94670000Y17405000D01*
X94670000Y20005000D02*
X97330000Y20005000D01*
X94670000Y17405000D02*
X97330000Y17405000D01*
X97330000Y20005000D02*
X97330000Y17405000D01*
%TO.C,U2*%
X68220000Y31165000D02*
X68220000Y20885000D01*
X68220000Y20885000D02*
X72720000Y20885000D01*
X69470000Y31165000D02*
X68220000Y31165000D01*
X72720000Y31165000D02*
X71470000Y31165000D01*
X72720000Y20885000D02*
X72720000Y31165000D01*
X71470000Y31165000D02*
G75*
G02*
X69470000Y31165000I-1000000J0D01*
G01*
%TO.C,R8*%
X23220000Y11718936D02*
X23220000Y13173064D01*
X25040000Y11718936D02*
X25040000Y13173064D01*
%TO.C,C5*%
X42000323Y19555060D02*
X42000323Y20295060D01*
X42040323Y19388060D02*
X42040323Y20462060D01*
X42080323Y19261060D02*
X42080323Y20589060D01*
X42120323Y19157060D02*
X42120323Y20693060D01*
X42160323Y19066060D02*
X42160323Y20784060D01*
X42200323Y18985060D02*
X42200323Y20865060D01*
X42240323Y18912060D02*
X42240323Y20938060D01*
X42280323Y20765060D02*
X42280323Y21005060D01*
X42280323Y18845060D02*
X42280323Y19085060D01*
X42320323Y20765060D02*
X42320323Y21067060D01*
X42320323Y18783060D02*
X42320323Y19085060D01*
X42360323Y20765060D02*
X42360323Y21125060D01*
X42360323Y18725060D02*
X42360323Y19085060D01*
X42400323Y20765060D02*
X42400323Y21179060D01*
X42400323Y18671060D02*
X42400323Y19085060D01*
X42440323Y20765060D02*
X42440323Y21229060D01*
X42440323Y18621060D02*
X42440323Y19085060D01*
X42480323Y20765060D02*
X42480323Y21276060D01*
X42480323Y18574060D02*
X42480323Y19085060D01*
X42520323Y20765060D02*
X42520323Y21321060D01*
X42520323Y18529060D02*
X42520323Y19085060D01*
X42560323Y20765060D02*
X42560323Y21363060D01*
X42560323Y18487060D02*
X42560323Y19085060D01*
X42600323Y20765060D02*
X42600323Y21403060D01*
X42600323Y18447060D02*
X42600323Y19085060D01*
X42640323Y20765060D02*
X42640323Y21441060D01*
X42640323Y18409060D02*
X42640323Y19085060D01*
X42680323Y20765060D02*
X42680323Y21477060D01*
X42680323Y18373060D02*
X42680323Y19085060D01*
X42720323Y20765060D02*
X42720323Y21512060D01*
X42720323Y18338060D02*
X42720323Y19085060D01*
X42760323Y20765060D02*
X42760323Y21544060D01*
X42760323Y18306060D02*
X42760323Y19085060D01*
X42800323Y20765060D02*
X42800323Y21575060D01*
X42800323Y18275060D02*
X42800323Y19085060D01*
X42840323Y20765060D02*
X42840323Y21605060D01*
X42840323Y18245060D02*
X42840323Y19085060D01*
X42880323Y20765060D02*
X42880323Y21633060D01*
X42880323Y18217060D02*
X42880323Y19085060D01*
X42920323Y20765060D02*
X42920323Y21660060D01*
X42920323Y18190060D02*
X42920323Y19085060D01*
X42960323Y20765060D02*
X42960323Y21685060D01*
X42960323Y18165060D02*
X42960323Y19085060D01*
X43000323Y20765060D02*
X43000323Y21710060D01*
X43000323Y18140060D02*
X43000323Y19085060D01*
X43040323Y20765060D02*
X43040323Y21733060D01*
X43040323Y18117060D02*
X43040323Y19085060D01*
X43080323Y20765060D02*
X43080323Y21755060D01*
X43080323Y18095060D02*
X43080323Y19085060D01*
X43120323Y20765060D02*
X43120323Y21776060D01*
X43120323Y18074060D02*
X43120323Y19085060D01*
X43160323Y20765060D02*
X43160323Y21795060D01*
X43160323Y18055060D02*
X43160323Y19085060D01*
X43200323Y20765060D02*
X43200323Y21814060D01*
X43200323Y18036060D02*
X43200323Y19085060D01*
X43240323Y20765060D02*
X43240323Y21832060D01*
X43240323Y18018060D02*
X43240323Y19085060D01*
X43280323Y20765060D02*
X43280323Y21849060D01*
X43280323Y18001060D02*
X43280323Y19085060D01*
X43320323Y20765060D02*
X43320323Y21865060D01*
X43320323Y17985060D02*
X43320323Y19085060D01*
X43360323Y20765060D02*
X43360323Y21879060D01*
X43360323Y17971060D02*
X43360323Y19085060D01*
X43401323Y20765060D02*
X43401323Y21893060D01*
X43401323Y17957060D02*
X43401323Y19085060D01*
X43441323Y20765060D02*
X43441323Y21907060D01*
X43441323Y17943060D02*
X43441323Y19085060D01*
X43481323Y20765060D02*
X43481323Y21919060D01*
X43481323Y17931060D02*
X43481323Y19085060D01*
X43521323Y20765060D02*
X43521323Y21930060D01*
X43521323Y17920060D02*
X43521323Y19085060D01*
X43561323Y20765060D02*
X43561323Y21941060D01*
X43561323Y17909060D02*
X43561323Y19085060D01*
X43601323Y20765060D02*
X43601323Y21950060D01*
X43601323Y17900060D02*
X43601323Y19085060D01*
X43641323Y20765060D02*
X43641323Y21959060D01*
X43641323Y17891060D02*
X43641323Y19085060D01*
X43681323Y20765060D02*
X43681323Y21967060D01*
X43681323Y17883060D02*
X43681323Y19085060D01*
X43721323Y20765060D02*
X43721323Y21975060D01*
X43721323Y17875060D02*
X43721323Y19085060D01*
X43761323Y20765060D02*
X43761323Y21981060D01*
X43761323Y17869060D02*
X43761323Y19085060D01*
X43801323Y20765060D02*
X43801323Y21987060D01*
X43801323Y17863060D02*
X43801323Y19085060D01*
X43841323Y20765060D02*
X43841323Y21992060D01*
X43841323Y17858060D02*
X43841323Y19085060D01*
X43881323Y20765060D02*
X43881323Y21996060D01*
X43881323Y17854060D02*
X43881323Y19085060D01*
X43921323Y17851060D02*
X43921323Y21999060D01*
X43961323Y17848060D02*
X43961323Y22002060D01*
X44001323Y17846060D02*
X44001323Y22004060D01*
X44041323Y17845060D02*
X44041323Y22005060D01*
X44081323Y17845060D02*
X44081323Y22005060D01*
X46151124Y18530060D02*
X46151124Y18930060D01*
X46351124Y18730060D02*
X45951124Y18730060D01*
X46201323Y19925060D02*
G75*
G02*
X41961323Y19925060I-2120000J0D01*
G01*
X41961323Y19925060D02*
G75*
G02*
X46201323Y19925060I2120000J0D01*
G01*
%TO.C,R15*%
X62082000Y31715064D02*
X62082000Y30260936D01*
X63902000Y31715064D02*
X63902000Y30260936D01*
%TO.C,R16*%
X52797064Y46630000D02*
X51342936Y46630000D01*
X52797064Y44810000D02*
X51342936Y44810000D01*
%TO.C,TPGND1*%
X81498000Y5080000D02*
G75*
G02*
X76998000Y5080000I-2250000J0D01*
G01*
X76998000Y5080000D02*
G75*
G02*
X81498000Y5080000I2250000J0D01*
G01*
%TO.C,C11*%
X65765000Y18491252D02*
X65765000Y17068748D01*
X67585000Y18491252D02*
X67585000Y17068748D01*
%TO.C,J6*%
X81860000Y41335000D02*
X81860000Y38675000D01*
X84460000Y41335000D02*
X81860000Y41335000D01*
X84460000Y41335000D02*
X84460000Y38675000D01*
X84460000Y38675000D02*
X81860000Y38675000D01*
X85730000Y41335000D02*
X87060000Y41335000D01*
X87060000Y41335000D02*
X87060000Y40005000D01*
%TO.C,J14*%
X87570000Y19100000D02*
X88900000Y19100000D01*
X87570000Y17770000D02*
X87570000Y19100000D01*
X87570000Y16500000D02*
X87570000Y8820000D01*
X87570000Y16500000D02*
X90230000Y16500000D01*
X87570000Y8820000D02*
X90230000Y8820000D01*
X90230000Y16500000D02*
X90230000Y8820000D01*
%TO.C,R2*%
X12192500Y23876000D02*
X12882500Y23876000D01*
X12882500Y25596000D02*
X12882500Y22156000D01*
X12882500Y22156000D02*
X22122500Y22156000D01*
X22122500Y25596000D02*
X12882500Y25596000D01*
X22122500Y22156000D02*
X22122500Y25596000D01*
X22812500Y23876000D02*
X22122500Y23876000D01*
%TO.C,TPE-1*%
X8854000Y30734000D02*
G75*
G02*
X4354000Y30734000I-2250000J0D01*
G01*
X4354000Y30734000D02*
G75*
G02*
X8854000Y30734000I2250000J0D01*
G01*
%TO.C,R13*%
X50090000Y22640936D02*
X50090000Y24095064D01*
X51910000Y22640936D02*
X51910000Y24095064D01*
%TO.C,R14*%
X57623064Y34438000D02*
X56168936Y34438000D01*
X57623064Y32618000D02*
X56168936Y32618000D01*
%TO.C,C8*%
X50596748Y34438000D02*
X52019252Y34438000D01*
X50596748Y32618000D02*
X52019252Y32618000D01*
%TO.C,J8*%
X57095000Y7680000D02*
X57095000Y5020000D01*
X59695000Y7680000D02*
X57095000Y7680000D01*
X59695000Y7680000D02*
X59695000Y5020000D01*
X59695000Y5020000D02*
X57095000Y5020000D01*
X60965000Y7680000D02*
X62295000Y7680000D01*
X62295000Y7680000D02*
X62295000Y6350000D01*
%TO.C,C13*%
X80387380Y22667000D02*
X81017380Y22667000D01*
X80702380Y22982000D02*
X80702380Y22352000D01*
X83887621Y24058000D02*
X83887621Y17598000D01*
X83927621Y24058000D02*
X83927621Y17598000D01*
X83967621Y24058000D02*
X83967621Y17598000D01*
X84007621Y24056000D02*
X84007621Y17600000D01*
X84047621Y24055000D02*
X84047621Y17601000D01*
X84087621Y24052000D02*
X84087621Y17604000D01*
X84127621Y24050000D02*
X84127621Y21868000D01*
X84127621Y19788000D02*
X84127621Y17606000D01*
X84167621Y24046000D02*
X84167621Y21868000D01*
X84167621Y19788000D02*
X84167621Y17610000D01*
X84207621Y24043000D02*
X84207621Y21868000D01*
X84207621Y19788000D02*
X84207621Y17613000D01*
X84247621Y24039000D02*
X84247621Y21868000D01*
X84247621Y19788000D02*
X84247621Y17617000D01*
X84287621Y24034000D02*
X84287621Y21868000D01*
X84287621Y19788000D02*
X84287621Y17622000D01*
X84327621Y24029000D02*
X84327621Y21868000D01*
X84327621Y19788000D02*
X84327621Y17627000D01*
X84367621Y24023000D02*
X84367621Y21868000D01*
X84367621Y19788000D02*
X84367621Y17633000D01*
X84407621Y24017000D02*
X84407621Y21868000D01*
X84407621Y19788000D02*
X84407621Y17639000D01*
X84447621Y24010000D02*
X84447621Y21868000D01*
X84447621Y19788000D02*
X84447621Y17646000D01*
X84487621Y24003000D02*
X84487621Y21868000D01*
X84487621Y19788000D02*
X84487621Y17653000D01*
X84527621Y23995000D02*
X84527621Y21868000D01*
X84527621Y19788000D02*
X84527621Y17661000D01*
X84567621Y23987000D02*
X84567621Y21868000D01*
X84567621Y19788000D02*
X84567621Y17669000D01*
X84608621Y23978000D02*
X84608621Y21868000D01*
X84608621Y19788000D02*
X84608621Y17678000D01*
X84648621Y23969000D02*
X84648621Y21868000D01*
X84648621Y19788000D02*
X84648621Y17687000D01*
X84688621Y23959000D02*
X84688621Y21868000D01*
X84688621Y19788000D02*
X84688621Y17697000D01*
X84728621Y23949000D02*
X84728621Y21868000D01*
X84728621Y19788000D02*
X84728621Y17707000D01*
X84768621Y23938000D02*
X84768621Y21868000D01*
X84768621Y19788000D02*
X84768621Y17718000D01*
X84808621Y23926000D02*
X84808621Y21868000D01*
X84808621Y19788000D02*
X84808621Y17730000D01*
X84848621Y23914000D02*
X84848621Y21868000D01*
X84848621Y19788000D02*
X84848621Y17742000D01*
X84888621Y23902000D02*
X84888621Y21868000D01*
X84888621Y19788000D02*
X84888621Y17754000D01*
X84928621Y23889000D02*
X84928621Y21868000D01*
X84928621Y19788000D02*
X84928621Y17767000D01*
X84968621Y23875000D02*
X84968621Y21868000D01*
X84968621Y19788000D02*
X84968621Y17781000D01*
X85008621Y23861000D02*
X85008621Y21868000D01*
X85008621Y19788000D02*
X85008621Y17795000D01*
X85048621Y23846000D02*
X85048621Y21868000D01*
X85048621Y19788000D02*
X85048621Y17810000D01*
X85088621Y23830000D02*
X85088621Y21868000D01*
X85088621Y19788000D02*
X85088621Y17826000D01*
X85128621Y23814000D02*
X85128621Y21868000D01*
X85128621Y19788000D02*
X85128621Y17842000D01*
X85168621Y23798000D02*
X85168621Y21868000D01*
X85168621Y19788000D02*
X85168621Y17858000D01*
X85208621Y23780000D02*
X85208621Y21868000D01*
X85208621Y19788000D02*
X85208621Y17876000D01*
X85248621Y23762000D02*
X85248621Y21868000D01*
X85248621Y19788000D02*
X85248621Y17894000D01*
X85288621Y23744000D02*
X85288621Y21868000D01*
X85288621Y19788000D02*
X85288621Y17912000D01*
X85328621Y23724000D02*
X85328621Y21868000D01*
X85328621Y19788000D02*
X85328621Y17932000D01*
X85368621Y23704000D02*
X85368621Y21868000D01*
X85368621Y19788000D02*
X85368621Y17952000D01*
X85408621Y23684000D02*
X85408621Y21868000D01*
X85408621Y19788000D02*
X85408621Y17972000D01*
X85448621Y23662000D02*
X85448621Y21868000D01*
X85448621Y19788000D02*
X85448621Y17994000D01*
X85488621Y23640000D02*
X85488621Y21868000D01*
X85488621Y19788000D02*
X85488621Y18016000D01*
X85528621Y23618000D02*
X85528621Y21868000D01*
X85528621Y19788000D02*
X85528621Y18038000D01*
X85568621Y23594000D02*
X85568621Y21868000D01*
X85568621Y19788000D02*
X85568621Y18062000D01*
X85608621Y23570000D02*
X85608621Y21868000D01*
X85608621Y19788000D02*
X85608621Y18086000D01*
X85648621Y23544000D02*
X85648621Y21868000D01*
X85648621Y19788000D02*
X85648621Y18112000D01*
X85688621Y23518000D02*
X85688621Y21868000D01*
X85688621Y19788000D02*
X85688621Y18138000D01*
X85728621Y23492000D02*
X85728621Y21868000D01*
X85728621Y19788000D02*
X85728621Y18164000D01*
X85768621Y23464000D02*
X85768621Y21868000D01*
X85768621Y19788000D02*
X85768621Y18192000D01*
X85808621Y23435000D02*
X85808621Y21868000D01*
X85808621Y19788000D02*
X85808621Y18221000D01*
X85848621Y23406000D02*
X85848621Y21868000D01*
X85848621Y19788000D02*
X85848621Y18250000D01*
X85888621Y23376000D02*
X85888621Y21868000D01*
X85888621Y19788000D02*
X85888621Y18280000D01*
X85928621Y23344000D02*
X85928621Y21868000D01*
X85928621Y19788000D02*
X85928621Y18312000D01*
X85968621Y23312000D02*
X85968621Y21868000D01*
X85968621Y19788000D02*
X85968621Y18344000D01*
X86008621Y23278000D02*
X86008621Y21868000D01*
X86008621Y19788000D02*
X86008621Y18378000D01*
X86048621Y23244000D02*
X86048621Y21868000D01*
X86048621Y19788000D02*
X86048621Y18412000D01*
X86088621Y23208000D02*
X86088621Y21868000D01*
X86088621Y19788000D02*
X86088621Y18448000D01*
X86128621Y23171000D02*
X86128621Y21868000D01*
X86128621Y19788000D02*
X86128621Y18485000D01*
X86168621Y23133000D02*
X86168621Y21868000D01*
X86168621Y19788000D02*
X86168621Y18523000D01*
X86208621Y23093000D02*
X86208621Y18563000D01*
X86248621Y23052000D02*
X86248621Y18604000D01*
X86288621Y23010000D02*
X86288621Y18646000D01*
X86328621Y22965000D02*
X86328621Y18691000D01*
X86368621Y22920000D02*
X86368621Y18736000D01*
X86408621Y22872000D02*
X86408621Y18784000D01*
X86448621Y22823000D02*
X86448621Y18833000D01*
X86488621Y22772000D02*
X86488621Y18884000D01*
X86528621Y22718000D02*
X86528621Y18938000D01*
X86568621Y22662000D02*
X86568621Y18994000D01*
X86608621Y22604000D02*
X86608621Y19052000D01*
X86648621Y22542000D02*
X86648621Y19114000D01*
X86688621Y22478000D02*
X86688621Y19178000D01*
X86728621Y22409000D02*
X86728621Y19247000D01*
X86768621Y22337000D02*
X86768621Y19319000D01*
X86808621Y22260000D02*
X86808621Y19396000D01*
X86848621Y22178000D02*
X86848621Y19478000D01*
X86888621Y22090000D02*
X86888621Y19566000D01*
X86928621Y21993000D02*
X86928621Y19663000D01*
X86968621Y21887000D02*
X86968621Y19769000D01*
X87008621Y21768000D02*
X87008621Y19888000D01*
X87048621Y21630000D02*
X87048621Y20026000D01*
X87088621Y21461000D02*
X87088621Y20195000D01*
X87128621Y21230000D02*
X87128621Y20426000D01*
X87157621Y20828000D02*
G75*
G02*
X80617621Y20828000I-3270000J0D01*
G01*
X80617621Y20828000D02*
G75*
G02*
X87157621Y20828000I3270000J0D01*
G01*
%TO.C,U1*%
X29485000Y31165000D02*
X29485000Y20885000D01*
X29485000Y20885000D02*
X33985000Y20885000D01*
X30735000Y31165000D02*
X29485000Y31165000D01*
X33985000Y31165000D02*
X32735000Y31165000D01*
X33985000Y20885000D02*
X33985000Y31165000D01*
X32735000Y31165000D02*
G75*
G02*
X30735000Y31165000I-1000000J0D01*
G01*
%TO.C,R5*%
X22410000Y17066000D02*
X22410000Y7826000D01*
X22410000Y7826000D02*
X25850000Y7826000D01*
X24130000Y17756000D02*
X24130000Y17066000D01*
X24130000Y7136000D02*
X24130000Y7826000D01*
X25850000Y17066000D02*
X22410000Y17066000D01*
X25850000Y7826000D02*
X25850000Y17066000D01*
%TO.C,J4*%
X77918000Y31053000D02*
X79248000Y31053000D01*
X77918000Y29723000D02*
X77918000Y31053000D01*
X77918000Y28453000D02*
X77918000Y25853000D01*
X77918000Y28453000D02*
X80578000Y28453000D01*
X77918000Y25853000D02*
X80578000Y25853000D01*
X80578000Y28453000D02*
X80578000Y25853000D01*
%TO.C,TPRawOut1*%
X46154000Y34544000D02*
G75*
G02*
X43254000Y34544000I-1450000J0D01*
G01*
X43254000Y34544000D02*
G75*
G02*
X46154000Y34544000I1450000J0D01*
G01*
%TO.C,R11*%
X53090000Y27143064D02*
X53090000Y25688936D01*
X54910000Y27143064D02*
X54910000Y25688936D01*
%TO.C,C4*%
X27030000Y18491252D02*
X27030000Y17068748D01*
X28850000Y18491252D02*
X28850000Y17068748D01*
%TO.C,R6*%
X22410000Y44498000D02*
X22410000Y35258000D01*
X22410000Y35258000D02*
X25850000Y35258000D01*
X24130000Y45188000D02*
X24130000Y44498000D01*
X24130000Y34568000D02*
X24130000Y35258000D01*
X25850000Y44498000D02*
X22410000Y44498000D01*
X25850000Y35258000D02*
X25850000Y44498000D01*
%TO.C,J5*%
X68520000Y41335000D02*
X68520000Y38675000D01*
X71120000Y41335000D02*
X68520000Y41335000D01*
X71120000Y41335000D02*
X71120000Y38675000D01*
X71120000Y38675000D02*
X68520000Y38675000D01*
X72390000Y41335000D02*
X73720000Y41335000D01*
X73720000Y41335000D02*
X73720000Y40005000D01*
%TO.C,R1*%
X16775436Y24786000D02*
X18229564Y24786000D01*
X16775436Y22966000D02*
X18229564Y22966000D01*
%TO.C,C3*%
X37825000Y28498748D02*
X37825000Y29921252D01*
X39645000Y28498748D02*
X39645000Y29921252D01*
%TO.C,J12*%
X36526000Y13402000D02*
X36526000Y14732000D01*
X37856000Y13402000D02*
X36526000Y13402000D01*
X39126000Y16062000D02*
X46806000Y16062000D01*
X39126000Y13402000D02*
X39126000Y16062000D01*
X39126000Y13402000D02*
X46806000Y13402000D01*
X46806000Y13402000D02*
X46806000Y16062000D01*
%TO.C,TP_DCBIAS1*%
X86286000Y27940000D02*
G75*
G02*
X83386000Y27940000I-1450000J0D01*
G01*
X83386000Y27940000D02*
G75*
G02*
X86286000Y27940000I1450000J0D01*
G01*
%TO.C,LED2*%
X44583000Y5215000D02*
X48643000Y5215000D01*
X48643000Y7485000D02*
X44583000Y7485000D01*
X48643000Y5215000D02*
X48643000Y7485000D01*
%TO.C,R3*%
X12182867Y28097038D02*
X12872867Y28097038D01*
X12872867Y29817038D02*
X12872867Y26377038D01*
X12872867Y26377038D02*
X22112867Y26377038D01*
X22112867Y29817038D02*
X12872867Y29817038D01*
X22112867Y26377038D02*
X22112867Y29817038D01*
X22802867Y28097038D02*
X22112867Y28097038D01*
%TO.C,C14*%
X40541057Y26574546D02*
X40541057Y22834546D01*
X40541057Y26574546D02*
X47981057Y26574546D01*
X40541057Y22834546D02*
X47981057Y22834546D01*
X47981057Y26574546D02*
X47981057Y22834546D01*
%TO.C,TPConditionedOut1*%
X84635000Y45720000D02*
G75*
G02*
X81735000Y45720000I-1450000J0D01*
G01*
X81735000Y45720000D02*
G75*
G02*
X84635000Y45720000I1450000J0D01*
G01*
%TO.C,R7*%
X31022936Y35200000D02*
X32477064Y35200000D01*
X31022936Y33380000D02*
X32477064Y33380000D01*
%TO.C,TP+9V1*%
X65750000Y41148000D02*
G75*
G02*
X61250000Y41148000I-2250000J0D01*
G01*
X61250000Y41148000D02*
G75*
G02*
X65750000Y41148000I2250000J0D01*
G01*
%TO.C,C7*%
X49116000Y38492000D02*
X49116000Y39232000D01*
X49156000Y38325000D02*
X49156000Y39399000D01*
X49196000Y38198000D02*
X49196000Y39526000D01*
X49236000Y38094000D02*
X49236000Y39630000D01*
X49276000Y38003000D02*
X49276000Y39721000D01*
X49316000Y37922000D02*
X49316000Y39802000D01*
X49356000Y37849000D02*
X49356000Y39875000D01*
X49396000Y39702000D02*
X49396000Y39942000D01*
X49396000Y37782000D02*
X49396000Y38022000D01*
X49436000Y39702000D02*
X49436000Y40004000D01*
X49436000Y37720000D02*
X49436000Y38022000D01*
X49476000Y39702000D02*
X49476000Y40062000D01*
X49476000Y37662000D02*
X49476000Y38022000D01*
X49516000Y39702000D02*
X49516000Y40116000D01*
X49516000Y37608000D02*
X49516000Y38022000D01*
X49556000Y39702000D02*
X49556000Y40166000D01*
X49556000Y37558000D02*
X49556000Y38022000D01*
X49596000Y39702000D02*
X49596000Y40213000D01*
X49596000Y37511000D02*
X49596000Y38022000D01*
X49636000Y39702000D02*
X49636000Y40258000D01*
X49636000Y37466000D02*
X49636000Y38022000D01*
X49676000Y39702000D02*
X49676000Y40300000D01*
X49676000Y37424000D02*
X49676000Y38022000D01*
X49716000Y39702000D02*
X49716000Y40340000D01*
X49716000Y37384000D02*
X49716000Y38022000D01*
X49756000Y39702000D02*
X49756000Y40378000D01*
X49756000Y37346000D02*
X49756000Y38022000D01*
X49796000Y39702000D02*
X49796000Y40414000D01*
X49796000Y37310000D02*
X49796000Y38022000D01*
X49836000Y39702000D02*
X49836000Y40449000D01*
X49836000Y37275000D02*
X49836000Y38022000D01*
X49876000Y39702000D02*
X49876000Y40481000D01*
X49876000Y37243000D02*
X49876000Y38022000D01*
X49916000Y39702000D02*
X49916000Y40512000D01*
X49916000Y37212000D02*
X49916000Y38022000D01*
X49956000Y39702000D02*
X49956000Y40542000D01*
X49956000Y37182000D02*
X49956000Y38022000D01*
X49996000Y39702000D02*
X49996000Y40570000D01*
X49996000Y37154000D02*
X49996000Y38022000D01*
X50036000Y39702000D02*
X50036000Y40597000D01*
X50036000Y37127000D02*
X50036000Y38022000D01*
X50076000Y39702000D02*
X50076000Y40622000D01*
X50076000Y37102000D02*
X50076000Y38022000D01*
X50116000Y39702000D02*
X50116000Y40647000D01*
X50116000Y37077000D02*
X50116000Y38022000D01*
X50156000Y39702000D02*
X50156000Y40670000D01*
X50156000Y37054000D02*
X50156000Y38022000D01*
X50196000Y39702000D02*
X50196000Y40692000D01*
X50196000Y37032000D02*
X50196000Y38022000D01*
X50236000Y39702000D02*
X50236000Y40713000D01*
X50236000Y37011000D02*
X50236000Y38022000D01*
X50276000Y39702000D02*
X50276000Y40732000D01*
X50276000Y36992000D02*
X50276000Y38022000D01*
X50316000Y39702000D02*
X50316000Y40751000D01*
X50316000Y36973000D02*
X50316000Y38022000D01*
X50356000Y39702000D02*
X50356000Y40769000D01*
X50356000Y36955000D02*
X50356000Y38022000D01*
X50396000Y39702000D02*
X50396000Y40786000D01*
X50396000Y36938000D02*
X50396000Y38022000D01*
X50436000Y39702000D02*
X50436000Y40802000D01*
X50436000Y36922000D02*
X50436000Y38022000D01*
X50476000Y39702000D02*
X50476000Y40816000D01*
X50476000Y36908000D02*
X50476000Y38022000D01*
X50517000Y39702000D02*
X50517000Y40830000D01*
X50517000Y36894000D02*
X50517000Y38022000D01*
X50557000Y39702000D02*
X50557000Y40844000D01*
X50557000Y36880000D02*
X50557000Y38022000D01*
X50597000Y39702000D02*
X50597000Y40856000D01*
X50597000Y36868000D02*
X50597000Y38022000D01*
X50637000Y39702000D02*
X50637000Y40867000D01*
X50637000Y36857000D02*
X50637000Y38022000D01*
X50677000Y39702000D02*
X50677000Y40878000D01*
X50677000Y36846000D02*
X50677000Y38022000D01*
X50717000Y39702000D02*
X50717000Y40887000D01*
X50717000Y36837000D02*
X50717000Y38022000D01*
X50757000Y39702000D02*
X50757000Y40896000D01*
X50757000Y36828000D02*
X50757000Y38022000D01*
X50797000Y39702000D02*
X50797000Y40904000D01*
X50797000Y36820000D02*
X50797000Y38022000D01*
X50837000Y39702000D02*
X50837000Y40912000D01*
X50837000Y36812000D02*
X50837000Y38022000D01*
X50877000Y39702000D02*
X50877000Y40918000D01*
X50877000Y36806000D02*
X50877000Y38022000D01*
X50917000Y39702000D02*
X50917000Y40924000D01*
X50917000Y36800000D02*
X50917000Y38022000D01*
X50957000Y39702000D02*
X50957000Y40929000D01*
X50957000Y36795000D02*
X50957000Y38022000D01*
X50997000Y39702000D02*
X50997000Y40933000D01*
X50997000Y36791000D02*
X50997000Y38022000D01*
X51037000Y36788000D02*
X51037000Y40936000D01*
X51077000Y36785000D02*
X51077000Y40939000D01*
X51117000Y36783000D02*
X51117000Y40941000D01*
X51157000Y36782000D02*
X51157000Y40942000D01*
X51197000Y36782000D02*
X51197000Y40942000D01*
X53266801Y37467000D02*
X53266801Y37867000D01*
X53466801Y37667000D02*
X53066801Y37667000D01*
X53317000Y38862000D02*
G75*
G02*
X49077000Y38862000I-2120000J0D01*
G01*
X49077000Y38862000D02*
G75*
G02*
X53317000Y38862000I2120000J0D01*
G01*
%TO.C,J7*%
X57090000Y47050000D02*
X57090000Y44390000D01*
X59690000Y47050000D02*
X57090000Y47050000D01*
X59690000Y47050000D02*
X59690000Y44390000D01*
X59690000Y44390000D02*
X57090000Y44390000D01*
X60960000Y47050000D02*
X62290000Y47050000D01*
X62290000Y47050000D02*
X62290000Y45720000D01*
%TO.C,J1*%
X9568500Y18861000D02*
X10898500Y18861000D01*
X9568500Y17531000D02*
X9568500Y18861000D01*
X9568500Y16261000D02*
X9568500Y13661000D01*
X9568500Y16261000D02*
X12228500Y16261000D01*
X9568500Y13661000D02*
X12228500Y13661000D01*
X12228500Y16261000D02*
X12228500Y13661000D01*
%TO.C,J3*%
X13280000Y7680000D02*
X13280000Y5020000D01*
X15880000Y7680000D02*
X13280000Y7680000D01*
X15880000Y7680000D02*
X15880000Y5020000D01*
X15880000Y5020000D02*
X13280000Y5020000D01*
X17150000Y7680000D02*
X18480000Y7680000D01*
X18480000Y7680000D02*
X18480000Y6350000D01*
%TO.C,TP-9V1*%
X60670000Y13335000D02*
G75*
G02*
X56170000Y13335000I-2250000J0D01*
G01*
X56170000Y13335000D02*
G75*
G02*
X60670000Y13335000I2250000J0D01*
G01*
%TO.C,R12*%
X77830000Y21555064D02*
X77830000Y20100936D01*
X79650000Y21555064D02*
X79650000Y20100936D01*
%TO.C,J11*%
X72838000Y18602000D02*
X74168000Y18602000D01*
X72838000Y17272000D02*
X72838000Y18602000D01*
X72838000Y16002000D02*
X72838000Y15942000D01*
X72838000Y16002000D02*
X75498000Y16002000D01*
X72838000Y15942000D02*
X75498000Y15942000D01*
X75498000Y16002000D02*
X75498000Y15942000D01*
%TO.C,J10*%
X65726000Y36890000D02*
X67056000Y36890000D01*
X65726000Y35560000D02*
X65726000Y36890000D01*
X65726000Y34290000D02*
X65726000Y34230000D01*
X65726000Y34290000D02*
X68386000Y34290000D01*
X65726000Y34230000D02*
X68386000Y34230000D01*
X68386000Y34290000D02*
X68386000Y34230000D01*
%TO.C,J2*%
X9568500Y38165000D02*
X10898500Y38165000D01*
X9568500Y36835000D02*
X9568500Y38165000D01*
X9568500Y35565000D02*
X9568500Y32965000D01*
X9568500Y35565000D02*
X12228500Y35565000D01*
X9568500Y32965000D02*
X12228500Y32965000D01*
X12228500Y35565000D02*
X12228500Y32965000D01*
%TO.C,R4*%
X16765803Y29007038D02*
X18219931Y29007038D01*
X16765803Y27187038D02*
X18219931Y27187038D01*
%TO.C,C10*%
X73355252Y33930000D02*
X71932748Y33930000D01*
X73355252Y32110000D02*
X71932748Y32110000D01*
%TO.C,J13*%
X94670000Y30330000D02*
X96000000Y30330000D01*
X94670000Y29000000D02*
X94670000Y30330000D01*
X94670000Y27730000D02*
X94670000Y25130000D01*
X94670000Y27730000D02*
X97330000Y27730000D01*
X94670000Y25130000D02*
X97330000Y25130000D01*
X97330000Y27730000D02*
X97330000Y25130000D01*
%TO.C,LED1*%
X43768000Y46855000D02*
X43768000Y44585000D01*
X43768000Y44585000D02*
X47828000Y44585000D01*
X47828000Y46855000D02*
X43768000Y46855000D01*
%TO.C,C6*%
X43401148Y29485000D02*
X44823652Y29485000D01*
X43401148Y27665000D02*
X44823652Y27665000D01*
%TO.C,R17*%
X52797064Y7260000D02*
X51342936Y7260000D01*
X52797064Y5440000D02*
X51342936Y5440000D01*
%TO.C,TPE+1*%
X8854000Y21336000D02*
G75*
G02*
X4354000Y21336000I-2250000J0D01*
G01*
X4354000Y21336000D02*
G75*
G02*
X8854000Y21336000I2250000J0D01*
G01*
%TO.C,R9*%
X23220000Y40605064D02*
X23220000Y39150936D01*
X25040000Y40605064D02*
X25040000Y39150936D01*
%TO.C,J9*%
X13143000Y42866000D02*
X13143000Y44196000D01*
X14473000Y42866000D02*
X13143000Y42866000D01*
X15743000Y45526000D02*
X18343000Y45526000D01*
X15743000Y42866000D02*
X15743000Y45526000D01*
X15743000Y42866000D02*
X18343000Y42866000D01*
X18343000Y42866000D02*
X18343000Y45526000D01*
%TD*%
%LPC*%
D15*
%TO.C,J15*%
X96000000Y21275000D03*
D16*
X96000000Y18735000D03*
%TD*%
D17*
%TO.C,U2*%
X66660000Y29835000D03*
D18*
X66660000Y27295000D03*
X66660000Y24755000D03*
X66660000Y22215000D03*
X74280000Y22215000D03*
X74280000Y24755000D03*
X74280000Y27295000D03*
X74280000Y29835000D03*
%TD*%
D19*
%TO.C,R8*%
X24130000Y10896000D03*
X24130000Y13996000D03*
%TD*%
D20*
%TO.C,C5*%
X45081323Y19925060D03*
D21*
X43081323Y19925060D03*
%TD*%
D22*
%TO.C,R15*%
X62992000Y32538000D03*
X62992000Y29438000D03*
%TD*%
D23*
%TO.C,R16*%
X53620000Y45720000D03*
X50520000Y45720000D03*
%TD*%
D24*
%TO.C,H1*%
X4699000Y4826000D03*
%TD*%
D25*
%TO.C,TPGND1*%
X79248000Y5080000D03*
%TD*%
D26*
%TO.C,C11*%
X66675000Y19342500D03*
X66675000Y16217500D03*
%TD*%
D15*
%TO.C,J6*%
X85730000Y40005000D03*
D16*
X83190000Y40005000D03*
%TD*%
D24*
%TO.C,H3*%
X95123000Y45466000D03*
%TD*%
D15*
%TO.C,J14*%
X88900000Y17770000D03*
D16*
X88900000Y15230000D03*
X88900000Y12690000D03*
X88900000Y10150000D03*
%TD*%
D27*
%TO.C,R2*%
X11152500Y23876000D03*
D28*
X23852500Y23876000D03*
%TD*%
D25*
%TO.C,TPE-1*%
X6604000Y30734000D03*
%TD*%
D19*
%TO.C,R13*%
X51000000Y21818000D03*
X51000000Y24918000D03*
%TD*%
D24*
%TO.C,H2*%
X4699000Y45466000D03*
%TD*%
D23*
%TO.C,R14*%
X58446000Y33528000D03*
X55346000Y33528000D03*
%TD*%
D29*
%TO.C,C8*%
X49745500Y33528000D03*
X52870500Y33528000D03*
%TD*%
D30*
%TO.C,R10*%
X27940000Y34290000D03*
D31*
X35560000Y34290000D03*
%TD*%
D15*
%TO.C,J8*%
X60965000Y6350000D03*
D16*
X58425000Y6350000D03*
%TD*%
D32*
%TO.C,C13*%
X82637621Y20828000D03*
D27*
X85137621Y20828000D03*
%TD*%
D17*
%TO.C,U1*%
X27925000Y29835000D03*
D18*
X27925000Y27295000D03*
X27925000Y24755000D03*
X27925000Y22215000D03*
X35545000Y22215000D03*
X35545000Y24755000D03*
X35545000Y27295000D03*
X35545000Y29835000D03*
%TD*%
D27*
%TO.C,R5*%
X24130000Y18796000D03*
D28*
X24130000Y6096000D03*
%TD*%
D15*
%TO.C,J4*%
X79248000Y29723000D03*
D16*
X79248000Y27183000D03*
%TD*%
D33*
%TO.C,TPRawOut1*%
X44704000Y34544000D03*
%TD*%
D22*
%TO.C,R11*%
X54000000Y27966000D03*
X54000000Y24866000D03*
%TD*%
D26*
%TO.C,C4*%
X27940000Y19342500D03*
X27940000Y16217500D03*
%TD*%
D27*
%TO.C,R6*%
X24130000Y46228000D03*
D28*
X24130000Y33528000D03*
%TD*%
D15*
%TO.C,J5*%
X72390000Y40005000D03*
D16*
X69850000Y40005000D03*
%TD*%
D34*
%TO.C,R1*%
X15952500Y23876000D03*
X19052500Y23876000D03*
%TD*%
D24*
%TO.C,H4*%
X95123000Y4826000D03*
%TD*%
D35*
%TO.C,C3*%
X38735000Y27647500D03*
X38735000Y30772500D03*
%TD*%
D15*
%TO.C,J12*%
X37856000Y14732000D03*
D16*
X40396000Y14732000D03*
X42936000Y14732000D03*
X45476000Y14732000D03*
%TD*%
D33*
%TO.C,TP_DCBIAS1*%
X84836000Y27940000D03*
%TD*%
D36*
%TO.C,LED2*%
X47670500Y6350000D03*
X44695500Y6350000D03*
%TD*%
D27*
%TO.C,R3*%
X11142867Y28097038D03*
D28*
X23842867Y28097038D03*
%TD*%
D37*
%TO.C,C14*%
X41761057Y24704546D03*
X46761057Y24704546D03*
%TD*%
D33*
%TO.C,TPConditionedOut1*%
X83185000Y45720000D03*
%TD*%
D34*
%TO.C,R7*%
X30200000Y34290000D03*
X33300000Y34290000D03*
%TD*%
D25*
%TO.C,TP+9V1*%
X63500000Y41148000D03*
%TD*%
D20*
%TO.C,C7*%
X52197000Y38862000D03*
D21*
X50197000Y38862000D03*
%TD*%
D15*
%TO.C,J7*%
X60960000Y45720000D03*
D16*
X58420000Y45720000D03*
%TD*%
D15*
%TO.C,J1*%
X10898500Y17531000D03*
D16*
X10898500Y14991000D03*
%TD*%
D15*
%TO.C,J3*%
X17150000Y6350000D03*
D16*
X14610000Y6350000D03*
%TD*%
D25*
%TO.C,TP-9V1*%
X58420000Y13335000D03*
%TD*%
D22*
%TO.C,R12*%
X78740000Y22378000D03*
X78740000Y19278000D03*
%TD*%
D15*
%TO.C,J11*%
X74168000Y17272000D03*
%TD*%
%TO.C,J10*%
X67056000Y35560000D03*
%TD*%
%TO.C,J2*%
X10898500Y36835000D03*
D16*
X10898500Y34295000D03*
%TD*%
D34*
%TO.C,R4*%
X15942867Y28097038D03*
X19042867Y28097038D03*
%TD*%
D38*
%TO.C,C10*%
X74206500Y33020000D03*
X71081500Y33020000D03*
%TD*%
D15*
%TO.C,J13*%
X96000000Y29000000D03*
D16*
X96000000Y26460000D03*
%TD*%
D39*
%TO.C,LED1*%
X44740500Y45720000D03*
X47715500Y45720000D03*
%TD*%
D29*
%TO.C,C6*%
X42549900Y28575000D03*
X45674900Y28575000D03*
%TD*%
D23*
%TO.C,R17*%
X53620000Y6350000D03*
X50520000Y6350000D03*
%TD*%
D25*
%TO.C,TPE+1*%
X6604000Y21336000D03*
%TD*%
D22*
%TO.C,R9*%
X24130000Y41428000D03*
X24130000Y38328000D03*
%TD*%
D15*
%TO.C,J9*%
X14473000Y44196000D03*
D16*
X17013000Y44196000D03*
%TD*%
%LPD*%
M02*
