M48
; DRILL file {KiCad 8.0.0-8.0.0-1~ubuntu22.04.1} date 2024-03-07T14:59:43-0800
; FORMAT={-:-/ absolute / metric / decimal}
; #@! TF.CreationDate,2024-03-07T14:59:43-08:00
; #@! TF.GenerationSoftware,Kicad,Pcbnew,8.0.0-8.0.0-1~ubuntu22.04.1
; #@! TF.FileFunction,Plated,1,2,PTH
FMAT,2
METRIC
; #@! TA.AperFunction,Plated,PTH,ComponentDrill
T1C0.600
; #@! TA.AperFunction,Plated,PTH,ComponentDrill
T2C0.700
; #@! TA.AperFunction,Plated,PTH,ComponentDrill
T3C0.800
; #@! TA.AperFunction,Plated,PTH,ComponentDrill
T4C1.000
%
G90
G05
T1
X43.081Y19.925
X45.081Y19.925
X50.197Y38.862
X52.197Y38.862
T2
X27.94Y34.29
X35.56Y34.29
T3
X11.143Y28.097
X11.152Y23.876
X23.843Y28.097
X23.852Y23.876
X24.13Y46.228
X24.13Y33.528
X24.13Y18.796
X24.13Y6.096
X82.638Y20.828
X85.138Y20.828
T4
X10.899Y36.835
X10.899Y34.295
X10.899Y17.531
X10.899Y14.991
X14.473Y44.196
X14.61Y6.35
X17.013Y44.196
X17.15Y6.35
X27.925Y29.835
X27.925Y27.295
X27.925Y24.755
X27.925Y22.215
X35.545Y29.835
X35.545Y27.295
X35.545Y24.755
X35.545Y22.215
X37.856Y14.732
X40.396Y14.732
X41.761Y24.705
X42.936Y14.732
X45.476Y14.732
X46.761Y24.705
X58.42Y45.72
X58.425Y6.35
X60.96Y45.72
X60.965Y6.35
X66.66Y29.835
X66.66Y27.295
X66.66Y24.755
X66.66Y22.215
X67.056Y35.56
X69.85Y40.005
X72.39Y40.005
X74.168Y17.272
X74.28Y29.835
X74.28Y27.295
X74.28Y24.755
X74.28Y22.215
X79.248Y29.723
X79.248Y27.183
X83.19Y40.005
X85.73Y40.005
X88.9Y17.77
X88.9Y15.23
X88.9Y12.69
X88.9Y10.15
X96.0Y29.0
X96.0Y26.46
X96.0Y21.275
X96.0Y18.735
M30
