%TF.GenerationSoftware,KiCad,Pcbnew,8.0.0-8.0.0-1~ubuntu22.04.1*%
%TF.CreationDate,2024-03-07T15:00:58-08:00*%
%TF.ProjectId,INAAmplifierRev2,494e4141-6d70-46c6-9966-696572526576,rev?*%
%TF.SameCoordinates,PX2bf7208PY9a4d770*%
%TF.FileFunction,Copper,L1,Top*%
%TF.FilePolarity,Positive*%
%FSLAX46Y46*%
G04 Gerber Fmt 4.6, Leading zero omitted, Abs format (unit mm)*
G04 Created by KiCad (PCBNEW 8.0.0-8.0.0-1~ubuntu22.04.1) date 2024-03-07 15:00:58*
%MOMM*%
%LPD*%
G01*
G04 APERTURE LIST*
G04 Aperture macros list*
%AMRoundRect*
0 Rectangle with rounded corners*
0 $1 Rounding radius*
0 $2 $3 $4 $5 $6 $7 $8 $9 X,Y pos of 4 corners*
0 Add a 4 corners polygon primitive as box body*
4,1,4,$2,$3,$4,$5,$6,$7,$8,$9,$2,$3,0*
0 Add four circle primitives for the rounded corners*
1,1,$1+$1,$2,$3*
1,1,$1+$1,$4,$5*
1,1,$1+$1,$6,$7*
1,1,$1+$1,$8,$9*
0 Add four rect primitives between the rounded corners*
20,1,$1+$1,$2,$3,$4,$5,0*
20,1,$1+$1,$4,$5,$6,$7,0*
20,1,$1+$1,$6,$7,$8,$9,0*
20,1,$1+$1,$8,$9,$2,$3,0*%
G04 Aperture macros list end*
%TA.AperFunction,ComponentPad*%
%ADD10R,1.700000X1.700000*%
%TD*%
%TA.AperFunction,ComponentPad*%
%ADD11O,1.700000X1.700000*%
%TD*%
%TA.AperFunction,ComponentPad*%
%ADD12R,2.400000X1.600000*%
%TD*%
%TA.AperFunction,ComponentPad*%
%ADD13O,2.400000X1.600000*%
%TD*%
%TA.AperFunction,SMDPad,CuDef*%
%ADD14RoundRect,0.250000X0.625000X-0.400000X0.625000X0.400000X-0.625000X0.400000X-0.625000X-0.400000X0*%
%TD*%
%TA.AperFunction,ComponentPad*%
%ADD15R,1.200000X1.200000*%
%TD*%
%TA.AperFunction,ComponentPad*%
%ADD16C,1.200000*%
%TD*%
%TA.AperFunction,SMDPad,CuDef*%
%ADD17RoundRect,0.250000X-0.625000X0.400000X-0.625000X-0.400000X0.625000X-0.400000X0.625000X0.400000X0*%
%TD*%
%TA.AperFunction,SMDPad,CuDef*%
%ADD18RoundRect,0.250000X0.400000X0.625000X-0.400000X0.625000X-0.400000X-0.625000X0.400000X-0.625000X0*%
%TD*%
%TA.AperFunction,SMDPad,CuDef*%
%ADD19C,4.000000*%
%TD*%
%TA.AperFunction,SMDPad,CuDef*%
%ADD20RoundRect,0.250000X-0.650000X0.412500X-0.650000X-0.412500X0.650000X-0.412500X0.650000X0.412500X0*%
%TD*%
%TA.AperFunction,ComponentPad*%
%ADD21C,1.600000*%
%TD*%
%TA.AperFunction,ComponentPad*%
%ADD22O,1.600000X1.600000*%
%TD*%
%TA.AperFunction,SMDPad,CuDef*%
%ADD23RoundRect,0.250000X-0.412500X-0.650000X0.412500X-0.650000X0.412500X0.650000X-0.412500X0.650000X0*%
%TD*%
%TA.AperFunction,ComponentPad*%
%ADD24C,1.400000*%
%TD*%
%TA.AperFunction,ComponentPad*%
%ADD25O,1.400000X1.400000*%
%TD*%
%TA.AperFunction,ComponentPad*%
%ADD26R,1.600000X1.600000*%
%TD*%
%TA.AperFunction,SMDPad,CuDef*%
%ADD27C,2.500000*%
%TD*%
%TA.AperFunction,SMDPad,CuDef*%
%ADD28RoundRect,0.250000X-0.400000X-0.625000X0.400000X-0.625000X0.400000X0.625000X-0.400000X0.625000X0*%
%TD*%
%TA.AperFunction,SMDPad,CuDef*%
%ADD29RoundRect,0.250000X0.650000X-0.412500X0.650000X0.412500X-0.650000X0.412500X-0.650000X-0.412500X0*%
%TD*%
%TA.AperFunction,SMDPad,CuDef*%
%ADD30RoundRect,0.250001X0.462499X0.624999X-0.462499X0.624999X-0.462499X-0.624999X0.462499X-0.624999X0*%
%TD*%
%TA.AperFunction,ComponentPad*%
%ADD31C,1.800000*%
%TD*%
%TA.AperFunction,SMDPad,CuDef*%
%ADD32RoundRect,0.250000X0.412500X0.650000X-0.412500X0.650000X-0.412500X-0.650000X0.412500X-0.650000X0*%
%TD*%
%TA.AperFunction,SMDPad,CuDef*%
%ADD33RoundRect,0.250001X-0.462499X-0.624999X0.462499X-0.624999X0.462499X0.624999X-0.462499X0.624999X0*%
%TD*%
%TA.AperFunction,Conductor*%
%ADD34C,0.355600*%
%TD*%
%TA.AperFunction,Conductor*%
%ADD35C,0.508000*%
%TD*%
%TA.AperFunction,Conductor*%
%ADD36C,0.250000*%
%TD*%
G04 APERTURE END LIST*
D10*
%TO.P,J15,1,Pin_1*%
%TO.N,GND*%
X96000000Y21275000D03*
D11*
%TO.P,J15,2,Pin_2*%
%TO.N,-9V*%
X96000000Y18735000D03*
%TD*%
D12*
%TO.P,U2,1*%
%TO.N,/ConditionedOutput*%
X66660000Y29835000D03*
D13*
%TO.P,U2,2,-*%
%TO.N,Net-(U2A--)*%
X66660000Y27295000D03*
%TO.P,U2,3,+*%
%TO.N,Net-(U2A-+)*%
X66660000Y24755000D03*
%TO.P,U2,4,V-*%
%TO.N,-9V*%
X66660000Y22215000D03*
%TO.P,U2,5,+*%
%TO.N,Net-(U2B-+)*%
X74280000Y22215000D03*
%TO.P,U2,6,-*%
%TO.N,/DC_Bias_Buffer*%
X74280000Y24755000D03*
%TO.P,U2,7*%
X74280000Y27295000D03*
%TO.P,U2,8,V+*%
%TO.N,+9V*%
X74280000Y29835000D03*
%TD*%
D14*
%TO.P,R8,1*%
%TO.N,GND*%
X24130000Y10896000D03*
%TO.P,R8,2*%
%TO.N,/PosInputProtected*%
X24130000Y13996000D03*
%TD*%
D15*
%TO.P,C5,1*%
%TO.N,Net-(U2A-+)*%
X45081323Y19925060D03*
D16*
%TO.P,C5,2*%
%TO.N,Net-(C14-Pad1)*%
X43081323Y19925060D03*
%TD*%
D17*
%TO.P,R15,1*%
%TO.N,/ConditionedOutput*%
X62992000Y32538000D03*
%TO.P,R15,2*%
%TO.N,Net-(U2A--)*%
X62992000Y29438000D03*
%TD*%
D18*
%TO.P,R16,1*%
%TO.N,+9V*%
X53620000Y45720000D03*
%TO.P,R16,2*%
%TO.N,Net-(LED1-A)*%
X50520000Y45720000D03*
%TD*%
D19*
%TO.P,TPGND1,1,1*%
%TO.N,GND*%
X79248000Y5080000D03*
%TD*%
D20*
%TO.P,C11,1*%
%TO.N,-9V*%
X66675000Y19342500D03*
%TO.P,C11,2*%
%TO.N,GND*%
X66675000Y16217500D03*
%TD*%
D10*
%TO.P,J6,1,Pin_1*%
%TO.N,/ConditionedOutput*%
X85730000Y40005000D03*
D11*
%TO.P,J6,2,Pin_2*%
X83190000Y40005000D03*
%TD*%
D10*
%TO.P,J14,1,Pin_1*%
%TO.N,GND*%
X88900000Y17770000D03*
D11*
%TO.P,J14,2,Pin_2*%
X88900000Y15230000D03*
%TO.P,J14,3,Pin_3*%
X88900000Y12690000D03*
%TO.P,J14,4,Pin_4*%
X88900000Y10150000D03*
%TD*%
D21*
%TO.P,R2,1*%
%TO.N,/PosInput*%
X11152500Y23876000D03*
D22*
%TO.P,R2,2*%
%TO.N,/PosInputProtected*%
X23852500Y23876000D03*
%TD*%
D19*
%TO.P,TPE-1,1,1*%
%TO.N,/NegInput*%
X6604000Y30734000D03*
%TD*%
D14*
%TO.P,R13,1*%
%TO.N,GND*%
X51000000Y21818000D03*
%TO.P,R13,2*%
%TO.N,Net-(U2A-+)*%
X51000000Y24918000D03*
%TD*%
D18*
%TO.P,R14,1*%
%TO.N,Net-(U2A--)*%
X58446000Y33528000D03*
%TO.P,R14,2*%
%TO.N,Net-(C7-Pad1)*%
X55346000Y33528000D03*
%TD*%
D23*
%TO.P,C8,1*%
%TO.N,GND*%
X49745500Y33528000D03*
%TO.P,C8,2*%
%TO.N,Net-(C7-Pad1)*%
X52870500Y33528000D03*
%TD*%
D24*
%TO.P,R10,1*%
%TO.N,/Gain2*%
X27940000Y34290000D03*
D25*
%TO.P,R10,2*%
%TO.N,/Gain1*%
X35560000Y34290000D03*
%TD*%
D10*
%TO.P,J8,1,Pin_1*%
%TO.N,-9V*%
X60965000Y6350000D03*
D11*
%TO.P,J8,2,Pin_2*%
X58425000Y6350000D03*
%TD*%
D26*
%TO.P,C13,1*%
%TO.N,Net-(U2B-+)*%
X82637621Y20828000D03*
D21*
%TO.P,C13,2*%
%TO.N,GND*%
X85137621Y20828000D03*
%TD*%
D12*
%TO.P,U1,1,Rg*%
%TO.N,/Gain2*%
X27925000Y29835000D03*
D13*
%TO.P,U1,2,-*%
%TO.N,/NegInputProtected*%
X27925000Y27295000D03*
%TO.P,U1,3,+*%
%TO.N,/PosInputProtected*%
X27925000Y24755000D03*
%TO.P,U1,4,V-*%
%TO.N,-9V*%
X27925000Y22215000D03*
%TO.P,U1,5,Ref*%
%TO.N,GND*%
X35545000Y22215000D03*
%TO.P,U1,6*%
%TO.N,Net-(C14-Pad1)*%
X35545000Y24755000D03*
%TO.P,U1,7,V+*%
%TO.N,+9V*%
X35545000Y27295000D03*
%TO.P,U1,8,Rg*%
%TO.N,/Gain1*%
X35545000Y29835000D03*
%TD*%
D21*
%TO.P,R5,1*%
%TO.N,/PosInputProtected*%
X24130000Y18796000D03*
D22*
%TO.P,R5,2*%
%TO.N,GND*%
X24130000Y6096000D03*
%TD*%
D10*
%TO.P,J4,1,Pin_1*%
%TO.N,/DC_Bias_Buffer*%
X79248000Y29723000D03*
D11*
%TO.P,J4,2,Pin_2*%
X79248000Y27183000D03*
%TD*%
D27*
%TO.P,TPRawOut1,1,1*%
%TO.N,Net-(C14-Pad1)*%
X44704000Y34544000D03*
%TD*%
D17*
%TO.P,R11,1*%
%TO.N,+9V*%
X54000000Y27966000D03*
%TO.P,R11,2*%
%TO.N,Net-(U2A-+)*%
X54000000Y24866000D03*
%TD*%
D20*
%TO.P,C4,1*%
%TO.N,-9V*%
X27940000Y19342500D03*
%TO.P,C4,2*%
%TO.N,GND*%
X27940000Y16217500D03*
%TD*%
D21*
%TO.P,R6,1*%
%TO.N,GND*%
X24130000Y46228000D03*
D22*
%TO.P,R6,2*%
%TO.N,/NegInputProtected*%
X24130000Y33528000D03*
%TD*%
D10*
%TO.P,J5,1,Pin_1*%
%TO.N,/ConditionedOutput*%
X72390000Y40005000D03*
D11*
%TO.P,J5,2,Pin_2*%
X69850000Y40005000D03*
%TD*%
D28*
%TO.P,R1,1*%
%TO.N,/PosInput*%
X15952500Y23876000D03*
%TO.P,R1,2*%
%TO.N,/PosInputProtected*%
X19052500Y23876000D03*
%TD*%
D29*
%TO.P,C3,1*%
%TO.N,+9V*%
X38735000Y27647500D03*
%TO.P,C3,2*%
%TO.N,GND*%
X38735000Y30772500D03*
%TD*%
D10*
%TO.P,J12,1,Pin_1*%
%TO.N,GND*%
X37856000Y14732000D03*
D11*
%TO.P,J12,2,Pin_2*%
X40396000Y14732000D03*
%TO.P,J12,3,Pin_3*%
X42936000Y14732000D03*
%TO.P,J12,4,Pin_4*%
X45476000Y14732000D03*
%TD*%
D27*
%TO.P,TP_DCBIAS1,1,1*%
%TO.N,/DC_Bias_Buffer*%
X84836000Y27940000D03*
%TD*%
D30*
%TO.P,LED2,1,K*%
%TO.N,Net-(LED2-K)*%
X47670500Y6350000D03*
%TO.P,LED2,2,A*%
%TO.N,GND*%
X44695500Y6350000D03*
%TD*%
D21*
%TO.P,R3,1*%
%TO.N,/NegInput*%
X11142867Y28097038D03*
D22*
%TO.P,R3,2*%
%TO.N,/NegInputProtected*%
X23842867Y28097038D03*
%TD*%
D31*
%TO.P,C14,1*%
%TO.N,Net-(C14-Pad1)*%
X41761057Y24704546D03*
%TO.P,C14,2*%
%TO.N,Net-(U2A-+)*%
X46761057Y24704546D03*
%TD*%
D27*
%TO.P,TPConditionedOut1,1,1*%
%TO.N,/ConditionedOutput*%
X83185000Y45720000D03*
%TD*%
D28*
%TO.P,R7,1*%
%TO.N,/Gain2*%
X30200000Y34290000D03*
%TO.P,R7,2*%
%TO.N,/Gain1*%
X33300000Y34290000D03*
%TD*%
D19*
%TO.P,TP+9V1,1,1*%
%TO.N,+9V*%
X63500000Y41148000D03*
%TD*%
D15*
%TO.P,C7,1*%
%TO.N,Net-(C7-Pad1)*%
X52197000Y38862000D03*
D16*
%TO.P,C7,2*%
%TO.N,GND*%
X50197000Y38862000D03*
%TD*%
D10*
%TO.P,J7,1,Pin_1*%
%TO.N,+9V*%
X60960000Y45720000D03*
D11*
%TO.P,J7,2,Pin_2*%
X58420000Y45720000D03*
%TD*%
D10*
%TO.P,J1,1,Pin_1*%
%TO.N,/PosInput*%
X10898500Y17531000D03*
D11*
%TO.P,J1,2,Pin_2*%
X10898500Y14991000D03*
%TD*%
D10*
%TO.P,J3,1,Pin_1*%
%TO.N,GND*%
X17150000Y6350000D03*
D11*
%TO.P,J3,2,Pin_2*%
X14610000Y6350000D03*
%TD*%
D19*
%TO.P,TP-9V1,1,1*%
%TO.N,-9V*%
X58420000Y13335000D03*
%TD*%
D17*
%TO.P,R12,1*%
%TO.N,Net-(U2B-+)*%
X78740000Y22378000D03*
%TO.P,R12,2*%
%TO.N,Net-(U2A-+)*%
X78740000Y19278000D03*
%TD*%
D10*
%TO.P,J11,1,Pin_1*%
%TO.N,GND*%
X74168000Y17272000D03*
%TD*%
%TO.P,J10,1,Pin_1*%
%TO.N,GND*%
X67056000Y35560000D03*
%TD*%
%TO.P,J2,1,Pin_1*%
%TO.N,/NegInput*%
X10898500Y36835000D03*
D11*
%TO.P,J2,2,Pin_2*%
X10898500Y34295000D03*
%TD*%
D28*
%TO.P,R4,1*%
%TO.N,/NegInput*%
X15942867Y28097038D03*
%TO.P,R4,2*%
%TO.N,/NegInputProtected*%
X19042867Y28097038D03*
%TD*%
D32*
%TO.P,C10,1*%
%TO.N,+9V*%
X74206500Y33020000D03*
%TO.P,C10,2*%
%TO.N,GND*%
X71081500Y33020000D03*
%TD*%
D10*
%TO.P,J13,1,Pin_1*%
%TO.N,+9V*%
X96000000Y29000000D03*
D11*
%TO.P,J13,2,Pin_2*%
%TO.N,GND*%
X96000000Y26460000D03*
%TD*%
D33*
%TO.P,LED1,1,K*%
%TO.N,GND*%
X44740500Y45720000D03*
%TO.P,LED1,2,A*%
%TO.N,Net-(LED1-A)*%
X47715500Y45720000D03*
%TD*%
D23*
%TO.P,C6,1*%
%TO.N,Net-(C14-Pad1)*%
X42549900Y28575000D03*
%TO.P,C6,2*%
%TO.N,Net-(U2A-+)*%
X45674900Y28575000D03*
%TD*%
D18*
%TO.P,R17,1*%
%TO.N,-9V*%
X53620000Y6350000D03*
%TO.P,R17,2*%
%TO.N,Net-(LED2-K)*%
X50520000Y6350000D03*
%TD*%
D19*
%TO.P,TPE+1,1,1*%
%TO.N,/PosInput*%
X6604000Y21336000D03*
%TD*%
D17*
%TO.P,R9,1*%
%TO.N,GND*%
X24130000Y41428000D03*
%TO.P,R9,2*%
%TO.N,/NegInputProtected*%
X24130000Y38328000D03*
%TD*%
D10*
%TO.P,J9,1,Pin_1*%
%TO.N,GND*%
X14473000Y44196000D03*
D11*
%TO.P,J9,2,Pin_2*%
X17013000Y44196000D03*
%TD*%
D34*
%TO.N,GND*%
X49745500Y38410500D02*
X50197000Y38862000D01*
X49745500Y33528000D02*
X49745500Y38410500D01*
X49500000Y33773500D02*
X49745500Y33528000D01*
%TO.N,+9V*%
X47244000Y32538000D02*
X51816000Y27966000D01*
X74206500Y33020000D02*
X74206500Y29908500D01*
X64516000Y42164000D02*
X63500000Y41148000D01*
X96000000Y30500000D02*
X91994500Y34505500D01*
X63500000Y41148000D02*
X60960000Y43688000D01*
X35545000Y27295000D02*
X38382500Y27295000D01*
X40640000Y28448000D02*
X40640000Y34544000D01*
X40640000Y34544000D02*
X47244000Y41148000D01*
X71162200Y37549800D02*
X71162200Y41105800D01*
X53620000Y45720000D02*
X58420000Y45720000D01*
X70104000Y42164000D02*
X64516000Y42164000D01*
X51080000Y43180000D02*
X53620000Y45720000D01*
X51816000Y27966000D02*
X54000000Y27966000D01*
X71162200Y41105800D02*
X70104000Y42164000D01*
X60960000Y43688000D02*
X60960000Y45720000D01*
X91994500Y34505500D02*
X74206500Y34505500D01*
X74206500Y34505500D02*
X74206500Y33020000D01*
X49276000Y43180000D02*
X51080000Y43180000D01*
X96000000Y29000000D02*
X96000000Y30500000D01*
X39839500Y27647500D02*
X40640000Y28448000D01*
X74206500Y29908500D02*
X74280000Y29835000D01*
X38735000Y27647500D02*
X39839500Y27647500D01*
X47244000Y32538000D02*
X47244000Y41148000D01*
X47244000Y41148000D02*
X49276000Y43180000D01*
X38382500Y27295000D02*
X38735000Y27647500D01*
X71162200Y37549800D02*
X74206500Y34505500D01*
%TO.N,GND*%
X82465621Y23500000D02*
X73234670Y23500000D01*
X47788500Y48768000D02*
X44740500Y45720000D01*
D35*
X31689508Y23682492D02*
X31689508Y37277508D01*
D34*
X59732200Y43604200D02*
X59732200Y48267800D01*
X59232000Y48768000D02*
X47788500Y48768000D01*
X71081500Y25653170D02*
X71081500Y33020000D01*
X59308000Y43180000D02*
X59732200Y43604200D01*
X24130000Y41428000D02*
X24130000Y46228000D01*
X54515000Y43180000D02*
X59308000Y43180000D01*
D35*
X35545000Y22215000D02*
X33157000Y22215000D01*
D34*
X73234670Y23500000D02*
X71081500Y25653170D01*
X24130000Y10896000D02*
X24130000Y6096000D01*
X50197000Y38862000D02*
X54515000Y43180000D01*
X85137621Y20828000D02*
X82465621Y23500000D01*
D35*
X32004000Y23368000D02*
X31689508Y23682492D01*
D34*
X59732200Y48267800D02*
X59232000Y48768000D01*
D35*
X33157000Y22215000D02*
X32004000Y23368000D01*
D34*
%TO.N,-9V*%
X58420000Y13335000D02*
X58420000Y12700000D01*
X50826000Y9144000D02*
X53620000Y6350000D01*
X37606272Y19342500D02*
X41708200Y15240572D01*
X41708200Y15240572D02*
X41708200Y12139800D01*
X58425000Y12695000D02*
X58425000Y6350000D01*
X68616628Y14001628D02*
X60965000Y6350000D01*
X58420000Y12700000D02*
X58425000Y12695000D01*
X27940000Y19342500D02*
X27940000Y22200000D01*
X96029000Y18813000D02*
X91217628Y14001628D01*
X66675000Y19342500D02*
X66675000Y22200000D01*
X41708200Y12139800D02*
X44704000Y9144000D01*
X58420000Y13335000D02*
X64427500Y19342500D01*
X27940000Y22200000D02*
X27925000Y22215000D01*
X91217628Y14001628D02*
X68616628Y14001628D01*
X53620000Y6350000D02*
X58425000Y6350000D01*
X27940000Y19342500D02*
X37606272Y19342500D01*
X64427500Y19342500D02*
X66675000Y19342500D01*
X66675000Y22200000D02*
X66660000Y22215000D01*
X53620000Y6350000D02*
X60965000Y6350000D01*
X44704000Y9144000D02*
X50826000Y9144000D01*
%TO.N,/ConditionedOutput*%
X62992000Y35560000D02*
X67437000Y40005000D01*
X67437000Y40005000D02*
X69850000Y40005000D01*
X62992000Y32538000D02*
X63957000Y32538000D01*
X83185000Y40010000D02*
X83190000Y40005000D01*
X83190000Y40005000D02*
X85730000Y40005000D01*
X72390000Y40005000D02*
X83190000Y40005000D01*
X62992000Y32538000D02*
X62992000Y35560000D01*
X63957000Y32538000D02*
X66660000Y29835000D01*
X83185000Y45720000D02*
X83185000Y40010000D01*
%TO.N,/NegInput*%
X10898500Y36835000D02*
X10898500Y34295000D01*
X10898500Y28194000D02*
X11152500Y27940000D01*
X16580367Y28097038D02*
X11142867Y28097038D01*
X10898500Y34295000D02*
X10898500Y28194000D01*
X9367962Y28097038D02*
X11142867Y28097038D01*
X6731000Y30734000D02*
X9367962Y28097038D01*
%TO.N,/PosInput*%
X10898500Y17531000D02*
X10898500Y23622000D01*
X9271000Y23876000D02*
X11152500Y23876000D01*
X6350000Y20955000D02*
X9271000Y23876000D01*
X10898500Y14991000D02*
X10898500Y17531000D01*
X10898500Y23622000D02*
X11152500Y23876000D01*
X11152500Y23876000D02*
X15952500Y23876000D01*
%TO.N,/Gain2*%
X27940000Y34290000D02*
X27940000Y29850000D01*
X30200000Y34290000D02*
X27940000Y34290000D01*
X27940000Y29850000D02*
X27925000Y29835000D01*
%TO.N,/Gain1*%
X35560000Y29850000D02*
X35545000Y29835000D01*
X35560000Y34290000D02*
X33300000Y34290000D01*
X35560000Y34290000D02*
X35560000Y29850000D01*
%TO.N,/PosInputProtected*%
X27925000Y24755000D02*
X24731500Y24755000D01*
X19052500Y23876000D02*
X23852500Y23876000D01*
X24731500Y24755000D02*
X23852500Y23876000D01*
X23852500Y19073500D02*
X24130000Y18796000D01*
X23852500Y23876000D02*
X23852500Y19073500D01*
X24130000Y13996000D02*
X24130000Y18796000D01*
%TO.N,/NegInputProtected*%
X27925000Y27295000D02*
X24644905Y27295000D01*
X23842867Y28097038D02*
X23842867Y33240867D01*
X23842867Y33240867D02*
X24130000Y33528000D01*
X24130000Y33528000D02*
X24130000Y38328000D01*
X18405367Y28097038D02*
X23842867Y28097038D01*
X24644905Y27295000D02*
X23842867Y28097038D01*
%TO.N,Net-(U2A-+)*%
X78740000Y19278000D02*
X77242000Y19278000D01*
X67701000Y24755000D02*
X66660000Y24755000D01*
X46761057Y24704546D02*
X46761057Y27488843D01*
X77242000Y19278000D02*
X76708000Y19812000D01*
X72644000Y19812000D02*
X67701000Y24755000D01*
X47599001Y24765001D02*
X47752000Y24918000D01*
X45081323Y23024812D02*
X46761057Y24704546D01*
X46761057Y27488843D02*
X45674900Y28575000D01*
X45081323Y19925060D02*
X45081323Y23024812D01*
X66497000Y24918000D02*
X66660000Y24755000D01*
X47752000Y24918000D02*
X66497000Y24918000D01*
X76708000Y19812000D02*
X72644000Y19812000D01*
%TO.N,Net-(C7-Pad1)*%
X52197000Y34201500D02*
X52870500Y33528000D01*
X52197000Y38862000D02*
X52197000Y34201500D01*
X55346000Y33528000D02*
X52870500Y33528000D01*
D36*
%TO.N,/DC_Bias_Buffer*%
X74280000Y27295000D02*
X79136000Y27295000D01*
D34*
X84836000Y27940000D02*
X84328000Y27940000D01*
D36*
X79136000Y27295000D02*
X79248000Y27183000D01*
X74280000Y27295000D02*
X74280000Y24755000D01*
D34*
X79248000Y29723000D02*
X79248000Y27183000D01*
X84328000Y27940000D02*
X83571000Y27183000D01*
X83571000Y27183000D02*
X79248000Y27183000D01*
%TO.N,Net-(U2A--)*%
X62510000Y29438000D02*
X58446000Y33502000D01*
X62992000Y29438000D02*
X62510000Y29438000D01*
X66660000Y27295000D02*
X64653000Y27295000D01*
X58599000Y33375000D02*
X58446000Y33528000D01*
X58446000Y33502000D02*
X58446000Y33528000D01*
X62992000Y28956000D02*
X62992000Y29438000D01*
X64653000Y27295000D02*
X62992000Y28956000D01*
%TO.N,Net-(C14-Pad1)*%
X43081323Y19925060D02*
X43081323Y23384280D01*
X44704000Y30729100D02*
X42549900Y28575000D01*
X35545000Y24755000D02*
X41710603Y24755000D01*
X43081323Y23384280D02*
X41761057Y24704546D01*
X41710603Y24755000D02*
X41761057Y24704546D01*
X44704000Y34544000D02*
X44704000Y30729100D01*
X41761057Y24704546D02*
X41761057Y27786157D01*
X41761057Y27786157D02*
X42549900Y28575000D01*
%TO.N,Net-(LED1-A)*%
X50520000Y45720000D02*
X47842500Y45720000D01*
%TO.N,Net-(LED2-K)*%
X47842500Y6350000D02*
X50520000Y6350000D01*
%TO.N,Net-(U2B-+)*%
X74443000Y22378000D02*
X74280000Y22215000D01*
X78740000Y22378000D02*
X81087621Y22378000D01*
X78740000Y22378000D02*
X74443000Y22378000D01*
X81087621Y22378000D02*
X82637621Y20828000D01*
%TD*%
%TA.AperFunction,Conductor*%
%TO.N,GND*%
G36*
X49323202Y23577934D02*
G01*
X49379717Y23534114D01*
X49380386Y23534782D01*
X49385671Y23529498D01*
X49385856Y23529354D01*
X49386079Y23529090D01*
X49386084Y23529084D01*
X49567434Y23376183D01*
X49567436Y23376182D01*
X49567437Y23376181D01*
X49586436Y23365032D01*
X49772018Y23256128D01*
X49772020Y23256127D01*
X49789430Y23249557D01*
X49859731Y23202970D01*
X49902856Y23130495D01*
X49910264Y23046485D01*
X49880488Y22967581D01*
X49841782Y22924993D01*
X49745769Y22847243D01*
X49745759Y22847233D01*
X49628688Y22702663D01*
X49544228Y22536899D01*
X49496081Y22357212D01*
X49490000Y22279941D01*
X49490000Y22008501D01*
X49490001Y22008500D01*
X52509999Y22008500D01*
X52510000Y22008501D01*
X52510000Y22279941D01*
X52503918Y22357212D01*
X52455771Y22536899D01*
X52371311Y22702663D01*
X52254240Y22847233D01*
X52254236Y22847237D01*
X52158217Y22924992D01*
X52106130Y22991320D01*
X52087979Y23073679D01*
X52107360Y23155757D01*
X52160435Y23221298D01*
X52210567Y23249557D01*
X52227979Y23256127D01*
X52233235Y23259211D01*
X52297745Y23297067D01*
X52360613Y23333960D01*
X52441022Y23359387D01*
X52524503Y23347408D01*
X52560449Y23328177D01*
X52560495Y23328255D01*
X52562478Y23327092D01*
X52565944Y23325237D01*
X52567432Y23324185D01*
X52567437Y23324181D01*
X52673974Y23261663D01*
X52772018Y23204128D01*
X52772021Y23204127D01*
X52993952Y23120373D01*
X53226845Y23075332D01*
X53261697Y23073481D01*
X53280136Y23072501D01*
X53280148Y23072501D01*
X53280158Y23072500D01*
X53280161Y23072500D01*
X54719839Y23072500D01*
X54719842Y23072500D01*
X54719852Y23072501D01*
X54719863Y23072501D01*
X54732493Y23073173D01*
X54773155Y23075332D01*
X55006048Y23120373D01*
X55227979Y23204127D01*
X55233886Y23207593D01*
X55316592Y23256127D01*
X55432563Y23324181D01*
X55613916Y23477084D01*
X55657983Y23529352D01*
X55725328Y23580113D01*
X55802860Y23596700D01*
X64486251Y23596700D01*
X64568472Y23577934D01*
X64634408Y23525351D01*
X64671000Y23449368D01*
X64671000Y23365032D01*
X64643815Y23301921D01*
X64640573Y23297071D01*
X64513193Y23076444D01*
X64513186Y23076428D01*
X64415695Y22841065D01*
X64415692Y22841056D01*
X64349755Y22594976D01*
X64349753Y22594965D01*
X64316500Y22342388D01*
X64316500Y22087613D01*
X64332187Y21968464D01*
X64346795Y21857500D01*
X64349753Y21835036D01*
X64349755Y21835025D01*
X64415692Y21588945D01*
X64415695Y21588936D01*
X64513186Y21353573D01*
X64513193Y21353557D01*
X64640569Y21132937D01*
X64640571Y21132934D01*
X64640572Y21132933D01*
X64766623Y20968658D01*
X64801787Y20892005D01*
X64800210Y20807684D01*
X64762203Y20732398D01*
X64695295Y20681059D01*
X64616282Y20663800D01*
X64323510Y20663800D01*
X64255039Y20652955D01*
X64118095Y20631265D01*
X64031519Y20603135D01*
X63920298Y20566998D01*
X63734989Y20472579D01*
X63734987Y20472577D01*
X63566736Y20350337D01*
X63566730Y20350332D01*
X59588054Y16371657D01*
X59516645Y16326788D01*
X59432840Y16317346D01*
X59401596Y16323560D01*
X59120597Y16404515D01*
X59120599Y16404515D01*
X58772509Y16463657D01*
X58420000Y16483453D01*
X58067491Y16463657D01*
X58067489Y16463657D01*
X57719401Y16404515D01*
X57380127Y16306771D01*
X57053945Y16171663D01*
X56744918Y16000869D01*
X56744915Y16000867D01*
X56456971Y15796560D01*
X56193712Y15561296D01*
X56193704Y15561288D01*
X55958440Y15298029D01*
X55754133Y15010085D01*
X55754131Y15010082D01*
X55583337Y14701055D01*
X55448229Y14374873D01*
X55350485Y14035599D01*
X55291343Y13687511D01*
X55291343Y13687509D01*
X55271547Y13335000D01*
X55291343Y12982492D01*
X55291343Y12982490D01*
X55350485Y12634402D01*
X55448229Y12295128D01*
X55583337Y11968946D01*
X55754131Y11659919D01*
X55754133Y11659916D01*
X55913569Y11435212D01*
X55958440Y11371972D01*
X56193708Y11108708D01*
X56456972Y10873440D01*
X56744922Y10669129D01*
X57005866Y10524910D01*
X57068749Y10468714D01*
X57101023Y10390798D01*
X57103700Y10359056D01*
X57103700Y7926428D01*
X57084934Y7844207D01*
X57048197Y7792431D01*
X56982569Y7726803D01*
X56911160Y7681934D01*
X56848572Y7671300D01*
X55335627Y7671300D01*
X55253406Y7690066D01*
X55187470Y7742649D01*
X55172190Y7764892D01*
X55161825Y7782554D01*
X55161821Y7782560D01*
X55161819Y7782563D01*
X55008916Y7963916D01*
X54919865Y8038997D01*
X54827565Y8116818D01*
X54622981Y8236873D01*
X54622978Y8236874D01*
X54401052Y8320626D01*
X54401049Y8320627D01*
X54401048Y8320627D01*
X54168155Y8365668D01*
X54168148Y8365669D01*
X54114863Y8368500D01*
X54114842Y8368500D01*
X53548595Y8368500D01*
X53466374Y8387266D01*
X53414598Y8424003D01*
X51686769Y10151832D01*
X51686763Y10151837D01*
X51518512Y10274077D01*
X51518510Y10274079D01*
X51333201Y10368498D01*
X51264567Y10390798D01*
X51135405Y10432765D01*
X50981343Y10457167D01*
X50929990Y10465300D01*
X50929989Y10465300D01*
X45329795Y10465300D01*
X45247574Y10484066D01*
X45195798Y10520803D01*
X43085003Y12631598D01*
X43040134Y12703007D01*
X43029500Y12765595D01*
X43029500Y13081571D01*
X43048266Y13163792D01*
X43100849Y13229728D01*
X43176832Y13266320D01*
X43187809Y13268486D01*
X43301789Y13287507D01*
X43301800Y13287509D01*
X43534562Y13367417D01*
X43534565Y13367418D01*
X43750999Y13484546D01*
X43945203Y13635702D01*
X43945215Y13635712D01*
X44066581Y13767549D01*
X44136075Y13815331D01*
X44219418Y13828228D01*
X44300104Y13803687D01*
X44345419Y13767549D01*
X44466784Y13635712D01*
X44466796Y13635702D01*
X44661000Y13484546D01*
X44877434Y13367418D01*
X44877437Y13367417D01*
X45110203Y13287508D01*
X45110205Y13287507D01*
X45285500Y13258257D01*
X45285500Y14265407D01*
X45410174Y14232000D01*
X45541826Y14232000D01*
X45666500Y14265407D01*
X45666500Y13258257D01*
X45841794Y13287507D01*
X45841796Y13287508D01*
X46074562Y13367417D01*
X46074565Y13367418D01*
X46290999Y13484546D01*
X46485203Y13635702D01*
X46485209Y13635707D01*
X46651890Y13816769D01*
X46786493Y14022795D01*
X46786495Y14022799D01*
X46885350Y14248166D01*
X46885353Y14248176D01*
X46945764Y14486734D01*
X46950303Y14541500D01*
X45942593Y14541500D01*
X45976000Y14666174D01*
X45976000Y14797826D01*
X45942593Y14922500D01*
X46950303Y14922500D01*
X46945764Y14977267D01*
X46885353Y15215825D01*
X46885350Y15215835D01*
X46786495Y15441202D01*
X46786493Y15441206D01*
X46651890Y15647232D01*
X46485209Y15828294D01*
X46485203Y15828299D01*
X46290999Y15979455D01*
X46074565Y16096583D01*
X46074566Y16096583D01*
X45841801Y16176491D01*
X45841788Y16176495D01*
X45666500Y16205746D01*
X45666500Y15198594D01*
X45541826Y15232000D01*
X45410174Y15232000D01*
X45285500Y15198594D01*
X45285500Y16205746D01*
X45285499Y16205746D01*
X45110211Y16176495D01*
X45110198Y16176491D01*
X44877434Y16096583D01*
X44661000Y15979455D01*
X44466796Y15828299D01*
X44466790Y15828294D01*
X44345419Y15696451D01*
X44275925Y15648670D01*
X44192581Y15635773D01*
X44111896Y15660314D01*
X44066581Y15696451D01*
X43945209Y15828294D01*
X43945203Y15828299D01*
X43750999Y15979455D01*
X43534565Y16096583D01*
X43534566Y16096583D01*
X43301801Y16176491D01*
X43301788Y16176495D01*
X43126500Y16205746D01*
X43126500Y16119601D01*
X43107734Y16037380D01*
X43055151Y15971444D01*
X42979168Y15934852D01*
X42894832Y15934852D01*
X42818849Y15971444D01*
X42783687Y16008222D01*
X42781687Y16010975D01*
X42748544Y16088525D01*
X42745500Y16122354D01*
X42745500Y16205746D01*
X42745499Y16205746D01*
X42726986Y16202656D01*
X42642798Y16207633D01*
X42569106Y16248645D01*
X42561798Y16255574D01*
X40588640Y18228732D01*
X38467041Y20350332D01*
X38467035Y20350337D01*
X38298784Y20472577D01*
X38298782Y20472579D01*
X38113473Y20566998D01*
X38051207Y20587229D01*
X37915677Y20631265D01*
X37761615Y20655667D01*
X37710262Y20663800D01*
X37710261Y20663800D01*
X36834545Y20663800D01*
X36752324Y20682566D01*
X36686388Y20735149D01*
X36649796Y20811132D01*
X36649796Y20895468D01*
X36686388Y20971451D01*
X36723159Y21006608D01*
X36879836Y21120442D01*
X37039558Y21280164D01*
X37172320Y21462894D01*
X37172323Y21462898D01*
X37274863Y21664147D01*
X37274866Y21664155D01*
X37344664Y21878967D01*
X37367715Y22024500D01*
X36011593Y22024500D01*
X36045000Y22149174D01*
X36045000Y22280826D01*
X36011593Y22405500D01*
X37367714Y22405500D01*
X37344664Y22551034D01*
X37274866Y22765846D01*
X37274863Y22765854D01*
X37172323Y22967103D01*
X37172320Y22967107D01*
X37150249Y22997485D01*
X37117102Y23075034D01*
X37120886Y23159284D01*
X37160849Y23233550D01*
X37188197Y23259211D01*
X37229188Y23290664D01*
X37316721Y23378197D01*
X37388130Y23423066D01*
X37450718Y23433700D01*
X40069520Y23433700D01*
X40151741Y23414934D01*
X40208012Y23373544D01*
X40274904Y23301921D01*
X40362994Y23207599D01*
X40363009Y23207585D01*
X40579852Y23031170D01*
X40579855Y23031168D01*
X40754452Y22924993D01*
X40818717Y22885913D01*
X41075131Y22774537D01*
X41344323Y22699113D01*
X41596329Y22664476D01*
X41675227Y22634688D01*
X41733389Y22573618D01*
X41759293Y22493359D01*
X41760023Y22476741D01*
X41760023Y21130870D01*
X41741257Y21048649D01*
X41718681Y21012720D01*
X41636735Y20909963D01*
X41636735Y20909962D01*
X41506078Y20683657D01*
X41410609Y20440406D01*
X41352462Y20185649D01*
X41352461Y20185643D01*
X41332934Y19925063D01*
X41332934Y19925058D01*
X41352461Y19664478D01*
X41352462Y19664472D01*
X41410609Y19409715D01*
X41454427Y19298068D01*
X41506075Y19166471D01*
X41506080Y19166460D01*
X41636731Y18940163D01*
X41636736Y18940156D01*
X41791610Y18745951D01*
X41799663Y18735853D01*
X41991220Y18558114D01*
X42207129Y18410911D01*
X42292695Y18369705D01*
X42442553Y18297536D01*
X42442559Y18297534D01*
X42442565Y18297531D01*
X42692270Y18220507D01*
X42692275Y18220507D01*
X42692280Y18220505D01*
X42950658Y18181561D01*
X42950661Y18181561D01*
X42950666Y18181560D01*
X42950670Y18181560D01*
X43211976Y18181560D01*
X43211980Y18181560D01*
X43211987Y18181561D01*
X43470365Y18220505D01*
X43470368Y18220506D01*
X43470376Y18220507D01*
X43720081Y18297531D01*
X43764412Y18318880D01*
X43846630Y18337645D01*
X43923172Y18321500D01*
X44116372Y18236193D01*
X44322664Y18187674D01*
X44410745Y18181560D01*
X44410758Y18181560D01*
X45751888Y18181560D01*
X45751901Y18181560D01*
X45839982Y18187674D01*
X46046274Y18236193D01*
X46240139Y18321793D01*
X46414974Y18441558D01*
X46564825Y18591409D01*
X46684590Y18766244D01*
X46770190Y18960109D01*
X46818709Y19166401D01*
X46824823Y19254482D01*
X46824823Y20595638D01*
X46818709Y20683719D01*
X46770190Y20890011D01*
X46684590Y21083876D01*
X46564825Y21258711D01*
X46467476Y21356060D01*
X49490000Y21356060D01*
X49496081Y21278789D01*
X49544228Y21099102D01*
X49628688Y20933338D01*
X49745759Y20788768D01*
X49745767Y20788760D01*
X49890337Y20671689D01*
X50056101Y20587229D01*
X50235790Y20539082D01*
X50235787Y20539082D01*
X50313059Y20533000D01*
X50809499Y20533000D01*
X50809500Y20533001D01*
X51190500Y20533001D01*
X51190501Y20533000D01*
X51686941Y20533000D01*
X51764211Y20539082D01*
X51943898Y20587229D01*
X52109662Y20671689D01*
X52254232Y20788760D01*
X52254240Y20788768D01*
X52371311Y20933338D01*
X52455771Y21099102D01*
X52503918Y21278789D01*
X52510000Y21356060D01*
X52510000Y21627499D01*
X52509999Y21627500D01*
X51190501Y21627500D01*
X51190500Y21627499D01*
X51190500Y20533001D01*
X50809500Y20533001D01*
X50809500Y21627499D01*
X50809499Y21627500D01*
X49490001Y21627500D01*
X49490000Y21627499D01*
X49490000Y21356060D01*
X46467476Y21356060D01*
X46458126Y21365410D01*
X46413257Y21436819D01*
X46402623Y21499407D01*
X46402623Y22399019D01*
X46421389Y22481240D01*
X46458121Y22533011D01*
X46530656Y22605546D01*
X46602062Y22650412D01*
X46664650Y22661046D01*
X46900829Y22661046D01*
X46900836Y22661046D01*
X47177791Y22699113D01*
X47446983Y22774537D01*
X47703397Y22885913D01*
X47942257Y23031167D01*
X47961086Y23046485D01*
X48142738Y23194270D01*
X48159114Y23207593D01*
X48349927Y23411904D01*
X48423745Y23516482D01*
X48486492Y23572831D01*
X48567474Y23596375D01*
X48578561Y23596700D01*
X49240981Y23596700D01*
X49323202Y23577934D01*
G37*
%TD.AperFunction*%
%TA.AperFunction,Conductor*%
G36*
X89090500Y10616594D02*
G01*
X88965826Y10650000D01*
X88834174Y10650000D01*
X88709500Y10616594D01*
X88709500Y12223407D01*
X88834174Y12190000D01*
X88965826Y12190000D01*
X89090500Y12223407D01*
X89090500Y10616594D01*
G37*
%TD.AperFunction*%
%TA.AperFunction,Conductor*%
G36*
X39896000Y14797826D02*
G01*
X39896000Y14666174D01*
X39929407Y14541500D01*
X38322593Y14541500D01*
X38356000Y14666174D01*
X38356000Y14797826D01*
X38322593Y14922500D01*
X39929407Y14922500D01*
X39896000Y14797826D01*
G37*
%TD.AperFunction*%
%TA.AperFunction,Conductor*%
G36*
X44976000Y14797826D02*
G01*
X44976000Y14666174D01*
X45009407Y14541500D01*
X43402593Y14541500D01*
X43436000Y14666174D01*
X43436000Y14797826D01*
X43402593Y14922500D01*
X45009407Y14922500D01*
X44976000Y14797826D01*
G37*
%TD.AperFunction*%
%TA.AperFunction,Conductor*%
G36*
X89090500Y15696594D02*
G01*
X88965826Y15730000D01*
X88834174Y15730000D01*
X88709500Y15696594D01*
X88709500Y17303407D01*
X88834174Y17270000D01*
X88965826Y17270000D01*
X89090500Y17303407D01*
X89090500Y15696594D01*
G37*
%TD.AperFunction*%
%TA.AperFunction,Conductor*%
G36*
X31836849Y32741583D02*
G01*
X31894876Y32695308D01*
X31911084Y32676084D01*
X31998706Y32602208D01*
X32092434Y32523183D01*
X32297018Y32403128D01*
X32297021Y32403127D01*
X32518952Y32319373D01*
X32751845Y32274332D01*
X32786697Y32272481D01*
X32805136Y32271501D01*
X32805148Y32271501D01*
X32805158Y32271500D01*
X32805161Y32271500D01*
X33794839Y32271500D01*
X33794842Y32271500D01*
X33794852Y32271501D01*
X33794863Y32271501D01*
X33807493Y32272173D01*
X33848155Y32274332D01*
X34013218Y32306255D01*
X34097506Y32303443D01*
X34172227Y32264337D01*
X34222581Y32196684D01*
X34238700Y32120203D01*
X34238700Y31665316D01*
X34219934Y31583095D01*
X34167351Y31517159D01*
X34143951Y31501205D01*
X34062939Y31454433D01*
X33860815Y31299339D01*
X33680661Y31119185D01*
X33525569Y30917064D01*
X33398193Y30696444D01*
X33398186Y30696428D01*
X33300695Y30461065D01*
X33300692Y30461056D01*
X33234755Y30214976D01*
X33234753Y30214965D01*
X33201500Y29962388D01*
X33201500Y29707613D01*
X33219672Y29569589D01*
X33234754Y29455028D01*
X33262993Y29349640D01*
X33300692Y29208945D01*
X33300695Y29208936D01*
X33398186Y28973573D01*
X33398193Y28973557D01*
X33525571Y28752935D01*
X33525573Y28752931D01*
X33581259Y28680359D01*
X33616423Y28603704D01*
X33614846Y28519384D01*
X33581259Y28449641D01*
X33525573Y28377070D01*
X33525571Y28377066D01*
X33398193Y28156444D01*
X33398186Y28156428D01*
X33300695Y27921065D01*
X33300692Y27921056D01*
X33234755Y27674976D01*
X33234753Y27674965D01*
X33201500Y27422388D01*
X33201500Y27167613D01*
X33216043Y27057152D01*
X33234754Y26915028D01*
X33249472Y26860099D01*
X33300692Y26668945D01*
X33300695Y26668936D01*
X33365396Y26512734D01*
X33387314Y26459819D01*
X33398186Y26433573D01*
X33398193Y26433557D01*
X33525571Y26212935D01*
X33525573Y26212931D01*
X33581259Y26140359D01*
X33616423Y26063704D01*
X33614846Y25979384D01*
X33581259Y25909641D01*
X33525573Y25837070D01*
X33525571Y25837066D01*
X33398193Y25616444D01*
X33398186Y25616428D01*
X33300695Y25381065D01*
X33300692Y25381056D01*
X33234755Y25134976D01*
X33234753Y25134965D01*
X33201500Y24882388D01*
X33201500Y24627613D01*
X33234753Y24375036D01*
X33234755Y24375025D01*
X33300692Y24128945D01*
X33300695Y24128936D01*
X33353327Y24001871D01*
X33387314Y23919819D01*
X33398186Y23893573D01*
X33398193Y23893557D01*
X33525569Y23672937D01*
X33525571Y23672935D01*
X33525572Y23672933D01*
X33680664Y23470812D01*
X33860812Y23290664D01*
X33901799Y23259214D01*
X33901803Y23259211D01*
X33955609Y23194270D01*
X33975909Y23112414D01*
X33958683Y23029856D01*
X33939754Y22997490D01*
X33917676Y22967101D01*
X33815136Y22765854D01*
X33815133Y22765846D01*
X33745335Y22551034D01*
X33722285Y22405500D01*
X35078407Y22405500D01*
X35045000Y22280826D01*
X35045000Y22149174D01*
X35078407Y22024500D01*
X33722285Y22024500D01*
X33745335Y21878967D01*
X33815133Y21664155D01*
X33815136Y21664147D01*
X33917676Y21462898D01*
X33917679Y21462894D01*
X34050441Y21280164D01*
X34210163Y21120442D01*
X34366841Y21006608D01*
X34422328Y20943098D01*
X34444764Y20861801D01*
X34429705Y20778821D01*
X34380134Y20710593D01*
X34305869Y20670629D01*
X34255455Y20663800D01*
X29968718Y20663800D01*
X29886497Y20682566D01*
X29820561Y20735149D01*
X29783969Y20811132D01*
X29783969Y20895468D01*
X29818376Y20968658D01*
X29944428Y21132933D01*
X30061669Y21336000D01*
X30071806Y21353557D01*
X30071810Y21353565D01*
X30071812Y21353568D01*
X30169307Y21588942D01*
X30235246Y21835028D01*
X30268500Y22087616D01*
X30268500Y22342384D01*
X30235246Y22594972D01*
X30169307Y22841058D01*
X30071812Y23076432D01*
X29944428Y23297067D01*
X29888740Y23369641D01*
X29853576Y23446293D01*
X29855153Y23530614D01*
X29888740Y23600360D01*
X29944428Y23672933D01*
X30071812Y23893568D01*
X30169307Y24128942D01*
X30235246Y24375028D01*
X30268500Y24627616D01*
X30268500Y24882384D01*
X30235246Y25134972D01*
X30169307Y25381058D01*
X30071812Y25616432D01*
X29944428Y25837067D01*
X29888740Y25909641D01*
X29853576Y25986293D01*
X29855153Y26070614D01*
X29888740Y26140360D01*
X29944428Y26212933D01*
X30071812Y26433568D01*
X30169307Y26668942D01*
X30235246Y26915028D01*
X30268500Y27167616D01*
X30268500Y27422384D01*
X30235246Y27674972D01*
X30169307Y27921058D01*
X30071812Y28156432D01*
X30057135Y28181852D01*
X30032277Y28262440D01*
X30044846Y28345833D01*
X30064911Y28383696D01*
X30100068Y28435019D01*
X30128267Y28476184D01*
X30213867Y28670049D01*
X30262386Y28876341D01*
X30268500Y28964422D01*
X30268500Y30705578D01*
X30262386Y30793659D01*
X30213867Y30999951D01*
X30128267Y31193816D01*
X30008502Y31368651D01*
X29858651Y31518502D01*
X29683816Y31638267D01*
X29677336Y31641128D01*
X29630367Y31661867D01*
X29489951Y31723867D01*
X29489945Y31723869D01*
X29489939Y31723871D01*
X29407413Y31743281D01*
X29331672Y31780374D01*
X29279527Y31846656D01*
X29261300Y31927747D01*
X29261300Y32120203D01*
X29280066Y32202424D01*
X29332649Y32268360D01*
X29408632Y32304952D01*
X29486781Y32306255D01*
X29651845Y32274332D01*
X29686697Y32272481D01*
X29705136Y32271501D01*
X29705148Y32271501D01*
X29705158Y32271500D01*
X29705161Y32271500D01*
X30694839Y32271500D01*
X30694842Y32271500D01*
X30694852Y32271501D01*
X30694863Y32271501D01*
X30707493Y32272173D01*
X30748155Y32274332D01*
X30981048Y32319373D01*
X31202979Y32403127D01*
X31407563Y32523181D01*
X31588916Y32676084D01*
X31605123Y32695308D01*
X31672468Y32746069D01*
X31755170Y32762585D01*
X31836849Y32741583D01*
G37*
%TD.AperFunction*%
%TA.AperFunction,Conductor*%
G36*
X68355793Y38664934D02*
G01*
X68407568Y38628197D01*
X68541200Y38494566D01*
X68541201Y38494565D01*
X68769480Y38323677D01*
X68769483Y38323675D01*
X68769485Y38323674D01*
X68769493Y38323669D01*
X69019745Y38187022D01*
X69019748Y38187021D01*
X69019755Y38187017D01*
X69286932Y38087365D01*
X69286935Y38087365D01*
X69286936Y38087364D01*
X69565561Y38026753D01*
X69565564Y38026753D01*
X69565571Y38026751D01*
X69664920Y38019646D01*
X69745591Y37995062D01*
X69807608Y37937910D01*
X69838686Y37859510D01*
X69840900Y37830629D01*
X69840900Y37653789D01*
X69840900Y37445811D01*
X69873435Y37240395D01*
X69912412Y37120435D01*
X69937702Y37042599D01*
X70032121Y36857290D01*
X70032123Y36857288D01*
X70154363Y36689037D01*
X70154368Y36689031D01*
X71349225Y35494174D01*
X72046910Y34796490D01*
X72091779Y34725081D01*
X72101221Y34641276D01*
X72073367Y34561673D01*
X72013733Y34502039D01*
X71934130Y34474185D01*
X71850325Y34483627D01*
X71826884Y34493646D01*
X71812898Y34500772D01*
X71633209Y34548919D01*
X71633212Y34548919D01*
X71555941Y34555000D01*
X71272001Y34555000D01*
X71272000Y34554999D01*
X71272000Y31485001D01*
X71272001Y31485000D01*
X71555941Y31485000D01*
X71633211Y31491082D01*
X71812898Y31539229D01*
X71978662Y31623689D01*
X72123232Y31740760D01*
X72123235Y31740763D01*
X72200990Y31836782D01*
X72267318Y31888870D01*
X72349677Y31907021D01*
X72431755Y31887640D01*
X72497296Y31834566D01*
X72525555Y31784435D01*
X72532127Y31767019D01*
X72606004Y31641127D01*
X72640058Y31583095D01*
X72656255Y31555495D01*
X72653805Y31554058D01*
X72679909Y31490601D01*
X72674976Y31406410D01*
X72634001Y31332698D01*
X72608376Y31308978D01*
X72595818Y31299342D01*
X72415661Y31119185D01*
X72260569Y30917064D01*
X72133193Y30696444D01*
X72133186Y30696428D01*
X72035695Y30461065D01*
X72035692Y30461056D01*
X71969755Y30214976D01*
X71969753Y30214965D01*
X71936500Y29962388D01*
X71936500Y29707613D01*
X71954672Y29569589D01*
X71969754Y29455028D01*
X71997993Y29349640D01*
X72035692Y29208945D01*
X72035695Y29208936D01*
X72133186Y28973573D01*
X72133193Y28973557D01*
X72260571Y28752935D01*
X72260573Y28752931D01*
X72316259Y28680359D01*
X72351423Y28603704D01*
X72349846Y28519384D01*
X72316259Y28449641D01*
X72260573Y28377070D01*
X72260571Y28377066D01*
X72133193Y28156444D01*
X72133186Y28156428D01*
X72035695Y27921065D01*
X72035692Y27921056D01*
X71969755Y27674976D01*
X71969753Y27674965D01*
X71936500Y27422388D01*
X71936500Y27167613D01*
X71951043Y27057152D01*
X71969754Y26915028D01*
X71984472Y26860099D01*
X72035692Y26668945D01*
X72035695Y26668936D01*
X72100396Y26512734D01*
X72122314Y26459819D01*
X72133186Y26433573D01*
X72133193Y26433557D01*
X72260571Y26212935D01*
X72260573Y26212931D01*
X72316259Y26140359D01*
X72351423Y26063704D01*
X72349846Y25979384D01*
X72316259Y25909641D01*
X72260573Y25837070D01*
X72260571Y25837066D01*
X72133193Y25616444D01*
X72133186Y25616428D01*
X72035695Y25381065D01*
X72035692Y25381056D01*
X71969755Y25134976D01*
X71969753Y25134965D01*
X71936500Y24882388D01*
X71936500Y24627613D01*
X71969753Y24375036D01*
X71969755Y24375025D01*
X72035692Y24128945D01*
X72035695Y24128936D01*
X72088327Y24001871D01*
X72122314Y23919819D01*
X72133186Y23893573D01*
X72133193Y23893557D01*
X72260571Y23672935D01*
X72260573Y23672931D01*
X72316259Y23600359D01*
X72351423Y23523704D01*
X72349846Y23439384D01*
X72316259Y23369641D01*
X72260573Y23297070D01*
X72260571Y23297066D01*
X72133193Y23076444D01*
X72133186Y23076428D01*
X72035695Y22841065D01*
X72035694Y22841063D01*
X72003960Y22722630D01*
X71964552Y22648068D01*
X71896695Y22597989D01*
X71813830Y22582311D01*
X71732368Y22604139D01*
X71686920Y22637681D01*
X68903215Y25421386D01*
X68862137Y25482865D01*
X68859218Y25489913D01*
X68806812Y25616432D01*
X68679428Y25837067D01*
X68623740Y25909641D01*
X68588576Y25986293D01*
X68590153Y26070614D01*
X68623740Y26140360D01*
X68679428Y26212933D01*
X68806812Y26433568D01*
X68904307Y26668942D01*
X68970246Y26915028D01*
X69003500Y27167616D01*
X69003500Y27422384D01*
X68970246Y27674972D01*
X68904307Y27921058D01*
X68806812Y28156432D01*
X68792135Y28181852D01*
X68767277Y28262440D01*
X68779846Y28345833D01*
X68799911Y28383696D01*
X68835068Y28435019D01*
X68863267Y28476184D01*
X68948867Y28670049D01*
X68997386Y28876341D01*
X69003500Y28964422D01*
X69003500Y30705578D01*
X68997386Y30793659D01*
X68948867Y30999951D01*
X68863267Y31193816D01*
X68743502Y31368651D01*
X68593651Y31518502D01*
X68418816Y31638267D01*
X68412336Y31641128D01*
X68365367Y31661867D01*
X68224951Y31723867D01*
X68224946Y31723869D01*
X68093622Y31754755D01*
X68018659Y31772386D01*
X67989298Y31774424D01*
X67930582Y31778500D01*
X67930578Y31778500D01*
X66663594Y31778500D01*
X66581373Y31797266D01*
X66529597Y31834003D01*
X66055540Y32308060D01*
X69784000Y32308060D01*
X69790081Y32230789D01*
X69838228Y32051102D01*
X69922688Y31885338D01*
X70039759Y31740768D01*
X70039767Y31740760D01*
X70184337Y31623689D01*
X70350101Y31539229D01*
X70529790Y31491082D01*
X70529787Y31491082D01*
X70607059Y31485000D01*
X70890999Y31485000D01*
X70891000Y31485001D01*
X70891000Y32829499D01*
X70890999Y32829500D01*
X69784001Y32829500D01*
X69784000Y32829499D01*
X69784000Y32308060D01*
X66055540Y32308060D01*
X65153100Y33210501D01*
X69784000Y33210501D01*
X69784001Y33210500D01*
X70890999Y33210500D01*
X70891000Y33210501D01*
X70891000Y34554999D01*
X70890999Y34555000D01*
X70607059Y34555000D01*
X70529788Y34548919D01*
X70350101Y34500772D01*
X70184337Y34416312D01*
X70039767Y34299241D01*
X70039759Y34299233D01*
X69922688Y34154663D01*
X69838228Y33988899D01*
X69790081Y33809212D01*
X69784000Y33731941D01*
X69784000Y33210501D01*
X65153100Y33210501D01*
X64941845Y33421756D01*
X64898548Y33488842D01*
X64878873Y33540979D01*
X64878871Y33540981D01*
X64878870Y33540986D01*
X64758817Y33745566D01*
X64635274Y33892095D01*
X64605916Y33926916D01*
X64424563Y34079819D01*
X64406889Y34090191D01*
X64345475Y34147990D01*
X64315221Y34226712D01*
X64313300Y34253627D01*
X64313300Y34934206D01*
X64332066Y35016427D01*
X64368803Y35068203D01*
X65247503Y35946903D01*
X65318912Y35991772D01*
X65402717Y36001214D01*
X65482320Y35973360D01*
X65541954Y35913726D01*
X65569808Y35834123D01*
X65571000Y35812906D01*
X65571000Y35750501D01*
X65571001Y35750500D01*
X66589407Y35750500D01*
X66556000Y35625826D01*
X66556000Y35494174D01*
X66589407Y35369500D01*
X65571001Y35369500D01*
X65571000Y35369499D01*
X65571000Y34645874D01*
X65573833Y34609876D01*
X65618595Y34455806D01*
X65700259Y34317718D01*
X65700261Y34317715D01*
X65813714Y34204262D01*
X65813717Y34204260D01*
X65951805Y34122596D01*
X66105875Y34077834D01*
X66141873Y34075000D01*
X66865499Y34075000D01*
X66865500Y34075001D01*
X66865500Y35093407D01*
X66990174Y35060000D01*
X67121826Y35060000D01*
X67246500Y35093407D01*
X67246500Y34075001D01*
X67246501Y34075000D01*
X67970127Y34075000D01*
X68006124Y34077834D01*
X68160194Y34122596D01*
X68298282Y34204260D01*
X68298285Y34204262D01*
X68411738Y34317715D01*
X68411740Y34317718D01*
X68493404Y34455806D01*
X68538166Y34609876D01*
X68541000Y34645874D01*
X68541000Y35369499D01*
X68540999Y35369500D01*
X67522593Y35369500D01*
X67556000Y35494174D01*
X67556000Y35625826D01*
X67522593Y35750500D01*
X68540999Y35750500D01*
X68541000Y35750501D01*
X68541000Y36474127D01*
X68538166Y36510125D01*
X68493404Y36664195D01*
X68411740Y36802283D01*
X68411738Y36802286D01*
X68298285Y36915739D01*
X68298282Y36915741D01*
X68160194Y36997405D01*
X68006124Y37042167D01*
X67970127Y37045000D01*
X67246501Y37045000D01*
X67246500Y37044999D01*
X67246500Y36026594D01*
X67121826Y36060000D01*
X66990174Y36060000D01*
X66865500Y36026594D01*
X66865500Y37044999D01*
X66865499Y37045000D01*
X66803094Y37045000D01*
X66720873Y37063766D01*
X66654937Y37116349D01*
X66618345Y37192332D01*
X66618345Y37276668D01*
X66654937Y37352651D01*
X66669097Y37368497D01*
X67928797Y38628197D01*
X68000206Y38673066D01*
X68062794Y38683700D01*
X68273572Y38683700D01*
X68355793Y38664934D01*
G37*
%TD.AperFunction*%
%TA.AperFunction,Conductor*%
G36*
X56925793Y44379934D02*
G01*
X56977568Y44343197D01*
X57045040Y44275726D01*
X57111201Y44209565D01*
X57339480Y44038677D01*
X57339483Y44038675D01*
X57339485Y44038674D01*
X57339493Y44038669D01*
X57589745Y43902022D01*
X57589748Y43902021D01*
X57589755Y43902017D01*
X57856932Y43802365D01*
X57856935Y43802365D01*
X57856936Y43802364D01*
X58135561Y43741753D01*
X58135562Y43741753D01*
X58135571Y43741751D01*
X58386499Y43723804D01*
X58419998Y43721408D01*
X58420000Y43721408D01*
X58420002Y43721408D01*
X58451637Y43723671D01*
X58704429Y43741751D01*
X58983068Y43802365D01*
X59250245Y43902017D01*
X59287023Y43922100D01*
X59368174Y43945033D01*
X59451245Y43930485D01*
X59484929Y43912119D01*
X59551184Y43866733D01*
X59551186Y43866732D01*
X59556293Y43863234D01*
X59613519Y43801286D01*
X59638201Y43720643D01*
X59638700Y43706897D01*
X59638700Y43584010D01*
X59646700Y43533501D01*
X59671235Y43378595D01*
X59714358Y43245876D01*
X59735502Y43180799D01*
X59829921Y42995490D01*
X59829923Y42995488D01*
X59952163Y42827237D01*
X59952168Y42827231D01*
X60463343Y42316056D01*
X60508212Y42244647D01*
X60517654Y42160842D01*
X60511440Y42129599D01*
X60430486Y41848603D01*
X60430485Y41848600D01*
X60371343Y41500511D01*
X60371343Y41500509D01*
X60351547Y41148000D01*
X60371343Y40795492D01*
X60371343Y40795490D01*
X60430485Y40447402D01*
X60528229Y40108128D01*
X60663337Y39781946D01*
X60663342Y39781937D01*
X60829191Y39481856D01*
X60834131Y39472919D01*
X60834133Y39472916D01*
X60934843Y39330979D01*
X61038440Y39184972D01*
X61273708Y38921708D01*
X61536972Y38686440D01*
X61824922Y38482129D01*
X62133937Y38311342D01*
X62133940Y38311341D01*
X62133945Y38311338D01*
X62423450Y38191422D01*
X62460132Y38176228D01*
X62799403Y38078485D01*
X63147485Y38019344D01*
X63147496Y38019344D01*
X63147615Y38019330D01*
X63147657Y38019316D01*
X63152726Y38018454D01*
X63152579Y38017594D01*
X63227221Y37991486D01*
X63286863Y37931860D01*
X63314728Y37852261D01*
X63305296Y37768454D01*
X63260436Y37697040D01*
X63260419Y37697022D01*
X61984168Y36420770D01*
X61984167Y36420769D01*
X61900543Y36305668D01*
X61861924Y36252514D01*
X61767503Y36067205D01*
X61743751Y35994101D01*
X61703235Y35869405D01*
X61697647Y35834123D01*
X61670700Y35663991D01*
X61670700Y34253627D01*
X61651934Y34171406D01*
X61599351Y34105470D01*
X61577111Y34090191D01*
X61559436Y34079819D01*
X61378087Y33926919D01*
X61378081Y33926913D01*
X61225182Y33745566D01*
X61105127Y33540982D01*
X61105126Y33540979D01*
X61021374Y33319053D01*
X61021369Y33319036D01*
X61004234Y33230431D01*
X60970197Y33153269D01*
X60906052Y33098517D01*
X60824502Y33077018D01*
X60741701Y33093032D01*
X60684185Y33132416D01*
X60295003Y33521598D01*
X60250134Y33593007D01*
X60239500Y33655595D01*
X60239500Y34247839D01*
X60239499Y34247864D01*
X60238165Y34272979D01*
X60236668Y34301155D01*
X60191627Y34534048D01*
X60107873Y34755979D01*
X60107872Y34755982D01*
X60003286Y34934206D01*
X59987819Y34960563D01*
X59987818Y34960564D01*
X59987817Y34960566D01*
X59875252Y35094075D01*
X59834916Y35141916D01*
X59722719Y35236512D01*
X59653565Y35294818D01*
X59448981Y35414873D01*
X59448978Y35414874D01*
X59227052Y35498626D01*
X59227049Y35498627D01*
X59227048Y35498627D01*
X58994155Y35543668D01*
X58994148Y35543669D01*
X58940863Y35546500D01*
X58940842Y35546500D01*
X57951158Y35546500D01*
X57951136Y35546500D01*
X57897851Y35543669D01*
X57897844Y35543668D01*
X57819959Y35528605D01*
X57664952Y35498627D01*
X57664951Y35498627D01*
X57664947Y35498626D01*
X57443021Y35414874D01*
X57443018Y35414873D01*
X57238434Y35294818D01*
X57057087Y35141919D01*
X57057078Y35141910D01*
X57040876Y35122693D01*
X56973529Y35071930D01*
X56890826Y35055416D01*
X56809148Y35076420D01*
X56751124Y35122693D01*
X56734921Y35141910D01*
X56734916Y35141916D01*
X56622719Y35236512D01*
X56553565Y35294818D01*
X56348981Y35414873D01*
X56348978Y35414874D01*
X56127052Y35498626D01*
X56127049Y35498627D01*
X56127048Y35498627D01*
X55894155Y35543668D01*
X55894148Y35543669D01*
X55840863Y35546500D01*
X55840842Y35546500D01*
X54851158Y35546500D01*
X54851136Y35546500D01*
X54797851Y35543669D01*
X54797844Y35543668D01*
X54719959Y35528605D01*
X54564952Y35498627D01*
X54564951Y35498627D01*
X54564947Y35498626D01*
X54343021Y35414874D01*
X54231708Y35349553D01*
X54151297Y35324126D01*
X54067817Y35336105D01*
X54039894Y35349553D01*
X53945800Y35404769D01*
X53885980Y35439873D01*
X53885978Y35439874D01*
X53664052Y35523626D01*
X53656299Y35525821D01*
X53657087Y35528605D01*
X53594563Y35556231D01*
X53539850Y35620409D01*
X53518402Y35701972D01*
X53518300Y35708177D01*
X53518300Y37287653D01*
X53537066Y37369874D01*
X53573803Y37421650D01*
X53597964Y37445811D01*
X53680502Y37528349D01*
X53800267Y37703184D01*
X53885867Y37897049D01*
X53934386Y38103341D01*
X53940500Y38191422D01*
X53940500Y39532578D01*
X53934386Y39620659D01*
X53885867Y39826951D01*
X53800267Y40020816D01*
X53680502Y40195651D01*
X53530651Y40345502D01*
X53355816Y40465267D01*
X53161951Y40550867D01*
X53161946Y40550869D01*
X53030622Y40581755D01*
X52955659Y40599386D01*
X52926298Y40601424D01*
X52867582Y40605500D01*
X52867578Y40605500D01*
X51526422Y40605500D01*
X51526417Y40605500D01*
X51453021Y40600405D01*
X51438341Y40599386D01*
X51400859Y40590571D01*
X51232053Y40550869D01*
X51232053Y40550868D01*
X51232049Y40550867D01*
X51119918Y40501357D01*
X51038185Y40465268D01*
X50863347Y40345501D01*
X50713497Y40195651D01*
X50677322Y40142843D01*
X50615372Y40085617D01*
X50534729Y40060938D01*
X50471943Y40066895D01*
X50412268Y40082884D01*
X50412271Y40082884D01*
X50197000Y40101717D01*
X49981728Y40082884D01*
X49981727Y40082884D01*
X49772986Y40026951D01*
X49577148Y39935630D01*
X49577144Y39935628D01*
X49468707Y39859700D01*
X50166408Y39162000D01*
X50157504Y39162000D01*
X50081204Y39141556D01*
X50012795Y39102060D01*
X49956940Y39046205D01*
X49917444Y38977796D01*
X49897000Y38901496D01*
X49897000Y38892592D01*
X49199299Y39590293D01*
X49123372Y39481856D01*
X49123370Y39481852D01*
X49032049Y39286014D01*
X48976116Y39077273D01*
X48976116Y39077272D01*
X48957283Y38862000D01*
X48976116Y38646729D01*
X48976116Y38646728D01*
X49032049Y38437987D01*
X49123370Y38242146D01*
X49123375Y38242139D01*
X49199299Y38133709D01*
X49897000Y38831410D01*
X49897000Y38822504D01*
X49917444Y38746204D01*
X49956940Y38677795D01*
X50012795Y38621940D01*
X50081204Y38582444D01*
X50157504Y38562000D01*
X50166406Y38562000D01*
X49468707Y37864301D01*
X49577143Y37788373D01*
X49577145Y37788371D01*
X49772986Y37697050D01*
X49981727Y37641117D01*
X50197000Y37622284D01*
X50412271Y37641117D01*
X50471940Y37657105D01*
X50556216Y37660259D01*
X50633515Y37626534D01*
X50677323Y37581157D01*
X50713498Y37528349D01*
X50820197Y37421650D01*
X50865066Y37350241D01*
X50875700Y37287653D01*
X50875700Y35114809D01*
X50856934Y35032588D01*
X50804351Y34966652D01*
X50728368Y34930060D01*
X50644032Y34930060D01*
X50600170Y34945963D01*
X50476900Y35008772D01*
X50297209Y35056919D01*
X50297212Y35056919D01*
X50219941Y35063000D01*
X49936001Y35063000D01*
X49936000Y35062999D01*
X49936000Y33527000D01*
X49917234Y33444779D01*
X49864651Y33378843D01*
X49788668Y33342251D01*
X49746500Y33337500D01*
X49744500Y33337500D01*
X49662279Y33356266D01*
X49596343Y33408849D01*
X49559751Y33484832D01*
X49555000Y33527000D01*
X49555000Y35062999D01*
X49554999Y35063000D01*
X49271059Y35063000D01*
X49193788Y35056919D01*
X49014099Y35008772D01*
X48840830Y34920487D01*
X48759051Y34899881D01*
X48676430Y34916798D01*
X48609331Y34967888D01*
X48571044Y35043031D01*
X48565300Y35089333D01*
X48565300Y40522205D01*
X48584066Y40604426D01*
X48620803Y40656202D01*
X49767798Y41803197D01*
X49839207Y41848066D01*
X49901795Y41858700D01*
X51183990Y41858700D01*
X51203906Y41861855D01*
X51389405Y41891235D01*
X51587203Y41955503D01*
X51772512Y42049923D01*
X51940769Y42172168D01*
X53414597Y43645998D01*
X53486006Y43690866D01*
X53548594Y43701500D01*
X54114839Y43701500D01*
X54114842Y43701500D01*
X54114852Y43701501D01*
X54114863Y43701501D01*
X54127493Y43702173D01*
X54168155Y43704332D01*
X54401048Y43749373D01*
X54622979Y43833127D01*
X54827563Y43953181D01*
X55008916Y44106084D01*
X55161819Y44287437D01*
X55167110Y44296453D01*
X55172190Y44305108D01*
X55229988Y44366523D01*
X55308710Y44396779D01*
X55335627Y44398700D01*
X56843572Y44398700D01*
X56925793Y44379934D01*
G37*
%TD.AperFunction*%
%TA.AperFunction,Conductor*%
G36*
X16650000Y6415826D02*
G01*
X16650000Y6284174D01*
X16683407Y6159500D01*
X15076593Y6159500D01*
X15110000Y6284174D01*
X15110000Y6415826D01*
X15076593Y6540500D01*
X16683407Y6540500D01*
X16650000Y6415826D01*
G37*
%TD.AperFunction*%
%TA.AperFunction,Conductor*%
G36*
X16513000Y44261826D02*
G01*
X16513000Y44130174D01*
X16546407Y44005500D01*
X14939593Y44005500D01*
X14973000Y44130174D01*
X14973000Y44261826D01*
X14939593Y44386500D01*
X16546407Y44386500D01*
X16513000Y44261826D01*
G37*
%TD.AperFunction*%
%TA.AperFunction,Conductor*%
G36*
X99841721Y49892234D02*
G01*
X99907657Y49839651D01*
X99944249Y49763668D01*
X99949000Y49721500D01*
X99949000Y189500D01*
X99930234Y107279D01*
X99877651Y41343D01*
X99801668Y4751D01*
X99759500Y0D01*
X189500Y0D01*
X107279Y18766D01*
X41343Y71349D01*
X4751Y147332D01*
X0Y189500D01*
X0Y4704709D01*
X2848500Y4704709D01*
X2880162Y4464208D01*
X2942946Y4229899D01*
X2942948Y4229894D01*
X3035772Y4005795D01*
X3035775Y4005790D01*
X3035776Y4005788D01*
X3157064Y3795711D01*
X3157066Y3795708D01*
X3157071Y3795700D01*
X3304728Y3603270D01*
X3304731Y3603267D01*
X3304735Y3603262D01*
X3476262Y3431735D01*
X3476266Y3431732D01*
X3476269Y3431729D01*
X3668699Y3284072D01*
X3668707Y3284067D01*
X3668711Y3284064D01*
X3878788Y3162776D01*
X3878791Y3162775D01*
X3878794Y3162773D01*
X4066281Y3085114D01*
X4102900Y3069946D01*
X4337211Y3007162D01*
X4577712Y2975500D01*
X4820288Y2975500D01*
X5060789Y3007162D01*
X5295100Y3069946D01*
X5330818Y3084741D01*
X77522147Y3084741D01*
X77748411Y2907476D01*
X77748418Y2907472D01*
X78021212Y2742561D01*
X78021219Y2742558D01*
X78311903Y2611731D01*
X78616258Y2516891D01*
X78616257Y2516891D01*
X78929812Y2459430D01*
X78929811Y2459430D01*
X79247995Y2440184D01*
X79248005Y2440184D01*
X79566188Y2459430D01*
X79879742Y2516891D01*
X80184096Y2611731D01*
X80474780Y2742558D01*
X80474787Y2742561D01*
X80747590Y2907477D01*
X80973851Y3084741D01*
X79247999Y4810592D01*
X77522147Y3084741D01*
X5330818Y3084741D01*
X5519212Y3162776D01*
X5729289Y3284064D01*
X5729296Y3284071D01*
X5729300Y3284072D01*
X5921730Y3431729D01*
X5921729Y3431729D01*
X5921738Y3431735D01*
X6093265Y3603262D01*
X6240936Y3795711D01*
X6362224Y4005788D01*
X6455054Y4229900D01*
X6517838Y4464211D01*
X6549500Y4704712D01*
X6549500Y4947288D01*
X6517838Y5187789D01*
X6513643Y5203443D01*
X6502292Y5245806D01*
X6455054Y5422100D01*
X6439886Y5458719D01*
X6362227Y5646206D01*
X6362225Y5646209D01*
X6362224Y5646212D01*
X6240936Y5856289D01*
X6240933Y5856293D01*
X6240928Y5856301D01*
X6093271Y6048731D01*
X6093268Y6048734D01*
X6093265Y6048738D01*
X5982503Y6159500D01*
X13135697Y6159500D01*
X13140235Y6104734D01*
X13200646Y5866176D01*
X13200649Y5866166D01*
X13299504Y5640799D01*
X13299506Y5640795D01*
X13434109Y5434769D01*
X13600790Y5253707D01*
X13600796Y5253702D01*
X13795000Y5102546D01*
X14011434Y4985418D01*
X14011437Y4985417D01*
X14244203Y4905508D01*
X14244205Y4905507D01*
X14419500Y4876257D01*
X14419500Y5883407D01*
X14544174Y5850000D01*
X14675826Y5850000D01*
X14800500Y5883407D01*
X14800500Y4876257D01*
X14975794Y4905507D01*
X14975796Y4905508D01*
X15208562Y4985417D01*
X15208565Y4985418D01*
X15424996Y5102545D01*
X15510053Y5168747D01*
X15586463Y5204439D01*
X15670793Y5203443D01*
X15746339Y5165957D01*
X15789559Y5115667D01*
X15794262Y5107714D01*
X15907714Y4994262D01*
X15907717Y4994260D01*
X16045805Y4912596D01*
X16199875Y4867834D01*
X16235873Y4865000D01*
X16959499Y4865000D01*
X16959500Y4865001D01*
X16959500Y5883407D01*
X17084174Y5850000D01*
X17215826Y5850000D01*
X17340500Y5883407D01*
X17340500Y4865001D01*
X17340501Y4865000D01*
X18064127Y4865000D01*
X18100124Y4867834D01*
X18254194Y4912596D01*
X18392282Y4994260D01*
X18392285Y4994262D01*
X18505738Y5107715D01*
X18505740Y5107718D01*
X18587404Y5245806D01*
X18632166Y5399876D01*
X18635000Y5435874D01*
X18635000Y6159499D01*
X18634999Y6159500D01*
X17616593Y6159500D01*
X17650000Y6284174D01*
X17650000Y6286500D01*
X22705867Y6286500D01*
X23778105Y6286500D01*
X23757259Y6250394D01*
X23730000Y6148661D01*
X23730000Y6043339D01*
X23757259Y5941606D01*
X23778105Y5905500D01*
X22705868Y5905500D01*
X22709720Y5858999D01*
X22709721Y5858992D01*
X22768100Y5628463D01*
X22768102Y5628456D01*
X22863628Y5410679D01*
X22993701Y5211587D01*
X22993707Y5211578D01*
X23154764Y5036624D01*
X23154775Y5036614D01*
X23342441Y4890549D01*
X23551588Y4777364D01*
X23776510Y4700147D01*
X23776529Y4700142D01*
X23939500Y4672947D01*
X23939500Y5744105D01*
X23975606Y5723259D01*
X24077339Y5696000D01*
X24182661Y5696000D01*
X24284394Y5723259D01*
X24320500Y5744105D01*
X24320500Y4672948D01*
X24483470Y4700142D01*
X24483489Y4700147D01*
X24708411Y4777364D01*
X24917558Y4890549D01*
X25105224Y5036614D01*
X25105235Y5036624D01*
X25266292Y5211578D01*
X25266298Y5211587D01*
X25396371Y5410679D01*
X25491897Y5628456D01*
X25491899Y5628463D01*
X25500661Y5663061D01*
X43348001Y5663061D01*
X43354081Y5585791D01*
X43402228Y5406103D01*
X43486690Y5240337D01*
X43486690Y5240336D01*
X43603758Y5095771D01*
X43603770Y5095759D01*
X43748335Y4978691D01*
X43914102Y4894229D01*
X44093791Y4846082D01*
X44093788Y4846082D01*
X44171059Y4840001D01*
X44505000Y4840001D01*
X44505000Y6159499D01*
X44504999Y6159500D01*
X43348002Y6159500D01*
X43348001Y6159499D01*
X43348001Y5663061D01*
X25500661Y5663061D01*
X25550278Y5858992D01*
X25550279Y5858999D01*
X25554132Y5905500D01*
X24481895Y5905500D01*
X24502741Y5941606D01*
X24530000Y6043339D01*
X24530000Y6148661D01*
X24502741Y6250394D01*
X24481895Y6286500D01*
X25554132Y6286500D01*
X25550279Y6333002D01*
X25550278Y6333009D01*
X25491899Y6563538D01*
X25491897Y6563545D01*
X25396371Y6781322D01*
X25266298Y6980414D01*
X25266292Y6980423D01*
X25105235Y7155377D01*
X25105224Y7155387D01*
X24917558Y7301452D01*
X24708411Y7414637D01*
X24483485Y7491855D01*
X24483473Y7491858D01*
X24320500Y7519055D01*
X24320500Y6447896D01*
X24284394Y6468741D01*
X24182661Y6496000D01*
X24077339Y6496000D01*
X23975606Y6468741D01*
X23939500Y6447896D01*
X23939500Y7519055D01*
X23939499Y7519055D01*
X23776526Y7491858D01*
X23776514Y7491855D01*
X23551588Y7414637D01*
X23342441Y7301452D01*
X23154775Y7155387D01*
X23154764Y7155377D01*
X22993707Y6980423D01*
X22993701Y6980414D01*
X22863628Y6781322D01*
X22768102Y6563545D01*
X22768100Y6563538D01*
X22709721Y6333009D01*
X22709720Y6333002D01*
X22705867Y6286500D01*
X17650000Y6286500D01*
X17650000Y6415826D01*
X17616593Y6540500D01*
X18634999Y6540500D01*
X18635000Y6540501D01*
X18635000Y7264127D01*
X18632166Y7300125D01*
X18587404Y7454195D01*
X18505740Y7592283D01*
X18505738Y7592286D01*
X18392285Y7705739D01*
X18392282Y7705741D01*
X18254194Y7787405D01*
X18100124Y7832167D01*
X18064127Y7835000D01*
X17340501Y7835000D01*
X17340500Y7834999D01*
X17340500Y6816594D01*
X17215826Y6850000D01*
X17084174Y6850000D01*
X16959500Y6816594D01*
X16959500Y7834999D01*
X16959499Y7835000D01*
X16235873Y7835000D01*
X16199875Y7832167D01*
X16045805Y7787405D01*
X15907717Y7705741D01*
X15907714Y7705739D01*
X15794261Y7592286D01*
X15794257Y7592280D01*
X15789556Y7584331D01*
X15731549Y7523113D01*
X15652724Y7493127D01*
X15568695Y7500311D01*
X15510054Y7531254D01*
X15424999Y7597454D01*
X15208565Y7714583D01*
X15208566Y7714583D01*
X14975801Y7794491D01*
X14975788Y7794495D01*
X14800500Y7823746D01*
X14800500Y6816594D01*
X14675826Y6850000D01*
X14544174Y6850000D01*
X14419500Y6816594D01*
X14419500Y7823746D01*
X14419499Y7823746D01*
X14244211Y7794495D01*
X14244198Y7794491D01*
X14011434Y7714583D01*
X13795000Y7597455D01*
X13600796Y7446299D01*
X13600790Y7446294D01*
X13434109Y7265232D01*
X13299506Y7059206D01*
X13299504Y7059202D01*
X13200649Y6833835D01*
X13200646Y6833825D01*
X13140235Y6595267D01*
X13135697Y6540500D01*
X14143407Y6540500D01*
X14110000Y6415826D01*
X14110000Y6284174D01*
X14143407Y6159500D01*
X13135697Y6159500D01*
X5982503Y6159500D01*
X5921738Y6220265D01*
X5921733Y6220269D01*
X5921730Y6220272D01*
X5729300Y6367929D01*
X5729292Y6367934D01*
X5729289Y6367936D01*
X5519212Y6489224D01*
X5519210Y6489225D01*
X5519205Y6489228D01*
X5295106Y6582052D01*
X5295101Y6582054D01*
X5060792Y6644838D01*
X4820291Y6676500D01*
X4820288Y6676500D01*
X4577712Y6676500D01*
X4577708Y6676500D01*
X4337207Y6644838D01*
X4102898Y6582054D01*
X4102893Y6582052D01*
X3878794Y6489228D01*
X3878786Y6489223D01*
X3668707Y6367934D01*
X3668699Y6367929D01*
X3476269Y6220272D01*
X3304728Y6048731D01*
X3157071Y5856301D01*
X3157066Y5856293D01*
X3035777Y5646214D01*
X3035772Y5646206D01*
X2942948Y5422107D01*
X2942946Y5422102D01*
X2880162Y5187793D01*
X2848500Y4947292D01*
X2848500Y4704709D01*
X0Y4704709D01*
X0Y10434060D01*
X22620000Y10434060D01*
X22626081Y10356789D01*
X22674228Y10177102D01*
X22758688Y10011338D01*
X22875759Y9866768D01*
X22875767Y9866760D01*
X23020337Y9749689D01*
X23186101Y9665229D01*
X23365790Y9617082D01*
X23365787Y9617082D01*
X23443059Y9611000D01*
X23939499Y9611000D01*
X23939500Y9611001D01*
X24320500Y9611001D01*
X24320501Y9611000D01*
X24816941Y9611000D01*
X24894211Y9617082D01*
X25073898Y9665229D01*
X25239662Y9749689D01*
X25384232Y9866760D01*
X25384240Y9866768D01*
X25501311Y10011338D01*
X25585771Y10177102D01*
X25633918Y10356789D01*
X25640000Y10434060D01*
X25640000Y10705499D01*
X25639999Y10705500D01*
X24320501Y10705500D01*
X24320500Y10705499D01*
X24320500Y9611001D01*
X23939500Y9611001D01*
X23939500Y10705499D01*
X23939499Y10705500D01*
X22620001Y10705500D01*
X22620000Y10705499D01*
X22620000Y10434060D01*
X0Y10434060D01*
X0Y21336000D01*
X3455547Y21336000D01*
X3475343Y20983492D01*
X3475343Y20983490D01*
X3534485Y20635402D01*
X3632229Y20296128D01*
X3767337Y19969946D01*
X3767342Y19969937D01*
X3936953Y19663049D01*
X3938131Y19660919D01*
X3938133Y19660916D01*
X4116371Y19409713D01*
X4142440Y19372972D01*
X4377708Y19109708D01*
X4640972Y18874440D01*
X4928922Y18670129D01*
X5237937Y18499342D01*
X5237940Y18499341D01*
X5237945Y18499338D01*
X5485539Y18396782D01*
X5564132Y18364228D01*
X5903403Y18266485D01*
X6251485Y18207344D01*
X6604000Y18187547D01*
X6956515Y18207344D01*
X7304597Y18266485D01*
X7643868Y18364228D01*
X7872746Y18459032D01*
X7970054Y18499338D01*
X7970055Y18499340D01*
X7970063Y18499342D01*
X8279078Y18670129D01*
X8567028Y18874440D01*
X8655795Y18953769D01*
X8729604Y18994561D01*
X8813807Y18999291D01*
X8891723Y18967018D01*
X8947920Y18904134D01*
X8971268Y18823095D01*
X8961744Y18752251D01*
X8959633Y18745955D01*
X8911114Y18539658D01*
X8907716Y18490700D01*
X8905000Y18451578D01*
X8905000Y16610422D01*
X8911114Y16522341D01*
X8959633Y16316049D01*
X9045233Y16122184D01*
X9090614Y16055936D01*
X9090616Y16055933D01*
X9121599Y15977496D01*
X9115481Y15893382D01*
X9100600Y15858027D01*
X9080520Y15821253D01*
X9080513Y15821236D01*
X8980863Y15554064D01*
X8920252Y15275439D01*
X8920251Y15275428D01*
X8899908Y14991003D01*
X8899908Y14990998D01*
X8920251Y14706573D01*
X8920252Y14706562D01*
X8980863Y14427937D01*
X9080513Y14160765D01*
X9080521Y14160746D01*
X9217168Y13910494D01*
X9217173Y13910486D01*
X9217175Y13910483D01*
X9217177Y13910480D01*
X9388065Y13682201D01*
X9589701Y13480565D01*
X9817980Y13309677D01*
X9817983Y13309675D01*
X9817985Y13309674D01*
X9817993Y13309669D01*
X10068245Y13173022D01*
X10068248Y13173021D01*
X10068255Y13173017D01*
X10335432Y13073365D01*
X10335435Y13073365D01*
X10335436Y13073364D01*
X10614061Y13012753D01*
X10614062Y13012753D01*
X10614071Y13012751D01*
X10864999Y12994804D01*
X10898498Y12992408D01*
X10898500Y12992408D01*
X10898502Y12992408D01*
X10930137Y12994671D01*
X11182929Y13012751D01*
X11461568Y13073365D01*
X11728745Y13173017D01*
X11805536Y13214948D01*
X11979006Y13309669D01*
X11979010Y13309672D01*
X11979020Y13309677D01*
X12207299Y13480565D01*
X12408935Y13682201D01*
X12579823Y13910480D01*
X12641152Y14022795D01*
X12716478Y14160746D01*
X12716477Y14160746D01*
X12716483Y14160755D01*
X12816135Y14427932D01*
X12876749Y14706571D01*
X12897092Y14991000D01*
X12896521Y14998979D01*
X12884706Y15164174D01*
X12876749Y15275429D01*
X12854342Y15378431D01*
X12816136Y15554064D01*
X12813440Y15561292D01*
X12743802Y15748000D01*
X12716483Y15821246D01*
X12696401Y15858023D01*
X12673467Y15939180D01*
X12688018Y16022251D01*
X12706382Y16055931D01*
X12751767Y16122184D01*
X12837367Y16316049D01*
X12885886Y16522341D01*
X12892000Y16610422D01*
X12892000Y18451578D01*
X12885886Y18539659D01*
X12837367Y18745951D01*
X12751767Y18939816D01*
X12632002Y19114651D01*
X12482151Y19264502D01*
X12364719Y19344945D01*
X12302206Y19387768D01*
X12244980Y19449717D01*
X12220299Y19530360D01*
X12219800Y19544105D01*
X12219800Y22152383D01*
X12238566Y22234604D01*
X12291149Y22300540D01*
X12295691Y22304052D01*
X12428473Y22403449D01*
X12524221Y22499197D01*
X12595630Y22544066D01*
X12658218Y22554700D01*
X14236873Y22554700D01*
X14319094Y22535934D01*
X14385030Y22483351D01*
X14400310Y22461108D01*
X14410674Y22443447D01*
X14410679Y22443439D01*
X14410681Y22443437D01*
X14563584Y22262084D01*
X14608926Y22223855D01*
X14744934Y22109183D01*
X14949518Y21989128D01*
X14949521Y21989127D01*
X15171452Y21905373D01*
X15404345Y21860332D01*
X15439197Y21858481D01*
X15457636Y21857501D01*
X15457648Y21857501D01*
X15457658Y21857500D01*
X15457661Y21857500D01*
X16447339Y21857500D01*
X16447342Y21857500D01*
X16447352Y21857501D01*
X16447363Y21857501D01*
X16459993Y21858173D01*
X16500655Y21860332D01*
X16733548Y21905373D01*
X16955479Y21989127D01*
X16961996Y21992951D01*
X17031013Y22033452D01*
X17160063Y22109181D01*
X17341416Y22262084D01*
X17357623Y22281308D01*
X17424968Y22332069D01*
X17507670Y22348585D01*
X17589349Y22327583D01*
X17647376Y22281308D01*
X17663584Y22262084D01*
X17708926Y22223855D01*
X17844934Y22109183D01*
X18049518Y21989128D01*
X18049521Y21989127D01*
X18271452Y21905373D01*
X18504345Y21860332D01*
X18539197Y21858481D01*
X18557636Y21857501D01*
X18557648Y21857501D01*
X18557658Y21857500D01*
X18557661Y21857500D01*
X19547339Y21857500D01*
X19547342Y21857500D01*
X19547352Y21857501D01*
X19547363Y21857501D01*
X19559993Y21858173D01*
X19600655Y21860332D01*
X19833548Y21905373D01*
X20055479Y21989127D01*
X20061996Y21992951D01*
X20131013Y22033452D01*
X20260063Y22109181D01*
X20441416Y22262084D01*
X20594319Y22443437D01*
X20594325Y22443447D01*
X20604690Y22461108D01*
X20662488Y22522523D01*
X20741210Y22552779D01*
X20768127Y22554700D01*
X22341700Y22554700D01*
X22423921Y22535934D01*
X22489857Y22483351D01*
X22526449Y22407368D01*
X22531200Y22365200D01*
X22531200Y19966395D01*
X22512434Y19884174D01*
X22493407Y19852838D01*
X22490849Y19849421D01*
X22490848Y19849420D01*
X22357615Y19605424D01*
X22260461Y19344945D01*
X22201369Y19073297D01*
X22201368Y19073289D01*
X22181536Y18796002D01*
X22181536Y18795999D01*
X22201368Y18518712D01*
X22201369Y18518704D01*
X22260461Y18247056D01*
X22357615Y17986577D01*
X22490846Y17742583D01*
X22657449Y17520027D01*
X22753197Y17424279D01*
X22798066Y17352870D01*
X22808700Y17290282D01*
X22808700Y15711627D01*
X22789934Y15629406D01*
X22737351Y15563470D01*
X22715111Y15548191D01*
X22697436Y15537819D01*
X22516087Y15384919D01*
X22516081Y15384913D01*
X22363182Y15203566D01*
X22243127Y14998982D01*
X22243126Y14998979D01*
X22159374Y14777053D01*
X22159373Y14777049D01*
X22159373Y14777048D01*
X22150274Y14730000D01*
X22114332Y14544156D01*
X22114331Y14544149D01*
X22111500Y14490864D01*
X22111500Y13501137D01*
X22114331Y13447852D01*
X22114332Y13447845D01*
X22156515Y13229728D01*
X22159373Y13214954D01*
X22159374Y13214948D01*
X22243126Y12993022D01*
X22243127Y12993019D01*
X22363182Y12788435D01*
X22390676Y12755826D01*
X22516084Y12607084D01*
X22540063Y12586867D01*
X22697434Y12454183D01*
X22697436Y12454182D01*
X22697437Y12454181D01*
X22746440Y12425426D01*
X22902018Y12334128D01*
X22902020Y12334127D01*
X22919430Y12327557D01*
X22989731Y12280970D01*
X23032856Y12208495D01*
X23040264Y12124485D01*
X23010488Y12045581D01*
X22971782Y12002993D01*
X22875769Y11925243D01*
X22875759Y11925233D01*
X22758688Y11780663D01*
X22674228Y11614899D01*
X22626081Y11435212D01*
X22620000Y11357941D01*
X22620000Y11086501D01*
X22620001Y11086500D01*
X25639999Y11086500D01*
X25640000Y11086501D01*
X25640000Y11357941D01*
X25633918Y11435212D01*
X25585771Y11614899D01*
X25501311Y11780663D01*
X25384240Y11925233D01*
X25384236Y11925237D01*
X25288217Y12002992D01*
X25236130Y12069320D01*
X25217979Y12151679D01*
X25237360Y12233757D01*
X25290435Y12299298D01*
X25340567Y12327557D01*
X25357979Y12334127D01*
X25562563Y12454181D01*
X25743916Y12607084D01*
X25896819Y12788437D01*
X26016873Y12993021D01*
X26100627Y13214952D01*
X26145668Y13447845D01*
X26148500Y13501158D01*
X26148500Y14490842D01*
X26145668Y14544155D01*
X26100627Y14777048D01*
X26096515Y14787943D01*
X26085040Y14871491D01*
X26110952Y14951747D01*
X26169119Y15012812D01*
X26242651Y15041776D01*
X26642491Y15108416D01*
X26726675Y15103422D01*
X26792900Y15068761D01*
X26805337Y15058690D01*
X26971101Y14974229D01*
X27150790Y14926082D01*
X27150787Y14926082D01*
X27228059Y14920000D01*
X27749499Y14920000D01*
X27749500Y14920001D01*
X28130500Y14920001D01*
X28130501Y14920000D01*
X28651941Y14920000D01*
X28729211Y14926082D01*
X28908898Y14974229D01*
X29074662Y15058689D01*
X29219232Y15175760D01*
X29219240Y15175768D01*
X29336311Y15320338D01*
X29420771Y15486102D01*
X29468918Y15665789D01*
X29475000Y15743060D01*
X29475000Y16026999D01*
X29474999Y16027000D01*
X28130501Y16027000D01*
X28130500Y16026999D01*
X28130500Y14920001D01*
X27749500Y14920001D01*
X27749500Y16218500D01*
X27768266Y16300721D01*
X27820849Y16366657D01*
X27896832Y16403249D01*
X27939000Y16408000D01*
X29474999Y16408000D01*
X29475000Y16408001D01*
X29475000Y16691941D01*
X29468918Y16769212D01*
X29420771Y16948899D01*
X29336311Y17114663D01*
X29219240Y17259233D01*
X29219236Y17259237D01*
X29123217Y17336992D01*
X29071130Y17403320D01*
X29052979Y17485679D01*
X29072360Y17567757D01*
X29125435Y17633298D01*
X29175567Y17661557D01*
X29192979Y17668127D01*
X29397563Y17788181D01*
X29578916Y17941084D01*
X29585547Y17948949D01*
X29589681Y17953851D01*
X29657028Y18004614D01*
X29734558Y18021200D01*
X36980477Y18021200D01*
X37062698Y18002434D01*
X37114474Y17965697D01*
X38539675Y16540496D01*
X38584544Y16469088D01*
X38593986Y16385283D01*
X38566132Y16305680D01*
X38506498Y16246046D01*
X38426895Y16218192D01*
X38405678Y16217000D01*
X38046501Y16217000D01*
X38046500Y16216999D01*
X38046500Y15198594D01*
X37921826Y15232000D01*
X37790174Y15232000D01*
X37665500Y15198594D01*
X37665500Y16216999D01*
X37665499Y16217000D01*
X36941873Y16217000D01*
X36905875Y16214167D01*
X36751805Y16169405D01*
X36613717Y16087741D01*
X36613714Y16087739D01*
X36500261Y15974286D01*
X36500259Y15974283D01*
X36418595Y15836195D01*
X36373833Y15682125D01*
X36371000Y15646127D01*
X36371000Y14922501D01*
X36371001Y14922500D01*
X37389407Y14922500D01*
X37356000Y14797826D01*
X37356000Y14666174D01*
X37389407Y14541500D01*
X36371001Y14541500D01*
X36371000Y14541499D01*
X36371000Y13817874D01*
X36373833Y13781876D01*
X36418595Y13627806D01*
X36500259Y13489718D01*
X36500261Y13489715D01*
X36613714Y13376262D01*
X36613717Y13376260D01*
X36751805Y13294596D01*
X36905875Y13249834D01*
X36941873Y13247000D01*
X37665499Y13247000D01*
X37665500Y13247001D01*
X37665500Y14265407D01*
X37790174Y14232000D01*
X37921826Y14232000D01*
X38046500Y14265407D01*
X38046500Y13247001D01*
X38046501Y13247000D01*
X38770127Y13247000D01*
X38806124Y13249834D01*
X38960194Y13294596D01*
X39098282Y13376260D01*
X39098285Y13376262D01*
X39211736Y13489713D01*
X39216436Y13497660D01*
X39274440Y13558881D01*
X39353263Y13588873D01*
X39437292Y13581694D01*
X39495945Y13550747D01*
X39581000Y13484547D01*
X39797434Y13367418D01*
X39797437Y13367417D01*
X40030199Y13287509D01*
X40030210Y13287507D01*
X40228591Y13254402D01*
X40306602Y13222359D01*
X40362984Y13159641D01*
X40386570Y13078671D01*
X40386900Y13067487D01*
X40386900Y12243789D01*
X40386900Y12035811D01*
X40419435Y11830395D01*
X40435594Y11780663D01*
X40483702Y11632599D01*
X40578121Y11447290D01*
X40578123Y11447288D01*
X40700363Y11279037D01*
X40700368Y11279031D01*
X43843231Y8136168D01*
X43889565Y8102505D01*
X43945051Y8038997D01*
X43967488Y7957701D01*
X43952430Y7874721D01*
X43902860Y7806491D01*
X43864211Y7780352D01*
X43748340Y7721313D01*
X43748335Y7721310D01*
X43603770Y7604242D01*
X43603758Y7604230D01*
X43486690Y7459665D01*
X43486690Y7459664D01*
X43402228Y7293898D01*
X43354081Y7114211D01*
X43348000Y7036940D01*
X43348000Y6540501D01*
X43348001Y6540500D01*
X44696500Y6540500D01*
X44778721Y6521734D01*
X44844657Y6469151D01*
X44881249Y6393168D01*
X44886000Y6351000D01*
X44886000Y4840002D01*
X44886001Y4840001D01*
X45219940Y4840001D01*
X45297209Y4846082D01*
X45476897Y4894229D01*
X45642663Y4978691D01*
X45642664Y4978691D01*
X45734188Y5052806D01*
X45809895Y5089966D01*
X45894228Y5090597D01*
X45970484Y5054576D01*
X46016882Y5001448D01*
X46066179Y4917442D01*
X46066183Y4917436D01*
X46219082Y4736088D01*
X46219087Y4736083D01*
X46288077Y4677916D01*
X46400437Y4583182D01*
X46400439Y4583181D01*
X46400445Y4583177D01*
X46453407Y4552098D01*
X46605021Y4463127D01*
X46826953Y4379373D01*
X47059846Y4334332D01*
X47113159Y4331500D01*
X48227840Y4331501D01*
X48242819Y4332297D01*
X48281142Y4334331D01*
X48281144Y4334332D01*
X48281154Y4334332D01*
X48514047Y4379373D01*
X48735979Y4463127D01*
X48940563Y4583182D01*
X49004351Y4636964D01*
X49079302Y4675614D01*
X49163606Y4677916D01*
X49240560Y4643413D01*
X49248630Y4636978D01*
X49312432Y4583185D01*
X49312437Y4583181D01*
X49517018Y4463128D01*
X49517021Y4463127D01*
X49738952Y4379373D01*
X49971845Y4334332D01*
X50006697Y4332481D01*
X50025136Y4331501D01*
X50025148Y4331501D01*
X50025158Y4331500D01*
X50025161Y4331500D01*
X51014839Y4331500D01*
X51014842Y4331500D01*
X51014852Y4331501D01*
X51014863Y4331501D01*
X51027493Y4332173D01*
X51068155Y4334332D01*
X51301048Y4379373D01*
X51522979Y4463127D01*
X51524827Y4464211D01*
X51640369Y4532014D01*
X51727563Y4583181D01*
X51908916Y4736084D01*
X51925123Y4755308D01*
X51992468Y4806069D01*
X52075170Y4822585D01*
X52156849Y4801583D01*
X52214876Y4755308D01*
X52231084Y4736084D01*
X52305969Y4672947D01*
X52412434Y4583183D01*
X52617018Y4463128D01*
X52617021Y4463127D01*
X52838952Y4379373D01*
X53071845Y4334332D01*
X53106697Y4332481D01*
X53125136Y4331501D01*
X53125148Y4331501D01*
X53125158Y4331500D01*
X53125161Y4331500D01*
X54114839Y4331500D01*
X54114842Y4331500D01*
X54114852Y4331501D01*
X54114863Y4331501D01*
X54127493Y4332173D01*
X54168155Y4334332D01*
X54401048Y4379373D01*
X54622979Y4463127D01*
X54624827Y4464211D01*
X54740369Y4532014D01*
X54827563Y4583181D01*
X55008916Y4736084D01*
X55161819Y4917437D01*
X55161825Y4917447D01*
X55172190Y4935108D01*
X55229988Y4996523D01*
X55308710Y5026779D01*
X55335627Y5028700D01*
X56848572Y5028700D01*
X56930793Y5009934D01*
X56982568Y4973197D01*
X57050258Y4905508D01*
X57116201Y4839565D01*
X57344480Y4668677D01*
X57344483Y4668675D01*
X57344485Y4668674D01*
X57344493Y4668669D01*
X57594745Y4532022D01*
X57594748Y4532021D01*
X57594755Y4532017D01*
X57861932Y4432365D01*
X57861935Y4432365D01*
X57861936Y4432364D01*
X58140561Y4371753D01*
X58140562Y4371753D01*
X58140571Y4371751D01*
X58391499Y4353804D01*
X58424998Y4351408D01*
X58425000Y4351408D01*
X58425002Y4351408D01*
X58456637Y4353671D01*
X58709429Y4371751D01*
X58988068Y4432365D01*
X59255245Y4532017D01*
X59292023Y4552100D01*
X59373174Y4575033D01*
X59456245Y4560485D01*
X59489933Y4542116D01*
X59556184Y4496733D01*
X59750049Y4411133D01*
X59956341Y4362614D01*
X60044422Y4356500D01*
X60044435Y4356500D01*
X61885565Y4356500D01*
X61885578Y4356500D01*
X61973659Y4362614D01*
X62179951Y4411133D01*
X62373816Y4496733D01*
X62548651Y4616498D01*
X62698502Y4766349D01*
X62818267Y4941184D01*
X62879558Y5079995D01*
X76608184Y5079995D01*
X76627429Y4761812D01*
X76684890Y4448258D01*
X76779730Y4143904D01*
X76910557Y3853220D01*
X76910560Y3853213D01*
X77075471Y3580419D01*
X77075475Y3580412D01*
X77252739Y3354149D01*
X78978591Y5080000D01*
X78978590Y5080001D01*
X79517408Y5080001D01*
X81243259Y3354149D01*
X81420523Y3580410D01*
X81585439Y3853213D01*
X81585442Y3853220D01*
X81716269Y4143904D01*
X81811109Y4448258D01*
X81858105Y4704709D01*
X93272500Y4704709D01*
X93304162Y4464208D01*
X93366946Y4229899D01*
X93366948Y4229894D01*
X93459772Y4005795D01*
X93459775Y4005790D01*
X93459776Y4005788D01*
X93581064Y3795711D01*
X93581066Y3795708D01*
X93581071Y3795700D01*
X93728728Y3603270D01*
X93728731Y3603267D01*
X93728735Y3603262D01*
X93900262Y3431735D01*
X93900266Y3431732D01*
X93900269Y3431729D01*
X94092699Y3284072D01*
X94092707Y3284067D01*
X94092711Y3284064D01*
X94302788Y3162776D01*
X94302791Y3162775D01*
X94302794Y3162773D01*
X94490281Y3085114D01*
X94526900Y3069946D01*
X94761211Y3007162D01*
X95001712Y2975500D01*
X95244288Y2975500D01*
X95484789Y3007162D01*
X95719100Y3069946D01*
X95943212Y3162776D01*
X96153289Y3284064D01*
X96153296Y3284071D01*
X96153300Y3284072D01*
X96345730Y3431729D01*
X96345729Y3431729D01*
X96345738Y3431735D01*
X96517265Y3603262D01*
X96664936Y3795711D01*
X96786224Y4005788D01*
X96879054Y4229900D01*
X96941838Y4464211D01*
X96973500Y4704712D01*
X96973500Y4947288D01*
X96941838Y5187789D01*
X96937643Y5203443D01*
X96926292Y5245806D01*
X96879054Y5422100D01*
X96863886Y5458719D01*
X96786227Y5646206D01*
X96786225Y5646209D01*
X96786224Y5646212D01*
X96664936Y5856289D01*
X96664933Y5856293D01*
X96664928Y5856301D01*
X96517271Y6048731D01*
X96517268Y6048734D01*
X96517265Y6048738D01*
X96345738Y6220265D01*
X96345733Y6220269D01*
X96345730Y6220272D01*
X96153300Y6367929D01*
X96153292Y6367934D01*
X96153289Y6367936D01*
X95943212Y6489224D01*
X95943210Y6489225D01*
X95943205Y6489228D01*
X95719106Y6582052D01*
X95719101Y6582054D01*
X95484792Y6644838D01*
X95244291Y6676500D01*
X95244288Y6676500D01*
X95001712Y6676500D01*
X95001708Y6676500D01*
X94761207Y6644838D01*
X94526898Y6582054D01*
X94526893Y6582052D01*
X94302794Y6489228D01*
X94302786Y6489223D01*
X94092707Y6367934D01*
X94092699Y6367929D01*
X93900269Y6220272D01*
X93728728Y6048731D01*
X93581071Y5856301D01*
X93581066Y5856293D01*
X93459777Y5646214D01*
X93459772Y5646206D01*
X93366948Y5422107D01*
X93366946Y5422102D01*
X93304162Y5187793D01*
X93272500Y4947292D01*
X93272500Y4704709D01*
X81858105Y4704709D01*
X81868570Y4761812D01*
X81887816Y5079995D01*
X81887816Y5080006D01*
X81868570Y5398189D01*
X81811109Y5711743D01*
X81716269Y6016097D01*
X81585442Y6306781D01*
X81585439Y6306788D01*
X81420528Y6579582D01*
X81420524Y6579589D01*
X81243259Y6805853D01*
X79517408Y5080001D01*
X78978590Y5080001D01*
X77252739Y6805852D01*
X77075475Y6579589D01*
X77075471Y6579582D01*
X76910560Y6306788D01*
X76910557Y6306781D01*
X76779730Y6016097D01*
X76684890Y5711743D01*
X76627429Y5398189D01*
X76608184Y5080006D01*
X76608184Y5079995D01*
X62879558Y5079995D01*
X62903867Y5135049D01*
X62952386Y5341341D01*
X62958500Y5429422D01*
X62958500Y6396406D01*
X62977266Y6478627D01*
X63014003Y6530403D01*
X63558861Y7075261D01*
X77522148Y7075261D01*
X79248000Y5349409D01*
X80973851Y7075261D01*
X80747588Y7252525D01*
X80747581Y7252529D01*
X80474787Y7417440D01*
X80474780Y7417443D01*
X80184096Y7548270D01*
X79879741Y7643110D01*
X79879742Y7643110D01*
X79566187Y7700571D01*
X79566188Y7700571D01*
X79248005Y7719816D01*
X79247995Y7719816D01*
X78929811Y7700571D01*
X78616257Y7643110D01*
X78311903Y7548270D01*
X78021219Y7417443D01*
X78021212Y7417440D01*
X77748418Y7252529D01*
X77748411Y7252525D01*
X77522148Y7075261D01*
X63558861Y7075261D01*
X69108425Y12624825D01*
X69179834Y12669694D01*
X69242422Y12680328D01*
X87236266Y12680328D01*
X87318487Y12661562D01*
X87384423Y12608979D01*
X87421015Y12532996D01*
X87425119Y12506477D01*
X87430234Y12444738D01*
X87430236Y12444730D01*
X87490646Y12206176D01*
X87490649Y12206166D01*
X87589504Y11980799D01*
X87589506Y11980795D01*
X87724109Y11774769D01*
X87890790Y11593707D01*
X87890792Y11593705D01*
X87921837Y11569541D01*
X87975194Y11504230D01*
X87994929Y11422236D01*
X87977134Y11339799D01*
X87925333Y11273247D01*
X87921837Y11270459D01*
X87890792Y11246296D01*
X87890790Y11246294D01*
X87724109Y11065232D01*
X87589506Y10859206D01*
X87589504Y10859202D01*
X87490649Y10633835D01*
X87490646Y10633825D01*
X87430235Y10395267D01*
X87425697Y10340500D01*
X88433407Y10340500D01*
X88400000Y10215826D01*
X88400000Y10084174D01*
X88433407Y9959500D01*
X87425697Y9959500D01*
X87430235Y9904734D01*
X87490646Y9666176D01*
X87490649Y9666166D01*
X87589504Y9440799D01*
X87589506Y9440795D01*
X87724109Y9234769D01*
X87890790Y9053707D01*
X87890796Y9053702D01*
X88085000Y8902546D01*
X88301434Y8785418D01*
X88301437Y8785417D01*
X88534203Y8705508D01*
X88534205Y8705507D01*
X88709500Y8676257D01*
X88709500Y9683407D01*
X88834174Y9650000D01*
X88965826Y9650000D01*
X89090500Y9683407D01*
X89090500Y8676257D01*
X89265794Y8705507D01*
X89265796Y8705508D01*
X89498562Y8785417D01*
X89498565Y8785418D01*
X89714999Y8902546D01*
X89909203Y9053702D01*
X89909209Y9053707D01*
X90075890Y9234769D01*
X90210493Y9440795D01*
X90210495Y9440799D01*
X90309350Y9666166D01*
X90309353Y9666176D01*
X90369764Y9904734D01*
X90374303Y9959500D01*
X89366593Y9959500D01*
X89400000Y10084174D01*
X89400000Y10215826D01*
X89366593Y10340500D01*
X90374303Y10340500D01*
X90369764Y10395267D01*
X90309353Y10633825D01*
X90309350Y10633835D01*
X90210495Y10859202D01*
X90210493Y10859206D01*
X90075890Y11065232D01*
X89909209Y11246294D01*
X89909204Y11246299D01*
X89878164Y11270458D01*
X89824806Y11335768D01*
X89805070Y11417762D01*
X89822864Y11500199D01*
X89874664Y11566751D01*
X89878164Y11569542D01*
X89909204Y11593702D01*
X89909209Y11593707D01*
X90075890Y11774769D01*
X90210493Y11980795D01*
X90210495Y11980799D01*
X90309350Y12206166D01*
X90309353Y12206176D01*
X90369763Y12444730D01*
X90369765Y12444738D01*
X90374881Y12506477D01*
X90400373Y12586867D01*
X90458221Y12648236D01*
X90536967Y12678428D01*
X90563734Y12680328D01*
X91321618Y12680328D01*
X91341534Y12683483D01*
X91527033Y12712863D01*
X91724831Y12777131D01*
X91910140Y12871551D01*
X92078397Y12993796D01*
X95771763Y16687164D01*
X95843170Y16732031D01*
X95919277Y16742182D01*
X96000000Y16736408D01*
X96000002Y16736408D01*
X96031637Y16738671D01*
X96284429Y16756751D01*
X96563068Y16817365D01*
X96830245Y16917017D01*
X96918107Y16964993D01*
X97080506Y17053669D01*
X97080510Y17053672D01*
X97080520Y17053677D01*
X97308799Y17224565D01*
X97510435Y17426201D01*
X97681323Y17654480D01*
X97685188Y17661557D01*
X97817978Y17904746D01*
X97817977Y17904746D01*
X97817983Y17904755D01*
X97917635Y18171932D01*
X97978249Y18450571D01*
X97998223Y18729845D01*
X97998592Y18734998D01*
X97998592Y18735003D01*
X97988619Y18874440D01*
X97978249Y19019429D01*
X97957534Y19114653D01*
X97917636Y19298064D01*
X97900150Y19344945D01*
X97817983Y19565245D01*
X97817978Y19565255D01*
X97681331Y19815507D01*
X97681326Y19815515D01*
X97681325Y19815517D01*
X97681323Y19815520D01*
X97510435Y20043799D01*
X97504497Y20049737D01*
X97459630Y20121143D01*
X97450188Y20204948D01*
X97456521Y20236601D01*
X97482166Y20324871D01*
X97482166Y20324874D01*
X97485000Y20360874D01*
X97485000Y21084499D01*
X97484999Y21084500D01*
X96466593Y21084500D01*
X96500000Y21209174D01*
X96500000Y21340826D01*
X96466593Y21465500D01*
X97484999Y21465500D01*
X97485000Y21465501D01*
X97485000Y22189127D01*
X97482166Y22225125D01*
X97437404Y22379195D01*
X97355740Y22517283D01*
X97355738Y22517286D01*
X97242285Y22630739D01*
X97242282Y22630741D01*
X97104194Y22712405D01*
X96950124Y22757167D01*
X96914127Y22760000D01*
X96190501Y22760000D01*
X96190500Y22759999D01*
X96190500Y21741594D01*
X96065826Y21775000D01*
X95934174Y21775000D01*
X95809500Y21741594D01*
X95809500Y22759999D01*
X95809499Y22760000D01*
X95085873Y22760000D01*
X95049875Y22757167D01*
X94895805Y22712405D01*
X94757717Y22630741D01*
X94757714Y22630739D01*
X94644261Y22517286D01*
X94644259Y22517283D01*
X94562595Y22379195D01*
X94517833Y22225125D01*
X94515000Y22189127D01*
X94515000Y21465501D01*
X94515001Y21465500D01*
X95533407Y21465500D01*
X95500000Y21340826D01*
X95500000Y21209174D01*
X95533407Y21084500D01*
X94515001Y21084500D01*
X94515000Y21084499D01*
X94515000Y20360874D01*
X94517833Y20324874D01*
X94543479Y20236600D01*
X94548396Y20152408D01*
X94516297Y20074420D01*
X94495506Y20049742D01*
X94489569Y20043806D01*
X94318673Y19815515D01*
X94318668Y19815507D01*
X94182021Y19565255D01*
X94182013Y19565236D01*
X94082363Y19298064D01*
X94021752Y19019439D01*
X94021751Y19019428D01*
X94001408Y18735003D01*
X94001408Y18732504D01*
X94001147Y18731364D01*
X94000925Y18728249D01*
X94000444Y18728284D01*
X93982642Y18650283D01*
X93945905Y18598507D01*
X90725830Y15378431D01*
X90654421Y15333562D01*
X90591833Y15322928D01*
X90555684Y15322928D01*
X90473463Y15341694D01*
X90407527Y15394277D01*
X90372131Y15467776D01*
X90371690Y15467664D01*
X90371140Y15469833D01*
X90370935Y15470260D01*
X90370589Y15472008D01*
X90309353Y15713825D01*
X90309350Y15713835D01*
X90210495Y15939202D01*
X90210493Y15939206D01*
X90075994Y16145073D01*
X90046734Y16224169D01*
X90054691Y16308129D01*
X90098288Y16380321D01*
X90138175Y16411830D01*
X90142282Y16414260D01*
X90142285Y16414262D01*
X90255738Y16527715D01*
X90255740Y16527718D01*
X90337404Y16665806D01*
X90382166Y16819876D01*
X90385000Y16855874D01*
X90385000Y17579499D01*
X90384999Y17579500D01*
X89366593Y17579500D01*
X89400000Y17704174D01*
X89400000Y17835826D01*
X89366593Y17960500D01*
X90384999Y17960500D01*
X90385000Y17960501D01*
X90385000Y18684127D01*
X90382166Y18720125D01*
X90337404Y18874195D01*
X90255740Y19012283D01*
X90255738Y19012286D01*
X90142285Y19125739D01*
X90142282Y19125741D01*
X90004194Y19207405D01*
X89850124Y19252167D01*
X89814127Y19255000D01*
X89090501Y19255000D01*
X89090500Y19254999D01*
X89090500Y18236594D01*
X88965826Y18270000D01*
X88834174Y18270000D01*
X88709500Y18236594D01*
X88709500Y19254999D01*
X88709499Y19255000D01*
X87985873Y19255000D01*
X87949875Y19252167D01*
X87795805Y19207405D01*
X87657717Y19125741D01*
X87657714Y19125739D01*
X87544261Y19012286D01*
X87544259Y19012283D01*
X87462595Y18874195D01*
X87417833Y18720125D01*
X87415000Y18684127D01*
X87415000Y17960501D01*
X87415001Y17960500D01*
X88433407Y17960500D01*
X88400000Y17835826D01*
X88400000Y17704174D01*
X88433407Y17579500D01*
X87415001Y17579500D01*
X87415000Y17579499D01*
X87415000Y16855874D01*
X87417833Y16819876D01*
X87462595Y16665806D01*
X87544259Y16527718D01*
X87544261Y16527715D01*
X87657714Y16414262D01*
X87657719Y16414258D01*
X87661829Y16411827D01*
X87666236Y16407651D01*
X87667137Y16406952D01*
X87667067Y16406863D01*
X87723046Y16353819D01*
X87753032Y16274994D01*
X87745847Y16190965D01*
X87724006Y16145073D01*
X87589503Y15939200D01*
X87490649Y15713835D01*
X87490646Y15713825D01*
X87428310Y15467664D01*
X87425908Y15468273D01*
X87399179Y15403214D01*
X87336457Y15346837D01*
X87255485Y15323257D01*
X87244316Y15322928D01*
X68512638Y15322928D01*
X68382507Y15302317D01*
X68298362Y15307990D01*
X68225012Y15349610D01*
X68176984Y15418934D01*
X68163791Y15502231D01*
X68169819Y15538531D01*
X68203918Y15665791D01*
X68210000Y15743060D01*
X68210000Y16026999D01*
X68209999Y16027000D01*
X66674000Y16027000D01*
X66591779Y16045766D01*
X66525843Y16098349D01*
X66489251Y16174332D01*
X66484500Y16216500D01*
X66484500Y16218500D01*
X66503266Y16300721D01*
X66555849Y16366657D01*
X66631832Y16403249D01*
X66674000Y16408000D01*
X68209999Y16408000D01*
X68210000Y16408001D01*
X68210000Y16691941D01*
X68203918Y16769212D01*
X68155771Y16948899D01*
X68071311Y17114663D01*
X67954240Y17259233D01*
X67954236Y17259237D01*
X67858217Y17336992D01*
X67806130Y17403320D01*
X67787979Y17485679D01*
X67807360Y17567757D01*
X67860435Y17633298D01*
X67910567Y17661557D01*
X67927979Y17668127D01*
X68132563Y17788181D01*
X68313916Y17941084D01*
X68466819Y18122437D01*
X68586873Y18327021D01*
X68670627Y18548952D01*
X68715668Y18781845D01*
X68718500Y18835158D01*
X68718500Y19849842D01*
X68715668Y19903155D01*
X68670627Y20136048D01*
X68586873Y20357979D01*
X68586872Y20357982D01*
X68484167Y20533000D01*
X68466819Y20562563D01*
X68466818Y20562564D01*
X68466817Y20562566D01*
X68436872Y20598082D01*
X68398220Y20673038D01*
X68395918Y20757342D01*
X68430422Y20834296D01*
X68447739Y20854216D01*
X68524336Y20930812D01*
X68679428Y21132933D01*
X68796669Y21336000D01*
X68806806Y21353557D01*
X68806810Y21353565D01*
X68806812Y21353568D01*
X68823351Y21393499D01*
X68872152Y21462277D01*
X68945964Y21503072D01*
X69030167Y21507802D01*
X69108083Y21475529D01*
X69132423Y21454976D01*
X71783231Y18804168D01*
X71885529Y18729845D01*
X71951488Y18681923D01*
X72136797Y18587503D01*
X72334595Y18523235D01*
X72525691Y18492968D01*
X72541715Y18490430D01*
X72619988Y18459032D01*
X72676886Y18396782D01*
X72701141Y18316010D01*
X72694046Y18250395D01*
X72685833Y18222127D01*
X72683000Y18186127D01*
X72683000Y17462501D01*
X72683001Y17462500D01*
X73701407Y17462500D01*
X73668000Y17337826D01*
X73668000Y17206174D01*
X73701407Y17081500D01*
X72683001Y17081500D01*
X72683000Y17081499D01*
X72683000Y16357874D01*
X72685833Y16321876D01*
X72730595Y16167806D01*
X72812259Y16029718D01*
X72812261Y16029715D01*
X72925714Y15916262D01*
X72925717Y15916260D01*
X73063805Y15834596D01*
X73217875Y15789834D01*
X73253873Y15787000D01*
X73977499Y15787000D01*
X73977500Y15787001D01*
X73977500Y16805407D01*
X74102174Y16772000D01*
X74233826Y16772000D01*
X74358500Y16805407D01*
X74358500Y15787001D01*
X74358501Y15787000D01*
X75082127Y15787000D01*
X75118124Y15789834D01*
X75272194Y15834596D01*
X75410282Y15916260D01*
X75410285Y15916262D01*
X75523738Y16029715D01*
X75523740Y16029718D01*
X75605404Y16167806D01*
X75650166Y16321876D01*
X75653000Y16357874D01*
X75653000Y17081499D01*
X75652999Y17081500D01*
X74634593Y17081500D01*
X74668000Y17206174D01*
X74668000Y17337826D01*
X74634593Y17462500D01*
X75652999Y17462500D01*
X75653000Y17462501D01*
X75653000Y18186127D01*
X75650166Y18222127D01*
X75650165Y18222133D01*
X75642554Y18248331D01*
X75637636Y18332522D01*
X75669734Y18410511D01*
X75732492Y18466848D01*
X75813478Y18490378D01*
X75824529Y18490700D01*
X76082206Y18490700D01*
X76164427Y18471934D01*
X76216202Y18435197D01*
X76305563Y18345837D01*
X76381231Y18270169D01*
X76549488Y18147923D01*
X76734797Y18053503D01*
X76932595Y17989235D01*
X76988722Y17980346D01*
X77066994Y17948949D01*
X77103956Y17915328D01*
X77126073Y17889096D01*
X77126084Y17889084D01*
X77307434Y17736183D01*
X77512018Y17616128D01*
X77512021Y17616127D01*
X77733952Y17532373D01*
X77966845Y17487332D01*
X78001697Y17485481D01*
X78020136Y17484501D01*
X78020148Y17484501D01*
X78020158Y17484500D01*
X78020161Y17484500D01*
X79459839Y17484500D01*
X79459842Y17484500D01*
X79459852Y17484501D01*
X79459863Y17484501D01*
X79472493Y17485173D01*
X79513155Y17487332D01*
X79746048Y17532373D01*
X79967979Y17616127D01*
X80172563Y17736181D01*
X80353916Y17889084D01*
X80506819Y18070437D01*
X80621864Y18266485D01*
X80626872Y18275019D01*
X80626873Y18275022D01*
X80635367Y18297529D01*
X80710627Y18496952D01*
X80755668Y18729845D01*
X80758500Y18783158D01*
X80758500Y19032474D01*
X80777266Y19114695D01*
X80829849Y19180631D01*
X80905832Y19217223D01*
X80990168Y19217223D01*
X81066151Y19180631D01*
X81081997Y19166471D01*
X81103970Y19144498D01*
X81278805Y19024733D01*
X81472670Y18939133D01*
X81678962Y18890614D01*
X81767043Y18884500D01*
X81767056Y18884500D01*
X83508186Y18884500D01*
X83508199Y18884500D01*
X83596280Y18890614D01*
X83802572Y18939133D01*
X83996437Y19024733D01*
X84171272Y19144498D01*
X84321123Y19294349D01*
X84404213Y19415647D01*
X84466157Y19472868D01*
X84546800Y19497550D01*
X84622079Y19487781D01*
X84784139Y19432145D01*
X84784148Y19432142D01*
X85018709Y19393000D01*
X85256533Y19393000D01*
X85491093Y19432142D01*
X85491106Y19432146D01*
X85716032Y19509364D01*
X85925179Y19622548D01*
X86008675Y19687537D01*
X86008675Y19687538D01*
X85251744Y20444469D01*
X85292015Y20455259D01*
X85383227Y20507920D01*
X85457701Y20582394D01*
X85510362Y20673606D01*
X85521152Y20713878D01*
X86280843Y19954187D01*
X86403993Y20142679D01*
X86499518Y20360456D01*
X86499521Y20360466D01*
X86557897Y20590988D01*
X86557899Y20590997D01*
X86577538Y20828000D01*
X86557899Y21065004D01*
X86557897Y21065013D01*
X86499521Y21295535D01*
X86499518Y21295545D01*
X86403992Y21513322D01*
X86280843Y21701816D01*
X85521152Y20942125D01*
X85510362Y20982394D01*
X85457701Y21073606D01*
X85383227Y21148080D01*
X85292015Y21200741D01*
X85251744Y21211532D01*
X86008676Y21968464D01*
X86008675Y21968465D01*
X85925179Y22033452D01*
X85716032Y22146637D01*
X85491106Y22223855D01*
X85491093Y22223859D01*
X85256533Y22263000D01*
X85018709Y22263000D01*
X84784148Y22223859D01*
X84784135Y22223855D01*
X84622078Y22168220D01*
X84538219Y22159272D01*
X84458782Y22187596D01*
X84404210Y22240359D01*
X84399496Y22247240D01*
X84321123Y22361651D01*
X84171272Y22511502D01*
X83996437Y22631267D01*
X83802572Y22716867D01*
X83802567Y22716869D01*
X83671243Y22747755D01*
X83596280Y22765386D01*
X83566919Y22767424D01*
X83508203Y22771500D01*
X83508199Y22771500D01*
X82641216Y22771500D01*
X82558995Y22790266D01*
X82507219Y22827003D01*
X81948390Y23385832D01*
X81948384Y23385837D01*
X81780133Y23508077D01*
X81780131Y23508079D01*
X81594822Y23602498D01*
X81542545Y23619484D01*
X81397026Y23666765D01*
X81242964Y23691167D01*
X81191611Y23699300D01*
X81191610Y23699300D01*
X80499019Y23699300D01*
X80416798Y23718066D01*
X80360282Y23761887D01*
X80359614Y23761218D01*
X80354328Y23766503D01*
X80354144Y23766646D01*
X80353920Y23766911D01*
X80353915Y23766917D01*
X80172565Y23919818D01*
X79967981Y24039873D01*
X79967978Y24039874D01*
X79746052Y24123626D01*
X79746049Y24123627D01*
X79746048Y24123627D01*
X79513155Y24168668D01*
X79513148Y24168669D01*
X79459863Y24171500D01*
X79459842Y24171500D01*
X78020158Y24171500D01*
X78020136Y24171500D01*
X77966851Y24168669D01*
X77966844Y24168668D01*
X77850398Y24146148D01*
X77733952Y24123627D01*
X77733951Y24123627D01*
X77733947Y24123626D01*
X77512021Y24039874D01*
X77512018Y24039873D01*
X77307434Y23919818D01*
X77126084Y23766917D01*
X77126079Y23766911D01*
X77125856Y23766646D01*
X77125687Y23766519D01*
X77120386Y23761218D01*
X77119641Y23761963D01*
X77058508Y23715884D01*
X76980981Y23699300D01*
X76629950Y23699300D01*
X76547729Y23718066D01*
X76481793Y23770649D01*
X76445201Y23846632D01*
X76445201Y23930968D01*
X76454875Y23961319D01*
X76524307Y24128942D01*
X76590246Y24375028D01*
X76623500Y24627616D01*
X76623500Y24882384D01*
X76590246Y25134972D01*
X76524307Y25381058D01*
X76426812Y25616432D01*
X76411578Y25642818D01*
X76354171Y25742250D01*
X76329313Y25822838D01*
X76341882Y25906232D01*
X76389390Y25975913D01*
X76462426Y26018081D01*
X76518283Y26026500D01*
X77528699Y26026500D01*
X77610920Y26007734D01*
X77676856Y25955151D01*
X77680398Y25950567D01*
X77737565Y25874201D01*
X77939201Y25672565D01*
X78167480Y25501677D01*
X78167483Y25501675D01*
X78167485Y25501674D01*
X78167493Y25501669D01*
X78417745Y25365022D01*
X78417748Y25365021D01*
X78417755Y25365017D01*
X78684932Y25265365D01*
X78684935Y25265365D01*
X78684936Y25265364D01*
X78963561Y25204753D01*
X78963562Y25204753D01*
X78963571Y25204751D01*
X79214499Y25186804D01*
X79247998Y25184408D01*
X79248000Y25184408D01*
X79248002Y25184408D01*
X79279637Y25186671D01*
X79532429Y25204751D01*
X79811068Y25265365D01*
X80078245Y25365017D01*
X80178811Y25419930D01*
X80328506Y25501669D01*
X80328510Y25501672D01*
X80328520Y25501677D01*
X80556799Y25672565D01*
X80654250Y25770016D01*
X80690432Y25806197D01*
X80761841Y25851066D01*
X80824428Y25861700D01*
X83467011Y25861700D01*
X83599453Y25861700D01*
X83681674Y25842934D01*
X83690731Y25838268D01*
X83814882Y25770015D01*
X84094906Y25659146D01*
X84386616Y25584247D01*
X84685414Y25546500D01*
X84685418Y25546500D01*
X84986582Y25546500D01*
X84986586Y25546500D01*
X85285384Y25584247D01*
X85577094Y25659146D01*
X85857118Y25770015D01*
X86121037Y25915106D01*
X86364691Y26092130D01*
X86584236Y26298297D01*
X86776210Y26530355D01*
X86937587Y26784643D01*
X87065820Y27057152D01*
X87158887Y27343584D01*
X87215321Y27639422D01*
X87234232Y27940000D01*
X87215321Y28240578D01*
X87158887Y28536416D01*
X87065820Y28822848D01*
X86937587Y29095357D01*
X86776210Y29349645D01*
X86584236Y29581703D01*
X86584231Y29581708D01*
X86584228Y29581711D01*
X86364697Y29787865D01*
X86364694Y29787868D01*
X86309481Y29827982D01*
X86121037Y29964894D01*
X85989077Y30037440D01*
X85857119Y30109985D01*
X85717106Y30165420D01*
X85577094Y30220854D01*
X85577091Y30220855D01*
X85285389Y30295752D01*
X85285386Y30295753D01*
X85285384Y30295753D01*
X84986586Y30333500D01*
X84685414Y30333500D01*
X84386616Y30295753D01*
X84386614Y30295753D01*
X84386610Y30295752D01*
X84094908Y30220855D01*
X84094906Y30220854D01*
X83814880Y30109985D01*
X83550963Y29964894D01*
X83307305Y29787868D01*
X83307302Y29787865D01*
X83087771Y29581711D01*
X83087758Y29581697D01*
X82895786Y29349640D01*
X82734416Y29095363D01*
X82734411Y29095354D01*
X82606179Y28822846D01*
X82545223Y28635241D01*
X82501968Y28562844D01*
X82431584Y28516384D01*
X82364998Y28504300D01*
X81423916Y28504300D01*
X81341695Y28523066D01*
X81275759Y28575649D01*
X81239167Y28651632D01*
X81234871Y28706922D01*
X81237656Y28747048D01*
X81241500Y28802422D01*
X81241500Y30643578D01*
X81235386Y30731659D01*
X81186867Y30937951D01*
X81101267Y31131816D01*
X80981502Y31306651D01*
X80831651Y31456502D01*
X80656816Y31576267D01*
X80462951Y31661867D01*
X80462946Y31661869D01*
X80331622Y31692755D01*
X80256659Y31710386D01*
X80227298Y31712424D01*
X80168582Y31716500D01*
X80168578Y31716500D01*
X78327422Y31716500D01*
X78327417Y31716500D01*
X78254021Y31711405D01*
X78239341Y31710386D01*
X78201859Y31701571D01*
X78033053Y31661869D01*
X78033053Y31661868D01*
X78033049Y31661867D01*
X77937668Y31619752D01*
X77839185Y31576268D01*
X77664347Y31456501D01*
X77514499Y31306653D01*
X77394732Y31131815D01*
X77374729Y31086511D01*
X77309133Y30937951D01*
X77309132Y30937947D01*
X77309131Y30937947D01*
X77278569Y30808000D01*
X77260614Y30731659D01*
X77259595Y30716979D01*
X77254500Y30643583D01*
X77254500Y28802418D01*
X77257020Y28766122D01*
X77243992Y28682799D01*
X77196102Y28613380D01*
X77122835Y28571615D01*
X77067975Y28563500D01*
X76518283Y28563500D01*
X76436062Y28582266D01*
X76370126Y28634849D01*
X76333534Y28710832D01*
X76333534Y28795168D01*
X76354171Y28847750D01*
X76378478Y28889852D01*
X76426812Y28973568D01*
X76524307Y29208942D01*
X76590246Y29455028D01*
X76623500Y29707616D01*
X76623500Y29962384D01*
X76590246Y30214972D01*
X76524307Y30461058D01*
X76426812Y30696432D01*
X76426808Y30696438D01*
X76426806Y30696444D01*
X76299430Y30917064D01*
X76282861Y30938658D01*
X76144336Y31119188D01*
X75964188Y31299336D01*
X75850292Y31386731D01*
X75796486Y31451673D01*
X75776185Y31533528D01*
X75793411Y31616086D01*
X75802205Y31632964D01*
X75880873Y31767021D01*
X75884270Y31776021D01*
X75926938Y31889084D01*
X75964627Y31988952D01*
X76009668Y32221845D01*
X76012500Y32275158D01*
X76012500Y32994700D01*
X76031266Y33076921D01*
X76083849Y33142857D01*
X76159832Y33179449D01*
X76202000Y33184200D01*
X91368705Y33184200D01*
X91450926Y33165434D01*
X91502702Y33128697D01*
X94078175Y30553224D01*
X94123044Y30481815D01*
X94132486Y30398010D01*
X94117532Y30342686D01*
X94061135Y30214956D01*
X94061131Y30214947D01*
X94037085Y30112706D01*
X94018434Y30033402D01*
X94012614Y30008658D01*
X94006500Y29920583D01*
X94006500Y28079418D01*
X94008606Y28049084D01*
X94012614Y27991341D01*
X94061133Y27785049D01*
X94146733Y27591184D01*
X94266498Y27416349D01*
X94266499Y27416348D01*
X94416349Y27266498D01*
X94529708Y27188845D01*
X94586935Y27126897D01*
X94611616Y27046254D01*
X94598863Y26962888D01*
X94596158Y26956395D01*
X94590648Y26943833D01*
X94530235Y26705267D01*
X94525697Y26650500D01*
X95533407Y26650500D01*
X95500000Y26525826D01*
X95500000Y26394174D01*
X95533407Y26269500D01*
X94525697Y26269500D01*
X94530235Y26214734D01*
X94590646Y25976176D01*
X94590649Y25976166D01*
X94689504Y25750799D01*
X94689506Y25750795D01*
X94824109Y25544769D01*
X94990790Y25363707D01*
X94990796Y25363702D01*
X95185000Y25212546D01*
X95401434Y25095418D01*
X95401437Y25095417D01*
X95634203Y25015508D01*
X95634205Y25015507D01*
X95809500Y24986257D01*
X95809500Y25993407D01*
X95934174Y25960000D01*
X96065826Y25960000D01*
X96190500Y25993407D01*
X96190500Y24986257D01*
X96365794Y25015507D01*
X96365796Y25015508D01*
X96598562Y25095417D01*
X96598565Y25095418D01*
X96814999Y25212546D01*
X97009203Y25363702D01*
X97009209Y25363707D01*
X97175890Y25544769D01*
X97310493Y25750795D01*
X97310495Y25750799D01*
X97409350Y25976166D01*
X97409353Y25976176D01*
X97469764Y26214734D01*
X97474303Y26269500D01*
X96466593Y26269500D01*
X96500000Y26394174D01*
X96500000Y26525826D01*
X96466593Y26650500D01*
X97474303Y26650500D01*
X97469764Y26705267D01*
X97409355Y26943820D01*
X97409350Y26943833D01*
X97403845Y26956384D01*
X97388002Y27039218D01*
X97409668Y27120723D01*
X97464552Y27184756D01*
X97470234Y27188806D01*
X97583651Y27266498D01*
X97733502Y27416349D01*
X97853267Y27591184D01*
X97938867Y27785049D01*
X97987386Y27991341D01*
X97993500Y28079422D01*
X97993500Y29920578D01*
X97987386Y30008659D01*
X97938867Y30214951D01*
X97853267Y30408816D01*
X97733502Y30583651D01*
X97583651Y30733502D01*
X97408816Y30853267D01*
X97329520Y30888280D01*
X97261886Y30938658D01*
X97227373Y31000333D01*
X97227348Y31000322D01*
X97227257Y31000541D01*
X97225837Y31003079D01*
X97224496Y31007207D01*
X97130079Y31192508D01*
X97130077Y31192512D01*
X97007831Y31360769D01*
X92855269Y35513332D01*
X92855263Y35513337D01*
X92687012Y35635577D01*
X92687010Y35635579D01*
X92501701Y35729998D01*
X92438601Y35750500D01*
X92303905Y35794265D01*
X92149843Y35818667D01*
X92098490Y35826800D01*
X92098489Y35826800D01*
X74832294Y35826800D01*
X74750073Y35845566D01*
X74698297Y35882303D01*
X72892598Y37688003D01*
X72847729Y37759412D01*
X72838287Y37843217D01*
X72866141Y37922820D01*
X72925775Y37982454D01*
X73005378Y38010308D01*
X73026595Y38011500D01*
X73310565Y38011500D01*
X73310578Y38011500D01*
X73398659Y38017614D01*
X73604951Y38066133D01*
X73798816Y38151733D01*
X73973651Y38271498D01*
X74123502Y38421349D01*
X74243267Y38596184D01*
X74243266Y38596184D01*
X74246767Y38601293D01*
X74308715Y38658520D01*
X74389359Y38683201D01*
X74403104Y38683700D01*
X81613572Y38683700D01*
X81695793Y38664934D01*
X81747568Y38628197D01*
X81881200Y38494566D01*
X81881201Y38494565D01*
X82109480Y38323677D01*
X82109483Y38323675D01*
X82109485Y38323674D01*
X82109493Y38323669D01*
X82359745Y38187022D01*
X82359748Y38187021D01*
X82359755Y38187017D01*
X82626932Y38087365D01*
X82626935Y38087365D01*
X82626936Y38087364D01*
X82905561Y38026753D01*
X82905562Y38026753D01*
X82905571Y38026751D01*
X83156499Y38008804D01*
X83189998Y38006408D01*
X83190000Y38006408D01*
X83190002Y38006408D01*
X83221637Y38008671D01*
X83474429Y38026751D01*
X83753068Y38087365D01*
X84020245Y38187017D01*
X84057023Y38207100D01*
X84138174Y38230033D01*
X84221245Y38215485D01*
X84254933Y38197116D01*
X84321184Y38151733D01*
X84515049Y38066133D01*
X84721341Y38017614D01*
X84809422Y38011500D01*
X84809435Y38011500D01*
X86650565Y38011500D01*
X86650578Y38011500D01*
X86738659Y38017614D01*
X86944951Y38066133D01*
X87138816Y38151733D01*
X87313651Y38271498D01*
X87463502Y38421349D01*
X87583267Y38596184D01*
X87668867Y38790049D01*
X87717386Y38996341D01*
X87723500Y39084422D01*
X87723500Y40925578D01*
X87717386Y41013659D01*
X87668867Y41219951D01*
X87583267Y41413816D01*
X87463502Y41588651D01*
X87313651Y41738502D01*
X87138816Y41858267D01*
X87137835Y41858700D01*
X87067081Y41889941D01*
X86944951Y41943867D01*
X86944946Y41943869D01*
X86813622Y41974755D01*
X86738659Y41992386D01*
X86709298Y41994424D01*
X86650582Y41998500D01*
X86650578Y41998500D01*
X84809422Y41998500D01*
X84809417Y41998500D01*
X84755164Y41994734D01*
X84721341Y41992386D01*
X84721339Y41992386D01*
X84713695Y41991855D01*
X84713574Y41993597D01*
X84640040Y41999067D01*
X84566981Y42041196D01*
X84519436Y42110852D01*
X84506300Y42180178D01*
X84506300Y43624898D01*
X84525066Y43707119D01*
X84577649Y43773055D01*
X84584389Y43778188D01*
X84713691Y43872130D01*
X84933236Y44078297D01*
X85125210Y44310355D01*
X85286587Y44564643D01*
X85414820Y44837152D01*
X85507887Y45123584D01*
X85550069Y45344709D01*
X93272500Y45344709D01*
X93304162Y45104208D01*
X93366946Y44869899D01*
X93366948Y44869894D01*
X93459772Y44645795D01*
X93459775Y44645790D01*
X93459776Y44645788D01*
X93581064Y44435711D01*
X93581066Y44435708D01*
X93581071Y44435700D01*
X93728728Y44243270D01*
X93728731Y44243267D01*
X93728735Y44243262D01*
X93900262Y44071735D01*
X93900266Y44071732D01*
X93900269Y44071729D01*
X94092699Y43924072D01*
X94092707Y43924067D01*
X94092711Y43924064D01*
X94302788Y43802776D01*
X94302791Y43802775D01*
X94302794Y43802773D01*
X94478304Y43730075D01*
X94526900Y43709946D01*
X94761211Y43647162D01*
X95001712Y43615500D01*
X95244288Y43615500D01*
X95484789Y43647162D01*
X95719100Y43709946D01*
X95939615Y43801286D01*
X95943205Y43802773D01*
X95943205Y43802774D01*
X95943212Y43802776D01*
X96153289Y43924064D01*
X96153296Y43924071D01*
X96153300Y43924072D01*
X96345730Y44071729D01*
X96345729Y44071729D01*
X96345738Y44071735D01*
X96517265Y44243262D01*
X96593948Y44343197D01*
X96664928Y44435700D01*
X96664929Y44435704D01*
X96664936Y44435711D01*
X96786224Y44645788D01*
X96879054Y44869900D01*
X96941838Y45104211D01*
X96973500Y45344712D01*
X96973500Y45587288D01*
X96941838Y45827789D01*
X96941781Y45828000D01*
X96900411Y45982394D01*
X96879054Y46062100D01*
X96810336Y46228000D01*
X96786227Y46286206D01*
X96786225Y46286209D01*
X96786224Y46286212D01*
X96664936Y46496289D01*
X96664933Y46496293D01*
X96664928Y46496301D01*
X96517271Y46688731D01*
X96517268Y46688734D01*
X96517265Y46688738D01*
X96345738Y46860265D01*
X96345733Y46860269D01*
X96345730Y46860272D01*
X96153300Y47007929D01*
X96153292Y47007934D01*
X96153289Y47007936D01*
X95943212Y47129224D01*
X95943210Y47129225D01*
X95943205Y47129228D01*
X95719106Y47222052D01*
X95719101Y47222054D01*
X95484792Y47284838D01*
X95244291Y47316500D01*
X95244288Y47316500D01*
X95001712Y47316500D01*
X95001708Y47316500D01*
X94761207Y47284838D01*
X94526898Y47222054D01*
X94526893Y47222052D01*
X94302794Y47129228D01*
X94302786Y47129223D01*
X94092707Y47007934D01*
X94092699Y47007929D01*
X93900269Y46860272D01*
X93728728Y46688731D01*
X93581071Y46496301D01*
X93581066Y46496293D01*
X93459777Y46286214D01*
X93459772Y46286206D01*
X93366948Y46062107D01*
X93366946Y46062102D01*
X93304162Y45827793D01*
X93272500Y45587292D01*
X93272500Y45344709D01*
X85550069Y45344709D01*
X85564321Y45419422D01*
X85583232Y45720000D01*
X85564321Y46020578D01*
X85507887Y46316416D01*
X85414820Y46602848D01*
X85286587Y46875357D01*
X85125210Y47129645D01*
X84933236Y47361703D01*
X84933231Y47361708D01*
X84933228Y47361711D01*
X84713697Y47567865D01*
X84713694Y47567868D01*
X84617664Y47637637D01*
X84470037Y47744894D01*
X84338077Y47817440D01*
X84206119Y47889985D01*
X84066106Y47945420D01*
X83926094Y48000854D01*
X83926091Y48000855D01*
X83634389Y48075752D01*
X83634386Y48075753D01*
X83634384Y48075753D01*
X83335586Y48113500D01*
X83034414Y48113500D01*
X82735616Y48075753D01*
X82735614Y48075753D01*
X82735610Y48075752D01*
X82443908Y48000855D01*
X82443906Y48000854D01*
X82163880Y47889985D01*
X81899963Y47744894D01*
X81656305Y47567868D01*
X81656302Y47567865D01*
X81436771Y47361711D01*
X81436758Y47361697D01*
X81244786Y47129640D01*
X81083416Y46875363D01*
X81083411Y46875354D01*
X80955179Y46602846D01*
X80862114Y46316422D01*
X80805678Y46020573D01*
X80786768Y45720001D01*
X80786768Y45720000D01*
X80805678Y45419428D01*
X80805678Y45419424D01*
X80805679Y45419422D01*
X80819931Y45344712D01*
X80862114Y45123579D01*
X80955179Y44837155D01*
X80955180Y44837152D01*
X81037636Y44661925D01*
X81083411Y44564647D01*
X81083416Y44564638D01*
X81200633Y44379934D01*
X81244790Y44310355D01*
X81336529Y44199461D01*
X81413777Y44106083D01*
X81436764Y44078297D01*
X81656309Y43872130D01*
X81785586Y43778206D01*
X81841072Y43714698D01*
X81863509Y43633402D01*
X81863700Y43624898D01*
X81863700Y41576428D01*
X81844934Y41494207D01*
X81808197Y41442431D01*
X81747569Y41381803D01*
X81676160Y41336934D01*
X81613572Y41326300D01*
X74403104Y41326300D01*
X74320883Y41345066D01*
X74254947Y41397649D01*
X74246767Y41408707D01*
X74123502Y41588651D01*
X73973652Y41738501D01*
X73879208Y41803197D01*
X73798816Y41858267D01*
X73797835Y41858700D01*
X73727081Y41889941D01*
X73604951Y41943867D01*
X73604946Y41943869D01*
X73473622Y41974755D01*
X73398659Y41992386D01*
X73369298Y41994424D01*
X73310582Y41998500D01*
X73310578Y41998500D01*
X72216595Y41998500D01*
X72134374Y42017266D01*
X72082598Y42054003D01*
X70964769Y43171832D01*
X70964763Y43171837D01*
X70796512Y43294077D01*
X70796510Y43294079D01*
X70611201Y43388498D01*
X70558924Y43405484D01*
X70413405Y43452765D01*
X70259343Y43477167D01*
X70207990Y43485300D01*
X70207989Y43485300D01*
X65674411Y43485300D01*
X65592190Y43504066D01*
X65548138Y43533501D01*
X65463039Y43609550D01*
X65463028Y43609560D01*
X65321547Y43709946D01*
X65175084Y43813867D01*
X65175081Y43813869D01*
X65175080Y43813870D01*
X65175078Y43813871D01*
X64866063Y43984658D01*
X64866054Y43984663D01*
X64539872Y44119771D01*
X64200597Y44217515D01*
X64200599Y44217515D01*
X63852509Y44276657D01*
X63500000Y44296453D01*
X63147491Y44276657D01*
X63147478Y44276656D01*
X63114168Y44270996D01*
X63029965Y44275726D01*
X62956154Y44316522D01*
X62907352Y44385304D01*
X62893227Y44468448D01*
X62897962Y44501205D01*
X62898865Y44505045D01*
X62898867Y44505049D01*
X62947386Y44711341D01*
X62953500Y44799422D01*
X62953500Y46640578D01*
X62947386Y46728659D01*
X62898867Y46934951D01*
X62813267Y47128816D01*
X62693502Y47303651D01*
X62543651Y47453502D01*
X62368816Y47573267D01*
X62174951Y47658867D01*
X62174946Y47658869D01*
X62039919Y47690626D01*
X61968659Y47707386D01*
X61939298Y47709424D01*
X61880582Y47713500D01*
X61880578Y47713500D01*
X60039422Y47713500D01*
X60039417Y47713500D01*
X59966021Y47708405D01*
X59951341Y47707386D01*
X59913859Y47698571D01*
X59745053Y47658869D01*
X59745053Y47658868D01*
X59745049Y47658867D01*
X59665764Y47623859D01*
X59551185Y47573268D01*
X59551182Y47573266D01*
X59484929Y47527883D01*
X59406491Y47496901D01*
X59322378Y47503020D01*
X59287024Y47517900D01*
X59250245Y47537983D01*
X59250244Y47537984D01*
X59250243Y47537984D01*
X59250235Y47537987D01*
X58983063Y47637637D01*
X58704438Y47698248D01*
X58704430Y47698249D01*
X58704429Y47698249D01*
X58562214Y47708421D01*
X58420002Y47718592D01*
X58419998Y47718592D01*
X58263321Y47707386D01*
X58135571Y47698249D01*
X58135570Y47698249D01*
X58135561Y47698248D01*
X57856936Y47637637D01*
X57589764Y47537987D01*
X57589745Y47537979D01*
X57339493Y47401332D01*
X57339485Y47401327D01*
X57111200Y47230435D01*
X56977568Y47096803D01*
X56906159Y47051934D01*
X56843572Y47041300D01*
X55335627Y47041300D01*
X55253406Y47060066D01*
X55187470Y47112649D01*
X55172190Y47134892D01*
X55161825Y47152554D01*
X55161821Y47152560D01*
X55161819Y47152563D01*
X55008916Y47333916D01*
X54890859Y47433453D01*
X54827565Y47486818D01*
X54622981Y47606873D01*
X54622978Y47606874D01*
X54401052Y47690626D01*
X54401049Y47690627D01*
X54401048Y47690627D01*
X54168155Y47735668D01*
X54168148Y47735669D01*
X54114863Y47738500D01*
X54114842Y47738500D01*
X53125158Y47738500D01*
X53125136Y47738500D01*
X53071851Y47735669D01*
X53071844Y47735668D01*
X52983550Y47718592D01*
X52838952Y47690627D01*
X52838951Y47690627D01*
X52838947Y47690626D01*
X52617021Y47606874D01*
X52617018Y47606873D01*
X52412434Y47486818D01*
X52231087Y47333919D01*
X52231078Y47333910D01*
X52214876Y47314693D01*
X52147529Y47263930D01*
X52064826Y47247416D01*
X51983148Y47268420D01*
X51925124Y47314693D01*
X51908921Y47333910D01*
X51908916Y47333916D01*
X51790859Y47433453D01*
X51727565Y47486818D01*
X51522981Y47606873D01*
X51522978Y47606874D01*
X51301052Y47690626D01*
X51301049Y47690627D01*
X51301048Y47690627D01*
X51068155Y47735668D01*
X51068148Y47735669D01*
X51014863Y47738500D01*
X51014842Y47738500D01*
X50025158Y47738500D01*
X50025136Y47738500D01*
X49971851Y47735669D01*
X49971844Y47735668D01*
X49883550Y47718592D01*
X49738952Y47690627D01*
X49738951Y47690627D01*
X49738947Y47690626D01*
X49517021Y47606874D01*
X49517018Y47606873D01*
X49312437Y47486819D01*
X49312433Y47486817D01*
X49271144Y47452006D01*
X49196186Y47413356D01*
X49111882Y47411057D01*
X49034929Y47445564D01*
X49026848Y47452009D01*
X49025078Y47453501D01*
X48985563Y47486818D01*
X48985560Y47486820D01*
X48985554Y47486824D01*
X48838248Y47573266D01*
X48780979Y47606873D01*
X48780977Y47606874D01*
X48780975Y47606875D01*
X48559051Y47690626D01*
X48559048Y47690627D01*
X48559047Y47690627D01*
X48326154Y47735668D01*
X48326147Y47735669D01*
X48272850Y47738500D01*
X47158166Y47738500D01*
X47158124Y47738498D01*
X47104857Y47735670D01*
X47104846Y47735669D01*
X47104846Y47735668D01*
X46871953Y47690627D01*
X46871952Y47690627D01*
X46871948Y47690626D01*
X46650024Y47606875D01*
X46445445Y47486824D01*
X46445435Y47486817D01*
X46264087Y47333918D01*
X46264082Y47333913D01*
X46111183Y47152565D01*
X46111173Y47152550D01*
X46061881Y47068553D01*
X46004082Y47007138D01*
X45925360Y46976884D01*
X45841307Y46983782D01*
X45779189Y47017194D01*
X45687663Y47091310D01*
X45521897Y47175772D01*
X45342208Y47223919D01*
X45342211Y47223919D01*
X45264940Y47230000D01*
X44931001Y47230000D01*
X44931000Y47229999D01*
X44931000Y44210002D01*
X44931001Y44210001D01*
X45264940Y44210001D01*
X45342209Y44216082D01*
X45521897Y44264229D01*
X45687663Y44348691D01*
X45687664Y44348691D01*
X45779188Y44422806D01*
X45854895Y44459966D01*
X45939228Y44460597D01*
X46015484Y44424576D01*
X46061882Y44371448D01*
X46111179Y44287442D01*
X46111183Y44287436D01*
X46264082Y44106088D01*
X46264087Y44106083D01*
X46297035Y44078304D01*
X46445437Y43953182D01*
X46445439Y43953181D01*
X46445445Y43953177D01*
X46498407Y43922098D01*
X46650021Y43833127D01*
X46871953Y43749373D01*
X47104846Y43704332D01*
X47158159Y43701500D01*
X47471405Y43701501D01*
X47553624Y43682735D01*
X47619561Y43630153D01*
X47656153Y43554169D01*
X47656153Y43469834D01*
X47619561Y43393850D01*
X47605401Y43378004D01*
X46236168Y42008769D01*
X39632163Y35404765D01*
X39548215Y35289220D01*
X39548216Y35289219D01*
X39509922Y35236512D01*
X39509921Y35236511D01*
X39415502Y35051202D01*
X39388031Y34966652D01*
X39351235Y34853405D01*
X39335805Y34755982D01*
X39318700Y34647991D01*
X39318700Y32259500D01*
X39299934Y32177279D01*
X39247351Y32111343D01*
X39171368Y32074751D01*
X39129200Y32070000D01*
X38925501Y32070000D01*
X38925500Y32069999D01*
X38925500Y30771500D01*
X38906734Y30689279D01*
X38854151Y30623343D01*
X38778168Y30586751D01*
X38736000Y30582000D01*
X38734000Y30582000D01*
X38651779Y30600766D01*
X38585843Y30653349D01*
X38549251Y30729332D01*
X38544500Y30771500D01*
X38544500Y32069999D01*
X38544499Y32070000D01*
X38023059Y32070000D01*
X37945788Y32063919D01*
X37766101Y32015772D01*
X37600337Y31931312D01*
X37455767Y31814241D01*
X37455759Y31814233D01*
X37338688Y31669662D01*
X37273774Y31542260D01*
X37219725Y31477520D01*
X37142940Y31442642D01*
X37058625Y31444535D01*
X37010177Y31464180D01*
X36976049Y31483884D01*
X36914227Y31541247D01*
X36883416Y31619752D01*
X36881300Y31647995D01*
X36881300Y32925703D01*
X36900066Y33007924D01*
X36936803Y33059700D01*
X36956783Y33079680D01*
X37114812Y33290783D01*
X37241190Y33522226D01*
X37333344Y33769299D01*
X37389397Y34026972D01*
X37408209Y34290000D01*
X37407851Y34295000D01*
X37395091Y34473409D01*
X37389397Y34553028D01*
X37333344Y34810701D01*
X37250584Y35032588D01*
X37241190Y35057775D01*
X37114813Y35289216D01*
X37028311Y35404769D01*
X36956783Y35500320D01*
X36770320Y35686783D01*
X36685204Y35750500D01*
X36559215Y35844814D01*
X36327774Y35971191D01*
X36080696Y36063346D01*
X35823034Y36119396D01*
X35823030Y36119397D01*
X35560002Y36138209D01*
X35559998Y36138209D01*
X35296969Y36119397D01*
X35296965Y36119396D01*
X35039303Y36063346D01*
X34792235Y35971194D01*
X34786074Y35968380D01*
X34785355Y35969953D01*
X34713731Y35949725D01*
X34630662Y35964288D01*
X34581948Y35994103D01*
X34507566Y36056817D01*
X34496443Y36063344D01*
X34400926Y36119396D01*
X34302981Y36176873D01*
X34302978Y36176874D01*
X34081052Y36260626D01*
X34081049Y36260627D01*
X34081048Y36260627D01*
X33848155Y36305668D01*
X33848148Y36305669D01*
X33794863Y36308500D01*
X33794842Y36308500D01*
X32805158Y36308500D01*
X32805136Y36308500D01*
X32751851Y36305669D01*
X32751844Y36305668D01*
X32635398Y36283148D01*
X32518952Y36260627D01*
X32518951Y36260627D01*
X32518947Y36260626D01*
X32297021Y36176874D01*
X32297018Y36176873D01*
X32092434Y36056818D01*
X31911087Y35903919D01*
X31911078Y35903910D01*
X31894876Y35884693D01*
X31827529Y35833930D01*
X31744826Y35817416D01*
X31663148Y35838420D01*
X31605124Y35884693D01*
X31588921Y35903910D01*
X31588916Y35903916D01*
X31512460Y35968378D01*
X31407565Y36056818D01*
X31202981Y36176873D01*
X31202978Y36176874D01*
X30981052Y36260626D01*
X30981049Y36260627D01*
X30981048Y36260627D01*
X30748155Y36305668D01*
X30748148Y36305669D01*
X30694863Y36308500D01*
X30694842Y36308500D01*
X29705158Y36308500D01*
X29705136Y36308500D01*
X29651851Y36305669D01*
X29651844Y36305668D01*
X29535398Y36283148D01*
X29418952Y36260627D01*
X29418951Y36260627D01*
X29418947Y36260626D01*
X29197021Y36176874D01*
X29197018Y36176873D01*
X28992438Y36056820D01*
X28918048Y35994101D01*
X28843091Y35955451D01*
X28758787Y35953151D01*
X28714349Y35969291D01*
X28713933Y35968378D01*
X28707776Y35971190D01*
X28460696Y36063346D01*
X28203034Y36119396D01*
X28203030Y36119397D01*
X27940002Y36138209D01*
X27939998Y36138209D01*
X27676969Y36119397D01*
X27676965Y36119396D01*
X27419303Y36063346D01*
X27172225Y35971191D01*
X26940784Y35844814D01*
X26729679Y35686783D01*
X26543217Y35500321D01*
X26385186Y35289216D01*
X26258809Y35057775D01*
X26166655Y34810699D01*
X26125740Y34622617D01*
X26089925Y34546265D01*
X26024529Y34493013D01*
X25942503Y34473409D01*
X25860095Y34491336D01*
X25793626Y34543243D01*
X25774249Y34572085D01*
X25769153Y34581418D01*
X25685851Y34692696D01*
X25602551Y34803973D01*
X25506803Y34899721D01*
X25461934Y34971130D01*
X25451300Y35033718D01*
X25451300Y36612374D01*
X25470066Y36694595D01*
X25522649Y36760531D01*
X25544896Y36775814D01*
X25562561Y36786180D01*
X25562560Y36786180D01*
X25562563Y36786181D01*
X25743916Y36939084D01*
X25896819Y37120437D01*
X26016873Y37325021D01*
X26100627Y37546952D01*
X26145668Y37779845D01*
X26148500Y37833158D01*
X26148500Y38822842D01*
X26148199Y38828500D01*
X26145668Y38876149D01*
X26145668Y38876155D01*
X26100627Y39109048D01*
X26016873Y39330979D01*
X26016872Y39330982D01*
X25898578Y39532565D01*
X25896819Y39535563D01*
X25896818Y39535564D01*
X25896817Y39535566D01*
X25820367Y39626240D01*
X25743916Y39716916D01*
X25613412Y39826947D01*
X25562565Y39869818D01*
X25357981Y39989873D01*
X25340565Y39996445D01*
X25270266Y40043034D01*
X25227142Y40115510D01*
X25219736Y40199520D01*
X25249513Y40278423D01*
X25288218Y40321010D01*
X25384237Y40398765D01*
X25384240Y40398768D01*
X25501311Y40543338D01*
X25585771Y40709102D01*
X25633918Y40888789D01*
X25640000Y40966060D01*
X25640000Y41237499D01*
X25639999Y41237500D01*
X22620001Y41237500D01*
X22620000Y41237499D01*
X22620000Y40966060D01*
X22626081Y40888789D01*
X22674228Y40709102D01*
X22758688Y40543338D01*
X22875759Y40398768D01*
X22875767Y40398760D01*
X22971781Y40321009D01*
X23023869Y40254681D01*
X23042020Y40172322D01*
X23022639Y40090244D01*
X22969565Y40024703D01*
X22919437Y39996446D01*
X22902018Y39989873D01*
X22697434Y39869818D01*
X22516087Y39716919D01*
X22516081Y39716913D01*
X22363182Y39535566D01*
X22243127Y39330982D01*
X22243126Y39330979D01*
X22159374Y39109053D01*
X22159373Y39109049D01*
X22159373Y39109048D01*
X22154610Y39084418D01*
X22114332Y38876156D01*
X22114331Y38876149D01*
X22111500Y38822864D01*
X22111500Y37833137D01*
X22114331Y37779852D01*
X22114332Y37779845D01*
X22142421Y37634603D01*
X22159373Y37546954D01*
X22159374Y37546948D01*
X22243126Y37325022D01*
X22243127Y37325019D01*
X22363182Y37120435D01*
X22428808Y37042599D01*
X22516084Y36939084D01*
X22678339Y36802283D01*
X22697435Y36786183D01*
X22697438Y36786180D01*
X22715104Y36775814D01*
X22776520Y36718018D01*
X22806778Y36639297D01*
X22808700Y36612374D01*
X22808700Y35033718D01*
X22789934Y34951497D01*
X22753197Y34899721D01*
X22657449Y34803974D01*
X22490846Y34581418D01*
X22357615Y34337424D01*
X22260461Y34076945D01*
X22201369Y33805297D01*
X22201368Y33805289D01*
X22181536Y33528002D01*
X22181536Y33527999D01*
X22201368Y33250712D01*
X22201369Y33250704D01*
X22260461Y32979056D01*
X22357615Y32718577D01*
X22421158Y32602208D01*
X22490848Y32474581D01*
X22490851Y32474577D01*
X22491483Y32473593D01*
X22491669Y32473079D01*
X22494092Y32468641D01*
X22493407Y32468268D01*
X22520149Y32394279D01*
X22521567Y32371140D01*
X22521567Y29607838D01*
X22502801Y29525617D01*
X22450218Y29459681D01*
X22374235Y29423089D01*
X22332067Y29418338D01*
X20758494Y29418338D01*
X20676273Y29437104D01*
X20610337Y29489687D01*
X20595057Y29511930D01*
X20584692Y29529592D01*
X20584688Y29529598D01*
X20584686Y29529601D01*
X20431783Y29710954D01*
X20340556Y29787870D01*
X20250432Y29863856D01*
X20045848Y29983911D01*
X20045845Y29983912D01*
X19823919Y30067664D01*
X19823916Y30067665D01*
X19823915Y30067665D01*
X19591022Y30112706D01*
X19591015Y30112707D01*
X19537730Y30115538D01*
X19537709Y30115538D01*
X18548025Y30115538D01*
X18548003Y30115538D01*
X18494718Y30112707D01*
X18494711Y30112706D01*
X18378265Y30090186D01*
X18261819Y30067665D01*
X18261818Y30067665D01*
X18261814Y30067664D01*
X18039888Y29983912D01*
X18039885Y29983911D01*
X17835301Y29863856D01*
X17653954Y29710957D01*
X17653945Y29710948D01*
X17637743Y29691731D01*
X17570396Y29640968D01*
X17487693Y29624454D01*
X17406015Y29645458D01*
X17347991Y29691731D01*
X17331788Y29710948D01*
X17331783Y29710954D01*
X17240556Y29787870D01*
X17150432Y29863856D01*
X16945848Y29983911D01*
X16945845Y29983912D01*
X16723919Y30067664D01*
X16723916Y30067665D01*
X16723915Y30067665D01*
X16491022Y30112706D01*
X16491015Y30112707D01*
X16437730Y30115538D01*
X16437709Y30115538D01*
X15448025Y30115538D01*
X15448003Y30115538D01*
X15394718Y30112707D01*
X15394711Y30112706D01*
X15278265Y30090186D01*
X15161819Y30067665D01*
X15161818Y30067665D01*
X15161814Y30067664D01*
X14939888Y29983912D01*
X14939885Y29983911D01*
X14735301Y29863856D01*
X14553954Y29710957D01*
X14553948Y29710951D01*
X14401049Y29529603D01*
X14401041Y29529592D01*
X14390677Y29511930D01*
X14332879Y29450515D01*
X14254157Y29420259D01*
X14227240Y29418338D01*
X12648585Y29418338D01*
X12566364Y29437104D01*
X12514589Y29473841D01*
X12418839Y29569590D01*
X12418833Y29569595D01*
X12295737Y29661744D01*
X12241162Y29726040D01*
X12219889Y29807649D01*
X12219800Y29813446D01*
X12219800Y32718573D01*
X12238566Y32800794D01*
X12275300Y32852567D01*
X12408935Y32986201D01*
X12579823Y33214480D01*
X12599604Y33250705D01*
X12716478Y33464746D01*
X12716477Y33464746D01*
X12716483Y33464755D01*
X12816135Y33731932D01*
X12876749Y34010571D01*
X12896734Y34289998D01*
X12897092Y34294998D01*
X12897092Y34295003D01*
X12888415Y34416312D01*
X12876749Y34579429D01*
X12845064Y34725081D01*
X12816136Y34858064D01*
X12800539Y34899881D01*
X12741967Y35056919D01*
X12716483Y35125246D01*
X12696401Y35162023D01*
X12673467Y35243180D01*
X12688018Y35326251D01*
X12706382Y35359931D01*
X12751767Y35426184D01*
X12837367Y35620049D01*
X12885886Y35826341D01*
X12892000Y35914422D01*
X12892000Y37755578D01*
X12885886Y37843659D01*
X12837367Y38049951D01*
X12751767Y38243816D01*
X12632002Y38418651D01*
X12482151Y38568502D01*
X12307316Y38688267D01*
X12113451Y38773867D01*
X12113446Y38773869D01*
X11982122Y38804755D01*
X11907159Y38822386D01*
X11877798Y38824424D01*
X11819082Y38828500D01*
X11819078Y38828500D01*
X9977922Y38828500D01*
X9977917Y38828500D01*
X9904521Y38823405D01*
X9889841Y38822386D01*
X9852359Y38813571D01*
X9683553Y38773869D01*
X9683553Y38773868D01*
X9683549Y38773867D01*
X9571418Y38724357D01*
X9489685Y38688268D01*
X9314847Y38568501D01*
X9164999Y38418653D01*
X9045232Y38243815D01*
X9029020Y38207098D01*
X8959633Y38049951D01*
X8959632Y38049947D01*
X8959631Y38049947D01*
X8911114Y37843658D01*
X8905000Y37755583D01*
X8905000Y35914418D01*
X8907229Y35882303D01*
X8911114Y35826341D01*
X8959633Y35620049D01*
X9045233Y35426184D01*
X9084063Y35369499D01*
X9090616Y35359933D01*
X9121599Y35281496D01*
X9115481Y35197382D01*
X9100600Y35162027D01*
X9080520Y35125253D01*
X9080513Y35125236D01*
X8980863Y34858064D01*
X8920252Y34579439D01*
X8920251Y34579428D01*
X8899908Y34295003D01*
X8899908Y34294998D01*
X8900266Y34289998D01*
X8919078Y34026966D01*
X8920251Y34010573D01*
X8920252Y34010562D01*
X8980863Y33731937D01*
X9080513Y33464765D01*
X9080521Y33464746D01*
X9217168Y33214494D01*
X9217173Y33214486D01*
X9217175Y33214483D01*
X9217177Y33214480D01*
X9388065Y32986201D01*
X9521698Y32852568D01*
X9566566Y32781161D01*
X9577200Y32718573D01*
X9577200Y32570489D01*
X9558434Y32488268D01*
X9505851Y32422332D01*
X9429868Y32385740D01*
X9345532Y32385740D01*
X9269549Y32422332D01*
X9233151Y32460830D01*
X9065560Y32697028D01*
X8830292Y32960292D01*
X8567028Y33195560D01*
X8489298Y33250712D01*
X8279084Y33399867D01*
X8279081Y33399869D01*
X8279080Y33399870D01*
X8279078Y33399871D01*
X7970063Y33570658D01*
X7970054Y33570663D01*
X7643872Y33705771D01*
X7304597Y33803515D01*
X7304599Y33803515D01*
X6956509Y33862657D01*
X6604000Y33882453D01*
X6251491Y33862657D01*
X6251489Y33862657D01*
X5903401Y33803515D01*
X5564127Y33705771D01*
X5237945Y33570663D01*
X4928918Y33399869D01*
X4928915Y33399867D01*
X4640971Y33195560D01*
X4377712Y32960296D01*
X4377704Y32960288D01*
X4142440Y32697029D01*
X3938133Y32409085D01*
X3938131Y32409082D01*
X3767337Y32100055D01*
X3632229Y31773873D01*
X3534485Y31434599D01*
X3475343Y31086511D01*
X3475343Y31086509D01*
X3455547Y30734000D01*
X3475343Y30381492D01*
X3475343Y30381490D01*
X3534485Y30033402D01*
X3632229Y29694128D01*
X3767337Y29367946D01*
X3767342Y29367937D01*
X3874767Y29173566D01*
X3938131Y29058919D01*
X3938133Y29058916D01*
X4120115Y28802436D01*
X4142440Y28770972D01*
X4377708Y28507708D01*
X4640972Y28272440D01*
X4928922Y28068129D01*
X5237937Y27897342D01*
X5237940Y27897341D01*
X5237945Y27897338D01*
X5564125Y27762231D01*
X5564132Y27762228D01*
X5903403Y27664485D01*
X6251485Y27605344D01*
X6604000Y27585547D01*
X6956515Y27605344D01*
X7304597Y27664485D01*
X7643868Y27762228D01*
X7643873Y27762231D01*
X7643876Y27762231D01*
X7661450Y27769510D01*
X7744593Y27783638D01*
X7825633Y27760292D01*
X7867967Y27728433D01*
X8507193Y27089207D01*
X8675450Y26966961D01*
X8675454Y26966959D01*
X8860751Y26872544D01*
X8860755Y26872543D01*
X8860758Y26872541D01*
X8917970Y26853952D01*
X9058553Y26808274D01*
X9058554Y26808274D01*
X9058557Y26808273D01*
X9201981Y26785557D01*
X9263972Y26775738D01*
X9263973Y26775738D01*
X9637149Y26775738D01*
X9719370Y26756972D01*
X9771146Y26720235D01*
X9866894Y26624487D01*
X9978171Y26541187D01*
X10089449Y26457885D01*
X10333443Y26324654D01*
X10333446Y26324653D01*
X10593921Y26227500D01*
X10855307Y26170640D01*
X10931656Y26134827D01*
X10984908Y26069431D01*
X11004513Y25987406D01*
X10986587Y25904998D01*
X10934680Y25838529D01*
X10859074Y25801163D01*
X10855304Y25800303D01*
X10603560Y25745540D01*
X10603555Y25745539D01*
X10603554Y25745538D01*
X10594739Y25742250D01*
X10343076Y25648385D01*
X10099082Y25515154D01*
X9876526Y25348551D01*
X9780779Y25252803D01*
X9709370Y25207934D01*
X9646782Y25197300D01*
X9167010Y25197300D01*
X9085615Y25184408D01*
X8961595Y25164765D01*
X8869913Y25134976D01*
X8763798Y25100498D01*
X8578489Y25006079D01*
X8578487Y25006077D01*
X8410236Y24883837D01*
X8410223Y24883826D01*
X7867964Y24341568D01*
X7796556Y24296699D01*
X7712750Y24287257D01*
X7661452Y24300489D01*
X7643871Y24307771D01*
X7304597Y24405515D01*
X7304599Y24405515D01*
X6956509Y24464657D01*
X6604000Y24484453D01*
X6251491Y24464657D01*
X6251489Y24464657D01*
X5903401Y24405515D01*
X5564127Y24307771D01*
X5237945Y24172663D01*
X4928918Y24001869D01*
X4928915Y24001867D01*
X4640971Y23797560D01*
X4377712Y23562296D01*
X4377704Y23562288D01*
X4142440Y23299029D01*
X3938133Y23011085D01*
X3938131Y23011082D01*
X3767337Y22702055D01*
X3632229Y22375873D01*
X3534485Y22036599D01*
X3475343Y21688511D01*
X3475343Y21688509D01*
X3455547Y21336000D01*
X0Y21336000D01*
X0Y41618501D01*
X22620000Y41618501D01*
X22620001Y41618500D01*
X23939499Y41618500D01*
X23939500Y41618501D01*
X24320500Y41618501D01*
X24320501Y41618500D01*
X25639999Y41618500D01*
X25640000Y41618501D01*
X25640000Y41889941D01*
X25633918Y41967212D01*
X25585771Y42146899D01*
X25501311Y42312663D01*
X25384240Y42457233D01*
X25384232Y42457241D01*
X25239662Y42574312D01*
X25073898Y42658772D01*
X24894209Y42706919D01*
X24894212Y42706919D01*
X24816941Y42713000D01*
X24320501Y42713000D01*
X24320500Y42712999D01*
X24320500Y41618501D01*
X23939500Y41618501D01*
X23939500Y42712999D01*
X23939499Y42713000D01*
X23443059Y42713000D01*
X23365788Y42706919D01*
X23186101Y42658772D01*
X23020337Y42574312D01*
X22875767Y42457241D01*
X22875759Y42457233D01*
X22758688Y42312663D01*
X22674228Y42146899D01*
X22626081Y41967212D01*
X22620000Y41889941D01*
X22620000Y41618501D01*
X0Y41618501D01*
X0Y43281874D01*
X12988000Y43281874D01*
X12990833Y43245876D01*
X13035595Y43091806D01*
X13117259Y42953718D01*
X13117261Y42953715D01*
X13230714Y42840262D01*
X13230717Y42840260D01*
X13368805Y42758596D01*
X13522875Y42713834D01*
X13558873Y42711000D01*
X14282499Y42711000D01*
X14282500Y42711001D01*
X14282500Y43729407D01*
X14407174Y43696000D01*
X14538826Y43696000D01*
X14663500Y43729407D01*
X14663500Y42711001D01*
X14663501Y42711000D01*
X15387127Y42711000D01*
X15423124Y42713834D01*
X15577194Y42758596D01*
X15715282Y42840260D01*
X15715285Y42840262D01*
X15828736Y42953713D01*
X15833436Y42961660D01*
X15891440Y43022881D01*
X15970263Y43052873D01*
X16054292Y43045694D01*
X16112945Y43014747D01*
X16198000Y42948547D01*
X16414434Y42831418D01*
X16414437Y42831417D01*
X16647203Y42751508D01*
X16647205Y42751507D01*
X16822500Y42722257D01*
X16822500Y43729407D01*
X16947174Y43696000D01*
X17078826Y43696000D01*
X17203500Y43729407D01*
X17203500Y42722257D01*
X17378794Y42751507D01*
X17378796Y42751508D01*
X17611562Y42831417D01*
X17611565Y42831418D01*
X17827999Y42948546D01*
X18022203Y43099702D01*
X18022209Y43099707D01*
X18188890Y43280769D01*
X18323493Y43486795D01*
X18323495Y43486799D01*
X18422350Y43712166D01*
X18422353Y43712176D01*
X18482764Y43950734D01*
X18487303Y44005500D01*
X17479593Y44005500D01*
X17513000Y44130174D01*
X17513000Y44261826D01*
X17479593Y44386500D01*
X18487303Y44386500D01*
X18482764Y44441267D01*
X18422353Y44679825D01*
X18422350Y44679835D01*
X18323495Y44905202D01*
X18323493Y44905206D01*
X18188890Y45111232D01*
X18022209Y45292294D01*
X18022203Y45292299D01*
X17827999Y45443455D01*
X17611565Y45560583D01*
X17611566Y45560583D01*
X17378801Y45640491D01*
X17378788Y45640495D01*
X17203500Y45669746D01*
X17203500Y44662594D01*
X17078826Y44696000D01*
X16947174Y44696000D01*
X16822500Y44662594D01*
X16822500Y45669746D01*
X16822499Y45669746D01*
X16647211Y45640495D01*
X16647198Y45640491D01*
X16414434Y45560583D01*
X16198000Y45443455D01*
X16112944Y45377253D01*
X16036533Y45341562D01*
X15952204Y45342558D01*
X15876658Y45380046D01*
X15833439Y45430337D01*
X15828738Y45438286D01*
X15715285Y45551739D01*
X15715282Y45551741D01*
X15577194Y45633405D01*
X15423124Y45678167D01*
X15387127Y45681000D01*
X14663501Y45681000D01*
X14663500Y45680999D01*
X14663500Y44662594D01*
X14538826Y44696000D01*
X14407174Y44696000D01*
X14282500Y44662594D01*
X14282500Y45680999D01*
X14282499Y45681000D01*
X13558873Y45681000D01*
X13522875Y45678167D01*
X13368805Y45633405D01*
X13230717Y45551741D01*
X13230714Y45551739D01*
X13117261Y45438286D01*
X13117259Y45438283D01*
X13035595Y45300195D01*
X12990833Y45146125D01*
X12988000Y45110127D01*
X12988000Y44386501D01*
X12988001Y44386500D01*
X14006407Y44386500D01*
X13973000Y44261826D01*
X13973000Y44130174D01*
X14006407Y44005500D01*
X12988001Y44005500D01*
X12988000Y44005499D01*
X12988000Y43281874D01*
X0Y43281874D01*
X0Y45344709D01*
X2848500Y45344709D01*
X2880162Y45104208D01*
X2942946Y44869899D01*
X2942948Y44869894D01*
X3035772Y44645795D01*
X3035775Y44645790D01*
X3035776Y44645788D01*
X3157064Y44435711D01*
X3157066Y44435708D01*
X3157071Y44435700D01*
X3304728Y44243270D01*
X3304731Y44243267D01*
X3304735Y44243262D01*
X3476262Y44071735D01*
X3476266Y44071732D01*
X3476269Y44071729D01*
X3668699Y43924072D01*
X3668707Y43924067D01*
X3668711Y43924064D01*
X3878788Y43802776D01*
X3878791Y43802775D01*
X3878794Y43802773D01*
X4054304Y43730075D01*
X4102900Y43709946D01*
X4337211Y43647162D01*
X4577712Y43615500D01*
X4820288Y43615500D01*
X5060789Y43647162D01*
X5295100Y43709946D01*
X5515615Y43801286D01*
X5519205Y43802773D01*
X5519205Y43802774D01*
X5519212Y43802776D01*
X5729289Y43924064D01*
X5729296Y43924071D01*
X5729300Y43924072D01*
X5921730Y44071729D01*
X5921729Y44071729D01*
X5921738Y44071735D01*
X6093265Y44243262D01*
X6169948Y44343197D01*
X6240928Y44435700D01*
X6240929Y44435704D01*
X6240936Y44435711D01*
X6362224Y44645788D01*
X6455054Y44869900D01*
X6517838Y45104211D01*
X6549500Y45344712D01*
X6549500Y45587288D01*
X6517838Y45827789D01*
X6517781Y45828000D01*
X6476411Y45982394D01*
X6455054Y46062100D01*
X6386336Y46228000D01*
X22690082Y46228000D01*
X22709721Y45990997D01*
X22709723Y45990988D01*
X22768099Y45760466D01*
X22768102Y45760456D01*
X22863628Y45542678D01*
X22863630Y45542674D01*
X22986775Y45354186D01*
X22986776Y45354186D01*
X23746468Y46113878D01*
X23757259Y46073606D01*
X23809920Y45982394D01*
X23884394Y45907920D01*
X23975606Y45855259D01*
X24015875Y45844469D01*
X23258944Y45087538D01*
X23342439Y45022550D01*
X23342443Y45022548D01*
X23551588Y44909364D01*
X23776514Y44832146D01*
X23776527Y44832142D01*
X24011088Y44793000D01*
X24248912Y44793000D01*
X24483472Y44832142D01*
X24483485Y44832146D01*
X24708411Y44909364D01*
X24917558Y45022548D01*
X24931065Y45033061D01*
X43393001Y45033061D01*
X43399081Y44955791D01*
X43447228Y44776103D01*
X43531690Y44610337D01*
X43531690Y44610336D01*
X43648758Y44465771D01*
X43648770Y44465759D01*
X43793335Y44348691D01*
X43959102Y44264229D01*
X44138791Y44216082D01*
X44138788Y44216082D01*
X44216059Y44210001D01*
X44550000Y44210001D01*
X44550000Y45529499D01*
X44549999Y45529500D01*
X43393002Y45529500D01*
X43393001Y45529499D01*
X43393001Y45033061D01*
X24931065Y45033061D01*
X25001054Y45087537D01*
X24244122Y45844469D01*
X24284394Y45855259D01*
X24375606Y45907920D01*
X24450080Y45982394D01*
X24502741Y46073606D01*
X24513531Y46113877D01*
X25273222Y45354186D01*
X25396372Y45542679D01*
X25491897Y45760456D01*
X25491900Y45760466D01*
X25529894Y45910501D01*
X43393000Y45910501D01*
X43393001Y45910500D01*
X44549999Y45910500D01*
X44550000Y45910501D01*
X44550000Y47230000D01*
X44216059Y47230000D01*
X44138790Y47223919D01*
X43959102Y47175772D01*
X43793336Y47091310D01*
X43793335Y47091310D01*
X43648770Y46974242D01*
X43648758Y46974230D01*
X43531690Y46829665D01*
X43531690Y46829664D01*
X43447228Y46663898D01*
X43399081Y46484211D01*
X43393000Y46406940D01*
X43393000Y45910501D01*
X25529894Y45910501D01*
X25550276Y45990988D01*
X25550278Y45990997D01*
X25569917Y46228000D01*
X25550278Y46465004D01*
X25550276Y46465013D01*
X25491900Y46695535D01*
X25491897Y46695545D01*
X25396371Y46913322D01*
X25273222Y47101816D01*
X24513531Y46342124D01*
X24502741Y46382394D01*
X24450080Y46473606D01*
X24375606Y46548080D01*
X24284394Y46600741D01*
X24244122Y46611532D01*
X25001055Y47368464D01*
X25001054Y47368465D01*
X24917558Y47433452D01*
X24708411Y47546637D01*
X24483485Y47623855D01*
X24483472Y47623859D01*
X24248912Y47663000D01*
X24011088Y47663000D01*
X23776527Y47623859D01*
X23776514Y47623855D01*
X23551588Y47546637D01*
X23342441Y47433453D01*
X23342432Y47433447D01*
X23258944Y47368465D01*
X24015877Y46611532D01*
X23975606Y46600741D01*
X23884394Y46548080D01*
X23809920Y46473606D01*
X23757259Y46382394D01*
X23746468Y46342123D01*
X22986775Y47101816D01*
X22863630Y46913327D01*
X22863628Y46913323D01*
X22768102Y46695545D01*
X22768099Y46695535D01*
X22709723Y46465013D01*
X22709721Y46465004D01*
X22690082Y46228000D01*
X6386336Y46228000D01*
X6362227Y46286206D01*
X6362225Y46286209D01*
X6362224Y46286212D01*
X6240936Y46496289D01*
X6240933Y46496293D01*
X6240928Y46496301D01*
X6093271Y46688731D01*
X6093268Y46688734D01*
X6093265Y46688738D01*
X5921738Y46860265D01*
X5921733Y46860269D01*
X5921730Y46860272D01*
X5729300Y47007929D01*
X5729292Y47007934D01*
X5729289Y47007936D01*
X5519212Y47129224D01*
X5519210Y47129225D01*
X5519205Y47129228D01*
X5295106Y47222052D01*
X5295101Y47222054D01*
X5060792Y47284838D01*
X4820291Y47316500D01*
X4820288Y47316500D01*
X4577712Y47316500D01*
X4577708Y47316500D01*
X4337207Y47284838D01*
X4102898Y47222054D01*
X4102893Y47222052D01*
X3878794Y47129228D01*
X3878786Y47129223D01*
X3668707Y47007934D01*
X3668699Y47007929D01*
X3476269Y46860272D01*
X3304728Y46688731D01*
X3157071Y46496301D01*
X3157066Y46496293D01*
X3035777Y46286214D01*
X3035772Y46286206D01*
X2942948Y46062107D01*
X2942946Y46062102D01*
X2880162Y45827793D01*
X2848500Y45587292D01*
X2848500Y45344709D01*
X0Y45344709D01*
X0Y49721500D01*
X18766Y49803721D01*
X71349Y49869657D01*
X147332Y49906249D01*
X189500Y49911000D01*
X99759500Y49911000D01*
X99841721Y49892234D01*
G37*
%TD.AperFunction*%
%TD*%
M02*
