%TF.GenerationSoftware,KiCad,Pcbnew,7.0.10-7.0.10~ubuntu22.04.1*%
%TF.CreationDate,2024-02-22T18:41:36-08:00*%
%TF.ProjectId,INA129-Amplifier,494e4131-3239-42d4-916d-706c69666965,rev?*%
%TF.SameCoordinates,PX2bf7208PY9a4d770*%
%TF.FileFunction,Soldermask,Bot*%
%TF.FilePolarity,Negative*%
%FSLAX46Y46*%
G04 Gerber Fmt 4.6, Leading zero omitted, Abs format (unit mm)*
G04 Created by KiCad (PCBNEW 7.0.10-7.0.10~ubuntu22.04.1) date 2024-02-22 18:41:36*
%MOMM*%
%LPD*%
G01*
G04 APERTURE LIST*
%ADD10C,3.200000*%
%ADD11R,1.700000X1.700000*%
%ADD12R,2.400000X1.600000*%
%ADD13O,2.400000X1.600000*%
%ADD14O,1.700000X1.700000*%
%ADD15C,1.600000*%
%ADD16O,1.600000X1.600000*%
%ADD17R,1.200000X1.200000*%
%ADD18C,1.200000*%
G04 APERTURE END LIST*
D10*
%TO.C,H4*%
X95123000Y4826000D03*
%TD*%
%TO.C,H3*%
X95123000Y45466000D03*
%TD*%
%TO.C,H2*%
X4699000Y45466000D03*
%TD*%
%TO.C,H1*%
X4699000Y4826000D03*
%TD*%
D11*
%TO.C,J9*%
X70231000Y34290000D03*
%TD*%
%TO.C,J8*%
X61595000Y19050000D03*
%TD*%
D12*
%TO.C,U3*%
X70978000Y29454000D03*
D13*
X70978000Y26914000D03*
X70978000Y24374000D03*
X70978000Y21834000D03*
X78598000Y21834000D03*
X78598000Y24374000D03*
X78598000Y26914000D03*
X78598000Y29454000D03*
%TD*%
D12*
%TO.C,U1*%
X38974000Y29962000D03*
D13*
X38974000Y27422000D03*
X38974000Y24882000D03*
X38974000Y22342000D03*
X46594000Y22342000D03*
X46594000Y24882000D03*
X46594000Y27422000D03*
X46594000Y29962000D03*
%TD*%
D11*
%TO.C,J5*%
X63749000Y9906000D03*
D14*
X66289000Y9906000D03*
%TD*%
D15*
%TO.C,R2*%
X15621000Y24130000D03*
D16*
X28321000Y24130000D03*
%TD*%
D15*
%TO.C,R3*%
X15621000Y28194000D03*
D16*
X28321000Y28194000D03*
%TD*%
%TO.C,R5*%
X30099000Y6096000D03*
D15*
X30099000Y18796000D03*
%TD*%
%TO.C,R6*%
X30099000Y46228000D03*
D16*
X30099000Y33528000D03*
%TD*%
D15*
%TO.C,R10*%
X36449000Y35306000D03*
D16*
X49149000Y35306000D03*
%TD*%
D11*
%TO.C,J7*%
X91816000Y36581000D03*
D14*
X94356000Y36581000D03*
%TD*%
D11*
%TO.C,J6*%
X91816000Y26670000D03*
D14*
X94356000Y26670000D03*
%TD*%
%TO.C,J4*%
X50419000Y8382000D03*
D11*
X50419000Y10922000D03*
%TD*%
%TO.C,J3*%
X53467000Y42169000D03*
D14*
X53467000Y39629000D03*
%TD*%
D11*
%TO.C,J1*%
X15367000Y17785000D03*
D14*
X15367000Y15245000D03*
%TD*%
D11*
%TO.C,J2*%
X15367000Y37089000D03*
D14*
X15367000Y34549000D03*
%TD*%
D17*
%TO.C,C9*%
X88519000Y16952000D03*
D18*
X88519000Y14952000D03*
%TD*%
D17*
%TO.C,C7*%
X73279000Y14986000D03*
D18*
X73279000Y16986000D03*
%TD*%
M02*
