%TF.GenerationSoftware,KiCad,Pcbnew,8.0.0-8.0.0-1~ubuntu22.04.1*%
%TF.CreationDate,2024-03-07T15:00:58-08:00*%
%TF.ProjectId,INAAmplifierRev2,494e4141-6d70-46c6-9966-696572526576,rev?*%
%TF.SameCoordinates,PX2bf7208PY9a4d770*%
%TF.FileFunction,Copper,L2,Bot*%
%TF.FilePolarity,Positive*%
%FSLAX46Y46*%
G04 Gerber Fmt 4.6, Leading zero omitted, Abs format (unit mm)*
G04 Created by KiCad (PCBNEW 8.0.0-8.0.0-1~ubuntu22.04.1) date 2024-03-07 15:00:58*
%MOMM*%
%LPD*%
G01*
G04 APERTURE LIST*
%TA.AperFunction,ComponentPad*%
%ADD10R,1.700000X1.700000*%
%TD*%
%TA.AperFunction,ComponentPad*%
%ADD11O,1.700000X1.700000*%
%TD*%
%TA.AperFunction,ComponentPad*%
%ADD12R,2.400000X1.600000*%
%TD*%
%TA.AperFunction,ComponentPad*%
%ADD13O,2.400000X1.600000*%
%TD*%
%TA.AperFunction,ComponentPad*%
%ADD14R,1.200000X1.200000*%
%TD*%
%TA.AperFunction,ComponentPad*%
%ADD15C,1.200000*%
%TD*%
%TA.AperFunction,ComponentPad*%
%ADD16C,1.600000*%
%TD*%
%TA.AperFunction,ComponentPad*%
%ADD17O,1.600000X1.600000*%
%TD*%
%TA.AperFunction,ComponentPad*%
%ADD18C,1.400000*%
%TD*%
%TA.AperFunction,ComponentPad*%
%ADD19O,1.400000X1.400000*%
%TD*%
%TA.AperFunction,ComponentPad*%
%ADD20R,1.600000X1.600000*%
%TD*%
%TA.AperFunction,ComponentPad*%
%ADD21C,1.800000*%
%TD*%
%TA.AperFunction,Conductor*%
%ADD22C,0.355600*%
%TD*%
G04 APERTURE END LIST*
D10*
%TO.P,J15,1,Pin_1*%
%TO.N,GND*%
X96000000Y21275000D03*
D11*
%TO.P,J15,2,Pin_2*%
%TO.N,-9V*%
X96000000Y18735000D03*
%TD*%
D12*
%TO.P,U2,1*%
%TO.N,/ConditionedOutput*%
X66660000Y29835000D03*
D13*
%TO.P,U2,2,-*%
%TO.N,Net-(U2A--)*%
X66660000Y27295000D03*
%TO.P,U2,3,+*%
%TO.N,Net-(U2A-+)*%
X66660000Y24755000D03*
%TO.P,U2,4,V-*%
%TO.N,-9V*%
X66660000Y22215000D03*
%TO.P,U2,5,+*%
%TO.N,Net-(U2B-+)*%
X74280000Y22215000D03*
%TO.P,U2,6,-*%
%TO.N,/DC_Bias_Buffer*%
X74280000Y24755000D03*
%TO.P,U2,7*%
X74280000Y27295000D03*
%TO.P,U2,8,V+*%
%TO.N,+9V*%
X74280000Y29835000D03*
%TD*%
D14*
%TO.P,C5,1*%
%TO.N,Net-(U2A-+)*%
X45081323Y19925060D03*
D15*
%TO.P,C5,2*%
%TO.N,Net-(C14-Pad1)*%
X43081323Y19925060D03*
%TD*%
D10*
%TO.P,J6,1,Pin_1*%
%TO.N,/ConditionedOutput*%
X85730000Y40005000D03*
D11*
%TO.P,J6,2,Pin_2*%
X83190000Y40005000D03*
%TD*%
D10*
%TO.P,J14,1,Pin_1*%
%TO.N,GND*%
X88900000Y17770000D03*
D11*
%TO.P,J14,2,Pin_2*%
X88900000Y15230000D03*
%TO.P,J14,3,Pin_3*%
X88900000Y12690000D03*
%TO.P,J14,4,Pin_4*%
X88900000Y10150000D03*
%TD*%
D16*
%TO.P,R2,1*%
%TO.N,/PosInput*%
X11152500Y23876000D03*
D17*
%TO.P,R2,2*%
%TO.N,/PosInputProtected*%
X23852500Y23876000D03*
%TD*%
D18*
%TO.P,R10,1*%
%TO.N,/Gain2*%
X27940000Y34290000D03*
D19*
%TO.P,R10,2*%
%TO.N,/Gain1*%
X35560000Y34290000D03*
%TD*%
D10*
%TO.P,J8,1,Pin_1*%
%TO.N,-9V*%
X60965000Y6350000D03*
D11*
%TO.P,J8,2,Pin_2*%
X58425000Y6350000D03*
%TD*%
D20*
%TO.P,C13,1*%
%TO.N,Net-(U2B-+)*%
X82637621Y20828000D03*
D16*
%TO.P,C13,2*%
%TO.N,GND*%
X85137621Y20828000D03*
%TD*%
D12*
%TO.P,U1,1,Rg*%
%TO.N,/Gain2*%
X27925000Y29835000D03*
D13*
%TO.P,U1,2,-*%
%TO.N,/NegInputProtected*%
X27925000Y27295000D03*
%TO.P,U1,3,+*%
%TO.N,/PosInputProtected*%
X27925000Y24755000D03*
%TO.P,U1,4,V-*%
%TO.N,-9V*%
X27925000Y22215000D03*
%TO.P,U1,5,Ref*%
%TO.N,GND*%
X35545000Y22215000D03*
%TO.P,U1,6*%
%TO.N,Net-(C14-Pad1)*%
X35545000Y24755000D03*
%TO.P,U1,7,V+*%
%TO.N,+9V*%
X35545000Y27295000D03*
%TO.P,U1,8,Rg*%
%TO.N,/Gain1*%
X35545000Y29835000D03*
%TD*%
D16*
%TO.P,R5,1*%
%TO.N,/PosInputProtected*%
X24130000Y18796000D03*
D17*
%TO.P,R5,2*%
%TO.N,GND*%
X24130000Y6096000D03*
%TD*%
D10*
%TO.P,J4,1,Pin_1*%
%TO.N,/DC_Bias_Buffer*%
X79248000Y29723000D03*
D11*
%TO.P,J4,2,Pin_2*%
X79248000Y27183000D03*
%TD*%
D16*
%TO.P,R6,1*%
%TO.N,GND*%
X24130000Y46228000D03*
D17*
%TO.P,R6,2*%
%TO.N,/NegInputProtected*%
X24130000Y33528000D03*
%TD*%
D10*
%TO.P,J5,1,Pin_1*%
%TO.N,/ConditionedOutput*%
X72390000Y40005000D03*
D11*
%TO.P,J5,2,Pin_2*%
X69850000Y40005000D03*
%TD*%
D10*
%TO.P,J12,1,Pin_1*%
%TO.N,GND*%
X37856000Y14732000D03*
D11*
%TO.P,J12,2,Pin_2*%
X40396000Y14732000D03*
%TO.P,J12,3,Pin_3*%
X42936000Y14732000D03*
%TO.P,J12,4,Pin_4*%
X45476000Y14732000D03*
%TD*%
D16*
%TO.P,R3,1*%
%TO.N,/NegInput*%
X11142867Y28097038D03*
D17*
%TO.P,R3,2*%
%TO.N,/NegInputProtected*%
X23842867Y28097038D03*
%TD*%
D21*
%TO.P,C14,1*%
%TO.N,Net-(C14-Pad1)*%
X41761057Y24704546D03*
%TO.P,C14,2*%
%TO.N,Net-(U2A-+)*%
X46761057Y24704546D03*
%TD*%
D14*
%TO.P,C7,1*%
%TO.N,Net-(C7-Pad1)*%
X52197000Y38862000D03*
D15*
%TO.P,C7,2*%
%TO.N,GND*%
X50197000Y38862000D03*
%TD*%
D10*
%TO.P,J7,1,Pin_1*%
%TO.N,+9V*%
X60960000Y45720000D03*
D11*
%TO.P,J7,2,Pin_2*%
X58420000Y45720000D03*
%TD*%
D10*
%TO.P,J1,1,Pin_1*%
%TO.N,/PosInput*%
X10898500Y17531000D03*
D11*
%TO.P,J1,2,Pin_2*%
X10898500Y14991000D03*
%TD*%
D10*
%TO.P,J3,1,Pin_1*%
%TO.N,GND*%
X17150000Y6350000D03*
D11*
%TO.P,J3,2,Pin_2*%
X14610000Y6350000D03*
%TD*%
D10*
%TO.P,J11,1,Pin_1*%
%TO.N,GND*%
X74168000Y17272000D03*
%TD*%
%TO.P,J10,1,Pin_1*%
%TO.N,GND*%
X67056000Y35560000D03*
%TD*%
%TO.P,J2,1,Pin_1*%
%TO.N,/NegInput*%
X10898500Y36835000D03*
D11*
%TO.P,J2,2,Pin_2*%
X10898500Y34295000D03*
%TD*%
D10*
%TO.P,J13,1,Pin_1*%
%TO.N,+9V*%
X96000000Y29000000D03*
D11*
%TO.P,J13,2,Pin_2*%
%TO.N,GND*%
X96000000Y26460000D03*
%TD*%
D10*
%TO.P,J9,1,Pin_1*%
%TO.N,GND*%
X14473000Y44196000D03*
D11*
%TO.P,J9,2,Pin_2*%
X17013000Y44196000D03*
%TD*%
D22*
%TO.N,+9V*%
X60960000Y45720000D02*
X58420000Y45720000D01*
%TO.N,-9V*%
X60965000Y6350000D02*
X60965000Y6101000D01*
X60965000Y6101000D02*
X60960000Y6096000D01*
%TO.N,/ConditionedOutput*%
X69850000Y40005000D02*
X72390000Y40005000D01*
%TD*%
%TA.AperFunction,Conductor*%
%TO.N,GND*%
G36*
X16650000Y6415826D02*
G01*
X16650000Y6284174D01*
X16680004Y6172200D01*
X15079996Y6172200D01*
X15110000Y6284174D01*
X15110000Y6415826D01*
X15079996Y6527800D01*
X16680004Y6527800D01*
X16650000Y6415826D01*
G37*
%TD.AperFunction*%
%TA.AperFunction,Conductor*%
G36*
X89077800Y10619997D02*
G01*
X88965826Y10650000D01*
X88834174Y10650000D01*
X88722200Y10619997D01*
X88722200Y12220004D01*
X88834174Y12190000D01*
X88965826Y12190000D01*
X89077800Y12220004D01*
X89077800Y10619997D01*
G37*
%TD.AperFunction*%
%TA.AperFunction,Conductor*%
G36*
X89077800Y13159997D02*
G01*
X88965826Y13190000D01*
X88834174Y13190000D01*
X88722200Y13159997D01*
X88722200Y14760004D01*
X88834174Y14730000D01*
X88965826Y14730000D01*
X89077800Y14760004D01*
X89077800Y13159997D01*
G37*
%TD.AperFunction*%
%TA.AperFunction,Conductor*%
G36*
X89077800Y15699997D02*
G01*
X88965826Y15730000D01*
X88834174Y15730000D01*
X88722200Y15699997D01*
X88722200Y17300004D01*
X88834174Y17270000D01*
X88965826Y17270000D01*
X89077800Y17300004D01*
X89077800Y15699997D01*
G37*
%TD.AperFunction*%
%TA.AperFunction,Conductor*%
G36*
X39896000Y14797826D02*
G01*
X39896000Y14666174D01*
X39926004Y14554200D01*
X38325996Y14554200D01*
X38356000Y14666174D01*
X38356000Y14797826D01*
X38325996Y14909800D01*
X39926004Y14909800D01*
X39896000Y14797826D01*
G37*
%TD.AperFunction*%
%TA.AperFunction,Conductor*%
G36*
X42436000Y14797826D02*
G01*
X42436000Y14666174D01*
X42466004Y14554200D01*
X40865996Y14554200D01*
X40896000Y14666174D01*
X40896000Y14797826D01*
X40865996Y14909800D01*
X42466004Y14909800D01*
X42436000Y14797826D01*
G37*
%TD.AperFunction*%
%TA.AperFunction,Conductor*%
G36*
X44976000Y14797826D02*
G01*
X44976000Y14666174D01*
X45006004Y14554200D01*
X43405996Y14554200D01*
X43436000Y14666174D01*
X43436000Y14797826D01*
X43405996Y14909800D01*
X45006004Y14909800D01*
X44976000Y14797826D01*
G37*
%TD.AperFunction*%
%TA.AperFunction,Conductor*%
G36*
X16513000Y44261826D02*
G01*
X16513000Y44130174D01*
X16543004Y44018200D01*
X14942996Y44018200D01*
X14973000Y44130174D01*
X14973000Y44261826D01*
X14942996Y44373800D01*
X16543004Y44373800D01*
X16513000Y44261826D01*
G37*
%TD.AperFunction*%
%TA.AperFunction,Conductor*%
G36*
X99854363Y49890749D02*
G01*
X99917704Y49834634D01*
X99947711Y49755511D01*
X99949000Y49734200D01*
X99949000Y176800D01*
X99928749Y94637D01*
X99872634Y31296D01*
X99793511Y1289D01*
X99772200Y0D01*
X176800Y0D01*
X94637Y20251D01*
X31296Y76366D01*
X1289Y155489D01*
X0Y176800D01*
X0Y4704709D01*
X2848500Y4704709D01*
X2880161Y4464215D01*
X2942946Y4229898D01*
X3035774Y4005791D01*
X3035777Y4005785D01*
X3096420Y3900750D01*
X3157064Y3795711D01*
X3157067Y3795707D01*
X3157069Y3795704D01*
X3304729Y3603268D01*
X3304736Y3603260D01*
X3476259Y3431737D01*
X3476267Y3431730D01*
X3668703Y3284070D01*
X3668711Y3284064D01*
X3834390Y3188409D01*
X3878784Y3162778D01*
X3878790Y3162775D01*
X4102897Y3069947D01*
X4102898Y3069947D01*
X4102900Y3069946D01*
X4337211Y3007162D01*
X4457461Y2991331D01*
X4577709Y2975500D01*
X4577712Y2975500D01*
X4820291Y2975500D01*
X4923359Y2989070D01*
X5060789Y3007162D01*
X5295100Y3069946D01*
X5519212Y3162776D01*
X5729289Y3284064D01*
X5847360Y3374664D01*
X5921732Y3431730D01*
X5921740Y3431737D01*
X6093263Y3603260D01*
X6093270Y3603268D01*
X6150336Y3677640D01*
X6240936Y3795711D01*
X6362224Y4005788D01*
X6455054Y4229900D01*
X6517838Y4464211D01*
X6549500Y4704709D01*
X93272500Y4704709D01*
X93304161Y4464215D01*
X93366946Y4229898D01*
X93459774Y4005791D01*
X93459777Y4005785D01*
X93520420Y3900750D01*
X93581064Y3795711D01*
X93581067Y3795707D01*
X93581069Y3795704D01*
X93728729Y3603268D01*
X93728736Y3603260D01*
X93900259Y3431737D01*
X93900267Y3431730D01*
X94092703Y3284070D01*
X94092711Y3284064D01*
X94258390Y3188409D01*
X94302784Y3162778D01*
X94302790Y3162775D01*
X94526897Y3069947D01*
X94526898Y3069947D01*
X94526900Y3069946D01*
X94761211Y3007162D01*
X94881461Y2991331D01*
X95001709Y2975500D01*
X95001712Y2975500D01*
X95244291Y2975500D01*
X95347359Y2989070D01*
X95484789Y3007162D01*
X95719100Y3069946D01*
X95943212Y3162776D01*
X96153289Y3284064D01*
X96271360Y3374664D01*
X96345732Y3431730D01*
X96345740Y3431737D01*
X96517263Y3603260D01*
X96517270Y3603268D01*
X96574336Y3677640D01*
X96664936Y3795711D01*
X96786224Y4005788D01*
X96879054Y4229900D01*
X96941838Y4464211D01*
X96973500Y4704712D01*
X96973500Y4947288D01*
X96973500Y4947292D01*
X96947759Y5142811D01*
X96941838Y5187789D01*
X96879054Y5422100D01*
X96873934Y5434460D01*
X96786225Y5646210D01*
X96786222Y5646216D01*
X96741741Y5723259D01*
X96664936Y5856289D01*
X96654883Y5869391D01*
X96517270Y6048733D01*
X96517263Y6048741D01*
X96345740Y6220264D01*
X96345732Y6220271D01*
X96153296Y6367931D01*
X96153293Y6367933D01*
X96153289Y6367936D01*
X95978690Y6468741D01*
X95943215Y6489223D01*
X95943209Y6489226D01*
X95719102Y6582054D01*
X95484785Y6644839D01*
X95244291Y6676500D01*
X95244288Y6676500D01*
X95001712Y6676500D01*
X95001709Y6676500D01*
X94761214Y6644839D01*
X94526897Y6582054D01*
X94302790Y6489226D01*
X94302784Y6489223D01*
X94092713Y6367937D01*
X94092703Y6367931D01*
X93900267Y6220271D01*
X93900259Y6220264D01*
X93728736Y6048741D01*
X93728729Y6048733D01*
X93581069Y5856297D01*
X93581063Y5856287D01*
X93459777Y5646216D01*
X93459774Y5646210D01*
X93366946Y5422103D01*
X93304161Y5187786D01*
X93272500Y4947292D01*
X93272500Y4704709D01*
X6549500Y4704709D01*
X6549500Y4704712D01*
X6549500Y4947288D01*
X6549500Y4947292D01*
X6523759Y5142811D01*
X6517838Y5187789D01*
X6455054Y5422100D01*
X6449934Y5434460D01*
X6362225Y5646210D01*
X6362222Y5646216D01*
X6317741Y5723259D01*
X6240936Y5856289D01*
X6230883Y5869391D01*
X6093270Y6048733D01*
X6093263Y6048741D01*
X5969804Y6172200D01*
X13270398Y6172200D01*
X13275429Y6114683D01*
X13336568Y5886511D01*
X13336569Y5886509D01*
X13436398Y5672423D01*
X13571890Y5478923D01*
X13571899Y5478912D01*
X13738911Y5311900D01*
X13738922Y5311891D01*
X13932422Y5176399D01*
X14146508Y5076570D01*
X14146510Y5076569D01*
X14374683Y5015430D01*
X14374681Y5015430D01*
X14432199Y5010399D01*
X14432200Y5010399D01*
X14432200Y5880004D01*
X14544174Y5850000D01*
X14675826Y5850000D01*
X14787800Y5880004D01*
X14787800Y5010399D01*
X14845317Y5015430D01*
X15073489Y5076569D01*
X15073491Y5076570D01*
X15287577Y5176399D01*
X15481077Y5311891D01*
X15481081Y5311894D01*
X15545427Y5376240D01*
X15617844Y5420018D01*
X15702312Y5425128D01*
X15779479Y5390399D01*
X15831667Y5323786D01*
X15836097Y5313008D01*
X15856646Y5257913D01*
X15942810Y5142811D01*
X16057911Y5056647D01*
X16192625Y5006402D01*
X16252172Y5000000D01*
X16972200Y5000000D01*
X16972200Y5880004D01*
X17084174Y5850000D01*
X17215826Y5850000D01*
X17327800Y5880004D01*
X17327800Y5000000D01*
X18047828Y5000000D01*
X18107374Y5006402D01*
X18242088Y5056647D01*
X18357189Y5142811D01*
X18443353Y5257912D01*
X18493598Y5392626D01*
X18500000Y5452173D01*
X18500000Y6172200D01*
X17619996Y6172200D01*
X17647221Y6273801D01*
X22840588Y6273801D01*
X22840589Y6273800D01*
X23770772Y6273800D01*
X23757259Y6250394D01*
X23730000Y6148661D01*
X23730000Y6043339D01*
X23757259Y5941606D01*
X23770772Y5918200D01*
X22840589Y5918200D01*
X22844859Y5869395D01*
X22844860Y5869391D01*
X22903733Y5649673D01*
X22999864Y5443520D01*
X22999864Y5443519D01*
X23130338Y5257185D01*
X23130347Y5257174D01*
X23291173Y5096348D01*
X23291184Y5096339D01*
X23477518Y4965865D01*
X23683671Y4869734D01*
X23903394Y4810860D01*
X23952200Y4806591D01*
X23952200Y5736773D01*
X23975606Y5723259D01*
X24077339Y5696000D01*
X24182661Y5696000D01*
X24284394Y5723259D01*
X24307800Y5736773D01*
X24307800Y4806592D01*
X24356605Y4810860D01*
X24576328Y4869734D01*
X24782480Y4965865D01*
X24782481Y4965865D01*
X24968815Y5096339D01*
X24968826Y5096348D01*
X25129652Y5257174D01*
X25129661Y5257185D01*
X25260135Y5443519D01*
X25260135Y5443520D01*
X25356266Y5649673D01*
X25415139Y5869391D01*
X25415140Y5869395D01*
X25419411Y5918200D01*
X24489228Y5918200D01*
X24502741Y5941606D01*
X24530000Y6043339D01*
X24530000Y6148661D01*
X24502741Y6250394D01*
X24489228Y6273800D01*
X25419411Y6273800D01*
X25419411Y6273801D01*
X25415140Y6322606D01*
X25415139Y6322610D01*
X25407800Y6349999D01*
X56934409Y6349999D01*
X56954738Y6104659D01*
X56954739Y6104654D01*
X57015171Y5866010D01*
X57015173Y5866006D01*
X57114064Y5640557D01*
X57248714Y5434460D01*
X57415450Y5253337D01*
X57415454Y5253334D01*
X57415453Y5253334D01*
X57476303Y5205973D01*
X57609724Y5102127D01*
X57609726Y5102126D01*
X57609730Y5102123D01*
X57693764Y5056647D01*
X57826236Y4984957D01*
X57826239Y4984956D01*
X58059074Y4905023D01*
X58059078Y4905023D01*
X58059082Y4905021D01*
X58301908Y4864500D01*
X58301912Y4864500D01*
X58548088Y4864500D01*
X58548092Y4864500D01*
X58790918Y4905021D01*
X58790924Y4905023D01*
X58790925Y4905023D01*
X58914049Y4947292D01*
X59023764Y4984957D01*
X59229581Y5096339D01*
X59240269Y5102123D01*
X59240269Y5102124D01*
X59240276Y5102127D01*
X59336302Y5176868D01*
X59413575Y5211350D01*
X59498026Y5205973D01*
X59570305Y5161965D01*
X59597072Y5127343D01*
X59608866Y5107401D01*
X59608866Y5107400D01*
X59722398Y4993868D01*
X59722400Y4993867D01*
X59722402Y4993865D01*
X59860607Y4912131D01*
X60014796Y4867335D01*
X60050819Y4864500D01*
X61879180Y4864501D01*
X61879188Y4864501D01*
X61903196Y4866391D01*
X61915204Y4867335D01*
X62069393Y4912131D01*
X62207598Y4993865D01*
X62321135Y5107402D01*
X62402869Y5245607D01*
X62447665Y5399796D01*
X62450500Y5435819D01*
X62450499Y7264180D01*
X62450499Y7264189D01*
X62447665Y7300201D01*
X62447665Y7300204D01*
X62402870Y7454390D01*
X62402869Y7454391D01*
X62402869Y7454393D01*
X62321135Y7592598D01*
X62321133Y7592600D01*
X62321132Y7592602D01*
X62207601Y7706133D01*
X62192535Y7715043D01*
X62069393Y7787869D01*
X62069389Y7787870D01*
X62069388Y7787871D01*
X61915205Y7832665D01*
X61909200Y7833138D01*
X61879181Y7835500D01*
X61879176Y7835500D01*
X60050811Y7835500D01*
X60014799Y7832666D01*
X60014796Y7832666D01*
X59860610Y7787871D01*
X59722398Y7706133D01*
X59608867Y7592602D01*
X59597071Y7572655D01*
X59537815Y7512243D01*
X59457271Y7486289D01*
X59373892Y7500738D01*
X59336300Y7523135D01*
X59240275Y7597874D01*
X59240270Y7597877D01*
X59023762Y7715044D01*
X59023760Y7715045D01*
X58790925Y7794978D01*
X58742070Y7803131D01*
X58548092Y7835500D01*
X58301908Y7835500D01*
X58107929Y7803131D01*
X58059075Y7794978D01*
X58059074Y7794978D01*
X57826239Y7715045D01*
X57826237Y7715044D01*
X57609730Y7597878D01*
X57415454Y7446667D01*
X57415451Y7446664D01*
X57415450Y7446663D01*
X57248714Y7265540D01*
X57237142Y7247828D01*
X57114067Y7059449D01*
X57114065Y7059445D01*
X57114064Y7059443D01*
X57079465Y6980566D01*
X57015171Y6833991D01*
X56954739Y6595347D01*
X56954738Y6595342D01*
X56934409Y6350002D01*
X56934409Y6349999D01*
X25407800Y6349999D01*
X25356266Y6542328D01*
X25260135Y6748481D01*
X25260135Y6748482D01*
X25129661Y6934816D01*
X25129652Y6934827D01*
X24968826Y7095653D01*
X24968815Y7095662D01*
X24782481Y7226136D01*
X24576327Y7322267D01*
X24356609Y7381140D01*
X24356605Y7381141D01*
X24307800Y7385412D01*
X24307800Y6455228D01*
X24284394Y6468741D01*
X24182661Y6496000D01*
X24077339Y6496000D01*
X23975606Y6468741D01*
X23952200Y6455228D01*
X23952200Y7385411D01*
X23952199Y7385412D01*
X23903394Y7381141D01*
X23903390Y7381140D01*
X23683672Y7322267D01*
X23477519Y7226136D01*
X23477518Y7226136D01*
X23291184Y7095662D01*
X23291173Y7095653D01*
X23130347Y6934827D01*
X23130338Y6934816D01*
X22999864Y6748482D01*
X22999864Y6748481D01*
X22903733Y6542328D01*
X22844860Y6322610D01*
X22844859Y6322606D01*
X22840588Y6273801D01*
X17647221Y6273801D01*
X17650000Y6284174D01*
X17650000Y6415826D01*
X17619996Y6527800D01*
X18500000Y6527800D01*
X18500000Y7247828D01*
X18493598Y7307375D01*
X18443353Y7442089D01*
X18357189Y7557190D01*
X18242088Y7643354D01*
X18107374Y7693599D01*
X18047828Y7700000D01*
X17327800Y7700000D01*
X17327800Y6819997D01*
X17215826Y6850000D01*
X17084174Y6850000D01*
X16972200Y6819997D01*
X16972200Y7700000D01*
X16252172Y7700000D01*
X16192625Y7693599D01*
X16057911Y7643354D01*
X15942810Y7557190D01*
X15856646Y7442089D01*
X15836097Y7386992D01*
X15788409Y7317087D01*
X15713698Y7277350D01*
X15629077Y7276885D01*
X15553933Y7315798D01*
X15545428Y7323761D01*
X15481088Y7388101D01*
X15481077Y7388110D01*
X15287577Y7523602D01*
X15073491Y7623431D01*
X15073489Y7623432D01*
X14845317Y7684570D01*
X14787800Y7689602D01*
X14787800Y6819997D01*
X14675826Y6850000D01*
X14544174Y6850000D01*
X14432200Y6819997D01*
X14432200Y7689602D01*
X14432199Y7689602D01*
X14374682Y7684570D01*
X14146510Y7623432D01*
X13932423Y7523602D01*
X13932417Y7523598D01*
X13738927Y7388115D01*
X13738913Y7388103D01*
X13571897Y7221087D01*
X13571885Y7221073D01*
X13436402Y7027583D01*
X13436398Y7027577D01*
X13336568Y6813490D01*
X13275429Y6585318D01*
X13270398Y6527801D01*
X13270399Y6527800D01*
X14140004Y6527800D01*
X14110000Y6415826D01*
X14110000Y6284174D01*
X14140004Y6172200D01*
X13270398Y6172200D01*
X5969804Y6172200D01*
X5921740Y6220264D01*
X5921732Y6220271D01*
X5729296Y6367931D01*
X5729293Y6367933D01*
X5729289Y6367936D01*
X5554690Y6468741D01*
X5519215Y6489223D01*
X5519209Y6489226D01*
X5295102Y6582054D01*
X5060785Y6644839D01*
X4820291Y6676500D01*
X4820288Y6676500D01*
X4577712Y6676500D01*
X4577709Y6676500D01*
X4337214Y6644839D01*
X4102897Y6582054D01*
X3878790Y6489226D01*
X3878784Y6489223D01*
X3668713Y6367937D01*
X3668703Y6367931D01*
X3476267Y6220271D01*
X3476259Y6220264D01*
X3304736Y6048741D01*
X3304729Y6048733D01*
X3157069Y5856297D01*
X3157063Y5856287D01*
X3035777Y5646216D01*
X3035774Y5646210D01*
X2942946Y5422103D01*
X2880161Y5187786D01*
X2848500Y4947292D01*
X2848500Y4704709D01*
X0Y4704709D01*
X0Y14990999D01*
X9407909Y14990999D01*
X9428238Y14745659D01*
X9428239Y14745654D01*
X9488671Y14507010D01*
X9488673Y14507006D01*
X9587564Y14281557D01*
X9722214Y14075460D01*
X9888950Y13894337D01*
X9888954Y13894334D01*
X9888953Y13894334D01*
X9931880Y13860923D01*
X10083224Y13743127D01*
X10083226Y13743126D01*
X10083230Y13743123D01*
X10174204Y13693891D01*
X10299736Y13625957D01*
X10299739Y13625956D01*
X10532574Y13546023D01*
X10532578Y13546023D01*
X10532582Y13546021D01*
X10775408Y13505500D01*
X10775412Y13505500D01*
X11021588Y13505500D01*
X11021592Y13505500D01*
X11264418Y13546021D01*
X11264424Y13546023D01*
X11264425Y13546023D01*
X11385326Y13587529D01*
X11497264Y13625957D01*
X11713776Y13743127D01*
X11830752Y13834173D01*
X36506000Y13834173D01*
X36512401Y13774626D01*
X36562646Y13639912D01*
X36648810Y13524811D01*
X36763911Y13438647D01*
X36898625Y13388402D01*
X36958172Y13382000D01*
X37678200Y13382000D01*
X37678200Y14262004D01*
X37790174Y14232000D01*
X37921826Y14232000D01*
X38033800Y14262004D01*
X38033800Y13382000D01*
X38753828Y13382000D01*
X38813374Y13388402D01*
X38948088Y13438647D01*
X39063189Y13524811D01*
X39149352Y13639911D01*
X39169901Y13695006D01*
X39217587Y13764912D01*
X39292298Y13804651D01*
X39376919Y13805117D01*
X39452064Y13766205D01*
X39460571Y13758240D01*
X39524911Y13693900D01*
X39524922Y13693891D01*
X39718422Y13558399D01*
X39932508Y13458570D01*
X39932510Y13458569D01*
X40160683Y13397430D01*
X40160681Y13397430D01*
X40218199Y13392399D01*
X40218200Y13392399D01*
X40218200Y14262004D01*
X40330174Y14232000D01*
X40461826Y14232000D01*
X40573800Y14262004D01*
X40573800Y13392399D01*
X40631317Y13397430D01*
X40859489Y13458569D01*
X40859491Y13458570D01*
X41073577Y13558399D01*
X41267077Y13693891D01*
X41267088Y13693900D01*
X41434100Y13860912D01*
X41434114Y13860928D01*
X41521174Y13985262D01*
X41584890Y14040951D01*
X41667187Y14060650D01*
X41749212Y14039848D01*
X41810826Y13985262D01*
X41897885Y13860928D01*
X41897899Y13860912D01*
X42064911Y13693900D01*
X42064922Y13693891D01*
X42258422Y13558399D01*
X42472508Y13458570D01*
X42472510Y13458569D01*
X42700683Y13397430D01*
X42700681Y13397430D01*
X42758200Y13392399D01*
X42758200Y14262004D01*
X42870174Y14232000D01*
X43001826Y14232000D01*
X43113800Y14262004D01*
X43113800Y13392399D01*
X43171317Y13397430D01*
X43399489Y13458569D01*
X43399491Y13458570D01*
X43613577Y13558399D01*
X43807077Y13693891D01*
X43807088Y13693900D01*
X43974100Y13860912D01*
X43974114Y13860928D01*
X44061174Y13985262D01*
X44124890Y14040951D01*
X44207187Y14060650D01*
X44289212Y14039848D01*
X44350826Y13985262D01*
X44437885Y13860928D01*
X44437899Y13860912D01*
X44604911Y13693900D01*
X44604922Y13693891D01*
X44798422Y13558399D01*
X45012508Y13458570D01*
X45012510Y13458569D01*
X45240683Y13397430D01*
X45240681Y13397430D01*
X45298199Y13392399D01*
X45298200Y13392399D01*
X45298200Y14262004D01*
X45410174Y14232000D01*
X45541826Y14232000D01*
X45653800Y14262004D01*
X45653800Y13392399D01*
X45711317Y13397430D01*
X45939489Y13458569D01*
X45939491Y13458570D01*
X46153577Y13558399D01*
X46347077Y13693891D01*
X46347088Y13693900D01*
X46514100Y13860912D01*
X46514109Y13860923D01*
X46649601Y14054423D01*
X46749430Y14268509D01*
X46749431Y14268511D01*
X46810570Y14496683D01*
X46815601Y14554200D01*
X45945996Y14554200D01*
X45976000Y14666174D01*
X45976000Y14797826D01*
X45945996Y14909800D01*
X46815601Y14909800D01*
X46815601Y14909801D01*
X46810570Y14967318D01*
X46749431Y15195490D01*
X46649601Y15409577D01*
X46649597Y15409583D01*
X46514114Y15603073D01*
X46514102Y15603087D01*
X46347088Y15770101D01*
X46347077Y15770110D01*
X46153577Y15905602D01*
X45939491Y16005431D01*
X45939489Y16005432D01*
X45711317Y16066570D01*
X45653800Y16071602D01*
X45653800Y15201997D01*
X45541826Y15232000D01*
X45410174Y15232000D01*
X45298200Y15201997D01*
X45298200Y16071602D01*
X45298199Y16071602D01*
X45240682Y16066570D01*
X45012510Y16005432D01*
X44798423Y15905602D01*
X44798417Y15905598D01*
X44604927Y15770115D01*
X44604913Y15770103D01*
X44437897Y15603087D01*
X44437889Y15603077D01*
X44350826Y15478738D01*
X44287110Y15423050D01*
X44204813Y15403351D01*
X44122788Y15424154D01*
X44061174Y15478738D01*
X43974110Y15603077D01*
X43974102Y15603087D01*
X43807088Y15770101D01*
X43807077Y15770110D01*
X43613577Y15905602D01*
X43399491Y16005431D01*
X43399489Y16005432D01*
X43171317Y16066570D01*
X43113800Y16071602D01*
X43113800Y15201997D01*
X43001826Y15232000D01*
X42870174Y15232000D01*
X42758200Y15201997D01*
X42758200Y16071602D01*
X42700682Y16066570D01*
X42472510Y16005432D01*
X42258423Y15905602D01*
X42258417Y15905598D01*
X42064927Y15770115D01*
X42064913Y15770103D01*
X41897897Y15603087D01*
X41897889Y15603077D01*
X41810826Y15478738D01*
X41747110Y15423050D01*
X41664813Y15403351D01*
X41582788Y15424154D01*
X41521174Y15478738D01*
X41434110Y15603077D01*
X41434102Y15603087D01*
X41267088Y15770101D01*
X41267077Y15770110D01*
X41073577Y15905602D01*
X40859491Y16005431D01*
X40859489Y16005432D01*
X40631317Y16066570D01*
X40573800Y16071602D01*
X40573800Y15201997D01*
X40461826Y15232000D01*
X40330174Y15232000D01*
X40218200Y15201997D01*
X40218200Y16071602D01*
X40218199Y16071602D01*
X40160682Y16066570D01*
X39932510Y16005432D01*
X39718423Y15905602D01*
X39718417Y15905598D01*
X39524927Y15770115D01*
X39524918Y15770107D01*
X39460571Y15705760D01*
X39388152Y15661982D01*
X39303685Y15656873D01*
X39226518Y15691604D01*
X39174331Y15758217D01*
X39169901Y15768994D01*
X39149352Y15824090D01*
X39063189Y15939190D01*
X38948088Y16025354D01*
X38813374Y16075599D01*
X38753828Y16082000D01*
X38033800Y16082000D01*
X38033800Y15201997D01*
X37921826Y15232000D01*
X37790174Y15232000D01*
X37678200Y15201997D01*
X37678200Y16082000D01*
X36958172Y16082000D01*
X36898625Y16075599D01*
X36763911Y16025354D01*
X36648810Y15939190D01*
X36562646Y15824089D01*
X36512401Y15689375D01*
X36506000Y15629828D01*
X36506000Y14909800D01*
X37386004Y14909800D01*
X37356000Y14797826D01*
X37356000Y14666174D01*
X37386004Y14554200D01*
X36506000Y14554200D01*
X36506000Y13834173D01*
X11830752Y13834173D01*
X11908050Y13894337D01*
X12074786Y14075460D01*
X12209436Y14281557D01*
X12308327Y14507006D01*
X12368761Y14745657D01*
X12389091Y14991000D01*
X12368761Y15236343D01*
X12325343Y15407800D01*
X12308328Y15474991D01*
X12308327Y15474994D01*
X12209436Y15700443D01*
X12074786Y15906540D01*
X12074782Y15906544D01*
X12070786Y15912661D01*
X12072187Y15913577D01*
X12041569Y15982179D01*
X12046942Y16066631D01*
X12090947Y16138911D01*
X12125572Y16165684D01*
X12141098Y16174865D01*
X12254635Y16288402D01*
X12305360Y16374173D01*
X72818000Y16374173D01*
X72824401Y16314626D01*
X72874646Y16179912D01*
X72960810Y16064811D01*
X73075911Y15978647D01*
X73210625Y15928402D01*
X73270172Y15922000D01*
X73990200Y15922000D01*
X73990200Y16802004D01*
X74102174Y16772000D01*
X74233826Y16772000D01*
X74345800Y16802004D01*
X74345800Y15922000D01*
X75065828Y15922000D01*
X75125374Y15928402D01*
X75260088Y15978647D01*
X75375189Y16064811D01*
X75461353Y16179912D01*
X75511598Y16314626D01*
X75518000Y16374173D01*
X75518000Y16872173D01*
X87550000Y16872173D01*
X87556401Y16812626D01*
X87606646Y16677912D01*
X87692810Y16562811D01*
X87807910Y16476648D01*
X87863006Y16456099D01*
X87932912Y16408412D01*
X87972650Y16333701D01*
X87973116Y16249080D01*
X87934203Y16173936D01*
X87926240Y16165429D01*
X87861893Y16101082D01*
X87861885Y16101073D01*
X87726402Y15907583D01*
X87726398Y15907577D01*
X87626568Y15693490D01*
X87565429Y15465318D01*
X87560398Y15407801D01*
X87560399Y15407800D01*
X88430004Y15407800D01*
X88400000Y15295826D01*
X88400000Y15164174D01*
X88430004Y15052200D01*
X87560398Y15052200D01*
X87565429Y14994683D01*
X87626568Y14766511D01*
X87626569Y14766509D01*
X87726398Y14552423D01*
X87861890Y14358923D01*
X87861899Y14358912D01*
X88028911Y14191900D01*
X88028922Y14191890D01*
X88153262Y14104826D01*
X88208950Y14041110D01*
X88228649Y13958812D01*
X88207846Y13876787D01*
X88153262Y13815174D01*
X88028923Y13728111D01*
X88028913Y13728103D01*
X87861897Y13561087D01*
X87861885Y13561073D01*
X87726402Y13367583D01*
X87726398Y13367577D01*
X87626568Y13153490D01*
X87565429Y12925318D01*
X87560398Y12867801D01*
X87560399Y12867800D01*
X88430004Y12867800D01*
X88400000Y12755826D01*
X88400000Y12624174D01*
X88430004Y12512200D01*
X87560398Y12512200D01*
X87565429Y12454683D01*
X87626568Y12226511D01*
X87626569Y12226509D01*
X87726398Y12012423D01*
X87861890Y11818923D01*
X87861899Y11818912D01*
X88028911Y11651900D01*
X88028922Y11651890D01*
X88153262Y11564826D01*
X88208950Y11501110D01*
X88228649Y11418812D01*
X88207846Y11336787D01*
X88153262Y11275174D01*
X88028923Y11188111D01*
X88028913Y11188103D01*
X87861897Y11021087D01*
X87861885Y11021073D01*
X87726402Y10827583D01*
X87726398Y10827577D01*
X87626568Y10613490D01*
X87565429Y10385318D01*
X87560398Y10327801D01*
X87560399Y10327800D01*
X88430004Y10327800D01*
X88400000Y10215826D01*
X88400000Y10084174D01*
X88430004Y9972200D01*
X87560398Y9972200D01*
X87565429Y9914683D01*
X87626568Y9686511D01*
X87626569Y9686509D01*
X87726398Y9472423D01*
X87861890Y9278923D01*
X87861899Y9278912D01*
X88028911Y9111900D01*
X88028922Y9111891D01*
X88222422Y8976399D01*
X88436508Y8876570D01*
X88436510Y8876569D01*
X88664683Y8815430D01*
X88664681Y8815430D01*
X88722199Y8810399D01*
X88722200Y8810399D01*
X88722200Y9680004D01*
X88834174Y9650000D01*
X88965826Y9650000D01*
X89077800Y9680004D01*
X89077800Y8810399D01*
X89135317Y8815430D01*
X89363489Y8876569D01*
X89363491Y8876570D01*
X89577577Y8976399D01*
X89771077Y9111891D01*
X89771088Y9111900D01*
X89938100Y9278912D01*
X89938109Y9278923D01*
X90073601Y9472423D01*
X90173430Y9686509D01*
X90173431Y9686511D01*
X90234570Y9914683D01*
X90239601Y9972200D01*
X89369996Y9972200D01*
X89400000Y10084174D01*
X89400000Y10215826D01*
X89369996Y10327800D01*
X90239601Y10327800D01*
X90239601Y10327801D01*
X90234570Y10385318D01*
X90173431Y10613490D01*
X90073601Y10827577D01*
X90073597Y10827583D01*
X89938114Y11021073D01*
X89938102Y11021087D01*
X89771088Y11188101D01*
X89771072Y11188115D01*
X89646738Y11275174D01*
X89591049Y11338890D01*
X89571350Y11421187D01*
X89592152Y11503212D01*
X89646738Y11564826D01*
X89771072Y11651886D01*
X89771088Y11651900D01*
X89938100Y11818912D01*
X89938109Y11818923D01*
X90073601Y12012423D01*
X90173430Y12226509D01*
X90173431Y12226511D01*
X90234570Y12454683D01*
X90239601Y12512200D01*
X89369996Y12512200D01*
X89400000Y12624174D01*
X89400000Y12755826D01*
X89369996Y12867800D01*
X90239601Y12867800D01*
X90239601Y12867801D01*
X90234570Y12925318D01*
X90173431Y13153490D01*
X90073601Y13367577D01*
X90073597Y13367583D01*
X89938114Y13561073D01*
X89938102Y13561087D01*
X89771088Y13728101D01*
X89771072Y13728115D01*
X89646738Y13815174D01*
X89591049Y13878890D01*
X89571350Y13961187D01*
X89592152Y14043212D01*
X89646738Y14104826D01*
X89771072Y14191886D01*
X89771088Y14191900D01*
X89938100Y14358912D01*
X89938109Y14358923D01*
X90073601Y14552423D01*
X90173430Y14766509D01*
X90173431Y14766511D01*
X90234570Y14994683D01*
X90239601Y15052200D01*
X89369996Y15052200D01*
X89400000Y15164174D01*
X89400000Y15295826D01*
X89369996Y15407800D01*
X90239601Y15407800D01*
X90239601Y15407801D01*
X90234570Y15465318D01*
X90173431Y15693490D01*
X90073601Y15907577D01*
X90073597Y15907583D01*
X89938114Y16101073D01*
X89938102Y16101087D01*
X89873760Y16165429D01*
X89829981Y16237846D01*
X89824872Y16322314D01*
X89859602Y16399481D01*
X89926215Y16451669D01*
X89936994Y16456099D01*
X89992089Y16476648D01*
X90107189Y16562811D01*
X90193353Y16677912D01*
X90243598Y16812626D01*
X90250000Y16872173D01*
X90250000Y17592200D01*
X89369996Y17592200D01*
X89400000Y17704174D01*
X89400000Y17835826D01*
X89369996Y17947800D01*
X90250000Y17947800D01*
X90250000Y18667828D01*
X90243598Y18727375D01*
X90240754Y18734999D01*
X94509409Y18734999D01*
X94529738Y18489659D01*
X94529739Y18489654D01*
X94590171Y18251010D01*
X94590173Y18251006D01*
X94689064Y18025557D01*
X94823714Y17819460D01*
X94990450Y17638337D01*
X94990454Y17638334D01*
X94990453Y17638334D01*
X95087227Y17563012D01*
X95184724Y17487127D01*
X95184726Y17487126D01*
X95184730Y17487123D01*
X95310700Y17418953D01*
X95401236Y17369957D01*
X95401239Y17369956D01*
X95634074Y17290023D01*
X95634078Y17290023D01*
X95634082Y17290021D01*
X95876908Y17249500D01*
X95876912Y17249500D01*
X96123088Y17249500D01*
X96123092Y17249500D01*
X96365918Y17290021D01*
X96365924Y17290023D01*
X96365925Y17290023D01*
X96505169Y17337826D01*
X96598764Y17369957D01*
X96815276Y17487127D01*
X97009550Y17638337D01*
X97176286Y17819460D01*
X97310936Y18025557D01*
X97409827Y18251006D01*
X97470261Y18489657D01*
X97490591Y18735000D01*
X97490409Y18737191D01*
X97470261Y18980342D01*
X97470260Y18980347D01*
X97409828Y19218991D01*
X97407256Y19224855D01*
X97310936Y19444443D01*
X97176286Y19650540D01*
X97094035Y19739888D01*
X97053289Y19814050D01*
X97051674Y19898657D01*
X97089563Y19974323D01*
X97118160Y20001164D01*
X97207189Y20067811D01*
X97293353Y20182912D01*
X97343598Y20317626D01*
X97350000Y20377173D01*
X97350000Y21097200D01*
X96469996Y21097200D01*
X96500000Y21209174D01*
X96500000Y21340826D01*
X96469996Y21452800D01*
X97350000Y21452800D01*
X97350000Y22172828D01*
X97343598Y22232375D01*
X97293353Y22367089D01*
X97207189Y22482190D01*
X97092088Y22568354D01*
X96957374Y22618599D01*
X96897828Y22625000D01*
X96177800Y22625000D01*
X96177800Y21744997D01*
X96065826Y21775000D01*
X95934174Y21775000D01*
X95822200Y21744997D01*
X95822200Y22625000D01*
X95102172Y22625000D01*
X95042625Y22618599D01*
X94907911Y22568354D01*
X94792810Y22482190D01*
X94706646Y22367089D01*
X94656401Y22232375D01*
X94650000Y22172828D01*
X94650000Y21452800D01*
X95530004Y21452800D01*
X95500000Y21340826D01*
X95500000Y21209174D01*
X95530004Y21097200D01*
X94650000Y21097200D01*
X94650000Y20377173D01*
X94656401Y20317626D01*
X94706646Y20182912D01*
X94792809Y20067813D01*
X94881840Y20001164D01*
X94935478Y19935713D01*
X94952555Y19852832D01*
X94929160Y19771508D01*
X94905962Y19739886D01*
X94823718Y19650545D01*
X94823717Y19650545D01*
X94689067Y19444449D01*
X94590171Y19218991D01*
X94529739Y18980347D01*
X94529738Y18980342D01*
X94509409Y18735002D01*
X94509409Y18734999D01*
X90240754Y18734999D01*
X90193353Y18862089D01*
X90107189Y18977190D01*
X89992088Y19063354D01*
X89857374Y19113599D01*
X89797828Y19120000D01*
X89077800Y19120000D01*
X89077800Y18239997D01*
X88965826Y18270000D01*
X88834174Y18270000D01*
X88722200Y18239997D01*
X88722200Y19120000D01*
X88002172Y19120000D01*
X87942625Y19113599D01*
X87807911Y19063354D01*
X87692810Y18977190D01*
X87606646Y18862089D01*
X87556401Y18727375D01*
X87550000Y18667828D01*
X87550000Y17947800D01*
X88430004Y17947800D01*
X88400000Y17835826D01*
X88400000Y17704174D01*
X88430004Y17592200D01*
X87550000Y17592200D01*
X87550000Y16872173D01*
X75518000Y16872173D01*
X75518000Y17094200D01*
X74637996Y17094200D01*
X74668000Y17206174D01*
X74668000Y17337826D01*
X74637996Y17449800D01*
X75518000Y17449800D01*
X75518000Y18169828D01*
X75511598Y18229375D01*
X75461353Y18364089D01*
X75375189Y18479190D01*
X75260088Y18565354D01*
X75125374Y18615599D01*
X75065828Y18622000D01*
X74345800Y18622000D01*
X74345800Y17741997D01*
X74233826Y17772000D01*
X74102174Y17772000D01*
X73990200Y17741997D01*
X73990200Y18622000D01*
X73270172Y18622000D01*
X73210625Y18615599D01*
X73075911Y18565354D01*
X72960810Y18479190D01*
X72874646Y18364089D01*
X72824401Y18229375D01*
X72818000Y18169828D01*
X72818000Y17449800D01*
X73698004Y17449800D01*
X73668000Y17337826D01*
X73668000Y17206174D01*
X73698004Y17094200D01*
X72818000Y17094200D01*
X72818000Y16374173D01*
X12305360Y16374173D01*
X12336369Y16426607D01*
X12381165Y16580796D01*
X12384000Y16616819D01*
X12383999Y18445180D01*
X12383999Y18445181D01*
X12383999Y18445189D01*
X12381165Y18481201D01*
X12381165Y18481204D01*
X12336370Y18635390D01*
X12336369Y18635391D01*
X12336369Y18635393D01*
X12254635Y18773598D01*
X12254633Y18773600D01*
X12254632Y18773602D01*
X12232235Y18795999D01*
X22689580Y18795999D01*
X22709225Y18558915D01*
X22767624Y18328301D01*
X22767624Y18328300D01*
X22767626Y18328296D01*
X22863188Y18110436D01*
X22993306Y17911276D01*
X22993309Y17911273D01*
X22993315Y17911264D01*
X23154427Y17736252D01*
X23154439Y17736241D01*
X23342165Y17590129D01*
X23342170Y17590126D01*
X23366412Y17577007D01*
X23551390Y17476902D01*
X23776398Y17399656D01*
X24011051Y17360500D01*
X24011055Y17360500D01*
X24248945Y17360500D01*
X24248949Y17360500D01*
X24483602Y17399656D01*
X24708610Y17476902D01*
X24917835Y17590129D01*
X25105570Y17736249D01*
X25182171Y17819460D01*
X25266684Y17911264D01*
X25266686Y17911269D01*
X25266694Y17911276D01*
X25396812Y18110436D01*
X25492374Y18328296D01*
X25550775Y18558915D01*
X25570420Y18796000D01*
X25550775Y19033085D01*
X25492374Y19263704D01*
X25396812Y19481564D01*
X25266694Y19680724D01*
X25266689Y19680730D01*
X25266684Y19680737D01*
X25105572Y19855749D01*
X25105560Y19855760D01*
X25016524Y19925059D01*
X41841104Y19925059D01*
X41859946Y19709698D01*
X41859947Y19709694D01*
X41915897Y19500882D01*
X41915898Y19500880D01*
X42007260Y19304952D01*
X42038117Y19260884D01*
X42131260Y19127863D01*
X42131264Y19127859D01*
X42131269Y19127853D01*
X42284115Y18975007D01*
X42284120Y18975003D01*
X42284126Y18974997D01*
X42420369Y18879599D01*
X42461214Y18850998D01*
X42559178Y18805317D01*
X42657143Y18759635D01*
X42865961Y18703683D01*
X43062480Y18686490D01*
X43081322Y18684841D01*
X43081323Y18684841D01*
X43081324Y18684841D01*
X43098650Y18686357D01*
X43296685Y18703683D01*
X43505503Y18759635D01*
X43701433Y18850999D01*
X43788838Y18912202D01*
X43867752Y18942738D01*
X43951824Y18933103D01*
X44015259Y18892390D01*
X44088721Y18818928D01*
X44088723Y18818927D01*
X44088725Y18818925D01*
X44226930Y18737191D01*
X44381119Y18692395D01*
X44417142Y18689560D01*
X45745503Y18689561D01*
X45745511Y18689561D01*
X45769519Y18691451D01*
X45781527Y18692395D01*
X45935716Y18737191D01*
X46073921Y18818925D01*
X46187458Y18932462D01*
X46269192Y19070667D01*
X46313988Y19224856D01*
X46316823Y19260879D01*
X46316822Y19963812D01*
X81202121Y19963812D01*
X81204955Y19927800D01*
X81204955Y19927797D01*
X81249750Y19773611D01*
X81249751Y19773609D01*
X81249752Y19773607D01*
X81331486Y19635402D01*
X81331488Y19635399D01*
X81445019Y19521868D01*
X81445021Y19521867D01*
X81445023Y19521865D01*
X81583228Y19440131D01*
X81737417Y19395335D01*
X81773440Y19392500D01*
X83501801Y19392501D01*
X83501809Y19392501D01*
X83525817Y19394391D01*
X83537825Y19395335D01*
X83692014Y19440131D01*
X83830219Y19521865D01*
X83943756Y19635402D01*
X84025490Y19773607D01*
X84025491Y19773611D01*
X84031151Y19783181D01*
X84034383Y19781270D01*
X84072545Y19831568D01*
X84149163Y19867491D01*
X84233700Y19863694D01*
X84292175Y19832328D01*
X84292482Y19832766D01*
X84296160Y19830191D01*
X84297371Y19829541D01*
X84298799Y19828343D01*
X84485139Y19697865D01*
X84691293Y19601734D01*
X84911011Y19542861D01*
X84911016Y19542860D01*
X85137619Y19523034D01*
X85137623Y19523034D01*
X85364225Y19542860D01*
X85364230Y19542861D01*
X85583948Y19601734D01*
X85790102Y19697866D01*
X85790107Y19697868D01*
X85923147Y19791026D01*
X85923148Y19791026D01*
X85265909Y20448265D01*
X85292015Y20455259D01*
X85383227Y20507920D01*
X85457701Y20582394D01*
X85510362Y20673606D01*
X85517356Y20699711D01*
X86174594Y20042473D01*
X86174595Y20042474D01*
X86267753Y20175514D01*
X86267755Y20175519D01*
X86363887Y20381673D01*
X86422760Y20601391D01*
X86422761Y20601396D01*
X86442587Y20827998D01*
X86442587Y20828003D01*
X86422761Y21054605D01*
X86422760Y21054610D01*
X86363887Y21274328D01*
X86267756Y21480480D01*
X86174594Y21613528D01*
X85517356Y20956290D01*
X85510362Y20982394D01*
X85457701Y21073606D01*
X85383227Y21148080D01*
X85292015Y21200741D01*
X85265909Y21207736D01*
X85923148Y21864975D01*
X85790100Y21958136D01*
X85583948Y22054267D01*
X85364230Y22113140D01*
X85364225Y22113141D01*
X85137623Y22132966D01*
X85137619Y22132966D01*
X84911016Y22113141D01*
X84911011Y22113140D01*
X84691293Y22054267D01*
X84485140Y21958136D01*
X84485139Y21958136D01*
X84298791Y21827653D01*
X84297360Y21826451D01*
X84296410Y21825985D01*
X84292482Y21823234D01*
X84292053Y21823846D01*
X84221399Y21789158D01*
X84136807Y21791438D01*
X84062965Y21832768D01*
X84033709Y21874332D01*
X84031151Y21872819D01*
X84025490Y21882390D01*
X84025490Y21882393D01*
X83943756Y22020598D01*
X83943754Y22020600D01*
X83943753Y22020602D01*
X83830222Y22134133D01*
X83804789Y22149174D01*
X83692014Y22215869D01*
X83692010Y22215870D01*
X83692009Y22215871D01*
X83537826Y22260665D01*
X83531821Y22261138D01*
X83501802Y22263500D01*
X83501797Y22263500D01*
X81773432Y22263500D01*
X81737420Y22260666D01*
X81737417Y22260666D01*
X81583231Y22215871D01*
X81445019Y22134133D01*
X81331488Y22020602D01*
X81249750Y21882390D01*
X81249750Y21882388D01*
X81204956Y21728206D01*
X81202121Y21692177D01*
X81202121Y19963812D01*
X46316822Y19963812D01*
X46316822Y20589240D01*
X46316822Y20589249D01*
X46313988Y20625261D01*
X46313988Y20625264D01*
X46269193Y20779450D01*
X46269192Y20779451D01*
X46269192Y20779453D01*
X46187458Y20917658D01*
X46187456Y20917660D01*
X46187455Y20917662D01*
X46073924Y21031193D01*
X46073921Y21031195D01*
X45935716Y21112929D01*
X45935712Y21112930D01*
X45935711Y21112931D01*
X45781528Y21157725D01*
X45775523Y21158198D01*
X45745504Y21160560D01*
X45745499Y21160560D01*
X44417134Y21160560D01*
X44381122Y21157726D01*
X44381119Y21157726D01*
X44226933Y21112931D01*
X44088723Y21031194D01*
X44015259Y20957730D01*
X43942841Y20913952D01*
X43858373Y20908843D01*
X43788834Y20937922D01*
X43701439Y20999118D01*
X43701431Y20999123D01*
X43505503Y21090485D01*
X43505501Y21090486D01*
X43296689Y21146436D01*
X43296685Y21146437D01*
X43081324Y21165279D01*
X43081322Y21165279D01*
X42865960Y21146437D01*
X42865956Y21146436D01*
X42657144Y21090486D01*
X42657142Y21090485D01*
X42461215Y20999123D01*
X42461209Y20999119D01*
X42284131Y20875128D01*
X42284117Y20875116D01*
X42131267Y20722266D01*
X42131255Y20722252D01*
X42007264Y20545174D01*
X42007260Y20545168D01*
X41915898Y20349241D01*
X41915897Y20349239D01*
X41859947Y20140427D01*
X41859946Y20140423D01*
X41841104Y19925062D01*
X41841104Y19925059D01*
X25016524Y19925059D01*
X24917834Y20001872D01*
X24917829Y20001875D01*
X24708608Y20115099D01*
X24483606Y20192343D01*
X24483603Y20192344D01*
X24483602Y20192344D01*
X24248949Y20231500D01*
X24011051Y20231500D01*
X23776398Y20192344D01*
X23776397Y20192344D01*
X23776393Y20192343D01*
X23551391Y20115099D01*
X23342170Y20001875D01*
X23342165Y20001872D01*
X23154439Y19855760D01*
X23154427Y19855749D01*
X22993315Y19680737D01*
X22993309Y19680728D01*
X22993307Y19680726D01*
X22993306Y19680724D01*
X22973586Y19650540D01*
X22863191Y19481570D01*
X22863189Y19481566D01*
X22863188Y19481564D01*
X22829753Y19405342D01*
X22767624Y19263701D01*
X22767624Y19263700D01*
X22709225Y19033086D01*
X22689580Y18796002D01*
X22689580Y18795999D01*
X12232235Y18795999D01*
X12141101Y18887133D01*
X12132212Y18892390D01*
X12002893Y18968869D01*
X12002889Y18968870D01*
X12002888Y18968871D01*
X11848705Y19013665D01*
X11842700Y19014138D01*
X11812681Y19016500D01*
X11812676Y19016500D01*
X9984311Y19016500D01*
X9948299Y19013666D01*
X9948296Y19013666D01*
X9794110Y18968871D01*
X9655898Y18887133D01*
X9542367Y18773602D01*
X9460629Y18635390D01*
X9460629Y18635388D01*
X9415835Y18481206D01*
X9413000Y18445177D01*
X9413000Y16616812D01*
X9415834Y16580800D01*
X9415834Y16580797D01*
X9460629Y16426611D01*
X9460630Y16426609D01*
X9460631Y16426607D01*
X9522310Y16322314D01*
X9542367Y16288399D01*
X9655899Y16174867D01*
X9671426Y16165684D01*
X9731838Y16106428D01*
X9757793Y16025885D01*
X9743345Y15942505D01*
X9725747Y15912966D01*
X9726214Y15912661D01*
X9722217Y15906544D01*
X9722214Y15906540D01*
X9721599Y15905598D01*
X9587567Y15700449D01*
X9587565Y15700445D01*
X9587564Y15700443D01*
X9556708Y15630099D01*
X9488671Y15474991D01*
X9428239Y15236347D01*
X9428238Y15236342D01*
X9407909Y14991002D01*
X9407909Y14990999D01*
X0Y14990999D01*
X0Y22102019D01*
X26089500Y22102019D01*
X26124844Y21878864D01*
X26124846Y21878858D01*
X26124847Y21878853D01*
X26153250Y21791438D01*
X26194670Y21663958D01*
X26246937Y21561378D01*
X26297250Y21462634D01*
X26365935Y21368098D01*
X26430063Y21279833D01*
X26430070Y21279825D01*
X26589824Y21120071D01*
X26589832Y21120064D01*
X26589834Y21120062D01*
X26772634Y20987250D01*
X26973959Y20884670D01*
X27188853Y20814847D01*
X27188860Y20814846D01*
X27188863Y20814845D01*
X27412018Y20779501D01*
X27412023Y20779500D01*
X27412024Y20779500D01*
X28437977Y20779500D01*
X28437978Y20779501D01*
X28537657Y20795289D01*
X28661136Y20814845D01*
X28661137Y20814846D01*
X28661147Y20814847D01*
X28876041Y20884670D01*
X29077366Y20987250D01*
X29260166Y21120062D01*
X29419938Y21279834D01*
X29552750Y21462634D01*
X29655330Y21663959D01*
X29725153Y21878853D01*
X29729769Y21907993D01*
X29760499Y22102019D01*
X29760500Y22102023D01*
X29760500Y22327977D01*
X29760499Y22327982D01*
X29725155Y22551137D01*
X29725154Y22551140D01*
X29725153Y22551147D01*
X29655330Y22766041D01*
X29552750Y22967366D01*
X29419938Y23150166D01*
X29419936Y23150168D01*
X29419929Y23150176D01*
X29260175Y23309930D01*
X29260169Y23309935D01*
X29260166Y23309938D01*
X29216080Y23341969D01*
X29161515Y23406643D01*
X29143255Y23489271D01*
X29165485Y23570921D01*
X29216080Y23628032D01*
X29260166Y23660062D01*
X29419938Y23819834D01*
X29552750Y24002634D01*
X29655330Y24203959D01*
X29725153Y24418853D01*
X29760499Y24642019D01*
X33709500Y24642019D01*
X33744844Y24418864D01*
X33744846Y24418858D01*
X33744847Y24418853D01*
X33769266Y24343700D01*
X33814670Y24203958D01*
X33917251Y24002633D01*
X34050063Y23819833D01*
X34050070Y23819825D01*
X34209824Y23660071D01*
X34209838Y23660059D01*
X34369179Y23544291D01*
X34423747Y23479613D01*
X34442007Y23396985D01*
X34419777Y23315335D01*
X34369181Y23258224D01*
X34298108Y23206586D01*
X34298097Y23206577D01*
X34153423Y23061903D01*
X34153416Y23061895D01*
X34033140Y22896350D01*
X34033138Y22896347D01*
X33940246Y22714035D01*
X33940243Y22714029D01*
X33877008Y22519412D01*
X33856955Y22392802D01*
X33856956Y22392800D01*
X35075004Y22392800D01*
X35045000Y22280826D01*
X35045000Y22149174D01*
X35075004Y22037200D01*
X33856956Y22037200D01*
X33856955Y22037199D01*
X33877008Y21910589D01*
X33940243Y21715972D01*
X33940246Y21715966D01*
X34033138Y21533654D01*
X34033140Y21533651D01*
X34153416Y21368106D01*
X34153423Y21368098D01*
X34298097Y21223424D01*
X34298105Y21223417D01*
X34463650Y21103141D01*
X34463653Y21103139D01*
X34645965Y21010247D01*
X34645971Y21010244D01*
X34840589Y20947009D01*
X35042683Y20915001D01*
X35042688Y20915000D01*
X35367200Y20915000D01*
X35367200Y21745004D01*
X35479174Y21715000D01*
X35610826Y21715000D01*
X35722800Y21745004D01*
X35722800Y20915000D01*
X36047312Y20915000D01*
X36047316Y20915001D01*
X36249410Y20947009D01*
X36444028Y21010244D01*
X36444034Y21010247D01*
X36626346Y21103139D01*
X36626349Y21103141D01*
X36791894Y21223417D01*
X36791902Y21223424D01*
X36936576Y21368098D01*
X36936583Y21368106D01*
X37056859Y21533651D01*
X37056861Y21533654D01*
X37149753Y21715966D01*
X37149756Y21715972D01*
X37212991Y21910589D01*
X37233044Y22037199D01*
X37233044Y22037200D01*
X36014996Y22037200D01*
X36032365Y22102019D01*
X64824500Y22102019D01*
X64859844Y21878864D01*
X64859846Y21878858D01*
X64859847Y21878853D01*
X64888250Y21791438D01*
X64929670Y21663958D01*
X64981937Y21561378D01*
X65032250Y21462634D01*
X65100935Y21368098D01*
X65165063Y21279833D01*
X65165070Y21279825D01*
X65324824Y21120071D01*
X65324832Y21120064D01*
X65324834Y21120062D01*
X65507634Y20987250D01*
X65708959Y20884670D01*
X65923853Y20814847D01*
X65923860Y20814846D01*
X65923863Y20814845D01*
X66147018Y20779501D01*
X66147023Y20779500D01*
X66147024Y20779500D01*
X67172977Y20779500D01*
X67172978Y20779501D01*
X67272657Y20795289D01*
X67396136Y20814845D01*
X67396137Y20814846D01*
X67396147Y20814847D01*
X67611041Y20884670D01*
X67812366Y20987250D01*
X67995166Y21120062D01*
X68154938Y21279834D01*
X68287750Y21462634D01*
X68390330Y21663959D01*
X68460153Y21878853D01*
X68464769Y21907993D01*
X68495499Y22102019D01*
X72444500Y22102019D01*
X72479844Y21878864D01*
X72479846Y21878858D01*
X72479847Y21878853D01*
X72508250Y21791438D01*
X72549670Y21663958D01*
X72601937Y21561378D01*
X72652250Y21462634D01*
X72720935Y21368098D01*
X72785063Y21279833D01*
X72785070Y21279825D01*
X72944824Y21120071D01*
X72944832Y21120064D01*
X72944834Y21120062D01*
X73127634Y20987250D01*
X73328959Y20884670D01*
X73543853Y20814847D01*
X73543860Y20814846D01*
X73543863Y20814845D01*
X73767018Y20779501D01*
X73767023Y20779500D01*
X73767024Y20779500D01*
X74792977Y20779500D01*
X74792978Y20779501D01*
X74892657Y20795289D01*
X75016136Y20814845D01*
X75016137Y20814846D01*
X75016147Y20814847D01*
X75231041Y20884670D01*
X75432366Y20987250D01*
X75615166Y21120062D01*
X75774938Y21279834D01*
X75907750Y21462634D01*
X76010330Y21663959D01*
X76080153Y21878853D01*
X76084769Y21907993D01*
X76115499Y22102019D01*
X76115500Y22102023D01*
X76115500Y22327977D01*
X76115499Y22327982D01*
X76080155Y22551137D01*
X76080154Y22551140D01*
X76080153Y22551147D01*
X76010330Y22766041D01*
X75907750Y22967366D01*
X75774938Y23150166D01*
X75774936Y23150168D01*
X75774929Y23150176D01*
X75615175Y23309930D01*
X75615169Y23309935D01*
X75615166Y23309938D01*
X75571080Y23341969D01*
X75516515Y23406643D01*
X75498255Y23489271D01*
X75520485Y23570921D01*
X75571080Y23628032D01*
X75615166Y23660062D01*
X75774938Y23819834D01*
X75907750Y24002634D01*
X76010330Y24203959D01*
X76080153Y24418853D01*
X76115500Y24642024D01*
X76115500Y24867976D01*
X76104766Y24935749D01*
X76080155Y25091137D01*
X76080154Y25091140D01*
X76080153Y25091147D01*
X76010330Y25306041D01*
X75907750Y25507366D01*
X75774938Y25690166D01*
X75774936Y25690168D01*
X75774929Y25690176D01*
X75615175Y25849930D01*
X75615169Y25849935D01*
X75615166Y25849938D01*
X75571080Y25881969D01*
X75516515Y25946643D01*
X75498255Y26029271D01*
X75520485Y26110921D01*
X75571080Y26168032D01*
X75615166Y26200062D01*
X75774938Y26359834D01*
X75907750Y26542634D01*
X76010330Y26743959D01*
X76080153Y26958853D01*
X76115500Y27182024D01*
X76115500Y27182999D01*
X77757409Y27182999D01*
X77777738Y26937659D01*
X77777739Y26937654D01*
X77838171Y26699010D01*
X77854608Y26661538D01*
X77937064Y26473557D01*
X78071714Y26267460D01*
X78238450Y26086337D01*
X78238454Y26086334D01*
X78238453Y26086334D01*
X78322745Y26020727D01*
X78432724Y25935127D01*
X78432726Y25935126D01*
X78432730Y25935123D01*
X78530957Y25881966D01*
X78649236Y25817957D01*
X78649239Y25817956D01*
X78882074Y25738023D01*
X78882078Y25738023D01*
X78882082Y25738021D01*
X79124908Y25697500D01*
X79124912Y25697500D01*
X79371088Y25697500D01*
X79371092Y25697500D01*
X79613918Y25738021D01*
X79613924Y25738023D01*
X79613925Y25738023D01*
X79743257Y25782423D01*
X79846764Y25817957D01*
X80063276Y25935127D01*
X80257550Y26086337D01*
X80424286Y26267460D01*
X80558936Y26473557D01*
X80657827Y26699006D01*
X80718261Y26937657D01*
X80738591Y27183000D01*
X80718261Y27428343D01*
X80696443Y27514501D01*
X80657828Y27666991D01*
X80657827Y27666994D01*
X80558936Y27892443D01*
X80432602Y28085812D01*
X94514500Y28085812D01*
X94517334Y28049800D01*
X94517334Y28049797D01*
X94562129Y27895611D01*
X94562130Y27895609D01*
X94562131Y27895607D01*
X94583217Y27859953D01*
X94643867Y27757399D01*
X94757399Y27643867D01*
X94757401Y27643866D01*
X94757402Y27643865D01*
X94892550Y27563939D01*
X94952961Y27504686D01*
X94978917Y27424143D01*
X94964469Y27340763D01*
X94947377Y27310353D01*
X94826402Y27137583D01*
X94826398Y27137577D01*
X94726568Y26923490D01*
X94665429Y26695318D01*
X94660398Y26637801D01*
X94660399Y26637800D01*
X95530004Y26637800D01*
X95500000Y26525826D01*
X95500000Y26394174D01*
X95530004Y26282200D01*
X94660398Y26282200D01*
X94665429Y26224683D01*
X94726568Y25996511D01*
X94726569Y25996509D01*
X94826398Y25782423D01*
X94961890Y25588923D01*
X94961899Y25588912D01*
X95128911Y25421900D01*
X95128922Y25421891D01*
X95322422Y25286399D01*
X95536508Y25186570D01*
X95536510Y25186569D01*
X95764683Y25125430D01*
X95764681Y25125430D01*
X95822199Y25120399D01*
X95822200Y25120399D01*
X95822200Y25990004D01*
X95934174Y25960000D01*
X96065826Y25960000D01*
X96177800Y25990004D01*
X96177800Y25120399D01*
X96235317Y25125430D01*
X96463489Y25186569D01*
X96463491Y25186570D01*
X96677577Y25286399D01*
X96871077Y25421891D01*
X96871088Y25421900D01*
X97038100Y25588912D01*
X97038109Y25588923D01*
X97173601Y25782423D01*
X97273430Y25996509D01*
X97273431Y25996511D01*
X97334570Y26224683D01*
X97339601Y26282200D01*
X96469996Y26282200D01*
X96500000Y26394174D01*
X96500000Y26525826D01*
X96469996Y26637800D01*
X97339601Y26637800D01*
X97339601Y26637801D01*
X97334570Y26695318D01*
X97273431Y26923490D01*
X97173601Y27137577D01*
X97173597Y27137583D01*
X97052622Y27310353D01*
X97022084Y27389272D01*
X97031720Y27473344D01*
X97079322Y27543308D01*
X97107440Y27563934D01*
X97242598Y27643865D01*
X97356135Y27757402D01*
X97437869Y27895607D01*
X97482665Y28049796D01*
X97485500Y28085819D01*
X97485499Y29914180D01*
X97485499Y29914181D01*
X97485499Y29914189D01*
X97482665Y29950201D01*
X97482665Y29950204D01*
X97437870Y30104390D01*
X97437869Y30104391D01*
X97437869Y30104393D01*
X97356135Y30242598D01*
X97356133Y30242600D01*
X97356132Y30242602D01*
X97242601Y30356133D01*
X97242598Y30356135D01*
X97104393Y30437869D01*
X97104389Y30437870D01*
X97104388Y30437871D01*
X96950205Y30482665D01*
X96944200Y30483138D01*
X96914181Y30485500D01*
X96914176Y30485500D01*
X95085811Y30485500D01*
X95049799Y30482666D01*
X95049796Y30482666D01*
X94895610Y30437871D01*
X94757398Y30356133D01*
X94643867Y30242602D01*
X94562129Y30104390D01*
X94562129Y30104388D01*
X94517335Y29950206D01*
X94514500Y29914177D01*
X94514500Y28085812D01*
X80432602Y28085812D01*
X80424286Y28098540D01*
X80424282Y28098544D01*
X80420286Y28104661D01*
X80421687Y28105577D01*
X80391069Y28174179D01*
X80396442Y28258631D01*
X80440447Y28330911D01*
X80475072Y28357684D01*
X80490598Y28366865D01*
X80604135Y28480402D01*
X80685869Y28618607D01*
X80730665Y28772796D01*
X80733500Y28808819D01*
X80733499Y30637180D01*
X80733499Y30637181D01*
X80733499Y30637189D01*
X80730665Y30673201D01*
X80730665Y30673204D01*
X80685870Y30827390D01*
X80685869Y30827391D01*
X80685869Y30827393D01*
X80604135Y30965598D01*
X80604133Y30965600D01*
X80604132Y30965602D01*
X80490601Y31079133D01*
X80490598Y31079135D01*
X80352393Y31160869D01*
X80352389Y31160870D01*
X80352388Y31160871D01*
X80198205Y31205665D01*
X80192200Y31206138D01*
X80162181Y31208500D01*
X80162176Y31208500D01*
X78333811Y31208500D01*
X78297799Y31205666D01*
X78297796Y31205666D01*
X78143610Y31160871D01*
X78005398Y31079133D01*
X77891867Y30965602D01*
X77810129Y30827390D01*
X77810129Y30827388D01*
X77765335Y30673206D01*
X77762500Y30637177D01*
X77762500Y28808812D01*
X77765334Y28772800D01*
X77765334Y28772797D01*
X77810129Y28618611D01*
X77810130Y28618609D01*
X77810131Y28618607D01*
X77863203Y28528867D01*
X77891867Y28480399D01*
X78005399Y28366867D01*
X78020926Y28357684D01*
X78081338Y28298428D01*
X78107293Y28217885D01*
X78092845Y28134505D01*
X78075247Y28104966D01*
X78075714Y28104661D01*
X78071717Y28098544D01*
X78071714Y28098540D01*
X78005356Y27996973D01*
X77937067Y27892449D01*
X77838171Y27666991D01*
X77777739Y27428347D01*
X77777738Y27428342D01*
X77757409Y27183002D01*
X77757409Y27182999D01*
X76115500Y27182999D01*
X76115500Y27407976D01*
X76098179Y27517335D01*
X76080155Y27631137D01*
X76080154Y27631140D01*
X76080153Y27631147D01*
X76010330Y27846041D01*
X75907750Y28047366D01*
X75774938Y28230166D01*
X75774936Y28230168D01*
X75774929Y28230176D01*
X75615175Y28389930D01*
X75615169Y28389935D01*
X75615166Y28389938D01*
X75571080Y28421969D01*
X75516515Y28486643D01*
X75498255Y28569271D01*
X75520485Y28650921D01*
X75571080Y28708032D01*
X75615166Y28740062D01*
X75774938Y28899834D01*
X75907750Y29082634D01*
X76010330Y29283959D01*
X76080153Y29498853D01*
X76115500Y29722024D01*
X76115500Y29947976D01*
X76090727Y30104388D01*
X76080155Y30171137D01*
X76080154Y30171140D01*
X76080153Y30171147D01*
X76010330Y30386041D01*
X75907750Y30587366D01*
X75774938Y30770166D01*
X75774936Y30770168D01*
X75774929Y30770176D01*
X75615175Y30929930D01*
X75615167Y30929937D01*
X75566079Y30965602D01*
X75432366Y31062750D01*
X75333622Y31113063D01*
X75231042Y31165330D01*
X75157504Y31189224D01*
X75016147Y31235153D01*
X75016143Y31235154D01*
X75016142Y31235154D01*
X75016136Y31235156D01*
X74792981Y31270500D01*
X74792976Y31270500D01*
X73767024Y31270500D01*
X73767018Y31270500D01*
X73543863Y31235156D01*
X73543857Y31235154D01*
X73543854Y31235154D01*
X73543853Y31235153D01*
X73506053Y31222871D01*
X73328957Y31165330D01*
X73127632Y31062749D01*
X72944832Y30929937D01*
X72944824Y30929930D01*
X72785070Y30770176D01*
X72785063Y30770168D01*
X72652251Y30587368D01*
X72549670Y30386043D01*
X72479846Y30171143D01*
X72479844Y30171137D01*
X72444500Y29947982D01*
X72444500Y29722019D01*
X72479844Y29498864D01*
X72479846Y29498858D01*
X72479847Y29498853D01*
X72525776Y29357496D01*
X72549670Y29283958D01*
X72601937Y29181378D01*
X72652250Y29082634D01*
X72759662Y28934795D01*
X72785063Y28899833D01*
X72785070Y28899825D01*
X72944824Y28740071D01*
X72944830Y28740066D01*
X72944834Y28740062D01*
X72988917Y28708034D01*
X73043485Y28643355D01*
X73061744Y28560727D01*
X73039513Y28479077D01*
X72988917Y28421967D01*
X72976357Y28412842D01*
X72944832Y28389937D01*
X72944824Y28389930D01*
X72785070Y28230176D01*
X72785063Y28230168D01*
X72652251Y28047368D01*
X72549670Y27846043D01*
X72501883Y27698968D01*
X72483980Y27643865D01*
X72479846Y27631143D01*
X72479844Y27631137D01*
X72444500Y27407982D01*
X72444500Y27182019D01*
X72479844Y26958864D01*
X72479846Y26958858D01*
X72479847Y26958853D01*
X72511934Y26860099D01*
X72549670Y26743958D01*
X72596019Y26652993D01*
X72652250Y26542634D01*
X72702438Y26473557D01*
X72785063Y26359833D01*
X72785070Y26359825D01*
X72944824Y26200071D01*
X72944830Y26200066D01*
X72944834Y26200062D01*
X72988917Y26168034D01*
X73043485Y26103355D01*
X73061744Y26020727D01*
X73039513Y25939077D01*
X72988917Y25881967D01*
X72976357Y25872842D01*
X72944832Y25849937D01*
X72944824Y25849930D01*
X72785070Y25690176D01*
X72785063Y25690168D01*
X72652251Y25507368D01*
X72549670Y25306043D01*
X72479846Y25091143D01*
X72479844Y25091137D01*
X72444500Y24867982D01*
X72444500Y24642019D01*
X72479844Y24418864D01*
X72479846Y24418858D01*
X72479847Y24418853D01*
X72504266Y24343700D01*
X72549670Y24203958D01*
X72652251Y24002633D01*
X72785063Y23819833D01*
X72785070Y23819825D01*
X72944824Y23660071D01*
X72944830Y23660066D01*
X72944834Y23660062D01*
X72988917Y23628034D01*
X73043485Y23563355D01*
X73061744Y23480727D01*
X73039513Y23399077D01*
X72988917Y23341967D01*
X72976357Y23332842D01*
X72944832Y23309937D01*
X72944824Y23309930D01*
X72785070Y23150176D01*
X72785063Y23150168D01*
X72652251Y22967368D01*
X72549670Y22766043D01*
X72479846Y22551143D01*
X72479844Y22551137D01*
X72444500Y22327982D01*
X72444500Y22102019D01*
X68495499Y22102019D01*
X68495500Y22102023D01*
X68495500Y22327977D01*
X68495499Y22327982D01*
X68460155Y22551137D01*
X68460154Y22551140D01*
X68460153Y22551147D01*
X68390330Y22766041D01*
X68287750Y22967366D01*
X68154938Y23150166D01*
X68154936Y23150168D01*
X68154929Y23150176D01*
X67995175Y23309930D01*
X67995169Y23309935D01*
X67995166Y23309938D01*
X67951080Y23341969D01*
X67896515Y23406643D01*
X67878255Y23489271D01*
X67900485Y23570921D01*
X67951080Y23628032D01*
X67995166Y23660062D01*
X68154938Y23819834D01*
X68287750Y24002634D01*
X68390330Y24203959D01*
X68460153Y24418853D01*
X68495500Y24642024D01*
X68495500Y24867976D01*
X68484766Y24935749D01*
X68460155Y25091137D01*
X68460154Y25091140D01*
X68460153Y25091147D01*
X68390330Y25306041D01*
X68287750Y25507366D01*
X68154938Y25690166D01*
X68154936Y25690168D01*
X68154929Y25690176D01*
X67995175Y25849930D01*
X67995169Y25849935D01*
X67995166Y25849938D01*
X67951080Y25881969D01*
X67896515Y25946643D01*
X67878255Y26029271D01*
X67900485Y26110921D01*
X67951080Y26168032D01*
X67995166Y26200062D01*
X68154938Y26359834D01*
X68287750Y26542634D01*
X68390330Y26743959D01*
X68460153Y26958853D01*
X68495500Y27182024D01*
X68495500Y27407976D01*
X68478179Y27517335D01*
X68460155Y27631137D01*
X68460154Y27631140D01*
X68460153Y27631147D01*
X68390330Y27846041D01*
X68287750Y28047366D01*
X68154938Y28230166D01*
X68154932Y28230172D01*
X68154816Y28230308D01*
X68154775Y28230390D01*
X68150855Y28235785D01*
X68151742Y28236430D01*
X68116851Y28305935D01*
X68118380Y28390543D01*
X68159054Y28464749D01*
X68199249Y28497315D01*
X68252598Y28528865D01*
X68366135Y28642402D01*
X68447869Y28780607D01*
X68492665Y28934796D01*
X68495500Y28970819D01*
X68495499Y30699180D01*
X68495499Y30699181D01*
X68495499Y30699189D01*
X68492665Y30735201D01*
X68492665Y30735204D01*
X68447870Y30889390D01*
X68447869Y30889391D01*
X68447869Y30889393D01*
X68366135Y31027598D01*
X68366133Y31027600D01*
X68366132Y31027602D01*
X68252601Y31141133D01*
X68252598Y31141135D01*
X68114393Y31222869D01*
X68114389Y31222870D01*
X68114388Y31222871D01*
X67960205Y31267665D01*
X67954200Y31268138D01*
X67924181Y31270500D01*
X67924176Y31270500D01*
X65395811Y31270500D01*
X65359799Y31267666D01*
X65359796Y31267666D01*
X65205610Y31222871D01*
X65067398Y31141133D01*
X64953867Y31027602D01*
X64872129Y30889390D01*
X64872129Y30889388D01*
X64827335Y30735206D01*
X64824500Y30699177D01*
X64824500Y28970812D01*
X64827334Y28934800D01*
X64827334Y28934797D01*
X64872129Y28780611D01*
X64872130Y28780609D01*
X64872131Y28780607D01*
X64953865Y28642402D01*
X64953867Y28642399D01*
X65067399Y28528867D01*
X65067401Y28528866D01*
X65067402Y28528865D01*
X65120747Y28497317D01*
X65181159Y28438063D01*
X65207115Y28357520D01*
X65192667Y28274140D01*
X65168785Y28236047D01*
X65169145Y28235785D01*
X65165328Y28230533D01*
X65165205Y28230335D01*
X65165073Y28230181D01*
X65032251Y28047368D01*
X64929670Y27846043D01*
X64881883Y27698968D01*
X64863980Y27643865D01*
X64859846Y27631143D01*
X64859844Y27631137D01*
X64824500Y27407982D01*
X64824500Y27182019D01*
X64859844Y26958864D01*
X64859846Y26958858D01*
X64859847Y26958853D01*
X64891934Y26860099D01*
X64929670Y26743958D01*
X64976019Y26652993D01*
X65032250Y26542634D01*
X65082438Y26473557D01*
X65165063Y26359833D01*
X65165070Y26359825D01*
X65324824Y26200071D01*
X65324830Y26200066D01*
X65324834Y26200062D01*
X65368917Y26168034D01*
X65423485Y26103355D01*
X65441744Y26020727D01*
X65419513Y25939077D01*
X65368917Y25881967D01*
X65356357Y25872842D01*
X65324832Y25849937D01*
X65324824Y25849930D01*
X65165070Y25690176D01*
X65165063Y25690168D01*
X65032251Y25507368D01*
X64929670Y25306043D01*
X64859846Y25091143D01*
X64859844Y25091137D01*
X64824500Y24867982D01*
X64824500Y24642019D01*
X64859844Y24418864D01*
X64859846Y24418858D01*
X64859847Y24418853D01*
X64884266Y24343700D01*
X64929670Y24203958D01*
X65032251Y24002633D01*
X65165063Y23819833D01*
X65165070Y23819825D01*
X65324824Y23660071D01*
X65324830Y23660066D01*
X65324834Y23660062D01*
X65368917Y23628034D01*
X65423485Y23563355D01*
X65441744Y23480727D01*
X65419513Y23399077D01*
X65368917Y23341967D01*
X65356357Y23332842D01*
X65324832Y23309937D01*
X65324824Y23309930D01*
X65165070Y23150176D01*
X65165063Y23150168D01*
X65032251Y22967368D01*
X64929670Y22766043D01*
X64859846Y22551143D01*
X64859844Y22551137D01*
X64824500Y22327982D01*
X64824500Y22102019D01*
X36032365Y22102019D01*
X36045000Y22149174D01*
X36045000Y22280826D01*
X36014996Y22392800D01*
X37233044Y22392800D01*
X37233044Y22392802D01*
X37212991Y22519412D01*
X37149756Y22714029D01*
X37149753Y22714035D01*
X37056861Y22896347D01*
X37056859Y22896350D01*
X36936583Y23061895D01*
X36936576Y23061903D01*
X36791902Y23206577D01*
X36791894Y23206584D01*
X36720819Y23258223D01*
X36666252Y23322901D01*
X36647992Y23405530D01*
X36670223Y23487179D01*
X36720815Y23544288D01*
X36880166Y23660062D01*
X37039938Y23819834D01*
X37172750Y24002634D01*
X37275330Y24203959D01*
X37345153Y24418853D01*
X37380500Y24642024D01*
X37380500Y24704546D01*
X40220809Y24704546D01*
X40239771Y24463597D01*
X40268557Y24343700D01*
X40296194Y24228583D01*
X40296195Y24228581D01*
X40388683Y24005294D01*
X40388684Y24005292D01*
X40388686Y24005288D01*
X40502332Y23819834D01*
X40514969Y23799213D01*
X40514972Y23799209D01*
X40671936Y23615426D01*
X40732904Y23563355D01*
X40855722Y23458459D01*
X41061799Y23332175D01*
X41285094Y23239683D01*
X41455987Y23198656D01*
X41520107Y23183261D01*
X41552875Y23180683D01*
X41761057Y23164298D01*
X41984426Y23181878D01*
X42002006Y23183261D01*
X42034065Y23190959D01*
X42237020Y23239683D01*
X42460315Y23332175D01*
X42666392Y23458459D01*
X42850177Y23615426D01*
X43007144Y23799211D01*
X43133428Y24005288D01*
X43225920Y24228583D01*
X43282342Y24463598D01*
X43301305Y24704546D01*
X45220809Y24704546D01*
X45239771Y24463597D01*
X45268557Y24343700D01*
X45296194Y24228583D01*
X45296195Y24228581D01*
X45388683Y24005294D01*
X45388684Y24005292D01*
X45388686Y24005288D01*
X45502332Y23819834D01*
X45514969Y23799213D01*
X45514972Y23799209D01*
X45671936Y23615426D01*
X45732904Y23563355D01*
X45855722Y23458459D01*
X46061799Y23332175D01*
X46285094Y23239683D01*
X46455987Y23198656D01*
X46520107Y23183261D01*
X46552875Y23180683D01*
X46761057Y23164298D01*
X46984426Y23181878D01*
X47002006Y23183261D01*
X47034065Y23190959D01*
X47237020Y23239683D01*
X47460315Y23332175D01*
X47666392Y23458459D01*
X47850177Y23615426D01*
X48007144Y23799211D01*
X48133428Y24005288D01*
X48225920Y24228583D01*
X48282342Y24463598D01*
X48301305Y24704546D01*
X48282342Y24945494D01*
X48225920Y25180509D01*
X48133428Y25403804D01*
X48007144Y25609881D01*
X47938566Y25690176D01*
X47850177Y25793667D01*
X47679922Y25939077D01*
X47666392Y25950633D01*
X47460315Y26076917D01*
X47460311Y26076919D01*
X47460309Y26076920D01*
X47276652Y26152993D01*
X47237020Y26169409D01*
X47167603Y26186075D01*
X47002006Y26225832D01*
X46761057Y26244794D01*
X46520107Y26225832D01*
X46322450Y26178378D01*
X46285094Y26169409D01*
X46285092Y26169409D01*
X46285091Y26169408D01*
X46061804Y26076920D01*
X45855723Y25950634D01*
X45855719Y25950631D01*
X45671936Y25793667D01*
X45514972Y25609884D01*
X45514969Y25609880D01*
X45388683Y25403799D01*
X45296195Y25180512D01*
X45239771Y24945496D01*
X45220809Y24704546D01*
X43301305Y24704546D01*
X43282342Y24945494D01*
X43225920Y25180509D01*
X43133428Y25403804D01*
X43007144Y25609881D01*
X42938566Y25690176D01*
X42850177Y25793667D01*
X42679922Y25939077D01*
X42666392Y25950633D01*
X42460315Y26076917D01*
X42460311Y26076919D01*
X42460309Y26076920D01*
X42276652Y26152993D01*
X42237020Y26169409D01*
X42167603Y26186075D01*
X42002006Y26225832D01*
X41761057Y26244794D01*
X41520107Y26225832D01*
X41322450Y26178378D01*
X41285094Y26169409D01*
X41285092Y26169409D01*
X41285091Y26169408D01*
X41061804Y26076920D01*
X40855723Y25950634D01*
X40855719Y25950631D01*
X40671936Y25793667D01*
X40514972Y25609884D01*
X40514969Y25609880D01*
X40388683Y25403799D01*
X40296195Y25180512D01*
X40239771Y24945496D01*
X40220809Y24704546D01*
X37380500Y24704546D01*
X37380500Y24867976D01*
X37369766Y24935749D01*
X37345155Y25091137D01*
X37345154Y25091140D01*
X37345153Y25091147D01*
X37275330Y25306041D01*
X37172750Y25507366D01*
X37039938Y25690166D01*
X37039936Y25690168D01*
X37039929Y25690176D01*
X36880175Y25849930D01*
X36880169Y25849935D01*
X36880166Y25849938D01*
X36836080Y25881969D01*
X36781515Y25946643D01*
X36763255Y26029271D01*
X36785485Y26110921D01*
X36836080Y26168032D01*
X36880166Y26200062D01*
X37039938Y26359834D01*
X37172750Y26542634D01*
X37275330Y26743959D01*
X37345153Y26958853D01*
X37380500Y27182024D01*
X37380500Y27407976D01*
X37363179Y27517335D01*
X37345155Y27631137D01*
X37345154Y27631140D01*
X37345153Y27631147D01*
X37275330Y27846041D01*
X37172750Y28047366D01*
X37039938Y28230166D01*
X37039936Y28230168D01*
X37039929Y28230176D01*
X36880175Y28389930D01*
X36880169Y28389935D01*
X36880166Y28389938D01*
X36836080Y28421969D01*
X36781515Y28486643D01*
X36763255Y28569271D01*
X36785485Y28650921D01*
X36836080Y28708032D01*
X36880166Y28740062D01*
X37039938Y28899834D01*
X37172750Y29082634D01*
X37275330Y29283959D01*
X37345153Y29498853D01*
X37380500Y29722024D01*
X37380500Y29947976D01*
X37355727Y30104388D01*
X37345155Y30171137D01*
X37345154Y30171140D01*
X37345153Y30171147D01*
X37275330Y30386041D01*
X37172750Y30587366D01*
X37039938Y30770166D01*
X37039936Y30770168D01*
X37039929Y30770176D01*
X36880175Y30929930D01*
X36880167Y30929937D01*
X36831079Y30965602D01*
X36697366Y31062750D01*
X36598622Y31113063D01*
X36496042Y31165330D01*
X36422504Y31189224D01*
X36281147Y31235153D01*
X36281143Y31235154D01*
X36281142Y31235154D01*
X36281136Y31235156D01*
X36057981Y31270500D01*
X36057976Y31270500D01*
X35032024Y31270500D01*
X35032018Y31270500D01*
X34808863Y31235156D01*
X34808857Y31235154D01*
X34808854Y31235154D01*
X34808853Y31235153D01*
X34771053Y31222871D01*
X34593957Y31165330D01*
X34392632Y31062749D01*
X34209832Y30929937D01*
X34209824Y30929930D01*
X34050070Y30770176D01*
X34050063Y30770168D01*
X33917251Y30587368D01*
X33814670Y30386043D01*
X33744846Y30171143D01*
X33744844Y30171137D01*
X33709500Y29947982D01*
X33709500Y29722019D01*
X33744844Y29498864D01*
X33744846Y29498858D01*
X33744847Y29498853D01*
X33790776Y29357496D01*
X33814670Y29283958D01*
X33866937Y29181378D01*
X33917250Y29082634D01*
X34024662Y28934795D01*
X34050063Y28899833D01*
X34050070Y28899825D01*
X34209824Y28740071D01*
X34209830Y28740066D01*
X34209834Y28740062D01*
X34253917Y28708034D01*
X34308485Y28643355D01*
X34326744Y28560727D01*
X34304513Y28479077D01*
X34253917Y28421967D01*
X34241357Y28412842D01*
X34209832Y28389937D01*
X34209824Y28389930D01*
X34050070Y28230176D01*
X34050063Y28230168D01*
X33917251Y28047368D01*
X33814670Y27846043D01*
X33766883Y27698968D01*
X33748980Y27643865D01*
X33744846Y27631143D01*
X33744844Y27631137D01*
X33709500Y27407982D01*
X33709500Y27182019D01*
X33744844Y26958864D01*
X33744846Y26958858D01*
X33744847Y26958853D01*
X33776934Y26860099D01*
X33814670Y26743958D01*
X33861019Y26652993D01*
X33917250Y26542634D01*
X33967438Y26473557D01*
X34050063Y26359833D01*
X34050070Y26359825D01*
X34209824Y26200071D01*
X34209830Y26200066D01*
X34209834Y26200062D01*
X34253917Y26168034D01*
X34308485Y26103355D01*
X34326744Y26020727D01*
X34304513Y25939077D01*
X34253917Y25881967D01*
X34241357Y25872842D01*
X34209832Y25849937D01*
X34209824Y25849930D01*
X34050070Y25690176D01*
X34050063Y25690168D01*
X33917251Y25507368D01*
X33814670Y25306043D01*
X33744846Y25091143D01*
X33744844Y25091137D01*
X33709500Y24867982D01*
X33709500Y24642019D01*
X29760499Y24642019D01*
X29760500Y24642024D01*
X29760500Y24867976D01*
X29749766Y24935749D01*
X29725155Y25091137D01*
X29725154Y25091140D01*
X29725153Y25091147D01*
X29655330Y25306041D01*
X29552750Y25507366D01*
X29419938Y25690166D01*
X29419936Y25690168D01*
X29419929Y25690176D01*
X29260175Y25849930D01*
X29260169Y25849935D01*
X29260166Y25849938D01*
X29216080Y25881969D01*
X29161515Y25946643D01*
X29143255Y26029271D01*
X29165485Y26110921D01*
X29216080Y26168032D01*
X29260166Y26200062D01*
X29419938Y26359834D01*
X29552750Y26542634D01*
X29655330Y26743959D01*
X29725153Y26958853D01*
X29760500Y27182024D01*
X29760500Y27407976D01*
X29743179Y27517335D01*
X29725155Y27631137D01*
X29725154Y27631140D01*
X29725153Y27631147D01*
X29655330Y27846041D01*
X29552750Y28047366D01*
X29419938Y28230166D01*
X29419932Y28230172D01*
X29419816Y28230308D01*
X29419775Y28230390D01*
X29415855Y28235785D01*
X29416742Y28236430D01*
X29381851Y28305935D01*
X29383380Y28390543D01*
X29424054Y28464749D01*
X29464249Y28497315D01*
X29517598Y28528865D01*
X29631135Y28642402D01*
X29712869Y28780607D01*
X29757665Y28934796D01*
X29760500Y28970819D01*
X29760499Y30699180D01*
X29760499Y30699181D01*
X29760499Y30699189D01*
X29757665Y30735201D01*
X29757665Y30735204D01*
X29712870Y30889390D01*
X29712869Y30889391D01*
X29712869Y30889393D01*
X29631135Y31027598D01*
X29631133Y31027600D01*
X29631132Y31027602D01*
X29517601Y31141133D01*
X29517598Y31141135D01*
X29379393Y31222869D01*
X29379389Y31222870D01*
X29379388Y31222871D01*
X29225205Y31267665D01*
X29219200Y31268138D01*
X29189181Y31270500D01*
X29189176Y31270500D01*
X26660811Y31270500D01*
X26624799Y31267666D01*
X26624796Y31267666D01*
X26470610Y31222871D01*
X26332398Y31141133D01*
X26218867Y31027602D01*
X26137129Y30889390D01*
X26137129Y30889388D01*
X26092335Y30735206D01*
X26089500Y30699177D01*
X26089500Y28970812D01*
X26092334Y28934800D01*
X26092334Y28934797D01*
X26137129Y28780611D01*
X26137130Y28780609D01*
X26137131Y28780607D01*
X26218865Y28642402D01*
X26218867Y28642399D01*
X26332399Y28528867D01*
X26332401Y28528866D01*
X26332402Y28528865D01*
X26385747Y28497317D01*
X26446159Y28438063D01*
X26472115Y28357520D01*
X26457667Y28274140D01*
X26433785Y28236047D01*
X26434145Y28235785D01*
X26430328Y28230533D01*
X26430205Y28230335D01*
X26430073Y28230181D01*
X26297251Y28047368D01*
X26194670Y27846043D01*
X26146883Y27698968D01*
X26128980Y27643865D01*
X26124846Y27631143D01*
X26124844Y27631137D01*
X26089500Y27407982D01*
X26089500Y27182019D01*
X26124844Y26958864D01*
X26124846Y26958858D01*
X26124847Y26958853D01*
X26156934Y26860099D01*
X26194670Y26743958D01*
X26241019Y26652993D01*
X26297250Y26542634D01*
X26347438Y26473557D01*
X26430063Y26359833D01*
X26430070Y26359825D01*
X26589824Y26200071D01*
X26589830Y26200066D01*
X26589834Y26200062D01*
X26633917Y26168034D01*
X26688485Y26103355D01*
X26706744Y26020727D01*
X26684513Y25939077D01*
X26633917Y25881967D01*
X26621357Y25872842D01*
X26589832Y25849937D01*
X26589824Y25849930D01*
X26430070Y25690176D01*
X26430063Y25690168D01*
X26297251Y25507368D01*
X26194670Y25306043D01*
X26124846Y25091143D01*
X26124844Y25091137D01*
X26089500Y24867982D01*
X26089500Y24642019D01*
X26124844Y24418864D01*
X26124846Y24418858D01*
X26124847Y24418853D01*
X26149266Y24343700D01*
X26194670Y24203958D01*
X26297251Y24002633D01*
X26430063Y23819833D01*
X26430070Y23819825D01*
X26589824Y23660071D01*
X26589830Y23660066D01*
X26589834Y23660062D01*
X26633917Y23628034D01*
X26688485Y23563355D01*
X26706744Y23480727D01*
X26684513Y23399077D01*
X26633917Y23341967D01*
X26621357Y23332842D01*
X26589832Y23309937D01*
X26589824Y23309930D01*
X26430070Y23150176D01*
X26430063Y23150168D01*
X26297251Y22967368D01*
X26194670Y22766043D01*
X26124846Y22551143D01*
X26124844Y22551137D01*
X26089500Y22327982D01*
X26089500Y22102019D01*
X0Y22102019D01*
X0Y23875999D01*
X9712080Y23875999D01*
X9731725Y23638915D01*
X9790124Y23408301D01*
X9790124Y23408300D01*
X9790126Y23408296D01*
X9885688Y23190436D01*
X9885690Y23190433D01*
X9885691Y23190431D01*
X9902764Y23164299D01*
X10015806Y22991276D01*
X10015809Y22991273D01*
X10015815Y22991264D01*
X10176927Y22816252D01*
X10176939Y22816241D01*
X10364665Y22670129D01*
X10364670Y22670126D01*
X10438342Y22630257D01*
X10573890Y22556902D01*
X10798898Y22479656D01*
X11033551Y22440500D01*
X11033555Y22440500D01*
X11271445Y22440500D01*
X11271449Y22440500D01*
X11506102Y22479656D01*
X11731110Y22556902D01*
X11940335Y22670129D01*
X12128070Y22816249D01*
X12201808Y22896350D01*
X12289184Y22991264D01*
X12289186Y22991269D01*
X12289194Y22991276D01*
X12419312Y23190436D01*
X12514874Y23408296D01*
X12573275Y23638915D01*
X12592920Y23875999D01*
X22412080Y23875999D01*
X22431725Y23638915D01*
X22490124Y23408301D01*
X22490124Y23408300D01*
X22490126Y23408296D01*
X22585688Y23190436D01*
X22585690Y23190433D01*
X22585691Y23190431D01*
X22602764Y23164299D01*
X22715806Y22991276D01*
X22715809Y22991273D01*
X22715815Y22991264D01*
X22876927Y22816252D01*
X22876939Y22816241D01*
X23064665Y22670129D01*
X23064670Y22670126D01*
X23138342Y22630257D01*
X23273890Y22556902D01*
X23498898Y22479656D01*
X23733551Y22440500D01*
X23733555Y22440500D01*
X23971445Y22440500D01*
X23971449Y22440500D01*
X24206102Y22479656D01*
X24431110Y22556902D01*
X24640335Y22670129D01*
X24828070Y22816249D01*
X24901808Y22896350D01*
X24989184Y22991264D01*
X24989186Y22991269D01*
X24989194Y22991276D01*
X25119312Y23190436D01*
X25214874Y23408296D01*
X25273275Y23638915D01*
X25292920Y23876000D01*
X25273275Y24113085D01*
X25214874Y24343704D01*
X25119312Y24561564D01*
X24989194Y24760724D01*
X24989189Y24760730D01*
X24989184Y24760737D01*
X24828072Y24935749D01*
X24828060Y24935760D01*
X24640334Y25081872D01*
X24640329Y25081875D01*
X24431108Y25195099D01*
X24206106Y25272343D01*
X24206103Y25272344D01*
X24206102Y25272344D01*
X23971449Y25311500D01*
X23733551Y25311500D01*
X23498898Y25272344D01*
X23498897Y25272344D01*
X23498893Y25272343D01*
X23273891Y25195099D01*
X23064670Y25081875D01*
X23064665Y25081872D01*
X22876939Y24935760D01*
X22876927Y24935749D01*
X22715815Y24760737D01*
X22715809Y24760728D01*
X22585691Y24561570D01*
X22490124Y24343701D01*
X22490124Y24343700D01*
X22431725Y24113086D01*
X22412080Y23876002D01*
X22412080Y23875999D01*
X12592920Y23875999D01*
X12592920Y23876000D01*
X12573275Y24113085D01*
X12514874Y24343704D01*
X12419312Y24561564D01*
X12289194Y24760724D01*
X12289189Y24760730D01*
X12289184Y24760737D01*
X12128072Y24935749D01*
X12128060Y24935760D01*
X11940334Y25081872D01*
X11940329Y25081875D01*
X11731108Y25195099D01*
X11506106Y25272343D01*
X11506103Y25272344D01*
X11506102Y25272344D01*
X11271449Y25311500D01*
X11033551Y25311500D01*
X10798898Y25272344D01*
X10798897Y25272344D01*
X10798893Y25272343D01*
X10573891Y25195099D01*
X10364670Y25081875D01*
X10364665Y25081872D01*
X10176939Y24935760D01*
X10176927Y24935749D01*
X10015815Y24760737D01*
X10015809Y24760728D01*
X9885691Y24561570D01*
X9790124Y24343701D01*
X9790124Y24343700D01*
X9731725Y24113086D01*
X9712080Y23876002D01*
X9712080Y23875999D01*
X0Y23875999D01*
X0Y28097037D01*
X9702447Y28097037D01*
X9722092Y27859953D01*
X9780491Y27629339D01*
X9780491Y27629338D01*
X9780493Y27629334D01*
X9876055Y27411474D01*
X9876057Y27411471D01*
X9876058Y27411469D01*
X9878340Y27407976D01*
X10006173Y27212314D01*
X10006176Y27212311D01*
X10006182Y27212302D01*
X10167294Y27037290D01*
X10167306Y27037279D01*
X10355032Y26891167D01*
X10355037Y26891164D01*
X10428709Y26851295D01*
X10564257Y26777940D01*
X10789265Y26700694D01*
X11023918Y26661538D01*
X11023922Y26661538D01*
X11261812Y26661538D01*
X11261816Y26661538D01*
X11496469Y26700694D01*
X11721477Y26777940D01*
X11930702Y26891167D01*
X12118437Y27037287D01*
X12210766Y27137583D01*
X12279551Y27212302D01*
X12279553Y27212307D01*
X12279561Y27212314D01*
X12409679Y27411474D01*
X12505241Y27629334D01*
X12563642Y27859953D01*
X12582357Y28085819D01*
X12583287Y28097037D01*
X22402447Y28097037D01*
X22422092Y27859953D01*
X22480491Y27629339D01*
X22480491Y27629338D01*
X22480493Y27629334D01*
X22576055Y27411474D01*
X22576057Y27411471D01*
X22576058Y27411469D01*
X22578340Y27407976D01*
X22706173Y27212314D01*
X22706176Y27212311D01*
X22706182Y27212302D01*
X22867294Y27037290D01*
X22867306Y27037279D01*
X23055032Y26891167D01*
X23055037Y26891164D01*
X23128709Y26851295D01*
X23264257Y26777940D01*
X23489265Y26700694D01*
X23723918Y26661538D01*
X23723922Y26661538D01*
X23961812Y26661538D01*
X23961816Y26661538D01*
X24196469Y26700694D01*
X24421477Y26777940D01*
X24630702Y26891167D01*
X24818437Y27037287D01*
X24910766Y27137583D01*
X24979551Y27212302D01*
X24979553Y27212307D01*
X24979561Y27212314D01*
X25109679Y27411474D01*
X25205241Y27629334D01*
X25263642Y27859953D01*
X25282357Y28085819D01*
X25283287Y28097037D01*
X25283287Y28097040D01*
X25276895Y28174179D01*
X25263642Y28334123D01*
X25205241Y28564742D01*
X25109679Y28782602D01*
X24979561Y28981762D01*
X24979556Y28981768D01*
X24979551Y28981775D01*
X24818439Y29156787D01*
X24818427Y29156798D01*
X24630701Y29302910D01*
X24630696Y29302913D01*
X24421475Y29416137D01*
X24196473Y29493381D01*
X24196470Y29493382D01*
X24196469Y29493382D01*
X23961816Y29532538D01*
X23723918Y29532538D01*
X23489265Y29493382D01*
X23489264Y29493382D01*
X23489260Y29493381D01*
X23264258Y29416137D01*
X23055037Y29302913D01*
X23055032Y29302910D01*
X22867306Y29156798D01*
X22867294Y29156787D01*
X22706182Y28981775D01*
X22706176Y28981766D01*
X22706174Y28981764D01*
X22706173Y28981762D01*
X22699024Y28970819D01*
X22576058Y28782608D01*
X22576056Y28782604D01*
X22576055Y28782602D01*
X22557399Y28740071D01*
X22480491Y28564739D01*
X22480491Y28564738D01*
X22422092Y28334124D01*
X22402447Y28097040D01*
X22402447Y28097037D01*
X12583287Y28097037D01*
X12583287Y28097040D01*
X12576895Y28174179D01*
X12563642Y28334123D01*
X12505241Y28564742D01*
X12409679Y28782602D01*
X12279561Y28981762D01*
X12279556Y28981768D01*
X12279551Y28981775D01*
X12118439Y29156787D01*
X12118427Y29156798D01*
X11930701Y29302910D01*
X11930696Y29302913D01*
X11721475Y29416137D01*
X11496473Y29493381D01*
X11496470Y29493382D01*
X11496469Y29493382D01*
X11261816Y29532538D01*
X11023918Y29532538D01*
X10789265Y29493382D01*
X10789264Y29493382D01*
X10789260Y29493381D01*
X10564258Y29416137D01*
X10355037Y29302913D01*
X10355032Y29302910D01*
X10167306Y29156798D01*
X10167294Y29156787D01*
X10006182Y28981775D01*
X10006176Y28981766D01*
X10006174Y28981764D01*
X10006173Y28981762D01*
X9999024Y28970819D01*
X9876058Y28782608D01*
X9876056Y28782604D01*
X9876055Y28782602D01*
X9857399Y28740071D01*
X9780491Y28564739D01*
X9780491Y28564738D01*
X9722092Y28334124D01*
X9702447Y28097040D01*
X9702447Y28097037D01*
X0Y28097037D01*
X0Y34294999D01*
X9407909Y34294999D01*
X9428238Y34049659D01*
X9428239Y34049654D01*
X9488671Y33811010D01*
X9488673Y33811006D01*
X9587564Y33585557D01*
X9722214Y33379460D01*
X9888950Y33198337D01*
X9888954Y33198334D01*
X9888953Y33198334D01*
X9978027Y33129005D01*
X10083224Y33047127D01*
X10083226Y33047126D01*
X10083230Y33047123D01*
X10209200Y32978953D01*
X10299736Y32929957D01*
X10299739Y32929956D01*
X10532574Y32850023D01*
X10532578Y32850023D01*
X10532582Y32850021D01*
X10775408Y32809500D01*
X10775412Y32809500D01*
X11021588Y32809500D01*
X11021592Y32809500D01*
X11264418Y32850021D01*
X11264424Y32850023D01*
X11264425Y32850023D01*
X11385326Y32891529D01*
X11497264Y32929957D01*
X11713776Y33047127D01*
X11908050Y33198337D01*
X12074786Y33379460D01*
X12171831Y33527999D01*
X22689580Y33527999D01*
X22709225Y33290915D01*
X22767624Y33060301D01*
X22767624Y33060300D01*
X22767626Y33060296D01*
X22863188Y32842436D01*
X22993306Y32643276D01*
X22993309Y32643273D01*
X22993315Y32643264D01*
X23154427Y32468252D01*
X23154439Y32468241D01*
X23342165Y32322129D01*
X23342170Y32322126D01*
X23415842Y32282257D01*
X23551390Y32208902D01*
X23776398Y32131656D01*
X24011051Y32092500D01*
X24011055Y32092500D01*
X24248945Y32092500D01*
X24248949Y32092500D01*
X24483602Y32131656D01*
X24708610Y32208902D01*
X24917835Y32322129D01*
X25105570Y32468249D01*
X25173428Y32541964D01*
X25266684Y32643264D01*
X25266686Y32643269D01*
X25266694Y32643276D01*
X25396812Y32842436D01*
X25492374Y33060296D01*
X25550775Y33290915D01*
X25570420Y33528000D01*
X25550775Y33765085D01*
X25492374Y33995704D01*
X25396812Y34213564D01*
X25346874Y34289999D01*
X26599399Y34289999D01*
X26619766Y34057207D01*
X26619767Y34057203D01*
X26680248Y33831483D01*
X26779003Y33619701D01*
X26802915Y33585552D01*
X26913040Y33428278D01*
X26913044Y33428274D01*
X26913049Y33428268D01*
X27078267Y33263050D01*
X27078272Y33263046D01*
X27078278Y33263040D01*
X27225549Y33159919D01*
X27269700Y33129004D01*
X27481482Y33030249D01*
X27481483Y33030249D01*
X27481487Y33030247D01*
X27707207Y32969766D01*
X27919632Y32951181D01*
X27939999Y32949399D01*
X27940000Y32949399D01*
X27940001Y32949399D01*
X27958729Y32951038D01*
X28172793Y32969766D01*
X28398513Y33030247D01*
X28610301Y33129005D01*
X28801722Y33263040D01*
X28966960Y33428278D01*
X29100995Y33619699D01*
X29199753Y33831487D01*
X29260234Y34057207D01*
X29280601Y34289999D01*
X34219399Y34289999D01*
X34239766Y34057207D01*
X34239767Y34057203D01*
X34300248Y33831483D01*
X34399003Y33619701D01*
X34422915Y33585552D01*
X34533040Y33428278D01*
X34533044Y33428274D01*
X34533049Y33428268D01*
X34698267Y33263050D01*
X34698272Y33263046D01*
X34698278Y33263040D01*
X34845549Y33159919D01*
X34889700Y33129004D01*
X35101482Y33030249D01*
X35101483Y33030249D01*
X35101487Y33030247D01*
X35327207Y32969766D01*
X35539632Y32951181D01*
X35559999Y32949399D01*
X35560000Y32949399D01*
X35560001Y32949399D01*
X35578729Y32951038D01*
X35792793Y32969766D01*
X36018513Y33030247D01*
X36230301Y33129005D01*
X36421722Y33263040D01*
X36586960Y33428278D01*
X36720995Y33619699D01*
X36819753Y33831487D01*
X36880234Y34057207D01*
X36900601Y34290000D01*
X36900163Y34295002D01*
X36889864Y34412724D01*
X36880234Y34522793D01*
X36842888Y34662173D01*
X65706000Y34662173D01*
X65712401Y34602626D01*
X65762646Y34467912D01*
X65848810Y34352811D01*
X65963911Y34266647D01*
X66098625Y34216402D01*
X66158172Y34210000D01*
X66878200Y34210000D01*
X66878200Y35090004D01*
X66990174Y35060000D01*
X67121826Y35060000D01*
X67233800Y35090004D01*
X67233800Y34210000D01*
X67953828Y34210000D01*
X68013374Y34216402D01*
X68148088Y34266647D01*
X68263189Y34352811D01*
X68349353Y34467912D01*
X68399598Y34602626D01*
X68406000Y34662173D01*
X68406000Y35382200D01*
X67525996Y35382200D01*
X67556000Y35494174D01*
X67556000Y35625826D01*
X67525996Y35737800D01*
X68406000Y35737800D01*
X68406000Y36457828D01*
X68399598Y36517375D01*
X68349353Y36652089D01*
X68263189Y36767190D01*
X68148088Y36853354D01*
X68013374Y36903599D01*
X67953828Y36910000D01*
X67233800Y36910000D01*
X67233800Y36029997D01*
X67121826Y36060000D01*
X66990174Y36060000D01*
X66878200Y36029997D01*
X66878200Y36910000D01*
X66158172Y36910000D01*
X66098625Y36903599D01*
X65963911Y36853354D01*
X65848810Y36767190D01*
X65762646Y36652089D01*
X65712401Y36517375D01*
X65706000Y36457828D01*
X65706000Y35737800D01*
X66586004Y35737800D01*
X66556000Y35625826D01*
X66556000Y35494174D01*
X66586004Y35382200D01*
X65706000Y35382200D01*
X65706000Y34662173D01*
X36842888Y34662173D01*
X36819753Y34748513D01*
X36805539Y34778994D01*
X36720996Y34960298D01*
X36720992Y34960305D01*
X36586962Y35151720D01*
X36586959Y35151724D01*
X36421732Y35316951D01*
X36421726Y35316956D01*
X36421722Y35316960D01*
X36318599Y35389168D01*
X36230299Y35450997D01*
X36018517Y35549752D01*
X35792797Y35610233D01*
X35792793Y35610234D01*
X35560001Y35630601D01*
X35559999Y35630601D01*
X35327206Y35610234D01*
X35327202Y35610233D01*
X35101482Y35549752D01*
X34889702Y35450997D01*
X34889695Y35450993D01*
X34698280Y35316963D01*
X34698276Y35316960D01*
X34533040Y35151724D01*
X34533037Y35151720D01*
X34399007Y34960305D01*
X34399003Y34960298D01*
X34300248Y34748518D01*
X34239767Y34522798D01*
X34239766Y34522794D01*
X34219399Y34290002D01*
X34219399Y34289999D01*
X29280601Y34289999D01*
X29280601Y34290000D01*
X29280163Y34295002D01*
X29269864Y34412724D01*
X29260234Y34522793D01*
X29199753Y34748513D01*
X29185539Y34778994D01*
X29100996Y34960298D01*
X29100992Y34960305D01*
X28966962Y35151720D01*
X28966959Y35151724D01*
X28801732Y35316951D01*
X28801726Y35316956D01*
X28801722Y35316960D01*
X28698599Y35389168D01*
X28610299Y35450997D01*
X28398517Y35549752D01*
X28172797Y35610233D01*
X28172793Y35610234D01*
X27940001Y35630601D01*
X27939999Y35630601D01*
X27707206Y35610234D01*
X27707202Y35610233D01*
X27481482Y35549752D01*
X27269702Y35450997D01*
X27269695Y35450993D01*
X27078280Y35316963D01*
X27078276Y35316960D01*
X26913040Y35151724D01*
X26913037Y35151720D01*
X26779007Y34960305D01*
X26779003Y34960298D01*
X26680248Y34748518D01*
X26619767Y34522798D01*
X26619766Y34522794D01*
X26599399Y34290002D01*
X26599399Y34289999D01*
X25346874Y34289999D01*
X25266694Y34412724D01*
X25266689Y34412730D01*
X25266684Y34412737D01*
X25105572Y34587749D01*
X25105560Y34587760D01*
X24917834Y34733872D01*
X24917829Y34733875D01*
X24708608Y34847099D01*
X24483606Y34924343D01*
X24483603Y34924344D01*
X24483602Y34924344D01*
X24248949Y34963500D01*
X24011051Y34963500D01*
X23776398Y34924344D01*
X23776397Y34924344D01*
X23776393Y34924343D01*
X23551391Y34847099D01*
X23342170Y34733875D01*
X23342165Y34733872D01*
X23154439Y34587760D01*
X23154427Y34587749D01*
X22993315Y34412737D01*
X22993309Y34412728D01*
X22863191Y34213570D01*
X22767624Y33995701D01*
X22767624Y33995700D01*
X22709225Y33765086D01*
X22689580Y33528002D01*
X22689580Y33527999D01*
X12171831Y33527999D01*
X12209436Y33585557D01*
X12308327Y33811006D01*
X12368761Y34049657D01*
X12389091Y34295000D01*
X12368761Y34540343D01*
X12319754Y34733871D01*
X12308328Y34778991D01*
X12308327Y34778994D01*
X12209436Y35004443D01*
X12074786Y35210540D01*
X12074782Y35210544D01*
X12070786Y35216661D01*
X12072187Y35217577D01*
X12041569Y35286179D01*
X12046942Y35370631D01*
X12090947Y35442911D01*
X12125572Y35469684D01*
X12141098Y35478865D01*
X12254635Y35592402D01*
X12336369Y35730607D01*
X12381165Y35884796D01*
X12384000Y35920819D01*
X12383999Y37749180D01*
X12383999Y37749181D01*
X12383999Y37749189D01*
X12381165Y37785201D01*
X12381165Y37785204D01*
X12336370Y37939390D01*
X12336369Y37939391D01*
X12336369Y37939393D01*
X12254635Y38077598D01*
X12254633Y38077600D01*
X12254632Y38077602D01*
X12141101Y38191133D01*
X12141098Y38191135D01*
X12002893Y38272869D01*
X12002889Y38272870D01*
X12002888Y38272871D01*
X11848705Y38317665D01*
X11842700Y38318138D01*
X11812681Y38320500D01*
X11812676Y38320500D01*
X9984311Y38320500D01*
X9948299Y38317666D01*
X9948296Y38317666D01*
X9794110Y38272871D01*
X9655898Y38191133D01*
X9542367Y38077602D01*
X9460629Y37939390D01*
X9460629Y37939388D01*
X9415835Y37785206D01*
X9413000Y37749177D01*
X9413000Y35920812D01*
X9415834Y35884800D01*
X9415834Y35884797D01*
X9460629Y35730611D01*
X9542367Y35592399D01*
X9655899Y35478867D01*
X9671426Y35469684D01*
X9731838Y35410428D01*
X9757793Y35329885D01*
X9743345Y35246505D01*
X9725747Y35216966D01*
X9726214Y35216661D01*
X9722217Y35210544D01*
X9722214Y35210540D01*
X9683785Y35151720D01*
X9587567Y35004449D01*
X9488671Y34778991D01*
X9428239Y34540347D01*
X9428238Y34540342D01*
X9407909Y34295002D01*
X9407909Y34294999D01*
X0Y34294999D01*
X0Y38862000D01*
X49092287Y38862000D01*
X49111096Y38659012D01*
X49111097Y38659010D01*
X49166886Y38462933D01*
X49257752Y38280447D01*
X49257757Y38280438D01*
X49303462Y38219914D01*
X49303463Y38219914D01*
X49898913Y38815363D01*
X49917444Y38746204D01*
X49956940Y38677795D01*
X50012795Y38621940D01*
X50081204Y38582444D01*
X50150359Y38563915D01*
X49553251Y37966806D01*
X49704587Y37873102D01*
X49894678Y37799460D01*
X50095070Y37762000D01*
X50298930Y37762000D01*
X50499321Y37799460D01*
X50689412Y37873102D01*
X50828255Y37959070D01*
X50908772Y37985106D01*
X50992166Y37970741D01*
X51059332Y37919266D01*
X51073508Y37898751D01*
X51090866Y37869400D01*
X51204398Y37755868D01*
X51204400Y37755867D01*
X51204402Y37755865D01*
X51342607Y37674131D01*
X51496796Y37629335D01*
X51532819Y37626500D01*
X52861180Y37626501D01*
X52861188Y37626501D01*
X52885196Y37628391D01*
X52897204Y37629335D01*
X53051393Y37674131D01*
X53189598Y37755865D01*
X53303135Y37869402D01*
X53384869Y38007607D01*
X53429665Y38161796D01*
X53432500Y38197819D01*
X53432499Y39526180D01*
X53432499Y39526181D01*
X53432499Y39526189D01*
X53429665Y39562201D01*
X53429665Y39562204D01*
X53384870Y39716390D01*
X53384869Y39716391D01*
X53384869Y39716393D01*
X53303135Y39854598D01*
X53303133Y39854600D01*
X53303132Y39854602D01*
X53189601Y39968133D01*
X53189598Y39968135D01*
X53127264Y40004999D01*
X68359409Y40004999D01*
X68379738Y39759659D01*
X68379739Y39759654D01*
X68440171Y39521010D01*
X68440173Y39521006D01*
X68539064Y39295557D01*
X68673714Y39089460D01*
X68840450Y38908337D01*
X68840454Y38908334D01*
X68840453Y38908334D01*
X68901303Y38860973D01*
X69034724Y38757127D01*
X69034726Y38757126D01*
X69034730Y38757123D01*
X69160700Y38688953D01*
X69251236Y38639957D01*
X69251239Y38639956D01*
X69484074Y38560023D01*
X69484078Y38560023D01*
X69484082Y38560021D01*
X69726908Y38519500D01*
X69726912Y38519500D01*
X69973088Y38519500D01*
X69973092Y38519500D01*
X70215918Y38560021D01*
X70215924Y38560023D01*
X70215925Y38560023D01*
X70396282Y38621940D01*
X70448764Y38639957D01*
X70645092Y38746204D01*
X70665269Y38757123D01*
X70665269Y38757124D01*
X70665276Y38757127D01*
X70761302Y38831868D01*
X70838575Y38866350D01*
X70923026Y38860973D01*
X70995305Y38816965D01*
X71022072Y38782343D01*
X71033866Y38762401D01*
X71033866Y38762400D01*
X71147398Y38648868D01*
X71147400Y38648867D01*
X71147402Y38648865D01*
X71285607Y38567131D01*
X71439796Y38522335D01*
X71475819Y38519500D01*
X73304180Y38519501D01*
X73304188Y38519501D01*
X73328196Y38521391D01*
X73340204Y38522335D01*
X73494393Y38567131D01*
X73632598Y38648865D01*
X73746135Y38762402D01*
X73827869Y38900607D01*
X73872665Y39054796D01*
X73875500Y39090819D01*
X73875500Y40004999D01*
X81699409Y40004999D01*
X81719738Y39759659D01*
X81719739Y39759654D01*
X81780171Y39521010D01*
X81780173Y39521006D01*
X81879064Y39295557D01*
X82013714Y39089460D01*
X82180450Y38908337D01*
X82180454Y38908334D01*
X82180453Y38908334D01*
X82241303Y38860973D01*
X82374724Y38757127D01*
X82374726Y38757126D01*
X82374730Y38757123D01*
X82500700Y38688953D01*
X82591236Y38639957D01*
X82591239Y38639956D01*
X82824074Y38560023D01*
X82824078Y38560023D01*
X82824082Y38560021D01*
X83066908Y38519500D01*
X83066912Y38519500D01*
X83313088Y38519500D01*
X83313092Y38519500D01*
X83555918Y38560021D01*
X83555924Y38560023D01*
X83555925Y38560023D01*
X83736282Y38621940D01*
X83788764Y38639957D01*
X83985092Y38746204D01*
X84005269Y38757123D01*
X84005269Y38757124D01*
X84005276Y38757127D01*
X84101302Y38831868D01*
X84178575Y38866350D01*
X84263026Y38860973D01*
X84335305Y38816965D01*
X84362072Y38782343D01*
X84373866Y38762401D01*
X84373866Y38762400D01*
X84487398Y38648868D01*
X84487400Y38648867D01*
X84487402Y38648865D01*
X84625607Y38567131D01*
X84779796Y38522335D01*
X84815819Y38519500D01*
X86644180Y38519501D01*
X86644188Y38519501D01*
X86668196Y38521391D01*
X86680204Y38522335D01*
X86834393Y38567131D01*
X86972598Y38648865D01*
X87086135Y38762402D01*
X87167869Y38900607D01*
X87212665Y39054796D01*
X87215500Y39090819D01*
X87215499Y40919180D01*
X87215499Y40919189D01*
X87212665Y40955201D01*
X87212665Y40955204D01*
X87167870Y41109390D01*
X87167869Y41109391D01*
X87167869Y41109393D01*
X87086135Y41247598D01*
X87086133Y41247600D01*
X87086132Y41247602D01*
X86972601Y41361133D01*
X86957535Y41370043D01*
X86834393Y41442869D01*
X86834389Y41442870D01*
X86834388Y41442871D01*
X86680205Y41487665D01*
X86674200Y41488138D01*
X86644181Y41490500D01*
X86644176Y41490500D01*
X84815811Y41490500D01*
X84779799Y41487666D01*
X84779796Y41487666D01*
X84625610Y41442871D01*
X84487398Y41361133D01*
X84373867Y41247602D01*
X84362071Y41227655D01*
X84302815Y41167243D01*
X84222271Y41141289D01*
X84138892Y41155738D01*
X84101300Y41178135D01*
X84005275Y41252874D01*
X84005270Y41252877D01*
X83788762Y41370044D01*
X83788760Y41370045D01*
X83555925Y41449978D01*
X83507070Y41458131D01*
X83313092Y41490500D01*
X83066908Y41490500D01*
X82872929Y41458131D01*
X82824075Y41449978D01*
X82824074Y41449978D01*
X82591239Y41370045D01*
X82591237Y41370044D01*
X82374730Y41252878D01*
X82180454Y41101667D01*
X82180451Y41101664D01*
X82180450Y41101663D01*
X82013714Y40920540D01*
X81976863Y40864137D01*
X81879067Y40714449D01*
X81780171Y40488991D01*
X81719739Y40250347D01*
X81719738Y40250342D01*
X81699409Y40005002D01*
X81699409Y40004999D01*
X73875500Y40004999D01*
X73875499Y40919180D01*
X73875499Y40919189D01*
X73872665Y40955201D01*
X73872665Y40955204D01*
X73827870Y41109390D01*
X73827869Y41109391D01*
X73827869Y41109393D01*
X73746135Y41247598D01*
X73746133Y41247600D01*
X73746132Y41247602D01*
X73632601Y41361133D01*
X73617535Y41370043D01*
X73494393Y41442869D01*
X73494389Y41442870D01*
X73494388Y41442871D01*
X73340205Y41487665D01*
X73334200Y41488138D01*
X73304181Y41490500D01*
X73304176Y41490500D01*
X71475811Y41490500D01*
X71439799Y41487666D01*
X71439796Y41487666D01*
X71285610Y41442871D01*
X71147398Y41361133D01*
X71033867Y41247602D01*
X71022071Y41227655D01*
X70962815Y41167243D01*
X70882271Y41141289D01*
X70798892Y41155738D01*
X70761300Y41178135D01*
X70665275Y41252874D01*
X70665270Y41252877D01*
X70448762Y41370044D01*
X70448760Y41370045D01*
X70215925Y41449978D01*
X70167070Y41458131D01*
X69973092Y41490500D01*
X69726908Y41490500D01*
X69532929Y41458131D01*
X69484075Y41449978D01*
X69484074Y41449978D01*
X69251239Y41370045D01*
X69251237Y41370044D01*
X69034730Y41252878D01*
X68840454Y41101667D01*
X68840451Y41101664D01*
X68840450Y41101663D01*
X68673714Y40920540D01*
X68636863Y40864137D01*
X68539067Y40714449D01*
X68440171Y40488991D01*
X68379739Y40250347D01*
X68379738Y40250342D01*
X68359409Y40005002D01*
X68359409Y40004999D01*
X53127264Y40004999D01*
X53051393Y40049869D01*
X53051389Y40049870D01*
X53051388Y40049871D01*
X52897205Y40094665D01*
X52891200Y40095138D01*
X52861181Y40097500D01*
X52861176Y40097500D01*
X51532811Y40097500D01*
X51496799Y40094666D01*
X51496796Y40094666D01*
X51342610Y40049871D01*
X51204398Y39968133D01*
X51090866Y39854601D01*
X51090864Y39854598D01*
X51073507Y39825249D01*
X51014251Y39764837D01*
X50933707Y39738883D01*
X50850328Y39753332D01*
X50828255Y39764931D01*
X50689412Y39850899D01*
X50499321Y39924541D01*
X50298930Y39962000D01*
X50095070Y39962000D01*
X49894678Y39924541D01*
X49704584Y39850898D01*
X49553251Y39757197D01*
X50150360Y39160087D01*
X50081204Y39141556D01*
X50012795Y39102060D01*
X49956940Y39046205D01*
X49917444Y38977796D01*
X49898913Y38908640D01*
X49303464Y39504089D01*
X49257754Y39443557D01*
X49257752Y39443554D01*
X49166886Y39261068D01*
X49111097Y39064991D01*
X49111096Y39064989D01*
X49092287Y38862000D01*
X0Y38862000D01*
X0Y43298173D01*
X13123000Y43298173D01*
X13129401Y43238626D01*
X13179646Y43103912D01*
X13265810Y42988811D01*
X13380911Y42902647D01*
X13515625Y42852402D01*
X13575172Y42846000D01*
X14295200Y42846000D01*
X14295200Y43726004D01*
X14407174Y43696000D01*
X14538826Y43696000D01*
X14650800Y43726004D01*
X14650800Y42846000D01*
X15370828Y42846000D01*
X15430374Y42852402D01*
X15565088Y42902647D01*
X15680189Y42988811D01*
X15766352Y43103911D01*
X15786901Y43159006D01*
X15834587Y43228912D01*
X15909298Y43268651D01*
X15993919Y43269117D01*
X16069064Y43230205D01*
X16077571Y43222240D01*
X16141911Y43157900D01*
X16141922Y43157891D01*
X16335422Y43022399D01*
X16549508Y42922570D01*
X16549510Y42922569D01*
X16777683Y42861430D01*
X16777681Y42861430D01*
X16835199Y42856399D01*
X16835200Y42856399D01*
X16835200Y43726004D01*
X16947174Y43696000D01*
X17078826Y43696000D01*
X17190800Y43726004D01*
X17190800Y42856399D01*
X17248317Y42861430D01*
X17476489Y42922569D01*
X17476491Y42922570D01*
X17690577Y43022399D01*
X17884077Y43157891D01*
X17884088Y43157900D01*
X18051100Y43324912D01*
X18051109Y43324923D01*
X18186601Y43518423D01*
X18286430Y43732509D01*
X18286431Y43732511D01*
X18347570Y43960683D01*
X18352601Y44018200D01*
X17482996Y44018200D01*
X17513000Y44130174D01*
X17513000Y44261826D01*
X17482996Y44373800D01*
X18352601Y44373800D01*
X18352601Y44373801D01*
X18347570Y44431318D01*
X18286431Y44659490D01*
X18186601Y44873577D01*
X18186597Y44873583D01*
X18051114Y45067073D01*
X18051102Y45067087D01*
X17884088Y45234101D01*
X17884077Y45234110D01*
X17690577Y45369602D01*
X17476491Y45469431D01*
X17476489Y45469432D01*
X17248317Y45530570D01*
X17190800Y45535602D01*
X17190800Y44665997D01*
X17078826Y44696000D01*
X16947174Y44696000D01*
X16835200Y44665997D01*
X16835200Y45535602D01*
X16835199Y45535602D01*
X16777682Y45530570D01*
X16549510Y45469432D01*
X16335423Y45369602D01*
X16335417Y45369598D01*
X16141927Y45234115D01*
X16141918Y45234107D01*
X16077571Y45169760D01*
X16005152Y45125982D01*
X15920685Y45120873D01*
X15843518Y45155604D01*
X15791331Y45222217D01*
X15786901Y45232994D01*
X15766352Y45288090D01*
X15680189Y45403190D01*
X15565088Y45489354D01*
X15430374Y45539599D01*
X15370828Y45546000D01*
X14650800Y45546000D01*
X14650800Y44665997D01*
X14538826Y44696000D01*
X14407174Y44696000D01*
X14295200Y44665997D01*
X14295200Y45546000D01*
X13575172Y45546000D01*
X13515625Y45539599D01*
X13380911Y45489354D01*
X13265810Y45403190D01*
X13179646Y45288089D01*
X13129401Y45153375D01*
X13123000Y45093828D01*
X13123000Y44373800D01*
X14003004Y44373800D01*
X13973000Y44261826D01*
X13973000Y44130174D01*
X14003004Y44018200D01*
X13123000Y44018200D01*
X13123000Y43298173D01*
X0Y43298173D01*
X0Y45344709D01*
X2848500Y45344709D01*
X2880161Y45104215D01*
X2942946Y44869898D01*
X3035774Y44645791D01*
X3035777Y44645785D01*
X3092889Y44546866D01*
X3157064Y44435711D01*
X3157067Y44435707D01*
X3157069Y44435704D01*
X3304729Y44243268D01*
X3304736Y44243260D01*
X3476259Y44071737D01*
X3476267Y44071730D01*
X3620988Y43960683D01*
X3668711Y43924064D01*
X3834390Y43828409D01*
X3878784Y43802778D01*
X3878790Y43802775D01*
X4102897Y43709947D01*
X4102898Y43709947D01*
X4102900Y43709946D01*
X4337211Y43647162D01*
X4457461Y43631331D01*
X4577709Y43615500D01*
X4577712Y43615500D01*
X4820291Y43615500D01*
X4923359Y43629070D01*
X5060789Y43647162D01*
X5295100Y43709946D01*
X5519212Y43802776D01*
X5729289Y43924064D01*
X5851970Y44018200D01*
X5921732Y44071730D01*
X5921740Y44071737D01*
X6093263Y44243260D01*
X6093270Y44243268D01*
X6150336Y44317640D01*
X6240936Y44435711D01*
X6362224Y44645788D01*
X6455054Y44869900D01*
X6517838Y45104211D01*
X6549500Y45344712D01*
X6549500Y45587288D01*
X6549500Y45587292D01*
X6517838Y45827786D01*
X6517838Y45827789D01*
X6455054Y46062100D01*
X6386337Y46227998D01*
X22825034Y46227998D01*
X22844859Y46001396D01*
X22844860Y46001391D01*
X22903733Y45781673D01*
X22999864Y45575521D01*
X23093025Y45442474D01*
X23750263Y46099713D01*
X23757259Y46073606D01*
X23809920Y45982394D01*
X23884394Y45907920D01*
X23975606Y45855259D01*
X24001710Y45848265D01*
X23344472Y45191027D01*
X23477520Y45097865D01*
X23683672Y45001734D01*
X23903390Y44942861D01*
X23903395Y44942860D01*
X24129998Y44923034D01*
X24130002Y44923034D01*
X24356604Y44942860D01*
X24356609Y44942861D01*
X24576327Y45001734D01*
X24782481Y45097866D01*
X24782486Y45097868D01*
X24915526Y45191026D01*
X24915527Y45191027D01*
X24258289Y45848265D01*
X24284394Y45855259D01*
X24375606Y45907920D01*
X24450080Y45982394D01*
X24502741Y46073606D01*
X24509735Y46099711D01*
X25166973Y45442473D01*
X25166974Y45442474D01*
X25260132Y45575514D01*
X25260134Y45575519D01*
X25327507Y45719999D01*
X56929409Y45719999D01*
X56949738Y45474659D01*
X56949739Y45474654D01*
X57010171Y45236010D01*
X57011494Y45232994D01*
X57109064Y45010557D01*
X57243714Y44804460D01*
X57410450Y44623337D01*
X57410454Y44623334D01*
X57410453Y44623334D01*
X57471303Y44575973D01*
X57604724Y44472127D01*
X57604726Y44472126D01*
X57604730Y44472123D01*
X57730700Y44403953D01*
X57821236Y44354957D01*
X57821239Y44354956D01*
X58054074Y44275023D01*
X58054078Y44275023D01*
X58054082Y44275021D01*
X58296908Y44234500D01*
X58296912Y44234500D01*
X58543088Y44234500D01*
X58543092Y44234500D01*
X58785918Y44275021D01*
X58785924Y44275023D01*
X58785925Y44275023D01*
X58906826Y44316529D01*
X59018764Y44354957D01*
X59235276Y44472127D01*
X59331302Y44546868D01*
X59408575Y44581350D01*
X59493026Y44575973D01*
X59565305Y44531965D01*
X59592072Y44497343D01*
X59603866Y44477401D01*
X59603866Y44477400D01*
X59717398Y44363868D01*
X59717400Y44363867D01*
X59717402Y44363865D01*
X59855607Y44282131D01*
X60009796Y44237335D01*
X60045819Y44234500D01*
X61874180Y44234501D01*
X61874188Y44234501D01*
X61898196Y44236391D01*
X61910204Y44237335D01*
X62064393Y44282131D01*
X62202598Y44363865D01*
X62316135Y44477402D01*
X62397869Y44615607D01*
X62442665Y44769796D01*
X62445500Y44805819D01*
X62445500Y45344709D01*
X93272500Y45344709D01*
X93304161Y45104215D01*
X93366946Y44869898D01*
X93459774Y44645791D01*
X93459777Y44645785D01*
X93516889Y44546866D01*
X93581064Y44435711D01*
X93581067Y44435707D01*
X93581069Y44435704D01*
X93728729Y44243268D01*
X93728736Y44243260D01*
X93900259Y44071737D01*
X93900267Y44071730D01*
X94044988Y43960683D01*
X94092711Y43924064D01*
X94258390Y43828409D01*
X94302784Y43802778D01*
X94302790Y43802775D01*
X94526897Y43709947D01*
X94526898Y43709947D01*
X94526900Y43709946D01*
X94761211Y43647162D01*
X94881461Y43631331D01*
X95001709Y43615500D01*
X95001712Y43615500D01*
X95244291Y43615500D01*
X95347359Y43629070D01*
X95484789Y43647162D01*
X95719100Y43709946D01*
X95943212Y43802776D01*
X96153289Y43924064D01*
X96275970Y44018200D01*
X96345732Y44071730D01*
X96345740Y44071737D01*
X96517263Y44243260D01*
X96517270Y44243268D01*
X96574336Y44317640D01*
X96664936Y44435711D01*
X96786224Y44645788D01*
X96879054Y44869900D01*
X96941838Y45104211D01*
X96973500Y45344712D01*
X96973500Y45587288D01*
X96973500Y45587292D01*
X96941838Y45827786D01*
X96941838Y45827789D01*
X96879054Y46062100D01*
X96786224Y46286212D01*
X96664936Y46496289D01*
X96664930Y46496297D01*
X96517270Y46688733D01*
X96517263Y46688741D01*
X96345740Y46860264D01*
X96345732Y46860271D01*
X96153296Y47007931D01*
X96153293Y47007933D01*
X96153289Y47007936D01*
X96019734Y47085044D01*
X95943215Y47129223D01*
X95943209Y47129226D01*
X95719102Y47222054D01*
X95484785Y47284839D01*
X95244291Y47316500D01*
X95244288Y47316500D01*
X95001712Y47316500D01*
X95001709Y47316500D01*
X94761214Y47284839D01*
X94526897Y47222054D01*
X94302790Y47129226D01*
X94302784Y47129223D01*
X94114909Y47020753D01*
X94102399Y47013529D01*
X94092713Y47007937D01*
X94092703Y47007931D01*
X93900267Y46860271D01*
X93900259Y46860264D01*
X93728736Y46688741D01*
X93728729Y46688733D01*
X93581069Y46496297D01*
X93581063Y46496287D01*
X93459777Y46286216D01*
X93459774Y46286210D01*
X93366946Y46062103D01*
X93304161Y45827786D01*
X93272500Y45587292D01*
X93272500Y45344709D01*
X62445500Y45344709D01*
X62445499Y46634180D01*
X62445499Y46634189D01*
X62442665Y46670201D01*
X62442665Y46670204D01*
X62397870Y46824390D01*
X62397869Y46824391D01*
X62397869Y46824393D01*
X62316135Y46962598D01*
X62316133Y46962600D01*
X62316132Y46962602D01*
X62202601Y47076133D01*
X62187535Y47085043D01*
X62064393Y47157869D01*
X62064389Y47157870D01*
X62064388Y47157871D01*
X61910205Y47202665D01*
X61904200Y47203138D01*
X61874181Y47205500D01*
X61874176Y47205500D01*
X60045811Y47205500D01*
X60009799Y47202666D01*
X60009796Y47202666D01*
X59855610Y47157871D01*
X59717398Y47076133D01*
X59603867Y46962602D01*
X59592071Y46942655D01*
X59532815Y46882243D01*
X59452271Y46856289D01*
X59368892Y46870738D01*
X59331300Y46893135D01*
X59235275Y46967874D01*
X59235270Y46967877D01*
X59018762Y47085044D01*
X59018760Y47085045D01*
X58785925Y47164978D01*
X58737070Y47173131D01*
X58543092Y47205500D01*
X58296908Y47205500D01*
X58102929Y47173131D01*
X58054075Y47164978D01*
X58054074Y47164978D01*
X57821239Y47085045D01*
X57821237Y47085044D01*
X57604730Y46967878D01*
X57410454Y46816667D01*
X57410451Y46816664D01*
X57410450Y46816663D01*
X57243714Y46635540D01*
X57238788Y46628000D01*
X57109067Y46429449D01*
X57109065Y46429445D01*
X57109064Y46429443D01*
X57074465Y46350566D01*
X57010171Y46203991D01*
X56949739Y45965347D01*
X56949738Y45965342D01*
X56929409Y45720002D01*
X56929409Y45719999D01*
X25327507Y45719999D01*
X25356266Y45781673D01*
X25415139Y46001391D01*
X25415140Y46001396D01*
X25434966Y46227998D01*
X25434966Y46228003D01*
X25415140Y46454605D01*
X25415139Y46454610D01*
X25356266Y46674328D01*
X25260135Y46880480D01*
X25166973Y47013528D01*
X24509735Y46356290D01*
X24502741Y46382394D01*
X24450080Y46473606D01*
X24375606Y46548080D01*
X24284394Y46600741D01*
X24258288Y46607736D01*
X24915526Y47264975D01*
X24782479Y47358136D01*
X24576327Y47454267D01*
X24356609Y47513140D01*
X24356604Y47513141D01*
X24130002Y47532966D01*
X24129998Y47532966D01*
X23903395Y47513141D01*
X23903390Y47513140D01*
X23683672Y47454267D01*
X23477519Y47358136D01*
X23477512Y47358132D01*
X23344471Y47264976D01*
X23344471Y47264975D01*
X24001710Y46607736D01*
X23975606Y46600741D01*
X23884394Y46548080D01*
X23809920Y46473606D01*
X23757259Y46382394D01*
X23750264Y46356290D01*
X23093025Y47013529D01*
X23093024Y47013529D01*
X22999868Y46880488D01*
X22999864Y46880481D01*
X22903733Y46674328D01*
X22844860Y46454610D01*
X22844859Y46454605D01*
X22825034Y46228003D01*
X22825034Y46227998D01*
X6386337Y46227998D01*
X6362224Y46286212D01*
X6240936Y46496289D01*
X6240930Y46496297D01*
X6093270Y46688733D01*
X6093263Y46688741D01*
X5921740Y46860264D01*
X5921732Y46860271D01*
X5729296Y47007931D01*
X5729293Y47007933D01*
X5729289Y47007936D01*
X5595734Y47085044D01*
X5519215Y47129223D01*
X5519209Y47129226D01*
X5295102Y47222054D01*
X5060785Y47284839D01*
X4820291Y47316500D01*
X4820288Y47316500D01*
X4577712Y47316500D01*
X4577709Y47316500D01*
X4337214Y47284839D01*
X4102897Y47222054D01*
X3878790Y47129226D01*
X3878784Y47129223D01*
X3690909Y47020753D01*
X3678399Y47013529D01*
X3668713Y47007937D01*
X3668703Y47007931D01*
X3476267Y46860271D01*
X3476259Y46860264D01*
X3304736Y46688741D01*
X3304729Y46688733D01*
X3157069Y46496297D01*
X3157063Y46496287D01*
X3035777Y46286216D01*
X3035774Y46286210D01*
X2942946Y46062103D01*
X2880161Y45827786D01*
X2848500Y45587292D01*
X2848500Y45344709D01*
X0Y45344709D01*
X0Y49734200D01*
X20251Y49816363D01*
X76366Y49879704D01*
X155489Y49909711D01*
X176800Y49911000D01*
X99772200Y49911000D01*
X99854363Y49890749D01*
G37*
%TD.AperFunction*%
%TD*%
M02*
