%TF.GenerationSoftware,KiCad,Pcbnew,7.0.10-7.0.10~ubuntu22.04.1*%
%TF.CreationDate,2024-02-22T18:41:36-08:00*%
%TF.ProjectId,INA129-Amplifier,494e4131-3239-42d4-916d-706c69666965,rev?*%
%TF.SameCoordinates,PX2bf7208PY9a4d770*%
%TF.FileFunction,Copper,L2,Bot*%
%TF.FilePolarity,Positive*%
%FSLAX46Y46*%
G04 Gerber Fmt 4.6, Leading zero omitted, Abs format (unit mm)*
G04 Created by KiCad (PCBNEW 7.0.10-7.0.10~ubuntu22.04.1) date 2024-02-22 18:41:36*
%MOMM*%
%LPD*%
G01*
G04 APERTURE LIST*
%TA.AperFunction,ComponentPad*%
%ADD10R,1.700000X1.700000*%
%TD*%
%TA.AperFunction,ComponentPad*%
%ADD11R,2.400000X1.600000*%
%TD*%
%TA.AperFunction,ComponentPad*%
%ADD12O,2.400000X1.600000*%
%TD*%
%TA.AperFunction,ComponentPad*%
%ADD13O,1.700000X1.700000*%
%TD*%
%TA.AperFunction,ComponentPad*%
%ADD14C,1.600000*%
%TD*%
%TA.AperFunction,ComponentPad*%
%ADD15O,1.600000X1.600000*%
%TD*%
%TA.AperFunction,ComponentPad*%
%ADD16R,1.200000X1.200000*%
%TD*%
%TA.AperFunction,ComponentPad*%
%ADD17C,1.200000*%
%TD*%
G04 APERTURE END LIST*
D10*
%TO.P,J9,1,Pin_1*%
%TO.N,GND*%
X70231000Y34290000D03*
%TD*%
%TO.P,J8,1,Pin_1*%
%TO.N,GND*%
X61595000Y19050000D03*
%TD*%
D11*
%TO.P,U3,1*%
%TO.N,/BufferedOutput*%
X70978000Y29454000D03*
D12*
%TO.P,U3,2,-*%
X70978000Y26914000D03*
%TO.P,U3,3,+*%
%TO.N,/UnBufferedOutput*%
X70978000Y24374000D03*
%TO.P,U3,4,V-*%
%TO.N,-9V*%
X70978000Y21834000D03*
%TO.P,U3,5,+*%
%TO.N,Net-(U3B-+)*%
X78598000Y21834000D03*
%TO.P,U3,6,-*%
%TO.N,Net-(U3B--)*%
X78598000Y24374000D03*
%TO.P,U3,7*%
%TO.N,/ConditionedOutput*%
X78598000Y26914000D03*
%TO.P,U3,8,V+*%
%TO.N,+9V*%
X78598000Y29454000D03*
%TD*%
D11*
%TO.P,U1,1,Rg*%
%TO.N,/Gain2*%
X38974000Y29962000D03*
D12*
%TO.P,U1,2,-*%
%TO.N,/NegInputProtected*%
X38974000Y27422000D03*
%TO.P,U1,3,+*%
%TO.N,/PosInputProtected*%
X38974000Y24882000D03*
%TO.P,U1,4,V-*%
%TO.N,-9V*%
X38974000Y22342000D03*
%TO.P,U1,5,Ref*%
%TO.N,GND*%
X46594000Y22342000D03*
%TO.P,U1,6*%
%TO.N,/UnBufferedOutput*%
X46594000Y24882000D03*
%TO.P,U1,7,V+*%
%TO.N,+9V*%
X46594000Y27422000D03*
%TO.P,U1,8,Rg*%
%TO.N,/Gain1*%
X46594000Y29962000D03*
%TD*%
D10*
%TO.P,J5,1,Pin_1*%
%TO.N,GND*%
X63749000Y9906000D03*
D13*
%TO.P,J5,2,Pin_2*%
X66289000Y9906000D03*
%TD*%
D14*
%TO.P,R2,1*%
%TO.N,/PosInput*%
X15621000Y24130000D03*
D15*
%TO.P,R2,2*%
%TO.N,/PosInputProtected*%
X28321000Y24130000D03*
%TD*%
D14*
%TO.P,R3,1*%
%TO.N,/NegInput*%
X15621000Y28194000D03*
D15*
%TO.P,R3,2*%
%TO.N,/NegInputProtected*%
X28321000Y28194000D03*
%TD*%
%TO.P,R5,2*%
%TO.N,GND*%
X30099000Y6096000D03*
D14*
%TO.P,R5,1*%
%TO.N,/PosInputProtected*%
X30099000Y18796000D03*
%TD*%
%TO.P,R6,1*%
%TO.N,GND*%
X30099000Y46228000D03*
D15*
%TO.P,R6,2*%
%TO.N,/NegInputProtected*%
X30099000Y33528000D03*
%TD*%
D14*
%TO.P,R10,1*%
%TO.N,/Gain2*%
X36449000Y35306000D03*
D15*
%TO.P,R10,2*%
%TO.N,/Gain1*%
X49149000Y35306000D03*
%TD*%
D10*
%TO.P,J7,1,Pin_1*%
%TO.N,/ConditionedOutput*%
X91816000Y36581000D03*
D13*
%TO.P,J7,2,Pin_2*%
X94356000Y36581000D03*
%TD*%
D10*
%TO.P,J6,1,Pin_1*%
%TO.N,/ConditionedOutput*%
X91816000Y26670000D03*
D13*
%TO.P,J6,2,Pin_2*%
X94356000Y26670000D03*
%TD*%
%TO.P,J4,2,Pin_2*%
%TO.N,-9V*%
X50419000Y8382000D03*
D10*
%TO.P,J4,1,Pin_1*%
X50419000Y10922000D03*
%TD*%
%TO.P,J3,1,Pin_1*%
%TO.N,+9V*%
X53467000Y42169000D03*
D13*
%TO.P,J3,2,Pin_2*%
X53467000Y39629000D03*
%TD*%
D10*
%TO.P,J1,1,Pin_1*%
%TO.N,/PosInput*%
X15367000Y17785000D03*
D13*
%TO.P,J1,2,Pin_2*%
X15367000Y15245000D03*
%TD*%
D10*
%TO.P,J2,1,Pin_1*%
%TO.N,/NegInput*%
X15367000Y37089000D03*
D13*
%TO.P,J2,2,Pin_2*%
X15367000Y34549000D03*
%TD*%
D16*
%TO.P,C9,1*%
%TO.N,Net-(C10-Pad2)*%
X88519000Y16952000D03*
D17*
%TO.P,C9,2*%
%TO.N,GND*%
X88519000Y14952000D03*
%TD*%
D16*
%TO.P,C7,1*%
%TO.N,Net-(U3B-+)*%
X73279000Y14986000D03*
D17*
%TO.P,C7,2*%
%TO.N,/BufferedOutput*%
X73279000Y16986000D03*
%TD*%
%TA.AperFunction,Conductor*%
%TO.N,GND*%
G36*
X65829507Y10115844D02*
G01*
X65789000Y9977889D01*
X65789000Y9834111D01*
X65829507Y9696156D01*
X65855314Y9656000D01*
X64182686Y9656000D01*
X64208493Y9696156D01*
X64249000Y9834111D01*
X64249000Y9977889D01*
X64208493Y10115844D01*
X64182686Y10156000D01*
X65855314Y10156000D01*
X65829507Y10115844D01*
G37*
%TD.AperFunction*%
%TA.AperFunction,Conductor*%
G36*
X99891539Y49890815D02*
G01*
X99937294Y49838011D01*
X99948500Y49786500D01*
X99948500Y124500D01*
X99928815Y57461D01*
X99876011Y11706D01*
X99824500Y500D01*
X124500Y500D01*
X57461Y20185D01*
X11706Y72989D01*
X500Y124500D01*
X500Y4758237D01*
X2844787Y4758237D01*
X2874413Y4488987D01*
X2874415Y4488976D01*
X2942926Y4226918D01*
X2942928Y4226912D01*
X3048870Y3977610D01*
X3120998Y3859425D01*
X3189979Y3746395D01*
X3189986Y3746385D01*
X3363253Y3538181D01*
X3363259Y3538176D01*
X3564998Y3357418D01*
X3790910Y3207956D01*
X4036176Y3092980D01*
X4036183Y3092978D01*
X4036185Y3092977D01*
X4295557Y3014943D01*
X4295564Y3014942D01*
X4295569Y3014940D01*
X4563561Y2975500D01*
X4563566Y2975500D01*
X4766629Y2975500D01*
X4766631Y2975500D01*
X4766636Y2975501D01*
X4766648Y2975501D01*
X4804191Y2978250D01*
X4969156Y2990323D01*
X5081758Y3015407D01*
X5233546Y3049218D01*
X5233548Y3049219D01*
X5233553Y3049220D01*
X5486558Y3145986D01*
X5722777Y3278559D01*
X5937177Y3444112D01*
X6125186Y3639119D01*
X6282799Y3859421D01*
X6356787Y4003331D01*
X6406649Y4100310D01*
X6406651Y4100316D01*
X6406656Y4100325D01*
X6494118Y4356695D01*
X6543319Y4623067D01*
X6548259Y4758237D01*
X93268787Y4758237D01*
X93298413Y4488987D01*
X93298415Y4488976D01*
X93366926Y4226918D01*
X93366928Y4226912D01*
X93472870Y3977610D01*
X93544998Y3859425D01*
X93613979Y3746395D01*
X93613986Y3746385D01*
X93787253Y3538181D01*
X93787259Y3538176D01*
X93988998Y3357418D01*
X94214910Y3207956D01*
X94460176Y3092980D01*
X94460183Y3092978D01*
X94460185Y3092977D01*
X94719557Y3014943D01*
X94719564Y3014942D01*
X94719569Y3014940D01*
X94987561Y2975500D01*
X94987566Y2975500D01*
X95190629Y2975500D01*
X95190631Y2975500D01*
X95190636Y2975501D01*
X95190648Y2975501D01*
X95228191Y2978250D01*
X95393156Y2990323D01*
X95505758Y3015407D01*
X95657546Y3049218D01*
X95657548Y3049219D01*
X95657553Y3049220D01*
X95910558Y3145986D01*
X96146777Y3278559D01*
X96361177Y3444112D01*
X96549186Y3639119D01*
X96706799Y3859421D01*
X96780787Y4003331D01*
X96830649Y4100310D01*
X96830651Y4100316D01*
X96830656Y4100325D01*
X96918118Y4356695D01*
X96967319Y4623067D01*
X96977212Y4893765D01*
X96947586Y5163018D01*
X96879072Y5425088D01*
X96773130Y5674390D01*
X96632018Y5905610D01*
X96630845Y5907019D01*
X96458746Y6113820D01*
X96458740Y6113825D01*
X96257002Y6294582D01*
X96031092Y6444043D01*
X96031090Y6444044D01*
X95785824Y6559020D01*
X95785819Y6559022D01*
X95785814Y6559024D01*
X95526442Y6637058D01*
X95526428Y6637061D01*
X95410791Y6654079D01*
X95258439Y6676500D01*
X95055369Y6676500D01*
X95055351Y6676500D01*
X94852844Y6661677D01*
X94852831Y6661675D01*
X94588453Y6602783D01*
X94588446Y6602780D01*
X94335439Y6506013D01*
X94099226Y6373443D01*
X94099224Y6373442D01*
X94099223Y6373441D01*
X94048203Y6334045D01*
X93884822Y6207888D01*
X93696822Y6012891D01*
X93696816Y6012884D01*
X93539202Y5792581D01*
X93539199Y5792576D01*
X93415350Y5551691D01*
X93415343Y5551673D01*
X93327884Y5295315D01*
X93327881Y5295301D01*
X93278681Y5028932D01*
X93278680Y5028925D01*
X93268787Y4758237D01*
X6548259Y4758237D01*
X6553212Y4893765D01*
X6523586Y5163018D01*
X6455072Y5425088D01*
X6349130Y5674390D01*
X6208018Y5905610D01*
X6206845Y5907019D01*
X6034746Y6113820D01*
X6034740Y6113825D01*
X5833002Y6294582D01*
X5755282Y6346001D01*
X28820127Y6346001D01*
X28820128Y6346000D01*
X29783314Y6346000D01*
X29771359Y6334045D01*
X29713835Y6221148D01*
X29694014Y6096000D01*
X29713835Y5970852D01*
X29771359Y5857955D01*
X29783314Y5846000D01*
X28820128Y5846000D01*
X28872730Y5649683D01*
X28872734Y5649674D01*
X28968865Y5443518D01*
X29099342Y5257180D01*
X29260179Y5096343D01*
X29446517Y4965866D01*
X29652673Y4869735D01*
X29652682Y4869731D01*
X29848999Y4817128D01*
X29849000Y4817129D01*
X29849000Y5780314D01*
X29860955Y5768359D01*
X29973852Y5710835D01*
X30067519Y5696000D01*
X30130481Y5696000D01*
X30224148Y5710835D01*
X30337045Y5768359D01*
X30349000Y5780314D01*
X30349000Y4817128D01*
X30545317Y4869731D01*
X30545326Y4869735D01*
X30751482Y4965866D01*
X30937820Y5096343D01*
X31098657Y5257180D01*
X31229134Y5443518D01*
X31325265Y5649674D01*
X31325269Y5649683D01*
X31377872Y5846000D01*
X30414686Y5846000D01*
X30426641Y5857955D01*
X30484165Y5970852D01*
X30503986Y6096000D01*
X30484165Y6221148D01*
X30426641Y6334045D01*
X30414686Y6346000D01*
X31377872Y6346000D01*
X31377872Y6346001D01*
X31325269Y6542318D01*
X31325265Y6542327D01*
X31229134Y6748483D01*
X31098657Y6934821D01*
X30937820Y7095658D01*
X30751482Y7226135D01*
X30545328Y7322266D01*
X30349000Y7374873D01*
X30349000Y6411686D01*
X30337045Y6423641D01*
X30224148Y6481165D01*
X30130481Y6496000D01*
X30067519Y6496000D01*
X29973852Y6481165D01*
X29860955Y6423641D01*
X29849000Y6411686D01*
X29849000Y7374873D01*
X29652671Y7322266D01*
X29446517Y7226135D01*
X29260179Y7095658D01*
X29099342Y6934821D01*
X28968865Y6748483D01*
X28872734Y6542327D01*
X28872730Y6542318D01*
X28820127Y6346001D01*
X5755282Y6346001D01*
X5607092Y6444043D01*
X5607090Y6444044D01*
X5361824Y6559020D01*
X5361819Y6559022D01*
X5361814Y6559024D01*
X5102442Y6637058D01*
X5102428Y6637061D01*
X4986791Y6654079D01*
X4834439Y6676500D01*
X4631369Y6676500D01*
X4631351Y6676500D01*
X4428844Y6661677D01*
X4428831Y6661675D01*
X4164453Y6602783D01*
X4164446Y6602780D01*
X3911439Y6506013D01*
X3675226Y6373443D01*
X3675224Y6373442D01*
X3675223Y6373441D01*
X3624203Y6334045D01*
X3460822Y6207888D01*
X3272822Y6012891D01*
X3272816Y6012884D01*
X3115202Y5792581D01*
X3115199Y5792576D01*
X2991350Y5551691D01*
X2991343Y5551673D01*
X2903884Y5295315D01*
X2903881Y5295301D01*
X2854681Y5028932D01*
X2854680Y5028925D01*
X2844787Y4758237D01*
X500Y4758237D01*
X500Y8382000D01*
X49063341Y8382000D01*
X49083936Y8146597D01*
X49083938Y8146587D01*
X49145094Y7918345D01*
X49145096Y7918341D01*
X49145097Y7918337D01*
X49244965Y7704170D01*
X49244967Y7704166D01*
X49353281Y7549479D01*
X49380505Y7510599D01*
X49547599Y7343505D01*
X49644384Y7275735D01*
X49741165Y7207968D01*
X49741167Y7207967D01*
X49741170Y7207965D01*
X49955337Y7108097D01*
X49955343Y7108096D01*
X49955344Y7108095D01*
X50010285Y7093374D01*
X50183592Y7046937D01*
X50371918Y7030461D01*
X50418999Y7026341D01*
X50419000Y7026341D01*
X50419001Y7026341D01*
X50458234Y7029774D01*
X50654408Y7046937D01*
X50882663Y7108097D01*
X51096830Y7207965D01*
X51290401Y7343505D01*
X51457495Y7510599D01*
X51593035Y7704170D01*
X51692903Y7918337D01*
X51754063Y8146592D01*
X51774659Y8382000D01*
X51754063Y8617408D01*
X51692903Y8845663D01*
X51617131Y9008156D01*
X62399000Y9008156D01*
X62405401Y8948628D01*
X62405403Y8948621D01*
X62455645Y8813914D01*
X62455649Y8813907D01*
X62541809Y8698813D01*
X62541812Y8698810D01*
X62656906Y8612650D01*
X62656913Y8612646D01*
X62791620Y8562404D01*
X62791627Y8562402D01*
X62851155Y8556001D01*
X62851172Y8556000D01*
X63499000Y8556000D01*
X63499000Y9470499D01*
X63606685Y9421320D01*
X63713237Y9406000D01*
X63784763Y9406000D01*
X63891315Y9421320D01*
X63999000Y9470499D01*
X63999000Y8556000D01*
X64646828Y8556000D01*
X64646844Y8556001D01*
X64706372Y8562402D01*
X64706379Y8562404D01*
X64841086Y8612646D01*
X64841093Y8612650D01*
X64956187Y8698810D01*
X64956190Y8698813D01*
X65042350Y8813907D01*
X65042354Y8813914D01*
X65091614Y8945987D01*
X65133485Y9001921D01*
X65198949Y9026338D01*
X65267222Y9011487D01*
X65295477Y8990335D01*
X65417917Y8867895D01*
X65611421Y8732400D01*
X65825507Y8632571D01*
X65825516Y8632567D01*
X66039000Y8575366D01*
X66039000Y9470499D01*
X66146685Y9421320D01*
X66253237Y9406000D01*
X66324763Y9406000D01*
X66431315Y9421320D01*
X66539000Y9470499D01*
X66539000Y8575367D01*
X66752483Y8632567D01*
X66752492Y8632571D01*
X66966578Y8732400D01*
X67160082Y8867895D01*
X67327105Y9034918D01*
X67462600Y9228422D01*
X67562429Y9442508D01*
X67562432Y9442514D01*
X67619636Y9656000D01*
X66722686Y9656000D01*
X66748493Y9696156D01*
X66789000Y9834111D01*
X66789000Y9977889D01*
X66748493Y10115844D01*
X66722686Y10156000D01*
X67619636Y10156000D01*
X67619635Y10156001D01*
X67562432Y10369487D01*
X67562429Y10369493D01*
X67462600Y10583578D01*
X67462599Y10583580D01*
X67327113Y10777074D01*
X67327108Y10777080D01*
X67160082Y10944106D01*
X66966578Y11079601D01*
X66752492Y11179430D01*
X66752486Y11179433D01*
X66539000Y11236636D01*
X66539000Y10341502D01*
X66431315Y10390680D01*
X66324763Y10406000D01*
X66253237Y10406000D01*
X66146685Y10390680D01*
X66039000Y10341502D01*
X66039000Y11236636D01*
X66038999Y11236636D01*
X65825513Y11179433D01*
X65825507Y11179430D01*
X65611422Y11079601D01*
X65611420Y11079600D01*
X65417926Y10944114D01*
X65295477Y10821665D01*
X65234154Y10788181D01*
X65164462Y10793165D01*
X65108529Y10835037D01*
X65091614Y10866014D01*
X65042354Y10998087D01*
X65042350Y10998094D01*
X64956190Y11113188D01*
X64956187Y11113191D01*
X64841093Y11199351D01*
X64841086Y11199355D01*
X64706379Y11249597D01*
X64706372Y11249599D01*
X64646844Y11256000D01*
X63999000Y11256000D01*
X63999000Y10341502D01*
X63891315Y10390680D01*
X63784763Y10406000D01*
X63713237Y10406000D01*
X63606685Y10390680D01*
X63499000Y10341502D01*
X63499000Y11256000D01*
X62851155Y11256000D01*
X62791627Y11249599D01*
X62791620Y11249597D01*
X62656913Y11199355D01*
X62656906Y11199351D01*
X62541812Y11113191D01*
X62541809Y11113188D01*
X62455649Y10998094D01*
X62455645Y10998087D01*
X62405403Y10863380D01*
X62405401Y10863373D01*
X62399000Y10803845D01*
X62399000Y10156000D01*
X63315314Y10156000D01*
X63289507Y10115844D01*
X63249000Y9977889D01*
X63249000Y9834111D01*
X63289507Y9696156D01*
X63315314Y9656000D01*
X62399000Y9656000D01*
X62399000Y9008156D01*
X51617131Y9008156D01*
X51593035Y9059829D01*
X51474985Y9228422D01*
X51457496Y9253400D01*
X51457495Y9253401D01*
X51335567Y9375329D01*
X51302084Y9436649D01*
X51307068Y9506341D01*
X51348939Y9562275D01*
X51379915Y9579190D01*
X51511331Y9628204D01*
X51626546Y9714454D01*
X51712796Y9829669D01*
X51763091Y9964517D01*
X51769500Y10024127D01*
X51769499Y11819872D01*
X51763091Y11879483D01*
X51712796Y12014331D01*
X51712795Y12014332D01*
X51712793Y12014336D01*
X51626547Y12129545D01*
X51626544Y12129548D01*
X51511335Y12215794D01*
X51511328Y12215798D01*
X51376482Y12266092D01*
X51376483Y12266092D01*
X51316883Y12272499D01*
X51316881Y12272500D01*
X51316873Y12272500D01*
X51316864Y12272500D01*
X49521129Y12272500D01*
X49521123Y12272499D01*
X49461516Y12266092D01*
X49326671Y12215798D01*
X49326664Y12215794D01*
X49211455Y12129548D01*
X49211452Y12129545D01*
X49125206Y12014336D01*
X49125202Y12014329D01*
X49074908Y11879483D01*
X49068501Y11819884D01*
X49068501Y11819877D01*
X49068500Y11819865D01*
X49068500Y10024130D01*
X49068501Y10024124D01*
X49074908Y9964517D01*
X49125202Y9829672D01*
X49125206Y9829665D01*
X49211452Y9714456D01*
X49211455Y9714453D01*
X49326664Y9628207D01*
X49326671Y9628203D01*
X49458081Y9579190D01*
X49514015Y9537319D01*
X49538432Y9471855D01*
X49523580Y9403582D01*
X49502430Y9375327D01*
X49380503Y9253400D01*
X49244965Y9059831D01*
X49244964Y9059829D01*
X49145098Y8845665D01*
X49145094Y8845656D01*
X49083938Y8617414D01*
X49083936Y8617404D01*
X49063341Y8382001D01*
X49063341Y8382000D01*
X500Y8382000D01*
X500Y15245000D01*
X14011341Y15245000D01*
X14031936Y15009597D01*
X14031938Y15009587D01*
X14093094Y14781345D01*
X14093096Y14781341D01*
X14093097Y14781337D01*
X14153408Y14652000D01*
X14192965Y14567170D01*
X14192967Y14567166D01*
X14202935Y14552931D01*
X14328505Y14373599D01*
X14495599Y14206505D01*
X14585334Y14143672D01*
X14689165Y14070968D01*
X14689167Y14070967D01*
X14689170Y14070965D01*
X14903337Y13971097D01*
X15131592Y13909937D01*
X15319918Y13893461D01*
X15366999Y13889341D01*
X15367000Y13889341D01*
X15367001Y13889341D01*
X15406234Y13892774D01*
X15602408Y13909937D01*
X15830663Y13971097D01*
X16044830Y14070965D01*
X16238401Y14206505D01*
X16405495Y14373599D01*
X16541035Y14567170D01*
X16640903Y14781337D01*
X16702063Y15009592D01*
X16722659Y15245000D01*
X16702063Y15480408D01*
X16655626Y15653715D01*
X16640905Y15708656D01*
X16640904Y15708657D01*
X16640903Y15708663D01*
X16541035Y15922829D01*
X16526527Y15943548D01*
X16405496Y16116400D01*
X16346760Y16175136D01*
X16283567Y16238329D01*
X16250084Y16299649D01*
X16255068Y16369341D01*
X16296939Y16425275D01*
X16327915Y16442190D01*
X16459331Y16491204D01*
X16574546Y16577454D01*
X16660796Y16692669D01*
X16711091Y16827517D01*
X16717500Y16887127D01*
X16717500Y16986000D01*
X72173785Y16986000D01*
X72192602Y16782918D01*
X72248417Y16586753D01*
X72248422Y16586740D01*
X72331930Y16419035D01*
X72339327Y16404179D01*
X72462236Y16241421D01*
X72469448Y16234846D01*
X72505729Y16175136D01*
X72503969Y16105288D01*
X72464726Y16047480D01*
X72443729Y16035374D01*
X72444454Y16034047D01*
X72436664Y16029794D01*
X72321455Y15943548D01*
X72321452Y15943545D01*
X72235206Y15828336D01*
X72235202Y15828329D01*
X72184908Y15693483D01*
X72178501Y15633884D01*
X72178501Y15633877D01*
X72178500Y15633865D01*
X72178500Y14338130D01*
X72178501Y14338124D01*
X72184908Y14278517D01*
X72235202Y14143672D01*
X72235206Y14143665D01*
X72321452Y14028456D01*
X72321455Y14028453D01*
X72436664Y13942207D01*
X72436671Y13942203D01*
X72571517Y13891909D01*
X72571516Y13891909D01*
X72578444Y13891165D01*
X72631127Y13885500D01*
X73926872Y13885501D01*
X73986483Y13891909D01*
X74121331Y13942204D01*
X74222261Y14017760D01*
X87938311Y14017760D01*
X88026585Y13963103D01*
X88216678Y13889461D01*
X88417072Y13852000D01*
X88620928Y13852000D01*
X88821322Y13889461D01*
X89011412Y13963101D01*
X89011416Y13963103D01*
X89099686Y14017759D01*
X89099686Y14017760D01*
X88519001Y14598447D01*
X88519000Y14598447D01*
X87938311Y14017760D01*
X74222261Y14017760D01*
X74236546Y14028454D01*
X74322796Y14143669D01*
X74373091Y14278517D01*
X74379500Y14338127D01*
X74379500Y14952000D01*
X87414287Y14952000D01*
X87433096Y14749011D01*
X87433097Y14749008D01*
X87488883Y14552937D01*
X87488886Y14552931D01*
X87579751Y14370449D01*
X87581533Y14368089D01*
X88165446Y14952000D01*
X88137286Y14980160D01*
X88215105Y14980160D01*
X88225454Y14868479D01*
X88275448Y14768078D01*
X88358334Y14692516D01*
X88462920Y14652000D01*
X88546802Y14652000D01*
X88629250Y14667412D01*
X88724610Y14726457D01*
X88792201Y14815962D01*
X88822895Y14923840D01*
X88820286Y14952000D01*
X88872553Y14952000D01*
X89456465Y14368088D01*
X89458247Y14370447D01*
X89458248Y14370449D01*
X89549113Y14552931D01*
X89549116Y14552937D01*
X89604902Y14749008D01*
X89604903Y14749011D01*
X89623713Y14952000D01*
X89623713Y14952001D01*
X89604903Y15154990D01*
X89604902Y15154993D01*
X89549116Y15351064D01*
X89549113Y15351070D01*
X89458249Y15533551D01*
X89458247Y15533553D01*
X89456465Y15535913D01*
X88872553Y14952000D01*
X88820286Y14952000D01*
X88812546Y15035521D01*
X88762552Y15135922D01*
X88679666Y15211484D01*
X88575080Y15252000D01*
X88491198Y15252000D01*
X88408750Y15236588D01*
X88313390Y15177543D01*
X88245799Y15088038D01*
X88215105Y14980160D01*
X88137286Y14980160D01*
X87581533Y15535913D01*
X87579755Y15533558D01*
X87579754Y15533557D01*
X87488886Y15351070D01*
X87488883Y15351064D01*
X87433097Y15154993D01*
X87433096Y15154990D01*
X87414287Y14952001D01*
X87414287Y14952000D01*
X74379500Y14952000D01*
X74379499Y15633872D01*
X74373091Y15693483D01*
X74367429Y15708663D01*
X74322797Y15828329D01*
X74322793Y15828336D01*
X74236547Y15943545D01*
X74236544Y15943548D01*
X74121335Y16029794D01*
X74113546Y16034047D01*
X74115238Y16037148D01*
X74072828Y16068890D01*
X74048406Y16134352D01*
X74063252Y16202626D01*
X74088552Y16234847D01*
X74095764Y16241421D01*
X74143120Y16304130D01*
X87418500Y16304130D01*
X87418501Y16304124D01*
X87424908Y16244517D01*
X87475202Y16109672D01*
X87475206Y16109665D01*
X87561452Y15994456D01*
X87561455Y15994453D01*
X87676664Y15908207D01*
X87676671Y15908203D01*
X87811516Y15857909D01*
X87837419Y15855125D01*
X87871127Y15851500D01*
X87921692Y15851501D01*
X87988729Y15831818D01*
X88009372Y15815182D01*
X88519000Y15305554D01*
X89028628Y15815182D01*
X89089951Y15848667D01*
X89116308Y15851501D01*
X89166872Y15851501D01*
X89226483Y15857909D01*
X89361331Y15908204D01*
X89476546Y15994454D01*
X89562796Y16109669D01*
X89613091Y16244517D01*
X89619500Y16304127D01*
X89619499Y17599872D01*
X89613091Y17659483D01*
X89610872Y17665432D01*
X89562797Y17794329D01*
X89562793Y17794336D01*
X89476547Y17909545D01*
X89476544Y17909548D01*
X89361335Y17995794D01*
X89361328Y17995798D01*
X89226482Y18046092D01*
X89226483Y18046092D01*
X89166883Y18052499D01*
X89166881Y18052500D01*
X89166873Y18052500D01*
X89166864Y18052500D01*
X87871129Y18052500D01*
X87871123Y18052499D01*
X87811516Y18046092D01*
X87676671Y17995798D01*
X87676664Y17995794D01*
X87561455Y17909548D01*
X87561452Y17909545D01*
X87475206Y17794336D01*
X87475202Y17794329D01*
X87424908Y17659483D01*
X87418501Y17599884D01*
X87418501Y17599877D01*
X87418500Y17599865D01*
X87418500Y16304130D01*
X74143120Y16304130D01*
X74218673Y16404179D01*
X74309582Y16586750D01*
X74365397Y16782917D01*
X74384215Y16986000D01*
X74365397Y17189083D01*
X74309582Y17385250D01*
X74218673Y17567821D01*
X74118856Y17700000D01*
X74095762Y17730582D01*
X73945041Y17867981D01*
X73945039Y17867983D01*
X73771642Y17975345D01*
X73771635Y17975349D01*
X73676546Y18012186D01*
X73581456Y18049024D01*
X73380976Y18086500D01*
X73177024Y18086500D01*
X72976544Y18049024D01*
X72976541Y18049024D01*
X72976541Y18049023D01*
X72786364Y17975349D01*
X72786357Y17975345D01*
X72612960Y17867983D01*
X72612958Y17867981D01*
X72462237Y17730582D01*
X72339327Y17567822D01*
X72248422Y17385261D01*
X72248417Y17385248D01*
X72192602Y17189083D01*
X72173785Y16986001D01*
X72173785Y16986000D01*
X16717500Y16986000D01*
X16717499Y18682872D01*
X16711091Y18742483D01*
X16691130Y18795999D01*
X28793532Y18795999D01*
X28813364Y18569314D01*
X28813366Y18569303D01*
X28872258Y18349512D01*
X28872261Y18349503D01*
X28968431Y18143268D01*
X28968432Y18143266D01*
X29098954Y17956859D01*
X29259858Y17795955D01*
X29259861Y17795953D01*
X29446266Y17665432D01*
X29652504Y17569261D01*
X29872308Y17510365D01*
X30034230Y17496199D01*
X30098998Y17490532D01*
X30099000Y17490532D01*
X30099002Y17490532D01*
X30155673Y17495491D01*
X30325692Y17510365D01*
X30545496Y17569261D01*
X30751734Y17665432D01*
X30938139Y17795953D01*
X31099047Y17956861D01*
X31229568Y18143266D01*
X31233714Y18152156D01*
X60245000Y18152156D01*
X60251401Y18092628D01*
X60251403Y18092621D01*
X60301645Y17957914D01*
X60301649Y17957907D01*
X60387809Y17842813D01*
X60387812Y17842810D01*
X60502906Y17756650D01*
X60502913Y17756646D01*
X60637620Y17706404D01*
X60637627Y17706402D01*
X60697155Y17700001D01*
X60697172Y17700000D01*
X61345000Y17700000D01*
X61345000Y18614499D01*
X61452685Y18565320D01*
X61559237Y18550000D01*
X61630763Y18550000D01*
X61737315Y18565320D01*
X61845000Y18614499D01*
X61845000Y17700000D01*
X62492828Y17700000D01*
X62492844Y17700001D01*
X62552372Y17706402D01*
X62552379Y17706404D01*
X62687086Y17756646D01*
X62687093Y17756650D01*
X62802187Y17842810D01*
X62802190Y17842813D01*
X62888350Y17957907D01*
X62888354Y17957914D01*
X62938596Y18092621D01*
X62938598Y18092628D01*
X62944999Y18152156D01*
X62945000Y18152173D01*
X62945000Y18800000D01*
X62028686Y18800000D01*
X62054493Y18840156D01*
X62095000Y18978111D01*
X62095000Y19121889D01*
X62054493Y19259844D01*
X62028686Y19300000D01*
X62945000Y19300000D01*
X62945000Y19947828D01*
X62944999Y19947845D01*
X62938598Y20007373D01*
X62938596Y20007380D01*
X62888354Y20142087D01*
X62888350Y20142094D01*
X62802190Y20257188D01*
X62802187Y20257191D01*
X62687093Y20343351D01*
X62687086Y20343355D01*
X62552379Y20393597D01*
X62552372Y20393599D01*
X62492844Y20400000D01*
X61845000Y20400000D01*
X61845000Y19485502D01*
X61737315Y19534680D01*
X61630763Y19550000D01*
X61559237Y19550000D01*
X61452685Y19534680D01*
X61345000Y19485502D01*
X61345000Y20400000D01*
X60697155Y20400000D01*
X60637627Y20393599D01*
X60637620Y20393597D01*
X60502913Y20343355D01*
X60502906Y20343351D01*
X60387812Y20257191D01*
X60387809Y20257188D01*
X60301649Y20142094D01*
X60301645Y20142087D01*
X60251403Y20007380D01*
X60251401Y20007373D01*
X60245000Y19947845D01*
X60245000Y19300000D01*
X61161314Y19300000D01*
X61135507Y19259844D01*
X61095000Y19121889D01*
X61095000Y18978111D01*
X61135507Y18840156D01*
X61161314Y18800000D01*
X60245000Y18800000D01*
X60245000Y18152156D01*
X31233714Y18152156D01*
X31325739Y18349504D01*
X31384635Y18569308D01*
X31404468Y18796000D01*
X31384635Y19022692D01*
X31325739Y19242496D01*
X31229568Y19448734D01*
X31099047Y19635139D01*
X31099045Y19635142D01*
X30938141Y19796046D01*
X30751734Y19926568D01*
X30751732Y19926569D01*
X30545497Y20022739D01*
X30545488Y20022742D01*
X30325697Y20081634D01*
X30325693Y20081635D01*
X30325692Y20081635D01*
X30325691Y20081636D01*
X30325686Y20081636D01*
X30099002Y20101468D01*
X30098998Y20101468D01*
X29872313Y20081636D01*
X29872302Y20081634D01*
X29652511Y20022742D01*
X29652502Y20022739D01*
X29446267Y19926569D01*
X29446265Y19926568D01*
X29259858Y19796046D01*
X29098954Y19635142D01*
X28968432Y19448735D01*
X28968431Y19448733D01*
X28872261Y19242498D01*
X28872258Y19242489D01*
X28813366Y19022698D01*
X28813364Y19022687D01*
X28793532Y18796002D01*
X28793532Y18795999D01*
X16691130Y18795999D01*
X16691130Y18796000D01*
X16660797Y18877329D01*
X16660793Y18877336D01*
X16574547Y18992545D01*
X16574544Y18992548D01*
X16459335Y19078794D01*
X16459328Y19078798D01*
X16324482Y19129092D01*
X16324483Y19129092D01*
X16264883Y19135499D01*
X16264881Y19135500D01*
X16264873Y19135500D01*
X16264864Y19135500D01*
X14469129Y19135500D01*
X14469123Y19135499D01*
X14409516Y19129092D01*
X14274671Y19078798D01*
X14274664Y19078794D01*
X14159455Y18992548D01*
X14159452Y18992545D01*
X14073206Y18877336D01*
X14073202Y18877329D01*
X14022908Y18742483D01*
X14016501Y18682884D01*
X14016501Y18682877D01*
X14016500Y18682865D01*
X14016500Y16887130D01*
X14016501Y16887124D01*
X14022908Y16827517D01*
X14073202Y16692672D01*
X14073206Y16692665D01*
X14159452Y16577456D01*
X14159455Y16577453D01*
X14274664Y16491207D01*
X14274671Y16491203D01*
X14406081Y16442190D01*
X14462015Y16400319D01*
X14486432Y16334855D01*
X14471580Y16266582D01*
X14450430Y16238327D01*
X14328503Y16116400D01*
X14192965Y15922831D01*
X14192964Y15922829D01*
X14093098Y15708665D01*
X14093094Y15708656D01*
X14031938Y15480414D01*
X14031936Y15480404D01*
X14011341Y15245001D01*
X14011341Y15245000D01*
X500Y15245000D01*
X500Y22341999D01*
X37268532Y22341999D01*
X37288364Y22115314D01*
X37288366Y22115303D01*
X37347258Y21895512D01*
X37347261Y21895503D01*
X37443431Y21689268D01*
X37443432Y21689266D01*
X37573954Y21502859D01*
X37734858Y21341955D01*
X37734861Y21341953D01*
X37921266Y21211432D01*
X38127504Y21115261D01*
X38347308Y21056365D01*
X38517214Y21041501D01*
X38517215Y21041500D01*
X38517216Y21041500D01*
X39430785Y21041500D01*
X39430785Y21041501D01*
X39600692Y21056365D01*
X39820496Y21115261D01*
X40026734Y21211432D01*
X40213139Y21341953D01*
X40374047Y21502861D01*
X40504568Y21689266D01*
X40600739Y21895504D01*
X40659635Y22115308D01*
X40679468Y22342000D01*
X40659635Y22568692D01*
X40600739Y22788496D01*
X40504568Y22994734D01*
X40374047Y23181139D01*
X40374045Y23181142D01*
X40213141Y23342046D01*
X40026734Y23472568D01*
X40026728Y23472571D01*
X39968725Y23499618D01*
X39916285Y23545790D01*
X39897133Y23612983D01*
X39917348Y23679865D01*
X39968725Y23724382D01*
X40026734Y23751432D01*
X40213139Y23881953D01*
X40374047Y24042861D01*
X40504568Y24229266D01*
X40600739Y24435504D01*
X40659635Y24655308D01*
X40679468Y24881999D01*
X44888532Y24881999D01*
X44908364Y24655314D01*
X44908366Y24655303D01*
X44967258Y24435512D01*
X44967261Y24435503D01*
X45063431Y24229268D01*
X45063432Y24229266D01*
X45193954Y24042859D01*
X45354858Y23881955D01*
X45354861Y23881953D01*
X45541266Y23751432D01*
X45599865Y23724107D01*
X45652305Y23677935D01*
X45671457Y23610742D01*
X45651242Y23543861D01*
X45599867Y23499343D01*
X45541515Y23472133D01*
X45355179Y23341658D01*
X45194342Y23180821D01*
X45063865Y22994483D01*
X44967734Y22788327D01*
X44967730Y22788318D01*
X44915127Y22592001D01*
X44915128Y22592000D01*
X46160314Y22592000D01*
X46134507Y22551844D01*
X46094000Y22413889D01*
X46094000Y22270111D01*
X46134507Y22132156D01*
X46160314Y22092000D01*
X44915128Y22092000D01*
X44967730Y21895683D01*
X44967734Y21895674D01*
X45063865Y21689518D01*
X45194342Y21503180D01*
X45355179Y21342343D01*
X45541517Y21211866D01*
X45747673Y21115735D01*
X45747682Y21115731D01*
X45967389Y21056861D01*
X45967400Y21056859D01*
X46137233Y21042001D01*
X46137236Y21042000D01*
X46344000Y21042000D01*
X46344000Y21906499D01*
X46451685Y21857320D01*
X46558237Y21842000D01*
X46629763Y21842000D01*
X46736315Y21857320D01*
X46844000Y21906499D01*
X46844000Y21042000D01*
X47050764Y21042000D01*
X47050766Y21042001D01*
X47220599Y21056859D01*
X47220610Y21056861D01*
X47440317Y21115731D01*
X47440326Y21115735D01*
X47646482Y21211866D01*
X47832820Y21342343D01*
X47993657Y21503180D01*
X48124134Y21689518D01*
X48191506Y21833999D01*
X69272532Y21833999D01*
X69292364Y21607314D01*
X69292366Y21607303D01*
X69351258Y21387512D01*
X69351261Y21387503D01*
X69447431Y21181268D01*
X69447432Y21181266D01*
X69577954Y20994859D01*
X69738858Y20833955D01*
X69738861Y20833953D01*
X69925266Y20703432D01*
X70131504Y20607261D01*
X70351308Y20548365D01*
X70521214Y20533501D01*
X70521215Y20533500D01*
X70521216Y20533500D01*
X71434785Y20533500D01*
X71434785Y20533501D01*
X71604692Y20548365D01*
X71824496Y20607261D01*
X72030734Y20703432D01*
X72217139Y20833953D01*
X72378047Y20994861D01*
X72508568Y21181266D01*
X72604739Y21387504D01*
X72663635Y21607308D01*
X72683468Y21833999D01*
X76892532Y21833999D01*
X76912364Y21607314D01*
X76912366Y21607303D01*
X76971258Y21387512D01*
X76971261Y21387503D01*
X77067431Y21181268D01*
X77067432Y21181266D01*
X77197954Y20994859D01*
X77358858Y20833955D01*
X77358861Y20833953D01*
X77545266Y20703432D01*
X77751504Y20607261D01*
X77971308Y20548365D01*
X78141214Y20533501D01*
X78141215Y20533500D01*
X78141216Y20533500D01*
X79054785Y20533500D01*
X79054785Y20533501D01*
X79224692Y20548365D01*
X79444496Y20607261D01*
X79650734Y20703432D01*
X79837139Y20833953D01*
X79998047Y20994861D01*
X80128568Y21181266D01*
X80224739Y21387504D01*
X80283635Y21607308D01*
X80303468Y21834000D01*
X80283635Y22060692D01*
X80224739Y22280496D01*
X80128568Y22486734D01*
X79998047Y22673139D01*
X79998045Y22673142D01*
X79837141Y22834046D01*
X79650734Y22964568D01*
X79650728Y22964571D01*
X79592725Y22991618D01*
X79540285Y23037790D01*
X79521133Y23104983D01*
X79541348Y23171865D01*
X79592725Y23216382D01*
X79650734Y23243432D01*
X79837139Y23373953D01*
X79998047Y23534861D01*
X80128568Y23721266D01*
X80224739Y23927504D01*
X80283635Y24147308D01*
X80303468Y24374000D01*
X80283635Y24600692D01*
X80224739Y24820496D01*
X80128568Y25026734D01*
X79998047Y25213139D01*
X79998045Y25213142D01*
X79837141Y25374046D01*
X79650734Y25504568D01*
X79650728Y25504571D01*
X79592725Y25531618D01*
X79540285Y25577790D01*
X79521133Y25644983D01*
X79541348Y25711865D01*
X79592725Y25756382D01*
X79626497Y25772130D01*
X90465500Y25772130D01*
X90465501Y25772124D01*
X90471908Y25712517D01*
X90522202Y25577672D01*
X90522206Y25577665D01*
X90608452Y25462456D01*
X90608455Y25462453D01*
X90723664Y25376207D01*
X90723671Y25376203D01*
X90858517Y25325909D01*
X90858516Y25325909D01*
X90865444Y25325165D01*
X90918127Y25319500D01*
X92713872Y25319501D01*
X92773483Y25325909D01*
X92908331Y25376204D01*
X93023546Y25462454D01*
X93109796Y25577669D01*
X93158810Y25709084D01*
X93200681Y25765016D01*
X93266145Y25789434D01*
X93334418Y25774583D01*
X93362673Y25753431D01*
X93484599Y25631505D01*
X93581384Y25563735D01*
X93678165Y25495968D01*
X93678167Y25495967D01*
X93678170Y25495965D01*
X93892337Y25396097D01*
X94120592Y25334937D01*
X94297034Y25319500D01*
X94355999Y25314341D01*
X94356000Y25314341D01*
X94356001Y25314341D01*
X94414966Y25319500D01*
X94591408Y25334937D01*
X94819663Y25396097D01*
X95033830Y25495965D01*
X95227401Y25631505D01*
X95394495Y25798599D01*
X95530035Y25992170D01*
X95629903Y26206337D01*
X95691063Y26434592D01*
X95711659Y26670000D01*
X95691063Y26905408D01*
X95629903Y27133663D01*
X95530035Y27347829D01*
X95525112Y27354861D01*
X95394494Y27541403D01*
X95227402Y27708494D01*
X95227395Y27708499D01*
X95033834Y27844033D01*
X95033830Y27844035D01*
X94981369Y27868498D01*
X94819663Y27943903D01*
X94819659Y27943904D01*
X94819655Y27943906D01*
X94591413Y28005062D01*
X94591403Y28005064D01*
X94356001Y28025659D01*
X94355999Y28025659D01*
X94120596Y28005064D01*
X94120586Y28005062D01*
X93892344Y27943906D01*
X93892335Y27943902D01*
X93678171Y27844036D01*
X93678169Y27844035D01*
X93484600Y27708497D01*
X93362673Y27586570D01*
X93301350Y27553086D01*
X93231658Y27558070D01*
X93175725Y27599942D01*
X93158810Y27630919D01*
X93109797Y27762329D01*
X93109793Y27762336D01*
X93023547Y27877545D01*
X93023544Y27877548D01*
X92908335Y27963794D01*
X92908328Y27963798D01*
X92773482Y28014092D01*
X92773483Y28014092D01*
X92713883Y28020499D01*
X92713881Y28020500D01*
X92713873Y28020500D01*
X92713864Y28020500D01*
X90918129Y28020500D01*
X90918123Y28020499D01*
X90858516Y28014092D01*
X90723671Y27963798D01*
X90723664Y27963794D01*
X90608455Y27877548D01*
X90608452Y27877545D01*
X90522206Y27762336D01*
X90522202Y27762329D01*
X90471908Y27627483D01*
X90465501Y27567884D01*
X90465500Y27567865D01*
X90465500Y25772130D01*
X79626497Y25772130D01*
X79650734Y25783432D01*
X79837139Y25913953D01*
X79998047Y26074861D01*
X80128568Y26261266D01*
X80224739Y26467504D01*
X80283635Y26687308D01*
X80303468Y26914000D01*
X80283635Y27140692D01*
X80228133Y27347831D01*
X80224741Y27360489D01*
X80224738Y27360498D01*
X80128568Y27566733D01*
X80128567Y27566735D01*
X80127762Y27567884D01*
X79998047Y27753139D01*
X79998045Y27753142D01*
X79837141Y27914046D01*
X79650734Y28044568D01*
X79650728Y28044571D01*
X79592725Y28071618D01*
X79540285Y28117790D01*
X79521133Y28184983D01*
X79541348Y28251865D01*
X79592725Y28296382D01*
X79650734Y28323432D01*
X79837139Y28453953D01*
X79998047Y28614861D01*
X80128568Y28801266D01*
X80224739Y29007504D01*
X80283635Y29227308D01*
X80303468Y29454000D01*
X80283635Y29680692D01*
X80224739Y29900496D01*
X80128568Y30106734D01*
X79998047Y30293139D01*
X79998045Y30293142D01*
X79837141Y30454046D01*
X79650734Y30584568D01*
X79650732Y30584569D01*
X79444497Y30680739D01*
X79444488Y30680742D01*
X79224697Y30739634D01*
X79224687Y30739636D01*
X79054785Y30754500D01*
X79054784Y30754500D01*
X78141216Y30754500D01*
X78141215Y30754500D01*
X77971312Y30739636D01*
X77971302Y30739634D01*
X77751511Y30680742D01*
X77751502Y30680739D01*
X77545267Y30584569D01*
X77545265Y30584568D01*
X77358858Y30454046D01*
X77197954Y30293142D01*
X77067432Y30106735D01*
X77067431Y30106733D01*
X76971261Y29900498D01*
X76971258Y29900489D01*
X76912366Y29680698D01*
X76912364Y29680687D01*
X76892532Y29454002D01*
X76892532Y29453999D01*
X76912364Y29227314D01*
X76912366Y29227303D01*
X76971258Y29007512D01*
X76971261Y29007503D01*
X77067431Y28801268D01*
X77067432Y28801266D01*
X77197954Y28614859D01*
X77358858Y28453955D01*
X77379825Y28439274D01*
X77545266Y28323432D01*
X77603275Y28296382D01*
X77655714Y28250209D01*
X77674866Y28183016D01*
X77654650Y28116135D01*
X77603275Y28071618D01*
X77545267Y28044569D01*
X77545265Y28044568D01*
X77358858Y27914046D01*
X77197954Y27753142D01*
X77067432Y27566735D01*
X77067431Y27566733D01*
X76971261Y27360498D01*
X76971258Y27360489D01*
X76912366Y27140698D01*
X76912364Y27140687D01*
X76892532Y26914002D01*
X76892532Y26913999D01*
X76912364Y26687314D01*
X76912366Y26687303D01*
X76971258Y26467512D01*
X76971261Y26467503D01*
X77067431Y26261268D01*
X77067432Y26261266D01*
X77197954Y26074859D01*
X77358858Y25913955D01*
X77358861Y25913953D01*
X77545266Y25783432D01*
X77603275Y25756382D01*
X77655714Y25710209D01*
X77674866Y25643016D01*
X77654650Y25576135D01*
X77603275Y25531618D01*
X77545267Y25504569D01*
X77545265Y25504568D01*
X77358858Y25374046D01*
X77197954Y25213142D01*
X77067432Y25026735D01*
X77067431Y25026733D01*
X76971261Y24820498D01*
X76971258Y24820489D01*
X76912366Y24600698D01*
X76912364Y24600687D01*
X76892532Y24374002D01*
X76892532Y24373999D01*
X76912364Y24147314D01*
X76912366Y24147303D01*
X76971258Y23927512D01*
X76971261Y23927503D01*
X77067431Y23721268D01*
X77067432Y23721266D01*
X77197954Y23534859D01*
X77358858Y23373955D01*
X77358861Y23373953D01*
X77545266Y23243432D01*
X77603275Y23216382D01*
X77655714Y23170209D01*
X77674866Y23103016D01*
X77654650Y23036135D01*
X77603275Y22991618D01*
X77545267Y22964569D01*
X77545265Y22964568D01*
X77358858Y22834046D01*
X77197954Y22673142D01*
X77067432Y22486735D01*
X77067431Y22486733D01*
X76971261Y22280498D01*
X76971258Y22280489D01*
X76912366Y22060698D01*
X76912364Y22060687D01*
X76892532Y21834002D01*
X76892532Y21833999D01*
X72683468Y21833999D01*
X72683468Y21834000D01*
X72663635Y22060692D01*
X72604739Y22280496D01*
X72508568Y22486734D01*
X72378047Y22673139D01*
X72378045Y22673142D01*
X72217141Y22834046D01*
X72030734Y22964568D01*
X72030728Y22964571D01*
X71972725Y22991618D01*
X71920285Y23037790D01*
X71901133Y23104983D01*
X71921348Y23171865D01*
X71972725Y23216382D01*
X72030734Y23243432D01*
X72217139Y23373953D01*
X72378047Y23534861D01*
X72508568Y23721266D01*
X72604739Y23927504D01*
X72663635Y24147308D01*
X72683468Y24374000D01*
X72663635Y24600692D01*
X72604739Y24820496D01*
X72508568Y25026734D01*
X72378047Y25213139D01*
X72378045Y25213142D01*
X72217141Y25374046D01*
X72030734Y25504568D01*
X72030728Y25504571D01*
X71972725Y25531618D01*
X71920285Y25577790D01*
X71901133Y25644983D01*
X71921348Y25711865D01*
X71972725Y25756382D01*
X72030734Y25783432D01*
X72217139Y25913953D01*
X72378047Y26074861D01*
X72508568Y26261266D01*
X72604739Y26467504D01*
X72663635Y26687308D01*
X72683468Y26914000D01*
X72663635Y27140692D01*
X72608133Y27347831D01*
X72604741Y27360489D01*
X72604738Y27360498D01*
X72508568Y27566733D01*
X72508567Y27566735D01*
X72507762Y27567884D01*
X72378047Y27753139D01*
X72378045Y27753142D01*
X72217143Y27914044D01*
X72192536Y27931274D01*
X72148912Y27985851D01*
X72141719Y28055350D01*
X72173241Y28117704D01*
X72233471Y28153118D01*
X72250404Y28156139D01*
X72285483Y28159909D01*
X72420331Y28210204D01*
X72535546Y28296454D01*
X72621796Y28411669D01*
X72672091Y28546517D01*
X72678500Y28606127D01*
X72678499Y30301872D01*
X72672091Y30361483D01*
X72654556Y30408496D01*
X72621797Y30496329D01*
X72621793Y30496336D01*
X72535547Y30611545D01*
X72535544Y30611548D01*
X72420335Y30697794D01*
X72420328Y30697798D01*
X72285482Y30748092D01*
X72285483Y30748092D01*
X72225883Y30754499D01*
X72225881Y30754500D01*
X72225873Y30754500D01*
X72225864Y30754500D01*
X69730129Y30754500D01*
X69730123Y30754499D01*
X69670516Y30748092D01*
X69535671Y30697798D01*
X69535664Y30697794D01*
X69420455Y30611548D01*
X69420452Y30611545D01*
X69334206Y30496336D01*
X69334202Y30496329D01*
X69283908Y30361483D01*
X69277501Y30301884D01*
X69277501Y30301877D01*
X69277500Y30301865D01*
X69277500Y28606130D01*
X69277501Y28606124D01*
X69283908Y28546517D01*
X69334202Y28411672D01*
X69334206Y28411665D01*
X69420452Y28296456D01*
X69420455Y28296453D01*
X69535664Y28210207D01*
X69535671Y28210203D01*
X69579109Y28194002D01*
X69670517Y28159909D01*
X69705596Y28156138D01*
X69770144Y28129401D01*
X69809993Y28072009D01*
X69812488Y28002184D01*
X69776836Y27942095D01*
X69763464Y27931275D01*
X69738858Y27914046D01*
X69577954Y27753142D01*
X69447432Y27566735D01*
X69447431Y27566733D01*
X69351261Y27360498D01*
X69351258Y27360489D01*
X69292366Y27140698D01*
X69292364Y27140687D01*
X69272532Y26914002D01*
X69272532Y26913999D01*
X69292364Y26687314D01*
X69292366Y26687303D01*
X69351258Y26467512D01*
X69351261Y26467503D01*
X69447431Y26261268D01*
X69447432Y26261266D01*
X69577954Y26074859D01*
X69738858Y25913955D01*
X69738861Y25913953D01*
X69925266Y25783432D01*
X69983275Y25756382D01*
X70035714Y25710209D01*
X70054866Y25643016D01*
X70034650Y25576135D01*
X69983275Y25531618D01*
X69925267Y25504569D01*
X69925265Y25504568D01*
X69738858Y25374046D01*
X69577954Y25213142D01*
X69447432Y25026735D01*
X69447431Y25026733D01*
X69351261Y24820498D01*
X69351258Y24820489D01*
X69292366Y24600698D01*
X69292364Y24600687D01*
X69272532Y24374002D01*
X69272532Y24373999D01*
X69292364Y24147314D01*
X69292366Y24147303D01*
X69351258Y23927512D01*
X69351261Y23927503D01*
X69447431Y23721268D01*
X69447432Y23721266D01*
X69577954Y23534859D01*
X69738858Y23373955D01*
X69738861Y23373953D01*
X69925266Y23243432D01*
X69983275Y23216382D01*
X70035714Y23170209D01*
X70054866Y23103016D01*
X70034650Y23036135D01*
X69983275Y22991618D01*
X69925267Y22964569D01*
X69925265Y22964568D01*
X69738858Y22834046D01*
X69577954Y22673142D01*
X69447432Y22486735D01*
X69447431Y22486733D01*
X69351261Y22280498D01*
X69351258Y22280489D01*
X69292366Y22060698D01*
X69292364Y22060687D01*
X69272532Y21834002D01*
X69272532Y21833999D01*
X48191506Y21833999D01*
X48220265Y21895674D01*
X48220269Y21895683D01*
X48272872Y22092000D01*
X47027686Y22092000D01*
X47053493Y22132156D01*
X47094000Y22270111D01*
X47094000Y22413889D01*
X47053493Y22551844D01*
X47027686Y22592000D01*
X48272872Y22592000D01*
X48272872Y22592001D01*
X48220269Y22788318D01*
X48220265Y22788327D01*
X48124134Y22994483D01*
X47993657Y23180821D01*
X47832820Y23341658D01*
X47646482Y23472135D01*
X47588133Y23499343D01*
X47535694Y23545516D01*
X47516542Y23612709D01*
X47536758Y23679590D01*
X47588129Y23724105D01*
X47646734Y23751432D01*
X47833139Y23881953D01*
X47994047Y24042861D01*
X48124568Y24229266D01*
X48220739Y24435504D01*
X48279635Y24655308D01*
X48299468Y24882000D01*
X48279635Y25108692D01*
X48224532Y25314341D01*
X48220741Y25328489D01*
X48220738Y25328498D01*
X48217735Y25334937D01*
X48124568Y25534734D01*
X47994047Y25721139D01*
X47994045Y25721142D01*
X47833141Y25882046D01*
X47646734Y26012568D01*
X47646728Y26012571D01*
X47588725Y26039618D01*
X47536285Y26085790D01*
X47517133Y26152983D01*
X47537348Y26219865D01*
X47588725Y26264382D01*
X47646734Y26291432D01*
X47833139Y26421953D01*
X47994047Y26582861D01*
X48124568Y26769266D01*
X48220739Y26975504D01*
X48279635Y27195308D01*
X48299468Y27422000D01*
X48279635Y27648692D01*
X48220739Y27868496D01*
X48124568Y28074734D01*
X47994047Y28261139D01*
X47994045Y28261142D01*
X47833141Y28422046D01*
X47646734Y28552568D01*
X47646728Y28552571D01*
X47588725Y28579618D01*
X47536285Y28625790D01*
X47517133Y28692983D01*
X47537348Y28759865D01*
X47588725Y28804382D01*
X47646734Y28831432D01*
X47833139Y28961953D01*
X47994047Y29122861D01*
X48124568Y29309266D01*
X48220739Y29515504D01*
X48279635Y29735308D01*
X48299468Y29962000D01*
X48279635Y30188692D01*
X48220739Y30408496D01*
X48124568Y30614734D01*
X47994047Y30801139D01*
X47994045Y30801142D01*
X47833141Y30962046D01*
X47646734Y31092568D01*
X47646732Y31092569D01*
X47440497Y31188739D01*
X47440488Y31188742D01*
X47220697Y31247634D01*
X47220687Y31247636D01*
X47050785Y31262500D01*
X47050784Y31262500D01*
X46137216Y31262500D01*
X46137215Y31262500D01*
X45967312Y31247636D01*
X45967302Y31247634D01*
X45747511Y31188742D01*
X45747502Y31188739D01*
X45541267Y31092569D01*
X45541265Y31092568D01*
X45354858Y30962046D01*
X45193954Y30801142D01*
X45063432Y30614735D01*
X45063431Y30614733D01*
X44967261Y30408498D01*
X44967258Y30408489D01*
X44908366Y30188698D01*
X44908364Y30188687D01*
X44888532Y29962002D01*
X44888532Y29961999D01*
X44908364Y29735314D01*
X44908366Y29735303D01*
X44967258Y29515512D01*
X44967261Y29515503D01*
X45063431Y29309268D01*
X45063432Y29309266D01*
X45193954Y29122859D01*
X45354858Y28961955D01*
X45354861Y28961953D01*
X45541266Y28831432D01*
X45599275Y28804382D01*
X45651714Y28758209D01*
X45670866Y28691016D01*
X45650650Y28624135D01*
X45599275Y28579618D01*
X45541267Y28552569D01*
X45541265Y28552568D01*
X45354858Y28422046D01*
X45193954Y28261142D01*
X45063432Y28074735D01*
X45063431Y28074733D01*
X44967261Y27868498D01*
X44967258Y27868489D01*
X44908366Y27648698D01*
X44908364Y27648687D01*
X44888532Y27422002D01*
X44888532Y27421999D01*
X44908364Y27195314D01*
X44908366Y27195303D01*
X44967258Y26975512D01*
X44967261Y26975503D01*
X45063431Y26769268D01*
X45063432Y26769266D01*
X45193954Y26582859D01*
X45354858Y26421955D01*
X45354861Y26421953D01*
X45541266Y26291432D01*
X45599275Y26264382D01*
X45651714Y26218209D01*
X45670866Y26151016D01*
X45650650Y26084135D01*
X45599275Y26039618D01*
X45541267Y26012569D01*
X45541265Y26012568D01*
X45354858Y25882046D01*
X45193954Y25721142D01*
X45063432Y25534735D01*
X45063431Y25534733D01*
X44967261Y25328498D01*
X44967258Y25328489D01*
X44908366Y25108698D01*
X44908364Y25108687D01*
X44888532Y24882002D01*
X44888532Y24881999D01*
X40679468Y24881999D01*
X40679468Y24882000D01*
X40659635Y25108692D01*
X40604532Y25314341D01*
X40600741Y25328489D01*
X40600738Y25328498D01*
X40597735Y25334937D01*
X40504568Y25534734D01*
X40374047Y25721139D01*
X40374045Y25721142D01*
X40213141Y25882046D01*
X40026734Y26012568D01*
X40026728Y26012571D01*
X39968725Y26039618D01*
X39916285Y26085790D01*
X39897133Y26152983D01*
X39917348Y26219865D01*
X39968725Y26264382D01*
X40026734Y26291432D01*
X40213139Y26421953D01*
X40374047Y26582861D01*
X40504568Y26769266D01*
X40600739Y26975504D01*
X40659635Y27195308D01*
X40679468Y27422000D01*
X40659635Y27648692D01*
X40600739Y27868496D01*
X40504568Y28074734D01*
X40374047Y28261139D01*
X40374045Y28261142D01*
X40213143Y28422044D01*
X40188536Y28439274D01*
X40144912Y28493851D01*
X40137719Y28563350D01*
X40169241Y28625704D01*
X40229471Y28661118D01*
X40246404Y28664139D01*
X40281483Y28667909D01*
X40416331Y28718204D01*
X40531546Y28804454D01*
X40617796Y28919669D01*
X40668091Y29054517D01*
X40674500Y29114127D01*
X40674499Y30809872D01*
X40668091Y30869483D01*
X40633567Y30962046D01*
X40617797Y31004329D01*
X40617793Y31004336D01*
X40531547Y31119545D01*
X40531544Y31119548D01*
X40416335Y31205794D01*
X40416328Y31205798D01*
X40281482Y31256092D01*
X40281483Y31256092D01*
X40221883Y31262499D01*
X40221881Y31262500D01*
X40221873Y31262500D01*
X40221864Y31262500D01*
X37726129Y31262500D01*
X37726123Y31262499D01*
X37666516Y31256092D01*
X37531671Y31205798D01*
X37531664Y31205794D01*
X37416455Y31119548D01*
X37416452Y31119545D01*
X37330206Y31004336D01*
X37330202Y31004329D01*
X37279908Y30869483D01*
X37273501Y30809884D01*
X37273501Y30809877D01*
X37273500Y30809865D01*
X37273500Y29114130D01*
X37273501Y29114124D01*
X37279908Y29054517D01*
X37330202Y28919672D01*
X37330206Y28919665D01*
X37416452Y28804456D01*
X37416455Y28804453D01*
X37531664Y28718207D01*
X37531671Y28718203D01*
X37576618Y28701439D01*
X37666517Y28667909D01*
X37701596Y28664138D01*
X37766144Y28637401D01*
X37805993Y28580009D01*
X37808488Y28510184D01*
X37772836Y28450095D01*
X37759464Y28439275D01*
X37734858Y28422046D01*
X37573954Y28261142D01*
X37443432Y28074735D01*
X37443431Y28074733D01*
X37347261Y27868498D01*
X37347258Y27868489D01*
X37288366Y27648698D01*
X37288364Y27648687D01*
X37268532Y27422002D01*
X37268532Y27421999D01*
X37288364Y27195314D01*
X37288366Y27195303D01*
X37347258Y26975512D01*
X37347261Y26975503D01*
X37443431Y26769268D01*
X37443432Y26769266D01*
X37573954Y26582859D01*
X37734858Y26421955D01*
X37734861Y26421953D01*
X37921266Y26291432D01*
X37979275Y26264382D01*
X38031714Y26218209D01*
X38050866Y26151016D01*
X38030650Y26084135D01*
X37979275Y26039618D01*
X37921267Y26012569D01*
X37921265Y26012568D01*
X37734858Y25882046D01*
X37573954Y25721142D01*
X37443432Y25534735D01*
X37443431Y25534733D01*
X37347261Y25328498D01*
X37347258Y25328489D01*
X37288366Y25108698D01*
X37288364Y25108687D01*
X37268532Y24882002D01*
X37268532Y24881999D01*
X37288364Y24655314D01*
X37288366Y24655303D01*
X37347258Y24435512D01*
X37347261Y24435503D01*
X37443431Y24229268D01*
X37443432Y24229266D01*
X37573954Y24042859D01*
X37734858Y23881955D01*
X37734861Y23881953D01*
X37921266Y23751432D01*
X37979275Y23724382D01*
X38031714Y23678209D01*
X38050866Y23611016D01*
X38030650Y23544135D01*
X37979275Y23499618D01*
X37921267Y23472569D01*
X37921265Y23472568D01*
X37734858Y23342046D01*
X37573954Y23181142D01*
X37443432Y22994735D01*
X37443431Y22994733D01*
X37347261Y22788498D01*
X37347258Y22788489D01*
X37288366Y22568698D01*
X37288364Y22568687D01*
X37268532Y22342002D01*
X37268532Y22341999D01*
X500Y22341999D01*
X500Y24129999D01*
X14315532Y24129999D01*
X14335364Y23903314D01*
X14335366Y23903303D01*
X14394258Y23683512D01*
X14394261Y23683503D01*
X14490431Y23477268D01*
X14490432Y23477266D01*
X14620954Y23290859D01*
X14781858Y23129955D01*
X14781861Y23129953D01*
X14968266Y22999432D01*
X15174504Y22903261D01*
X15394308Y22844365D01*
X15556230Y22830199D01*
X15620998Y22824532D01*
X15621000Y22824532D01*
X15621002Y22824532D01*
X15677673Y22829491D01*
X15847692Y22844365D01*
X16067496Y22903261D01*
X16273734Y22999432D01*
X16460139Y23129953D01*
X16621047Y23290861D01*
X16751568Y23477266D01*
X16847739Y23683504D01*
X16906635Y23903308D01*
X16926468Y24129999D01*
X27015532Y24129999D01*
X27035364Y23903314D01*
X27035366Y23903303D01*
X27094258Y23683512D01*
X27094261Y23683503D01*
X27190431Y23477268D01*
X27190432Y23477266D01*
X27320954Y23290859D01*
X27481858Y23129955D01*
X27481861Y23129953D01*
X27668266Y22999432D01*
X27874504Y22903261D01*
X28094308Y22844365D01*
X28256230Y22830199D01*
X28320998Y22824532D01*
X28321000Y22824532D01*
X28321002Y22824532D01*
X28377673Y22829491D01*
X28547692Y22844365D01*
X28767496Y22903261D01*
X28973734Y22999432D01*
X29160139Y23129953D01*
X29321047Y23290861D01*
X29451568Y23477266D01*
X29547739Y23683504D01*
X29606635Y23903308D01*
X29626468Y24130000D01*
X29606635Y24356692D01*
X29547739Y24576496D01*
X29451568Y24782734D01*
X29321047Y24969139D01*
X29321045Y24969142D01*
X29160141Y25130046D01*
X28973734Y25260568D01*
X28973732Y25260569D01*
X28767497Y25356739D01*
X28767488Y25356742D01*
X28547697Y25415634D01*
X28547693Y25415635D01*
X28547692Y25415635D01*
X28547691Y25415636D01*
X28547686Y25415636D01*
X28321002Y25435468D01*
X28320998Y25435468D01*
X28094313Y25415636D01*
X28094302Y25415634D01*
X27874511Y25356742D01*
X27874502Y25356739D01*
X27668267Y25260569D01*
X27668265Y25260568D01*
X27481858Y25130046D01*
X27320954Y24969142D01*
X27190432Y24782735D01*
X27190431Y24782733D01*
X27094261Y24576498D01*
X27094258Y24576489D01*
X27035366Y24356698D01*
X27035364Y24356687D01*
X27015532Y24130002D01*
X27015532Y24129999D01*
X16926468Y24129999D01*
X16926468Y24130000D01*
X16906635Y24356692D01*
X16847739Y24576496D01*
X16751568Y24782734D01*
X16621047Y24969139D01*
X16621045Y24969142D01*
X16460141Y25130046D01*
X16273734Y25260568D01*
X16273732Y25260569D01*
X16067497Y25356739D01*
X16067488Y25356742D01*
X15847697Y25415634D01*
X15847693Y25415635D01*
X15847692Y25415635D01*
X15847691Y25415636D01*
X15847686Y25415636D01*
X15621002Y25435468D01*
X15620998Y25435468D01*
X15394313Y25415636D01*
X15394302Y25415634D01*
X15174511Y25356742D01*
X15174502Y25356739D01*
X14968267Y25260569D01*
X14968265Y25260568D01*
X14781858Y25130046D01*
X14620954Y24969142D01*
X14490432Y24782735D01*
X14490431Y24782733D01*
X14394261Y24576498D01*
X14394258Y24576489D01*
X14335366Y24356698D01*
X14335364Y24356687D01*
X14315532Y24130002D01*
X14315532Y24129999D01*
X500Y24129999D01*
X500Y28193999D01*
X14315532Y28193999D01*
X14335364Y27967314D01*
X14335366Y27967303D01*
X14394258Y27747512D01*
X14394261Y27747503D01*
X14490431Y27541268D01*
X14490432Y27541266D01*
X14620954Y27354859D01*
X14781858Y27193955D01*
X14781861Y27193953D01*
X14968266Y27063432D01*
X15174504Y26967261D01*
X15394308Y26908365D01*
X15556230Y26894199D01*
X15620998Y26888532D01*
X15621000Y26888532D01*
X15621002Y26888532D01*
X15677673Y26893491D01*
X15847692Y26908365D01*
X16067496Y26967261D01*
X16273734Y27063432D01*
X16460139Y27193953D01*
X16621047Y27354861D01*
X16751568Y27541266D01*
X16847739Y27747504D01*
X16906635Y27967308D01*
X16926468Y28193999D01*
X27015532Y28193999D01*
X27035364Y27967314D01*
X27035366Y27967303D01*
X27094258Y27747512D01*
X27094261Y27747503D01*
X27190431Y27541268D01*
X27190432Y27541266D01*
X27320954Y27354859D01*
X27481858Y27193955D01*
X27481861Y27193953D01*
X27668266Y27063432D01*
X27874504Y26967261D01*
X28094308Y26908365D01*
X28256230Y26894199D01*
X28320998Y26888532D01*
X28321000Y26888532D01*
X28321002Y26888532D01*
X28377673Y26893491D01*
X28547692Y26908365D01*
X28767496Y26967261D01*
X28973734Y27063432D01*
X29160139Y27193953D01*
X29321047Y27354861D01*
X29451568Y27541266D01*
X29547739Y27747504D01*
X29606635Y27967308D01*
X29626468Y28194000D01*
X29625050Y28210203D01*
X29617511Y28296382D01*
X29606635Y28420692D01*
X29552123Y28624135D01*
X29547741Y28640489D01*
X29547738Y28640498D01*
X29511503Y28718204D01*
X29451568Y28846734D01*
X29321047Y29033139D01*
X29321045Y29033142D01*
X29160141Y29194046D01*
X28973734Y29324568D01*
X28973732Y29324569D01*
X28767497Y29420739D01*
X28767488Y29420742D01*
X28547697Y29479634D01*
X28547693Y29479635D01*
X28547692Y29479635D01*
X28547691Y29479636D01*
X28547686Y29479636D01*
X28321002Y29499468D01*
X28320998Y29499468D01*
X28094313Y29479636D01*
X28094302Y29479634D01*
X27874511Y29420742D01*
X27874502Y29420739D01*
X27668267Y29324569D01*
X27668265Y29324568D01*
X27481858Y29194046D01*
X27320954Y29033142D01*
X27190432Y28846735D01*
X27190431Y28846733D01*
X27094261Y28640498D01*
X27094258Y28640489D01*
X27035366Y28420698D01*
X27035364Y28420687D01*
X27015532Y28194002D01*
X27015532Y28193999D01*
X16926468Y28193999D01*
X16926468Y28194000D01*
X16925050Y28210203D01*
X16917511Y28296382D01*
X16906635Y28420692D01*
X16852123Y28624135D01*
X16847741Y28640489D01*
X16847738Y28640498D01*
X16811503Y28718204D01*
X16751568Y28846734D01*
X16621047Y29033139D01*
X16621045Y29033142D01*
X16460141Y29194046D01*
X16273734Y29324568D01*
X16273732Y29324569D01*
X16067497Y29420739D01*
X16067488Y29420742D01*
X15847697Y29479634D01*
X15847693Y29479635D01*
X15847692Y29479635D01*
X15847691Y29479636D01*
X15847686Y29479636D01*
X15621002Y29499468D01*
X15620998Y29499468D01*
X15394313Y29479636D01*
X15394302Y29479634D01*
X15174511Y29420742D01*
X15174502Y29420739D01*
X14968267Y29324569D01*
X14968265Y29324568D01*
X14781858Y29194046D01*
X14620954Y29033142D01*
X14490432Y28846735D01*
X14490431Y28846733D01*
X14394261Y28640498D01*
X14394258Y28640489D01*
X14335366Y28420698D01*
X14335364Y28420687D01*
X14315532Y28194002D01*
X14315532Y28193999D01*
X500Y28193999D01*
X500Y34549000D01*
X14011341Y34549000D01*
X14031936Y34313597D01*
X14031938Y34313587D01*
X14093094Y34085345D01*
X14093096Y34085341D01*
X14093097Y34085337D01*
X14151915Y33959202D01*
X14192965Y33871170D01*
X14192967Y33871166D01*
X14274524Y33754692D01*
X14328505Y33677599D01*
X14495599Y33510505D01*
X14592384Y33442735D01*
X14689165Y33374968D01*
X14689167Y33374967D01*
X14689170Y33374965D01*
X14903337Y33275097D01*
X15131592Y33213937D01*
X15314732Y33197914D01*
X15366999Y33193341D01*
X15367000Y33193341D01*
X15367001Y33193341D01*
X15419268Y33197914D01*
X15602408Y33213937D01*
X15830663Y33275097D01*
X16044830Y33374965D01*
X16238401Y33510505D01*
X16255895Y33527999D01*
X28793532Y33527999D01*
X28813364Y33301314D01*
X28813366Y33301303D01*
X28872258Y33081512D01*
X28872261Y33081503D01*
X28968431Y32875268D01*
X28968432Y32875266D01*
X29098954Y32688859D01*
X29259858Y32527955D01*
X29259861Y32527953D01*
X29446266Y32397432D01*
X29652504Y32301261D01*
X29872308Y32242365D01*
X30034230Y32228199D01*
X30098998Y32222532D01*
X30099000Y32222532D01*
X30099002Y32222532D01*
X30155673Y32227491D01*
X30325692Y32242365D01*
X30545496Y32301261D01*
X30751734Y32397432D01*
X30938139Y32527953D01*
X31099047Y32688861D01*
X31229568Y32875266D01*
X31325739Y33081504D01*
X31384635Y33301308D01*
X31392583Y33392156D01*
X68881000Y33392156D01*
X68887401Y33332628D01*
X68887403Y33332621D01*
X68937645Y33197914D01*
X68937649Y33197907D01*
X69023809Y33082813D01*
X69023812Y33082810D01*
X69138906Y32996650D01*
X69138913Y32996646D01*
X69273620Y32946404D01*
X69273627Y32946402D01*
X69333155Y32940001D01*
X69333172Y32940000D01*
X69981000Y32940000D01*
X69981000Y33854499D01*
X70088685Y33805320D01*
X70195237Y33790000D01*
X70266763Y33790000D01*
X70373315Y33805320D01*
X70481000Y33854499D01*
X70481000Y32940000D01*
X71128828Y32940000D01*
X71128844Y32940001D01*
X71188372Y32946402D01*
X71188379Y32946404D01*
X71323086Y32996646D01*
X71323093Y32996650D01*
X71438187Y33082810D01*
X71438190Y33082813D01*
X71524350Y33197907D01*
X71524354Y33197914D01*
X71574596Y33332621D01*
X71574598Y33332628D01*
X71580999Y33392156D01*
X71581000Y33392173D01*
X71581000Y34040000D01*
X70664686Y34040000D01*
X70690493Y34080156D01*
X70731000Y34218111D01*
X70731000Y34361889D01*
X70690493Y34499844D01*
X70664686Y34540000D01*
X71581000Y34540000D01*
X71581000Y35187828D01*
X71580999Y35187845D01*
X71574598Y35247373D01*
X71574596Y35247380D01*
X71524354Y35382087D01*
X71524350Y35382094D01*
X71438190Y35497188D01*
X71438187Y35497191D01*
X71323093Y35583351D01*
X71323086Y35583355D01*
X71188379Y35633597D01*
X71188372Y35633599D01*
X71128844Y35640000D01*
X70481000Y35640000D01*
X70481000Y34725502D01*
X70373315Y34774680D01*
X70266763Y34790000D01*
X70195237Y34790000D01*
X70088685Y34774680D01*
X69981000Y34725502D01*
X69981000Y35640000D01*
X69333155Y35640000D01*
X69273627Y35633599D01*
X69273620Y35633597D01*
X69138913Y35583355D01*
X69138906Y35583351D01*
X69023812Y35497191D01*
X69023809Y35497188D01*
X68937649Y35382094D01*
X68937645Y35382087D01*
X68887403Y35247380D01*
X68887401Y35247373D01*
X68881000Y35187845D01*
X68881000Y34540000D01*
X69797314Y34540000D01*
X69771507Y34499844D01*
X69731000Y34361889D01*
X69731000Y34218111D01*
X69771507Y34080156D01*
X69797314Y34040000D01*
X68881000Y34040000D01*
X68881000Y33392156D01*
X31392583Y33392156D01*
X31404468Y33528000D01*
X31384635Y33754692D01*
X31325739Y33974496D01*
X31229568Y34180734D01*
X31099047Y34367139D01*
X31099045Y34367142D01*
X30938141Y34528046D01*
X30751734Y34658568D01*
X30751732Y34658569D01*
X30545497Y34754739D01*
X30545488Y34754742D01*
X30325697Y34813634D01*
X30325693Y34813635D01*
X30325692Y34813635D01*
X30325691Y34813636D01*
X30325686Y34813636D01*
X30099002Y34833468D01*
X30098998Y34833468D01*
X29872313Y34813636D01*
X29872302Y34813634D01*
X29652511Y34754742D01*
X29652502Y34754739D01*
X29446267Y34658569D01*
X29446265Y34658568D01*
X29259858Y34528046D01*
X29098954Y34367142D01*
X28968432Y34180735D01*
X28968431Y34180733D01*
X28872261Y33974498D01*
X28872258Y33974489D01*
X28813366Y33754698D01*
X28813364Y33754687D01*
X28793532Y33528002D01*
X28793532Y33527999D01*
X16255895Y33527999D01*
X16405495Y33677599D01*
X16541035Y33871170D01*
X16640903Y34085337D01*
X16702063Y34313592D01*
X16722659Y34549000D01*
X16702063Y34784408D01*
X16640903Y35012663D01*
X16541035Y35226829D01*
X16538463Y35230502D01*
X16485600Y35305999D01*
X35143532Y35305999D01*
X35163364Y35079314D01*
X35163366Y35079303D01*
X35222258Y34859512D01*
X35222261Y34859503D01*
X35318431Y34653268D01*
X35318432Y34653266D01*
X35448954Y34466859D01*
X35609858Y34305955D01*
X35609861Y34305953D01*
X35796266Y34175432D01*
X36002504Y34079261D01*
X36222308Y34020365D01*
X36384230Y34006199D01*
X36448998Y34000532D01*
X36449000Y34000532D01*
X36449002Y34000532D01*
X36505673Y34005491D01*
X36675692Y34020365D01*
X36895496Y34079261D01*
X37101734Y34175432D01*
X37288139Y34305953D01*
X37449047Y34466861D01*
X37579568Y34653266D01*
X37675739Y34859504D01*
X37734635Y35079308D01*
X37751634Y35273616D01*
X37754468Y35305999D01*
X47843532Y35305999D01*
X47863364Y35079314D01*
X47863366Y35079303D01*
X47922258Y34859512D01*
X47922261Y34859503D01*
X48018431Y34653268D01*
X48018432Y34653266D01*
X48148954Y34466859D01*
X48309858Y34305955D01*
X48309861Y34305953D01*
X48496266Y34175432D01*
X48702504Y34079261D01*
X48922308Y34020365D01*
X49084230Y34006199D01*
X49148998Y34000532D01*
X49149000Y34000532D01*
X49149002Y34000532D01*
X49205673Y34005491D01*
X49375692Y34020365D01*
X49595496Y34079261D01*
X49801734Y34175432D01*
X49988139Y34305953D01*
X50149047Y34466861D01*
X50279568Y34653266D01*
X50375739Y34859504D01*
X50434635Y35079308D01*
X50451634Y35273616D01*
X50454468Y35305999D01*
X50454468Y35306002D01*
X50438487Y35488665D01*
X50434635Y35532692D01*
X50394325Y35683130D01*
X90465500Y35683130D01*
X90465501Y35683124D01*
X90471908Y35623517D01*
X90522202Y35488672D01*
X90522206Y35488665D01*
X90608452Y35373456D01*
X90608455Y35373453D01*
X90723664Y35287207D01*
X90723671Y35287203D01*
X90858517Y35236909D01*
X90858516Y35236909D01*
X90865444Y35236165D01*
X90918127Y35230500D01*
X92713872Y35230501D01*
X92773483Y35236909D01*
X92908331Y35287204D01*
X93023546Y35373454D01*
X93109796Y35488669D01*
X93158810Y35620084D01*
X93200681Y35676016D01*
X93266145Y35700434D01*
X93334418Y35685583D01*
X93362673Y35664431D01*
X93484599Y35542505D01*
X93581384Y35474735D01*
X93678165Y35406968D01*
X93678167Y35406967D01*
X93678170Y35406965D01*
X93892337Y35307097D01*
X93892343Y35307096D01*
X93892344Y35307095D01*
X93947285Y35292374D01*
X94120592Y35245937D01*
X94297034Y35230500D01*
X94355999Y35225341D01*
X94356000Y35225341D01*
X94356001Y35225341D01*
X94414966Y35230500D01*
X94591408Y35245937D01*
X94819663Y35307097D01*
X95033830Y35406965D01*
X95227401Y35542505D01*
X95394495Y35709599D01*
X95530035Y35903170D01*
X95629903Y36117337D01*
X95691063Y36345592D01*
X95711659Y36581000D01*
X95710728Y36591636D01*
X95691063Y36816404D01*
X95691063Y36816408D01*
X95629903Y37044663D01*
X95530035Y37258829D01*
X95394495Y37452401D01*
X95394494Y37452403D01*
X95227402Y37619494D01*
X95227395Y37619499D01*
X95033834Y37755033D01*
X95033830Y37755035D01*
X95033828Y37755036D01*
X94819663Y37854903D01*
X94819659Y37854904D01*
X94819655Y37854906D01*
X94591413Y37916062D01*
X94591403Y37916064D01*
X94356001Y37936659D01*
X94355999Y37936659D01*
X94120596Y37916064D01*
X94120586Y37916062D01*
X93892344Y37854906D01*
X93892335Y37854902D01*
X93678171Y37755036D01*
X93678169Y37755035D01*
X93484600Y37619497D01*
X93362673Y37497570D01*
X93301350Y37464086D01*
X93231658Y37469070D01*
X93175725Y37510942D01*
X93158810Y37541919D01*
X93109797Y37673329D01*
X93109793Y37673336D01*
X93023547Y37788545D01*
X93023544Y37788548D01*
X92908335Y37874794D01*
X92908328Y37874798D01*
X92773482Y37925092D01*
X92773483Y37925092D01*
X92713883Y37931499D01*
X92713881Y37931500D01*
X92713873Y37931500D01*
X92713864Y37931500D01*
X90918129Y37931500D01*
X90918123Y37931499D01*
X90858516Y37925092D01*
X90723671Y37874798D01*
X90723664Y37874794D01*
X90608455Y37788548D01*
X90608452Y37788545D01*
X90522206Y37673336D01*
X90522202Y37673329D01*
X90471908Y37538483D01*
X90465501Y37478884D01*
X90465500Y37478865D01*
X90465500Y35683130D01*
X50394325Y35683130D01*
X50375739Y35752496D01*
X50279568Y35958734D01*
X50158585Y36131517D01*
X50149045Y36145142D01*
X49988141Y36306046D01*
X49801734Y36436568D01*
X49801732Y36436569D01*
X49595497Y36532739D01*
X49595488Y36532742D01*
X49375697Y36591634D01*
X49375693Y36591635D01*
X49375692Y36591635D01*
X49375691Y36591636D01*
X49375686Y36591636D01*
X49149002Y36611468D01*
X49148998Y36611468D01*
X48922313Y36591636D01*
X48922302Y36591634D01*
X48702511Y36532742D01*
X48702502Y36532739D01*
X48496267Y36436569D01*
X48496265Y36436568D01*
X48309858Y36306046D01*
X48148954Y36145142D01*
X48018432Y35958735D01*
X48018431Y35958733D01*
X47922261Y35752498D01*
X47922258Y35752489D01*
X47863366Y35532698D01*
X47863364Y35532687D01*
X47843532Y35306002D01*
X47843532Y35305999D01*
X37754468Y35305999D01*
X37754468Y35306002D01*
X37738487Y35488665D01*
X37734635Y35532692D01*
X37675739Y35752496D01*
X37579568Y35958734D01*
X37458585Y36131517D01*
X37449045Y36145142D01*
X37288141Y36306046D01*
X37101734Y36436568D01*
X37101732Y36436569D01*
X36895497Y36532739D01*
X36895488Y36532742D01*
X36675697Y36591634D01*
X36675693Y36591635D01*
X36675692Y36591635D01*
X36675691Y36591636D01*
X36675686Y36591636D01*
X36449002Y36611468D01*
X36448998Y36611468D01*
X36222313Y36591636D01*
X36222302Y36591634D01*
X36002511Y36532742D01*
X36002502Y36532739D01*
X35796267Y36436569D01*
X35796265Y36436568D01*
X35609858Y36306046D01*
X35448954Y36145142D01*
X35318432Y35958735D01*
X35318431Y35958733D01*
X35222261Y35752498D01*
X35222258Y35752489D01*
X35163366Y35532698D01*
X35163364Y35532687D01*
X35143532Y35306002D01*
X35143532Y35305999D01*
X16485600Y35305999D01*
X16405496Y35420400D01*
X16405495Y35420401D01*
X16283567Y35542329D01*
X16250084Y35603649D01*
X16255068Y35673341D01*
X16296939Y35729275D01*
X16327915Y35746190D01*
X16459331Y35795204D01*
X16574546Y35881454D01*
X16660796Y35996669D01*
X16711091Y36131517D01*
X16717500Y36191127D01*
X16717499Y37986872D01*
X16711091Y38046483D01*
X16660796Y38181331D01*
X16660795Y38181332D01*
X16660793Y38181336D01*
X16574547Y38296545D01*
X16574544Y38296548D01*
X16459335Y38382794D01*
X16459328Y38382798D01*
X16324482Y38433092D01*
X16324483Y38433092D01*
X16264883Y38439499D01*
X16264881Y38439500D01*
X16264873Y38439500D01*
X16264864Y38439500D01*
X14469129Y38439500D01*
X14469123Y38439499D01*
X14409516Y38433092D01*
X14274671Y38382798D01*
X14274664Y38382794D01*
X14159455Y38296548D01*
X14159452Y38296545D01*
X14073206Y38181336D01*
X14073202Y38181329D01*
X14022908Y38046483D01*
X14016501Y37986884D01*
X14016501Y37986877D01*
X14016500Y37986865D01*
X14016500Y36191130D01*
X14016501Y36191124D01*
X14022908Y36131517D01*
X14073202Y35996672D01*
X14073206Y35996665D01*
X14159452Y35881456D01*
X14159455Y35881453D01*
X14274664Y35795207D01*
X14274671Y35795203D01*
X14406081Y35746190D01*
X14462015Y35704319D01*
X14486432Y35638855D01*
X14471580Y35570582D01*
X14450430Y35542327D01*
X14328503Y35420400D01*
X14192965Y35226831D01*
X14192964Y35226829D01*
X14093098Y35012665D01*
X14093094Y35012656D01*
X14031938Y34784414D01*
X14031936Y34784404D01*
X14011341Y34549001D01*
X14011341Y34549000D01*
X500Y34549000D01*
X500Y39629000D01*
X52111341Y39629000D01*
X52131936Y39393597D01*
X52131938Y39393587D01*
X52193094Y39165345D01*
X52193096Y39165341D01*
X52193097Y39165337D01*
X52292965Y38951170D01*
X52292967Y38951166D01*
X52401281Y38796479D01*
X52428505Y38757599D01*
X52595599Y38590505D01*
X52692384Y38522735D01*
X52789165Y38454968D01*
X52789167Y38454967D01*
X52789170Y38454965D01*
X53003337Y38355097D01*
X53231592Y38293937D01*
X53419918Y38277461D01*
X53466999Y38273341D01*
X53467000Y38273341D01*
X53467001Y38273341D01*
X53506234Y38276774D01*
X53702408Y38293937D01*
X53930663Y38355097D01*
X54144830Y38454965D01*
X54338401Y38590505D01*
X54505495Y38757599D01*
X54641035Y38951170D01*
X54740903Y39165337D01*
X54802063Y39393592D01*
X54822659Y39629000D01*
X54802063Y39864408D01*
X54740903Y40092663D01*
X54641035Y40306829D01*
X54505495Y40500401D01*
X54383567Y40622329D01*
X54350084Y40683649D01*
X54355068Y40753341D01*
X54396939Y40809275D01*
X54427915Y40826190D01*
X54559331Y40875204D01*
X54674546Y40961454D01*
X54760796Y41076669D01*
X54811091Y41211517D01*
X54817500Y41271127D01*
X54817499Y43066872D01*
X54811091Y43126483D01*
X54760796Y43261331D01*
X54760795Y43261332D01*
X54760793Y43261336D01*
X54674547Y43376545D01*
X54674544Y43376548D01*
X54559335Y43462794D01*
X54559328Y43462798D01*
X54424482Y43513092D01*
X54424483Y43513092D01*
X54364883Y43519499D01*
X54364881Y43519500D01*
X54364873Y43519500D01*
X54364864Y43519500D01*
X52569129Y43519500D01*
X52569123Y43519499D01*
X52509516Y43513092D01*
X52374671Y43462798D01*
X52374664Y43462794D01*
X52259455Y43376548D01*
X52259452Y43376545D01*
X52173206Y43261336D01*
X52173202Y43261329D01*
X52122908Y43126483D01*
X52116501Y43066884D01*
X52116501Y43066877D01*
X52116500Y43066865D01*
X52116500Y41271130D01*
X52116501Y41271124D01*
X52122908Y41211517D01*
X52173202Y41076672D01*
X52173206Y41076665D01*
X52259452Y40961456D01*
X52259455Y40961453D01*
X52374664Y40875207D01*
X52374671Y40875203D01*
X52506081Y40826190D01*
X52562015Y40784319D01*
X52586432Y40718855D01*
X52571580Y40650582D01*
X52550430Y40622327D01*
X52428503Y40500400D01*
X52292965Y40306831D01*
X52292964Y40306829D01*
X52193098Y40092665D01*
X52193094Y40092656D01*
X52131938Y39864414D01*
X52131936Y39864404D01*
X52111341Y39629001D01*
X52111341Y39629000D01*
X500Y39629000D01*
X500Y45398237D01*
X2844787Y45398237D01*
X2874413Y45128987D01*
X2874415Y45128976D01*
X2942926Y44866918D01*
X2942928Y44866912D01*
X3048870Y44617610D01*
X3120998Y44499425D01*
X3189979Y44386395D01*
X3189986Y44386385D01*
X3363253Y44178181D01*
X3363259Y44178176D01*
X3564998Y43997418D01*
X3790910Y43847956D01*
X4036176Y43732980D01*
X4036183Y43732978D01*
X4036185Y43732977D01*
X4295557Y43654943D01*
X4295564Y43654942D01*
X4295569Y43654940D01*
X4563561Y43615500D01*
X4563566Y43615500D01*
X4766629Y43615500D01*
X4766631Y43615500D01*
X4766636Y43615501D01*
X4766648Y43615501D01*
X4804191Y43618250D01*
X4969156Y43630323D01*
X5081758Y43655407D01*
X5233546Y43689218D01*
X5233548Y43689219D01*
X5233553Y43689220D01*
X5486558Y43785986D01*
X5722777Y43918559D01*
X5937177Y44084112D01*
X6125186Y44279119D01*
X6282799Y44499421D01*
X6356787Y44643331D01*
X6406649Y44740310D01*
X6406651Y44740316D01*
X6406656Y44740325D01*
X6494118Y44996695D01*
X6543319Y45263067D01*
X6553212Y45533765D01*
X6523586Y45803018D01*
X6455072Y46065088D01*
X6385843Y46227998D01*
X28794034Y46227998D01*
X28813858Y46001401D01*
X28813860Y46001390D01*
X28872730Y45781683D01*
X28872735Y45781669D01*
X28968863Y45575522D01*
X29019974Y45502528D01*
X29701046Y46183600D01*
X29713835Y46102852D01*
X29771359Y45989955D01*
X29860955Y45900359D01*
X29973852Y45842835D01*
X30054599Y45830047D01*
X29373526Y45148975D01*
X29446513Y45097868D01*
X29446521Y45097864D01*
X29652668Y45001736D01*
X29652682Y45001731D01*
X29872389Y44942861D01*
X29872400Y44942859D01*
X30098998Y44923034D01*
X30099002Y44923034D01*
X30325599Y44942859D01*
X30325610Y44942861D01*
X30545317Y45001731D01*
X30545331Y45001736D01*
X30751478Y45097864D01*
X30824471Y45148976D01*
X30575210Y45398237D01*
X93268787Y45398237D01*
X93298413Y45128987D01*
X93298415Y45128976D01*
X93366926Y44866918D01*
X93366928Y44866912D01*
X93472870Y44617610D01*
X93544998Y44499425D01*
X93613979Y44386395D01*
X93613986Y44386385D01*
X93787253Y44178181D01*
X93787259Y44178176D01*
X93988998Y43997418D01*
X94214910Y43847956D01*
X94460176Y43732980D01*
X94460183Y43732978D01*
X94460185Y43732977D01*
X94719557Y43654943D01*
X94719564Y43654942D01*
X94719569Y43654940D01*
X94987561Y43615500D01*
X94987566Y43615500D01*
X95190629Y43615500D01*
X95190631Y43615500D01*
X95190636Y43615501D01*
X95190648Y43615501D01*
X95228191Y43618250D01*
X95393156Y43630323D01*
X95505758Y43655407D01*
X95657546Y43689218D01*
X95657548Y43689219D01*
X95657553Y43689220D01*
X95910558Y43785986D01*
X96146777Y43918559D01*
X96361177Y44084112D01*
X96549186Y44279119D01*
X96706799Y44499421D01*
X96780787Y44643331D01*
X96830649Y44740310D01*
X96830651Y44740316D01*
X96830656Y44740325D01*
X96918118Y44996695D01*
X96967319Y45263067D01*
X96977212Y45533765D01*
X96947586Y45803018D01*
X96879072Y46065088D01*
X96773130Y46314390D01*
X96632018Y46545610D01*
X96542747Y46652881D01*
X96458746Y46753820D01*
X96458740Y46753825D01*
X96257002Y46934582D01*
X96031092Y47084043D01*
X96031090Y47084044D01*
X95785824Y47199020D01*
X95785819Y47199022D01*
X95785814Y47199024D01*
X95526442Y47277058D01*
X95526428Y47277061D01*
X95410791Y47294079D01*
X95258439Y47316500D01*
X95055369Y47316500D01*
X95055351Y47316500D01*
X94852844Y47301677D01*
X94852831Y47301675D01*
X94588453Y47242783D01*
X94588446Y47242780D01*
X94335439Y47146013D01*
X94099226Y47013443D01*
X93884822Y46847888D01*
X93696822Y46652891D01*
X93696816Y46652884D01*
X93539202Y46432581D01*
X93539199Y46432576D01*
X93415350Y46191691D01*
X93415343Y46191673D01*
X93327884Y45935315D01*
X93327881Y45935301D01*
X93278681Y45668932D01*
X93278680Y45668925D01*
X93268787Y45398237D01*
X30575210Y45398237D01*
X30143400Y45830047D01*
X30224148Y45842835D01*
X30337045Y45900359D01*
X30426641Y45989955D01*
X30484165Y46102852D01*
X30496953Y46183600D01*
X31178024Y45502529D01*
X31229136Y45575522D01*
X31325264Y45781669D01*
X31325269Y45781683D01*
X31384139Y46001390D01*
X31384141Y46001401D01*
X31403966Y46227998D01*
X31403966Y46228003D01*
X31384141Y46454600D01*
X31384139Y46454611D01*
X31325269Y46674318D01*
X31325264Y46674332D01*
X31229136Y46880479D01*
X31229132Y46880487D01*
X31178025Y46953474D01*
X30496953Y46272402D01*
X30484165Y46353148D01*
X30426641Y46466045D01*
X30337045Y46555641D01*
X30224148Y46613165D01*
X30143401Y46625954D01*
X30824472Y47307026D01*
X30751478Y47358137D01*
X30545331Y47454265D01*
X30545317Y47454270D01*
X30325610Y47513140D01*
X30325599Y47513142D01*
X30099002Y47532966D01*
X30098998Y47532966D01*
X29872400Y47513142D01*
X29872389Y47513140D01*
X29652682Y47454270D01*
X29652673Y47454266D01*
X29446516Y47358134D01*
X29446512Y47358132D01*
X29373526Y47307027D01*
X29373526Y47307026D01*
X30054599Y46625954D01*
X29973852Y46613165D01*
X29860955Y46555641D01*
X29771359Y46466045D01*
X29713835Y46353148D01*
X29701046Y46272402D01*
X29019974Y46953474D01*
X29019973Y46953474D01*
X28968868Y46880488D01*
X28968866Y46880484D01*
X28872734Y46674327D01*
X28872730Y46674318D01*
X28813860Y46454611D01*
X28813858Y46454600D01*
X28794034Y46228003D01*
X28794034Y46227998D01*
X6385843Y46227998D01*
X6349130Y46314390D01*
X6208018Y46545610D01*
X6118747Y46652881D01*
X6034746Y46753820D01*
X6034740Y46753825D01*
X5833002Y46934582D01*
X5607092Y47084043D01*
X5607090Y47084044D01*
X5361824Y47199020D01*
X5361819Y47199022D01*
X5361814Y47199024D01*
X5102442Y47277058D01*
X5102428Y47277061D01*
X4986791Y47294079D01*
X4834439Y47316500D01*
X4631369Y47316500D01*
X4631351Y47316500D01*
X4428844Y47301677D01*
X4428831Y47301675D01*
X4164453Y47242783D01*
X4164446Y47242780D01*
X3911439Y47146013D01*
X3675226Y47013443D01*
X3460822Y46847888D01*
X3272822Y46652891D01*
X3272816Y46652884D01*
X3115202Y46432581D01*
X3115199Y46432576D01*
X2991350Y46191691D01*
X2991343Y46191673D01*
X2903884Y45935315D01*
X2903881Y45935301D01*
X2854681Y45668932D01*
X2854680Y45668925D01*
X2844787Y45398237D01*
X500Y45398237D01*
X500Y49786500D01*
X20185Y49853539D01*
X72989Y49899294D01*
X124500Y49910500D01*
X99824500Y49910500D01*
X99891539Y49890815D01*
G37*
%TD.AperFunction*%
%TD*%
M02*
