%TF.GenerationSoftware,KiCad,Pcbnew,8.0.0-8.0.0-1~ubuntu22.04.1*%
%TF.CreationDate,2024-03-07T15:00:58-08:00*%
%TF.ProjectId,INAAmplifierRev2,494e4141-6d70-46c6-9966-696572526576,rev?*%
%TF.SameCoordinates,PX2bf7208PY9a4d770*%
%TF.FileFunction,Legend,Bot*%
%TF.FilePolarity,Positive*%
%FSLAX46Y46*%
G04 Gerber Fmt 4.6, Leading zero omitted, Abs format (unit mm)*
G04 Created by KiCad (PCBNEW 8.0.0-8.0.0-1~ubuntu22.04.1) date 2024-03-07 15:00:58*
%MOMM*%
%LPD*%
G01*
G04 APERTURE LIST*
%ADD10R,1.700000X1.700000*%
%ADD11O,1.700000X1.700000*%
%ADD12R,2.400000X1.600000*%
%ADD13O,2.400000X1.600000*%
%ADD14R,1.200000X1.200000*%
%ADD15C,1.200000*%
%ADD16C,3.200000*%
%ADD17C,1.600000*%
%ADD18O,1.600000X1.600000*%
%ADD19C,1.400000*%
%ADD20O,1.400000X1.400000*%
%ADD21R,1.600000X1.600000*%
%ADD22C,1.800000*%
G04 APERTURE END LIST*
%LPC*%
D10*
%TO.C,J15*%
X96000000Y21275000D03*
D11*
X96000000Y18735000D03*
%TD*%
D12*
%TO.C,U2*%
X66660000Y29835000D03*
D13*
X66660000Y27295000D03*
X66660000Y24755000D03*
X66660000Y22215000D03*
X74280000Y22215000D03*
X74280000Y24755000D03*
X74280000Y27295000D03*
X74280000Y29835000D03*
%TD*%
D14*
%TO.C,C5*%
X45081323Y19925060D03*
D15*
X43081323Y19925060D03*
%TD*%
D16*
%TO.C,H1*%
X4699000Y4826000D03*
%TD*%
D10*
%TO.C,J6*%
X85730000Y40005000D03*
D11*
X83190000Y40005000D03*
%TD*%
D16*
%TO.C,H3*%
X95123000Y45466000D03*
%TD*%
D10*
%TO.C,J14*%
X88900000Y17770000D03*
D11*
X88900000Y15230000D03*
X88900000Y12690000D03*
X88900000Y10150000D03*
%TD*%
D17*
%TO.C,R2*%
X11152500Y23876000D03*
D18*
X23852500Y23876000D03*
%TD*%
D16*
%TO.C,H2*%
X4699000Y45466000D03*
%TD*%
D19*
%TO.C,R10*%
X27940000Y34290000D03*
D20*
X35560000Y34290000D03*
%TD*%
D10*
%TO.C,J8*%
X60965000Y6350000D03*
D11*
X58425000Y6350000D03*
%TD*%
D21*
%TO.C,C13*%
X82637621Y20828000D03*
D17*
X85137621Y20828000D03*
%TD*%
D12*
%TO.C,U1*%
X27925000Y29835000D03*
D13*
X27925000Y27295000D03*
X27925000Y24755000D03*
X27925000Y22215000D03*
X35545000Y22215000D03*
X35545000Y24755000D03*
X35545000Y27295000D03*
X35545000Y29835000D03*
%TD*%
D17*
%TO.C,R5*%
X24130000Y18796000D03*
D18*
X24130000Y6096000D03*
%TD*%
D10*
%TO.C,J4*%
X79248000Y29723000D03*
D11*
X79248000Y27183000D03*
%TD*%
D17*
%TO.C,R6*%
X24130000Y46228000D03*
D18*
X24130000Y33528000D03*
%TD*%
D10*
%TO.C,J5*%
X72390000Y40005000D03*
D11*
X69850000Y40005000D03*
%TD*%
D16*
%TO.C,H4*%
X95123000Y4826000D03*
%TD*%
D10*
%TO.C,J12*%
X37856000Y14732000D03*
D11*
X40396000Y14732000D03*
X42936000Y14732000D03*
X45476000Y14732000D03*
%TD*%
D17*
%TO.C,R3*%
X11142867Y28097038D03*
D18*
X23842867Y28097038D03*
%TD*%
D22*
%TO.C,C14*%
X41761057Y24704546D03*
X46761057Y24704546D03*
%TD*%
D14*
%TO.C,C7*%
X52197000Y38862000D03*
D15*
X50197000Y38862000D03*
%TD*%
D10*
%TO.C,J7*%
X60960000Y45720000D03*
D11*
X58420000Y45720000D03*
%TD*%
D10*
%TO.C,J1*%
X10898500Y17531000D03*
D11*
X10898500Y14991000D03*
%TD*%
D10*
%TO.C,J3*%
X17150000Y6350000D03*
D11*
X14610000Y6350000D03*
%TD*%
D10*
%TO.C,J11*%
X74168000Y17272000D03*
%TD*%
%TO.C,J10*%
X67056000Y35560000D03*
%TD*%
%TO.C,J2*%
X10898500Y36835000D03*
D11*
X10898500Y34295000D03*
%TD*%
D10*
%TO.C,J13*%
X96000000Y29000000D03*
D11*
X96000000Y26460000D03*
%TD*%
D10*
%TO.C,J9*%
X14473000Y44196000D03*
D11*
X17013000Y44196000D03*
%TD*%
%LPD*%
M02*
